G04 #@! TF.GenerationSoftware,KiCad,Pcbnew,(5.0.1-3-g963ef8bb5)*
G04 #@! TF.CreationDate,2018-11-27T14:45:56+00:00*
G04 #@! TF.ProjectId,xbee-sensor,786265652D73656E736F722E6B696361,rev?*
G04 #@! TF.SameCoordinates,Original*
G04 #@! TF.FileFunction,Legend,Top*
G04 #@! TF.FilePolarity,Positive*
%FSLAX46Y46*%
G04 Gerber Fmt 4.6, Leading zero omitted, Abs format (unit mm)*
G04 Created by KiCad (PCBNEW (5.0.1-3-g963ef8bb5)) date Tuesday, 27 November 2018 at 14:45:56*
%MOMM*%
%LPD*%
G01*
G04 APERTURE LIST*
%ADD10C,0.300000*%
%ADD11C,0.120000*%
%ADD12C,0.150000*%
G04 APERTURE END LIST*
D10*
X141857142Y-151321428D02*
X141928571Y-151107142D01*
X141928571Y-150750000D01*
X141857142Y-150607142D01*
X141785714Y-150535714D01*
X141642857Y-150464285D01*
X141500000Y-150464285D01*
X141357142Y-150535714D01*
X141285714Y-150607142D01*
X141214285Y-150750000D01*
X141142857Y-151035714D01*
X141071428Y-151178571D01*
X141000000Y-151250000D01*
X140857142Y-151321428D01*
X140714285Y-151321428D01*
X140571428Y-151250000D01*
X140500000Y-151178571D01*
X140428571Y-151035714D01*
X140428571Y-150678571D01*
X140500000Y-150464285D01*
X141928571Y-149821428D02*
X140428571Y-149821428D01*
X140428571Y-149464285D01*
X140500000Y-149250000D01*
X140642857Y-149107142D01*
X140785714Y-149035714D01*
X141071428Y-148964285D01*
X141285714Y-148964285D01*
X141571428Y-149035714D01*
X141714285Y-149107142D01*
X141857142Y-149250000D01*
X141928571Y-149464285D01*
X141928571Y-149821428D01*
X141500000Y-148392857D02*
X141500000Y-147678571D01*
X141928571Y-148535714D02*
X140428571Y-148035714D01*
X141928571Y-147535714D01*
X139357142Y-151285714D02*
X139428571Y-151071428D01*
X139428571Y-150714285D01*
X139357142Y-150571428D01*
X139285714Y-150500000D01*
X139142857Y-150428571D01*
X139000000Y-150428571D01*
X138857142Y-150500000D01*
X138785714Y-150571428D01*
X138714285Y-150714285D01*
X138642857Y-151000000D01*
X138571428Y-151142857D01*
X138500000Y-151214285D01*
X138357142Y-151285714D01*
X138214285Y-151285714D01*
X138071428Y-151214285D01*
X138000000Y-151142857D01*
X137928571Y-151000000D01*
X137928571Y-150642857D01*
X138000000Y-150428571D01*
X139285714Y-148928571D02*
X139357142Y-149000000D01*
X139428571Y-149214285D01*
X139428571Y-149357142D01*
X139357142Y-149571428D01*
X139214285Y-149714285D01*
X139071428Y-149785714D01*
X138785714Y-149857142D01*
X138571428Y-149857142D01*
X138285714Y-149785714D01*
X138142857Y-149714285D01*
X138000000Y-149571428D01*
X137928571Y-149357142D01*
X137928571Y-149214285D01*
X138000000Y-149000000D01*
X138071428Y-148928571D01*
X139428571Y-147571428D02*
X139428571Y-148285714D01*
X137928571Y-148285714D01*
X142928571Y-151357142D02*
X142928571Y-150428571D01*
X143500000Y-150928571D01*
X143500000Y-150714285D01*
X143571428Y-150571428D01*
X143642857Y-150500000D01*
X143785714Y-150428571D01*
X144142857Y-150428571D01*
X144285714Y-150500000D01*
X144357142Y-150571428D01*
X144428571Y-150714285D01*
X144428571Y-151142857D01*
X144357142Y-151285714D01*
X144285714Y-151357142D01*
X142928571Y-150000000D02*
X144428571Y-149500000D01*
X142928571Y-149000000D01*
X142928571Y-148642857D02*
X142928571Y-147714285D01*
X143500000Y-148214285D01*
X143500000Y-148000000D01*
X143571428Y-147857142D01*
X143642857Y-147785714D01*
X143785714Y-147714285D01*
X144142857Y-147714285D01*
X144285714Y-147785714D01*
X144357142Y-147857142D01*
X144428571Y-148000000D01*
X144428571Y-148428571D01*
X144357142Y-148571428D01*
X144285714Y-148642857D01*
X135500000Y-150392857D02*
X135428571Y-150535714D01*
X135428571Y-150750000D01*
X135500000Y-150964285D01*
X135642857Y-151107142D01*
X135785714Y-151178571D01*
X136071428Y-151250000D01*
X136285714Y-151250000D01*
X136571428Y-151178571D01*
X136714285Y-151107142D01*
X136857142Y-150964285D01*
X136928571Y-150750000D01*
X136928571Y-150607142D01*
X136857142Y-150392857D01*
X136785714Y-150321428D01*
X136285714Y-150321428D01*
X136285714Y-150607142D01*
X136928571Y-149678571D02*
X135428571Y-149678571D01*
X136928571Y-148821428D01*
X135428571Y-148821428D01*
X136928571Y-148107142D02*
X135428571Y-148107142D01*
X135428571Y-147750000D01*
X135500000Y-147535714D01*
X135642857Y-147392857D01*
X135785714Y-147321428D01*
X136071428Y-147250000D01*
X136285714Y-147250000D01*
X136571428Y-147321428D01*
X136714285Y-147392857D01*
X136857142Y-147535714D01*
X136928571Y-147750000D01*
X136928571Y-148107142D01*
X140178571Y-119321428D02*
X139464285Y-119821428D01*
X140178571Y-120178571D02*
X138678571Y-120178571D01*
X138678571Y-119607142D01*
X138750000Y-119464285D01*
X138821428Y-119392857D01*
X138964285Y-119321428D01*
X139178571Y-119321428D01*
X139321428Y-119392857D01*
X139392857Y-119464285D01*
X139464285Y-119607142D01*
X139464285Y-120178571D01*
X140107142Y-118750000D02*
X140178571Y-118535714D01*
X140178571Y-118178571D01*
X140107142Y-118035714D01*
X140035714Y-117964285D01*
X139892857Y-117892857D01*
X139750000Y-117892857D01*
X139607142Y-117964285D01*
X139535714Y-118035714D01*
X139464285Y-118178571D01*
X139392857Y-118464285D01*
X139321428Y-118607142D01*
X139250000Y-118678571D01*
X139107142Y-118750000D01*
X138964285Y-118750000D01*
X138821428Y-118678571D01*
X138750000Y-118607142D01*
X138678571Y-118464285D01*
X138678571Y-118107142D01*
X138750000Y-117892857D01*
X138678571Y-117464285D02*
X138678571Y-116607142D01*
X140178571Y-117035714D02*
X138678571Y-117035714D01*
X139392857Y-102750000D02*
X139464285Y-102535714D01*
X139535714Y-102464285D01*
X139678571Y-102392857D01*
X139892857Y-102392857D01*
X140035714Y-102464285D01*
X140107142Y-102535714D01*
X140178571Y-102678571D01*
X140178571Y-103250000D01*
X138678571Y-103250000D01*
X138678571Y-102750000D01*
X138750000Y-102607142D01*
X138821428Y-102535714D01*
X138964285Y-102464285D01*
X139107142Y-102464285D01*
X139250000Y-102535714D01*
X139321428Y-102607142D01*
X139392857Y-102750000D01*
X139392857Y-103250000D01*
X138678571Y-101464285D02*
X138678571Y-101178571D01*
X138750000Y-101035714D01*
X138892857Y-100892857D01*
X139178571Y-100821428D01*
X139678571Y-100821428D01*
X139964285Y-100892857D01*
X140107142Y-101035714D01*
X140178571Y-101178571D01*
X140178571Y-101464285D01*
X140107142Y-101607142D01*
X139964285Y-101750000D01*
X139678571Y-101821428D01*
X139178571Y-101821428D01*
X138892857Y-101750000D01*
X138750000Y-101607142D01*
X138678571Y-101464285D01*
X138678571Y-99892857D02*
X138678571Y-99607142D01*
X138750000Y-99464285D01*
X138892857Y-99321428D01*
X139178571Y-99250000D01*
X139678571Y-99250000D01*
X139964285Y-99321428D01*
X140107142Y-99464285D01*
X140178571Y-99607142D01*
X140178571Y-99892857D01*
X140107142Y-100035714D01*
X139964285Y-100178571D01*
X139678571Y-100250000D01*
X139178571Y-100250000D01*
X138892857Y-100178571D01*
X138750000Y-100035714D01*
X138678571Y-99892857D01*
X138678571Y-98821428D02*
X138678571Y-97964285D01*
X140178571Y-98392857D02*
X138678571Y-98392857D01*
X138678571Y-97178571D02*
X138678571Y-97035714D01*
X138750000Y-96892857D01*
X138821428Y-96821428D01*
X138964285Y-96750000D01*
X139250000Y-96678571D01*
X139607142Y-96678571D01*
X139892857Y-96750000D01*
X140035714Y-96821428D01*
X140107142Y-96892857D01*
X140178571Y-97035714D01*
X140178571Y-97178571D01*
X140107142Y-97321428D01*
X140035714Y-97392857D01*
X139892857Y-97464285D01*
X139607142Y-97535714D01*
X139250000Y-97535714D01*
X138964285Y-97464285D01*
X138821428Y-97392857D01*
X138750000Y-97321428D01*
X138678571Y-97178571D01*
X115107142Y-142714285D02*
X115178571Y-142500000D01*
X115178571Y-142142857D01*
X115107142Y-142000000D01*
X115035714Y-141928571D01*
X114892857Y-141857142D01*
X114750000Y-141857142D01*
X114607142Y-141928571D01*
X114535714Y-142000000D01*
X114464285Y-142142857D01*
X114392857Y-142428571D01*
X114321428Y-142571428D01*
X114250000Y-142642857D01*
X114107142Y-142714285D01*
X113964285Y-142714285D01*
X113821428Y-142642857D01*
X113750000Y-142571428D01*
X113678571Y-142428571D01*
X113678571Y-142071428D01*
X113750000Y-141857142D01*
X113678571Y-140928571D02*
X113678571Y-140642857D01*
X113750000Y-140500000D01*
X113892857Y-140357142D01*
X114178571Y-140285714D01*
X114678571Y-140285714D01*
X114964285Y-140357142D01*
X115107142Y-140500000D01*
X115178571Y-140642857D01*
X115178571Y-140928571D01*
X115107142Y-141071428D01*
X114964285Y-141214285D01*
X114678571Y-141285714D01*
X114178571Y-141285714D01*
X113892857Y-141214285D01*
X113750000Y-141071428D01*
X113678571Y-140928571D01*
X115178571Y-138928571D02*
X115178571Y-139642857D01*
X113678571Y-139642857D01*
X114750000Y-138500000D02*
X114750000Y-137785714D01*
X115178571Y-138642857D02*
X113678571Y-138142857D01*
X115178571Y-137642857D01*
X115178571Y-136285714D02*
X114464285Y-136785714D01*
X115178571Y-137142857D02*
X113678571Y-137142857D01*
X113678571Y-136571428D01*
X113750000Y-136428571D01*
X113821428Y-136357142D01*
X113964285Y-136285714D01*
X114178571Y-136285714D01*
X114321428Y-136357142D01*
X114392857Y-136428571D01*
X114464285Y-136571428D01*
X114464285Y-137142857D01*
X141464285Y-120107142D02*
X141678571Y-120178571D01*
X142035714Y-120178571D01*
X142178571Y-120107142D01*
X142250000Y-120035714D01*
X142321428Y-119892857D01*
X142321428Y-119750000D01*
X142250000Y-119607142D01*
X142178571Y-119535714D01*
X142035714Y-119464285D01*
X141750000Y-119392857D01*
X141607142Y-119321428D01*
X141535714Y-119250000D01*
X141464285Y-119107142D01*
X141464285Y-118964285D01*
X141535714Y-118821428D01*
X141607142Y-118750000D01*
X141750000Y-118678571D01*
X142107142Y-118678571D01*
X142321428Y-118750000D01*
X142821428Y-118678571D02*
X143178571Y-120178571D01*
X143464285Y-119107142D01*
X143750000Y-120178571D01*
X144107142Y-118678571D01*
X144678571Y-120178571D02*
X144678571Y-118678571D01*
X145035714Y-118678571D01*
X145250000Y-118750000D01*
X145392857Y-118892857D01*
X145464285Y-119035714D01*
X145535714Y-119321428D01*
X145535714Y-119535714D01*
X145464285Y-119821428D01*
X145392857Y-119964285D01*
X145250000Y-120107142D01*
X145035714Y-120178571D01*
X144678571Y-120178571D01*
X148500000Y-120178571D02*
X148500000Y-118678571D01*
X149071428Y-118678571D01*
X149214285Y-118750000D01*
X149285714Y-118821428D01*
X149357142Y-118964285D01*
X149357142Y-119178571D01*
X149285714Y-119321428D01*
X149214285Y-119392857D01*
X149071428Y-119464285D01*
X148500000Y-119464285D01*
X150000000Y-120178571D02*
X150000000Y-118678571D01*
X151571428Y-120178571D02*
X151071428Y-119464285D01*
X150714285Y-120178571D02*
X150714285Y-118678571D01*
X151285714Y-118678571D01*
X151428571Y-118750000D01*
X151500000Y-118821428D01*
X151571428Y-118964285D01*
X151571428Y-119178571D01*
X151500000Y-119321428D01*
X151428571Y-119392857D01*
X151285714Y-119464285D01*
X150714285Y-119464285D01*
D11*
G04 #@! TO.C,C1*
X117803922Y-138040000D02*
X118321078Y-138040000D01*
X117803922Y-139460000D02*
X118321078Y-139460000D01*
G04 #@! TO.C,C2*
X122210000Y-138446078D02*
X122210000Y-137928922D01*
X120790000Y-138446078D02*
X120790000Y-137928922D01*
G04 #@! TO.C,C3*
X127375279Y-144510000D02*
X127049721Y-144510000D01*
X127375279Y-143490000D02*
X127049721Y-143490000D01*
G04 #@! TO.C,C4*
X130741422Y-143040000D02*
X131258578Y-143040000D01*
X130741422Y-144460000D02*
X131258578Y-144460000D01*
G04 #@! TO.C,C5*
X126460000Y-126446078D02*
X126460000Y-125928922D01*
X125040000Y-126446078D02*
X125040000Y-125928922D01*
G04 #@! TO.C,C7*
X123260000Y-126450279D02*
X123260000Y-126124721D01*
X122240000Y-126450279D02*
X122240000Y-126124721D01*
G04 #@! TO.C,J1*
X109920000Y-147370000D02*
X112580000Y-147370000D01*
X109920000Y-144770000D02*
X109920000Y-147370000D01*
X112580000Y-144770000D02*
X112580000Y-147370000D01*
X109920000Y-144770000D02*
X112580000Y-144770000D01*
X109920000Y-143500000D02*
X109920000Y-142170000D01*
X109920000Y-142170000D02*
X111250000Y-142170000D01*
G04 #@! TO.C,J2*
X134800000Y-151920000D02*
X134800000Y-154580000D01*
X142480000Y-151920000D02*
X134800000Y-151920000D01*
X142480000Y-154580000D02*
X134800000Y-154580000D01*
X142480000Y-151920000D02*
X142480000Y-154580000D01*
X143750000Y-151920000D02*
X145080000Y-151920000D01*
X145080000Y-151920000D02*
X145080000Y-153250000D01*
G04 #@! TO.C,J3*
X118140000Y-148640000D02*
X117860000Y-148640000D01*
X117860000Y-148640000D02*
X117860000Y-147040000D01*
X117860000Y-147040000D02*
X116940000Y-147040000D01*
X116940000Y-147040000D02*
X116940000Y-154860000D01*
X116940000Y-154860000D02*
X123060000Y-154860000D01*
X123060000Y-154860000D02*
X123060000Y-147040000D01*
X123060000Y-147040000D02*
X122140000Y-147040000D01*
X122140000Y-147040000D02*
X122140000Y-148640000D01*
X122140000Y-148640000D02*
X121860000Y-148640000D01*
X119500000Y-154860000D02*
X119500000Y-150500000D01*
X119500000Y-150500000D02*
X120500000Y-150500000D01*
X120500000Y-150500000D02*
X120500000Y-154860000D01*
X116940000Y-148640000D02*
X117860000Y-148640000D01*
X123060000Y-148640000D02*
X122140000Y-148640000D01*
X117700000Y-151000000D02*
X117700000Y-152600000D01*
X117700000Y-152600000D02*
X118700000Y-152600000D01*
X118700000Y-152600000D02*
X118700000Y-151000000D01*
X118700000Y-151000000D02*
X117700000Y-151000000D01*
X122300000Y-151000000D02*
X122300000Y-152600000D01*
X122300000Y-152600000D02*
X121300000Y-152600000D01*
X121300000Y-152600000D02*
X121300000Y-151000000D01*
X121300000Y-151000000D02*
X122300000Y-151000000D01*
X118700000Y-152600000D02*
X118700000Y-154860000D01*
X118200000Y-152600000D02*
X118200000Y-154860000D01*
X118140000Y-148640000D02*
X118140000Y-147425000D01*
G04 #@! TO.C,J4*
X151330000Y-121090000D02*
X148670000Y-121090000D01*
X151330000Y-126230000D02*
X151330000Y-121090000D01*
X148670000Y-126230000D02*
X148670000Y-121090000D01*
X151330000Y-126230000D02*
X148670000Y-126230000D01*
X151330000Y-127500000D02*
X151330000Y-128830000D01*
X151330000Y-128830000D02*
X150000000Y-128830000D01*
G04 #@! TO.C,J5*
X146080000Y-121090000D02*
X140880000Y-121090000D01*
X146080000Y-126230000D02*
X146080000Y-121090000D01*
X140880000Y-128830000D02*
X140880000Y-121090000D01*
X146080000Y-126230000D02*
X143480000Y-126230000D01*
X143480000Y-126230000D02*
X143480000Y-128830000D01*
X143480000Y-128830000D02*
X140880000Y-128830000D01*
X146080000Y-127500000D02*
X146080000Y-128830000D01*
X146080000Y-128830000D02*
X144750000Y-128830000D01*
G04 #@! TO.C,Q1*
X117990000Y-102920000D02*
X117990000Y-103850000D01*
X117990000Y-106080000D02*
X117990000Y-105150000D01*
X117990000Y-106080000D02*
X120150000Y-106080000D01*
X117990000Y-102920000D02*
X119450000Y-102920000D01*
G04 #@! TO.C,Q2*
X150760000Y-134080000D02*
X149300000Y-134080000D01*
X150760000Y-130920000D02*
X148600000Y-130920000D01*
X150760000Y-130920000D02*
X150760000Y-131850000D01*
X150760000Y-134080000D02*
X150760000Y-133150000D01*
G04 #@! TO.C,R1*
X111087221Y-140010000D02*
X111412779Y-140010000D01*
X111087221Y-138990000D02*
X111412779Y-138990000D01*
G04 #@! TO.C,R2*
X111049721Y-136240000D02*
X111375279Y-136240000D01*
X111049721Y-137260000D02*
X111375279Y-137260000D01*
G04 #@! TO.C,R3*
X114740000Y-145049721D02*
X114740000Y-145375279D01*
X115760000Y-145049721D02*
X115760000Y-145375279D01*
G04 #@! TO.C,R4*
X121874721Y-141490000D02*
X122200279Y-141490000D01*
X121874721Y-142510000D02*
X122200279Y-142510000D01*
G04 #@! TO.C,R5*
X122200279Y-144510000D02*
X121874721Y-144510000D01*
X122200279Y-143490000D02*
X121874721Y-143490000D01*
G04 #@! TO.C,R6*
X140010000Y-109549721D02*
X140010000Y-109875279D01*
X138990000Y-109549721D02*
X138990000Y-109875279D01*
G04 #@! TO.C,R7*
X140010000Y-105700279D02*
X140010000Y-105374721D01*
X138990000Y-105700279D02*
X138990000Y-105374721D01*
G04 #@! TO.C,SW1*
X143100000Y-116650000D02*
X143100000Y-117100000D01*
X143100000Y-117100000D02*
X149400000Y-117100000D01*
X149400000Y-117100000D02*
X149400000Y-116700000D01*
X143100000Y-115350000D02*
X143100000Y-112650000D01*
X149400000Y-112650000D02*
X149400000Y-115350000D01*
X143100000Y-110900000D02*
X149400000Y-110900000D01*
X149400000Y-110900000D02*
X149400000Y-111350000D01*
X143100000Y-111350000D02*
X143100000Y-110900000D01*
G04 #@! TO.C,SW2*
X143100000Y-103100000D02*
X143100000Y-102650000D01*
X149400000Y-102650000D02*
X149400000Y-103100000D01*
X143100000Y-102650000D02*
X149400000Y-102650000D01*
X149400000Y-104400000D02*
X149400000Y-107100000D01*
X143100000Y-107100000D02*
X143100000Y-104400000D01*
X149400000Y-108850000D02*
X149400000Y-108450000D01*
X143100000Y-108850000D02*
X149400000Y-108850000D01*
X143100000Y-108400000D02*
X143100000Y-108850000D01*
G04 #@! TO.C,U1*
X125840000Y-152410000D02*
X127100000Y-152410000D01*
X132660000Y-152410000D02*
X131400000Y-152410000D01*
X125840000Y-148650000D02*
X125840000Y-152410000D01*
X132660000Y-146400000D02*
X132660000Y-152410000D01*
G04 #@! TO.C,U2*
X119150000Y-141390000D02*
X117350000Y-141390000D01*
X117350000Y-144610000D02*
X119800000Y-144610000D01*
D12*
G04 #@! TO.C,U3*
X112250000Y-123750000D02*
X112250000Y-102250000D01*
X112250000Y-102250000D02*
X120250000Y-95750000D01*
X120250000Y-95750000D02*
X129250000Y-95750000D01*
X129250000Y-95750000D02*
X137250000Y-102250000D01*
X137250000Y-102250000D02*
X137250000Y-123750000D01*
X137250000Y-123750000D02*
X112250000Y-123750000D01*
G04 #@! TO.C,U4*
X128625000Y-129125000D02*
X128625000Y-129350000D01*
X135875000Y-129125000D02*
X135875000Y-129425000D01*
X135875000Y-136375000D02*
X135875000Y-136075000D01*
X128625000Y-136375000D02*
X128625000Y-136075000D01*
X128625000Y-129125000D02*
X128925000Y-129125000D01*
X128625000Y-136375000D02*
X128925000Y-136375000D01*
X135875000Y-136375000D02*
X135575000Y-136375000D01*
X135875000Y-129125000D02*
X135575000Y-129125000D01*
X128625000Y-129350000D02*
X127400000Y-129350000D01*
D11*
G04 #@! TO.C,Y1*
X124375000Y-130325000D02*
X124375000Y-131675000D01*
X126125000Y-130325000D02*
X126125000Y-131675000D01*
G04 #@! TO.C,U5*
X150881000Y-140770000D02*
X150500000Y-140389000D01*
X150119000Y-140770000D02*
X150881000Y-140770000D01*
X150500000Y-140389000D02*
X150119000Y-140770000D01*
X154310000Y-136325000D02*
X159517000Y-136325000D01*
X154310000Y-140135000D02*
X159517000Y-140135000D01*
X151520000Y-139500000D02*
X154310000Y-139500000D01*
X151520000Y-138230000D02*
X154310000Y-138230000D01*
X151520000Y-136960000D02*
X154310000Y-136960000D01*
X154310000Y-140630000D02*
X154310000Y-135830000D01*
X154310000Y-135830000D02*
X159500000Y-135830000D01*
X159500000Y-135830000D02*
X159500000Y-140630000D01*
X159500000Y-140630000D02*
X154310000Y-140630000D01*
G04 #@! TO.C,C6*
X136446078Y-140710000D02*
X135928922Y-140710000D01*
X136446078Y-139290000D02*
X135928922Y-139290000D01*
G04 #@! TO.C,C8*
X136375279Y-142490000D02*
X136049721Y-142490000D01*
X136375279Y-143510000D02*
X136049721Y-143510000D01*
G04 #@! TO.C,C9*
X140010000Y-113799721D02*
X140010000Y-114125279D01*
X138990000Y-113799721D02*
X138990000Y-114125279D01*
G04 #@! TO.C,C1*
D12*
X117895833Y-137457142D02*
X117848214Y-137504761D01*
X117705357Y-137552380D01*
X117610119Y-137552380D01*
X117467261Y-137504761D01*
X117372023Y-137409523D01*
X117324404Y-137314285D01*
X117276785Y-137123809D01*
X117276785Y-136980952D01*
X117324404Y-136790476D01*
X117372023Y-136695238D01*
X117467261Y-136600000D01*
X117610119Y-136552380D01*
X117705357Y-136552380D01*
X117848214Y-136600000D01*
X117895833Y-136647619D01*
X118848214Y-137552380D02*
X118276785Y-137552380D01*
X118562500Y-137552380D02*
X118562500Y-136552380D01*
X118467261Y-136695238D01*
X118372023Y-136790476D01*
X118276785Y-136838095D01*
G04 #@! TO.C,C2*
X121333333Y-136107142D02*
X121285714Y-136154761D01*
X121142857Y-136202380D01*
X121047619Y-136202380D01*
X120904761Y-136154761D01*
X120809523Y-136059523D01*
X120761904Y-135964285D01*
X120714285Y-135773809D01*
X120714285Y-135630952D01*
X120761904Y-135440476D01*
X120809523Y-135345238D01*
X120904761Y-135250000D01*
X121047619Y-135202380D01*
X121142857Y-135202380D01*
X121285714Y-135250000D01*
X121333333Y-135297619D01*
X121714285Y-135297619D02*
X121761904Y-135250000D01*
X121857142Y-135202380D01*
X122095238Y-135202380D01*
X122190476Y-135250000D01*
X122238095Y-135297619D01*
X122285714Y-135392857D01*
X122285714Y-135488095D01*
X122238095Y-135630952D01*
X121666666Y-136202380D01*
X122285714Y-136202380D01*
G04 #@! TO.C,C3*
X127045833Y-142357142D02*
X126998214Y-142404761D01*
X126855357Y-142452380D01*
X126760119Y-142452380D01*
X126617261Y-142404761D01*
X126522023Y-142309523D01*
X126474404Y-142214285D01*
X126426785Y-142023809D01*
X126426785Y-141880952D01*
X126474404Y-141690476D01*
X126522023Y-141595238D01*
X126617261Y-141500000D01*
X126760119Y-141452380D01*
X126855357Y-141452380D01*
X126998214Y-141500000D01*
X127045833Y-141547619D01*
X127379166Y-141452380D02*
X127998214Y-141452380D01*
X127664880Y-141833333D01*
X127807738Y-141833333D01*
X127902976Y-141880952D01*
X127950595Y-141928571D01*
X127998214Y-142023809D01*
X127998214Y-142261904D01*
X127950595Y-142357142D01*
X127902976Y-142404761D01*
X127807738Y-142452380D01*
X127522023Y-142452380D01*
X127426785Y-142404761D01*
X127379166Y-142357142D01*
G04 #@! TO.C,C4*
X130833333Y-142357142D02*
X130785714Y-142404761D01*
X130642857Y-142452380D01*
X130547619Y-142452380D01*
X130404761Y-142404761D01*
X130309523Y-142309523D01*
X130261904Y-142214285D01*
X130214285Y-142023809D01*
X130214285Y-141880952D01*
X130261904Y-141690476D01*
X130309523Y-141595238D01*
X130404761Y-141500000D01*
X130547619Y-141452380D01*
X130642857Y-141452380D01*
X130785714Y-141500000D01*
X130833333Y-141547619D01*
X131690476Y-141785714D02*
X131690476Y-142452380D01*
X131452380Y-141404761D02*
X131214285Y-142119047D01*
X131833333Y-142119047D01*
G04 #@! TO.C,C5*
X128107142Y-126416666D02*
X128154761Y-126464285D01*
X128202380Y-126607142D01*
X128202380Y-126702380D01*
X128154761Y-126845238D01*
X128059523Y-126940476D01*
X127964285Y-126988095D01*
X127773809Y-127035714D01*
X127630952Y-127035714D01*
X127440476Y-126988095D01*
X127345238Y-126940476D01*
X127250000Y-126845238D01*
X127202380Y-126702380D01*
X127202380Y-126607142D01*
X127250000Y-126464285D01*
X127297619Y-126416666D01*
X127202380Y-125511904D02*
X127202380Y-125988095D01*
X127678571Y-126035714D01*
X127630952Y-125988095D01*
X127583333Y-125892857D01*
X127583333Y-125654761D01*
X127630952Y-125559523D01*
X127678571Y-125511904D01*
X127773809Y-125464285D01*
X128011904Y-125464285D01*
X128107142Y-125511904D01*
X128154761Y-125559523D01*
X128202380Y-125654761D01*
X128202380Y-125892857D01*
X128154761Y-125988095D01*
X128107142Y-126035714D01*
G04 #@! TO.C,C7*
X121677142Y-126454166D02*
X121724761Y-126501785D01*
X121772380Y-126644642D01*
X121772380Y-126739880D01*
X121724761Y-126882738D01*
X121629523Y-126977976D01*
X121534285Y-127025595D01*
X121343809Y-127073214D01*
X121200952Y-127073214D01*
X121010476Y-127025595D01*
X120915238Y-126977976D01*
X120820000Y-126882738D01*
X120772380Y-126739880D01*
X120772380Y-126644642D01*
X120820000Y-126501785D01*
X120867619Y-126454166D01*
X120772380Y-126120833D02*
X120772380Y-125454166D01*
X121772380Y-125882738D01*
G04 #@! TO.C,J1*
X110916666Y-140622380D02*
X110916666Y-141336666D01*
X110869047Y-141479523D01*
X110773809Y-141574761D01*
X110630952Y-141622380D01*
X110535714Y-141622380D01*
X111916666Y-141622380D02*
X111345238Y-141622380D01*
X111630952Y-141622380D02*
X111630952Y-140622380D01*
X111535714Y-140765238D01*
X111440476Y-140860476D01*
X111345238Y-140908095D01*
G04 #@! TO.C,J2*
X145532380Y-153583333D02*
X146246666Y-153583333D01*
X146389523Y-153630952D01*
X146484761Y-153726190D01*
X146532380Y-153869047D01*
X146532380Y-153964285D01*
X145627619Y-153154761D02*
X145580000Y-153107142D01*
X145532380Y-153011904D01*
X145532380Y-152773809D01*
X145580000Y-152678571D01*
X145627619Y-152630952D01*
X145722857Y-152583333D01*
X145818095Y-152583333D01*
X145960952Y-152630952D01*
X146532380Y-153202380D01*
X146532380Y-152583333D01*
G04 #@! TO.C,J3*
X115166666Y-150702380D02*
X115166666Y-151416666D01*
X115119047Y-151559523D01*
X115023809Y-151654761D01*
X114880952Y-151702380D01*
X114785714Y-151702380D01*
X115547619Y-150702380D02*
X116166666Y-150702380D01*
X115833333Y-151083333D01*
X115976190Y-151083333D01*
X116071428Y-151130952D01*
X116119047Y-151178571D01*
X116166666Y-151273809D01*
X116166666Y-151511904D01*
X116119047Y-151607142D01*
X116071428Y-151654761D01*
X115976190Y-151702380D01*
X115690476Y-151702380D01*
X115595238Y-151654761D01*
X115547619Y-151607142D01*
G04 #@! TO.C,J4*
X149666666Y-129282380D02*
X149666666Y-129996666D01*
X149619047Y-130139523D01*
X149523809Y-130234761D01*
X149380952Y-130282380D01*
X149285714Y-130282380D01*
X150571428Y-129615714D02*
X150571428Y-130282380D01*
X150333333Y-129234761D02*
X150095238Y-129949047D01*
X150714285Y-129949047D01*
G04 #@! TO.C,J5*
X143146666Y-129282380D02*
X143146666Y-129996666D01*
X143099047Y-130139523D01*
X143003809Y-130234761D01*
X142860952Y-130282380D01*
X142765714Y-130282380D01*
X144099047Y-129282380D02*
X143622857Y-129282380D01*
X143575238Y-129758571D01*
X143622857Y-129710952D01*
X143718095Y-129663333D01*
X143956190Y-129663333D01*
X144051428Y-129710952D01*
X144099047Y-129758571D01*
X144146666Y-129853809D01*
X144146666Y-130091904D01*
X144099047Y-130187142D01*
X144051428Y-130234761D01*
X143956190Y-130282380D01*
X143718095Y-130282380D01*
X143622857Y-130234761D01*
X143575238Y-130187142D01*
G04 #@! TO.C,Q1*
X121904761Y-105047619D02*
X121809523Y-105000000D01*
X121714285Y-104904761D01*
X121571428Y-104761904D01*
X121476190Y-104714285D01*
X121380952Y-104714285D01*
X121428571Y-104952380D02*
X121333333Y-104904761D01*
X121238095Y-104809523D01*
X121190476Y-104619047D01*
X121190476Y-104285714D01*
X121238095Y-104095238D01*
X121333333Y-104000000D01*
X121428571Y-103952380D01*
X121619047Y-103952380D01*
X121714285Y-104000000D01*
X121809523Y-104095238D01*
X121857142Y-104285714D01*
X121857142Y-104619047D01*
X121809523Y-104809523D01*
X121714285Y-104904761D01*
X121619047Y-104952380D01*
X121428571Y-104952380D01*
X122809523Y-104952380D02*
X122238095Y-104952380D01*
X122523809Y-104952380D02*
X122523809Y-103952380D01*
X122428571Y-104095238D01*
X122333333Y-104190476D01*
X122238095Y-104238095D01*
G04 #@! TO.C,Q2*
X147154761Y-135047619D02*
X147059523Y-135000000D01*
X146964285Y-134904761D01*
X146821428Y-134761904D01*
X146726190Y-134714285D01*
X146630952Y-134714285D01*
X146678571Y-134952380D02*
X146583333Y-134904761D01*
X146488095Y-134809523D01*
X146440476Y-134619047D01*
X146440476Y-134285714D01*
X146488095Y-134095238D01*
X146583333Y-134000000D01*
X146678571Y-133952380D01*
X146869047Y-133952380D01*
X146964285Y-134000000D01*
X147059523Y-134095238D01*
X147107142Y-134285714D01*
X147107142Y-134619047D01*
X147059523Y-134809523D01*
X146964285Y-134904761D01*
X146869047Y-134952380D01*
X146678571Y-134952380D01*
X147488095Y-134047619D02*
X147535714Y-134000000D01*
X147630952Y-133952380D01*
X147869047Y-133952380D01*
X147964285Y-134000000D01*
X148011904Y-134047619D01*
X148059523Y-134142857D01*
X148059523Y-134238095D01*
X148011904Y-134380952D01*
X147440476Y-134952380D01*
X148059523Y-134952380D01*
G04 #@! TO.C,R1*
X111083333Y-138522380D02*
X110750000Y-138046190D01*
X110511904Y-138522380D02*
X110511904Y-137522380D01*
X110892857Y-137522380D01*
X110988095Y-137570000D01*
X111035714Y-137617619D01*
X111083333Y-137712857D01*
X111083333Y-137855714D01*
X111035714Y-137950952D01*
X110988095Y-137998571D01*
X110892857Y-138046190D01*
X110511904Y-138046190D01*
X112035714Y-138522380D02*
X111464285Y-138522380D01*
X111750000Y-138522380D02*
X111750000Y-137522380D01*
X111654761Y-137665238D01*
X111559523Y-137760476D01*
X111464285Y-137808095D01*
G04 #@! TO.C,R2*
X111045833Y-135772380D02*
X110712500Y-135296190D01*
X110474404Y-135772380D02*
X110474404Y-134772380D01*
X110855357Y-134772380D01*
X110950595Y-134820000D01*
X110998214Y-134867619D01*
X111045833Y-134962857D01*
X111045833Y-135105714D01*
X110998214Y-135200952D01*
X110950595Y-135248571D01*
X110855357Y-135296190D01*
X110474404Y-135296190D01*
X111426785Y-134867619D02*
X111474404Y-134820000D01*
X111569642Y-134772380D01*
X111807738Y-134772380D01*
X111902976Y-134820000D01*
X111950595Y-134867619D01*
X111998214Y-134962857D01*
X111998214Y-135058095D01*
X111950595Y-135200952D01*
X111379166Y-135772380D01*
X111998214Y-135772380D01*
G04 #@! TO.C,R3*
X115702380Y-147916666D02*
X115226190Y-148250000D01*
X115702380Y-148488095D02*
X114702380Y-148488095D01*
X114702380Y-148107142D01*
X114750000Y-148011904D01*
X114797619Y-147964285D01*
X114892857Y-147916666D01*
X115035714Y-147916666D01*
X115130952Y-147964285D01*
X115178571Y-148011904D01*
X115226190Y-148107142D01*
X115226190Y-148488095D01*
X114702380Y-147583333D02*
X114702380Y-146964285D01*
X115083333Y-147297619D01*
X115083333Y-147154761D01*
X115130952Y-147059523D01*
X115178571Y-147011904D01*
X115273809Y-146964285D01*
X115511904Y-146964285D01*
X115607142Y-147011904D01*
X115654761Y-147059523D01*
X115702380Y-147154761D01*
X115702380Y-147440476D01*
X115654761Y-147535714D01*
X115607142Y-147583333D01*
G04 #@! TO.C,R4*
X124333333Y-142452380D02*
X124000000Y-141976190D01*
X123761904Y-142452380D02*
X123761904Y-141452380D01*
X124142857Y-141452380D01*
X124238095Y-141500000D01*
X124285714Y-141547619D01*
X124333333Y-141642857D01*
X124333333Y-141785714D01*
X124285714Y-141880952D01*
X124238095Y-141928571D01*
X124142857Y-141976190D01*
X123761904Y-141976190D01*
X125190476Y-141785714D02*
X125190476Y-142452380D01*
X124952380Y-141404761D02*
X124714285Y-142119047D01*
X125333333Y-142119047D01*
G04 #@! TO.C,R5*
X124333333Y-144452380D02*
X124000000Y-143976190D01*
X123761904Y-144452380D02*
X123761904Y-143452380D01*
X124142857Y-143452380D01*
X124238095Y-143500000D01*
X124285714Y-143547619D01*
X124333333Y-143642857D01*
X124333333Y-143785714D01*
X124285714Y-143880952D01*
X124238095Y-143928571D01*
X124142857Y-143976190D01*
X123761904Y-143976190D01*
X125238095Y-143452380D02*
X124761904Y-143452380D01*
X124714285Y-143928571D01*
X124761904Y-143880952D01*
X124857142Y-143833333D01*
X125095238Y-143833333D01*
X125190476Y-143880952D01*
X125238095Y-143928571D01*
X125285714Y-144023809D01*
X125285714Y-144261904D01*
X125238095Y-144357142D01*
X125190476Y-144404761D01*
X125095238Y-144452380D01*
X124857142Y-144452380D01*
X124761904Y-144404761D01*
X124714285Y-144357142D01*
G04 #@! TO.C,R6*
X141382380Y-109879166D02*
X140906190Y-110212500D01*
X141382380Y-110450595D02*
X140382380Y-110450595D01*
X140382380Y-110069642D01*
X140430000Y-109974404D01*
X140477619Y-109926785D01*
X140572857Y-109879166D01*
X140715714Y-109879166D01*
X140810952Y-109926785D01*
X140858571Y-109974404D01*
X140906190Y-110069642D01*
X140906190Y-110450595D01*
X140382380Y-109022023D02*
X140382380Y-109212500D01*
X140430000Y-109307738D01*
X140477619Y-109355357D01*
X140620476Y-109450595D01*
X140810952Y-109498214D01*
X141191904Y-109498214D01*
X141287142Y-109450595D01*
X141334761Y-109402976D01*
X141382380Y-109307738D01*
X141382380Y-109117261D01*
X141334761Y-109022023D01*
X141287142Y-108974404D01*
X141191904Y-108926785D01*
X140953809Y-108926785D01*
X140858571Y-108974404D01*
X140810952Y-109022023D01*
X140763333Y-109117261D01*
X140763333Y-109307738D01*
X140810952Y-109402976D01*
X140858571Y-109450595D01*
X140953809Y-109498214D01*
G04 #@! TO.C,R7*
X138522380Y-105704166D02*
X138046190Y-106037500D01*
X138522380Y-106275595D02*
X137522380Y-106275595D01*
X137522380Y-105894642D01*
X137570000Y-105799404D01*
X137617619Y-105751785D01*
X137712857Y-105704166D01*
X137855714Y-105704166D01*
X137950952Y-105751785D01*
X137998571Y-105799404D01*
X138046190Y-105894642D01*
X138046190Y-106275595D01*
X137522380Y-105370833D02*
X137522380Y-104704166D01*
X138522380Y-105132738D01*
G04 #@! TO.C,SW1*
X144916666Y-110504761D02*
X145059523Y-110552380D01*
X145297619Y-110552380D01*
X145392857Y-110504761D01*
X145440476Y-110457142D01*
X145488095Y-110361904D01*
X145488095Y-110266666D01*
X145440476Y-110171428D01*
X145392857Y-110123809D01*
X145297619Y-110076190D01*
X145107142Y-110028571D01*
X145011904Y-109980952D01*
X144964285Y-109933333D01*
X144916666Y-109838095D01*
X144916666Y-109742857D01*
X144964285Y-109647619D01*
X145011904Y-109600000D01*
X145107142Y-109552380D01*
X145345238Y-109552380D01*
X145488095Y-109600000D01*
X145821428Y-109552380D02*
X146059523Y-110552380D01*
X146250000Y-109838095D01*
X146440476Y-110552380D01*
X146678571Y-109552380D01*
X147583333Y-110552380D02*
X147011904Y-110552380D01*
X147297619Y-110552380D02*
X147297619Y-109552380D01*
X147202380Y-109695238D01*
X147107142Y-109790476D01*
X147011904Y-109838095D01*
G04 #@! TO.C,SW2*
X144916666Y-102254761D02*
X145059523Y-102302380D01*
X145297619Y-102302380D01*
X145392857Y-102254761D01*
X145440476Y-102207142D01*
X145488095Y-102111904D01*
X145488095Y-102016666D01*
X145440476Y-101921428D01*
X145392857Y-101873809D01*
X145297619Y-101826190D01*
X145107142Y-101778571D01*
X145011904Y-101730952D01*
X144964285Y-101683333D01*
X144916666Y-101588095D01*
X144916666Y-101492857D01*
X144964285Y-101397619D01*
X145011904Y-101350000D01*
X145107142Y-101302380D01*
X145345238Y-101302380D01*
X145488095Y-101350000D01*
X145821428Y-101302380D02*
X146059523Y-102302380D01*
X146250000Y-101588095D01*
X146440476Y-102302380D01*
X146678571Y-101302380D01*
X147011904Y-101397619D02*
X147059523Y-101350000D01*
X147154761Y-101302380D01*
X147392857Y-101302380D01*
X147488095Y-101350000D01*
X147535714Y-101397619D01*
X147583333Y-101492857D01*
X147583333Y-101588095D01*
X147535714Y-101730952D01*
X146964285Y-102302380D01*
X147583333Y-102302380D01*
G04 #@! TO.C,U1*
X133238095Y-146452380D02*
X133238095Y-147261904D01*
X133285714Y-147357142D01*
X133333333Y-147404761D01*
X133428571Y-147452380D01*
X133619047Y-147452380D01*
X133714285Y-147404761D01*
X133761904Y-147357142D01*
X133809523Y-147261904D01*
X133809523Y-146452380D01*
X134809523Y-147452380D02*
X134238095Y-147452380D01*
X134523809Y-147452380D02*
X134523809Y-146452380D01*
X134428571Y-146595238D01*
X134333333Y-146690476D01*
X134238095Y-146738095D01*
G04 #@! TO.C,U2*
X117488095Y-145352380D02*
X117488095Y-146161904D01*
X117535714Y-146257142D01*
X117583333Y-146304761D01*
X117678571Y-146352380D01*
X117869047Y-146352380D01*
X117964285Y-146304761D01*
X118011904Y-146257142D01*
X118059523Y-146161904D01*
X118059523Y-145352380D01*
X118488095Y-145447619D02*
X118535714Y-145400000D01*
X118630952Y-145352380D01*
X118869047Y-145352380D01*
X118964285Y-145400000D01*
X119011904Y-145447619D01*
X119059523Y-145542857D01*
X119059523Y-145638095D01*
X119011904Y-145780952D01*
X118440476Y-146352380D01*
X119059523Y-146352380D01*
G04 #@! TO.C,U3*
X123988095Y-100202380D02*
X123988095Y-101011904D01*
X124035714Y-101107142D01*
X124083333Y-101154761D01*
X124178571Y-101202380D01*
X124369047Y-101202380D01*
X124464285Y-101154761D01*
X124511904Y-101107142D01*
X124559523Y-101011904D01*
X124559523Y-100202380D01*
X124940476Y-100202380D02*
X125559523Y-100202380D01*
X125226190Y-100583333D01*
X125369047Y-100583333D01*
X125464285Y-100630952D01*
X125511904Y-100678571D01*
X125559523Y-100773809D01*
X125559523Y-101011904D01*
X125511904Y-101107142D01*
X125464285Y-101154761D01*
X125369047Y-101202380D01*
X125083333Y-101202380D01*
X124988095Y-101154761D01*
X124940476Y-101107142D01*
G04 #@! TO.C,U4*
X131488095Y-126352380D02*
X131488095Y-127161904D01*
X131535714Y-127257142D01*
X131583333Y-127304761D01*
X131678571Y-127352380D01*
X131869047Y-127352380D01*
X131964285Y-127304761D01*
X132011904Y-127257142D01*
X132059523Y-127161904D01*
X132059523Y-126352380D01*
X132964285Y-126685714D02*
X132964285Y-127352380D01*
X132726190Y-126304761D02*
X132488095Y-127019047D01*
X133107142Y-127019047D01*
G04 #@! TO.C,Y1*
X124773809Y-133976190D02*
X124773809Y-134452380D01*
X124440476Y-133452380D02*
X124773809Y-133976190D01*
X125107142Y-133452380D01*
X125964285Y-134452380D02*
X125392857Y-134452380D01*
X125678571Y-134452380D02*
X125678571Y-133452380D01*
X125583333Y-133595238D01*
X125488095Y-133690476D01*
X125392857Y-133738095D01*
G04 #@! TO.C,U5*
X147952380Y-140511904D02*
X148761904Y-140511904D01*
X148857142Y-140464285D01*
X148904761Y-140416666D01*
X148952380Y-140321428D01*
X148952380Y-140130952D01*
X148904761Y-140035714D01*
X148857142Y-139988095D01*
X148761904Y-139940476D01*
X147952380Y-139940476D01*
X147952380Y-138988095D02*
X147952380Y-139464285D01*
X148428571Y-139511904D01*
X148380952Y-139464285D01*
X148333333Y-139369047D01*
X148333333Y-139130952D01*
X148380952Y-139035714D01*
X148428571Y-138988095D01*
X148523809Y-138940476D01*
X148761904Y-138940476D01*
X148857142Y-138988095D01*
X148904761Y-139035714D01*
X148952380Y-139130952D01*
X148952380Y-139369047D01*
X148904761Y-139464285D01*
X148857142Y-139511904D01*
G04 #@! TO.C,C10*
X119107142Y-130107142D02*
X119059523Y-130154761D01*
X118916666Y-130202380D01*
X118821428Y-130202380D01*
X118678571Y-130154761D01*
X118583333Y-130059523D01*
X118535714Y-129964285D01*
X118488095Y-129773809D01*
X118488095Y-129630952D01*
X118535714Y-129440476D01*
X118583333Y-129345238D01*
X118678571Y-129250000D01*
X118821428Y-129202380D01*
X118916666Y-129202380D01*
X119059523Y-129250000D01*
X119107142Y-129297619D01*
X120059523Y-130202380D02*
X119488095Y-130202380D01*
X119773809Y-130202380D02*
X119773809Y-129202380D01*
X119678571Y-129345238D01*
X119583333Y-129440476D01*
X119488095Y-129488095D01*
X120678571Y-129202380D02*
X120773809Y-129202380D01*
X120869047Y-129250000D01*
X120916666Y-129297619D01*
X120964285Y-129392857D01*
X121011904Y-129583333D01*
X121011904Y-129821428D01*
X120964285Y-130011904D01*
X120916666Y-130107142D01*
X120869047Y-130154761D01*
X120773809Y-130202380D01*
X120678571Y-130202380D01*
X120583333Y-130154761D01*
X120535714Y-130107142D01*
X120488095Y-130011904D01*
X120440476Y-129821428D01*
X120440476Y-129583333D01*
X120488095Y-129392857D01*
X120535714Y-129297619D01*
X120583333Y-129250000D01*
X120678571Y-129202380D01*
G04 #@! TO.C,C11*
X119107142Y-132607142D02*
X119059523Y-132654761D01*
X118916666Y-132702380D01*
X118821428Y-132702380D01*
X118678571Y-132654761D01*
X118583333Y-132559523D01*
X118535714Y-132464285D01*
X118488095Y-132273809D01*
X118488095Y-132130952D01*
X118535714Y-131940476D01*
X118583333Y-131845238D01*
X118678571Y-131750000D01*
X118821428Y-131702380D01*
X118916666Y-131702380D01*
X119059523Y-131750000D01*
X119107142Y-131797619D01*
X120059523Y-132702380D02*
X119488095Y-132702380D01*
X119773809Y-132702380D02*
X119773809Y-131702380D01*
X119678571Y-131845238D01*
X119583333Y-131940476D01*
X119488095Y-131988095D01*
X121011904Y-132702380D02*
X120440476Y-132702380D01*
X120726190Y-132702380D02*
X120726190Y-131702380D01*
X120630952Y-131845238D01*
X120535714Y-131940476D01*
X120440476Y-131988095D01*
G04 #@! TO.C,C6*
X138833333Y-140357142D02*
X138785714Y-140404761D01*
X138642857Y-140452380D01*
X138547619Y-140452380D01*
X138404761Y-140404761D01*
X138309523Y-140309523D01*
X138261904Y-140214285D01*
X138214285Y-140023809D01*
X138214285Y-139880952D01*
X138261904Y-139690476D01*
X138309523Y-139595238D01*
X138404761Y-139500000D01*
X138547619Y-139452380D01*
X138642857Y-139452380D01*
X138785714Y-139500000D01*
X138833333Y-139547619D01*
X139690476Y-139452380D02*
X139500000Y-139452380D01*
X139404761Y-139500000D01*
X139357142Y-139547619D01*
X139261904Y-139690476D01*
X139214285Y-139880952D01*
X139214285Y-140261904D01*
X139261904Y-140357142D01*
X139309523Y-140404761D01*
X139404761Y-140452380D01*
X139595238Y-140452380D01*
X139690476Y-140404761D01*
X139738095Y-140357142D01*
X139785714Y-140261904D01*
X139785714Y-140023809D01*
X139738095Y-139928571D01*
X139690476Y-139880952D01*
X139595238Y-139833333D01*
X139404761Y-139833333D01*
X139309523Y-139880952D01*
X139261904Y-139928571D01*
X139214285Y-140023809D01*
G04 #@! TO.C,C8*
X138833333Y-143357142D02*
X138785714Y-143404761D01*
X138642857Y-143452380D01*
X138547619Y-143452380D01*
X138404761Y-143404761D01*
X138309523Y-143309523D01*
X138261904Y-143214285D01*
X138214285Y-143023809D01*
X138214285Y-142880952D01*
X138261904Y-142690476D01*
X138309523Y-142595238D01*
X138404761Y-142500000D01*
X138547619Y-142452380D01*
X138642857Y-142452380D01*
X138785714Y-142500000D01*
X138833333Y-142547619D01*
X139404761Y-142880952D02*
X139309523Y-142833333D01*
X139261904Y-142785714D01*
X139214285Y-142690476D01*
X139214285Y-142642857D01*
X139261904Y-142547619D01*
X139309523Y-142500000D01*
X139404761Y-142452380D01*
X139595238Y-142452380D01*
X139690476Y-142500000D01*
X139738095Y-142547619D01*
X139785714Y-142642857D01*
X139785714Y-142690476D01*
X139738095Y-142785714D01*
X139690476Y-142833333D01*
X139595238Y-142880952D01*
X139404761Y-142880952D01*
X139309523Y-142928571D01*
X139261904Y-142976190D01*
X139214285Y-143071428D01*
X139214285Y-143261904D01*
X139261904Y-143357142D01*
X139309523Y-143404761D01*
X139404761Y-143452380D01*
X139595238Y-143452380D01*
X139690476Y-143404761D01*
X139738095Y-143357142D01*
X139785714Y-143261904D01*
X139785714Y-143071428D01*
X139738095Y-142976190D01*
X139690476Y-142928571D01*
X139595238Y-142880952D01*
G04 #@! TO.C,C9*
X141287142Y-114129166D02*
X141334761Y-114176785D01*
X141382380Y-114319642D01*
X141382380Y-114414880D01*
X141334761Y-114557738D01*
X141239523Y-114652976D01*
X141144285Y-114700595D01*
X140953809Y-114748214D01*
X140810952Y-114748214D01*
X140620476Y-114700595D01*
X140525238Y-114652976D01*
X140430000Y-114557738D01*
X140382380Y-114414880D01*
X140382380Y-114319642D01*
X140430000Y-114176785D01*
X140477619Y-114129166D01*
X141382380Y-113652976D02*
X141382380Y-113462500D01*
X141334761Y-113367261D01*
X141287142Y-113319642D01*
X141144285Y-113224404D01*
X140953809Y-113176785D01*
X140572857Y-113176785D01*
X140477619Y-113224404D01*
X140430000Y-113272023D01*
X140382380Y-113367261D01*
X140382380Y-113557738D01*
X140430000Y-113652976D01*
X140477619Y-113700595D01*
X140572857Y-113748214D01*
X140810952Y-113748214D01*
X140906190Y-113700595D01*
X140953809Y-113652976D01*
X141001428Y-113557738D01*
X141001428Y-113367261D01*
X140953809Y-113272023D01*
X140906190Y-113224404D01*
X140810952Y-113176785D01*
G04 #@! TD*
M02*
