M48
;DRILL file {KiCad 5.0.2-bee76a0~70~ubuntu18.10.1} date Sun 30 Jun 2019 16:34:01 BST
;FORMAT={-:-/ absolute / inch / decimal}
FMAT,2
INCH,TZ
T1C0.0157
T2C0.0295
T3C0.0300
T4C0.0315
T5C0.0394
%
G90
G05
T1
X4.8622Y-3.8879
X4.9016Y-4.1142
X5.Y-3.9164
X5.Y-4.0468
X5.2165Y-3.2283
X5.2165Y-4.1142
X5.224Y-3.8976
X5.2953Y-3.7795
X5.313Y-3.563
X5.4331Y-4.2126
X5.439Y-3.5876
X5.4684Y-3.3251
X5.4717Y-3.6526
X5.4724Y-3.8386
X5.4921Y-3.5236
X5.5118Y-3.3585
X5.5709Y-3.4449
X5.5709Y-3.7992
X5.6102Y-3.6417
X5.6735Y-3.3934
X5.6831Y-3.5224
X5.7874Y-4.4094
X5.8268Y-3.2087
X5.8465Y-3.3465
X5.8656Y-3.8386
X5.8661Y-4.0551
X5.8701Y-3.3111
X5.8858Y-3.2283
X5.905Y-3.8391
X5.9055Y-3.4843
X5.9055Y-3.9567
X5.9449Y-3.4449
X5.9449Y-3.8386
X5.9847Y-3.838
X6.063Y-3.8583
X6.063Y-3.8976
X6.063Y-3.9567
X6.063Y-4.0551
X6.1024Y-3.3268
X6.1909Y-3.8642
X6.2205Y-3.622
T2
X5.5512Y-4.252
X5.6299Y-4.252
T3
X5.1575Y-3.0315
X5.1575Y-3.1102
X5.1575Y-3.189
X5.1575Y-3.2677
X5.1575Y-3.3465
X5.1575Y-3.4252
X5.1575Y-3.5039
X5.1575Y-3.5827
X5.1575Y-3.6614
X5.1575Y-3.7402
X6.0236Y-3.0315
X6.0236Y-3.1102
X6.0236Y-3.189
X6.0236Y-3.2677
X6.0236Y-3.3465
X6.0236Y-3.4252
X6.0236Y-3.5039
X6.0236Y-3.5827
X6.0236Y-3.6614
X6.0236Y-3.7402
T4
X6.2992Y-3.2965
X6.2992Y-3.3465
X6.2992Y-3.3965
T5
X6.2992Y-3.8583
X6.2992Y-3.9583
X6.2992Y-4.0583
X6.2992Y-4.1583
X5.8661Y-4.252
X5.8661Y-4.352
X5.8661Y-4.452
X5.9661Y-4.252
X5.9661Y-4.352
X5.9661Y-4.452
X5.1969Y-4.4488
X5.2969Y-4.4488
X6.2992Y-3.5039
X6.2992Y-3.6039
X6.2992Y-3.7039
X4.9016Y-3.563
X5.0016Y-3.563
T0
M30
