G04 #@! TF.GenerationSoftware,KiCad,Pcbnew,5.0.2-bee76a0~70~ubuntu18.10.1*
G04 #@! TF.CreationDate,2019-06-30T16:33:55+01:00*
G04 #@! TF.ProjectId,xbee-sensor,78626565-2d73-4656-9e73-6f722e6b6963,rev?*
G04 #@! TF.SameCoordinates,Original*
G04 #@! TF.FileFunction,Copper,L1,Top*
G04 #@! TF.FilePolarity,Positive*
%FSLAX46Y46*%
G04 Gerber Fmt 4.6, Leading zero omitted, Abs format (unit mm)*
G04 Created by KiCad (PCBNEW 5.0.2-bee76a0~70~ubuntu18.10.1) date Sun 30 Jun 2019 16:33:55 BST*
%MOMM*%
%LPD*%
G01*
G04 APERTURE LIST*
G04 #@! TA.AperFunction,Conductor*
%ADD10C,0.100000*%
G04 #@! TD*
G04 #@! TA.AperFunction,SMDPad,CuDef*
%ADD11C,0.975000*%
G04 #@! TD*
G04 #@! TA.AperFunction,SMDPad,CuDef*
%ADD12C,0.875000*%
G04 #@! TD*
G04 #@! TA.AperFunction,SMDPad,CuDef*
%ADD13C,0.590000*%
G04 #@! TD*
G04 #@! TA.AperFunction,ComponentPad*
%ADD14R,1.700000X1.700000*%
G04 #@! TD*
G04 #@! TA.AperFunction,ComponentPad*
%ADD15O,1.700000X1.700000*%
G04 #@! TD*
G04 #@! TA.AperFunction,ComponentPad*
%ADD16C,1.200000*%
G04 #@! TD*
G04 #@! TA.AperFunction,ComponentPad*
%ADD17O,1.200000X1.750000*%
G04 #@! TD*
G04 #@! TA.AperFunction,SMDPad,CuDef*
%ADD18R,0.900000X0.800000*%
G04 #@! TD*
G04 #@! TA.AperFunction,SMDPad,CuDef*
%ADD19R,2.000000X3.800000*%
G04 #@! TD*
G04 #@! TA.AperFunction,SMDPad,CuDef*
%ADD20R,2.000000X1.500000*%
G04 #@! TD*
G04 #@! TA.AperFunction,SMDPad,CuDef*
%ADD21R,1.060000X0.650000*%
G04 #@! TD*
G04 #@! TA.AperFunction,ComponentPad*
%ADD22C,1.524000*%
G04 #@! TD*
G04 #@! TA.AperFunction,SMDPad,CuDef*
%ADD23R,1.200000X0.600000*%
G04 #@! TD*
G04 #@! TA.AperFunction,SMDPad,CuDef*
%ADD24R,0.600000X1.200000*%
G04 #@! TD*
G04 #@! TA.AperFunction,ComponentPad*
%ADD25R,1.600000X1.100000*%
G04 #@! TD*
G04 #@! TA.AperFunction,ComponentPad*
%ADD26O,1.600000X1.100000*%
G04 #@! TD*
G04 #@! TA.AperFunction,SMDPad,CuDef*
%ADD27R,1.800000X1.000000*%
G04 #@! TD*
G04 #@! TA.AperFunction,ViaPad*
%ADD28C,0.800000*%
G04 #@! TD*
G04 #@! TA.AperFunction,Conductor*
%ADD29C,0.500000*%
G04 #@! TD*
G04 #@! TA.AperFunction,Conductor*
%ADD30C,0.250000*%
G04 #@! TD*
G04 APERTURE END LIST*
D10*
G04 #@! TO.N,SOLAR*
G04 #@! TO.C,C1*
G36*
X133205142Y-105301174D02*
X133228803Y-105304684D01*
X133252007Y-105310496D01*
X133274529Y-105318554D01*
X133296153Y-105328782D01*
X133316670Y-105341079D01*
X133335883Y-105355329D01*
X133353607Y-105371393D01*
X133369671Y-105389117D01*
X133383921Y-105408330D01*
X133396218Y-105428847D01*
X133406446Y-105450471D01*
X133414504Y-105472993D01*
X133420316Y-105496197D01*
X133423826Y-105519858D01*
X133425000Y-105543750D01*
X133425000Y-106456250D01*
X133423826Y-106480142D01*
X133420316Y-106503803D01*
X133414504Y-106527007D01*
X133406446Y-106549529D01*
X133396218Y-106571153D01*
X133383921Y-106591670D01*
X133369671Y-106610883D01*
X133353607Y-106628607D01*
X133335883Y-106644671D01*
X133316670Y-106658921D01*
X133296153Y-106671218D01*
X133274529Y-106681446D01*
X133252007Y-106689504D01*
X133228803Y-106695316D01*
X133205142Y-106698826D01*
X133181250Y-106700000D01*
X132693750Y-106700000D01*
X132669858Y-106698826D01*
X132646197Y-106695316D01*
X132622993Y-106689504D01*
X132600471Y-106681446D01*
X132578847Y-106671218D01*
X132558330Y-106658921D01*
X132539117Y-106644671D01*
X132521393Y-106628607D01*
X132505329Y-106610883D01*
X132491079Y-106591670D01*
X132478782Y-106571153D01*
X132468554Y-106549529D01*
X132460496Y-106527007D01*
X132454684Y-106503803D01*
X132451174Y-106480142D01*
X132450000Y-106456250D01*
X132450000Y-105543750D01*
X132451174Y-105519858D01*
X132454684Y-105496197D01*
X132460496Y-105472993D01*
X132468554Y-105450471D01*
X132478782Y-105428847D01*
X132491079Y-105408330D01*
X132505329Y-105389117D01*
X132521393Y-105371393D01*
X132539117Y-105355329D01*
X132558330Y-105341079D01*
X132578847Y-105328782D01*
X132600471Y-105318554D01*
X132622993Y-105310496D01*
X132646197Y-105304684D01*
X132669858Y-105301174D01*
X132693750Y-105300000D01*
X133181250Y-105300000D01*
X133205142Y-105301174D01*
X133205142Y-105301174D01*
G37*
D11*
G04 #@! TD*
G04 #@! TO.P,C1,1*
G04 #@! TO.N,SOLAR*
X132937500Y-106000000D03*
D10*
G04 #@! TO.N,GND*
G04 #@! TO.C,C1*
G36*
X131330142Y-105301174D02*
X131353803Y-105304684D01*
X131377007Y-105310496D01*
X131399529Y-105318554D01*
X131421153Y-105328782D01*
X131441670Y-105341079D01*
X131460883Y-105355329D01*
X131478607Y-105371393D01*
X131494671Y-105389117D01*
X131508921Y-105408330D01*
X131521218Y-105428847D01*
X131531446Y-105450471D01*
X131539504Y-105472993D01*
X131545316Y-105496197D01*
X131548826Y-105519858D01*
X131550000Y-105543750D01*
X131550000Y-106456250D01*
X131548826Y-106480142D01*
X131545316Y-106503803D01*
X131539504Y-106527007D01*
X131531446Y-106549529D01*
X131521218Y-106571153D01*
X131508921Y-106591670D01*
X131494671Y-106610883D01*
X131478607Y-106628607D01*
X131460883Y-106644671D01*
X131441670Y-106658921D01*
X131421153Y-106671218D01*
X131399529Y-106681446D01*
X131377007Y-106689504D01*
X131353803Y-106695316D01*
X131330142Y-106698826D01*
X131306250Y-106700000D01*
X130818750Y-106700000D01*
X130794858Y-106698826D01*
X130771197Y-106695316D01*
X130747993Y-106689504D01*
X130725471Y-106681446D01*
X130703847Y-106671218D01*
X130683330Y-106658921D01*
X130664117Y-106644671D01*
X130646393Y-106628607D01*
X130630329Y-106610883D01*
X130616079Y-106591670D01*
X130603782Y-106571153D01*
X130593554Y-106549529D01*
X130585496Y-106527007D01*
X130579684Y-106503803D01*
X130576174Y-106480142D01*
X130575000Y-106456250D01*
X130575000Y-105543750D01*
X130576174Y-105519858D01*
X130579684Y-105496197D01*
X130585496Y-105472993D01*
X130593554Y-105450471D01*
X130603782Y-105428847D01*
X130616079Y-105408330D01*
X130630329Y-105389117D01*
X130646393Y-105371393D01*
X130664117Y-105355329D01*
X130683330Y-105341079D01*
X130703847Y-105328782D01*
X130725471Y-105318554D01*
X130747993Y-105310496D01*
X130771197Y-105304684D01*
X130794858Y-105301174D01*
X130818750Y-105300000D01*
X131306250Y-105300000D01*
X131330142Y-105301174D01*
X131330142Y-105301174D01*
G37*
D11*
G04 #@! TD*
G04 #@! TO.P,C1,2*
G04 #@! TO.N,GND*
X131062500Y-106000000D03*
D10*
G04 #@! TO.N,BATTERY*
G04 #@! TO.C,C2*
G36*
X137480142Y-107576174D02*
X137503803Y-107579684D01*
X137527007Y-107585496D01*
X137549529Y-107593554D01*
X137571153Y-107603782D01*
X137591670Y-107616079D01*
X137610883Y-107630329D01*
X137628607Y-107646393D01*
X137644671Y-107664117D01*
X137658921Y-107683330D01*
X137671218Y-107703847D01*
X137681446Y-107725471D01*
X137689504Y-107747993D01*
X137695316Y-107771197D01*
X137698826Y-107794858D01*
X137700000Y-107818750D01*
X137700000Y-108306250D01*
X137698826Y-108330142D01*
X137695316Y-108353803D01*
X137689504Y-108377007D01*
X137681446Y-108399529D01*
X137671218Y-108421153D01*
X137658921Y-108441670D01*
X137644671Y-108460883D01*
X137628607Y-108478607D01*
X137610883Y-108494671D01*
X137591670Y-108508921D01*
X137571153Y-108521218D01*
X137549529Y-108531446D01*
X137527007Y-108539504D01*
X137503803Y-108545316D01*
X137480142Y-108548826D01*
X137456250Y-108550000D01*
X136543750Y-108550000D01*
X136519858Y-108548826D01*
X136496197Y-108545316D01*
X136472993Y-108539504D01*
X136450471Y-108531446D01*
X136428847Y-108521218D01*
X136408330Y-108508921D01*
X136389117Y-108494671D01*
X136371393Y-108478607D01*
X136355329Y-108460883D01*
X136341079Y-108441670D01*
X136328782Y-108421153D01*
X136318554Y-108399529D01*
X136310496Y-108377007D01*
X136304684Y-108353803D01*
X136301174Y-108330142D01*
X136300000Y-108306250D01*
X136300000Y-107818750D01*
X136301174Y-107794858D01*
X136304684Y-107771197D01*
X136310496Y-107747993D01*
X136318554Y-107725471D01*
X136328782Y-107703847D01*
X136341079Y-107683330D01*
X136355329Y-107664117D01*
X136371393Y-107646393D01*
X136389117Y-107630329D01*
X136408330Y-107616079D01*
X136428847Y-107603782D01*
X136450471Y-107593554D01*
X136472993Y-107585496D01*
X136496197Y-107579684D01*
X136519858Y-107576174D01*
X136543750Y-107575000D01*
X137456250Y-107575000D01*
X137480142Y-107576174D01*
X137480142Y-107576174D01*
G37*
D11*
G04 #@! TD*
G04 #@! TO.P,C2,1*
G04 #@! TO.N,BATTERY*
X137000000Y-108062500D03*
D10*
G04 #@! TO.N,GND*
G04 #@! TO.C,C2*
G36*
X137480142Y-109451174D02*
X137503803Y-109454684D01*
X137527007Y-109460496D01*
X137549529Y-109468554D01*
X137571153Y-109478782D01*
X137591670Y-109491079D01*
X137610883Y-109505329D01*
X137628607Y-109521393D01*
X137644671Y-109539117D01*
X137658921Y-109558330D01*
X137671218Y-109578847D01*
X137681446Y-109600471D01*
X137689504Y-109622993D01*
X137695316Y-109646197D01*
X137698826Y-109669858D01*
X137700000Y-109693750D01*
X137700000Y-110181250D01*
X137698826Y-110205142D01*
X137695316Y-110228803D01*
X137689504Y-110252007D01*
X137681446Y-110274529D01*
X137671218Y-110296153D01*
X137658921Y-110316670D01*
X137644671Y-110335883D01*
X137628607Y-110353607D01*
X137610883Y-110369671D01*
X137591670Y-110383921D01*
X137571153Y-110396218D01*
X137549529Y-110406446D01*
X137527007Y-110414504D01*
X137503803Y-110420316D01*
X137480142Y-110423826D01*
X137456250Y-110425000D01*
X136543750Y-110425000D01*
X136519858Y-110423826D01*
X136496197Y-110420316D01*
X136472993Y-110414504D01*
X136450471Y-110406446D01*
X136428847Y-110396218D01*
X136408330Y-110383921D01*
X136389117Y-110369671D01*
X136371393Y-110353607D01*
X136355329Y-110335883D01*
X136341079Y-110316670D01*
X136328782Y-110296153D01*
X136318554Y-110274529D01*
X136310496Y-110252007D01*
X136304684Y-110228803D01*
X136301174Y-110205142D01*
X136300000Y-110181250D01*
X136300000Y-109693750D01*
X136301174Y-109669858D01*
X136304684Y-109646197D01*
X136310496Y-109622993D01*
X136318554Y-109600471D01*
X136328782Y-109578847D01*
X136341079Y-109558330D01*
X136355329Y-109539117D01*
X136371393Y-109521393D01*
X136389117Y-109505329D01*
X136408330Y-109491079D01*
X136428847Y-109478782D01*
X136450471Y-109468554D01*
X136472993Y-109460496D01*
X136496197Y-109454684D01*
X136519858Y-109451174D01*
X136543750Y-109450000D01*
X137456250Y-109450000D01*
X137480142Y-109451174D01*
X137480142Y-109451174D01*
G37*
D11*
G04 #@! TD*
G04 #@! TO.P,C2,2*
G04 #@! TO.N,GND*
X137000000Y-109937500D03*
D10*
G04 #@! TO.N,GND*
G04 #@! TO.C,C3*
G36*
X135452691Y-105526053D02*
X135473926Y-105529203D01*
X135494750Y-105534419D01*
X135514962Y-105541651D01*
X135534368Y-105550830D01*
X135552781Y-105561866D01*
X135570024Y-105574654D01*
X135585930Y-105589070D01*
X135600346Y-105604976D01*
X135613134Y-105622219D01*
X135624170Y-105640632D01*
X135633349Y-105660038D01*
X135640581Y-105680250D01*
X135645797Y-105701074D01*
X135648947Y-105722309D01*
X135650000Y-105743750D01*
X135650000Y-106256250D01*
X135648947Y-106277691D01*
X135645797Y-106298926D01*
X135640581Y-106319750D01*
X135633349Y-106339962D01*
X135624170Y-106359368D01*
X135613134Y-106377781D01*
X135600346Y-106395024D01*
X135585930Y-106410930D01*
X135570024Y-106425346D01*
X135552781Y-106438134D01*
X135534368Y-106449170D01*
X135514962Y-106458349D01*
X135494750Y-106465581D01*
X135473926Y-106470797D01*
X135452691Y-106473947D01*
X135431250Y-106475000D01*
X134993750Y-106475000D01*
X134972309Y-106473947D01*
X134951074Y-106470797D01*
X134930250Y-106465581D01*
X134910038Y-106458349D01*
X134890632Y-106449170D01*
X134872219Y-106438134D01*
X134854976Y-106425346D01*
X134839070Y-106410930D01*
X134824654Y-106395024D01*
X134811866Y-106377781D01*
X134800830Y-106359368D01*
X134791651Y-106339962D01*
X134784419Y-106319750D01*
X134779203Y-106298926D01*
X134776053Y-106277691D01*
X134775000Y-106256250D01*
X134775000Y-105743750D01*
X134776053Y-105722309D01*
X134779203Y-105701074D01*
X134784419Y-105680250D01*
X134791651Y-105660038D01*
X134800830Y-105640632D01*
X134811866Y-105622219D01*
X134824654Y-105604976D01*
X134839070Y-105589070D01*
X134854976Y-105574654D01*
X134872219Y-105561866D01*
X134890632Y-105550830D01*
X134910038Y-105541651D01*
X134930250Y-105534419D01*
X134951074Y-105529203D01*
X134972309Y-105526053D01*
X134993750Y-105525000D01*
X135431250Y-105525000D01*
X135452691Y-105526053D01*
X135452691Y-105526053D01*
G37*
D12*
G04 #@! TD*
G04 #@! TO.P,C3,2*
G04 #@! TO.N,GND*
X135212500Y-106000000D03*
D10*
G04 #@! TO.N,BATTERY*
G04 #@! TO.C,C3*
G36*
X137027691Y-105526053D02*
X137048926Y-105529203D01*
X137069750Y-105534419D01*
X137089962Y-105541651D01*
X137109368Y-105550830D01*
X137127781Y-105561866D01*
X137145024Y-105574654D01*
X137160930Y-105589070D01*
X137175346Y-105604976D01*
X137188134Y-105622219D01*
X137199170Y-105640632D01*
X137208349Y-105660038D01*
X137215581Y-105680250D01*
X137220797Y-105701074D01*
X137223947Y-105722309D01*
X137225000Y-105743750D01*
X137225000Y-106256250D01*
X137223947Y-106277691D01*
X137220797Y-106298926D01*
X137215581Y-106319750D01*
X137208349Y-106339962D01*
X137199170Y-106359368D01*
X137188134Y-106377781D01*
X137175346Y-106395024D01*
X137160930Y-106410930D01*
X137145024Y-106425346D01*
X137127781Y-106438134D01*
X137109368Y-106449170D01*
X137089962Y-106458349D01*
X137069750Y-106465581D01*
X137048926Y-106470797D01*
X137027691Y-106473947D01*
X137006250Y-106475000D01*
X136568750Y-106475000D01*
X136547309Y-106473947D01*
X136526074Y-106470797D01*
X136505250Y-106465581D01*
X136485038Y-106458349D01*
X136465632Y-106449170D01*
X136447219Y-106438134D01*
X136429976Y-106425346D01*
X136414070Y-106410930D01*
X136399654Y-106395024D01*
X136386866Y-106377781D01*
X136375830Y-106359368D01*
X136366651Y-106339962D01*
X136359419Y-106319750D01*
X136354203Y-106298926D01*
X136351053Y-106277691D01*
X136350000Y-106256250D01*
X136350000Y-105743750D01*
X136351053Y-105722309D01*
X136354203Y-105701074D01*
X136359419Y-105680250D01*
X136366651Y-105660038D01*
X136375830Y-105640632D01*
X136386866Y-105622219D01*
X136399654Y-105604976D01*
X136414070Y-105589070D01*
X136429976Y-105574654D01*
X136447219Y-105561866D01*
X136465632Y-105550830D01*
X136485038Y-105541651D01*
X136505250Y-105534419D01*
X136526074Y-105529203D01*
X136547309Y-105526053D01*
X136568750Y-105525000D01*
X137006250Y-105525000D01*
X137027691Y-105526053D01*
X137027691Y-105526053D01*
G37*
D12*
G04 #@! TD*
G04 #@! TO.P,C3,1*
G04 #@! TO.N,BATTERY*
X136787500Y-106000000D03*
D10*
G04 #@! TO.N,GND*
G04 #@! TO.C,C4*
G36*
X136480142Y-99576174D02*
X136503803Y-99579684D01*
X136527007Y-99585496D01*
X136549529Y-99593554D01*
X136571153Y-99603782D01*
X136591670Y-99616079D01*
X136610883Y-99630329D01*
X136628607Y-99646393D01*
X136644671Y-99664117D01*
X136658921Y-99683330D01*
X136671218Y-99703847D01*
X136681446Y-99725471D01*
X136689504Y-99747993D01*
X136695316Y-99771197D01*
X136698826Y-99794858D01*
X136700000Y-99818750D01*
X136700000Y-100306250D01*
X136698826Y-100330142D01*
X136695316Y-100353803D01*
X136689504Y-100377007D01*
X136681446Y-100399529D01*
X136671218Y-100421153D01*
X136658921Y-100441670D01*
X136644671Y-100460883D01*
X136628607Y-100478607D01*
X136610883Y-100494671D01*
X136591670Y-100508921D01*
X136571153Y-100521218D01*
X136549529Y-100531446D01*
X136527007Y-100539504D01*
X136503803Y-100545316D01*
X136480142Y-100548826D01*
X136456250Y-100550000D01*
X135543750Y-100550000D01*
X135519858Y-100548826D01*
X135496197Y-100545316D01*
X135472993Y-100539504D01*
X135450471Y-100531446D01*
X135428847Y-100521218D01*
X135408330Y-100508921D01*
X135389117Y-100494671D01*
X135371393Y-100478607D01*
X135355329Y-100460883D01*
X135341079Y-100441670D01*
X135328782Y-100421153D01*
X135318554Y-100399529D01*
X135310496Y-100377007D01*
X135304684Y-100353803D01*
X135301174Y-100330142D01*
X135300000Y-100306250D01*
X135300000Y-99818750D01*
X135301174Y-99794858D01*
X135304684Y-99771197D01*
X135310496Y-99747993D01*
X135318554Y-99725471D01*
X135328782Y-99703847D01*
X135341079Y-99683330D01*
X135355329Y-99664117D01*
X135371393Y-99646393D01*
X135389117Y-99630329D01*
X135408330Y-99616079D01*
X135428847Y-99603782D01*
X135450471Y-99593554D01*
X135472993Y-99585496D01*
X135496197Y-99579684D01*
X135519858Y-99576174D01*
X135543750Y-99575000D01*
X136456250Y-99575000D01*
X136480142Y-99576174D01*
X136480142Y-99576174D01*
G37*
D11*
G04 #@! TD*
G04 #@! TO.P,C4,2*
G04 #@! TO.N,GND*
X136000000Y-100062500D03*
D10*
G04 #@! TO.N,+3V3*
G04 #@! TO.C,C4*
G36*
X136480142Y-101451174D02*
X136503803Y-101454684D01*
X136527007Y-101460496D01*
X136549529Y-101468554D01*
X136571153Y-101478782D01*
X136591670Y-101491079D01*
X136610883Y-101505329D01*
X136628607Y-101521393D01*
X136644671Y-101539117D01*
X136658921Y-101558330D01*
X136671218Y-101578847D01*
X136681446Y-101600471D01*
X136689504Y-101622993D01*
X136695316Y-101646197D01*
X136698826Y-101669858D01*
X136700000Y-101693750D01*
X136700000Y-102181250D01*
X136698826Y-102205142D01*
X136695316Y-102228803D01*
X136689504Y-102252007D01*
X136681446Y-102274529D01*
X136671218Y-102296153D01*
X136658921Y-102316670D01*
X136644671Y-102335883D01*
X136628607Y-102353607D01*
X136610883Y-102369671D01*
X136591670Y-102383921D01*
X136571153Y-102396218D01*
X136549529Y-102406446D01*
X136527007Y-102414504D01*
X136503803Y-102420316D01*
X136480142Y-102423826D01*
X136456250Y-102425000D01*
X135543750Y-102425000D01*
X135519858Y-102423826D01*
X135496197Y-102420316D01*
X135472993Y-102414504D01*
X135450471Y-102406446D01*
X135428847Y-102396218D01*
X135408330Y-102383921D01*
X135389117Y-102369671D01*
X135371393Y-102353607D01*
X135355329Y-102335883D01*
X135341079Y-102316670D01*
X135328782Y-102296153D01*
X135318554Y-102274529D01*
X135310496Y-102252007D01*
X135304684Y-102228803D01*
X135301174Y-102205142D01*
X135300000Y-102181250D01*
X135300000Y-101693750D01*
X135301174Y-101669858D01*
X135304684Y-101646197D01*
X135310496Y-101622993D01*
X135318554Y-101600471D01*
X135328782Y-101578847D01*
X135341079Y-101558330D01*
X135355329Y-101539117D01*
X135371393Y-101521393D01*
X135389117Y-101505329D01*
X135408330Y-101491079D01*
X135428847Y-101478782D01*
X135450471Y-101468554D01*
X135472993Y-101460496D01*
X135496197Y-101454684D01*
X135519858Y-101451174D01*
X135543750Y-101450000D01*
X136456250Y-101450000D01*
X136480142Y-101451174D01*
X136480142Y-101451174D01*
G37*
D11*
G04 #@! TD*
G04 #@! TO.P,C4,1*
G04 #@! TO.N,+3V3*
X136000000Y-101937500D03*
D10*
G04 #@! TO.N,+3V3*
G04 #@! TO.C,C5*
G36*
X147705142Y-93301174D02*
X147728803Y-93304684D01*
X147752007Y-93310496D01*
X147774529Y-93318554D01*
X147796153Y-93328782D01*
X147816670Y-93341079D01*
X147835883Y-93355329D01*
X147853607Y-93371393D01*
X147869671Y-93389117D01*
X147883921Y-93408330D01*
X147896218Y-93428847D01*
X147906446Y-93450471D01*
X147914504Y-93472993D01*
X147920316Y-93496197D01*
X147923826Y-93519858D01*
X147925000Y-93543750D01*
X147925000Y-94456250D01*
X147923826Y-94480142D01*
X147920316Y-94503803D01*
X147914504Y-94527007D01*
X147906446Y-94549529D01*
X147896218Y-94571153D01*
X147883921Y-94591670D01*
X147869671Y-94610883D01*
X147853607Y-94628607D01*
X147835883Y-94644671D01*
X147816670Y-94658921D01*
X147796153Y-94671218D01*
X147774529Y-94681446D01*
X147752007Y-94689504D01*
X147728803Y-94695316D01*
X147705142Y-94698826D01*
X147681250Y-94700000D01*
X147193750Y-94700000D01*
X147169858Y-94698826D01*
X147146197Y-94695316D01*
X147122993Y-94689504D01*
X147100471Y-94681446D01*
X147078847Y-94671218D01*
X147058330Y-94658921D01*
X147039117Y-94644671D01*
X147021393Y-94628607D01*
X147005329Y-94610883D01*
X146991079Y-94591670D01*
X146978782Y-94571153D01*
X146968554Y-94549529D01*
X146960496Y-94527007D01*
X146954684Y-94503803D01*
X146951174Y-94480142D01*
X146950000Y-94456250D01*
X146950000Y-93543750D01*
X146951174Y-93519858D01*
X146954684Y-93496197D01*
X146960496Y-93472993D01*
X146968554Y-93450471D01*
X146978782Y-93428847D01*
X146991079Y-93408330D01*
X147005329Y-93389117D01*
X147021393Y-93371393D01*
X147039117Y-93355329D01*
X147058330Y-93341079D01*
X147078847Y-93328782D01*
X147100471Y-93318554D01*
X147122993Y-93310496D01*
X147146197Y-93304684D01*
X147169858Y-93301174D01*
X147193750Y-93300000D01*
X147681250Y-93300000D01*
X147705142Y-93301174D01*
X147705142Y-93301174D01*
G37*
D11*
G04 #@! TD*
G04 #@! TO.P,C5,1*
G04 #@! TO.N,+3V3*
X147437500Y-94000000D03*
D10*
G04 #@! TO.N,GND*
G04 #@! TO.C,C5*
G36*
X145830142Y-93301174D02*
X145853803Y-93304684D01*
X145877007Y-93310496D01*
X145899529Y-93318554D01*
X145921153Y-93328782D01*
X145941670Y-93341079D01*
X145960883Y-93355329D01*
X145978607Y-93371393D01*
X145994671Y-93389117D01*
X146008921Y-93408330D01*
X146021218Y-93428847D01*
X146031446Y-93450471D01*
X146039504Y-93472993D01*
X146045316Y-93496197D01*
X146048826Y-93519858D01*
X146050000Y-93543750D01*
X146050000Y-94456250D01*
X146048826Y-94480142D01*
X146045316Y-94503803D01*
X146039504Y-94527007D01*
X146031446Y-94549529D01*
X146021218Y-94571153D01*
X146008921Y-94591670D01*
X145994671Y-94610883D01*
X145978607Y-94628607D01*
X145960883Y-94644671D01*
X145941670Y-94658921D01*
X145921153Y-94671218D01*
X145899529Y-94681446D01*
X145877007Y-94689504D01*
X145853803Y-94695316D01*
X145830142Y-94698826D01*
X145806250Y-94700000D01*
X145318750Y-94700000D01*
X145294858Y-94698826D01*
X145271197Y-94695316D01*
X145247993Y-94689504D01*
X145225471Y-94681446D01*
X145203847Y-94671218D01*
X145183330Y-94658921D01*
X145164117Y-94644671D01*
X145146393Y-94628607D01*
X145130329Y-94610883D01*
X145116079Y-94591670D01*
X145103782Y-94571153D01*
X145093554Y-94549529D01*
X145085496Y-94527007D01*
X145079684Y-94503803D01*
X145076174Y-94480142D01*
X145075000Y-94456250D01*
X145075000Y-93543750D01*
X145076174Y-93519858D01*
X145079684Y-93496197D01*
X145085496Y-93472993D01*
X145093554Y-93450471D01*
X145103782Y-93428847D01*
X145116079Y-93408330D01*
X145130329Y-93389117D01*
X145146393Y-93371393D01*
X145164117Y-93355329D01*
X145183330Y-93341079D01*
X145203847Y-93328782D01*
X145225471Y-93318554D01*
X145247993Y-93310496D01*
X145271197Y-93304684D01*
X145294858Y-93301174D01*
X145318750Y-93300000D01*
X145806250Y-93300000D01*
X145830142Y-93301174D01*
X145830142Y-93301174D01*
G37*
D11*
G04 #@! TD*
G04 #@! TO.P,C5,2*
G04 #@! TO.N,GND*
X145562500Y-94000000D03*
D10*
G04 #@! TO.N,GND*
G04 #@! TO.C,C6*
G36*
X136205142Y-79301174D02*
X136228803Y-79304684D01*
X136252007Y-79310496D01*
X136274529Y-79318554D01*
X136296153Y-79328782D01*
X136316670Y-79341079D01*
X136335883Y-79355329D01*
X136353607Y-79371393D01*
X136369671Y-79389117D01*
X136383921Y-79408330D01*
X136396218Y-79428847D01*
X136406446Y-79450471D01*
X136414504Y-79472993D01*
X136420316Y-79496197D01*
X136423826Y-79519858D01*
X136425000Y-79543750D01*
X136425000Y-80456250D01*
X136423826Y-80480142D01*
X136420316Y-80503803D01*
X136414504Y-80527007D01*
X136406446Y-80549529D01*
X136396218Y-80571153D01*
X136383921Y-80591670D01*
X136369671Y-80610883D01*
X136353607Y-80628607D01*
X136335883Y-80644671D01*
X136316670Y-80658921D01*
X136296153Y-80671218D01*
X136274529Y-80681446D01*
X136252007Y-80689504D01*
X136228803Y-80695316D01*
X136205142Y-80698826D01*
X136181250Y-80700000D01*
X135693750Y-80700000D01*
X135669858Y-80698826D01*
X135646197Y-80695316D01*
X135622993Y-80689504D01*
X135600471Y-80681446D01*
X135578847Y-80671218D01*
X135558330Y-80658921D01*
X135539117Y-80644671D01*
X135521393Y-80628607D01*
X135505329Y-80610883D01*
X135491079Y-80591670D01*
X135478782Y-80571153D01*
X135468554Y-80549529D01*
X135460496Y-80527007D01*
X135454684Y-80503803D01*
X135451174Y-80480142D01*
X135450000Y-80456250D01*
X135450000Y-79543750D01*
X135451174Y-79519858D01*
X135454684Y-79496197D01*
X135460496Y-79472993D01*
X135468554Y-79450471D01*
X135478782Y-79428847D01*
X135491079Y-79408330D01*
X135505329Y-79389117D01*
X135521393Y-79371393D01*
X135539117Y-79355329D01*
X135558330Y-79341079D01*
X135578847Y-79328782D01*
X135600471Y-79318554D01*
X135622993Y-79310496D01*
X135646197Y-79304684D01*
X135669858Y-79301174D01*
X135693750Y-79300000D01*
X136181250Y-79300000D01*
X136205142Y-79301174D01*
X136205142Y-79301174D01*
G37*
D11*
G04 #@! TD*
G04 #@! TO.P,C6,2*
G04 #@! TO.N,GND*
X135937500Y-80000000D03*
D10*
G04 #@! TO.N,+3V3*
G04 #@! TO.C,C6*
G36*
X134330142Y-79301174D02*
X134353803Y-79304684D01*
X134377007Y-79310496D01*
X134399529Y-79318554D01*
X134421153Y-79328782D01*
X134441670Y-79341079D01*
X134460883Y-79355329D01*
X134478607Y-79371393D01*
X134494671Y-79389117D01*
X134508921Y-79408330D01*
X134521218Y-79428847D01*
X134531446Y-79450471D01*
X134539504Y-79472993D01*
X134545316Y-79496197D01*
X134548826Y-79519858D01*
X134550000Y-79543750D01*
X134550000Y-80456250D01*
X134548826Y-80480142D01*
X134545316Y-80503803D01*
X134539504Y-80527007D01*
X134531446Y-80549529D01*
X134521218Y-80571153D01*
X134508921Y-80591670D01*
X134494671Y-80610883D01*
X134478607Y-80628607D01*
X134460883Y-80644671D01*
X134441670Y-80658921D01*
X134421153Y-80671218D01*
X134399529Y-80681446D01*
X134377007Y-80689504D01*
X134353803Y-80695316D01*
X134330142Y-80698826D01*
X134306250Y-80700000D01*
X133818750Y-80700000D01*
X133794858Y-80698826D01*
X133771197Y-80695316D01*
X133747993Y-80689504D01*
X133725471Y-80681446D01*
X133703847Y-80671218D01*
X133683330Y-80658921D01*
X133664117Y-80644671D01*
X133646393Y-80628607D01*
X133630329Y-80610883D01*
X133616079Y-80591670D01*
X133603782Y-80571153D01*
X133593554Y-80549529D01*
X133585496Y-80527007D01*
X133579684Y-80503803D01*
X133576174Y-80480142D01*
X133575000Y-80456250D01*
X133575000Y-79543750D01*
X133576174Y-79519858D01*
X133579684Y-79496197D01*
X133585496Y-79472993D01*
X133593554Y-79450471D01*
X133603782Y-79428847D01*
X133616079Y-79408330D01*
X133630329Y-79389117D01*
X133646393Y-79371393D01*
X133664117Y-79355329D01*
X133683330Y-79341079D01*
X133703847Y-79328782D01*
X133725471Y-79318554D01*
X133747993Y-79310496D01*
X133771197Y-79304684D01*
X133794858Y-79301174D01*
X133818750Y-79300000D01*
X134306250Y-79300000D01*
X134330142Y-79301174D01*
X134330142Y-79301174D01*
G37*
D11*
G04 #@! TD*
G04 #@! TO.P,C6,1*
G04 #@! TO.N,+3V3*
X134062500Y-80000000D03*
D10*
G04 #@! TO.N,+3V3*
G04 #@! TO.C,C7*
G36*
X134452691Y-77526053D02*
X134473926Y-77529203D01*
X134494750Y-77534419D01*
X134514962Y-77541651D01*
X134534368Y-77550830D01*
X134552781Y-77561866D01*
X134570024Y-77574654D01*
X134585930Y-77589070D01*
X134600346Y-77604976D01*
X134613134Y-77622219D01*
X134624170Y-77640632D01*
X134633349Y-77660038D01*
X134640581Y-77680250D01*
X134645797Y-77701074D01*
X134648947Y-77722309D01*
X134650000Y-77743750D01*
X134650000Y-78256250D01*
X134648947Y-78277691D01*
X134645797Y-78298926D01*
X134640581Y-78319750D01*
X134633349Y-78339962D01*
X134624170Y-78359368D01*
X134613134Y-78377781D01*
X134600346Y-78395024D01*
X134585930Y-78410930D01*
X134570024Y-78425346D01*
X134552781Y-78438134D01*
X134534368Y-78449170D01*
X134514962Y-78458349D01*
X134494750Y-78465581D01*
X134473926Y-78470797D01*
X134452691Y-78473947D01*
X134431250Y-78475000D01*
X133993750Y-78475000D01*
X133972309Y-78473947D01*
X133951074Y-78470797D01*
X133930250Y-78465581D01*
X133910038Y-78458349D01*
X133890632Y-78449170D01*
X133872219Y-78438134D01*
X133854976Y-78425346D01*
X133839070Y-78410930D01*
X133824654Y-78395024D01*
X133811866Y-78377781D01*
X133800830Y-78359368D01*
X133791651Y-78339962D01*
X133784419Y-78319750D01*
X133779203Y-78298926D01*
X133776053Y-78277691D01*
X133775000Y-78256250D01*
X133775000Y-77743750D01*
X133776053Y-77722309D01*
X133779203Y-77701074D01*
X133784419Y-77680250D01*
X133791651Y-77660038D01*
X133800830Y-77640632D01*
X133811866Y-77622219D01*
X133824654Y-77604976D01*
X133839070Y-77589070D01*
X133854976Y-77574654D01*
X133872219Y-77561866D01*
X133890632Y-77550830D01*
X133910038Y-77541651D01*
X133930250Y-77534419D01*
X133951074Y-77529203D01*
X133972309Y-77526053D01*
X133993750Y-77525000D01*
X134431250Y-77525000D01*
X134452691Y-77526053D01*
X134452691Y-77526053D01*
G37*
D12*
G04 #@! TD*
G04 #@! TO.P,C7,1*
G04 #@! TO.N,+3V3*
X134212500Y-78000000D03*
D10*
G04 #@! TO.N,GND*
G04 #@! TO.C,C7*
G36*
X136027691Y-77526053D02*
X136048926Y-77529203D01*
X136069750Y-77534419D01*
X136089962Y-77541651D01*
X136109368Y-77550830D01*
X136127781Y-77561866D01*
X136145024Y-77574654D01*
X136160930Y-77589070D01*
X136175346Y-77604976D01*
X136188134Y-77622219D01*
X136199170Y-77640632D01*
X136208349Y-77660038D01*
X136215581Y-77680250D01*
X136220797Y-77701074D01*
X136223947Y-77722309D01*
X136225000Y-77743750D01*
X136225000Y-78256250D01*
X136223947Y-78277691D01*
X136220797Y-78298926D01*
X136215581Y-78319750D01*
X136208349Y-78339962D01*
X136199170Y-78359368D01*
X136188134Y-78377781D01*
X136175346Y-78395024D01*
X136160930Y-78410930D01*
X136145024Y-78425346D01*
X136127781Y-78438134D01*
X136109368Y-78449170D01*
X136089962Y-78458349D01*
X136069750Y-78465581D01*
X136048926Y-78470797D01*
X136027691Y-78473947D01*
X136006250Y-78475000D01*
X135568750Y-78475000D01*
X135547309Y-78473947D01*
X135526074Y-78470797D01*
X135505250Y-78465581D01*
X135485038Y-78458349D01*
X135465632Y-78449170D01*
X135447219Y-78438134D01*
X135429976Y-78425346D01*
X135414070Y-78410930D01*
X135399654Y-78395024D01*
X135386866Y-78377781D01*
X135375830Y-78359368D01*
X135366651Y-78339962D01*
X135359419Y-78319750D01*
X135354203Y-78298926D01*
X135351053Y-78277691D01*
X135350000Y-78256250D01*
X135350000Y-77743750D01*
X135351053Y-77722309D01*
X135354203Y-77701074D01*
X135359419Y-77680250D01*
X135366651Y-77660038D01*
X135375830Y-77640632D01*
X135386866Y-77622219D01*
X135399654Y-77604976D01*
X135414070Y-77589070D01*
X135429976Y-77574654D01*
X135447219Y-77561866D01*
X135465632Y-77550830D01*
X135485038Y-77541651D01*
X135505250Y-77534419D01*
X135526074Y-77529203D01*
X135547309Y-77526053D01*
X135568750Y-77525000D01*
X136006250Y-77525000D01*
X136027691Y-77526053D01*
X136027691Y-77526053D01*
G37*
D12*
G04 #@! TD*
G04 #@! TO.P,C7,2*
G04 #@! TO.N,GND*
X135787500Y-78000000D03*
D10*
G04 #@! TO.N,+3V3*
G04 #@! TO.C,C8*
G36*
X147527691Y-95526053D02*
X147548926Y-95529203D01*
X147569750Y-95534419D01*
X147589962Y-95541651D01*
X147609368Y-95550830D01*
X147627781Y-95561866D01*
X147645024Y-95574654D01*
X147660930Y-95589070D01*
X147675346Y-95604976D01*
X147688134Y-95622219D01*
X147699170Y-95640632D01*
X147708349Y-95660038D01*
X147715581Y-95680250D01*
X147720797Y-95701074D01*
X147723947Y-95722309D01*
X147725000Y-95743750D01*
X147725000Y-96256250D01*
X147723947Y-96277691D01*
X147720797Y-96298926D01*
X147715581Y-96319750D01*
X147708349Y-96339962D01*
X147699170Y-96359368D01*
X147688134Y-96377781D01*
X147675346Y-96395024D01*
X147660930Y-96410930D01*
X147645024Y-96425346D01*
X147627781Y-96438134D01*
X147609368Y-96449170D01*
X147589962Y-96458349D01*
X147569750Y-96465581D01*
X147548926Y-96470797D01*
X147527691Y-96473947D01*
X147506250Y-96475000D01*
X147068750Y-96475000D01*
X147047309Y-96473947D01*
X147026074Y-96470797D01*
X147005250Y-96465581D01*
X146985038Y-96458349D01*
X146965632Y-96449170D01*
X146947219Y-96438134D01*
X146929976Y-96425346D01*
X146914070Y-96410930D01*
X146899654Y-96395024D01*
X146886866Y-96377781D01*
X146875830Y-96359368D01*
X146866651Y-96339962D01*
X146859419Y-96319750D01*
X146854203Y-96298926D01*
X146851053Y-96277691D01*
X146850000Y-96256250D01*
X146850000Y-95743750D01*
X146851053Y-95722309D01*
X146854203Y-95701074D01*
X146859419Y-95680250D01*
X146866651Y-95660038D01*
X146875830Y-95640632D01*
X146886866Y-95622219D01*
X146899654Y-95604976D01*
X146914070Y-95589070D01*
X146929976Y-95574654D01*
X146947219Y-95561866D01*
X146965632Y-95550830D01*
X146985038Y-95541651D01*
X147005250Y-95534419D01*
X147026074Y-95529203D01*
X147047309Y-95526053D01*
X147068750Y-95525000D01*
X147506250Y-95525000D01*
X147527691Y-95526053D01*
X147527691Y-95526053D01*
G37*
D12*
G04 #@! TD*
G04 #@! TO.P,C8,1*
G04 #@! TO.N,+3V3*
X147287500Y-96000000D03*
D10*
G04 #@! TO.N,GND*
G04 #@! TO.C,C8*
G36*
X145952691Y-95526053D02*
X145973926Y-95529203D01*
X145994750Y-95534419D01*
X146014962Y-95541651D01*
X146034368Y-95550830D01*
X146052781Y-95561866D01*
X146070024Y-95574654D01*
X146085930Y-95589070D01*
X146100346Y-95604976D01*
X146113134Y-95622219D01*
X146124170Y-95640632D01*
X146133349Y-95660038D01*
X146140581Y-95680250D01*
X146145797Y-95701074D01*
X146148947Y-95722309D01*
X146150000Y-95743750D01*
X146150000Y-96256250D01*
X146148947Y-96277691D01*
X146145797Y-96298926D01*
X146140581Y-96319750D01*
X146133349Y-96339962D01*
X146124170Y-96359368D01*
X146113134Y-96377781D01*
X146100346Y-96395024D01*
X146085930Y-96410930D01*
X146070024Y-96425346D01*
X146052781Y-96438134D01*
X146034368Y-96449170D01*
X146014962Y-96458349D01*
X145994750Y-96465581D01*
X145973926Y-96470797D01*
X145952691Y-96473947D01*
X145931250Y-96475000D01*
X145493750Y-96475000D01*
X145472309Y-96473947D01*
X145451074Y-96470797D01*
X145430250Y-96465581D01*
X145410038Y-96458349D01*
X145390632Y-96449170D01*
X145372219Y-96438134D01*
X145354976Y-96425346D01*
X145339070Y-96410930D01*
X145324654Y-96395024D01*
X145311866Y-96377781D01*
X145300830Y-96359368D01*
X145291651Y-96339962D01*
X145284419Y-96319750D01*
X145279203Y-96298926D01*
X145276053Y-96277691D01*
X145275000Y-96256250D01*
X145275000Y-95743750D01*
X145276053Y-95722309D01*
X145279203Y-95701074D01*
X145284419Y-95680250D01*
X145291651Y-95660038D01*
X145300830Y-95640632D01*
X145311866Y-95622219D01*
X145324654Y-95604976D01*
X145339070Y-95589070D01*
X145354976Y-95574654D01*
X145372219Y-95561866D01*
X145390632Y-95550830D01*
X145410038Y-95541651D01*
X145430250Y-95534419D01*
X145451074Y-95529203D01*
X145472309Y-95526053D01*
X145493750Y-95525000D01*
X145931250Y-95525000D01*
X145952691Y-95526053D01*
X145952691Y-95526053D01*
G37*
D12*
G04 #@! TD*
G04 #@! TO.P,C8,2*
G04 #@! TO.N,GND*
X145712500Y-96000000D03*
D10*
G04 #@! TO.N,NRST*
G04 #@! TO.C,C9*
G36*
X135027691Y-87026053D02*
X135048926Y-87029203D01*
X135069750Y-87034419D01*
X135089962Y-87041651D01*
X135109368Y-87050830D01*
X135127781Y-87061866D01*
X135145024Y-87074654D01*
X135160930Y-87089070D01*
X135175346Y-87104976D01*
X135188134Y-87122219D01*
X135199170Y-87140632D01*
X135208349Y-87160038D01*
X135215581Y-87180250D01*
X135220797Y-87201074D01*
X135223947Y-87222309D01*
X135225000Y-87243750D01*
X135225000Y-87756250D01*
X135223947Y-87777691D01*
X135220797Y-87798926D01*
X135215581Y-87819750D01*
X135208349Y-87839962D01*
X135199170Y-87859368D01*
X135188134Y-87877781D01*
X135175346Y-87895024D01*
X135160930Y-87910930D01*
X135145024Y-87925346D01*
X135127781Y-87938134D01*
X135109368Y-87949170D01*
X135089962Y-87958349D01*
X135069750Y-87965581D01*
X135048926Y-87970797D01*
X135027691Y-87973947D01*
X135006250Y-87975000D01*
X134568750Y-87975000D01*
X134547309Y-87973947D01*
X134526074Y-87970797D01*
X134505250Y-87965581D01*
X134485038Y-87958349D01*
X134465632Y-87949170D01*
X134447219Y-87938134D01*
X134429976Y-87925346D01*
X134414070Y-87910930D01*
X134399654Y-87895024D01*
X134386866Y-87877781D01*
X134375830Y-87859368D01*
X134366651Y-87839962D01*
X134359419Y-87819750D01*
X134354203Y-87798926D01*
X134351053Y-87777691D01*
X134350000Y-87756250D01*
X134350000Y-87243750D01*
X134351053Y-87222309D01*
X134354203Y-87201074D01*
X134359419Y-87180250D01*
X134366651Y-87160038D01*
X134375830Y-87140632D01*
X134386866Y-87122219D01*
X134399654Y-87104976D01*
X134414070Y-87089070D01*
X134429976Y-87074654D01*
X134447219Y-87061866D01*
X134465632Y-87050830D01*
X134485038Y-87041651D01*
X134505250Y-87034419D01*
X134526074Y-87029203D01*
X134547309Y-87026053D01*
X134568750Y-87025000D01*
X135006250Y-87025000D01*
X135027691Y-87026053D01*
X135027691Y-87026053D01*
G37*
D12*
G04 #@! TD*
G04 #@! TO.P,C9,2*
G04 #@! TO.N,NRST*
X134787500Y-87500000D03*
D10*
G04 #@! TO.N,GND*
G04 #@! TO.C,C9*
G36*
X133452691Y-87026053D02*
X133473926Y-87029203D01*
X133494750Y-87034419D01*
X133514962Y-87041651D01*
X133534368Y-87050830D01*
X133552781Y-87061866D01*
X133570024Y-87074654D01*
X133585930Y-87089070D01*
X133600346Y-87104976D01*
X133613134Y-87122219D01*
X133624170Y-87140632D01*
X133633349Y-87160038D01*
X133640581Y-87180250D01*
X133645797Y-87201074D01*
X133648947Y-87222309D01*
X133650000Y-87243750D01*
X133650000Y-87756250D01*
X133648947Y-87777691D01*
X133645797Y-87798926D01*
X133640581Y-87819750D01*
X133633349Y-87839962D01*
X133624170Y-87859368D01*
X133613134Y-87877781D01*
X133600346Y-87895024D01*
X133585930Y-87910930D01*
X133570024Y-87925346D01*
X133552781Y-87938134D01*
X133534368Y-87949170D01*
X133514962Y-87958349D01*
X133494750Y-87965581D01*
X133473926Y-87970797D01*
X133452691Y-87973947D01*
X133431250Y-87975000D01*
X132993750Y-87975000D01*
X132972309Y-87973947D01*
X132951074Y-87970797D01*
X132930250Y-87965581D01*
X132910038Y-87958349D01*
X132890632Y-87949170D01*
X132872219Y-87938134D01*
X132854976Y-87925346D01*
X132839070Y-87910930D01*
X132824654Y-87895024D01*
X132811866Y-87877781D01*
X132800830Y-87859368D01*
X132791651Y-87839962D01*
X132784419Y-87819750D01*
X132779203Y-87798926D01*
X132776053Y-87777691D01*
X132775000Y-87756250D01*
X132775000Y-87243750D01*
X132776053Y-87222309D01*
X132779203Y-87201074D01*
X132784419Y-87180250D01*
X132791651Y-87160038D01*
X132800830Y-87140632D01*
X132811866Y-87122219D01*
X132824654Y-87104976D01*
X132839070Y-87089070D01*
X132854976Y-87074654D01*
X132872219Y-87061866D01*
X132890632Y-87050830D01*
X132910038Y-87041651D01*
X132930250Y-87034419D01*
X132951074Y-87029203D01*
X132972309Y-87026053D01*
X132993750Y-87025000D01*
X133431250Y-87025000D01*
X133452691Y-87026053D01*
X133452691Y-87026053D01*
G37*
D12*
G04 #@! TD*
G04 #@! TO.P,C9,1*
G04 #@! TO.N,GND*
X133212500Y-87500000D03*
D10*
G04 #@! TO.N,GND*
G04 #@! TO.C,C10*
G36*
X133686958Y-83190710D02*
X133701276Y-83192834D01*
X133715317Y-83196351D01*
X133728946Y-83201228D01*
X133742031Y-83207417D01*
X133754447Y-83214858D01*
X133766073Y-83223481D01*
X133776798Y-83233202D01*
X133786519Y-83243927D01*
X133795142Y-83255553D01*
X133802583Y-83267969D01*
X133808772Y-83281054D01*
X133813649Y-83294683D01*
X133817166Y-83308724D01*
X133819290Y-83323042D01*
X133820000Y-83337500D01*
X133820000Y-83632500D01*
X133819290Y-83646958D01*
X133817166Y-83661276D01*
X133813649Y-83675317D01*
X133808772Y-83688946D01*
X133802583Y-83702031D01*
X133795142Y-83714447D01*
X133786519Y-83726073D01*
X133776798Y-83736798D01*
X133766073Y-83746519D01*
X133754447Y-83755142D01*
X133742031Y-83762583D01*
X133728946Y-83768772D01*
X133715317Y-83773649D01*
X133701276Y-83777166D01*
X133686958Y-83779290D01*
X133672500Y-83780000D01*
X133327500Y-83780000D01*
X133313042Y-83779290D01*
X133298724Y-83777166D01*
X133284683Y-83773649D01*
X133271054Y-83768772D01*
X133257969Y-83762583D01*
X133245553Y-83755142D01*
X133233927Y-83746519D01*
X133223202Y-83736798D01*
X133213481Y-83726073D01*
X133204858Y-83714447D01*
X133197417Y-83702031D01*
X133191228Y-83688946D01*
X133186351Y-83675317D01*
X133182834Y-83661276D01*
X133180710Y-83646958D01*
X133180000Y-83632500D01*
X133180000Y-83337500D01*
X133180710Y-83323042D01*
X133182834Y-83308724D01*
X133186351Y-83294683D01*
X133191228Y-83281054D01*
X133197417Y-83267969D01*
X133204858Y-83255553D01*
X133213481Y-83243927D01*
X133223202Y-83233202D01*
X133233927Y-83223481D01*
X133245553Y-83214858D01*
X133257969Y-83207417D01*
X133271054Y-83201228D01*
X133284683Y-83196351D01*
X133298724Y-83192834D01*
X133313042Y-83190710D01*
X133327500Y-83190000D01*
X133672500Y-83190000D01*
X133686958Y-83190710D01*
X133686958Y-83190710D01*
G37*
D13*
G04 #@! TD*
G04 #@! TO.P,C10,1*
G04 #@! TO.N,GND*
X133500000Y-83485000D03*
D10*
G04 #@! TO.N,Net-(C10-Pad2)*
G04 #@! TO.C,C10*
G36*
X133686958Y-82220710D02*
X133701276Y-82222834D01*
X133715317Y-82226351D01*
X133728946Y-82231228D01*
X133742031Y-82237417D01*
X133754447Y-82244858D01*
X133766073Y-82253481D01*
X133776798Y-82263202D01*
X133786519Y-82273927D01*
X133795142Y-82285553D01*
X133802583Y-82297969D01*
X133808772Y-82311054D01*
X133813649Y-82324683D01*
X133817166Y-82338724D01*
X133819290Y-82353042D01*
X133820000Y-82367500D01*
X133820000Y-82662500D01*
X133819290Y-82676958D01*
X133817166Y-82691276D01*
X133813649Y-82705317D01*
X133808772Y-82718946D01*
X133802583Y-82732031D01*
X133795142Y-82744447D01*
X133786519Y-82756073D01*
X133776798Y-82766798D01*
X133766073Y-82776519D01*
X133754447Y-82785142D01*
X133742031Y-82792583D01*
X133728946Y-82798772D01*
X133715317Y-82803649D01*
X133701276Y-82807166D01*
X133686958Y-82809290D01*
X133672500Y-82810000D01*
X133327500Y-82810000D01*
X133313042Y-82809290D01*
X133298724Y-82807166D01*
X133284683Y-82803649D01*
X133271054Y-82798772D01*
X133257969Y-82792583D01*
X133245553Y-82785142D01*
X133233927Y-82776519D01*
X133223202Y-82766798D01*
X133213481Y-82756073D01*
X133204858Y-82744447D01*
X133197417Y-82732031D01*
X133191228Y-82718946D01*
X133186351Y-82705317D01*
X133182834Y-82691276D01*
X133180710Y-82676958D01*
X133180000Y-82662500D01*
X133180000Y-82367500D01*
X133180710Y-82353042D01*
X133182834Y-82338724D01*
X133186351Y-82324683D01*
X133191228Y-82311054D01*
X133197417Y-82297969D01*
X133204858Y-82285553D01*
X133213481Y-82273927D01*
X133223202Y-82263202D01*
X133233927Y-82253481D01*
X133245553Y-82244858D01*
X133257969Y-82237417D01*
X133271054Y-82231228D01*
X133284683Y-82226351D01*
X133298724Y-82222834D01*
X133313042Y-82220710D01*
X133327500Y-82220000D01*
X133672500Y-82220000D01*
X133686958Y-82220710D01*
X133686958Y-82220710D01*
G37*
D13*
G04 #@! TD*
G04 #@! TO.P,C10,2*
G04 #@! TO.N,Net-(C10-Pad2)*
X133500000Y-82515000D03*
D10*
G04 #@! TO.N,GND*
G04 #@! TO.C,C11*
G36*
X133686958Y-85190710D02*
X133701276Y-85192834D01*
X133715317Y-85196351D01*
X133728946Y-85201228D01*
X133742031Y-85207417D01*
X133754447Y-85214858D01*
X133766073Y-85223481D01*
X133776798Y-85233202D01*
X133786519Y-85243927D01*
X133795142Y-85255553D01*
X133802583Y-85267969D01*
X133808772Y-85281054D01*
X133813649Y-85294683D01*
X133817166Y-85308724D01*
X133819290Y-85323042D01*
X133820000Y-85337500D01*
X133820000Y-85632500D01*
X133819290Y-85646958D01*
X133817166Y-85661276D01*
X133813649Y-85675317D01*
X133808772Y-85688946D01*
X133802583Y-85702031D01*
X133795142Y-85714447D01*
X133786519Y-85726073D01*
X133776798Y-85736798D01*
X133766073Y-85746519D01*
X133754447Y-85755142D01*
X133742031Y-85762583D01*
X133728946Y-85768772D01*
X133715317Y-85773649D01*
X133701276Y-85777166D01*
X133686958Y-85779290D01*
X133672500Y-85780000D01*
X133327500Y-85780000D01*
X133313042Y-85779290D01*
X133298724Y-85777166D01*
X133284683Y-85773649D01*
X133271054Y-85768772D01*
X133257969Y-85762583D01*
X133245553Y-85755142D01*
X133233927Y-85746519D01*
X133223202Y-85736798D01*
X133213481Y-85726073D01*
X133204858Y-85714447D01*
X133197417Y-85702031D01*
X133191228Y-85688946D01*
X133186351Y-85675317D01*
X133182834Y-85661276D01*
X133180710Y-85646958D01*
X133180000Y-85632500D01*
X133180000Y-85337500D01*
X133180710Y-85323042D01*
X133182834Y-85308724D01*
X133186351Y-85294683D01*
X133191228Y-85281054D01*
X133197417Y-85267969D01*
X133204858Y-85255553D01*
X133213481Y-85243927D01*
X133223202Y-85233202D01*
X133233927Y-85223481D01*
X133245553Y-85214858D01*
X133257969Y-85207417D01*
X133271054Y-85201228D01*
X133284683Y-85196351D01*
X133298724Y-85192834D01*
X133313042Y-85190710D01*
X133327500Y-85190000D01*
X133672500Y-85190000D01*
X133686958Y-85190710D01*
X133686958Y-85190710D01*
G37*
D13*
G04 #@! TD*
G04 #@! TO.P,C11,2*
G04 #@! TO.N,GND*
X133500000Y-85485000D03*
D10*
G04 #@! TO.N,Net-(C11-Pad1)*
G04 #@! TO.C,C11*
G36*
X133686958Y-84220710D02*
X133701276Y-84222834D01*
X133715317Y-84226351D01*
X133728946Y-84231228D01*
X133742031Y-84237417D01*
X133754447Y-84244858D01*
X133766073Y-84253481D01*
X133776798Y-84263202D01*
X133786519Y-84273927D01*
X133795142Y-84285553D01*
X133802583Y-84297969D01*
X133808772Y-84311054D01*
X133813649Y-84324683D01*
X133817166Y-84338724D01*
X133819290Y-84353042D01*
X133820000Y-84367500D01*
X133820000Y-84662500D01*
X133819290Y-84676958D01*
X133817166Y-84691276D01*
X133813649Y-84705317D01*
X133808772Y-84718946D01*
X133802583Y-84732031D01*
X133795142Y-84744447D01*
X133786519Y-84756073D01*
X133776798Y-84766798D01*
X133766073Y-84776519D01*
X133754447Y-84785142D01*
X133742031Y-84792583D01*
X133728946Y-84798772D01*
X133715317Y-84803649D01*
X133701276Y-84807166D01*
X133686958Y-84809290D01*
X133672500Y-84810000D01*
X133327500Y-84810000D01*
X133313042Y-84809290D01*
X133298724Y-84807166D01*
X133284683Y-84803649D01*
X133271054Y-84798772D01*
X133257969Y-84792583D01*
X133245553Y-84785142D01*
X133233927Y-84776519D01*
X133223202Y-84766798D01*
X133213481Y-84756073D01*
X133204858Y-84744447D01*
X133197417Y-84732031D01*
X133191228Y-84718946D01*
X133186351Y-84705317D01*
X133182834Y-84691276D01*
X133180710Y-84676958D01*
X133180000Y-84662500D01*
X133180000Y-84367500D01*
X133180710Y-84353042D01*
X133182834Y-84338724D01*
X133186351Y-84324683D01*
X133191228Y-84311054D01*
X133197417Y-84297969D01*
X133204858Y-84285553D01*
X133213481Y-84273927D01*
X133223202Y-84263202D01*
X133233927Y-84253481D01*
X133245553Y-84244858D01*
X133257969Y-84237417D01*
X133271054Y-84231228D01*
X133284683Y-84226351D01*
X133298724Y-84222834D01*
X133313042Y-84220710D01*
X133327500Y-84220000D01*
X133672500Y-84220000D01*
X133686958Y-84220710D01*
X133686958Y-84220710D01*
G37*
D13*
G04 #@! TD*
G04 #@! TO.P,C11,1*
G04 #@! TO.N,Net-(C11-Pad1)*
X133500000Y-84515000D03*
D10*
G04 #@! TO.N,Net-(D1-Pad1)*
G04 #@! TO.C,D1*
G36*
X155952691Y-90526053D02*
X155973926Y-90529203D01*
X155994750Y-90534419D01*
X156014962Y-90541651D01*
X156034368Y-90550830D01*
X156052781Y-90561866D01*
X156070024Y-90574654D01*
X156085930Y-90589070D01*
X156100346Y-90604976D01*
X156113134Y-90622219D01*
X156124170Y-90640632D01*
X156133349Y-90660038D01*
X156140581Y-90680250D01*
X156145797Y-90701074D01*
X156148947Y-90722309D01*
X156150000Y-90743750D01*
X156150000Y-91256250D01*
X156148947Y-91277691D01*
X156145797Y-91298926D01*
X156140581Y-91319750D01*
X156133349Y-91339962D01*
X156124170Y-91359368D01*
X156113134Y-91377781D01*
X156100346Y-91395024D01*
X156085930Y-91410930D01*
X156070024Y-91425346D01*
X156052781Y-91438134D01*
X156034368Y-91449170D01*
X156014962Y-91458349D01*
X155994750Y-91465581D01*
X155973926Y-91470797D01*
X155952691Y-91473947D01*
X155931250Y-91475000D01*
X155493750Y-91475000D01*
X155472309Y-91473947D01*
X155451074Y-91470797D01*
X155430250Y-91465581D01*
X155410038Y-91458349D01*
X155390632Y-91449170D01*
X155372219Y-91438134D01*
X155354976Y-91425346D01*
X155339070Y-91410930D01*
X155324654Y-91395024D01*
X155311866Y-91377781D01*
X155300830Y-91359368D01*
X155291651Y-91339962D01*
X155284419Y-91319750D01*
X155279203Y-91298926D01*
X155276053Y-91277691D01*
X155275000Y-91256250D01*
X155275000Y-90743750D01*
X155276053Y-90722309D01*
X155279203Y-90701074D01*
X155284419Y-90680250D01*
X155291651Y-90660038D01*
X155300830Y-90640632D01*
X155311866Y-90622219D01*
X155324654Y-90604976D01*
X155339070Y-90589070D01*
X155354976Y-90574654D01*
X155372219Y-90561866D01*
X155390632Y-90550830D01*
X155410038Y-90541651D01*
X155430250Y-90534419D01*
X155451074Y-90529203D01*
X155472309Y-90526053D01*
X155493750Y-90525000D01*
X155931250Y-90525000D01*
X155952691Y-90526053D01*
X155952691Y-90526053D01*
G37*
D12*
G04 #@! TD*
G04 #@! TO.P,D1,1*
G04 #@! TO.N,Net-(D1-Pad1)*
X155712500Y-91000000D03*
D10*
G04 #@! TO.N,PIR_PWR*
G04 #@! TO.C,D1*
G36*
X157527691Y-90526053D02*
X157548926Y-90529203D01*
X157569750Y-90534419D01*
X157589962Y-90541651D01*
X157609368Y-90550830D01*
X157627781Y-90561866D01*
X157645024Y-90574654D01*
X157660930Y-90589070D01*
X157675346Y-90604976D01*
X157688134Y-90622219D01*
X157699170Y-90640632D01*
X157708349Y-90660038D01*
X157715581Y-90680250D01*
X157720797Y-90701074D01*
X157723947Y-90722309D01*
X157725000Y-90743750D01*
X157725000Y-91256250D01*
X157723947Y-91277691D01*
X157720797Y-91298926D01*
X157715581Y-91319750D01*
X157708349Y-91339962D01*
X157699170Y-91359368D01*
X157688134Y-91377781D01*
X157675346Y-91395024D01*
X157660930Y-91410930D01*
X157645024Y-91425346D01*
X157627781Y-91438134D01*
X157609368Y-91449170D01*
X157589962Y-91458349D01*
X157569750Y-91465581D01*
X157548926Y-91470797D01*
X157527691Y-91473947D01*
X157506250Y-91475000D01*
X157068750Y-91475000D01*
X157047309Y-91473947D01*
X157026074Y-91470797D01*
X157005250Y-91465581D01*
X156985038Y-91458349D01*
X156965632Y-91449170D01*
X156947219Y-91438134D01*
X156929976Y-91425346D01*
X156914070Y-91410930D01*
X156899654Y-91395024D01*
X156886866Y-91377781D01*
X156875830Y-91359368D01*
X156866651Y-91339962D01*
X156859419Y-91319750D01*
X156854203Y-91298926D01*
X156851053Y-91277691D01*
X156850000Y-91256250D01*
X156850000Y-90743750D01*
X156851053Y-90722309D01*
X156854203Y-90701074D01*
X156859419Y-90680250D01*
X156866651Y-90660038D01*
X156875830Y-90640632D01*
X156886866Y-90622219D01*
X156899654Y-90604976D01*
X156914070Y-90589070D01*
X156929976Y-90574654D01*
X156947219Y-90561866D01*
X156965632Y-90550830D01*
X156985038Y-90541651D01*
X157005250Y-90534419D01*
X157026074Y-90529203D01*
X157047309Y-90526053D01*
X157068750Y-90525000D01*
X157506250Y-90525000D01*
X157527691Y-90526053D01*
X157527691Y-90526053D01*
G37*
D12*
G04 #@! TD*
G04 #@! TO.P,D1,2*
G04 #@! TO.N,PIR_PWR*
X157287500Y-91000000D03*
D10*
G04 #@! TO.N,Net-(D2-Pad1)*
G04 #@! TO.C,D2*
G36*
X126277691Y-85851053D02*
X126298926Y-85854203D01*
X126319750Y-85859419D01*
X126339962Y-85866651D01*
X126359368Y-85875830D01*
X126377781Y-85886866D01*
X126395024Y-85899654D01*
X126410930Y-85914070D01*
X126425346Y-85929976D01*
X126438134Y-85947219D01*
X126449170Y-85965632D01*
X126458349Y-85985038D01*
X126465581Y-86005250D01*
X126470797Y-86026074D01*
X126473947Y-86047309D01*
X126475000Y-86068750D01*
X126475000Y-86506250D01*
X126473947Y-86527691D01*
X126470797Y-86548926D01*
X126465581Y-86569750D01*
X126458349Y-86589962D01*
X126449170Y-86609368D01*
X126438134Y-86627781D01*
X126425346Y-86645024D01*
X126410930Y-86660930D01*
X126395024Y-86675346D01*
X126377781Y-86688134D01*
X126359368Y-86699170D01*
X126339962Y-86708349D01*
X126319750Y-86715581D01*
X126298926Y-86720797D01*
X126277691Y-86723947D01*
X126256250Y-86725000D01*
X125743750Y-86725000D01*
X125722309Y-86723947D01*
X125701074Y-86720797D01*
X125680250Y-86715581D01*
X125660038Y-86708349D01*
X125640632Y-86699170D01*
X125622219Y-86688134D01*
X125604976Y-86675346D01*
X125589070Y-86660930D01*
X125574654Y-86645024D01*
X125561866Y-86627781D01*
X125550830Y-86609368D01*
X125541651Y-86589962D01*
X125534419Y-86569750D01*
X125529203Y-86548926D01*
X125526053Y-86527691D01*
X125525000Y-86506250D01*
X125525000Y-86068750D01*
X125526053Y-86047309D01*
X125529203Y-86026074D01*
X125534419Y-86005250D01*
X125541651Y-85985038D01*
X125550830Y-85965632D01*
X125561866Y-85947219D01*
X125574654Y-85929976D01*
X125589070Y-85914070D01*
X125604976Y-85899654D01*
X125622219Y-85886866D01*
X125640632Y-85875830D01*
X125660038Y-85866651D01*
X125680250Y-85859419D01*
X125701074Y-85854203D01*
X125722309Y-85851053D01*
X125743750Y-85850000D01*
X126256250Y-85850000D01*
X126277691Y-85851053D01*
X126277691Y-85851053D01*
G37*
D12*
G04 #@! TD*
G04 #@! TO.P,D2,1*
G04 #@! TO.N,Net-(D2-Pad1)*
X126000000Y-86287500D03*
D10*
G04 #@! TO.N,XBEE_PWR*
G04 #@! TO.C,D2*
G36*
X126277691Y-84276053D02*
X126298926Y-84279203D01*
X126319750Y-84284419D01*
X126339962Y-84291651D01*
X126359368Y-84300830D01*
X126377781Y-84311866D01*
X126395024Y-84324654D01*
X126410930Y-84339070D01*
X126425346Y-84354976D01*
X126438134Y-84372219D01*
X126449170Y-84390632D01*
X126458349Y-84410038D01*
X126465581Y-84430250D01*
X126470797Y-84451074D01*
X126473947Y-84472309D01*
X126475000Y-84493750D01*
X126475000Y-84931250D01*
X126473947Y-84952691D01*
X126470797Y-84973926D01*
X126465581Y-84994750D01*
X126458349Y-85014962D01*
X126449170Y-85034368D01*
X126438134Y-85052781D01*
X126425346Y-85070024D01*
X126410930Y-85085930D01*
X126395024Y-85100346D01*
X126377781Y-85113134D01*
X126359368Y-85124170D01*
X126339962Y-85133349D01*
X126319750Y-85140581D01*
X126298926Y-85145797D01*
X126277691Y-85148947D01*
X126256250Y-85150000D01*
X125743750Y-85150000D01*
X125722309Y-85148947D01*
X125701074Y-85145797D01*
X125680250Y-85140581D01*
X125660038Y-85133349D01*
X125640632Y-85124170D01*
X125622219Y-85113134D01*
X125604976Y-85100346D01*
X125589070Y-85085930D01*
X125574654Y-85070024D01*
X125561866Y-85052781D01*
X125550830Y-85034368D01*
X125541651Y-85014962D01*
X125534419Y-84994750D01*
X125529203Y-84973926D01*
X125526053Y-84952691D01*
X125525000Y-84931250D01*
X125525000Y-84493750D01*
X125526053Y-84472309D01*
X125529203Y-84451074D01*
X125534419Y-84430250D01*
X125541651Y-84410038D01*
X125550830Y-84390632D01*
X125561866Y-84372219D01*
X125574654Y-84354976D01*
X125589070Y-84339070D01*
X125604976Y-84324654D01*
X125622219Y-84311866D01*
X125640632Y-84300830D01*
X125660038Y-84291651D01*
X125680250Y-84284419D01*
X125701074Y-84279203D01*
X125722309Y-84276053D01*
X125743750Y-84275000D01*
X126256250Y-84275000D01*
X126277691Y-84276053D01*
X126277691Y-84276053D01*
G37*
D12*
G04 #@! TD*
G04 #@! TO.P,D2,2*
G04 #@! TO.N,XBEE_PWR*
X126000000Y-84712500D03*
D10*
G04 #@! TO.N,HALL*
G04 #@! TO.C,D3*
G36*
X158277691Y-83276053D02*
X158298926Y-83279203D01*
X158319750Y-83284419D01*
X158339962Y-83291651D01*
X158359368Y-83300830D01*
X158377781Y-83311866D01*
X158395024Y-83324654D01*
X158410930Y-83339070D01*
X158425346Y-83354976D01*
X158438134Y-83372219D01*
X158449170Y-83390632D01*
X158458349Y-83410038D01*
X158465581Y-83430250D01*
X158470797Y-83451074D01*
X158473947Y-83472309D01*
X158475000Y-83493750D01*
X158475000Y-83931250D01*
X158473947Y-83952691D01*
X158470797Y-83973926D01*
X158465581Y-83994750D01*
X158458349Y-84014962D01*
X158449170Y-84034368D01*
X158438134Y-84052781D01*
X158425346Y-84070024D01*
X158410930Y-84085930D01*
X158395024Y-84100346D01*
X158377781Y-84113134D01*
X158359368Y-84124170D01*
X158339962Y-84133349D01*
X158319750Y-84140581D01*
X158298926Y-84145797D01*
X158277691Y-84148947D01*
X158256250Y-84150000D01*
X157743750Y-84150000D01*
X157722309Y-84148947D01*
X157701074Y-84145797D01*
X157680250Y-84140581D01*
X157660038Y-84133349D01*
X157640632Y-84124170D01*
X157622219Y-84113134D01*
X157604976Y-84100346D01*
X157589070Y-84085930D01*
X157574654Y-84070024D01*
X157561866Y-84052781D01*
X157550830Y-84034368D01*
X157541651Y-84014962D01*
X157534419Y-83994750D01*
X157529203Y-83973926D01*
X157526053Y-83952691D01*
X157525000Y-83931250D01*
X157525000Y-83493750D01*
X157526053Y-83472309D01*
X157529203Y-83451074D01*
X157534419Y-83430250D01*
X157541651Y-83410038D01*
X157550830Y-83390632D01*
X157561866Y-83372219D01*
X157574654Y-83354976D01*
X157589070Y-83339070D01*
X157604976Y-83324654D01*
X157622219Y-83311866D01*
X157640632Y-83300830D01*
X157660038Y-83291651D01*
X157680250Y-83284419D01*
X157701074Y-83279203D01*
X157722309Y-83276053D01*
X157743750Y-83275000D01*
X158256250Y-83275000D01*
X158277691Y-83276053D01*
X158277691Y-83276053D01*
G37*
D12*
G04 #@! TD*
G04 #@! TO.P,D3,2*
G04 #@! TO.N,HALL*
X158000000Y-83712500D03*
D10*
G04 #@! TO.N,Net-(D3-Pad1)*
G04 #@! TO.C,D3*
G36*
X158277691Y-84851053D02*
X158298926Y-84854203D01*
X158319750Y-84859419D01*
X158339962Y-84866651D01*
X158359368Y-84875830D01*
X158377781Y-84886866D01*
X158395024Y-84899654D01*
X158410930Y-84914070D01*
X158425346Y-84929976D01*
X158438134Y-84947219D01*
X158449170Y-84965632D01*
X158458349Y-84985038D01*
X158465581Y-85005250D01*
X158470797Y-85026074D01*
X158473947Y-85047309D01*
X158475000Y-85068750D01*
X158475000Y-85506250D01*
X158473947Y-85527691D01*
X158470797Y-85548926D01*
X158465581Y-85569750D01*
X158458349Y-85589962D01*
X158449170Y-85609368D01*
X158438134Y-85627781D01*
X158425346Y-85645024D01*
X158410930Y-85660930D01*
X158395024Y-85675346D01*
X158377781Y-85688134D01*
X158359368Y-85699170D01*
X158339962Y-85708349D01*
X158319750Y-85715581D01*
X158298926Y-85720797D01*
X158277691Y-85723947D01*
X158256250Y-85725000D01*
X157743750Y-85725000D01*
X157722309Y-85723947D01*
X157701074Y-85720797D01*
X157680250Y-85715581D01*
X157660038Y-85708349D01*
X157640632Y-85699170D01*
X157622219Y-85688134D01*
X157604976Y-85675346D01*
X157589070Y-85660930D01*
X157574654Y-85645024D01*
X157561866Y-85627781D01*
X157550830Y-85609368D01*
X157541651Y-85589962D01*
X157534419Y-85569750D01*
X157529203Y-85548926D01*
X157526053Y-85527691D01*
X157525000Y-85506250D01*
X157525000Y-85068750D01*
X157526053Y-85047309D01*
X157529203Y-85026074D01*
X157534419Y-85005250D01*
X157541651Y-84985038D01*
X157550830Y-84965632D01*
X157561866Y-84947219D01*
X157574654Y-84929976D01*
X157589070Y-84914070D01*
X157604976Y-84899654D01*
X157622219Y-84886866D01*
X157640632Y-84875830D01*
X157660038Y-84866651D01*
X157680250Y-84859419D01*
X157701074Y-84854203D01*
X157722309Y-84851053D01*
X157743750Y-84850000D01*
X158256250Y-84850000D01*
X158277691Y-84851053D01*
X158277691Y-84851053D01*
G37*
D12*
G04 #@! TD*
G04 #@! TO.P,D3,1*
G04 #@! TO.N,Net-(D3-Pad1)*
X158000000Y-85287500D03*
D10*
G04 #@! TO.N,Net-(D4-Pad1)*
G04 #@! TO.C,D4*
G36*
X155952691Y-96526053D02*
X155973926Y-96529203D01*
X155994750Y-96534419D01*
X156014962Y-96541651D01*
X156034368Y-96550830D01*
X156052781Y-96561866D01*
X156070024Y-96574654D01*
X156085930Y-96589070D01*
X156100346Y-96604976D01*
X156113134Y-96622219D01*
X156124170Y-96640632D01*
X156133349Y-96660038D01*
X156140581Y-96680250D01*
X156145797Y-96701074D01*
X156148947Y-96722309D01*
X156150000Y-96743750D01*
X156150000Y-97256250D01*
X156148947Y-97277691D01*
X156145797Y-97298926D01*
X156140581Y-97319750D01*
X156133349Y-97339962D01*
X156124170Y-97359368D01*
X156113134Y-97377781D01*
X156100346Y-97395024D01*
X156085930Y-97410930D01*
X156070024Y-97425346D01*
X156052781Y-97438134D01*
X156034368Y-97449170D01*
X156014962Y-97458349D01*
X155994750Y-97465581D01*
X155973926Y-97470797D01*
X155952691Y-97473947D01*
X155931250Y-97475000D01*
X155493750Y-97475000D01*
X155472309Y-97473947D01*
X155451074Y-97470797D01*
X155430250Y-97465581D01*
X155410038Y-97458349D01*
X155390632Y-97449170D01*
X155372219Y-97438134D01*
X155354976Y-97425346D01*
X155339070Y-97410930D01*
X155324654Y-97395024D01*
X155311866Y-97377781D01*
X155300830Y-97359368D01*
X155291651Y-97339962D01*
X155284419Y-97319750D01*
X155279203Y-97298926D01*
X155276053Y-97277691D01*
X155275000Y-97256250D01*
X155275000Y-96743750D01*
X155276053Y-96722309D01*
X155279203Y-96701074D01*
X155284419Y-96680250D01*
X155291651Y-96660038D01*
X155300830Y-96640632D01*
X155311866Y-96622219D01*
X155324654Y-96604976D01*
X155339070Y-96589070D01*
X155354976Y-96574654D01*
X155372219Y-96561866D01*
X155390632Y-96550830D01*
X155410038Y-96541651D01*
X155430250Y-96534419D01*
X155451074Y-96529203D01*
X155472309Y-96526053D01*
X155493750Y-96525000D01*
X155931250Y-96525000D01*
X155952691Y-96526053D01*
X155952691Y-96526053D01*
G37*
D12*
G04 #@! TD*
G04 #@! TO.P,D4,1*
G04 #@! TO.N,Net-(D4-Pad1)*
X155712500Y-97000000D03*
D10*
G04 #@! TO.N,PIR*
G04 #@! TO.C,D4*
G36*
X157527691Y-96526053D02*
X157548926Y-96529203D01*
X157569750Y-96534419D01*
X157589962Y-96541651D01*
X157609368Y-96550830D01*
X157627781Y-96561866D01*
X157645024Y-96574654D01*
X157660930Y-96589070D01*
X157675346Y-96604976D01*
X157688134Y-96622219D01*
X157699170Y-96640632D01*
X157708349Y-96660038D01*
X157715581Y-96680250D01*
X157720797Y-96701074D01*
X157723947Y-96722309D01*
X157725000Y-96743750D01*
X157725000Y-97256250D01*
X157723947Y-97277691D01*
X157720797Y-97298926D01*
X157715581Y-97319750D01*
X157708349Y-97339962D01*
X157699170Y-97359368D01*
X157688134Y-97377781D01*
X157675346Y-97395024D01*
X157660930Y-97410930D01*
X157645024Y-97425346D01*
X157627781Y-97438134D01*
X157609368Y-97449170D01*
X157589962Y-97458349D01*
X157569750Y-97465581D01*
X157548926Y-97470797D01*
X157527691Y-97473947D01*
X157506250Y-97475000D01*
X157068750Y-97475000D01*
X157047309Y-97473947D01*
X157026074Y-97470797D01*
X157005250Y-97465581D01*
X156985038Y-97458349D01*
X156965632Y-97449170D01*
X156947219Y-97438134D01*
X156929976Y-97425346D01*
X156914070Y-97410930D01*
X156899654Y-97395024D01*
X156886866Y-97377781D01*
X156875830Y-97359368D01*
X156866651Y-97339962D01*
X156859419Y-97319750D01*
X156854203Y-97298926D01*
X156851053Y-97277691D01*
X156850000Y-97256250D01*
X156850000Y-96743750D01*
X156851053Y-96722309D01*
X156854203Y-96701074D01*
X156859419Y-96680250D01*
X156866651Y-96660038D01*
X156875830Y-96640632D01*
X156886866Y-96622219D01*
X156899654Y-96604976D01*
X156914070Y-96589070D01*
X156929976Y-96574654D01*
X156947219Y-96561866D01*
X156965632Y-96550830D01*
X156985038Y-96541651D01*
X157005250Y-96534419D01*
X157026074Y-96529203D01*
X157047309Y-96526053D01*
X157068750Y-96525000D01*
X157506250Y-96525000D01*
X157527691Y-96526053D01*
X157527691Y-96526053D01*
G37*
D12*
G04 #@! TD*
G04 #@! TO.P,D4,2*
G04 #@! TO.N,PIR*
X157287500Y-97000000D03*
D10*
G04 #@! TO.N,SOLAR*
G04 #@! TO.C,D5*
G36*
X126277691Y-98851053D02*
X126298926Y-98854203D01*
X126319750Y-98859419D01*
X126339962Y-98866651D01*
X126359368Y-98875830D01*
X126377781Y-98886866D01*
X126395024Y-98899654D01*
X126410930Y-98914070D01*
X126425346Y-98929976D01*
X126438134Y-98947219D01*
X126449170Y-98965632D01*
X126458349Y-98985038D01*
X126465581Y-99005250D01*
X126470797Y-99026074D01*
X126473947Y-99047309D01*
X126475000Y-99068750D01*
X126475000Y-99506250D01*
X126473947Y-99527691D01*
X126470797Y-99548926D01*
X126465581Y-99569750D01*
X126458349Y-99589962D01*
X126449170Y-99609368D01*
X126438134Y-99627781D01*
X126425346Y-99645024D01*
X126410930Y-99660930D01*
X126395024Y-99675346D01*
X126377781Y-99688134D01*
X126359368Y-99699170D01*
X126339962Y-99708349D01*
X126319750Y-99715581D01*
X126298926Y-99720797D01*
X126277691Y-99723947D01*
X126256250Y-99725000D01*
X125743750Y-99725000D01*
X125722309Y-99723947D01*
X125701074Y-99720797D01*
X125680250Y-99715581D01*
X125660038Y-99708349D01*
X125640632Y-99699170D01*
X125622219Y-99688134D01*
X125604976Y-99675346D01*
X125589070Y-99660930D01*
X125574654Y-99645024D01*
X125561866Y-99627781D01*
X125550830Y-99609368D01*
X125541651Y-99589962D01*
X125534419Y-99569750D01*
X125529203Y-99548926D01*
X125526053Y-99527691D01*
X125525000Y-99506250D01*
X125525000Y-99068750D01*
X125526053Y-99047309D01*
X125529203Y-99026074D01*
X125534419Y-99005250D01*
X125541651Y-98985038D01*
X125550830Y-98965632D01*
X125561866Y-98947219D01*
X125574654Y-98929976D01*
X125589070Y-98914070D01*
X125604976Y-98899654D01*
X125622219Y-98886866D01*
X125640632Y-98875830D01*
X125660038Y-98866651D01*
X125680250Y-98859419D01*
X125701074Y-98854203D01*
X125722309Y-98851053D01*
X125743750Y-98850000D01*
X126256250Y-98850000D01*
X126277691Y-98851053D01*
X126277691Y-98851053D01*
G37*
D12*
G04 #@! TD*
G04 #@! TO.P,D5,2*
G04 #@! TO.N,SOLAR*
X126000000Y-99287500D03*
D10*
G04 #@! TO.N,Net-(D5-Pad1)*
G04 #@! TO.C,D5*
G36*
X126277691Y-97276053D02*
X126298926Y-97279203D01*
X126319750Y-97284419D01*
X126339962Y-97291651D01*
X126359368Y-97300830D01*
X126377781Y-97311866D01*
X126395024Y-97324654D01*
X126410930Y-97339070D01*
X126425346Y-97354976D01*
X126438134Y-97372219D01*
X126449170Y-97390632D01*
X126458349Y-97410038D01*
X126465581Y-97430250D01*
X126470797Y-97451074D01*
X126473947Y-97472309D01*
X126475000Y-97493750D01*
X126475000Y-97931250D01*
X126473947Y-97952691D01*
X126470797Y-97973926D01*
X126465581Y-97994750D01*
X126458349Y-98014962D01*
X126449170Y-98034368D01*
X126438134Y-98052781D01*
X126425346Y-98070024D01*
X126410930Y-98085930D01*
X126395024Y-98100346D01*
X126377781Y-98113134D01*
X126359368Y-98124170D01*
X126339962Y-98133349D01*
X126319750Y-98140581D01*
X126298926Y-98145797D01*
X126277691Y-98148947D01*
X126256250Y-98150000D01*
X125743750Y-98150000D01*
X125722309Y-98148947D01*
X125701074Y-98145797D01*
X125680250Y-98140581D01*
X125660038Y-98133349D01*
X125640632Y-98124170D01*
X125622219Y-98113134D01*
X125604976Y-98100346D01*
X125589070Y-98085930D01*
X125574654Y-98070024D01*
X125561866Y-98052781D01*
X125550830Y-98034368D01*
X125541651Y-98014962D01*
X125534419Y-97994750D01*
X125529203Y-97973926D01*
X125526053Y-97952691D01*
X125525000Y-97931250D01*
X125525000Y-97493750D01*
X125526053Y-97472309D01*
X125529203Y-97451074D01*
X125534419Y-97430250D01*
X125541651Y-97410038D01*
X125550830Y-97390632D01*
X125561866Y-97372219D01*
X125574654Y-97354976D01*
X125589070Y-97339070D01*
X125604976Y-97324654D01*
X125622219Y-97311866D01*
X125640632Y-97300830D01*
X125660038Y-97291651D01*
X125680250Y-97284419D01*
X125701074Y-97279203D01*
X125722309Y-97276053D01*
X125743750Y-97275000D01*
X126256250Y-97275000D01*
X126277691Y-97276053D01*
X126277691Y-97276053D01*
G37*
D12*
G04 #@! TD*
G04 #@! TO.P,D5,1*
G04 #@! TO.N,Net-(D5-Pad1)*
X126000000Y-97712500D03*
D10*
G04 #@! TO.N,Net-(D6-Pad1)*
G04 #@! TO.C,D6*
G36*
X126277691Y-100776053D02*
X126298926Y-100779203D01*
X126319750Y-100784419D01*
X126339962Y-100791651D01*
X126359368Y-100800830D01*
X126377781Y-100811866D01*
X126395024Y-100824654D01*
X126410930Y-100839070D01*
X126425346Y-100854976D01*
X126438134Y-100872219D01*
X126449170Y-100890632D01*
X126458349Y-100910038D01*
X126465581Y-100930250D01*
X126470797Y-100951074D01*
X126473947Y-100972309D01*
X126475000Y-100993750D01*
X126475000Y-101431250D01*
X126473947Y-101452691D01*
X126470797Y-101473926D01*
X126465581Y-101494750D01*
X126458349Y-101514962D01*
X126449170Y-101534368D01*
X126438134Y-101552781D01*
X126425346Y-101570024D01*
X126410930Y-101585930D01*
X126395024Y-101600346D01*
X126377781Y-101613134D01*
X126359368Y-101624170D01*
X126339962Y-101633349D01*
X126319750Y-101640581D01*
X126298926Y-101645797D01*
X126277691Y-101648947D01*
X126256250Y-101650000D01*
X125743750Y-101650000D01*
X125722309Y-101648947D01*
X125701074Y-101645797D01*
X125680250Y-101640581D01*
X125660038Y-101633349D01*
X125640632Y-101624170D01*
X125622219Y-101613134D01*
X125604976Y-101600346D01*
X125589070Y-101585930D01*
X125574654Y-101570024D01*
X125561866Y-101552781D01*
X125550830Y-101534368D01*
X125541651Y-101514962D01*
X125534419Y-101494750D01*
X125529203Y-101473926D01*
X125526053Y-101452691D01*
X125525000Y-101431250D01*
X125525000Y-100993750D01*
X125526053Y-100972309D01*
X125529203Y-100951074D01*
X125534419Y-100930250D01*
X125541651Y-100910038D01*
X125550830Y-100890632D01*
X125561866Y-100872219D01*
X125574654Y-100854976D01*
X125589070Y-100839070D01*
X125604976Y-100824654D01*
X125622219Y-100811866D01*
X125640632Y-100800830D01*
X125660038Y-100791651D01*
X125680250Y-100784419D01*
X125701074Y-100779203D01*
X125722309Y-100776053D01*
X125743750Y-100775000D01*
X126256250Y-100775000D01*
X126277691Y-100776053D01*
X126277691Y-100776053D01*
G37*
D12*
G04 #@! TD*
G04 #@! TO.P,D6,1*
G04 #@! TO.N,Net-(D6-Pad1)*
X126000000Y-101212500D03*
D10*
G04 #@! TO.N,BATTERY*
G04 #@! TO.C,D6*
G36*
X126277691Y-102351053D02*
X126298926Y-102354203D01*
X126319750Y-102359419D01*
X126339962Y-102366651D01*
X126359368Y-102375830D01*
X126377781Y-102386866D01*
X126395024Y-102399654D01*
X126410930Y-102414070D01*
X126425346Y-102429976D01*
X126438134Y-102447219D01*
X126449170Y-102465632D01*
X126458349Y-102485038D01*
X126465581Y-102505250D01*
X126470797Y-102526074D01*
X126473947Y-102547309D01*
X126475000Y-102568750D01*
X126475000Y-103006250D01*
X126473947Y-103027691D01*
X126470797Y-103048926D01*
X126465581Y-103069750D01*
X126458349Y-103089962D01*
X126449170Y-103109368D01*
X126438134Y-103127781D01*
X126425346Y-103145024D01*
X126410930Y-103160930D01*
X126395024Y-103175346D01*
X126377781Y-103188134D01*
X126359368Y-103199170D01*
X126339962Y-103208349D01*
X126319750Y-103215581D01*
X126298926Y-103220797D01*
X126277691Y-103223947D01*
X126256250Y-103225000D01*
X125743750Y-103225000D01*
X125722309Y-103223947D01*
X125701074Y-103220797D01*
X125680250Y-103215581D01*
X125660038Y-103208349D01*
X125640632Y-103199170D01*
X125622219Y-103188134D01*
X125604976Y-103175346D01*
X125589070Y-103160930D01*
X125574654Y-103145024D01*
X125561866Y-103127781D01*
X125550830Y-103109368D01*
X125541651Y-103089962D01*
X125534419Y-103069750D01*
X125529203Y-103048926D01*
X125526053Y-103027691D01*
X125525000Y-103006250D01*
X125525000Y-102568750D01*
X125526053Y-102547309D01*
X125529203Y-102526074D01*
X125534419Y-102505250D01*
X125541651Y-102485038D01*
X125550830Y-102465632D01*
X125561866Y-102447219D01*
X125574654Y-102429976D01*
X125589070Y-102414070D01*
X125604976Y-102399654D01*
X125622219Y-102386866D01*
X125640632Y-102375830D01*
X125660038Y-102366651D01*
X125680250Y-102359419D01*
X125701074Y-102354203D01*
X125722309Y-102351053D01*
X125743750Y-102350000D01*
X126256250Y-102350000D01*
X126277691Y-102351053D01*
X126277691Y-102351053D01*
G37*
D12*
G04 #@! TD*
G04 #@! TO.P,D6,2*
G04 #@! TO.N,BATTERY*
X126000000Y-102787500D03*
D10*
G04 #@! TO.N,+3V3*
G04 #@! TO.C,D7*
G36*
X126277691Y-95351053D02*
X126298926Y-95354203D01*
X126319750Y-95359419D01*
X126339962Y-95366651D01*
X126359368Y-95375830D01*
X126377781Y-95386866D01*
X126395024Y-95399654D01*
X126410930Y-95414070D01*
X126425346Y-95429976D01*
X126438134Y-95447219D01*
X126449170Y-95465632D01*
X126458349Y-95485038D01*
X126465581Y-95505250D01*
X126470797Y-95526074D01*
X126473947Y-95547309D01*
X126475000Y-95568750D01*
X126475000Y-96006250D01*
X126473947Y-96027691D01*
X126470797Y-96048926D01*
X126465581Y-96069750D01*
X126458349Y-96089962D01*
X126449170Y-96109368D01*
X126438134Y-96127781D01*
X126425346Y-96145024D01*
X126410930Y-96160930D01*
X126395024Y-96175346D01*
X126377781Y-96188134D01*
X126359368Y-96199170D01*
X126339962Y-96208349D01*
X126319750Y-96215581D01*
X126298926Y-96220797D01*
X126277691Y-96223947D01*
X126256250Y-96225000D01*
X125743750Y-96225000D01*
X125722309Y-96223947D01*
X125701074Y-96220797D01*
X125680250Y-96215581D01*
X125660038Y-96208349D01*
X125640632Y-96199170D01*
X125622219Y-96188134D01*
X125604976Y-96175346D01*
X125589070Y-96160930D01*
X125574654Y-96145024D01*
X125561866Y-96127781D01*
X125550830Y-96109368D01*
X125541651Y-96089962D01*
X125534419Y-96069750D01*
X125529203Y-96048926D01*
X125526053Y-96027691D01*
X125525000Y-96006250D01*
X125525000Y-95568750D01*
X125526053Y-95547309D01*
X125529203Y-95526074D01*
X125534419Y-95505250D01*
X125541651Y-95485038D01*
X125550830Y-95465632D01*
X125561866Y-95447219D01*
X125574654Y-95429976D01*
X125589070Y-95414070D01*
X125604976Y-95399654D01*
X125622219Y-95386866D01*
X125640632Y-95375830D01*
X125660038Y-95366651D01*
X125680250Y-95359419D01*
X125701074Y-95354203D01*
X125722309Y-95351053D01*
X125743750Y-95350000D01*
X126256250Y-95350000D01*
X126277691Y-95351053D01*
X126277691Y-95351053D01*
G37*
D12*
G04 #@! TD*
G04 #@! TO.P,D7,2*
G04 #@! TO.N,+3V3*
X126000000Y-95787500D03*
D10*
G04 #@! TO.N,Net-(D7-Pad1)*
G04 #@! TO.C,D7*
G36*
X126277691Y-93776053D02*
X126298926Y-93779203D01*
X126319750Y-93784419D01*
X126339962Y-93791651D01*
X126359368Y-93800830D01*
X126377781Y-93811866D01*
X126395024Y-93824654D01*
X126410930Y-93839070D01*
X126425346Y-93854976D01*
X126438134Y-93872219D01*
X126449170Y-93890632D01*
X126458349Y-93910038D01*
X126465581Y-93930250D01*
X126470797Y-93951074D01*
X126473947Y-93972309D01*
X126475000Y-93993750D01*
X126475000Y-94431250D01*
X126473947Y-94452691D01*
X126470797Y-94473926D01*
X126465581Y-94494750D01*
X126458349Y-94514962D01*
X126449170Y-94534368D01*
X126438134Y-94552781D01*
X126425346Y-94570024D01*
X126410930Y-94585930D01*
X126395024Y-94600346D01*
X126377781Y-94613134D01*
X126359368Y-94624170D01*
X126339962Y-94633349D01*
X126319750Y-94640581D01*
X126298926Y-94645797D01*
X126277691Y-94648947D01*
X126256250Y-94650000D01*
X125743750Y-94650000D01*
X125722309Y-94648947D01*
X125701074Y-94645797D01*
X125680250Y-94640581D01*
X125660038Y-94633349D01*
X125640632Y-94624170D01*
X125622219Y-94613134D01*
X125604976Y-94600346D01*
X125589070Y-94585930D01*
X125574654Y-94570024D01*
X125561866Y-94552781D01*
X125550830Y-94534368D01*
X125541651Y-94514962D01*
X125534419Y-94494750D01*
X125529203Y-94473926D01*
X125526053Y-94452691D01*
X125525000Y-94431250D01*
X125525000Y-93993750D01*
X125526053Y-93972309D01*
X125529203Y-93951074D01*
X125534419Y-93930250D01*
X125541651Y-93910038D01*
X125550830Y-93890632D01*
X125561866Y-93872219D01*
X125574654Y-93854976D01*
X125589070Y-93839070D01*
X125604976Y-93824654D01*
X125622219Y-93811866D01*
X125640632Y-93800830D01*
X125660038Y-93791651D01*
X125680250Y-93784419D01*
X125701074Y-93779203D01*
X125722309Y-93776053D01*
X125743750Y-93775000D01*
X126256250Y-93775000D01*
X126277691Y-93776053D01*
X126277691Y-93776053D01*
G37*
D12*
G04 #@! TD*
G04 #@! TO.P,D7,1*
G04 #@! TO.N,Net-(D7-Pad1)*
X126000000Y-94212500D03*
D14*
G04 #@! TO.P,J1,1*
G04 #@! TO.N,SOLAR*
X132000000Y-113000000D03*
D15*
G04 #@! TO.P,J1,2*
G04 #@! TO.N,GND*
X134540000Y-113000000D03*
G04 #@! TD*
D14*
G04 #@! TO.P,J2,1*
G04 #@! TO.N,+3V3*
X149000000Y-108000000D03*
D15*
G04 #@! TO.P,J2,2*
G04 #@! TO.N,SWDIO*
X151540000Y-108000000D03*
G04 #@! TO.P,J2,3*
G04 #@! TO.N,NRST*
X149000000Y-110540000D03*
G04 #@! TO.P,J2,4*
G04 #@! TO.N,SWCLK*
X151540000Y-110540000D03*
G04 #@! TO.P,J2,5*
G04 #@! TO.N,GND*
X149000000Y-113080000D03*
G04 #@! TO.P,J2,6*
G04 #@! TO.N,Net-(J2-Pad6)*
X151540000Y-113080000D03*
G04 #@! TD*
D14*
G04 #@! TO.P,J3,1*
G04 #@! TO.N,+3V3*
X160000000Y-98000000D03*
D15*
G04 #@! TO.P,J3,2*
G04 #@! TO.N,I2C_SDA*
X160000000Y-100540000D03*
G04 #@! TO.P,J3,3*
G04 #@! TO.N,I2C_SCL*
X160000000Y-103080000D03*
G04 #@! TO.P,J3,4*
G04 #@! TO.N,GND*
X160000000Y-105620000D03*
G04 #@! TD*
D10*
G04 #@! TO.N,BATTERY*
G04 #@! TO.C,J4*
G36*
X141374505Y-107126204D02*
X141398773Y-107129804D01*
X141422572Y-107135765D01*
X141445671Y-107144030D01*
X141467850Y-107154520D01*
X141488893Y-107167132D01*
X141508599Y-107181747D01*
X141526777Y-107198223D01*
X141543253Y-107216401D01*
X141557868Y-107236107D01*
X141570480Y-107257150D01*
X141580970Y-107279329D01*
X141589235Y-107302428D01*
X141595196Y-107326227D01*
X141598796Y-107350495D01*
X141600000Y-107374999D01*
X141600000Y-108625001D01*
X141598796Y-108649505D01*
X141595196Y-108673773D01*
X141589235Y-108697572D01*
X141580970Y-108720671D01*
X141570480Y-108742850D01*
X141557868Y-108763893D01*
X141543253Y-108783599D01*
X141526777Y-108801777D01*
X141508599Y-108818253D01*
X141488893Y-108832868D01*
X141467850Y-108845480D01*
X141445671Y-108855970D01*
X141422572Y-108864235D01*
X141398773Y-108870196D01*
X141374505Y-108873796D01*
X141350001Y-108875000D01*
X140649999Y-108875000D01*
X140625495Y-108873796D01*
X140601227Y-108870196D01*
X140577428Y-108864235D01*
X140554329Y-108855970D01*
X140532150Y-108845480D01*
X140511107Y-108832868D01*
X140491401Y-108818253D01*
X140473223Y-108801777D01*
X140456747Y-108783599D01*
X140442132Y-108763893D01*
X140429520Y-108742850D01*
X140419030Y-108720671D01*
X140410765Y-108697572D01*
X140404804Y-108673773D01*
X140401204Y-108649505D01*
X140400000Y-108625001D01*
X140400000Y-107374999D01*
X140401204Y-107350495D01*
X140404804Y-107326227D01*
X140410765Y-107302428D01*
X140419030Y-107279329D01*
X140429520Y-107257150D01*
X140442132Y-107236107D01*
X140456747Y-107216401D01*
X140473223Y-107198223D01*
X140491401Y-107181747D01*
X140511107Y-107167132D01*
X140532150Y-107154520D01*
X140554329Y-107144030D01*
X140577428Y-107135765D01*
X140601227Y-107129804D01*
X140625495Y-107126204D01*
X140649999Y-107125000D01*
X141350001Y-107125000D01*
X141374505Y-107126204D01*
X141374505Y-107126204D01*
G37*
D16*
G04 #@! TD*
G04 #@! TO.P,J4,1*
G04 #@! TO.N,BATTERY*
X141000000Y-108000000D03*
D17*
G04 #@! TO.P,J4,2*
G04 #@! TO.N,GND*
X143000000Y-108000000D03*
G04 #@! TD*
D14*
G04 #@! TO.P,J5,1*
G04 #@! TO.N,PIR_PWR*
X160000000Y-89000000D03*
D15*
G04 #@! TO.P,J5,2*
G04 #@! TO.N,PIR*
X160000000Y-91540000D03*
G04 #@! TO.P,J5,3*
G04 #@! TO.N,GND*
X160000000Y-94080000D03*
G04 #@! TD*
D18*
G04 #@! TO.P,Q1,3*
G04 #@! TO.N,XBEE_PWR*
X144000000Y-78500000D03*
G04 #@! TO.P,Q1,2*
G04 #@! TO.N,+3V3*
X146000000Y-77550000D03*
G04 #@! TO.P,Q1,1*
G04 #@! TO.N,EN_XBEE*
X146000000Y-79450000D03*
G04 #@! TD*
G04 #@! TO.P,Q2,1*
G04 #@! TO.N,EN_PIR*
X156000000Y-87050000D03*
G04 #@! TO.P,Q2,2*
G04 #@! TO.N,+3V3*
X156000000Y-88950000D03*
G04 #@! TO.P,Q2,3*
G04 #@! TO.N,PIR_PWR*
X158000000Y-88000000D03*
G04 #@! TD*
G04 #@! TO.P,Q3,1*
G04 #@! TO.N,~LED_EN*
X132000000Y-98050000D03*
G04 #@! TO.P,Q3,2*
G04 #@! TO.N,GND*
X132000000Y-99950000D03*
G04 #@! TO.P,Q3,3*
G04 #@! TO.N,LED_GND*
X134000000Y-99000000D03*
G04 #@! TD*
D10*
G04 #@! TO.N,SOLAR_SENSE*
G04 #@! TO.C,R1*
G36*
X128277691Y-97276053D02*
X128298926Y-97279203D01*
X128319750Y-97284419D01*
X128339962Y-97291651D01*
X128359368Y-97300830D01*
X128377781Y-97311866D01*
X128395024Y-97324654D01*
X128410930Y-97339070D01*
X128425346Y-97354976D01*
X128438134Y-97372219D01*
X128449170Y-97390632D01*
X128458349Y-97410038D01*
X128465581Y-97430250D01*
X128470797Y-97451074D01*
X128473947Y-97472309D01*
X128475000Y-97493750D01*
X128475000Y-97931250D01*
X128473947Y-97952691D01*
X128470797Y-97973926D01*
X128465581Y-97994750D01*
X128458349Y-98014962D01*
X128449170Y-98034368D01*
X128438134Y-98052781D01*
X128425346Y-98070024D01*
X128410930Y-98085930D01*
X128395024Y-98100346D01*
X128377781Y-98113134D01*
X128359368Y-98124170D01*
X128339962Y-98133349D01*
X128319750Y-98140581D01*
X128298926Y-98145797D01*
X128277691Y-98148947D01*
X128256250Y-98150000D01*
X127743750Y-98150000D01*
X127722309Y-98148947D01*
X127701074Y-98145797D01*
X127680250Y-98140581D01*
X127660038Y-98133349D01*
X127640632Y-98124170D01*
X127622219Y-98113134D01*
X127604976Y-98100346D01*
X127589070Y-98085930D01*
X127574654Y-98070024D01*
X127561866Y-98052781D01*
X127550830Y-98034368D01*
X127541651Y-98014962D01*
X127534419Y-97994750D01*
X127529203Y-97973926D01*
X127526053Y-97952691D01*
X127525000Y-97931250D01*
X127525000Y-97493750D01*
X127526053Y-97472309D01*
X127529203Y-97451074D01*
X127534419Y-97430250D01*
X127541651Y-97410038D01*
X127550830Y-97390632D01*
X127561866Y-97372219D01*
X127574654Y-97354976D01*
X127589070Y-97339070D01*
X127604976Y-97324654D01*
X127622219Y-97311866D01*
X127640632Y-97300830D01*
X127660038Y-97291651D01*
X127680250Y-97284419D01*
X127701074Y-97279203D01*
X127722309Y-97276053D01*
X127743750Y-97275000D01*
X128256250Y-97275000D01*
X128277691Y-97276053D01*
X128277691Y-97276053D01*
G37*
D12*
G04 #@! TD*
G04 #@! TO.P,R1,2*
G04 #@! TO.N,SOLAR_SENSE*
X128000000Y-97712500D03*
D10*
G04 #@! TO.N,SOLAR*
G04 #@! TO.C,R1*
G36*
X128277691Y-98851053D02*
X128298926Y-98854203D01*
X128319750Y-98859419D01*
X128339962Y-98866651D01*
X128359368Y-98875830D01*
X128377781Y-98886866D01*
X128395024Y-98899654D01*
X128410930Y-98914070D01*
X128425346Y-98929976D01*
X128438134Y-98947219D01*
X128449170Y-98965632D01*
X128458349Y-98985038D01*
X128465581Y-99005250D01*
X128470797Y-99026074D01*
X128473947Y-99047309D01*
X128475000Y-99068750D01*
X128475000Y-99506250D01*
X128473947Y-99527691D01*
X128470797Y-99548926D01*
X128465581Y-99569750D01*
X128458349Y-99589962D01*
X128449170Y-99609368D01*
X128438134Y-99627781D01*
X128425346Y-99645024D01*
X128410930Y-99660930D01*
X128395024Y-99675346D01*
X128377781Y-99688134D01*
X128359368Y-99699170D01*
X128339962Y-99708349D01*
X128319750Y-99715581D01*
X128298926Y-99720797D01*
X128277691Y-99723947D01*
X128256250Y-99725000D01*
X127743750Y-99725000D01*
X127722309Y-99723947D01*
X127701074Y-99720797D01*
X127680250Y-99715581D01*
X127660038Y-99708349D01*
X127640632Y-99699170D01*
X127622219Y-99688134D01*
X127604976Y-99675346D01*
X127589070Y-99660930D01*
X127574654Y-99645024D01*
X127561866Y-99627781D01*
X127550830Y-99609368D01*
X127541651Y-99589962D01*
X127534419Y-99569750D01*
X127529203Y-99548926D01*
X127526053Y-99527691D01*
X127525000Y-99506250D01*
X127525000Y-99068750D01*
X127526053Y-99047309D01*
X127529203Y-99026074D01*
X127534419Y-99005250D01*
X127541651Y-98985038D01*
X127550830Y-98965632D01*
X127561866Y-98947219D01*
X127574654Y-98929976D01*
X127589070Y-98914070D01*
X127604976Y-98899654D01*
X127622219Y-98886866D01*
X127640632Y-98875830D01*
X127660038Y-98866651D01*
X127680250Y-98859419D01*
X127701074Y-98854203D01*
X127722309Y-98851053D01*
X127743750Y-98850000D01*
X128256250Y-98850000D01*
X128277691Y-98851053D01*
X128277691Y-98851053D01*
G37*
D12*
G04 #@! TD*
G04 #@! TO.P,R1,1*
G04 #@! TO.N,SOLAR*
X128000000Y-99287500D03*
D10*
G04 #@! TO.N,SOLAR_SENSE*
G04 #@! TO.C,R2*
G36*
X130277691Y-97276053D02*
X130298926Y-97279203D01*
X130319750Y-97284419D01*
X130339962Y-97291651D01*
X130359368Y-97300830D01*
X130377781Y-97311866D01*
X130395024Y-97324654D01*
X130410930Y-97339070D01*
X130425346Y-97354976D01*
X130438134Y-97372219D01*
X130449170Y-97390632D01*
X130458349Y-97410038D01*
X130465581Y-97430250D01*
X130470797Y-97451074D01*
X130473947Y-97472309D01*
X130475000Y-97493750D01*
X130475000Y-97931250D01*
X130473947Y-97952691D01*
X130470797Y-97973926D01*
X130465581Y-97994750D01*
X130458349Y-98014962D01*
X130449170Y-98034368D01*
X130438134Y-98052781D01*
X130425346Y-98070024D01*
X130410930Y-98085930D01*
X130395024Y-98100346D01*
X130377781Y-98113134D01*
X130359368Y-98124170D01*
X130339962Y-98133349D01*
X130319750Y-98140581D01*
X130298926Y-98145797D01*
X130277691Y-98148947D01*
X130256250Y-98150000D01*
X129743750Y-98150000D01*
X129722309Y-98148947D01*
X129701074Y-98145797D01*
X129680250Y-98140581D01*
X129660038Y-98133349D01*
X129640632Y-98124170D01*
X129622219Y-98113134D01*
X129604976Y-98100346D01*
X129589070Y-98085930D01*
X129574654Y-98070024D01*
X129561866Y-98052781D01*
X129550830Y-98034368D01*
X129541651Y-98014962D01*
X129534419Y-97994750D01*
X129529203Y-97973926D01*
X129526053Y-97952691D01*
X129525000Y-97931250D01*
X129525000Y-97493750D01*
X129526053Y-97472309D01*
X129529203Y-97451074D01*
X129534419Y-97430250D01*
X129541651Y-97410038D01*
X129550830Y-97390632D01*
X129561866Y-97372219D01*
X129574654Y-97354976D01*
X129589070Y-97339070D01*
X129604976Y-97324654D01*
X129622219Y-97311866D01*
X129640632Y-97300830D01*
X129660038Y-97291651D01*
X129680250Y-97284419D01*
X129701074Y-97279203D01*
X129722309Y-97276053D01*
X129743750Y-97275000D01*
X130256250Y-97275000D01*
X130277691Y-97276053D01*
X130277691Y-97276053D01*
G37*
D12*
G04 #@! TD*
G04 #@! TO.P,R2,1*
G04 #@! TO.N,SOLAR_SENSE*
X130000000Y-97712500D03*
D10*
G04 #@! TO.N,GND*
G04 #@! TO.C,R2*
G36*
X130277691Y-98851053D02*
X130298926Y-98854203D01*
X130319750Y-98859419D01*
X130339962Y-98866651D01*
X130359368Y-98875830D01*
X130377781Y-98886866D01*
X130395024Y-98899654D01*
X130410930Y-98914070D01*
X130425346Y-98929976D01*
X130438134Y-98947219D01*
X130449170Y-98965632D01*
X130458349Y-98985038D01*
X130465581Y-99005250D01*
X130470797Y-99026074D01*
X130473947Y-99047309D01*
X130475000Y-99068750D01*
X130475000Y-99506250D01*
X130473947Y-99527691D01*
X130470797Y-99548926D01*
X130465581Y-99569750D01*
X130458349Y-99589962D01*
X130449170Y-99609368D01*
X130438134Y-99627781D01*
X130425346Y-99645024D01*
X130410930Y-99660930D01*
X130395024Y-99675346D01*
X130377781Y-99688134D01*
X130359368Y-99699170D01*
X130339962Y-99708349D01*
X130319750Y-99715581D01*
X130298926Y-99720797D01*
X130277691Y-99723947D01*
X130256250Y-99725000D01*
X129743750Y-99725000D01*
X129722309Y-99723947D01*
X129701074Y-99720797D01*
X129680250Y-99715581D01*
X129660038Y-99708349D01*
X129640632Y-99699170D01*
X129622219Y-99688134D01*
X129604976Y-99675346D01*
X129589070Y-99660930D01*
X129574654Y-99645024D01*
X129561866Y-99627781D01*
X129550830Y-99609368D01*
X129541651Y-99589962D01*
X129534419Y-99569750D01*
X129529203Y-99548926D01*
X129526053Y-99527691D01*
X129525000Y-99506250D01*
X129525000Y-99068750D01*
X129526053Y-99047309D01*
X129529203Y-99026074D01*
X129534419Y-99005250D01*
X129541651Y-98985038D01*
X129550830Y-98965632D01*
X129561866Y-98947219D01*
X129574654Y-98929976D01*
X129589070Y-98914070D01*
X129604976Y-98899654D01*
X129622219Y-98886866D01*
X129640632Y-98875830D01*
X129660038Y-98866651D01*
X129680250Y-98859419D01*
X129701074Y-98854203D01*
X129722309Y-98851053D01*
X129743750Y-98850000D01*
X130256250Y-98850000D01*
X130277691Y-98851053D01*
X130277691Y-98851053D01*
G37*
D12*
G04 #@! TD*
G04 #@! TO.P,R2,2*
G04 #@! TO.N,GND*
X130000000Y-99287500D03*
D10*
G04 #@! TO.N,GND*
G04 #@! TO.C,R3*
G36*
X131277691Y-107776053D02*
X131298926Y-107779203D01*
X131319750Y-107784419D01*
X131339962Y-107791651D01*
X131359368Y-107800830D01*
X131377781Y-107811866D01*
X131395024Y-107824654D01*
X131410930Y-107839070D01*
X131425346Y-107854976D01*
X131438134Y-107872219D01*
X131449170Y-107890632D01*
X131458349Y-107910038D01*
X131465581Y-107930250D01*
X131470797Y-107951074D01*
X131473947Y-107972309D01*
X131475000Y-107993750D01*
X131475000Y-108431250D01*
X131473947Y-108452691D01*
X131470797Y-108473926D01*
X131465581Y-108494750D01*
X131458349Y-108514962D01*
X131449170Y-108534368D01*
X131438134Y-108552781D01*
X131425346Y-108570024D01*
X131410930Y-108585930D01*
X131395024Y-108600346D01*
X131377781Y-108613134D01*
X131359368Y-108624170D01*
X131339962Y-108633349D01*
X131319750Y-108640581D01*
X131298926Y-108645797D01*
X131277691Y-108648947D01*
X131256250Y-108650000D01*
X130743750Y-108650000D01*
X130722309Y-108648947D01*
X130701074Y-108645797D01*
X130680250Y-108640581D01*
X130660038Y-108633349D01*
X130640632Y-108624170D01*
X130622219Y-108613134D01*
X130604976Y-108600346D01*
X130589070Y-108585930D01*
X130574654Y-108570024D01*
X130561866Y-108552781D01*
X130550830Y-108534368D01*
X130541651Y-108514962D01*
X130534419Y-108494750D01*
X130529203Y-108473926D01*
X130526053Y-108452691D01*
X130525000Y-108431250D01*
X130525000Y-107993750D01*
X130526053Y-107972309D01*
X130529203Y-107951074D01*
X130534419Y-107930250D01*
X130541651Y-107910038D01*
X130550830Y-107890632D01*
X130561866Y-107872219D01*
X130574654Y-107854976D01*
X130589070Y-107839070D01*
X130604976Y-107824654D01*
X130622219Y-107811866D01*
X130640632Y-107800830D01*
X130660038Y-107791651D01*
X130680250Y-107784419D01*
X130701074Y-107779203D01*
X130722309Y-107776053D01*
X130743750Y-107775000D01*
X131256250Y-107775000D01*
X131277691Y-107776053D01*
X131277691Y-107776053D01*
G37*
D12*
G04 #@! TD*
G04 #@! TO.P,R3,2*
G04 #@! TO.N,GND*
X131000000Y-108212500D03*
D10*
G04 #@! TO.N,Net-(R3-Pad1)*
G04 #@! TO.C,R3*
G36*
X131277691Y-109351053D02*
X131298926Y-109354203D01*
X131319750Y-109359419D01*
X131339962Y-109366651D01*
X131359368Y-109375830D01*
X131377781Y-109386866D01*
X131395024Y-109399654D01*
X131410930Y-109414070D01*
X131425346Y-109429976D01*
X131438134Y-109447219D01*
X131449170Y-109465632D01*
X131458349Y-109485038D01*
X131465581Y-109505250D01*
X131470797Y-109526074D01*
X131473947Y-109547309D01*
X131475000Y-109568750D01*
X131475000Y-110006250D01*
X131473947Y-110027691D01*
X131470797Y-110048926D01*
X131465581Y-110069750D01*
X131458349Y-110089962D01*
X131449170Y-110109368D01*
X131438134Y-110127781D01*
X131425346Y-110145024D01*
X131410930Y-110160930D01*
X131395024Y-110175346D01*
X131377781Y-110188134D01*
X131359368Y-110199170D01*
X131339962Y-110208349D01*
X131319750Y-110215581D01*
X131298926Y-110220797D01*
X131277691Y-110223947D01*
X131256250Y-110225000D01*
X130743750Y-110225000D01*
X130722309Y-110223947D01*
X130701074Y-110220797D01*
X130680250Y-110215581D01*
X130660038Y-110208349D01*
X130640632Y-110199170D01*
X130622219Y-110188134D01*
X130604976Y-110175346D01*
X130589070Y-110160930D01*
X130574654Y-110145024D01*
X130561866Y-110127781D01*
X130550830Y-110109368D01*
X130541651Y-110089962D01*
X130534419Y-110069750D01*
X130529203Y-110048926D01*
X130526053Y-110027691D01*
X130525000Y-110006250D01*
X130525000Y-109568750D01*
X130526053Y-109547309D01*
X130529203Y-109526074D01*
X130534419Y-109505250D01*
X130541651Y-109485038D01*
X130550830Y-109465632D01*
X130561866Y-109447219D01*
X130574654Y-109429976D01*
X130589070Y-109414070D01*
X130604976Y-109399654D01*
X130622219Y-109386866D01*
X130640632Y-109375830D01*
X130660038Y-109366651D01*
X130680250Y-109359419D01*
X130701074Y-109354203D01*
X130722309Y-109351053D01*
X130743750Y-109350000D01*
X131256250Y-109350000D01*
X131277691Y-109351053D01*
X131277691Y-109351053D01*
G37*
D12*
G04 #@! TD*
G04 #@! TO.P,R3,1*
G04 #@! TO.N,Net-(R3-Pad1)*
X131000000Y-109787500D03*
D10*
G04 #@! TO.N,BATTERY*
G04 #@! TO.C,R4*
G36*
X128277691Y-102351053D02*
X128298926Y-102354203D01*
X128319750Y-102359419D01*
X128339962Y-102366651D01*
X128359368Y-102375830D01*
X128377781Y-102386866D01*
X128395024Y-102399654D01*
X128410930Y-102414070D01*
X128425346Y-102429976D01*
X128438134Y-102447219D01*
X128449170Y-102465632D01*
X128458349Y-102485038D01*
X128465581Y-102505250D01*
X128470797Y-102526074D01*
X128473947Y-102547309D01*
X128475000Y-102568750D01*
X128475000Y-103006250D01*
X128473947Y-103027691D01*
X128470797Y-103048926D01*
X128465581Y-103069750D01*
X128458349Y-103089962D01*
X128449170Y-103109368D01*
X128438134Y-103127781D01*
X128425346Y-103145024D01*
X128410930Y-103160930D01*
X128395024Y-103175346D01*
X128377781Y-103188134D01*
X128359368Y-103199170D01*
X128339962Y-103208349D01*
X128319750Y-103215581D01*
X128298926Y-103220797D01*
X128277691Y-103223947D01*
X128256250Y-103225000D01*
X127743750Y-103225000D01*
X127722309Y-103223947D01*
X127701074Y-103220797D01*
X127680250Y-103215581D01*
X127660038Y-103208349D01*
X127640632Y-103199170D01*
X127622219Y-103188134D01*
X127604976Y-103175346D01*
X127589070Y-103160930D01*
X127574654Y-103145024D01*
X127561866Y-103127781D01*
X127550830Y-103109368D01*
X127541651Y-103089962D01*
X127534419Y-103069750D01*
X127529203Y-103048926D01*
X127526053Y-103027691D01*
X127525000Y-103006250D01*
X127525000Y-102568750D01*
X127526053Y-102547309D01*
X127529203Y-102526074D01*
X127534419Y-102505250D01*
X127541651Y-102485038D01*
X127550830Y-102465632D01*
X127561866Y-102447219D01*
X127574654Y-102429976D01*
X127589070Y-102414070D01*
X127604976Y-102399654D01*
X127622219Y-102386866D01*
X127640632Y-102375830D01*
X127660038Y-102366651D01*
X127680250Y-102359419D01*
X127701074Y-102354203D01*
X127722309Y-102351053D01*
X127743750Y-102350000D01*
X128256250Y-102350000D01*
X128277691Y-102351053D01*
X128277691Y-102351053D01*
G37*
D12*
G04 #@! TD*
G04 #@! TO.P,R4,1*
G04 #@! TO.N,BATTERY*
X128000000Y-102787500D03*
D10*
G04 #@! TO.N,BATTERY_SENSE*
G04 #@! TO.C,R4*
G36*
X128277691Y-100776053D02*
X128298926Y-100779203D01*
X128319750Y-100784419D01*
X128339962Y-100791651D01*
X128359368Y-100800830D01*
X128377781Y-100811866D01*
X128395024Y-100824654D01*
X128410930Y-100839070D01*
X128425346Y-100854976D01*
X128438134Y-100872219D01*
X128449170Y-100890632D01*
X128458349Y-100910038D01*
X128465581Y-100930250D01*
X128470797Y-100951074D01*
X128473947Y-100972309D01*
X128475000Y-100993750D01*
X128475000Y-101431250D01*
X128473947Y-101452691D01*
X128470797Y-101473926D01*
X128465581Y-101494750D01*
X128458349Y-101514962D01*
X128449170Y-101534368D01*
X128438134Y-101552781D01*
X128425346Y-101570024D01*
X128410930Y-101585930D01*
X128395024Y-101600346D01*
X128377781Y-101613134D01*
X128359368Y-101624170D01*
X128339962Y-101633349D01*
X128319750Y-101640581D01*
X128298926Y-101645797D01*
X128277691Y-101648947D01*
X128256250Y-101650000D01*
X127743750Y-101650000D01*
X127722309Y-101648947D01*
X127701074Y-101645797D01*
X127680250Y-101640581D01*
X127660038Y-101633349D01*
X127640632Y-101624170D01*
X127622219Y-101613134D01*
X127604976Y-101600346D01*
X127589070Y-101585930D01*
X127574654Y-101570024D01*
X127561866Y-101552781D01*
X127550830Y-101534368D01*
X127541651Y-101514962D01*
X127534419Y-101494750D01*
X127529203Y-101473926D01*
X127526053Y-101452691D01*
X127525000Y-101431250D01*
X127525000Y-100993750D01*
X127526053Y-100972309D01*
X127529203Y-100951074D01*
X127534419Y-100930250D01*
X127541651Y-100910038D01*
X127550830Y-100890632D01*
X127561866Y-100872219D01*
X127574654Y-100854976D01*
X127589070Y-100839070D01*
X127604976Y-100824654D01*
X127622219Y-100811866D01*
X127640632Y-100800830D01*
X127660038Y-100791651D01*
X127680250Y-100784419D01*
X127701074Y-100779203D01*
X127722309Y-100776053D01*
X127743750Y-100775000D01*
X128256250Y-100775000D01*
X128277691Y-100776053D01*
X128277691Y-100776053D01*
G37*
D12*
G04 #@! TD*
G04 #@! TO.P,R4,2*
G04 #@! TO.N,BATTERY_SENSE*
X128000000Y-101212500D03*
D10*
G04 #@! TO.N,GND*
G04 #@! TO.C,R5*
G36*
X130277691Y-102351053D02*
X130298926Y-102354203D01*
X130319750Y-102359419D01*
X130339962Y-102366651D01*
X130359368Y-102375830D01*
X130377781Y-102386866D01*
X130395024Y-102399654D01*
X130410930Y-102414070D01*
X130425346Y-102429976D01*
X130438134Y-102447219D01*
X130449170Y-102465632D01*
X130458349Y-102485038D01*
X130465581Y-102505250D01*
X130470797Y-102526074D01*
X130473947Y-102547309D01*
X130475000Y-102568750D01*
X130475000Y-103006250D01*
X130473947Y-103027691D01*
X130470797Y-103048926D01*
X130465581Y-103069750D01*
X130458349Y-103089962D01*
X130449170Y-103109368D01*
X130438134Y-103127781D01*
X130425346Y-103145024D01*
X130410930Y-103160930D01*
X130395024Y-103175346D01*
X130377781Y-103188134D01*
X130359368Y-103199170D01*
X130339962Y-103208349D01*
X130319750Y-103215581D01*
X130298926Y-103220797D01*
X130277691Y-103223947D01*
X130256250Y-103225000D01*
X129743750Y-103225000D01*
X129722309Y-103223947D01*
X129701074Y-103220797D01*
X129680250Y-103215581D01*
X129660038Y-103208349D01*
X129640632Y-103199170D01*
X129622219Y-103188134D01*
X129604976Y-103175346D01*
X129589070Y-103160930D01*
X129574654Y-103145024D01*
X129561866Y-103127781D01*
X129550830Y-103109368D01*
X129541651Y-103089962D01*
X129534419Y-103069750D01*
X129529203Y-103048926D01*
X129526053Y-103027691D01*
X129525000Y-103006250D01*
X129525000Y-102568750D01*
X129526053Y-102547309D01*
X129529203Y-102526074D01*
X129534419Y-102505250D01*
X129541651Y-102485038D01*
X129550830Y-102465632D01*
X129561866Y-102447219D01*
X129574654Y-102429976D01*
X129589070Y-102414070D01*
X129604976Y-102399654D01*
X129622219Y-102386866D01*
X129640632Y-102375830D01*
X129660038Y-102366651D01*
X129680250Y-102359419D01*
X129701074Y-102354203D01*
X129722309Y-102351053D01*
X129743750Y-102350000D01*
X130256250Y-102350000D01*
X130277691Y-102351053D01*
X130277691Y-102351053D01*
G37*
D12*
G04 #@! TD*
G04 #@! TO.P,R5,2*
G04 #@! TO.N,GND*
X130000000Y-102787500D03*
D10*
G04 #@! TO.N,BATTERY_SENSE*
G04 #@! TO.C,R5*
G36*
X130277691Y-100776053D02*
X130298926Y-100779203D01*
X130319750Y-100784419D01*
X130339962Y-100791651D01*
X130359368Y-100800830D01*
X130377781Y-100811866D01*
X130395024Y-100824654D01*
X130410930Y-100839070D01*
X130425346Y-100854976D01*
X130438134Y-100872219D01*
X130449170Y-100890632D01*
X130458349Y-100910038D01*
X130465581Y-100930250D01*
X130470797Y-100951074D01*
X130473947Y-100972309D01*
X130475000Y-100993750D01*
X130475000Y-101431250D01*
X130473947Y-101452691D01*
X130470797Y-101473926D01*
X130465581Y-101494750D01*
X130458349Y-101514962D01*
X130449170Y-101534368D01*
X130438134Y-101552781D01*
X130425346Y-101570024D01*
X130410930Y-101585930D01*
X130395024Y-101600346D01*
X130377781Y-101613134D01*
X130359368Y-101624170D01*
X130339962Y-101633349D01*
X130319750Y-101640581D01*
X130298926Y-101645797D01*
X130277691Y-101648947D01*
X130256250Y-101650000D01*
X129743750Y-101650000D01*
X129722309Y-101648947D01*
X129701074Y-101645797D01*
X129680250Y-101640581D01*
X129660038Y-101633349D01*
X129640632Y-101624170D01*
X129622219Y-101613134D01*
X129604976Y-101600346D01*
X129589070Y-101585930D01*
X129574654Y-101570024D01*
X129561866Y-101552781D01*
X129550830Y-101534368D01*
X129541651Y-101514962D01*
X129534419Y-101494750D01*
X129529203Y-101473926D01*
X129526053Y-101452691D01*
X129525000Y-101431250D01*
X129525000Y-100993750D01*
X129526053Y-100972309D01*
X129529203Y-100951074D01*
X129534419Y-100930250D01*
X129541651Y-100910038D01*
X129550830Y-100890632D01*
X129561866Y-100872219D01*
X129574654Y-100854976D01*
X129589070Y-100839070D01*
X129604976Y-100824654D01*
X129622219Y-100811866D01*
X129640632Y-100800830D01*
X129660038Y-100791651D01*
X129680250Y-100784419D01*
X129701074Y-100779203D01*
X129722309Y-100776053D01*
X129743750Y-100775000D01*
X130256250Y-100775000D01*
X130277691Y-100776053D01*
X130277691Y-100776053D01*
G37*
D12*
G04 #@! TD*
G04 #@! TO.P,R5,1*
G04 #@! TO.N,BATTERY_SENSE*
X130000000Y-101212500D03*
D10*
G04 #@! TO.N,+3V3*
G04 #@! TO.C,R6*
G36*
X133452691Y-88526053D02*
X133473926Y-88529203D01*
X133494750Y-88534419D01*
X133514962Y-88541651D01*
X133534368Y-88550830D01*
X133552781Y-88561866D01*
X133570024Y-88574654D01*
X133585930Y-88589070D01*
X133600346Y-88604976D01*
X133613134Y-88622219D01*
X133624170Y-88640632D01*
X133633349Y-88660038D01*
X133640581Y-88680250D01*
X133645797Y-88701074D01*
X133648947Y-88722309D01*
X133650000Y-88743750D01*
X133650000Y-89256250D01*
X133648947Y-89277691D01*
X133645797Y-89298926D01*
X133640581Y-89319750D01*
X133633349Y-89339962D01*
X133624170Y-89359368D01*
X133613134Y-89377781D01*
X133600346Y-89395024D01*
X133585930Y-89410930D01*
X133570024Y-89425346D01*
X133552781Y-89438134D01*
X133534368Y-89449170D01*
X133514962Y-89458349D01*
X133494750Y-89465581D01*
X133473926Y-89470797D01*
X133452691Y-89473947D01*
X133431250Y-89475000D01*
X132993750Y-89475000D01*
X132972309Y-89473947D01*
X132951074Y-89470797D01*
X132930250Y-89465581D01*
X132910038Y-89458349D01*
X132890632Y-89449170D01*
X132872219Y-89438134D01*
X132854976Y-89425346D01*
X132839070Y-89410930D01*
X132824654Y-89395024D01*
X132811866Y-89377781D01*
X132800830Y-89359368D01*
X132791651Y-89339962D01*
X132784419Y-89319750D01*
X132779203Y-89298926D01*
X132776053Y-89277691D01*
X132775000Y-89256250D01*
X132775000Y-88743750D01*
X132776053Y-88722309D01*
X132779203Y-88701074D01*
X132784419Y-88680250D01*
X132791651Y-88660038D01*
X132800830Y-88640632D01*
X132811866Y-88622219D01*
X132824654Y-88604976D01*
X132839070Y-88589070D01*
X132854976Y-88574654D01*
X132872219Y-88561866D01*
X132890632Y-88550830D01*
X132910038Y-88541651D01*
X132930250Y-88534419D01*
X132951074Y-88529203D01*
X132972309Y-88526053D01*
X132993750Y-88525000D01*
X133431250Y-88525000D01*
X133452691Y-88526053D01*
X133452691Y-88526053D01*
G37*
D12*
G04 #@! TD*
G04 #@! TO.P,R6,1*
G04 #@! TO.N,+3V3*
X133212500Y-89000000D03*
D10*
G04 #@! TO.N,NRST*
G04 #@! TO.C,R6*
G36*
X135027691Y-88526053D02*
X135048926Y-88529203D01*
X135069750Y-88534419D01*
X135089962Y-88541651D01*
X135109368Y-88550830D01*
X135127781Y-88561866D01*
X135145024Y-88574654D01*
X135160930Y-88589070D01*
X135175346Y-88604976D01*
X135188134Y-88622219D01*
X135199170Y-88640632D01*
X135208349Y-88660038D01*
X135215581Y-88680250D01*
X135220797Y-88701074D01*
X135223947Y-88722309D01*
X135225000Y-88743750D01*
X135225000Y-89256250D01*
X135223947Y-89277691D01*
X135220797Y-89298926D01*
X135215581Y-89319750D01*
X135208349Y-89339962D01*
X135199170Y-89359368D01*
X135188134Y-89377781D01*
X135175346Y-89395024D01*
X135160930Y-89410930D01*
X135145024Y-89425346D01*
X135127781Y-89438134D01*
X135109368Y-89449170D01*
X135089962Y-89458349D01*
X135069750Y-89465581D01*
X135048926Y-89470797D01*
X135027691Y-89473947D01*
X135006250Y-89475000D01*
X134568750Y-89475000D01*
X134547309Y-89473947D01*
X134526074Y-89470797D01*
X134505250Y-89465581D01*
X134485038Y-89458349D01*
X134465632Y-89449170D01*
X134447219Y-89438134D01*
X134429976Y-89425346D01*
X134414070Y-89410930D01*
X134399654Y-89395024D01*
X134386866Y-89377781D01*
X134375830Y-89359368D01*
X134366651Y-89339962D01*
X134359419Y-89319750D01*
X134354203Y-89298926D01*
X134351053Y-89277691D01*
X134350000Y-89256250D01*
X134350000Y-88743750D01*
X134351053Y-88722309D01*
X134354203Y-88701074D01*
X134359419Y-88680250D01*
X134366651Y-88660038D01*
X134375830Y-88640632D01*
X134386866Y-88622219D01*
X134399654Y-88604976D01*
X134414070Y-88589070D01*
X134429976Y-88574654D01*
X134447219Y-88561866D01*
X134465632Y-88550830D01*
X134485038Y-88541651D01*
X134505250Y-88534419D01*
X134526074Y-88529203D01*
X134547309Y-88526053D01*
X134568750Y-88525000D01*
X135006250Y-88525000D01*
X135027691Y-88526053D01*
X135027691Y-88526053D01*
G37*
D12*
G04 #@! TD*
G04 #@! TO.P,R6,2*
G04 #@! TO.N,NRST*
X134787500Y-89000000D03*
D10*
G04 #@! TO.N,GND*
G04 #@! TO.C,R7*
G36*
X138952691Y-80026053D02*
X138973926Y-80029203D01*
X138994750Y-80034419D01*
X139014962Y-80041651D01*
X139034368Y-80050830D01*
X139052781Y-80061866D01*
X139070024Y-80074654D01*
X139085930Y-80089070D01*
X139100346Y-80104976D01*
X139113134Y-80122219D01*
X139124170Y-80140632D01*
X139133349Y-80160038D01*
X139140581Y-80180250D01*
X139145797Y-80201074D01*
X139148947Y-80222309D01*
X139150000Y-80243750D01*
X139150000Y-80756250D01*
X139148947Y-80777691D01*
X139145797Y-80798926D01*
X139140581Y-80819750D01*
X139133349Y-80839962D01*
X139124170Y-80859368D01*
X139113134Y-80877781D01*
X139100346Y-80895024D01*
X139085930Y-80910930D01*
X139070024Y-80925346D01*
X139052781Y-80938134D01*
X139034368Y-80949170D01*
X139014962Y-80958349D01*
X138994750Y-80965581D01*
X138973926Y-80970797D01*
X138952691Y-80973947D01*
X138931250Y-80975000D01*
X138493750Y-80975000D01*
X138472309Y-80973947D01*
X138451074Y-80970797D01*
X138430250Y-80965581D01*
X138410038Y-80958349D01*
X138390632Y-80949170D01*
X138372219Y-80938134D01*
X138354976Y-80925346D01*
X138339070Y-80910930D01*
X138324654Y-80895024D01*
X138311866Y-80877781D01*
X138300830Y-80859368D01*
X138291651Y-80839962D01*
X138284419Y-80819750D01*
X138279203Y-80798926D01*
X138276053Y-80777691D01*
X138275000Y-80756250D01*
X138275000Y-80243750D01*
X138276053Y-80222309D01*
X138279203Y-80201074D01*
X138284419Y-80180250D01*
X138291651Y-80160038D01*
X138300830Y-80140632D01*
X138311866Y-80122219D01*
X138324654Y-80104976D01*
X138339070Y-80089070D01*
X138354976Y-80074654D01*
X138372219Y-80061866D01*
X138390632Y-80050830D01*
X138410038Y-80041651D01*
X138430250Y-80034419D01*
X138451074Y-80029203D01*
X138472309Y-80026053D01*
X138493750Y-80025000D01*
X138931250Y-80025000D01*
X138952691Y-80026053D01*
X138952691Y-80026053D01*
G37*
D12*
G04 #@! TD*
G04 #@! TO.P,R7,2*
G04 #@! TO.N,GND*
X138712500Y-80500000D03*
D10*
G04 #@! TO.N,BOOT0*
G04 #@! TO.C,R7*
G36*
X140527691Y-80026053D02*
X140548926Y-80029203D01*
X140569750Y-80034419D01*
X140589962Y-80041651D01*
X140609368Y-80050830D01*
X140627781Y-80061866D01*
X140645024Y-80074654D01*
X140660930Y-80089070D01*
X140675346Y-80104976D01*
X140688134Y-80122219D01*
X140699170Y-80140632D01*
X140708349Y-80160038D01*
X140715581Y-80180250D01*
X140720797Y-80201074D01*
X140723947Y-80222309D01*
X140725000Y-80243750D01*
X140725000Y-80756250D01*
X140723947Y-80777691D01*
X140720797Y-80798926D01*
X140715581Y-80819750D01*
X140708349Y-80839962D01*
X140699170Y-80859368D01*
X140688134Y-80877781D01*
X140675346Y-80895024D01*
X140660930Y-80910930D01*
X140645024Y-80925346D01*
X140627781Y-80938134D01*
X140609368Y-80949170D01*
X140589962Y-80958349D01*
X140569750Y-80965581D01*
X140548926Y-80970797D01*
X140527691Y-80973947D01*
X140506250Y-80975000D01*
X140068750Y-80975000D01*
X140047309Y-80973947D01*
X140026074Y-80970797D01*
X140005250Y-80965581D01*
X139985038Y-80958349D01*
X139965632Y-80949170D01*
X139947219Y-80938134D01*
X139929976Y-80925346D01*
X139914070Y-80910930D01*
X139899654Y-80895024D01*
X139886866Y-80877781D01*
X139875830Y-80859368D01*
X139866651Y-80839962D01*
X139859419Y-80819750D01*
X139854203Y-80798926D01*
X139851053Y-80777691D01*
X139850000Y-80756250D01*
X139850000Y-80243750D01*
X139851053Y-80222309D01*
X139854203Y-80201074D01*
X139859419Y-80180250D01*
X139866651Y-80160038D01*
X139875830Y-80140632D01*
X139886866Y-80122219D01*
X139899654Y-80104976D01*
X139914070Y-80089070D01*
X139929976Y-80074654D01*
X139947219Y-80061866D01*
X139965632Y-80050830D01*
X139985038Y-80041651D01*
X140005250Y-80034419D01*
X140026074Y-80029203D01*
X140047309Y-80026053D01*
X140068750Y-80025000D01*
X140506250Y-80025000D01*
X140527691Y-80026053D01*
X140527691Y-80026053D01*
G37*
D12*
G04 #@! TD*
G04 #@! TO.P,R7,1*
G04 #@! TO.N,BOOT0*
X140287500Y-80500000D03*
D10*
G04 #@! TO.N,Net-(D1-Pad1)*
G04 #@! TO.C,R8*
G36*
X155952691Y-92526053D02*
X155973926Y-92529203D01*
X155994750Y-92534419D01*
X156014962Y-92541651D01*
X156034368Y-92550830D01*
X156052781Y-92561866D01*
X156070024Y-92574654D01*
X156085930Y-92589070D01*
X156100346Y-92604976D01*
X156113134Y-92622219D01*
X156124170Y-92640632D01*
X156133349Y-92660038D01*
X156140581Y-92680250D01*
X156145797Y-92701074D01*
X156148947Y-92722309D01*
X156150000Y-92743750D01*
X156150000Y-93256250D01*
X156148947Y-93277691D01*
X156145797Y-93298926D01*
X156140581Y-93319750D01*
X156133349Y-93339962D01*
X156124170Y-93359368D01*
X156113134Y-93377781D01*
X156100346Y-93395024D01*
X156085930Y-93410930D01*
X156070024Y-93425346D01*
X156052781Y-93438134D01*
X156034368Y-93449170D01*
X156014962Y-93458349D01*
X155994750Y-93465581D01*
X155973926Y-93470797D01*
X155952691Y-93473947D01*
X155931250Y-93475000D01*
X155493750Y-93475000D01*
X155472309Y-93473947D01*
X155451074Y-93470797D01*
X155430250Y-93465581D01*
X155410038Y-93458349D01*
X155390632Y-93449170D01*
X155372219Y-93438134D01*
X155354976Y-93425346D01*
X155339070Y-93410930D01*
X155324654Y-93395024D01*
X155311866Y-93377781D01*
X155300830Y-93359368D01*
X155291651Y-93339962D01*
X155284419Y-93319750D01*
X155279203Y-93298926D01*
X155276053Y-93277691D01*
X155275000Y-93256250D01*
X155275000Y-92743750D01*
X155276053Y-92722309D01*
X155279203Y-92701074D01*
X155284419Y-92680250D01*
X155291651Y-92660038D01*
X155300830Y-92640632D01*
X155311866Y-92622219D01*
X155324654Y-92604976D01*
X155339070Y-92589070D01*
X155354976Y-92574654D01*
X155372219Y-92561866D01*
X155390632Y-92550830D01*
X155410038Y-92541651D01*
X155430250Y-92534419D01*
X155451074Y-92529203D01*
X155472309Y-92526053D01*
X155493750Y-92525000D01*
X155931250Y-92525000D01*
X155952691Y-92526053D01*
X155952691Y-92526053D01*
G37*
D12*
G04 #@! TD*
G04 #@! TO.P,R8,1*
G04 #@! TO.N,Net-(D1-Pad1)*
X155712500Y-93000000D03*
D10*
G04 #@! TO.N,LED_GND*
G04 #@! TO.C,R8*
G36*
X157527691Y-92526053D02*
X157548926Y-92529203D01*
X157569750Y-92534419D01*
X157589962Y-92541651D01*
X157609368Y-92550830D01*
X157627781Y-92561866D01*
X157645024Y-92574654D01*
X157660930Y-92589070D01*
X157675346Y-92604976D01*
X157688134Y-92622219D01*
X157699170Y-92640632D01*
X157708349Y-92660038D01*
X157715581Y-92680250D01*
X157720797Y-92701074D01*
X157723947Y-92722309D01*
X157725000Y-92743750D01*
X157725000Y-93256250D01*
X157723947Y-93277691D01*
X157720797Y-93298926D01*
X157715581Y-93319750D01*
X157708349Y-93339962D01*
X157699170Y-93359368D01*
X157688134Y-93377781D01*
X157675346Y-93395024D01*
X157660930Y-93410930D01*
X157645024Y-93425346D01*
X157627781Y-93438134D01*
X157609368Y-93449170D01*
X157589962Y-93458349D01*
X157569750Y-93465581D01*
X157548926Y-93470797D01*
X157527691Y-93473947D01*
X157506250Y-93475000D01*
X157068750Y-93475000D01*
X157047309Y-93473947D01*
X157026074Y-93470797D01*
X157005250Y-93465581D01*
X156985038Y-93458349D01*
X156965632Y-93449170D01*
X156947219Y-93438134D01*
X156929976Y-93425346D01*
X156914070Y-93410930D01*
X156899654Y-93395024D01*
X156886866Y-93377781D01*
X156875830Y-93359368D01*
X156866651Y-93339962D01*
X156859419Y-93319750D01*
X156854203Y-93298926D01*
X156851053Y-93277691D01*
X156850000Y-93256250D01*
X156850000Y-92743750D01*
X156851053Y-92722309D01*
X156854203Y-92701074D01*
X156859419Y-92680250D01*
X156866651Y-92660038D01*
X156875830Y-92640632D01*
X156886866Y-92622219D01*
X156899654Y-92604976D01*
X156914070Y-92589070D01*
X156929976Y-92574654D01*
X156947219Y-92561866D01*
X156965632Y-92550830D01*
X156985038Y-92541651D01*
X157005250Y-92534419D01*
X157026074Y-92529203D01*
X157047309Y-92526053D01*
X157068750Y-92525000D01*
X157506250Y-92525000D01*
X157527691Y-92526053D01*
X157527691Y-92526053D01*
G37*
D12*
G04 #@! TD*
G04 #@! TO.P,R8,2*
G04 #@! TO.N,LED_GND*
X157287500Y-93000000D03*
D10*
G04 #@! TO.N,LED_GND*
G04 #@! TO.C,R9*
G36*
X124277691Y-84276053D02*
X124298926Y-84279203D01*
X124319750Y-84284419D01*
X124339962Y-84291651D01*
X124359368Y-84300830D01*
X124377781Y-84311866D01*
X124395024Y-84324654D01*
X124410930Y-84339070D01*
X124425346Y-84354976D01*
X124438134Y-84372219D01*
X124449170Y-84390632D01*
X124458349Y-84410038D01*
X124465581Y-84430250D01*
X124470797Y-84451074D01*
X124473947Y-84472309D01*
X124475000Y-84493750D01*
X124475000Y-84931250D01*
X124473947Y-84952691D01*
X124470797Y-84973926D01*
X124465581Y-84994750D01*
X124458349Y-85014962D01*
X124449170Y-85034368D01*
X124438134Y-85052781D01*
X124425346Y-85070024D01*
X124410930Y-85085930D01*
X124395024Y-85100346D01*
X124377781Y-85113134D01*
X124359368Y-85124170D01*
X124339962Y-85133349D01*
X124319750Y-85140581D01*
X124298926Y-85145797D01*
X124277691Y-85148947D01*
X124256250Y-85150000D01*
X123743750Y-85150000D01*
X123722309Y-85148947D01*
X123701074Y-85145797D01*
X123680250Y-85140581D01*
X123660038Y-85133349D01*
X123640632Y-85124170D01*
X123622219Y-85113134D01*
X123604976Y-85100346D01*
X123589070Y-85085930D01*
X123574654Y-85070024D01*
X123561866Y-85052781D01*
X123550830Y-85034368D01*
X123541651Y-85014962D01*
X123534419Y-84994750D01*
X123529203Y-84973926D01*
X123526053Y-84952691D01*
X123525000Y-84931250D01*
X123525000Y-84493750D01*
X123526053Y-84472309D01*
X123529203Y-84451074D01*
X123534419Y-84430250D01*
X123541651Y-84410038D01*
X123550830Y-84390632D01*
X123561866Y-84372219D01*
X123574654Y-84354976D01*
X123589070Y-84339070D01*
X123604976Y-84324654D01*
X123622219Y-84311866D01*
X123640632Y-84300830D01*
X123660038Y-84291651D01*
X123680250Y-84284419D01*
X123701074Y-84279203D01*
X123722309Y-84276053D01*
X123743750Y-84275000D01*
X124256250Y-84275000D01*
X124277691Y-84276053D01*
X124277691Y-84276053D01*
G37*
D12*
G04 #@! TD*
G04 #@! TO.P,R9,2*
G04 #@! TO.N,LED_GND*
X124000000Y-84712500D03*
D10*
G04 #@! TO.N,Net-(D2-Pad1)*
G04 #@! TO.C,R9*
G36*
X124277691Y-85851053D02*
X124298926Y-85854203D01*
X124319750Y-85859419D01*
X124339962Y-85866651D01*
X124359368Y-85875830D01*
X124377781Y-85886866D01*
X124395024Y-85899654D01*
X124410930Y-85914070D01*
X124425346Y-85929976D01*
X124438134Y-85947219D01*
X124449170Y-85965632D01*
X124458349Y-85985038D01*
X124465581Y-86005250D01*
X124470797Y-86026074D01*
X124473947Y-86047309D01*
X124475000Y-86068750D01*
X124475000Y-86506250D01*
X124473947Y-86527691D01*
X124470797Y-86548926D01*
X124465581Y-86569750D01*
X124458349Y-86589962D01*
X124449170Y-86609368D01*
X124438134Y-86627781D01*
X124425346Y-86645024D01*
X124410930Y-86660930D01*
X124395024Y-86675346D01*
X124377781Y-86688134D01*
X124359368Y-86699170D01*
X124339962Y-86708349D01*
X124319750Y-86715581D01*
X124298926Y-86720797D01*
X124277691Y-86723947D01*
X124256250Y-86725000D01*
X123743750Y-86725000D01*
X123722309Y-86723947D01*
X123701074Y-86720797D01*
X123680250Y-86715581D01*
X123660038Y-86708349D01*
X123640632Y-86699170D01*
X123622219Y-86688134D01*
X123604976Y-86675346D01*
X123589070Y-86660930D01*
X123574654Y-86645024D01*
X123561866Y-86627781D01*
X123550830Y-86609368D01*
X123541651Y-86589962D01*
X123534419Y-86569750D01*
X123529203Y-86548926D01*
X123526053Y-86527691D01*
X123525000Y-86506250D01*
X123525000Y-86068750D01*
X123526053Y-86047309D01*
X123529203Y-86026074D01*
X123534419Y-86005250D01*
X123541651Y-85985038D01*
X123550830Y-85965632D01*
X123561866Y-85947219D01*
X123574654Y-85929976D01*
X123589070Y-85914070D01*
X123604976Y-85899654D01*
X123622219Y-85886866D01*
X123640632Y-85875830D01*
X123660038Y-85866651D01*
X123680250Y-85859419D01*
X123701074Y-85854203D01*
X123722309Y-85851053D01*
X123743750Y-85850000D01*
X124256250Y-85850000D01*
X124277691Y-85851053D01*
X124277691Y-85851053D01*
G37*
D12*
G04 #@! TD*
G04 #@! TO.P,R9,1*
G04 #@! TO.N,Net-(D2-Pad1)*
X124000000Y-86287500D03*
D10*
G04 #@! TO.N,Net-(D3-Pad1)*
G04 #@! TO.C,R10*
G36*
X156277691Y-84851053D02*
X156298926Y-84854203D01*
X156319750Y-84859419D01*
X156339962Y-84866651D01*
X156359368Y-84875830D01*
X156377781Y-84886866D01*
X156395024Y-84899654D01*
X156410930Y-84914070D01*
X156425346Y-84929976D01*
X156438134Y-84947219D01*
X156449170Y-84965632D01*
X156458349Y-84985038D01*
X156465581Y-85005250D01*
X156470797Y-85026074D01*
X156473947Y-85047309D01*
X156475000Y-85068750D01*
X156475000Y-85506250D01*
X156473947Y-85527691D01*
X156470797Y-85548926D01*
X156465581Y-85569750D01*
X156458349Y-85589962D01*
X156449170Y-85609368D01*
X156438134Y-85627781D01*
X156425346Y-85645024D01*
X156410930Y-85660930D01*
X156395024Y-85675346D01*
X156377781Y-85688134D01*
X156359368Y-85699170D01*
X156339962Y-85708349D01*
X156319750Y-85715581D01*
X156298926Y-85720797D01*
X156277691Y-85723947D01*
X156256250Y-85725000D01*
X155743750Y-85725000D01*
X155722309Y-85723947D01*
X155701074Y-85720797D01*
X155680250Y-85715581D01*
X155660038Y-85708349D01*
X155640632Y-85699170D01*
X155622219Y-85688134D01*
X155604976Y-85675346D01*
X155589070Y-85660930D01*
X155574654Y-85645024D01*
X155561866Y-85627781D01*
X155550830Y-85609368D01*
X155541651Y-85589962D01*
X155534419Y-85569750D01*
X155529203Y-85548926D01*
X155526053Y-85527691D01*
X155525000Y-85506250D01*
X155525000Y-85068750D01*
X155526053Y-85047309D01*
X155529203Y-85026074D01*
X155534419Y-85005250D01*
X155541651Y-84985038D01*
X155550830Y-84965632D01*
X155561866Y-84947219D01*
X155574654Y-84929976D01*
X155589070Y-84914070D01*
X155604976Y-84899654D01*
X155622219Y-84886866D01*
X155640632Y-84875830D01*
X155660038Y-84866651D01*
X155680250Y-84859419D01*
X155701074Y-84854203D01*
X155722309Y-84851053D01*
X155743750Y-84850000D01*
X156256250Y-84850000D01*
X156277691Y-84851053D01*
X156277691Y-84851053D01*
G37*
D12*
G04 #@! TD*
G04 #@! TO.P,R10,1*
G04 #@! TO.N,Net-(D3-Pad1)*
X156000000Y-85287500D03*
D10*
G04 #@! TO.N,LED_GND*
G04 #@! TO.C,R10*
G36*
X156277691Y-83276053D02*
X156298926Y-83279203D01*
X156319750Y-83284419D01*
X156339962Y-83291651D01*
X156359368Y-83300830D01*
X156377781Y-83311866D01*
X156395024Y-83324654D01*
X156410930Y-83339070D01*
X156425346Y-83354976D01*
X156438134Y-83372219D01*
X156449170Y-83390632D01*
X156458349Y-83410038D01*
X156465581Y-83430250D01*
X156470797Y-83451074D01*
X156473947Y-83472309D01*
X156475000Y-83493750D01*
X156475000Y-83931250D01*
X156473947Y-83952691D01*
X156470797Y-83973926D01*
X156465581Y-83994750D01*
X156458349Y-84014962D01*
X156449170Y-84034368D01*
X156438134Y-84052781D01*
X156425346Y-84070024D01*
X156410930Y-84085930D01*
X156395024Y-84100346D01*
X156377781Y-84113134D01*
X156359368Y-84124170D01*
X156339962Y-84133349D01*
X156319750Y-84140581D01*
X156298926Y-84145797D01*
X156277691Y-84148947D01*
X156256250Y-84150000D01*
X155743750Y-84150000D01*
X155722309Y-84148947D01*
X155701074Y-84145797D01*
X155680250Y-84140581D01*
X155660038Y-84133349D01*
X155640632Y-84124170D01*
X155622219Y-84113134D01*
X155604976Y-84100346D01*
X155589070Y-84085930D01*
X155574654Y-84070024D01*
X155561866Y-84052781D01*
X155550830Y-84034368D01*
X155541651Y-84014962D01*
X155534419Y-83994750D01*
X155529203Y-83973926D01*
X155526053Y-83952691D01*
X155525000Y-83931250D01*
X155525000Y-83493750D01*
X155526053Y-83472309D01*
X155529203Y-83451074D01*
X155534419Y-83430250D01*
X155541651Y-83410038D01*
X155550830Y-83390632D01*
X155561866Y-83372219D01*
X155574654Y-83354976D01*
X155589070Y-83339070D01*
X155604976Y-83324654D01*
X155622219Y-83311866D01*
X155640632Y-83300830D01*
X155660038Y-83291651D01*
X155680250Y-83284419D01*
X155701074Y-83279203D01*
X155722309Y-83276053D01*
X155743750Y-83275000D01*
X156256250Y-83275000D01*
X156277691Y-83276053D01*
X156277691Y-83276053D01*
G37*
D12*
G04 #@! TD*
G04 #@! TO.P,R10,2*
G04 #@! TO.N,LED_GND*
X156000000Y-83712500D03*
D10*
G04 #@! TO.N,LED_GND*
G04 #@! TO.C,R11*
G36*
X157527691Y-94526053D02*
X157548926Y-94529203D01*
X157569750Y-94534419D01*
X157589962Y-94541651D01*
X157609368Y-94550830D01*
X157627781Y-94561866D01*
X157645024Y-94574654D01*
X157660930Y-94589070D01*
X157675346Y-94604976D01*
X157688134Y-94622219D01*
X157699170Y-94640632D01*
X157708349Y-94660038D01*
X157715581Y-94680250D01*
X157720797Y-94701074D01*
X157723947Y-94722309D01*
X157725000Y-94743750D01*
X157725000Y-95256250D01*
X157723947Y-95277691D01*
X157720797Y-95298926D01*
X157715581Y-95319750D01*
X157708349Y-95339962D01*
X157699170Y-95359368D01*
X157688134Y-95377781D01*
X157675346Y-95395024D01*
X157660930Y-95410930D01*
X157645024Y-95425346D01*
X157627781Y-95438134D01*
X157609368Y-95449170D01*
X157589962Y-95458349D01*
X157569750Y-95465581D01*
X157548926Y-95470797D01*
X157527691Y-95473947D01*
X157506250Y-95475000D01*
X157068750Y-95475000D01*
X157047309Y-95473947D01*
X157026074Y-95470797D01*
X157005250Y-95465581D01*
X156985038Y-95458349D01*
X156965632Y-95449170D01*
X156947219Y-95438134D01*
X156929976Y-95425346D01*
X156914070Y-95410930D01*
X156899654Y-95395024D01*
X156886866Y-95377781D01*
X156875830Y-95359368D01*
X156866651Y-95339962D01*
X156859419Y-95319750D01*
X156854203Y-95298926D01*
X156851053Y-95277691D01*
X156850000Y-95256250D01*
X156850000Y-94743750D01*
X156851053Y-94722309D01*
X156854203Y-94701074D01*
X156859419Y-94680250D01*
X156866651Y-94660038D01*
X156875830Y-94640632D01*
X156886866Y-94622219D01*
X156899654Y-94604976D01*
X156914070Y-94589070D01*
X156929976Y-94574654D01*
X156947219Y-94561866D01*
X156965632Y-94550830D01*
X156985038Y-94541651D01*
X157005250Y-94534419D01*
X157026074Y-94529203D01*
X157047309Y-94526053D01*
X157068750Y-94525000D01*
X157506250Y-94525000D01*
X157527691Y-94526053D01*
X157527691Y-94526053D01*
G37*
D12*
G04 #@! TD*
G04 #@! TO.P,R11,2*
G04 #@! TO.N,LED_GND*
X157287500Y-95000000D03*
D10*
G04 #@! TO.N,Net-(D4-Pad1)*
G04 #@! TO.C,R11*
G36*
X155952691Y-94526053D02*
X155973926Y-94529203D01*
X155994750Y-94534419D01*
X156014962Y-94541651D01*
X156034368Y-94550830D01*
X156052781Y-94561866D01*
X156070024Y-94574654D01*
X156085930Y-94589070D01*
X156100346Y-94604976D01*
X156113134Y-94622219D01*
X156124170Y-94640632D01*
X156133349Y-94660038D01*
X156140581Y-94680250D01*
X156145797Y-94701074D01*
X156148947Y-94722309D01*
X156150000Y-94743750D01*
X156150000Y-95256250D01*
X156148947Y-95277691D01*
X156145797Y-95298926D01*
X156140581Y-95319750D01*
X156133349Y-95339962D01*
X156124170Y-95359368D01*
X156113134Y-95377781D01*
X156100346Y-95395024D01*
X156085930Y-95410930D01*
X156070024Y-95425346D01*
X156052781Y-95438134D01*
X156034368Y-95449170D01*
X156014962Y-95458349D01*
X155994750Y-95465581D01*
X155973926Y-95470797D01*
X155952691Y-95473947D01*
X155931250Y-95475000D01*
X155493750Y-95475000D01*
X155472309Y-95473947D01*
X155451074Y-95470797D01*
X155430250Y-95465581D01*
X155410038Y-95458349D01*
X155390632Y-95449170D01*
X155372219Y-95438134D01*
X155354976Y-95425346D01*
X155339070Y-95410930D01*
X155324654Y-95395024D01*
X155311866Y-95377781D01*
X155300830Y-95359368D01*
X155291651Y-95339962D01*
X155284419Y-95319750D01*
X155279203Y-95298926D01*
X155276053Y-95277691D01*
X155275000Y-95256250D01*
X155275000Y-94743750D01*
X155276053Y-94722309D01*
X155279203Y-94701074D01*
X155284419Y-94680250D01*
X155291651Y-94660038D01*
X155300830Y-94640632D01*
X155311866Y-94622219D01*
X155324654Y-94604976D01*
X155339070Y-94589070D01*
X155354976Y-94574654D01*
X155372219Y-94561866D01*
X155390632Y-94550830D01*
X155410038Y-94541651D01*
X155430250Y-94534419D01*
X155451074Y-94529203D01*
X155472309Y-94526053D01*
X155493750Y-94525000D01*
X155931250Y-94525000D01*
X155952691Y-94526053D01*
X155952691Y-94526053D01*
G37*
D12*
G04 #@! TD*
G04 #@! TO.P,R11,1*
G04 #@! TO.N,Net-(D4-Pad1)*
X155712500Y-95000000D03*
D10*
G04 #@! TO.N,Net-(D5-Pad1)*
G04 #@! TO.C,R12*
G36*
X124277691Y-97240877D02*
X124298926Y-97244027D01*
X124319750Y-97249243D01*
X124339962Y-97256475D01*
X124359368Y-97265654D01*
X124377781Y-97276690D01*
X124395024Y-97289478D01*
X124410930Y-97303894D01*
X124425346Y-97319800D01*
X124438134Y-97337043D01*
X124449170Y-97355456D01*
X124458349Y-97374862D01*
X124465581Y-97395074D01*
X124470797Y-97415898D01*
X124473947Y-97437133D01*
X124475000Y-97458574D01*
X124475000Y-97896074D01*
X124473947Y-97917515D01*
X124470797Y-97938750D01*
X124465581Y-97959574D01*
X124458349Y-97979786D01*
X124449170Y-97999192D01*
X124438134Y-98017605D01*
X124425346Y-98034848D01*
X124410930Y-98050754D01*
X124395024Y-98065170D01*
X124377781Y-98077958D01*
X124359368Y-98088994D01*
X124339962Y-98098173D01*
X124319750Y-98105405D01*
X124298926Y-98110621D01*
X124277691Y-98113771D01*
X124256250Y-98114824D01*
X123743750Y-98114824D01*
X123722309Y-98113771D01*
X123701074Y-98110621D01*
X123680250Y-98105405D01*
X123660038Y-98098173D01*
X123640632Y-98088994D01*
X123622219Y-98077958D01*
X123604976Y-98065170D01*
X123589070Y-98050754D01*
X123574654Y-98034848D01*
X123561866Y-98017605D01*
X123550830Y-97999192D01*
X123541651Y-97979786D01*
X123534419Y-97959574D01*
X123529203Y-97938750D01*
X123526053Y-97917515D01*
X123525000Y-97896074D01*
X123525000Y-97458574D01*
X123526053Y-97437133D01*
X123529203Y-97415898D01*
X123534419Y-97395074D01*
X123541651Y-97374862D01*
X123550830Y-97355456D01*
X123561866Y-97337043D01*
X123574654Y-97319800D01*
X123589070Y-97303894D01*
X123604976Y-97289478D01*
X123622219Y-97276690D01*
X123640632Y-97265654D01*
X123660038Y-97256475D01*
X123680250Y-97249243D01*
X123701074Y-97244027D01*
X123722309Y-97240877D01*
X123743750Y-97239824D01*
X124256250Y-97239824D01*
X124277691Y-97240877D01*
X124277691Y-97240877D01*
G37*
D12*
G04 #@! TD*
G04 #@! TO.P,R12,1*
G04 #@! TO.N,Net-(D5-Pad1)*
X124000000Y-97677324D03*
D10*
G04 #@! TO.N,LED_GND*
G04 #@! TO.C,R12*
G36*
X124277691Y-98815877D02*
X124298926Y-98819027D01*
X124319750Y-98824243D01*
X124339962Y-98831475D01*
X124359368Y-98840654D01*
X124377781Y-98851690D01*
X124395024Y-98864478D01*
X124410930Y-98878894D01*
X124425346Y-98894800D01*
X124438134Y-98912043D01*
X124449170Y-98930456D01*
X124458349Y-98949862D01*
X124465581Y-98970074D01*
X124470797Y-98990898D01*
X124473947Y-99012133D01*
X124475000Y-99033574D01*
X124475000Y-99471074D01*
X124473947Y-99492515D01*
X124470797Y-99513750D01*
X124465581Y-99534574D01*
X124458349Y-99554786D01*
X124449170Y-99574192D01*
X124438134Y-99592605D01*
X124425346Y-99609848D01*
X124410930Y-99625754D01*
X124395024Y-99640170D01*
X124377781Y-99652958D01*
X124359368Y-99663994D01*
X124339962Y-99673173D01*
X124319750Y-99680405D01*
X124298926Y-99685621D01*
X124277691Y-99688771D01*
X124256250Y-99689824D01*
X123743750Y-99689824D01*
X123722309Y-99688771D01*
X123701074Y-99685621D01*
X123680250Y-99680405D01*
X123660038Y-99673173D01*
X123640632Y-99663994D01*
X123622219Y-99652958D01*
X123604976Y-99640170D01*
X123589070Y-99625754D01*
X123574654Y-99609848D01*
X123561866Y-99592605D01*
X123550830Y-99574192D01*
X123541651Y-99554786D01*
X123534419Y-99534574D01*
X123529203Y-99513750D01*
X123526053Y-99492515D01*
X123525000Y-99471074D01*
X123525000Y-99033574D01*
X123526053Y-99012133D01*
X123529203Y-98990898D01*
X123534419Y-98970074D01*
X123541651Y-98949862D01*
X123550830Y-98930456D01*
X123561866Y-98912043D01*
X123574654Y-98894800D01*
X123589070Y-98878894D01*
X123604976Y-98864478D01*
X123622219Y-98851690D01*
X123640632Y-98840654D01*
X123660038Y-98831475D01*
X123680250Y-98824243D01*
X123701074Y-98819027D01*
X123722309Y-98815877D01*
X123743750Y-98814824D01*
X124256250Y-98814824D01*
X124277691Y-98815877D01*
X124277691Y-98815877D01*
G37*
D12*
G04 #@! TD*
G04 #@! TO.P,R12,2*
G04 #@! TO.N,LED_GND*
X124000000Y-99252324D03*
D10*
G04 #@! TO.N,Net-(D6-Pad1)*
G04 #@! TO.C,R13*
G36*
X124277691Y-100776053D02*
X124298926Y-100779203D01*
X124319750Y-100784419D01*
X124339962Y-100791651D01*
X124359368Y-100800830D01*
X124377781Y-100811866D01*
X124395024Y-100824654D01*
X124410930Y-100839070D01*
X124425346Y-100854976D01*
X124438134Y-100872219D01*
X124449170Y-100890632D01*
X124458349Y-100910038D01*
X124465581Y-100930250D01*
X124470797Y-100951074D01*
X124473947Y-100972309D01*
X124475000Y-100993750D01*
X124475000Y-101431250D01*
X124473947Y-101452691D01*
X124470797Y-101473926D01*
X124465581Y-101494750D01*
X124458349Y-101514962D01*
X124449170Y-101534368D01*
X124438134Y-101552781D01*
X124425346Y-101570024D01*
X124410930Y-101585930D01*
X124395024Y-101600346D01*
X124377781Y-101613134D01*
X124359368Y-101624170D01*
X124339962Y-101633349D01*
X124319750Y-101640581D01*
X124298926Y-101645797D01*
X124277691Y-101648947D01*
X124256250Y-101650000D01*
X123743750Y-101650000D01*
X123722309Y-101648947D01*
X123701074Y-101645797D01*
X123680250Y-101640581D01*
X123660038Y-101633349D01*
X123640632Y-101624170D01*
X123622219Y-101613134D01*
X123604976Y-101600346D01*
X123589070Y-101585930D01*
X123574654Y-101570024D01*
X123561866Y-101552781D01*
X123550830Y-101534368D01*
X123541651Y-101514962D01*
X123534419Y-101494750D01*
X123529203Y-101473926D01*
X123526053Y-101452691D01*
X123525000Y-101431250D01*
X123525000Y-100993750D01*
X123526053Y-100972309D01*
X123529203Y-100951074D01*
X123534419Y-100930250D01*
X123541651Y-100910038D01*
X123550830Y-100890632D01*
X123561866Y-100872219D01*
X123574654Y-100854976D01*
X123589070Y-100839070D01*
X123604976Y-100824654D01*
X123622219Y-100811866D01*
X123640632Y-100800830D01*
X123660038Y-100791651D01*
X123680250Y-100784419D01*
X123701074Y-100779203D01*
X123722309Y-100776053D01*
X123743750Y-100775000D01*
X124256250Y-100775000D01*
X124277691Y-100776053D01*
X124277691Y-100776053D01*
G37*
D12*
G04 #@! TD*
G04 #@! TO.P,R13,1*
G04 #@! TO.N,Net-(D6-Pad1)*
X124000000Y-101212500D03*
D10*
G04 #@! TO.N,LED_GND*
G04 #@! TO.C,R13*
G36*
X124277691Y-102351053D02*
X124298926Y-102354203D01*
X124319750Y-102359419D01*
X124339962Y-102366651D01*
X124359368Y-102375830D01*
X124377781Y-102386866D01*
X124395024Y-102399654D01*
X124410930Y-102414070D01*
X124425346Y-102429976D01*
X124438134Y-102447219D01*
X124449170Y-102465632D01*
X124458349Y-102485038D01*
X124465581Y-102505250D01*
X124470797Y-102526074D01*
X124473947Y-102547309D01*
X124475000Y-102568750D01*
X124475000Y-103006250D01*
X124473947Y-103027691D01*
X124470797Y-103048926D01*
X124465581Y-103069750D01*
X124458349Y-103089962D01*
X124449170Y-103109368D01*
X124438134Y-103127781D01*
X124425346Y-103145024D01*
X124410930Y-103160930D01*
X124395024Y-103175346D01*
X124377781Y-103188134D01*
X124359368Y-103199170D01*
X124339962Y-103208349D01*
X124319750Y-103215581D01*
X124298926Y-103220797D01*
X124277691Y-103223947D01*
X124256250Y-103225000D01*
X123743750Y-103225000D01*
X123722309Y-103223947D01*
X123701074Y-103220797D01*
X123680250Y-103215581D01*
X123660038Y-103208349D01*
X123640632Y-103199170D01*
X123622219Y-103188134D01*
X123604976Y-103175346D01*
X123589070Y-103160930D01*
X123574654Y-103145024D01*
X123561866Y-103127781D01*
X123550830Y-103109368D01*
X123541651Y-103089962D01*
X123534419Y-103069750D01*
X123529203Y-103048926D01*
X123526053Y-103027691D01*
X123525000Y-103006250D01*
X123525000Y-102568750D01*
X123526053Y-102547309D01*
X123529203Y-102526074D01*
X123534419Y-102505250D01*
X123541651Y-102485038D01*
X123550830Y-102465632D01*
X123561866Y-102447219D01*
X123574654Y-102429976D01*
X123589070Y-102414070D01*
X123604976Y-102399654D01*
X123622219Y-102386866D01*
X123640632Y-102375830D01*
X123660038Y-102366651D01*
X123680250Y-102359419D01*
X123701074Y-102354203D01*
X123722309Y-102351053D01*
X123743750Y-102350000D01*
X124256250Y-102350000D01*
X124277691Y-102351053D01*
X124277691Y-102351053D01*
G37*
D12*
G04 #@! TD*
G04 #@! TO.P,R13,2*
G04 #@! TO.N,LED_GND*
X124000000Y-102787500D03*
D10*
G04 #@! TO.N,LED_GND*
G04 #@! TO.C,R14*
G36*
X124277691Y-95351053D02*
X124298926Y-95354203D01*
X124319750Y-95359419D01*
X124339962Y-95366651D01*
X124359368Y-95375830D01*
X124377781Y-95386866D01*
X124395024Y-95399654D01*
X124410930Y-95414070D01*
X124425346Y-95429976D01*
X124438134Y-95447219D01*
X124449170Y-95465632D01*
X124458349Y-95485038D01*
X124465581Y-95505250D01*
X124470797Y-95526074D01*
X124473947Y-95547309D01*
X124475000Y-95568750D01*
X124475000Y-96006250D01*
X124473947Y-96027691D01*
X124470797Y-96048926D01*
X124465581Y-96069750D01*
X124458349Y-96089962D01*
X124449170Y-96109368D01*
X124438134Y-96127781D01*
X124425346Y-96145024D01*
X124410930Y-96160930D01*
X124395024Y-96175346D01*
X124377781Y-96188134D01*
X124359368Y-96199170D01*
X124339962Y-96208349D01*
X124319750Y-96215581D01*
X124298926Y-96220797D01*
X124277691Y-96223947D01*
X124256250Y-96225000D01*
X123743750Y-96225000D01*
X123722309Y-96223947D01*
X123701074Y-96220797D01*
X123680250Y-96215581D01*
X123660038Y-96208349D01*
X123640632Y-96199170D01*
X123622219Y-96188134D01*
X123604976Y-96175346D01*
X123589070Y-96160930D01*
X123574654Y-96145024D01*
X123561866Y-96127781D01*
X123550830Y-96109368D01*
X123541651Y-96089962D01*
X123534419Y-96069750D01*
X123529203Y-96048926D01*
X123526053Y-96027691D01*
X123525000Y-96006250D01*
X123525000Y-95568750D01*
X123526053Y-95547309D01*
X123529203Y-95526074D01*
X123534419Y-95505250D01*
X123541651Y-95485038D01*
X123550830Y-95465632D01*
X123561866Y-95447219D01*
X123574654Y-95429976D01*
X123589070Y-95414070D01*
X123604976Y-95399654D01*
X123622219Y-95386866D01*
X123640632Y-95375830D01*
X123660038Y-95366651D01*
X123680250Y-95359419D01*
X123701074Y-95354203D01*
X123722309Y-95351053D01*
X123743750Y-95350000D01*
X124256250Y-95350000D01*
X124277691Y-95351053D01*
X124277691Y-95351053D01*
G37*
D12*
G04 #@! TD*
G04 #@! TO.P,R14,2*
G04 #@! TO.N,LED_GND*
X124000000Y-95787500D03*
D10*
G04 #@! TO.N,Net-(D7-Pad1)*
G04 #@! TO.C,R14*
G36*
X124277691Y-93776053D02*
X124298926Y-93779203D01*
X124319750Y-93784419D01*
X124339962Y-93791651D01*
X124359368Y-93800830D01*
X124377781Y-93811866D01*
X124395024Y-93824654D01*
X124410930Y-93839070D01*
X124425346Y-93854976D01*
X124438134Y-93872219D01*
X124449170Y-93890632D01*
X124458349Y-93910038D01*
X124465581Y-93930250D01*
X124470797Y-93951074D01*
X124473947Y-93972309D01*
X124475000Y-93993750D01*
X124475000Y-94431250D01*
X124473947Y-94452691D01*
X124470797Y-94473926D01*
X124465581Y-94494750D01*
X124458349Y-94514962D01*
X124449170Y-94534368D01*
X124438134Y-94552781D01*
X124425346Y-94570024D01*
X124410930Y-94585930D01*
X124395024Y-94600346D01*
X124377781Y-94613134D01*
X124359368Y-94624170D01*
X124339962Y-94633349D01*
X124319750Y-94640581D01*
X124298926Y-94645797D01*
X124277691Y-94648947D01*
X124256250Y-94650000D01*
X123743750Y-94650000D01*
X123722309Y-94648947D01*
X123701074Y-94645797D01*
X123680250Y-94640581D01*
X123660038Y-94633349D01*
X123640632Y-94624170D01*
X123622219Y-94613134D01*
X123604976Y-94600346D01*
X123589070Y-94585930D01*
X123574654Y-94570024D01*
X123561866Y-94552781D01*
X123550830Y-94534368D01*
X123541651Y-94514962D01*
X123534419Y-94494750D01*
X123529203Y-94473926D01*
X123526053Y-94452691D01*
X123525000Y-94431250D01*
X123525000Y-93993750D01*
X123526053Y-93972309D01*
X123529203Y-93951074D01*
X123534419Y-93930250D01*
X123541651Y-93910038D01*
X123550830Y-93890632D01*
X123561866Y-93872219D01*
X123574654Y-93854976D01*
X123589070Y-93839070D01*
X123604976Y-93824654D01*
X123622219Y-93811866D01*
X123640632Y-93800830D01*
X123660038Y-93791651D01*
X123680250Y-93784419D01*
X123701074Y-93779203D01*
X123722309Y-93776053D01*
X123743750Y-93775000D01*
X124256250Y-93775000D01*
X124277691Y-93776053D01*
X124277691Y-93776053D01*
G37*
D12*
G04 #@! TD*
G04 #@! TO.P,R14,1*
G04 #@! TO.N,Net-(D7-Pad1)*
X124000000Y-94212500D03*
D19*
G04 #@! TO.P,U1,2*
G04 #@! TO.N,+3V3*
X145150000Y-102000000D03*
D20*
X138850000Y-102000000D03*
G04 #@! TO.P,U1,3*
G04 #@! TO.N,BATTERY*
X138850000Y-104300000D03*
G04 #@! TO.P,U1,1*
G04 #@! TO.N,GND*
X138850000Y-99700000D03*
G04 #@! TD*
D21*
G04 #@! TO.P,U2,1*
G04 #@! TO.N,Net-(U2-Pad1)*
X135100000Y-109950000D03*
G04 #@! TO.P,U2,2*
G04 #@! TO.N,GND*
X135100000Y-109000000D03*
G04 #@! TO.P,U2,3*
G04 #@! TO.N,BATTERY*
X135100000Y-108050000D03*
G04 #@! TO.P,U2,4*
G04 #@! TO.N,SOLAR*
X132900000Y-108050000D03*
G04 #@! TO.P,U2,5*
G04 #@! TO.N,Net-(R3-Pad1)*
X132900000Y-109950000D03*
G04 #@! TD*
D22*
G04 #@! TO.P,U3,1*
G04 #@! TO.N,XBEE_PWR*
X131000000Y-77000000D03*
G04 #@! TO.P,U3,2*
G04 #@! TO.N,XB_RX*
X131000000Y-79000000D03*
G04 #@! TO.P,U3,3*
G04 #@! TO.N,XB_TX*
X131000000Y-81000000D03*
G04 #@! TO.P,U3,4*
G04 #@! TO.N,Net-(U3-Pad4)*
X131000000Y-83000000D03*
G04 #@! TO.P,U3,5*
G04 #@! TO.N,XB_RESET*
X131000000Y-85000000D03*
G04 #@! TO.P,U3,6*
G04 #@! TO.N,Net-(U3-Pad6)*
X131000000Y-87000000D03*
G04 #@! TO.P,U3,7*
G04 #@! TO.N,Net-(U3-Pad7)*
X131000000Y-89000000D03*
G04 #@! TO.P,U3,8*
G04 #@! TO.N,Net-(U3-Pad8)*
X131000000Y-91000000D03*
G04 #@! TO.P,U3,9*
G04 #@! TO.N,XB_SLEEP_REQ*
X131000000Y-93000000D03*
G04 #@! TO.P,U3,10*
G04 #@! TO.N,GND*
X131000000Y-95000000D03*
G04 #@! TO.P,U3,11*
G04 #@! TO.N,Net-(U3-Pad11)*
X153000000Y-95000000D03*
G04 #@! TO.P,U3,12*
G04 #@! TO.N,Net-(U3-Pad12)*
X153000000Y-93000000D03*
G04 #@! TO.P,U3,13*
G04 #@! TO.N,XB_ON*
X153000000Y-91000000D03*
G04 #@! TO.P,U3,14*
G04 #@! TO.N,Net-(U3-Pad14)*
X153000000Y-89000000D03*
G04 #@! TO.P,U3,15*
G04 #@! TO.N,Net-(U3-Pad15)*
X153000000Y-87000000D03*
G04 #@! TO.P,U3,16*
G04 #@! TO.N,Net-(U3-Pad16)*
X153000000Y-85000000D03*
G04 #@! TO.P,U3,17*
G04 #@! TO.N,Net-(U3-Pad17)*
X153000000Y-83000000D03*
G04 #@! TO.P,U3,18*
G04 #@! TO.N,Net-(U3-Pad18)*
X153000000Y-81000000D03*
G04 #@! TO.P,U3,19*
G04 #@! TO.N,Net-(U3-Pad19)*
X153000000Y-79000000D03*
G04 #@! TO.P,U3,20*
G04 #@! TO.N,Net-(U3-Pad20)*
X153000000Y-77000000D03*
G04 #@! TD*
D23*
G04 #@! TO.P,U4,1*
G04 #@! TO.N,+3V3*
X137750000Y-84200000D03*
G04 #@! TO.P,U4,2*
G04 #@! TO.N,Net-(C10-Pad2)*
X137750000Y-85000000D03*
G04 #@! TO.P,U4,3*
G04 #@! TO.N,Net-(C11-Pad1)*
X137750000Y-85800000D03*
G04 #@! TO.P,U4,4*
G04 #@! TO.N,NRST*
X137750000Y-86600000D03*
G04 #@! TO.P,U4,5*
G04 #@! TO.N,+3V3*
X137750000Y-87400000D03*
G04 #@! TO.P,U4,6*
G04 #@! TO.N,SOLAR_SENSE*
X137750000Y-88200000D03*
G04 #@! TO.P,U4,7*
G04 #@! TO.N,BATTERY_SENSE*
X137750000Y-89000000D03*
G04 #@! TO.P,U4,8*
G04 #@! TO.N,XB_TX*
X137750000Y-89800000D03*
D24*
G04 #@! TO.P,U4,9*
G04 #@! TO.N,XB_RX*
X139200000Y-91250000D03*
G04 #@! TO.P,U4,10*
G04 #@! TO.N,XB_RESET*
X140000000Y-91250000D03*
G04 #@! TO.P,U4,11*
G04 #@! TO.N,XB_SLEEP_REQ*
X140800000Y-91250000D03*
G04 #@! TO.P,U4,12*
G04 #@! TO.N,XB_ON*
X141600000Y-91250000D03*
G04 #@! TO.P,U4,13*
G04 #@! TO.N,EN_XBEE*
X142400000Y-91250000D03*
G04 #@! TO.P,U4,14*
G04 #@! TO.N,Net-(U4-Pad14)*
X143200000Y-91250000D03*
G04 #@! TO.P,U4,15*
G04 #@! TO.N,Net-(U4-Pad15)*
X144000000Y-91250000D03*
G04 #@! TO.P,U4,16*
G04 #@! TO.N,GND*
X144800000Y-91250000D03*
D23*
G04 #@! TO.P,U4,17*
G04 #@! TO.N,+3V3*
X146250000Y-89800000D03*
G04 #@! TO.P,U4,18*
G04 #@! TO.N,PIR*
X146250000Y-89000000D03*
G04 #@! TO.P,U4,19*
G04 #@! TO.N,I2C_SCL*
X146250000Y-88200000D03*
G04 #@! TO.P,U4,20*
G04 #@! TO.N,I2C_SDA*
X146250000Y-87400000D03*
G04 #@! TO.P,U4,21*
G04 #@! TO.N,EN_PIR*
X146250000Y-86600000D03*
G04 #@! TO.P,U4,22*
G04 #@! TO.N,HALL*
X146250000Y-85800000D03*
G04 #@! TO.P,U4,23*
G04 #@! TO.N,SWDIO*
X146250000Y-85000000D03*
G04 #@! TO.P,U4,24*
G04 #@! TO.N,SWCLK*
X146250000Y-84200000D03*
D24*
G04 #@! TO.P,U4,25*
G04 #@! TO.N,~LED_EN*
X144800000Y-82750000D03*
G04 #@! TO.P,U4,26*
G04 #@! TO.N,Net-(U4-Pad26)*
X144000000Y-82750000D03*
G04 #@! TO.P,U4,27*
G04 #@! TO.N,Net-(U4-Pad27)*
X143200000Y-82750000D03*
G04 #@! TO.P,U4,28*
G04 #@! TO.N,Net-(U4-Pad28)*
X142400000Y-82750000D03*
G04 #@! TO.P,U4,29*
G04 #@! TO.N,Net-(U4-Pad29)*
X141600000Y-82750000D03*
G04 #@! TO.P,U4,30*
G04 #@! TO.N,Net-(U4-Pad30)*
X140800000Y-82750000D03*
G04 #@! TO.P,U4,31*
G04 #@! TO.N,BOOT0*
X140000000Y-82750000D03*
G04 #@! TO.P,U4,32*
G04 #@! TO.N,GND*
X139200000Y-82750000D03*
G04 #@! TD*
D25*
G04 #@! TO.P,U5,1*
G04 #@! TO.N,+3V3*
X160000000Y-86270000D03*
D26*
G04 #@! TO.P,U5,2*
G04 #@! TO.N,GND*
X160000000Y-85000000D03*
G04 #@! TO.P,U5,3*
G04 #@! TO.N,HALL*
X160000000Y-83730000D03*
G04 #@! TD*
D27*
G04 #@! TO.P,Y1,1*
G04 #@! TO.N,Net-(C11-Pad1)*
X135500000Y-85250000D03*
G04 #@! TO.P,Y1,2*
G04 #@! TO.N,Net-(C10-Pad2)*
X135500000Y-82750000D03*
G04 #@! TD*
D10*
G04 #@! TO.N,GND*
G04 #@! TO.C,C12*
G36*
X149980142Y-78951174D02*
X150003803Y-78954684D01*
X150027007Y-78960496D01*
X150049529Y-78968554D01*
X150071153Y-78978782D01*
X150091670Y-78991079D01*
X150110883Y-79005329D01*
X150128607Y-79021393D01*
X150144671Y-79039117D01*
X150158921Y-79058330D01*
X150171218Y-79078847D01*
X150181446Y-79100471D01*
X150189504Y-79122993D01*
X150195316Y-79146197D01*
X150198826Y-79169858D01*
X150200000Y-79193750D01*
X150200000Y-79681250D01*
X150198826Y-79705142D01*
X150195316Y-79728803D01*
X150189504Y-79752007D01*
X150181446Y-79774529D01*
X150171218Y-79796153D01*
X150158921Y-79816670D01*
X150144671Y-79835883D01*
X150128607Y-79853607D01*
X150110883Y-79869671D01*
X150091670Y-79883921D01*
X150071153Y-79896218D01*
X150049529Y-79906446D01*
X150027007Y-79914504D01*
X150003803Y-79920316D01*
X149980142Y-79923826D01*
X149956250Y-79925000D01*
X149043750Y-79925000D01*
X149019858Y-79923826D01*
X148996197Y-79920316D01*
X148972993Y-79914504D01*
X148950471Y-79906446D01*
X148928847Y-79896218D01*
X148908330Y-79883921D01*
X148889117Y-79869671D01*
X148871393Y-79853607D01*
X148855329Y-79835883D01*
X148841079Y-79816670D01*
X148828782Y-79796153D01*
X148818554Y-79774529D01*
X148810496Y-79752007D01*
X148804684Y-79728803D01*
X148801174Y-79705142D01*
X148800000Y-79681250D01*
X148800000Y-79193750D01*
X148801174Y-79169858D01*
X148804684Y-79146197D01*
X148810496Y-79122993D01*
X148818554Y-79100471D01*
X148828782Y-79078847D01*
X148841079Y-79058330D01*
X148855329Y-79039117D01*
X148871393Y-79021393D01*
X148889117Y-79005329D01*
X148908330Y-78991079D01*
X148928847Y-78978782D01*
X148950471Y-78968554D01*
X148972993Y-78960496D01*
X148996197Y-78954684D01*
X149019858Y-78951174D01*
X149043750Y-78950000D01*
X149956250Y-78950000D01*
X149980142Y-78951174D01*
X149980142Y-78951174D01*
G37*
D11*
G04 #@! TD*
G04 #@! TO.P,C12,1*
G04 #@! TO.N,GND*
X149500000Y-79437500D03*
D10*
G04 #@! TO.N,+3V3*
G04 #@! TO.C,C12*
G36*
X149980142Y-77076174D02*
X150003803Y-77079684D01*
X150027007Y-77085496D01*
X150049529Y-77093554D01*
X150071153Y-77103782D01*
X150091670Y-77116079D01*
X150110883Y-77130329D01*
X150128607Y-77146393D01*
X150144671Y-77164117D01*
X150158921Y-77183330D01*
X150171218Y-77203847D01*
X150181446Y-77225471D01*
X150189504Y-77247993D01*
X150195316Y-77271197D01*
X150198826Y-77294858D01*
X150200000Y-77318750D01*
X150200000Y-77806250D01*
X150198826Y-77830142D01*
X150195316Y-77853803D01*
X150189504Y-77877007D01*
X150181446Y-77899529D01*
X150171218Y-77921153D01*
X150158921Y-77941670D01*
X150144671Y-77960883D01*
X150128607Y-77978607D01*
X150110883Y-77994671D01*
X150091670Y-78008921D01*
X150071153Y-78021218D01*
X150049529Y-78031446D01*
X150027007Y-78039504D01*
X150003803Y-78045316D01*
X149980142Y-78048826D01*
X149956250Y-78050000D01*
X149043750Y-78050000D01*
X149019858Y-78048826D01*
X148996197Y-78045316D01*
X148972993Y-78039504D01*
X148950471Y-78031446D01*
X148928847Y-78021218D01*
X148908330Y-78008921D01*
X148889117Y-77994671D01*
X148871393Y-77978607D01*
X148855329Y-77960883D01*
X148841079Y-77941670D01*
X148828782Y-77921153D01*
X148818554Y-77899529D01*
X148810496Y-77877007D01*
X148804684Y-77853803D01*
X148801174Y-77830142D01*
X148800000Y-77806250D01*
X148800000Y-77318750D01*
X148801174Y-77294858D01*
X148804684Y-77271197D01*
X148810496Y-77247993D01*
X148818554Y-77225471D01*
X148828782Y-77203847D01*
X148841079Y-77183330D01*
X148855329Y-77164117D01*
X148871393Y-77146393D01*
X148889117Y-77130329D01*
X148908330Y-77116079D01*
X148928847Y-77103782D01*
X148950471Y-77093554D01*
X148972993Y-77085496D01*
X148996197Y-77079684D01*
X149019858Y-77076174D01*
X149043750Y-77075000D01*
X149956250Y-77075000D01*
X149980142Y-77076174D01*
X149980142Y-77076174D01*
G37*
D11*
G04 #@! TD*
G04 #@! TO.P,C12,2*
G04 #@! TO.N,+3V3*
X149500000Y-77562500D03*
D14*
G04 #@! TO.P,JP1,1*
G04 #@! TO.N,LED_GND*
X124500000Y-90500000D03*
D15*
G04 #@! TO.P,JP1,2*
G04 #@! TO.N,GND*
X127040000Y-90500000D03*
G04 #@! TD*
D28*
G04 #@! TO.N,SOLAR*
X132500000Y-104500000D03*
X127000000Y-99477334D03*
G04 #@! TO.N,GND*
X144349989Y-89468638D03*
X140000000Y-85306327D03*
X139000000Y-97500000D03*
X149500000Y-82000000D03*
G04 #@! TO.N,BATTERY*
X138000000Y-107000000D03*
X127000000Y-102787500D03*
G04 #@! TO.N,+3V3*
X138898289Y-84456317D03*
X154000000Y-99000000D03*
X148000000Y-81500000D03*
X144106396Y-86191507D03*
G04 #@! TO.N,NRST*
X134949966Y-90499683D03*
G04 #@! TO.N,PIR*
X154000000Y-98000000D03*
X157250000Y-98149990D03*
G04 #@! TO.N,SWDIO*
X151000000Y-97500000D03*
X150000000Y-88500000D03*
X148500000Y-85000000D03*
G04 #@! TO.N,SWCLK*
X151000000Y-87500000D03*
X152011778Y-97486458D03*
X149101048Y-84101048D03*
G04 #@! TO.N,I2C_SDA*
X150000000Y-100500000D03*
X154000000Y-100500000D03*
X149987340Y-97512660D03*
G04 #@! TO.N,I2C_SCL*
X149000000Y-103000000D03*
X154000000Y-103000000D03*
X148987411Y-97499839D03*
G04 #@! TO.N,~LED_EN*
X141500000Y-87500000D03*
X141500000Y-96500000D03*
G04 #@! TO.N,LED_GND*
X123500000Y-98752324D03*
X124500000Y-104500000D03*
X147000000Y-112000000D03*
X132689808Y-99000005D03*
X158000000Y-92000000D03*
X155000000Y-84500000D03*
G04 #@! TO.N,XB_RX*
X132500000Y-82000000D03*
X138150155Y-91124835D03*
G04 #@! TO.N,XB_TX*
X139500000Y-89500000D03*
G04 #@! TO.N,XB_RESET*
X138982102Y-92774990D03*
G04 #@! TO.N,XB_SLEEP_REQ*
X134500000Y-96000000D03*
G04 #@! TO.N,XB_ON*
X142500000Y-92500000D03*
G04 #@! TD*
D29*
G04 #@! TO.N,SOLAR*
X132900000Y-108050000D02*
X132900000Y-108389965D01*
X133880001Y-109369966D02*
X133880001Y-111119999D01*
X132900000Y-108389965D02*
X133880001Y-109369966D01*
X133880001Y-111119999D02*
X132000000Y-113000000D01*
X132900000Y-106037500D02*
X132937500Y-106000000D01*
X132900000Y-108050000D02*
X132900000Y-106037500D01*
X126000000Y-99287500D02*
X128000000Y-99287500D01*
X132937500Y-104937500D02*
X132500000Y-104500000D01*
X132937500Y-106000000D02*
X132937500Y-104937500D01*
G04 #@! TO.N,GND*
X134540000Y-112397500D02*
X137000000Y-109937500D01*
X134540000Y-113000000D02*
X134540000Y-112397500D01*
X136062500Y-109000000D02*
X135100000Y-109000000D01*
X137000000Y-109937500D02*
X136062500Y-109000000D01*
X143000000Y-108275000D02*
X143000000Y-108000000D01*
X141337500Y-109937500D02*
X143000000Y-108275000D01*
X137000000Y-109937500D02*
X141337500Y-109937500D01*
X135100000Y-109000000D02*
X134500000Y-109000000D01*
X134750888Y-106461612D02*
X135212500Y-106000000D01*
X134119999Y-107092501D02*
X134750888Y-106461612D01*
X134119999Y-108619999D02*
X134119999Y-107092501D01*
X134500000Y-109000000D02*
X134119999Y-108619999D01*
X131000000Y-106062500D02*
X131062500Y-106000000D01*
X131000000Y-108212500D02*
X131000000Y-106062500D01*
X131062500Y-103850000D02*
X130000000Y-102787500D01*
X131062500Y-106000000D02*
X131062500Y-103850000D01*
X132000000Y-100787500D02*
X132000000Y-99950000D01*
X130000000Y-102787500D02*
X132000000Y-100787500D01*
X131337500Y-99287500D02*
X132000000Y-99950000D01*
X130000000Y-99287500D02*
X131337500Y-99287500D01*
X135887500Y-99950000D02*
X136000000Y-100062500D01*
X132000000Y-99950000D02*
X135887500Y-99950000D01*
X138487500Y-100062500D02*
X138850000Y-99700000D01*
X136000000Y-100062500D02*
X138487500Y-100062500D01*
X143000000Y-108000000D02*
X143000000Y-109375000D01*
X146705000Y-113080000D02*
X149000000Y-113080000D01*
X143000000Y-109375000D02*
X146705000Y-113080000D01*
X142012500Y-99700000D02*
X145712500Y-96000000D01*
X138850000Y-99700000D02*
X142012500Y-99700000D01*
X145712500Y-94150000D02*
X145562500Y-94000000D01*
X145712500Y-96000000D02*
X145712500Y-94150000D01*
X145562500Y-92012500D02*
X144800000Y-91250000D01*
X145562500Y-94000000D02*
X145562500Y-92012500D01*
X131062500Y-106000000D02*
X131062500Y-103937500D01*
X131062500Y-103937500D02*
X132000000Y-103000000D01*
X132212500Y-103000000D02*
X135212500Y-106000000D01*
X132000000Y-103000000D02*
X132212500Y-103000000D01*
X135787500Y-79850000D02*
X135937500Y-80000000D01*
X135787500Y-78000000D02*
X135787500Y-79850000D01*
X138212500Y-80000000D02*
X138712500Y-80500000D01*
X135937500Y-80000000D02*
X138212500Y-80000000D01*
X138712500Y-82262500D02*
X139200000Y-82750000D01*
X138712500Y-80500000D02*
X138712500Y-82262500D01*
X132750888Y-87961612D02*
X133212500Y-87500000D01*
X132212001Y-88500499D02*
X132750888Y-87961612D01*
X132212001Y-93787999D02*
X132212001Y-88500499D01*
X131000000Y-95000000D02*
X132212001Y-93787999D01*
X133212500Y-85772500D02*
X133500000Y-85485000D01*
X133212500Y-87500000D02*
X133212500Y-85772500D01*
X132729990Y-83835010D02*
X133080000Y-83485000D01*
X133080000Y-83485000D02*
X133500000Y-83485000D01*
X132729990Y-85134990D02*
X132729990Y-83835010D01*
X133080000Y-85485000D02*
X132729990Y-85134990D01*
X133500000Y-85485000D02*
X133080000Y-85485000D01*
X144800000Y-90484334D02*
X144349989Y-90034323D01*
X144349989Y-90034323D02*
X144349989Y-89468638D01*
X144800000Y-91250000D02*
X144800000Y-90484334D01*
X139200000Y-82750000D02*
X139200000Y-83500026D01*
X139200000Y-83500026D02*
X140000000Y-84300026D01*
X140000000Y-84300026D02*
X140000000Y-84740642D01*
X140000000Y-84740642D02*
X140000000Y-85306327D01*
X139000000Y-99550000D02*
X138850000Y-99700000D01*
X139000000Y-97500000D02*
X139000000Y-99550000D01*
X156247999Y-107349999D02*
X158270001Y-107349999D01*
X159150001Y-106469999D02*
X160000000Y-105620000D01*
X154349999Y-112194003D02*
X154349999Y-109247999D01*
X154349999Y-109247999D02*
X156247999Y-107349999D01*
X149000000Y-113080000D02*
X150300001Y-114380001D01*
X158270001Y-107349999D02*
X159150001Y-106469999D01*
X152164001Y-114380001D02*
X154349999Y-112194003D01*
X150300001Y-114380001D02*
X152164001Y-114380001D01*
X159150001Y-94929999D02*
X160000000Y-94080000D01*
X158699999Y-104319999D02*
X158699999Y-95380001D01*
X158699999Y-95380001D02*
X159150001Y-94929999D01*
X160000000Y-105620000D02*
X158699999Y-104319999D01*
X149500000Y-82000000D02*
X149500000Y-79437500D01*
X130337919Y-95000000D02*
X131000000Y-95000000D01*
X127040000Y-91702081D02*
X130337919Y-95000000D01*
X127040000Y-90500000D02*
X127040000Y-91702081D01*
G04 #@! TO.N,BATTERY*
X136987500Y-108050000D02*
X137000000Y-108062500D01*
X135100000Y-108050000D02*
X136987500Y-108050000D01*
X140937500Y-108062500D02*
X141000000Y-108000000D01*
X137000000Y-108062500D02*
X140937500Y-108062500D01*
X137000000Y-106212500D02*
X136787500Y-106000000D01*
X137000000Y-108062500D02*
X137000000Y-106212500D01*
X137150000Y-106000000D02*
X138850000Y-104300000D01*
X136787500Y-106000000D02*
X137150000Y-106000000D01*
X137000000Y-108000000D02*
X138000000Y-107000000D01*
X137000000Y-108062500D02*
X137000000Y-108000000D01*
X127000000Y-102787500D02*
X128000000Y-102787500D01*
X126000000Y-102787500D02*
X127000000Y-102787500D01*
G04 #@! TO.N,+3V3*
X138787500Y-101937500D02*
X138850000Y-102000000D01*
X136000000Y-101937500D02*
X138787500Y-101937500D01*
X149000000Y-106750000D02*
X149000000Y-108000000D01*
X145150000Y-102900000D02*
X149000000Y-106750000D01*
X145150000Y-102000000D02*
X145150000Y-102900000D01*
X145150000Y-98137500D02*
X147287500Y-96000000D01*
X145150000Y-102000000D02*
X145150000Y-98137500D01*
X147287500Y-94150000D02*
X147437500Y-94000000D01*
X147287500Y-96000000D02*
X147287500Y-94150000D01*
X134212500Y-79850000D02*
X134062500Y-80000000D01*
X134212500Y-78000000D02*
X134212500Y-79850000D01*
X137750000Y-83400000D02*
X137750000Y-84200000D01*
X137750000Y-82789998D02*
X137750000Y-83400000D01*
X135212510Y-81150010D02*
X136110012Y-81150010D01*
X136110012Y-81150010D02*
X137750000Y-82789998D01*
X134062500Y-80000000D02*
X135212510Y-81150010D01*
X126424501Y-96212001D02*
X131581761Y-96212001D01*
X133212500Y-94581262D02*
X133212500Y-89575000D01*
X131581761Y-96212001D02*
X133212500Y-94581262D01*
X126000000Y-95787500D02*
X126424501Y-96212001D01*
X138660002Y-84200000D02*
X137750000Y-84200000D01*
X138800001Y-84339999D02*
X138660002Y-84200000D01*
X138660002Y-87400000D02*
X138800001Y-87260001D01*
X137750000Y-87400000D02*
X138660002Y-87400000D01*
X147437500Y-90987500D02*
X146250000Y-89800000D01*
X147437500Y-94000000D02*
X147437500Y-90987500D01*
X138800001Y-87260001D02*
X138898289Y-84456317D01*
X138898289Y-84456317D02*
X138800001Y-84339999D01*
X135799977Y-88250023D02*
X136650000Y-87400000D01*
X133212500Y-89000000D02*
X133212500Y-89575000D01*
X136650000Y-87400000D02*
X137750000Y-87400000D01*
X133212500Y-90470504D02*
X134091998Y-91350002D01*
X133212500Y-89575000D02*
X133212500Y-90470504D01*
X134091998Y-91350002D02*
X135408002Y-91350002D01*
X135408002Y-91350002D02*
X135799977Y-90958027D01*
X135799977Y-90958027D02*
X135799977Y-88250023D01*
X138850000Y-102000000D02*
X145150000Y-102000000D01*
X160250000Y-86270000D02*
X160000000Y-86270000D01*
X161300000Y-87320000D02*
X160250000Y-86270000D01*
X161300001Y-95349999D02*
X161300000Y-87320000D01*
X160000000Y-96650000D02*
X161300001Y-95349999D01*
X160000000Y-98000000D02*
X160000000Y-96650000D01*
X153434315Y-99000000D02*
X154000000Y-99000000D01*
X149650000Y-99000000D02*
X153434315Y-99000000D01*
X145150000Y-102000000D02*
X146650000Y-102000000D01*
X146650000Y-102000000D02*
X149650000Y-99000000D01*
X156950000Y-88050000D02*
X156050000Y-88950000D01*
X156950000Y-87389998D02*
X156950000Y-88050000D01*
X158069998Y-86270000D02*
X156950000Y-87389998D01*
X156050000Y-88950000D02*
X156000000Y-88950000D01*
X160000000Y-86270000D02*
X158069998Y-86270000D01*
X148000000Y-79550000D02*
X146000000Y-77550000D01*
X148000000Y-81500000D02*
X148000000Y-79550000D01*
X144506395Y-86591506D02*
X144106396Y-86191507D01*
X145199999Y-89660001D02*
X145199999Y-87285110D01*
X145199999Y-87285110D02*
X144506395Y-86591506D01*
X146250000Y-89800000D02*
X145339998Y-89800000D01*
X145339998Y-89800000D02*
X145199999Y-89660001D01*
X149487500Y-77550000D02*
X149500000Y-77562500D01*
X146000000Y-77550000D02*
X149487500Y-77550000D01*
D30*
G04 #@! TO.N,NRST*
X134787500Y-89000000D02*
X134787500Y-87500000D01*
X134787500Y-87500000D02*
X135500000Y-87500000D01*
X136400000Y-86600000D02*
X137750000Y-86600000D01*
X135500000Y-87500000D02*
X136400000Y-86600000D01*
X134787500Y-90337217D02*
X134949966Y-90499683D01*
X134787500Y-89000000D02*
X134787500Y-90337217D01*
G04 #@! TO.N,Net-(C10-Pad2)*
X135265000Y-82515000D02*
X135500000Y-82750000D01*
X133500000Y-82515000D02*
X135265000Y-82515000D01*
X136824999Y-84924999D02*
X136900000Y-85000000D01*
X136824999Y-83674999D02*
X136824999Y-84924999D01*
X135900000Y-82750000D02*
X136824999Y-83674999D01*
X136900000Y-85000000D02*
X137750000Y-85000000D01*
X135500000Y-82750000D02*
X135900000Y-82750000D01*
G04 #@! TO.N,Net-(C11-Pad1)*
X134765000Y-84515000D02*
X135500000Y-85250000D01*
X133500000Y-84515000D02*
X134765000Y-84515000D01*
X136050000Y-85800000D02*
X137750000Y-85800000D01*
X135500000Y-85250000D02*
X136050000Y-85800000D01*
G04 #@! TO.N,Net-(D1-Pad1)*
X155712500Y-93000000D02*
X155712500Y-91000000D01*
G04 #@! TO.N,PIR_PWR*
X157287500Y-88662500D02*
X157950000Y-88000000D01*
X157950000Y-88000000D02*
X158000000Y-88000000D01*
X157287500Y-91000000D02*
X157287500Y-88662500D01*
X159000000Y-88000000D02*
X160000000Y-89000000D01*
X158000000Y-88000000D02*
X159000000Y-88000000D01*
G04 #@! TO.N,Net-(D2-Pad1)*
X124000000Y-86287500D02*
X126000000Y-86287500D01*
G04 #@! TO.N,XBEE_PWR*
X130238001Y-77761999D02*
X131000000Y-77000000D01*
X129525001Y-81187499D02*
X129525001Y-78474999D01*
X129525001Y-78474999D02*
X130238001Y-77761999D01*
X126000000Y-84712500D02*
X129525001Y-81187499D01*
X143300000Y-78500000D02*
X144000000Y-78500000D01*
X141038001Y-76238001D02*
X143300000Y-78500000D01*
X131761999Y-76238001D02*
X141038001Y-76238001D01*
X131000000Y-77000000D02*
X131761999Y-76238001D01*
G04 #@! TO.N,HALL*
X146250000Y-85800000D02*
X148773002Y-85800000D01*
X148773002Y-85800000D02*
X151912999Y-82660003D01*
X151912999Y-82660003D02*
X151912999Y-76478239D01*
X151912999Y-76478239D02*
X152478239Y-75912999D01*
X154087001Y-76478239D02*
X154087001Y-81299501D01*
X152478239Y-75912999D02*
X153521761Y-75912999D01*
X153521761Y-75912999D02*
X154087001Y-76478239D01*
X159982500Y-83712500D02*
X160000000Y-83730000D01*
X158000000Y-83712500D02*
X159982500Y-83712500D01*
X156812501Y-82525001D02*
X157538388Y-83250888D01*
X155312501Y-82525001D02*
X156812501Y-82525001D01*
X157538388Y-83250888D02*
X158000000Y-83712500D01*
X154087001Y-81299501D02*
X155312501Y-82525001D01*
G04 #@! TO.N,Net-(D3-Pad1)*
X156000000Y-85287500D02*
X158000000Y-85287500D01*
G04 #@! TO.N,Net-(D4-Pad1)*
X155712500Y-97000000D02*
X155712500Y-95000000D01*
G04 #@! TO.N,PIR*
X158050010Y-93489990D02*
X159150001Y-92389999D01*
X159150001Y-92389999D02*
X160000000Y-91540000D01*
X158050010Y-96237490D02*
X158050010Y-93489990D01*
X157287500Y-97000000D02*
X158050010Y-96237490D01*
X157287500Y-97000000D02*
X157287500Y-98112490D01*
X157287500Y-98112490D02*
X157250000Y-98149990D01*
X147100000Y-89000000D02*
X146250000Y-89000000D01*
X153434315Y-98000000D02*
X153209314Y-98225001D01*
X148250010Y-90150010D02*
X147100000Y-89000000D01*
X154000000Y-98000000D02*
X153434315Y-98000000D01*
X148664658Y-98237661D02*
X148250010Y-97823013D01*
X153209314Y-98225001D02*
X150348001Y-98225001D01*
X150348001Y-98225001D02*
X150335341Y-98237661D01*
X150335341Y-98237661D02*
X148664658Y-98237661D01*
X148250010Y-97823013D02*
X148250010Y-90150010D01*
G04 #@! TO.N,Net-(D5-Pad1)*
X125964824Y-97677324D02*
X126000000Y-97712500D01*
X124000000Y-97677324D02*
X125964824Y-97677324D01*
G04 #@! TO.N,Net-(D6-Pad1)*
X124000000Y-101212500D02*
X126000000Y-101212500D01*
G04 #@! TO.N,Net-(D7-Pad1)*
X124000000Y-94212500D02*
X126000000Y-94212500D01*
G04 #@! TO.N,SWDIO*
X150000000Y-96500000D02*
X150000000Y-88500000D01*
X151000000Y-97500000D02*
X150000000Y-96500000D01*
X148500000Y-85000000D02*
X146250000Y-85000000D01*
G04 #@! TO.N,SWCLK*
X151611779Y-97086459D02*
X152011778Y-97486458D01*
X151000000Y-87500000D02*
X151000000Y-96474680D01*
X151000000Y-96474680D02*
X151611779Y-97086459D01*
X149002096Y-84200000D02*
X149101048Y-84101048D01*
X146250000Y-84200000D02*
X149002096Y-84200000D01*
G04 #@! TO.N,I2C_SDA*
X150000000Y-100500000D02*
X154000000Y-100500000D01*
X150000000Y-97500000D02*
X149987340Y-97512660D01*
X147100000Y-87400000D02*
X149549989Y-89849989D01*
X149549989Y-89849989D02*
X149549989Y-96686400D01*
X149600001Y-97100001D02*
X150000000Y-97500000D01*
X149549989Y-96686400D02*
X149600001Y-96736412D01*
X149600001Y-96736412D02*
X149600001Y-97100001D01*
X146250000Y-87400000D02*
X147100000Y-87400000D01*
G04 #@! TO.N,I2C_SCL*
X149000000Y-103000000D02*
X154000000Y-103000000D01*
X148987411Y-96934154D02*
X148987411Y-97499839D01*
X146250000Y-88200000D02*
X147100000Y-88200000D01*
X148987411Y-90087411D02*
X148987411Y-96934154D01*
X147100000Y-88200000D02*
X148987411Y-90087411D01*
G04 #@! TO.N,EN_XBEE*
X146000000Y-80100000D02*
X146000000Y-79450000D01*
X146000000Y-83035002D02*
X146000000Y-80100000D01*
X142400000Y-86635002D02*
X146000000Y-83035002D01*
X142400000Y-91250000D02*
X142400000Y-86635002D01*
G04 #@! TO.N,EN_PIR*
X155950000Y-87050000D02*
X156000000Y-87050000D01*
X152478239Y-96087001D02*
X153521761Y-96087001D01*
X151500000Y-95108762D02*
X152478239Y-96087001D01*
X151725002Y-88348002D02*
X151500000Y-88573004D01*
X154500000Y-88500000D02*
X155950000Y-87050000D01*
X151725002Y-87151998D02*
X151725002Y-88348002D01*
X151500000Y-88573004D02*
X151500000Y-95108762D01*
X154500000Y-95108762D02*
X154500000Y-88500000D01*
X153521761Y-96087001D02*
X154500000Y-95108762D01*
X151173004Y-86600000D02*
X151725002Y-87151998D01*
X146250000Y-86600000D02*
X151173004Y-86600000D01*
G04 #@! TO.N,~LED_EN*
X144800000Y-83435002D02*
X144800000Y-82750000D01*
X141500000Y-86735002D02*
X144800000Y-83435002D01*
X141500000Y-87500000D02*
X141500000Y-86735002D01*
X138348002Y-96725002D02*
X138573004Y-96500000D01*
X138573004Y-96500000D02*
X140934315Y-96500000D01*
X140934315Y-96500000D02*
X141500000Y-96500000D01*
X132050000Y-98050000D02*
X133374998Y-96725002D01*
X133374998Y-96725002D02*
X138348002Y-96725002D01*
X132000000Y-98050000D02*
X132050000Y-98050000D01*
G04 #@! TO.N,LED_GND*
X123199990Y-101987490D02*
X123199990Y-100052334D01*
X123538388Y-99713936D02*
X124000000Y-99252324D01*
X123199990Y-100052334D02*
X123538388Y-99713936D01*
X124000000Y-102787500D02*
X123199990Y-101987490D01*
X123538388Y-96249112D02*
X124000000Y-95787500D01*
X123199990Y-96587510D02*
X123538388Y-96249112D01*
X123199990Y-98452314D02*
X123199990Y-96587510D01*
X123500000Y-98752324D02*
X123199990Y-98452314D01*
X124000000Y-99252324D02*
X123500000Y-98752324D01*
X124000000Y-104000000D02*
X124500000Y-104500000D01*
X124000000Y-102787500D02*
X124000000Y-104000000D01*
X134000000Y-99000000D02*
X132689813Y-99000000D01*
X132689813Y-99000000D02*
X132689808Y-99000005D01*
X157287500Y-95000000D02*
X157287500Y-93000000D01*
X153774988Y-110044014D02*
X153774989Y-109009821D01*
X147565685Y-112000000D02*
X147660686Y-111904999D01*
X147000000Y-112000000D02*
X147565685Y-112000000D01*
X147660686Y-111904999D02*
X151914003Y-111904999D01*
X151914003Y-111904999D02*
X153774988Y-110044014D01*
X156524990Y-95762510D02*
X156524990Y-106259820D01*
X156524990Y-106259820D02*
X155784810Y-107000000D01*
X157287500Y-95000000D02*
X156524990Y-95762510D01*
X155784810Y-107000000D02*
X156009822Y-106774988D01*
X153774989Y-109009821D02*
X155784810Y-107000000D01*
X157287500Y-92712500D02*
X158000000Y-92000000D01*
X157287500Y-93000000D02*
X157287500Y-92712500D01*
X155212500Y-84500000D02*
X156000000Y-83712500D01*
X155000000Y-84500000D02*
X155212500Y-84500000D01*
X123199990Y-88099990D02*
X124500000Y-89400000D01*
X124500000Y-89400000D02*
X124500000Y-90500000D01*
X123199990Y-85512510D02*
X123199990Y-88099990D01*
X124000000Y-84712500D02*
X123199990Y-85512510D01*
X123199990Y-92900010D02*
X124500000Y-91600000D01*
X123199990Y-94987490D02*
X123199990Y-92900010D01*
X124500000Y-91600000D02*
X124500000Y-90500000D01*
X124000000Y-95787500D02*
X123199990Y-94987490D01*
G04 #@! TO.N,SOLAR_SENSE*
X128000000Y-97712500D02*
X130000000Y-97712500D01*
X136374988Y-88725012D02*
X136900000Y-88200000D01*
X131819939Y-96787011D02*
X136374988Y-92231962D01*
X136374988Y-92231962D02*
X136374988Y-88725012D01*
X130000000Y-97712500D02*
X130925489Y-96787011D01*
X136900000Y-88200000D02*
X137750000Y-88200000D01*
X130925489Y-96787011D02*
X131819939Y-96787011D01*
G04 #@! TO.N,Net-(R3-Pad1)*
X132737500Y-109787500D02*
X132900000Y-109950000D01*
X131000000Y-109787500D02*
X132737500Y-109787500D01*
G04 #@! TO.N,BATTERY_SENSE*
X128000000Y-101212500D02*
X130000000Y-101212500D01*
X130000000Y-101212500D02*
X129199990Y-100412490D01*
X136824999Y-92418362D02*
X136824999Y-89075001D01*
X130481484Y-98475010D02*
X131224999Y-97731495D01*
X131224999Y-97731495D02*
X131224999Y-97237022D01*
X129199990Y-100412490D02*
X129199990Y-98843516D01*
X132006339Y-97237022D02*
X136824999Y-92418362D01*
X136900000Y-89000000D02*
X137750000Y-89000000D01*
X136824999Y-89075001D02*
X136900000Y-89000000D01*
X129199990Y-98843516D02*
X129568496Y-98475010D01*
X129568496Y-98475010D02*
X130481484Y-98475010D01*
X131224999Y-97237022D02*
X132006339Y-97237022D01*
G04 #@! TO.N,BOOT0*
X139825888Y-82575888D02*
X140000000Y-82750000D01*
X139825888Y-80961612D02*
X139825888Y-82575888D01*
X140287500Y-80500000D02*
X139825888Y-80961612D01*
G04 #@! TO.N,XB_RX*
X132500000Y-80500000D02*
X131000000Y-79000000D01*
X132500000Y-82000000D02*
X132500000Y-80500000D01*
X139200000Y-91250000D02*
X138275320Y-91250000D01*
X138275320Y-91250000D02*
X138150155Y-91124835D01*
G04 #@! TO.N,XB_TX*
X139200000Y-89800000D02*
X139500000Y-89500000D01*
X137750000Y-89800000D02*
X139200000Y-89800000D01*
G04 #@! TO.N,XB_RESET*
X140000000Y-92100000D02*
X139325010Y-92774990D01*
X140000000Y-91250000D02*
X140000000Y-92100000D01*
X139325010Y-92774990D02*
X138982102Y-92774990D01*
G04 #@! TO.N,XB_SLEEP_REQ*
X136900000Y-96000000D02*
X135065685Y-96000000D01*
X140800000Y-92100000D02*
X136900000Y-96000000D01*
X135065685Y-96000000D02*
X134500000Y-96000000D01*
X140800000Y-91250000D02*
X140800000Y-92100000D01*
G04 #@! TO.N,XB_ON*
X142000000Y-92500000D02*
X142500000Y-92500000D01*
X141600000Y-92100000D02*
X142000000Y-92500000D01*
X141600000Y-91250000D02*
X141600000Y-92100000D01*
G04 #@! TD*
M02*
