G04 #@! TF.GenerationSoftware,KiCad,Pcbnew,5.0.2-bee76a0~70~ubuntu18.10.1*
G04 #@! TF.CreationDate,2019-06-30T16:33:55+01:00*
G04 #@! TF.ProjectId,xbee-sensor,78626565-2d73-4656-9e73-6f722e6b6963,rev?*
G04 #@! TF.SameCoordinates,Original*
G04 #@! TF.FileFunction,Legend,Bot*
G04 #@! TF.FilePolarity,Positive*
%FSLAX46Y46*%
G04 Gerber Fmt 4.6, Leading zero omitted, Abs format (unit mm)*
G04 Created by KiCad (PCBNEW 5.0.2-bee76a0~70~ubuntu18.10.1) date Sun 30 Jun 2019 16:33:55 BST*
%MOMM*%
%LPD*%
G01*
G04 APERTURE LIST*
%ADD10C,0.300000*%
%ADD11C,0.200000*%
G04 APERTURE END LIST*
D10*
X147785714Y-91128571D02*
X147428571Y-92128571D01*
X147071428Y-91128571D01*
X145571428Y-91414285D02*
X145642857Y-91342857D01*
X145785714Y-91271428D01*
X145928571Y-91271428D01*
X146071428Y-91342857D01*
X146142857Y-91414285D01*
X146214285Y-91557142D01*
X146214285Y-91700000D01*
X146142857Y-91842857D01*
X146071428Y-91914285D01*
X145928571Y-91985714D01*
X145785714Y-91985714D01*
X145642857Y-91914285D01*
X145571428Y-91842857D01*
X145571428Y-91271428D02*
X145571428Y-91842857D01*
X145500000Y-91914285D01*
X145428571Y-91914285D01*
X145285714Y-91842857D01*
X145214285Y-91700000D01*
X145214285Y-91342857D01*
X145357142Y-91128571D01*
X145571428Y-90985714D01*
X145857142Y-90914285D01*
X146142857Y-90985714D01*
X146357142Y-91128571D01*
X146500000Y-91342857D01*
X146571428Y-91628571D01*
X146500000Y-91914285D01*
X146357142Y-92128571D01*
X146142857Y-92271428D01*
X145857142Y-92342857D01*
X145571428Y-92271428D01*
X145357142Y-92128571D01*
X144571428Y-91128571D02*
X144571428Y-92128571D01*
X144571428Y-91271428D02*
X144500000Y-91200000D01*
X144357142Y-91128571D01*
X144142857Y-91128571D01*
X144000000Y-91200000D01*
X143928571Y-91342857D01*
X143928571Y-92128571D01*
X142571428Y-92057142D02*
X142714285Y-92128571D01*
X143000000Y-92128571D01*
X143142857Y-92057142D01*
X143214285Y-91985714D01*
X143285714Y-91842857D01*
X143285714Y-91414285D01*
X143214285Y-91271428D01*
X143142857Y-91200000D01*
X143000000Y-91128571D01*
X142714285Y-91128571D01*
X142571428Y-91200000D01*
X141357142Y-92057142D02*
X141500000Y-92128571D01*
X141785714Y-92128571D01*
X141928571Y-92057142D01*
X142000000Y-91914285D01*
X142000000Y-91342857D01*
X141928571Y-91200000D01*
X141785714Y-91128571D01*
X141500000Y-91128571D01*
X141357142Y-91200000D01*
X141285714Y-91342857D01*
X141285714Y-91485714D01*
X142000000Y-91628571D01*
X140642857Y-91985714D02*
X140571428Y-92057142D01*
X140642857Y-92128571D01*
X140714285Y-92057142D01*
X140642857Y-91985714D01*
X140642857Y-92128571D01*
X139928571Y-92128571D02*
X139928571Y-91128571D01*
X139928571Y-91271428D02*
X139857142Y-91200000D01*
X139714285Y-91128571D01*
X139500000Y-91128571D01*
X139357142Y-91200000D01*
X139285714Y-91342857D01*
X139285714Y-92128571D01*
X139285714Y-91342857D02*
X139214285Y-91200000D01*
X139071428Y-91128571D01*
X138857142Y-91128571D01*
X138714285Y-91200000D01*
X138642857Y-91342857D01*
X138642857Y-92128571D01*
X137357142Y-92057142D02*
X137500000Y-92128571D01*
X137785714Y-92128571D01*
X137928571Y-92057142D01*
X138000000Y-91914285D01*
X138000000Y-91342857D01*
X137928571Y-91200000D01*
X137785714Y-91128571D01*
X137500000Y-91128571D01*
X137357142Y-91200000D01*
X137285714Y-91342857D01*
X137285714Y-91485714D01*
X138000000Y-91628571D01*
X149392857Y-93178571D02*
X148392857Y-94678571D01*
X148392857Y-93178571D02*
X149392857Y-94678571D01*
X147321428Y-93892857D02*
X147107142Y-93964285D01*
X147035714Y-94035714D01*
X146964285Y-94178571D01*
X146964285Y-94392857D01*
X147035714Y-94535714D01*
X147107142Y-94607142D01*
X147250000Y-94678571D01*
X147821428Y-94678571D01*
X147821428Y-93178571D01*
X147321428Y-93178571D01*
X147178571Y-93250000D01*
X147107142Y-93321428D01*
X147035714Y-93464285D01*
X147035714Y-93607142D01*
X147107142Y-93750000D01*
X147178571Y-93821428D01*
X147321428Y-93892857D01*
X147821428Y-93892857D01*
X145750000Y-94607142D02*
X145892857Y-94678571D01*
X146178571Y-94678571D01*
X146321428Y-94607142D01*
X146392857Y-94464285D01*
X146392857Y-93892857D01*
X146321428Y-93750000D01*
X146178571Y-93678571D01*
X145892857Y-93678571D01*
X145750000Y-93750000D01*
X145678571Y-93892857D01*
X145678571Y-94035714D01*
X146392857Y-94178571D01*
X144464285Y-94607142D02*
X144607142Y-94678571D01*
X144892857Y-94678571D01*
X145035714Y-94607142D01*
X145107142Y-94464285D01*
X145107142Y-93892857D01*
X145035714Y-93750000D01*
X144892857Y-93678571D01*
X144607142Y-93678571D01*
X144464285Y-93750000D01*
X144392857Y-93892857D01*
X144392857Y-94035714D01*
X145107142Y-94178571D01*
X142678571Y-94607142D02*
X142464285Y-94678571D01*
X142107142Y-94678571D01*
X141964285Y-94607142D01*
X141892857Y-94535714D01*
X141821428Y-94392857D01*
X141821428Y-94250000D01*
X141892857Y-94107142D01*
X141964285Y-94035714D01*
X142107142Y-93964285D01*
X142392857Y-93892857D01*
X142535714Y-93821428D01*
X142607142Y-93750000D01*
X142678571Y-93607142D01*
X142678571Y-93464285D01*
X142607142Y-93321428D01*
X142535714Y-93250000D01*
X142392857Y-93178571D01*
X142035714Y-93178571D01*
X141821428Y-93250000D01*
X140607142Y-94607142D02*
X140750000Y-94678571D01*
X141035714Y-94678571D01*
X141178571Y-94607142D01*
X141250000Y-94464285D01*
X141250000Y-93892857D01*
X141178571Y-93750000D01*
X141035714Y-93678571D01*
X140750000Y-93678571D01*
X140607142Y-93750000D01*
X140535714Y-93892857D01*
X140535714Y-94035714D01*
X141250000Y-94178571D01*
X139892857Y-93678571D02*
X139892857Y-94678571D01*
X139892857Y-93821428D02*
X139821428Y-93750000D01*
X139678571Y-93678571D01*
X139464285Y-93678571D01*
X139321428Y-93750000D01*
X139250000Y-93892857D01*
X139250000Y-94678571D01*
X138607142Y-94607142D02*
X138464285Y-94678571D01*
X138178571Y-94678571D01*
X138035714Y-94607142D01*
X137964285Y-94464285D01*
X137964285Y-94392857D01*
X138035714Y-94250000D01*
X138178571Y-94178571D01*
X138392857Y-94178571D01*
X138535714Y-94107142D01*
X138607142Y-93964285D01*
X138607142Y-93892857D01*
X138535714Y-93750000D01*
X138392857Y-93678571D01*
X138178571Y-93678571D01*
X138035714Y-93750000D01*
X137107142Y-94678571D02*
X137250000Y-94607142D01*
X137321428Y-94535714D01*
X137392857Y-94392857D01*
X137392857Y-93964285D01*
X137321428Y-93821428D01*
X137250000Y-93750000D01*
X137107142Y-93678571D01*
X136892857Y-93678571D01*
X136750000Y-93750000D01*
X136678571Y-93821428D01*
X136607142Y-93964285D01*
X136607142Y-94392857D01*
X136678571Y-94535714D01*
X136750000Y-94607142D01*
X136892857Y-94678571D01*
X137107142Y-94678571D01*
X135964285Y-94678571D02*
X135964285Y-93678571D01*
X135964285Y-93964285D02*
X135892857Y-93821428D01*
X135821428Y-93750000D01*
X135678571Y-93678571D01*
X135535714Y-93678571D01*
X144785714Y-95728571D02*
X144285714Y-97228571D01*
X143785714Y-95728571D01*
X143357142Y-95871428D02*
X143285714Y-95800000D01*
X143142857Y-95728571D01*
X142785714Y-95728571D01*
X142642857Y-95800000D01*
X142571428Y-95871428D01*
X142500000Y-96014285D01*
X142500000Y-96157142D01*
X142571428Y-96371428D01*
X143428571Y-97228571D01*
X142500000Y-97228571D01*
X141857142Y-97085714D02*
X141785714Y-97157142D01*
X141857142Y-97228571D01*
X141928571Y-97157142D01*
X141857142Y-97085714D01*
X141857142Y-97228571D01*
X140857142Y-95728571D02*
X140714285Y-95728571D01*
X140571428Y-95800000D01*
X140500000Y-95871428D01*
X140428571Y-96014285D01*
X140357142Y-96300000D01*
X140357142Y-96657142D01*
X140428571Y-96942857D01*
X140500000Y-97085714D01*
X140571428Y-97157142D01*
X140714285Y-97228571D01*
X140857142Y-97228571D01*
X141000000Y-97157142D01*
X141071428Y-97085714D01*
X141142857Y-96942857D01*
X141214285Y-96657142D01*
X141214285Y-96300000D01*
X141142857Y-96014285D01*
X141071428Y-95871428D01*
X141000000Y-95800000D01*
X140857142Y-95728571D01*
D11*
X129880952Y-113571428D02*
X129119047Y-113571428D01*
X129500000Y-113952380D02*
X129500000Y-113190476D01*
X154595238Y-110857142D02*
X154642857Y-110904761D01*
X154785714Y-110952380D01*
X154880952Y-110952380D01*
X155023809Y-110904761D01*
X155119047Y-110809523D01*
X155166666Y-110714285D01*
X155214285Y-110523809D01*
X155214285Y-110380952D01*
X155166666Y-110190476D01*
X155119047Y-110095238D01*
X155023809Y-110000000D01*
X154880952Y-109952380D01*
X154785714Y-109952380D01*
X154642857Y-110000000D01*
X154595238Y-110047619D01*
X153690476Y-110952380D02*
X154166666Y-110952380D01*
X154166666Y-109952380D01*
X153357142Y-110952380D02*
X153357142Y-109952380D01*
X152785714Y-110952380D02*
X153214285Y-110380952D01*
X152785714Y-109952380D02*
X153357142Y-110523809D01*
X157119047Y-108404761D02*
X156976190Y-108452380D01*
X156738095Y-108452380D01*
X156642857Y-108404761D01*
X156595238Y-108357142D01*
X156547619Y-108261904D01*
X156547619Y-108166666D01*
X156595238Y-108071428D01*
X156642857Y-108023809D01*
X156738095Y-107976190D01*
X156928571Y-107928571D01*
X157023809Y-107880952D01*
X157071428Y-107833333D01*
X157119047Y-107738095D01*
X157119047Y-107642857D01*
X157071428Y-107547619D01*
X157023809Y-107500000D01*
X156928571Y-107452380D01*
X156690476Y-107452380D01*
X156547619Y-107500000D01*
X156214285Y-107452380D02*
X155976190Y-108452380D01*
X155785714Y-107738095D01*
X155595238Y-108452380D01*
X155357142Y-107452380D01*
X154976190Y-108452380D02*
X154976190Y-107452380D01*
X154738095Y-107452380D01*
X154595238Y-107500000D01*
X154500000Y-107595238D01*
X154452380Y-107690476D01*
X154404761Y-107880952D01*
X154404761Y-108023809D01*
X154452380Y-108214285D01*
X154500000Y-108309523D01*
X154595238Y-108404761D01*
X154738095Y-108452380D01*
X154976190Y-108452380D01*
X153976190Y-108452380D02*
X153976190Y-107452380D01*
X153309523Y-107452380D02*
X153119047Y-107452380D01*
X153023809Y-107500000D01*
X152928571Y-107595238D01*
X152880952Y-107785714D01*
X152880952Y-108119047D01*
X152928571Y-108309523D01*
X153023809Y-108404761D01*
X153119047Y-108452380D01*
X153309523Y-108452380D01*
X153404761Y-108404761D01*
X153500000Y-108309523D01*
X153547619Y-108119047D01*
X153547619Y-107785714D01*
X153500000Y-107595238D01*
X153404761Y-107500000D01*
X153309523Y-107452380D01*
X147142857Y-110952380D02*
X147142857Y-109952380D01*
X146571428Y-110952380D01*
X146571428Y-109952380D01*
X145523809Y-110952380D02*
X145857142Y-110476190D01*
X146095238Y-110952380D02*
X146095238Y-109952380D01*
X145714285Y-109952380D01*
X145619047Y-110000000D01*
X145571428Y-110047619D01*
X145523809Y-110142857D01*
X145523809Y-110285714D01*
X145571428Y-110380952D01*
X145619047Y-110428571D01*
X145714285Y-110476190D01*
X146095238Y-110476190D01*
X145142857Y-110904761D02*
X145000000Y-110952380D01*
X144761904Y-110952380D01*
X144666666Y-110904761D01*
X144619047Y-110857142D01*
X144571428Y-110761904D01*
X144571428Y-110666666D01*
X144619047Y-110571428D01*
X144666666Y-110523809D01*
X144761904Y-110476190D01*
X144952380Y-110428571D01*
X145047619Y-110380952D01*
X145095238Y-110333333D01*
X145142857Y-110238095D01*
X145142857Y-110142857D01*
X145095238Y-110047619D01*
X145047619Y-110000000D01*
X144952380Y-109952380D01*
X144714285Y-109952380D01*
X144571428Y-110000000D01*
X144285714Y-109952380D02*
X143714285Y-109952380D01*
X144000000Y-110952380D02*
X144000000Y-109952380D01*
X146261904Y-112500000D02*
X146357142Y-112452380D01*
X146500000Y-112452380D01*
X146642857Y-112500000D01*
X146738095Y-112595238D01*
X146785714Y-112690476D01*
X146833333Y-112880952D01*
X146833333Y-113023809D01*
X146785714Y-113214285D01*
X146738095Y-113309523D01*
X146642857Y-113404761D01*
X146500000Y-113452380D01*
X146404761Y-113452380D01*
X146261904Y-113404761D01*
X146214285Y-113357142D01*
X146214285Y-113023809D01*
X146404761Y-113023809D01*
X145785714Y-113452380D02*
X145785714Y-112452380D01*
X145214285Y-113452380D01*
X145214285Y-112452380D01*
X144738095Y-113452380D02*
X144738095Y-112452380D01*
X144500000Y-112452380D01*
X144357142Y-112500000D01*
X144261904Y-112595238D01*
X144214285Y-112690476D01*
X144166666Y-112880952D01*
X144166666Y-113023809D01*
X144214285Y-113214285D01*
X144261904Y-113309523D01*
X144357142Y-113404761D01*
X144500000Y-113452380D01*
X144738095Y-113452380D01*
X146738095Y-107452380D02*
X146119047Y-107452380D01*
X146452380Y-107833333D01*
X146309523Y-107833333D01*
X146214285Y-107880952D01*
X146166666Y-107928571D01*
X146119047Y-108023809D01*
X146119047Y-108261904D01*
X146166666Y-108357142D01*
X146214285Y-108404761D01*
X146309523Y-108452380D01*
X146595238Y-108452380D01*
X146690476Y-108404761D01*
X146738095Y-108357142D01*
X145833333Y-107452380D02*
X145500000Y-108452380D01*
X145166666Y-107452380D01*
X144928571Y-107452380D02*
X144309523Y-107452380D01*
X144642857Y-107833333D01*
X144500000Y-107833333D01*
X144404761Y-107880952D01*
X144357142Y-107928571D01*
X144309523Y-108023809D01*
X144309523Y-108261904D01*
X144357142Y-108357142D01*
X144404761Y-108404761D01*
X144500000Y-108452380D01*
X144785714Y-108452380D01*
X144880952Y-108404761D01*
X144928571Y-108357142D01*
X135642857Y-110404761D02*
X135500000Y-110452380D01*
X135261904Y-110452380D01*
X135166666Y-110404761D01*
X135119047Y-110357142D01*
X135071428Y-110261904D01*
X135071428Y-110166666D01*
X135119047Y-110071428D01*
X135166666Y-110023809D01*
X135261904Y-109976190D01*
X135452380Y-109928571D01*
X135547619Y-109880952D01*
X135595238Y-109833333D01*
X135642857Y-109738095D01*
X135642857Y-109642857D01*
X135595238Y-109547619D01*
X135547619Y-109500000D01*
X135452380Y-109452380D01*
X135214285Y-109452380D01*
X135071428Y-109500000D01*
X134452380Y-109452380D02*
X134261904Y-109452380D01*
X134166666Y-109500000D01*
X134071428Y-109595238D01*
X134023809Y-109785714D01*
X134023809Y-110119047D01*
X134071428Y-110309523D01*
X134166666Y-110404761D01*
X134261904Y-110452380D01*
X134452380Y-110452380D01*
X134547619Y-110404761D01*
X134642857Y-110309523D01*
X134690476Y-110119047D01*
X134690476Y-109785714D01*
X134642857Y-109595238D01*
X134547619Y-109500000D01*
X134452380Y-109452380D01*
X133119047Y-110452380D02*
X133595238Y-110452380D01*
X133595238Y-109452380D01*
X132833333Y-110166666D02*
X132357142Y-110166666D01*
X132928571Y-110452380D02*
X132595238Y-109452380D01*
X132261904Y-110452380D01*
X131357142Y-110452380D02*
X131690476Y-109976190D01*
X131928571Y-110452380D02*
X131928571Y-109452380D01*
X131547619Y-109452380D01*
X131452380Y-109500000D01*
X131404761Y-109547619D01*
X131357142Y-109642857D01*
X131357142Y-109785714D01*
X131404761Y-109880952D01*
X131452380Y-109928571D01*
X131547619Y-109976190D01*
X131928571Y-109976190D01*
X157714285Y-100904761D02*
X157571428Y-100952380D01*
X157333333Y-100952380D01*
X157238095Y-100904761D01*
X157190476Y-100857142D01*
X157142857Y-100761904D01*
X157142857Y-100666666D01*
X157190476Y-100571428D01*
X157238095Y-100523809D01*
X157333333Y-100476190D01*
X157523809Y-100428571D01*
X157619047Y-100380952D01*
X157666666Y-100333333D01*
X157714285Y-100238095D01*
X157714285Y-100142857D01*
X157666666Y-100047619D01*
X157619047Y-100000000D01*
X157523809Y-99952380D01*
X157285714Y-99952380D01*
X157142857Y-100000000D01*
X156714285Y-100952380D02*
X156714285Y-99952380D01*
X156476190Y-99952380D01*
X156333333Y-100000000D01*
X156238095Y-100095238D01*
X156190476Y-100190476D01*
X156142857Y-100380952D01*
X156142857Y-100523809D01*
X156190476Y-100714285D01*
X156238095Y-100809523D01*
X156333333Y-100904761D01*
X156476190Y-100952380D01*
X156714285Y-100952380D01*
X155761904Y-100666666D02*
X155285714Y-100666666D01*
X155857142Y-100952380D02*
X155523809Y-99952380D01*
X155190476Y-100952380D01*
X157690476Y-103404761D02*
X157547619Y-103452380D01*
X157309523Y-103452380D01*
X157214285Y-103404761D01*
X157166666Y-103357142D01*
X157119047Y-103261904D01*
X157119047Y-103166666D01*
X157166666Y-103071428D01*
X157214285Y-103023809D01*
X157309523Y-102976190D01*
X157500000Y-102928571D01*
X157595238Y-102880952D01*
X157642857Y-102833333D01*
X157690476Y-102738095D01*
X157690476Y-102642857D01*
X157642857Y-102547619D01*
X157595238Y-102500000D01*
X157500000Y-102452380D01*
X157261904Y-102452380D01*
X157119047Y-102500000D01*
X156119047Y-103357142D02*
X156166666Y-103404761D01*
X156309523Y-103452380D01*
X156404761Y-103452380D01*
X156547619Y-103404761D01*
X156642857Y-103309523D01*
X156690476Y-103214285D01*
X156738095Y-103023809D01*
X156738095Y-102880952D01*
X156690476Y-102690476D01*
X156642857Y-102595238D01*
X156547619Y-102500000D01*
X156404761Y-102452380D01*
X156309523Y-102452380D01*
X156166666Y-102500000D01*
X156119047Y-102547619D01*
X155214285Y-103452380D02*
X155690476Y-103452380D01*
X155690476Y-102452380D01*
X157738095Y-97452380D02*
X157119047Y-97452380D01*
X157452380Y-97833333D01*
X157309523Y-97833333D01*
X157214285Y-97880952D01*
X157166666Y-97928571D01*
X157119047Y-98023809D01*
X157119047Y-98261904D01*
X157166666Y-98357142D01*
X157214285Y-98404761D01*
X157309523Y-98452380D01*
X157595238Y-98452380D01*
X157690476Y-98404761D01*
X157738095Y-98357142D01*
X156833333Y-97452380D02*
X156500000Y-98452380D01*
X156166666Y-97452380D01*
X155928571Y-97452380D02*
X155309523Y-97452380D01*
X155642857Y-97833333D01*
X155500000Y-97833333D01*
X155404761Y-97880952D01*
X155357142Y-97928571D01*
X155309523Y-98023809D01*
X155309523Y-98261904D01*
X155357142Y-98357142D01*
X155404761Y-98404761D01*
X155500000Y-98452380D01*
X155785714Y-98452380D01*
X155880952Y-98404761D01*
X155928571Y-98357142D01*
X157261904Y-105000000D02*
X157357142Y-104952380D01*
X157500000Y-104952380D01*
X157642857Y-105000000D01*
X157738095Y-105095238D01*
X157785714Y-105190476D01*
X157833333Y-105380952D01*
X157833333Y-105523809D01*
X157785714Y-105714285D01*
X157738095Y-105809523D01*
X157642857Y-105904761D01*
X157500000Y-105952380D01*
X157404761Y-105952380D01*
X157261904Y-105904761D01*
X157214285Y-105857142D01*
X157214285Y-105523809D01*
X157404761Y-105523809D01*
X156785714Y-105952380D02*
X156785714Y-104952380D01*
X156214285Y-105952380D01*
X156214285Y-104952380D01*
X155738095Y-105952380D02*
X155738095Y-104952380D01*
X155500000Y-104952380D01*
X155357142Y-105000000D01*
X155261904Y-105095238D01*
X155214285Y-105190476D01*
X155166666Y-105380952D01*
X155166666Y-105523809D01*
X155214285Y-105714285D01*
X155261904Y-105809523D01*
X155357142Y-105904761D01*
X155500000Y-105952380D01*
X155738095Y-105952380D01*
X157738095Y-85952380D02*
X157119047Y-85952380D01*
X157452380Y-86333333D01*
X157309523Y-86333333D01*
X157214285Y-86380952D01*
X157166666Y-86428571D01*
X157119047Y-86523809D01*
X157119047Y-86761904D01*
X157166666Y-86857142D01*
X157214285Y-86904761D01*
X157309523Y-86952380D01*
X157595238Y-86952380D01*
X157690476Y-86904761D01*
X157738095Y-86857142D01*
X156833333Y-85952380D02*
X156500000Y-86952380D01*
X156166666Y-85952380D01*
X155928571Y-85952380D02*
X155309523Y-85952380D01*
X155642857Y-86333333D01*
X155500000Y-86333333D01*
X155404761Y-86380952D01*
X155357142Y-86428571D01*
X155309523Y-86523809D01*
X155309523Y-86761904D01*
X155357142Y-86857142D01*
X155404761Y-86904761D01*
X155500000Y-86952380D01*
X155785714Y-86952380D01*
X155880952Y-86904761D01*
X155928571Y-86857142D01*
X157261904Y-84500000D02*
X157357142Y-84452380D01*
X157500000Y-84452380D01*
X157642857Y-84500000D01*
X157738095Y-84595238D01*
X157785714Y-84690476D01*
X157833333Y-84880952D01*
X157833333Y-85023809D01*
X157785714Y-85214285D01*
X157738095Y-85309523D01*
X157642857Y-85404761D01*
X157500000Y-85452380D01*
X157404761Y-85452380D01*
X157261904Y-85404761D01*
X157214285Y-85357142D01*
X157214285Y-85023809D01*
X157404761Y-85023809D01*
X156785714Y-85452380D02*
X156785714Y-84452380D01*
X156214285Y-85452380D01*
X156214285Y-84452380D01*
X155738095Y-85452380D02*
X155738095Y-84452380D01*
X155500000Y-84452380D01*
X155357142Y-84500000D01*
X155261904Y-84595238D01*
X155214285Y-84690476D01*
X155166666Y-84880952D01*
X155166666Y-85023809D01*
X155214285Y-85214285D01*
X155261904Y-85309523D01*
X155357142Y-85404761D01*
X155500000Y-85452380D01*
X155738095Y-85452380D01*
X158023809Y-83952380D02*
X158023809Y-82952380D01*
X158023809Y-83428571D02*
X157452380Y-83428571D01*
X157452380Y-83952380D02*
X157452380Y-82952380D01*
X157023809Y-83666666D02*
X156547619Y-83666666D01*
X157119047Y-83952380D02*
X156785714Y-82952380D01*
X156452380Y-83952380D01*
X155642857Y-83952380D02*
X156119047Y-83952380D01*
X156119047Y-82952380D01*
X154833333Y-83952380D02*
X155309523Y-83952380D01*
X155309523Y-82952380D01*
X157833333Y-89452380D02*
X157833333Y-88452380D01*
X157452380Y-88452380D01*
X157357142Y-88500000D01*
X157309523Y-88547619D01*
X157261904Y-88642857D01*
X157261904Y-88785714D01*
X157309523Y-88880952D01*
X157357142Y-88928571D01*
X157452380Y-88976190D01*
X157833333Y-88976190D01*
X156928571Y-88452380D02*
X156690476Y-89452380D01*
X156500000Y-88738095D01*
X156309523Y-89452380D01*
X156071428Y-88452380D01*
X155119047Y-89452380D02*
X155452380Y-88976190D01*
X155690476Y-89452380D02*
X155690476Y-88452380D01*
X155309523Y-88452380D01*
X155214285Y-88500000D01*
X155166666Y-88547619D01*
X155119047Y-88642857D01*
X155119047Y-88785714D01*
X155166666Y-88880952D01*
X155214285Y-88928571D01*
X155309523Y-88976190D01*
X155690476Y-88976190D01*
X157261904Y-93500000D02*
X157357142Y-93452380D01*
X157500000Y-93452380D01*
X157642857Y-93500000D01*
X157738095Y-93595238D01*
X157785714Y-93690476D01*
X157833333Y-93880952D01*
X157833333Y-94023809D01*
X157785714Y-94214285D01*
X157738095Y-94309523D01*
X157642857Y-94404761D01*
X157500000Y-94452380D01*
X157404761Y-94452380D01*
X157261904Y-94404761D01*
X157214285Y-94357142D01*
X157214285Y-94023809D01*
X157404761Y-94023809D01*
X156785714Y-94452380D02*
X156785714Y-93452380D01*
X156214285Y-94452380D01*
X156214285Y-93452380D01*
X155738095Y-94452380D02*
X155738095Y-93452380D01*
X155500000Y-93452380D01*
X155357142Y-93500000D01*
X155261904Y-93595238D01*
X155214285Y-93690476D01*
X155166666Y-93880952D01*
X155166666Y-94023809D01*
X155214285Y-94214285D01*
X155261904Y-94309523D01*
X155357142Y-94404761D01*
X155500000Y-94452380D01*
X155738095Y-94452380D01*
X157500000Y-91952380D02*
X157500000Y-90952380D01*
X157119047Y-90952380D01*
X157023809Y-91000000D01*
X156976190Y-91047619D01*
X156928571Y-91142857D01*
X156928571Y-91285714D01*
X156976190Y-91380952D01*
X157023809Y-91428571D01*
X157119047Y-91476190D01*
X157500000Y-91476190D01*
X156500000Y-91952380D02*
X156500000Y-90952380D01*
X155452380Y-91952380D02*
X155785714Y-91476190D01*
X156023809Y-91952380D02*
X156023809Y-90952380D01*
X155642857Y-90952380D01*
X155547619Y-91000000D01*
X155500000Y-91047619D01*
X155452380Y-91142857D01*
X155452380Y-91285714D01*
X155500000Y-91380952D01*
X155547619Y-91428571D01*
X155642857Y-91476190D01*
X156023809Y-91476190D01*
M02*
