G04 #@! TF.GenerationSoftware,KiCad,Pcbnew,(5.0.1-3-g963ef8bb5)*
G04 #@! TF.CreationDate,2018-11-27T14:45:56+00:00*
G04 #@! TF.ProjectId,xbee-sensor,786265652D73656E736F722E6B696361,rev?*
G04 #@! TF.SameCoordinates,Original*
G04 #@! TF.FileFunction,Copper,L2,Bot,Signal*
G04 #@! TF.FilePolarity,Positive*
%FSLAX46Y46*%
G04 Gerber Fmt 4.6, Leading zero omitted, Abs format (unit mm)*
G04 Created by KiCad (PCBNEW (5.0.1-3-g963ef8bb5)) date Tuesday, 27 November 2018 at 14:45:56*
%MOMM*%
%LPD*%
G01*
G04 APERTURE LIST*
G04 #@! TA.AperFunction,ComponentPad*
%ADD10R,1.700000X1.700000*%
G04 #@! TD*
G04 #@! TA.AperFunction,ComponentPad*
%ADD11O,1.700000X1.700000*%
G04 #@! TD*
G04 #@! TA.AperFunction,Conductor*
%ADD12C,0.100000*%
G04 #@! TD*
G04 #@! TA.AperFunction,ComponentPad*
%ADD13C,1.200000*%
G04 #@! TD*
G04 #@! TA.AperFunction,ComponentPad*
%ADD14O,1.200000X1.750000*%
G04 #@! TD*
G04 #@! TA.AperFunction,ComponentPad*
%ADD15C,1.524000*%
G04 #@! TD*
G04 #@! TA.AperFunction,ComponentPad*
%ADD16O,1.500000X1.050000*%
G04 #@! TD*
G04 #@! TA.AperFunction,ComponentPad*
%ADD17R,1.500000X1.050000*%
G04 #@! TD*
G04 #@! TA.AperFunction,ViaPad*
%ADD18C,0.800000*%
G04 #@! TD*
G04 #@! TA.AperFunction,Conductor*
%ADD19C,0.250000*%
G04 #@! TD*
G04 #@! TA.AperFunction,Conductor*
%ADD20C,0.254000*%
G04 #@! TD*
G04 APERTURE END LIST*
D10*
G04 #@! TO.P,J1,1*
G04 #@! TO.N,SOLAR*
X111250000Y-143500000D03*
D11*
G04 #@! TO.P,J1,2*
G04 #@! TO.N,GND*
X111250000Y-146040000D03*
G04 #@! TD*
D10*
G04 #@! TO.P,J2,1*
G04 #@! TO.N,+3V3*
X143750000Y-153250000D03*
D11*
G04 #@! TO.P,J2,2*
G04 #@! TO.N,I2C_SDA*
X141210000Y-153250000D03*
G04 #@! TO.P,J2,3*
G04 #@! TO.N,I2C_SCL*
X138670000Y-153250000D03*
G04 #@! TO.P,J2,4*
G04 #@! TO.N,GND*
X136130000Y-153250000D03*
G04 #@! TD*
D12*
G04 #@! TO.N,BATTERY*
G04 #@! TO.C,J3*
G36*
X119374505Y-147626204D02*
X119398773Y-147629804D01*
X119422572Y-147635765D01*
X119445671Y-147644030D01*
X119467850Y-147654520D01*
X119488893Y-147667132D01*
X119508599Y-147681747D01*
X119526777Y-147698223D01*
X119543253Y-147716401D01*
X119557868Y-147736107D01*
X119570480Y-147757150D01*
X119580970Y-147779329D01*
X119589235Y-147802428D01*
X119595196Y-147826227D01*
X119598796Y-147850495D01*
X119600000Y-147874999D01*
X119600000Y-149125001D01*
X119598796Y-149149505D01*
X119595196Y-149173773D01*
X119589235Y-149197572D01*
X119580970Y-149220671D01*
X119570480Y-149242850D01*
X119557868Y-149263893D01*
X119543253Y-149283599D01*
X119526777Y-149301777D01*
X119508599Y-149318253D01*
X119488893Y-149332868D01*
X119467850Y-149345480D01*
X119445671Y-149355970D01*
X119422572Y-149364235D01*
X119398773Y-149370196D01*
X119374505Y-149373796D01*
X119350001Y-149375000D01*
X118649999Y-149375000D01*
X118625495Y-149373796D01*
X118601227Y-149370196D01*
X118577428Y-149364235D01*
X118554329Y-149355970D01*
X118532150Y-149345480D01*
X118511107Y-149332868D01*
X118491401Y-149318253D01*
X118473223Y-149301777D01*
X118456747Y-149283599D01*
X118442132Y-149263893D01*
X118429520Y-149242850D01*
X118419030Y-149220671D01*
X118410765Y-149197572D01*
X118404804Y-149173773D01*
X118401204Y-149149505D01*
X118400000Y-149125001D01*
X118400000Y-147874999D01*
X118401204Y-147850495D01*
X118404804Y-147826227D01*
X118410765Y-147802428D01*
X118419030Y-147779329D01*
X118429520Y-147757150D01*
X118442132Y-147736107D01*
X118456747Y-147716401D01*
X118473223Y-147698223D01*
X118491401Y-147681747D01*
X118511107Y-147667132D01*
X118532150Y-147654520D01*
X118554329Y-147644030D01*
X118577428Y-147635765D01*
X118601227Y-147629804D01*
X118625495Y-147626204D01*
X118649999Y-147625000D01*
X119350001Y-147625000D01*
X119374505Y-147626204D01*
X119374505Y-147626204D01*
G37*
D13*
G04 #@! TD*
G04 #@! TO.P,J3,1*
G04 #@! TO.N,BATTERY*
X119000000Y-148500000D03*
D14*
G04 #@! TO.P,J3,2*
G04 #@! TO.N,GND*
X121000000Y-148500000D03*
G04 #@! TD*
D10*
G04 #@! TO.P,J4,1*
G04 #@! TO.N,Net-(J4-Pad1)*
X150000000Y-127500000D03*
D11*
G04 #@! TO.P,J4,2*
G04 #@! TO.N,PIR*
X150000000Y-124960000D03*
G04 #@! TO.P,J4,3*
G04 #@! TO.N,GND*
X150000000Y-122420000D03*
G04 #@! TD*
D10*
G04 #@! TO.P,J5,1*
G04 #@! TO.N,+3V3*
X144750000Y-127500000D03*
D11*
G04 #@! TO.P,J5,2*
G04 #@! TO.N,SWDIO*
X142210000Y-127500000D03*
G04 #@! TO.P,J5,3*
G04 #@! TO.N,NRST*
X144750000Y-124960000D03*
G04 #@! TO.P,J5,4*
G04 #@! TO.N,SWCLK*
X142210000Y-124960000D03*
G04 #@! TO.P,J5,5*
G04 #@! TO.N,GND*
X144750000Y-122420000D03*
G04 #@! TO.P,J5,6*
G04 #@! TO.N,Net-(J5-Pad6)*
X142210000Y-122420000D03*
G04 #@! TD*
D15*
G04 #@! TO.P,U3,1*
G04 #@! TO.N,Net-(Q1-Pad3)*
X113750000Y-103750000D03*
G04 #@! TO.P,U3,2*
G04 #@! TO.N,XB_RX*
X113750000Y-105750000D03*
G04 #@! TO.P,U3,3*
G04 #@! TO.N,XB_TX*
X113750000Y-107750000D03*
G04 #@! TO.P,U3,4*
G04 #@! TO.N,Net-(U3-Pad4)*
X113750000Y-109750000D03*
G04 #@! TO.P,U3,5*
G04 #@! TO.N,XB_RESET*
X113750000Y-111750000D03*
G04 #@! TO.P,U3,6*
G04 #@! TO.N,Net-(U3-Pad6)*
X113750000Y-113750000D03*
G04 #@! TO.P,U3,7*
G04 #@! TO.N,Net-(U3-Pad7)*
X113750000Y-115750000D03*
G04 #@! TO.P,U3,8*
G04 #@! TO.N,Net-(U3-Pad8)*
X113750000Y-117750000D03*
G04 #@! TO.P,U3,9*
G04 #@! TO.N,XB_SLEEP_REQ*
X113750000Y-119750000D03*
G04 #@! TO.P,U3,10*
G04 #@! TO.N,GND*
X113750000Y-121750000D03*
G04 #@! TO.P,U3,11*
G04 #@! TO.N,Net-(U3-Pad11)*
X135750000Y-121750000D03*
G04 #@! TO.P,U3,12*
G04 #@! TO.N,Net-(U3-Pad12)*
X135750000Y-119750000D03*
G04 #@! TO.P,U3,13*
G04 #@! TO.N,XB_ON*
X135750000Y-117750000D03*
G04 #@! TO.P,U3,14*
G04 #@! TO.N,Net-(U3-Pad14)*
X135750000Y-115750000D03*
G04 #@! TO.P,U3,15*
G04 #@! TO.N,Net-(U3-Pad15)*
X135750000Y-113750000D03*
G04 #@! TO.P,U3,16*
G04 #@! TO.N,Net-(U3-Pad16)*
X135750000Y-111750000D03*
G04 #@! TO.P,U3,17*
G04 #@! TO.N,Net-(U3-Pad17)*
X135750000Y-109750000D03*
G04 #@! TO.P,U3,18*
G04 #@! TO.N,Net-(U3-Pad18)*
X135750000Y-107750000D03*
G04 #@! TO.P,U3,19*
G04 #@! TO.N,Net-(U3-Pad19)*
X135750000Y-105750000D03*
G04 #@! TO.P,U3,20*
G04 #@! TO.N,Net-(U3-Pad20)*
X135750000Y-103750000D03*
G04 #@! TD*
D16*
G04 #@! TO.P,U5,2*
G04 #@! TO.N,HALL*
X150500000Y-138230000D03*
G04 #@! TO.P,U5,3*
G04 #@! TO.N,GND*
X150500000Y-136960000D03*
D17*
G04 #@! TO.P,U5,1*
G04 #@! TO.N,+3V3*
X150500000Y-139500000D03*
G04 #@! TD*
D18*
G04 #@! TO.N,GND*
X113000000Y-135250000D03*
X146250000Y-112000000D03*
X139762660Y-102987340D03*
X136500000Y-137000000D03*
X142000000Y-118500000D03*
G04 #@! TO.N,+3V3*
X133500000Y-154000000D03*
X129250000Y-145250000D03*
X136000000Y-144500000D03*
X146750000Y-133250000D03*
X143250000Y-109750000D03*
X138000000Y-102250000D03*
G04 #@! TO.N,NRST*
X133750000Y-132250000D03*
G04 #@! TO.N,EN_XBEE*
X117750000Y-107750000D03*
X133000000Y-135000014D03*
G04 #@! TO.N,XB_RX*
X129500000Y-138750000D03*
G04 #@! TO.N,XB_TX*
X126250000Y-137750000D03*
X116750000Y-110750000D03*
G04 #@! TO.N,XB_RESET*
X130250000Y-140000000D03*
G04 #@! TO.N,XB_SLEEP_REQ*
X131000000Y-141000000D03*
G04 #@! TO.N,XB_ON*
X131592739Y-134691061D03*
G04 #@! TO.N,HALL*
X139000000Y-138250000D03*
G04 #@! TD*
D19*
G04 #@! TO.N,GND*
X131380000Y-148500000D02*
X136130000Y-153250000D01*
X121000000Y-148500000D02*
X131380000Y-148500000D01*
X113750000Y-134500000D02*
X113000000Y-135250000D01*
X113750000Y-121750000D02*
X113750000Y-134500000D01*
X146250000Y-109474680D02*
X139762660Y-102987340D01*
X146250000Y-112000000D02*
X146250000Y-109474680D01*
X136540000Y-136960000D02*
X136500000Y-137000000D01*
X150500000Y-136960000D02*
X136540000Y-136960000D01*
X142000000Y-119670000D02*
X142000000Y-118500000D01*
X144750000Y-122420000D02*
X142000000Y-119670000D01*
G04 #@! TO.N,+3V3*
X143750000Y-154350000D02*
X143750000Y-153250000D01*
X143674999Y-154425001D02*
X143750000Y-154350000D01*
X133925001Y-154425001D02*
X143674999Y-154425001D01*
X133500000Y-154000000D02*
X133925001Y-154425001D01*
X150500000Y-146750000D02*
X150500000Y-139500000D01*
X144000000Y-153250000D02*
X150500000Y-146750000D01*
X143750000Y-153250000D02*
X144000000Y-153250000D01*
X135250000Y-145250000D02*
X136000000Y-144500000D01*
X129250000Y-145250000D02*
X135250000Y-145250000D01*
X144750000Y-131250000D02*
X146750000Y-133250000D01*
X144750000Y-127500000D02*
X144750000Y-131250000D01*
X143250000Y-112000000D02*
X143250000Y-109750000D01*
X145925001Y-114675001D02*
X143250000Y-112000000D01*
X145925001Y-127424999D02*
X145925001Y-114675001D01*
X145850000Y-127500000D02*
X145925001Y-127424999D01*
X144750000Y-127500000D02*
X145850000Y-127500000D01*
X138000000Y-104500000D02*
X138000000Y-102250000D01*
X143250000Y-109750000D02*
X138000000Y-104500000D01*
G04 #@! TO.N,NRST*
X139864999Y-126135001D02*
X134435366Y-131564634D01*
X143574999Y-126135001D02*
X139864999Y-126135001D01*
X144750000Y-124960000D02*
X143574999Y-126135001D01*
X134435366Y-131564634D02*
X133750000Y-132250000D01*
G04 #@! TO.N,EN_XBEE*
X132350015Y-135649999D02*
X133000000Y-135000014D01*
X117750000Y-107750000D02*
X117500000Y-108000000D01*
X117500000Y-108000000D02*
X117500000Y-135000000D01*
X117500000Y-135000000D02*
X118149999Y-135649999D01*
X118149999Y-135649999D02*
X132350015Y-135649999D01*
G04 #@! TO.N,XB_RX*
X116000000Y-108000000D02*
X114511999Y-106511999D01*
X119977178Y-138750000D02*
X116599978Y-135372800D01*
X116599978Y-113963567D02*
X116000000Y-113363589D01*
X129500000Y-138750000D02*
X119977178Y-138750000D01*
X116599978Y-135372800D02*
X116599978Y-113963567D01*
X116000000Y-113363589D02*
X116000000Y-108000000D01*
X114511999Y-106511999D02*
X113750000Y-105750000D01*
G04 #@! TO.N,XB_TX*
X117049989Y-135186400D02*
X117049989Y-111615674D01*
X126250000Y-137750000D02*
X119613589Y-137750000D01*
X119613589Y-137750000D02*
X117049989Y-135186400D01*
X117049989Y-111615674D02*
X116750000Y-111315685D01*
X116750000Y-111315685D02*
X116750000Y-110750000D01*
G04 #@! TO.N,XB_RESET*
X116149967Y-135649967D02*
X120500000Y-140000000D01*
X129684315Y-140000000D02*
X130250000Y-140000000D01*
X113750000Y-111750000D02*
X116149967Y-114149967D01*
X120500000Y-140000000D02*
X129684315Y-140000000D01*
X116149967Y-114149967D02*
X116149967Y-135649967D01*
G04 #@! TO.N,XB_SLEEP_REQ*
X130434315Y-141000000D02*
X131000000Y-141000000D01*
X120750000Y-141000000D02*
X130434315Y-141000000D01*
X115699956Y-135949956D02*
X120750000Y-141000000D01*
X115699956Y-121699956D02*
X115699956Y-135949956D01*
X113750000Y-119750000D02*
X115699956Y-121699956D01*
G04 #@! TO.N,XB_ON*
X131592739Y-121907261D02*
X131592739Y-134691061D01*
X135750000Y-117750000D02*
X131592739Y-121907261D01*
G04 #@! TO.N,HALL*
X139020000Y-138230000D02*
X139000000Y-138250000D01*
X150500000Y-138230000D02*
X139020000Y-138230000D01*
G04 #@! TD*
D20*
G04 #@! TO.N,GND*
G36*
X151790000Y-136512842D02*
X151610179Y-136195745D01*
X151250331Y-135915177D01*
X150810506Y-135793674D01*
X150627000Y-135953407D01*
X150627000Y-136833000D01*
X150647000Y-136833000D01*
X150647000Y-137070000D01*
X150160754Y-137070000D01*
X150075290Y-137087000D01*
X149281837Y-137087000D01*
X149156036Y-137265810D01*
X149164734Y-137327336D01*
X149245637Y-137470000D01*
X139683711Y-137470000D01*
X139586280Y-137372569D01*
X139205874Y-137215000D01*
X138794126Y-137215000D01*
X138413720Y-137372569D01*
X138122569Y-137663720D01*
X137965000Y-138044126D01*
X137965000Y-138455874D01*
X138122569Y-138836280D01*
X138413720Y-139127431D01*
X138794126Y-139285000D01*
X139205874Y-139285000D01*
X139586280Y-139127431D01*
X139723711Y-138990000D01*
X149102560Y-138990000D01*
X149102560Y-140025000D01*
X149151843Y-140272765D01*
X149292191Y-140482809D01*
X149502235Y-140623157D01*
X149740001Y-140670451D01*
X149740000Y-146435198D01*
X144422639Y-151752560D01*
X142900000Y-151752560D01*
X142652235Y-151801843D01*
X142442191Y-151942191D01*
X142301843Y-152152235D01*
X142292816Y-152197619D01*
X142280625Y-152179375D01*
X141789418Y-151851161D01*
X141356256Y-151765000D01*
X141063744Y-151765000D01*
X140630582Y-151851161D01*
X140139375Y-152179375D01*
X139940000Y-152477761D01*
X139740625Y-152179375D01*
X139249418Y-151851161D01*
X138816256Y-151765000D01*
X138523744Y-151765000D01*
X138090582Y-151851161D01*
X137599375Y-152179375D01*
X137386157Y-152498478D01*
X137325183Y-152368642D01*
X136896924Y-151978355D01*
X136486890Y-151808524D01*
X136257000Y-151929845D01*
X136257000Y-153123000D01*
X136277000Y-153123000D01*
X136277000Y-153377000D01*
X136257000Y-153377000D01*
X136257000Y-153397000D01*
X136003000Y-153397000D01*
X136003000Y-153377000D01*
X134809181Y-153377000D01*
X134688514Y-153606892D01*
X134715804Y-153665001D01*
X134481515Y-153665001D01*
X134377431Y-153413720D01*
X134086280Y-153122569D01*
X133705874Y-152965000D01*
X133294126Y-152965000D01*
X132913720Y-153122569D01*
X132622569Y-153413720D01*
X132465000Y-153794126D01*
X132465000Y-154205874D01*
X132622569Y-154586280D01*
X132826289Y-154790000D01*
X109210000Y-154790000D01*
X109210000Y-152055431D01*
X109265000Y-152055431D01*
X109265000Y-152944569D01*
X109605259Y-153766026D01*
X110233974Y-154394741D01*
X111055431Y-154735000D01*
X111944569Y-154735000D01*
X112766026Y-154394741D01*
X113394741Y-153766026D01*
X113735000Y-152944569D01*
X113735000Y-152893108D01*
X134688514Y-152893108D01*
X134809181Y-153123000D01*
X136003000Y-153123000D01*
X136003000Y-151929845D01*
X135773110Y-151808524D01*
X135363076Y-151978355D01*
X134934817Y-152368642D01*
X134688514Y-152893108D01*
X113735000Y-152893108D01*
X113735000Y-152055431D01*
X113394741Y-151233974D01*
X112766026Y-150605259D01*
X111944569Y-150265000D01*
X111055431Y-150265000D01*
X110233974Y-150605259D01*
X109605259Y-151233974D01*
X109265000Y-152055431D01*
X109210000Y-152055431D01*
X109210000Y-147874999D01*
X117752560Y-147874999D01*
X117752560Y-149125001D01*
X117820873Y-149468436D01*
X118015414Y-149759586D01*
X118306564Y-149954127D01*
X118649999Y-150022440D01*
X119350001Y-150022440D01*
X119693436Y-149954127D01*
X119984586Y-149759586D01*
X120096127Y-149592653D01*
X120216526Y-149738080D01*
X120644719Y-149964592D01*
X120682391Y-149968462D01*
X120873000Y-149843731D01*
X120873000Y-148627000D01*
X121127000Y-148627000D01*
X121127000Y-149843731D01*
X121317609Y-149968462D01*
X121355281Y-149964592D01*
X121783474Y-149738080D01*
X122092390Y-149364947D01*
X122235000Y-148902000D01*
X122235000Y-148627000D01*
X121127000Y-148627000D01*
X120873000Y-148627000D01*
X120853000Y-148627000D01*
X120853000Y-148373000D01*
X120873000Y-148373000D01*
X120873000Y-147156269D01*
X121127000Y-147156269D01*
X121127000Y-148373000D01*
X122235000Y-148373000D01*
X122235000Y-148098000D01*
X122092390Y-147635053D01*
X121783474Y-147261920D01*
X121355281Y-147035408D01*
X121317609Y-147031538D01*
X121127000Y-147156269D01*
X120873000Y-147156269D01*
X120682391Y-147031538D01*
X120644719Y-147035408D01*
X120216526Y-147261920D01*
X120096127Y-147407347D01*
X119984586Y-147240414D01*
X119693436Y-147045873D01*
X119350001Y-146977560D01*
X118649999Y-146977560D01*
X118306564Y-147045873D01*
X118015414Y-147240414D01*
X117820873Y-147531564D01*
X117752560Y-147874999D01*
X109210000Y-147874999D01*
X109210000Y-146396890D01*
X109808524Y-146396890D01*
X109978355Y-146806924D01*
X110368642Y-147235183D01*
X110893108Y-147481486D01*
X111123000Y-147360819D01*
X111123000Y-146167000D01*
X111377000Y-146167000D01*
X111377000Y-147360819D01*
X111606892Y-147481486D01*
X112131358Y-147235183D01*
X112521645Y-146806924D01*
X112691476Y-146396890D01*
X112570155Y-146167000D01*
X111377000Y-146167000D01*
X111123000Y-146167000D01*
X109929845Y-146167000D01*
X109808524Y-146396890D01*
X109210000Y-146396890D01*
X109210000Y-142650000D01*
X109752560Y-142650000D01*
X109752560Y-144350000D01*
X109801843Y-144597765D01*
X109942191Y-144807809D01*
X110152235Y-144948157D01*
X110255708Y-144968739D01*
X109978355Y-145273076D01*
X109808524Y-145683110D01*
X109929845Y-145913000D01*
X111123000Y-145913000D01*
X111123000Y-145893000D01*
X111377000Y-145893000D01*
X111377000Y-145913000D01*
X112570155Y-145913000D01*
X112691476Y-145683110D01*
X112521645Y-145273076D01*
X112312995Y-145044126D01*
X128215000Y-145044126D01*
X128215000Y-145455874D01*
X128372569Y-145836280D01*
X128663720Y-146127431D01*
X129044126Y-146285000D01*
X129455874Y-146285000D01*
X129836280Y-146127431D01*
X129953711Y-146010000D01*
X135175153Y-146010000D01*
X135250000Y-146024888D01*
X135324847Y-146010000D01*
X135324852Y-146010000D01*
X135546537Y-145965904D01*
X135797929Y-145797929D01*
X135840331Y-145734470D01*
X136039801Y-145535000D01*
X136205874Y-145535000D01*
X136586280Y-145377431D01*
X136877431Y-145086280D01*
X137035000Y-144705874D01*
X137035000Y-144294126D01*
X136877431Y-143913720D01*
X136586280Y-143622569D01*
X136205874Y-143465000D01*
X135794126Y-143465000D01*
X135413720Y-143622569D01*
X135122569Y-143913720D01*
X134965000Y-144294126D01*
X134965000Y-144460199D01*
X134935199Y-144490000D01*
X129953711Y-144490000D01*
X129836280Y-144372569D01*
X129455874Y-144215000D01*
X129044126Y-144215000D01*
X128663720Y-144372569D01*
X128372569Y-144663720D01*
X128215000Y-145044126D01*
X112312995Y-145044126D01*
X112244292Y-144968739D01*
X112347765Y-144948157D01*
X112557809Y-144807809D01*
X112698157Y-144597765D01*
X112747440Y-144350000D01*
X112747440Y-142650000D01*
X112698157Y-142402235D01*
X112557809Y-142192191D01*
X112347765Y-142051843D01*
X112100000Y-142002560D01*
X110400000Y-142002560D01*
X110152235Y-142051843D01*
X109942191Y-142192191D01*
X109801843Y-142402235D01*
X109752560Y-142650000D01*
X109210000Y-142650000D01*
X109210000Y-122730213D01*
X112949392Y-122730213D01*
X113018857Y-122972397D01*
X113542302Y-123159144D01*
X114097368Y-123131362D01*
X114481143Y-122972397D01*
X114550608Y-122730213D01*
X113750000Y-121929605D01*
X112949392Y-122730213D01*
X109210000Y-122730213D01*
X109210000Y-121542302D01*
X112340856Y-121542302D01*
X112368638Y-122097368D01*
X112527603Y-122481143D01*
X112769787Y-122550608D01*
X113570395Y-121750000D01*
X112769787Y-120949392D01*
X112527603Y-121018857D01*
X112340856Y-121542302D01*
X109210000Y-121542302D01*
X109210000Y-103472119D01*
X112353000Y-103472119D01*
X112353000Y-104027881D01*
X112565680Y-104541337D01*
X112774343Y-104750000D01*
X112565680Y-104958663D01*
X112353000Y-105472119D01*
X112353000Y-106027881D01*
X112565680Y-106541337D01*
X112774343Y-106750000D01*
X112565680Y-106958663D01*
X112353000Y-107472119D01*
X112353000Y-108027881D01*
X112565680Y-108541337D01*
X112774343Y-108750000D01*
X112565680Y-108958663D01*
X112353000Y-109472119D01*
X112353000Y-110027881D01*
X112565680Y-110541337D01*
X112774343Y-110750000D01*
X112565680Y-110958663D01*
X112353000Y-111472119D01*
X112353000Y-112027881D01*
X112565680Y-112541337D01*
X112774343Y-112750000D01*
X112565680Y-112958663D01*
X112353000Y-113472119D01*
X112353000Y-114027881D01*
X112565680Y-114541337D01*
X112774343Y-114750000D01*
X112565680Y-114958663D01*
X112353000Y-115472119D01*
X112353000Y-116027881D01*
X112565680Y-116541337D01*
X112774343Y-116750000D01*
X112565680Y-116958663D01*
X112353000Y-117472119D01*
X112353000Y-118027881D01*
X112565680Y-118541337D01*
X112774343Y-118750000D01*
X112565680Y-118958663D01*
X112353000Y-119472119D01*
X112353000Y-120027881D01*
X112565680Y-120541337D01*
X112958663Y-120934320D01*
X113223711Y-121044106D01*
X113750000Y-121570395D01*
X113764143Y-121556253D01*
X113943748Y-121735858D01*
X113929605Y-121750000D01*
X114730213Y-122550608D01*
X114939956Y-122490448D01*
X114939957Y-135875104D01*
X114925068Y-135949956D01*
X114984053Y-136246493D01*
X115103232Y-136424856D01*
X115152028Y-136497885D01*
X115215484Y-136540285D01*
X120159671Y-141484473D01*
X120202071Y-141547929D01*
X120265527Y-141590329D01*
X120453462Y-141715904D01*
X120501605Y-141725480D01*
X120675148Y-141760000D01*
X120675152Y-141760000D01*
X120750000Y-141774888D01*
X120824848Y-141760000D01*
X130296289Y-141760000D01*
X130413720Y-141877431D01*
X130794126Y-142035000D01*
X131205874Y-142035000D01*
X131586280Y-141877431D01*
X131877431Y-141586280D01*
X132035000Y-141205874D01*
X132035000Y-140794126D01*
X131877431Y-140413720D01*
X131586280Y-140122569D01*
X131285000Y-139997775D01*
X131285000Y-139794126D01*
X131127431Y-139413720D01*
X130836280Y-139122569D01*
X130520186Y-138991639D01*
X130535000Y-138955874D01*
X130535000Y-138544126D01*
X130377431Y-138163720D01*
X130086280Y-137872569D01*
X129705874Y-137715000D01*
X129294126Y-137715000D01*
X128913720Y-137872569D01*
X128796289Y-137990000D01*
X127270865Y-137990000D01*
X127285000Y-137955874D01*
X127285000Y-137544126D01*
X127127431Y-137163720D01*
X126836280Y-136872569D01*
X126455874Y-136715000D01*
X126044126Y-136715000D01*
X125663720Y-136872569D01*
X125546289Y-136990000D01*
X119928391Y-136990000D01*
X119592581Y-136654190D01*
X149156036Y-136654190D01*
X149281837Y-136833000D01*
X150373000Y-136833000D01*
X150373000Y-135953407D01*
X150189494Y-135793674D01*
X149749669Y-135915177D01*
X149389821Y-136195745D01*
X149164734Y-136592664D01*
X149156036Y-136654190D01*
X119592581Y-136654190D01*
X119348390Y-136409999D01*
X132275168Y-136409999D01*
X132350015Y-136424887D01*
X132424862Y-136409999D01*
X132424867Y-136409999D01*
X132646552Y-136365903D01*
X132897944Y-136197928D01*
X132940346Y-136134469D01*
X133039801Y-136035014D01*
X133205874Y-136035014D01*
X133586280Y-135877445D01*
X133877431Y-135586294D01*
X134035000Y-135205888D01*
X134035000Y-134794140D01*
X133877431Y-134413734D01*
X133586280Y-134122583D01*
X133205874Y-133965014D01*
X132794126Y-133965014D01*
X132466224Y-134100835D01*
X132352739Y-133987350D01*
X132352739Y-132044126D01*
X132715000Y-132044126D01*
X132715000Y-132455874D01*
X132872569Y-132836280D01*
X133163720Y-133127431D01*
X133544126Y-133285000D01*
X133955874Y-133285000D01*
X134336280Y-133127431D01*
X134627431Y-132836280D01*
X134785000Y-132455874D01*
X134785000Y-132289802D01*
X135025695Y-132049107D01*
X135025697Y-132049104D01*
X140179801Y-126895001D01*
X140828254Y-126895001D01*
X140811161Y-126920582D01*
X140695908Y-127500000D01*
X140811161Y-128079418D01*
X141139375Y-128570625D01*
X141630582Y-128898839D01*
X142063744Y-128985000D01*
X142356256Y-128985000D01*
X142789418Y-128898839D01*
X143280625Y-128570625D01*
X143292816Y-128552381D01*
X143301843Y-128597765D01*
X143442191Y-128807809D01*
X143652235Y-128948157D01*
X143900000Y-128997440D01*
X143990000Y-128997440D01*
X143990001Y-131175148D01*
X143975112Y-131250000D01*
X143990001Y-131324852D01*
X144034097Y-131546537D01*
X144202072Y-131797929D01*
X144265528Y-131840329D01*
X145715000Y-133289802D01*
X145715000Y-133455874D01*
X145872569Y-133836280D01*
X146163720Y-134127431D01*
X146544126Y-134285000D01*
X146955874Y-134285000D01*
X147336280Y-134127431D01*
X147627431Y-133836280D01*
X147785000Y-133455874D01*
X147785000Y-133044126D01*
X147627431Y-132663720D01*
X147336280Y-132372569D01*
X146955874Y-132215000D01*
X146789802Y-132215000D01*
X145510000Y-130935199D01*
X145510000Y-128997440D01*
X145600000Y-128997440D01*
X145847765Y-128948157D01*
X146057809Y-128807809D01*
X146198157Y-128597765D01*
X146247440Y-128350000D01*
X146247440Y-128148483D01*
X146397929Y-128047929D01*
X146427970Y-128002969D01*
X146472930Y-127972928D01*
X146640905Y-127721536D01*
X146685001Y-127499851D01*
X146685001Y-127499847D01*
X146699889Y-127425000D01*
X146685001Y-127350153D01*
X146685001Y-124960000D01*
X148485908Y-124960000D01*
X148601161Y-125539418D01*
X148929375Y-126030625D01*
X148947619Y-126042816D01*
X148902235Y-126051843D01*
X148692191Y-126192191D01*
X148551843Y-126402235D01*
X148502560Y-126650000D01*
X148502560Y-128350000D01*
X148551843Y-128597765D01*
X148692191Y-128807809D01*
X148902235Y-128948157D01*
X149150000Y-128997440D01*
X150850000Y-128997440D01*
X151097765Y-128948157D01*
X151307809Y-128807809D01*
X151448157Y-128597765D01*
X151497440Y-128350000D01*
X151497440Y-126650000D01*
X151448157Y-126402235D01*
X151307809Y-126192191D01*
X151097765Y-126051843D01*
X151052381Y-126042816D01*
X151070625Y-126030625D01*
X151398839Y-125539418D01*
X151514092Y-124960000D01*
X151398839Y-124380582D01*
X151070625Y-123889375D01*
X150751522Y-123676157D01*
X150881358Y-123615183D01*
X151271645Y-123186924D01*
X151441476Y-122776890D01*
X151320155Y-122547000D01*
X150127000Y-122547000D01*
X150127000Y-122567000D01*
X149873000Y-122567000D01*
X149873000Y-122547000D01*
X148679845Y-122547000D01*
X148558524Y-122776890D01*
X148728355Y-123186924D01*
X149118642Y-123615183D01*
X149248478Y-123676157D01*
X148929375Y-123889375D01*
X148601161Y-124380582D01*
X148485908Y-124960000D01*
X146685001Y-124960000D01*
X146685001Y-122063110D01*
X148558524Y-122063110D01*
X148679845Y-122293000D01*
X149873000Y-122293000D01*
X149873000Y-121099181D01*
X150127000Y-121099181D01*
X150127000Y-122293000D01*
X151320155Y-122293000D01*
X151441476Y-122063110D01*
X151271645Y-121653076D01*
X150881358Y-121224817D01*
X150356892Y-120978514D01*
X150127000Y-121099181D01*
X149873000Y-121099181D01*
X149643108Y-120978514D01*
X149118642Y-121224817D01*
X148728355Y-121653076D01*
X148558524Y-122063110D01*
X146685001Y-122063110D01*
X146685001Y-114749849D01*
X146699889Y-114675001D01*
X146685001Y-114600153D01*
X146685001Y-114600149D01*
X146640905Y-114378464D01*
X146640905Y-114378463D01*
X146515330Y-114190528D01*
X146472930Y-114127072D01*
X146409474Y-114084672D01*
X144010000Y-111685199D01*
X144010000Y-110453711D01*
X144127431Y-110336280D01*
X144285000Y-109955874D01*
X144285000Y-109544126D01*
X144127431Y-109163720D01*
X143836280Y-108872569D01*
X143455874Y-108715000D01*
X143289802Y-108715000D01*
X138760000Y-104185199D01*
X138760000Y-102953711D01*
X138877431Y-102836280D01*
X139035000Y-102455874D01*
X139035000Y-102044126D01*
X138877431Y-101663720D01*
X138586280Y-101372569D01*
X138205874Y-101215000D01*
X137794126Y-101215000D01*
X137413720Y-101372569D01*
X137122569Y-101663720D01*
X136965000Y-102044126D01*
X136965000Y-102455874D01*
X137122569Y-102836280D01*
X137240001Y-102953712D01*
X137240000Y-104425153D01*
X137225112Y-104500000D01*
X137240000Y-104574847D01*
X137240000Y-104574851D01*
X137284096Y-104796536D01*
X137452071Y-105047929D01*
X137515530Y-105090331D01*
X142215000Y-109789802D01*
X142215000Y-109955874D01*
X142372569Y-110336280D01*
X142490001Y-110453712D01*
X142490000Y-111925153D01*
X142475112Y-112000000D01*
X142490000Y-112074847D01*
X142490000Y-112074851D01*
X142534096Y-112296536D01*
X142702071Y-112547929D01*
X142765530Y-112590331D01*
X145165002Y-114989804D01*
X145165002Y-121005804D01*
X145106892Y-120978514D01*
X144877000Y-121099181D01*
X144877000Y-122293000D01*
X144897000Y-122293000D01*
X144897000Y-122547000D01*
X144877000Y-122547000D01*
X144877000Y-122567000D01*
X144623000Y-122567000D01*
X144623000Y-122547000D01*
X144603000Y-122547000D01*
X144603000Y-122293000D01*
X144623000Y-122293000D01*
X144623000Y-121099181D01*
X144393108Y-120978514D01*
X143868642Y-121224817D01*
X143481353Y-121649786D01*
X143280625Y-121349375D01*
X142789418Y-121021161D01*
X142356256Y-120935000D01*
X142063744Y-120935000D01*
X141630582Y-121021161D01*
X141139375Y-121349375D01*
X140811161Y-121840582D01*
X140695908Y-122420000D01*
X140811161Y-122999418D01*
X141139375Y-123490625D01*
X141437761Y-123690000D01*
X141139375Y-123889375D01*
X140811161Y-124380582D01*
X140695908Y-124960000D01*
X140778457Y-125375001D01*
X139939847Y-125375001D01*
X139864999Y-125360113D01*
X139790151Y-125375001D01*
X139790147Y-125375001D01*
X139568462Y-125419097D01*
X139317070Y-125587072D01*
X139274670Y-125650528D01*
X133950896Y-130974303D01*
X133950893Y-130974305D01*
X133710198Y-131215000D01*
X133544126Y-131215000D01*
X133163720Y-131372569D01*
X132872569Y-131663720D01*
X132715000Y-132044126D01*
X132352739Y-132044126D01*
X132352739Y-122222062D01*
X134409798Y-120165004D01*
X134565680Y-120541337D01*
X134774343Y-120750000D01*
X134565680Y-120958663D01*
X134353000Y-121472119D01*
X134353000Y-122027881D01*
X134565680Y-122541337D01*
X134958663Y-122934320D01*
X135472119Y-123147000D01*
X136027881Y-123147000D01*
X136541337Y-122934320D01*
X136934320Y-122541337D01*
X137147000Y-122027881D01*
X137147000Y-121472119D01*
X136934320Y-120958663D01*
X136725657Y-120750000D01*
X136934320Y-120541337D01*
X137147000Y-120027881D01*
X137147000Y-119472119D01*
X136934320Y-118958663D01*
X136725657Y-118750000D01*
X136934320Y-118541337D01*
X137147000Y-118027881D01*
X137147000Y-117472119D01*
X136934320Y-116958663D01*
X136725657Y-116750000D01*
X136934320Y-116541337D01*
X137147000Y-116027881D01*
X137147000Y-115472119D01*
X136934320Y-114958663D01*
X136725657Y-114750000D01*
X136934320Y-114541337D01*
X137147000Y-114027881D01*
X137147000Y-113472119D01*
X136934320Y-112958663D01*
X136725657Y-112750000D01*
X136934320Y-112541337D01*
X137147000Y-112027881D01*
X137147000Y-111472119D01*
X136934320Y-110958663D01*
X136725657Y-110750000D01*
X136934320Y-110541337D01*
X137147000Y-110027881D01*
X137147000Y-109472119D01*
X136934320Y-108958663D01*
X136725657Y-108750000D01*
X136934320Y-108541337D01*
X137147000Y-108027881D01*
X137147000Y-107472119D01*
X136934320Y-106958663D01*
X136725657Y-106750000D01*
X136934320Y-106541337D01*
X137147000Y-106027881D01*
X137147000Y-105472119D01*
X136934320Y-104958663D01*
X136725657Y-104750000D01*
X136934320Y-104541337D01*
X137147000Y-104027881D01*
X137147000Y-103472119D01*
X136934320Y-102958663D01*
X136541337Y-102565680D01*
X136027881Y-102353000D01*
X135472119Y-102353000D01*
X134958663Y-102565680D01*
X134565680Y-102958663D01*
X134353000Y-103472119D01*
X134353000Y-104027881D01*
X134565680Y-104541337D01*
X134774343Y-104750000D01*
X134565680Y-104958663D01*
X134353000Y-105472119D01*
X134353000Y-106027881D01*
X134565680Y-106541337D01*
X134774343Y-106750000D01*
X134565680Y-106958663D01*
X134353000Y-107472119D01*
X134353000Y-108027881D01*
X134565680Y-108541337D01*
X134774343Y-108750000D01*
X134565680Y-108958663D01*
X134353000Y-109472119D01*
X134353000Y-110027881D01*
X134565680Y-110541337D01*
X134774343Y-110750000D01*
X134565680Y-110958663D01*
X134353000Y-111472119D01*
X134353000Y-112027881D01*
X134565680Y-112541337D01*
X134774343Y-112750000D01*
X134565680Y-112958663D01*
X134353000Y-113472119D01*
X134353000Y-114027881D01*
X134565680Y-114541337D01*
X134774343Y-114750000D01*
X134565680Y-114958663D01*
X134353000Y-115472119D01*
X134353000Y-116027881D01*
X134565680Y-116541337D01*
X134774343Y-116750000D01*
X134565680Y-116958663D01*
X134353000Y-117472119D01*
X134353000Y-118027881D01*
X134365980Y-118059218D01*
X131108269Y-121316930D01*
X131044810Y-121359332D01*
X130876835Y-121610725D01*
X130832739Y-121832410D01*
X130832739Y-121832414D01*
X130817851Y-121907261D01*
X130832739Y-121982108D01*
X130832740Y-133987349D01*
X130715308Y-134104781D01*
X130557739Y-134485187D01*
X130557739Y-134889999D01*
X118464801Y-134889999D01*
X118260000Y-134685198D01*
X118260000Y-108659027D01*
X118336280Y-108627431D01*
X118627431Y-108336280D01*
X118785000Y-107955874D01*
X118785000Y-107544126D01*
X118627431Y-107163720D01*
X118336280Y-106872569D01*
X117955874Y-106715000D01*
X117544126Y-106715000D01*
X117163720Y-106872569D01*
X116872569Y-107163720D01*
X116715000Y-107544126D01*
X116715000Y-107702110D01*
X116547929Y-107452071D01*
X116484473Y-107409671D01*
X115134020Y-106059219D01*
X115147000Y-106027881D01*
X115147000Y-105472119D01*
X114934320Y-104958663D01*
X114725657Y-104750000D01*
X114934320Y-104541337D01*
X115147000Y-104027881D01*
X115147000Y-103472119D01*
X114934320Y-102958663D01*
X114541337Y-102565680D01*
X114027881Y-102353000D01*
X113472119Y-102353000D01*
X112958663Y-102565680D01*
X112565680Y-102958663D01*
X112353000Y-103472119D01*
X109210000Y-103472119D01*
X109210000Y-98055431D01*
X109265000Y-98055431D01*
X109265000Y-98944569D01*
X109605259Y-99766026D01*
X110233974Y-100394741D01*
X111055431Y-100735000D01*
X111944569Y-100735000D01*
X112766026Y-100394741D01*
X113394741Y-99766026D01*
X113735000Y-98944569D01*
X113735000Y-98055431D01*
X147265000Y-98055431D01*
X147265000Y-98944569D01*
X147605259Y-99766026D01*
X148233974Y-100394741D01*
X149055431Y-100735000D01*
X149944569Y-100735000D01*
X150766026Y-100394741D01*
X151394741Y-99766026D01*
X151735000Y-98944569D01*
X151735000Y-98055431D01*
X151394741Y-97233974D01*
X150766026Y-96605259D01*
X149944569Y-96265000D01*
X149055431Y-96265000D01*
X148233974Y-96605259D01*
X147605259Y-97233974D01*
X147265000Y-98055431D01*
X113735000Y-98055431D01*
X113394741Y-97233974D01*
X112766026Y-96605259D01*
X111944569Y-96265000D01*
X111055431Y-96265000D01*
X110233974Y-96605259D01*
X109605259Y-97233974D01*
X109265000Y-98055431D01*
X109210000Y-98055431D01*
X109210000Y-96210000D01*
X151790001Y-96210000D01*
X151790000Y-136512842D01*
X151790000Y-136512842D01*
G37*
X151790000Y-136512842D02*
X151610179Y-136195745D01*
X151250331Y-135915177D01*
X150810506Y-135793674D01*
X150627000Y-135953407D01*
X150627000Y-136833000D01*
X150647000Y-136833000D01*
X150647000Y-137070000D01*
X150160754Y-137070000D01*
X150075290Y-137087000D01*
X149281837Y-137087000D01*
X149156036Y-137265810D01*
X149164734Y-137327336D01*
X149245637Y-137470000D01*
X139683711Y-137470000D01*
X139586280Y-137372569D01*
X139205874Y-137215000D01*
X138794126Y-137215000D01*
X138413720Y-137372569D01*
X138122569Y-137663720D01*
X137965000Y-138044126D01*
X137965000Y-138455874D01*
X138122569Y-138836280D01*
X138413720Y-139127431D01*
X138794126Y-139285000D01*
X139205874Y-139285000D01*
X139586280Y-139127431D01*
X139723711Y-138990000D01*
X149102560Y-138990000D01*
X149102560Y-140025000D01*
X149151843Y-140272765D01*
X149292191Y-140482809D01*
X149502235Y-140623157D01*
X149740001Y-140670451D01*
X149740000Y-146435198D01*
X144422639Y-151752560D01*
X142900000Y-151752560D01*
X142652235Y-151801843D01*
X142442191Y-151942191D01*
X142301843Y-152152235D01*
X142292816Y-152197619D01*
X142280625Y-152179375D01*
X141789418Y-151851161D01*
X141356256Y-151765000D01*
X141063744Y-151765000D01*
X140630582Y-151851161D01*
X140139375Y-152179375D01*
X139940000Y-152477761D01*
X139740625Y-152179375D01*
X139249418Y-151851161D01*
X138816256Y-151765000D01*
X138523744Y-151765000D01*
X138090582Y-151851161D01*
X137599375Y-152179375D01*
X137386157Y-152498478D01*
X137325183Y-152368642D01*
X136896924Y-151978355D01*
X136486890Y-151808524D01*
X136257000Y-151929845D01*
X136257000Y-153123000D01*
X136277000Y-153123000D01*
X136277000Y-153377000D01*
X136257000Y-153377000D01*
X136257000Y-153397000D01*
X136003000Y-153397000D01*
X136003000Y-153377000D01*
X134809181Y-153377000D01*
X134688514Y-153606892D01*
X134715804Y-153665001D01*
X134481515Y-153665001D01*
X134377431Y-153413720D01*
X134086280Y-153122569D01*
X133705874Y-152965000D01*
X133294126Y-152965000D01*
X132913720Y-153122569D01*
X132622569Y-153413720D01*
X132465000Y-153794126D01*
X132465000Y-154205874D01*
X132622569Y-154586280D01*
X132826289Y-154790000D01*
X109210000Y-154790000D01*
X109210000Y-152055431D01*
X109265000Y-152055431D01*
X109265000Y-152944569D01*
X109605259Y-153766026D01*
X110233974Y-154394741D01*
X111055431Y-154735000D01*
X111944569Y-154735000D01*
X112766026Y-154394741D01*
X113394741Y-153766026D01*
X113735000Y-152944569D01*
X113735000Y-152893108D01*
X134688514Y-152893108D01*
X134809181Y-153123000D01*
X136003000Y-153123000D01*
X136003000Y-151929845D01*
X135773110Y-151808524D01*
X135363076Y-151978355D01*
X134934817Y-152368642D01*
X134688514Y-152893108D01*
X113735000Y-152893108D01*
X113735000Y-152055431D01*
X113394741Y-151233974D01*
X112766026Y-150605259D01*
X111944569Y-150265000D01*
X111055431Y-150265000D01*
X110233974Y-150605259D01*
X109605259Y-151233974D01*
X109265000Y-152055431D01*
X109210000Y-152055431D01*
X109210000Y-147874999D01*
X117752560Y-147874999D01*
X117752560Y-149125001D01*
X117820873Y-149468436D01*
X118015414Y-149759586D01*
X118306564Y-149954127D01*
X118649999Y-150022440D01*
X119350001Y-150022440D01*
X119693436Y-149954127D01*
X119984586Y-149759586D01*
X120096127Y-149592653D01*
X120216526Y-149738080D01*
X120644719Y-149964592D01*
X120682391Y-149968462D01*
X120873000Y-149843731D01*
X120873000Y-148627000D01*
X121127000Y-148627000D01*
X121127000Y-149843731D01*
X121317609Y-149968462D01*
X121355281Y-149964592D01*
X121783474Y-149738080D01*
X122092390Y-149364947D01*
X122235000Y-148902000D01*
X122235000Y-148627000D01*
X121127000Y-148627000D01*
X120873000Y-148627000D01*
X120853000Y-148627000D01*
X120853000Y-148373000D01*
X120873000Y-148373000D01*
X120873000Y-147156269D01*
X121127000Y-147156269D01*
X121127000Y-148373000D01*
X122235000Y-148373000D01*
X122235000Y-148098000D01*
X122092390Y-147635053D01*
X121783474Y-147261920D01*
X121355281Y-147035408D01*
X121317609Y-147031538D01*
X121127000Y-147156269D01*
X120873000Y-147156269D01*
X120682391Y-147031538D01*
X120644719Y-147035408D01*
X120216526Y-147261920D01*
X120096127Y-147407347D01*
X119984586Y-147240414D01*
X119693436Y-147045873D01*
X119350001Y-146977560D01*
X118649999Y-146977560D01*
X118306564Y-147045873D01*
X118015414Y-147240414D01*
X117820873Y-147531564D01*
X117752560Y-147874999D01*
X109210000Y-147874999D01*
X109210000Y-146396890D01*
X109808524Y-146396890D01*
X109978355Y-146806924D01*
X110368642Y-147235183D01*
X110893108Y-147481486D01*
X111123000Y-147360819D01*
X111123000Y-146167000D01*
X111377000Y-146167000D01*
X111377000Y-147360819D01*
X111606892Y-147481486D01*
X112131358Y-147235183D01*
X112521645Y-146806924D01*
X112691476Y-146396890D01*
X112570155Y-146167000D01*
X111377000Y-146167000D01*
X111123000Y-146167000D01*
X109929845Y-146167000D01*
X109808524Y-146396890D01*
X109210000Y-146396890D01*
X109210000Y-142650000D01*
X109752560Y-142650000D01*
X109752560Y-144350000D01*
X109801843Y-144597765D01*
X109942191Y-144807809D01*
X110152235Y-144948157D01*
X110255708Y-144968739D01*
X109978355Y-145273076D01*
X109808524Y-145683110D01*
X109929845Y-145913000D01*
X111123000Y-145913000D01*
X111123000Y-145893000D01*
X111377000Y-145893000D01*
X111377000Y-145913000D01*
X112570155Y-145913000D01*
X112691476Y-145683110D01*
X112521645Y-145273076D01*
X112312995Y-145044126D01*
X128215000Y-145044126D01*
X128215000Y-145455874D01*
X128372569Y-145836280D01*
X128663720Y-146127431D01*
X129044126Y-146285000D01*
X129455874Y-146285000D01*
X129836280Y-146127431D01*
X129953711Y-146010000D01*
X135175153Y-146010000D01*
X135250000Y-146024888D01*
X135324847Y-146010000D01*
X135324852Y-146010000D01*
X135546537Y-145965904D01*
X135797929Y-145797929D01*
X135840331Y-145734470D01*
X136039801Y-145535000D01*
X136205874Y-145535000D01*
X136586280Y-145377431D01*
X136877431Y-145086280D01*
X137035000Y-144705874D01*
X137035000Y-144294126D01*
X136877431Y-143913720D01*
X136586280Y-143622569D01*
X136205874Y-143465000D01*
X135794126Y-143465000D01*
X135413720Y-143622569D01*
X135122569Y-143913720D01*
X134965000Y-144294126D01*
X134965000Y-144460199D01*
X134935199Y-144490000D01*
X129953711Y-144490000D01*
X129836280Y-144372569D01*
X129455874Y-144215000D01*
X129044126Y-144215000D01*
X128663720Y-144372569D01*
X128372569Y-144663720D01*
X128215000Y-145044126D01*
X112312995Y-145044126D01*
X112244292Y-144968739D01*
X112347765Y-144948157D01*
X112557809Y-144807809D01*
X112698157Y-144597765D01*
X112747440Y-144350000D01*
X112747440Y-142650000D01*
X112698157Y-142402235D01*
X112557809Y-142192191D01*
X112347765Y-142051843D01*
X112100000Y-142002560D01*
X110400000Y-142002560D01*
X110152235Y-142051843D01*
X109942191Y-142192191D01*
X109801843Y-142402235D01*
X109752560Y-142650000D01*
X109210000Y-142650000D01*
X109210000Y-122730213D01*
X112949392Y-122730213D01*
X113018857Y-122972397D01*
X113542302Y-123159144D01*
X114097368Y-123131362D01*
X114481143Y-122972397D01*
X114550608Y-122730213D01*
X113750000Y-121929605D01*
X112949392Y-122730213D01*
X109210000Y-122730213D01*
X109210000Y-121542302D01*
X112340856Y-121542302D01*
X112368638Y-122097368D01*
X112527603Y-122481143D01*
X112769787Y-122550608D01*
X113570395Y-121750000D01*
X112769787Y-120949392D01*
X112527603Y-121018857D01*
X112340856Y-121542302D01*
X109210000Y-121542302D01*
X109210000Y-103472119D01*
X112353000Y-103472119D01*
X112353000Y-104027881D01*
X112565680Y-104541337D01*
X112774343Y-104750000D01*
X112565680Y-104958663D01*
X112353000Y-105472119D01*
X112353000Y-106027881D01*
X112565680Y-106541337D01*
X112774343Y-106750000D01*
X112565680Y-106958663D01*
X112353000Y-107472119D01*
X112353000Y-108027881D01*
X112565680Y-108541337D01*
X112774343Y-108750000D01*
X112565680Y-108958663D01*
X112353000Y-109472119D01*
X112353000Y-110027881D01*
X112565680Y-110541337D01*
X112774343Y-110750000D01*
X112565680Y-110958663D01*
X112353000Y-111472119D01*
X112353000Y-112027881D01*
X112565680Y-112541337D01*
X112774343Y-112750000D01*
X112565680Y-112958663D01*
X112353000Y-113472119D01*
X112353000Y-114027881D01*
X112565680Y-114541337D01*
X112774343Y-114750000D01*
X112565680Y-114958663D01*
X112353000Y-115472119D01*
X112353000Y-116027881D01*
X112565680Y-116541337D01*
X112774343Y-116750000D01*
X112565680Y-116958663D01*
X112353000Y-117472119D01*
X112353000Y-118027881D01*
X112565680Y-118541337D01*
X112774343Y-118750000D01*
X112565680Y-118958663D01*
X112353000Y-119472119D01*
X112353000Y-120027881D01*
X112565680Y-120541337D01*
X112958663Y-120934320D01*
X113223711Y-121044106D01*
X113750000Y-121570395D01*
X113764143Y-121556253D01*
X113943748Y-121735858D01*
X113929605Y-121750000D01*
X114730213Y-122550608D01*
X114939956Y-122490448D01*
X114939957Y-135875104D01*
X114925068Y-135949956D01*
X114984053Y-136246493D01*
X115103232Y-136424856D01*
X115152028Y-136497885D01*
X115215484Y-136540285D01*
X120159671Y-141484473D01*
X120202071Y-141547929D01*
X120265527Y-141590329D01*
X120453462Y-141715904D01*
X120501605Y-141725480D01*
X120675148Y-141760000D01*
X120675152Y-141760000D01*
X120750000Y-141774888D01*
X120824848Y-141760000D01*
X130296289Y-141760000D01*
X130413720Y-141877431D01*
X130794126Y-142035000D01*
X131205874Y-142035000D01*
X131586280Y-141877431D01*
X131877431Y-141586280D01*
X132035000Y-141205874D01*
X132035000Y-140794126D01*
X131877431Y-140413720D01*
X131586280Y-140122569D01*
X131285000Y-139997775D01*
X131285000Y-139794126D01*
X131127431Y-139413720D01*
X130836280Y-139122569D01*
X130520186Y-138991639D01*
X130535000Y-138955874D01*
X130535000Y-138544126D01*
X130377431Y-138163720D01*
X130086280Y-137872569D01*
X129705874Y-137715000D01*
X129294126Y-137715000D01*
X128913720Y-137872569D01*
X128796289Y-137990000D01*
X127270865Y-137990000D01*
X127285000Y-137955874D01*
X127285000Y-137544126D01*
X127127431Y-137163720D01*
X126836280Y-136872569D01*
X126455874Y-136715000D01*
X126044126Y-136715000D01*
X125663720Y-136872569D01*
X125546289Y-136990000D01*
X119928391Y-136990000D01*
X119592581Y-136654190D01*
X149156036Y-136654190D01*
X149281837Y-136833000D01*
X150373000Y-136833000D01*
X150373000Y-135953407D01*
X150189494Y-135793674D01*
X149749669Y-135915177D01*
X149389821Y-136195745D01*
X149164734Y-136592664D01*
X149156036Y-136654190D01*
X119592581Y-136654190D01*
X119348390Y-136409999D01*
X132275168Y-136409999D01*
X132350015Y-136424887D01*
X132424862Y-136409999D01*
X132424867Y-136409999D01*
X132646552Y-136365903D01*
X132897944Y-136197928D01*
X132940346Y-136134469D01*
X133039801Y-136035014D01*
X133205874Y-136035014D01*
X133586280Y-135877445D01*
X133877431Y-135586294D01*
X134035000Y-135205888D01*
X134035000Y-134794140D01*
X133877431Y-134413734D01*
X133586280Y-134122583D01*
X133205874Y-133965014D01*
X132794126Y-133965014D01*
X132466224Y-134100835D01*
X132352739Y-133987350D01*
X132352739Y-132044126D01*
X132715000Y-132044126D01*
X132715000Y-132455874D01*
X132872569Y-132836280D01*
X133163720Y-133127431D01*
X133544126Y-133285000D01*
X133955874Y-133285000D01*
X134336280Y-133127431D01*
X134627431Y-132836280D01*
X134785000Y-132455874D01*
X134785000Y-132289802D01*
X135025695Y-132049107D01*
X135025697Y-132049104D01*
X140179801Y-126895001D01*
X140828254Y-126895001D01*
X140811161Y-126920582D01*
X140695908Y-127500000D01*
X140811161Y-128079418D01*
X141139375Y-128570625D01*
X141630582Y-128898839D01*
X142063744Y-128985000D01*
X142356256Y-128985000D01*
X142789418Y-128898839D01*
X143280625Y-128570625D01*
X143292816Y-128552381D01*
X143301843Y-128597765D01*
X143442191Y-128807809D01*
X143652235Y-128948157D01*
X143900000Y-128997440D01*
X143990000Y-128997440D01*
X143990001Y-131175148D01*
X143975112Y-131250000D01*
X143990001Y-131324852D01*
X144034097Y-131546537D01*
X144202072Y-131797929D01*
X144265528Y-131840329D01*
X145715000Y-133289802D01*
X145715000Y-133455874D01*
X145872569Y-133836280D01*
X146163720Y-134127431D01*
X146544126Y-134285000D01*
X146955874Y-134285000D01*
X147336280Y-134127431D01*
X147627431Y-133836280D01*
X147785000Y-133455874D01*
X147785000Y-133044126D01*
X147627431Y-132663720D01*
X147336280Y-132372569D01*
X146955874Y-132215000D01*
X146789802Y-132215000D01*
X145510000Y-130935199D01*
X145510000Y-128997440D01*
X145600000Y-128997440D01*
X145847765Y-128948157D01*
X146057809Y-128807809D01*
X146198157Y-128597765D01*
X146247440Y-128350000D01*
X146247440Y-128148483D01*
X146397929Y-128047929D01*
X146427970Y-128002969D01*
X146472930Y-127972928D01*
X146640905Y-127721536D01*
X146685001Y-127499851D01*
X146685001Y-127499847D01*
X146699889Y-127425000D01*
X146685001Y-127350153D01*
X146685001Y-124960000D01*
X148485908Y-124960000D01*
X148601161Y-125539418D01*
X148929375Y-126030625D01*
X148947619Y-126042816D01*
X148902235Y-126051843D01*
X148692191Y-126192191D01*
X148551843Y-126402235D01*
X148502560Y-126650000D01*
X148502560Y-128350000D01*
X148551843Y-128597765D01*
X148692191Y-128807809D01*
X148902235Y-128948157D01*
X149150000Y-128997440D01*
X150850000Y-128997440D01*
X151097765Y-128948157D01*
X151307809Y-128807809D01*
X151448157Y-128597765D01*
X151497440Y-128350000D01*
X151497440Y-126650000D01*
X151448157Y-126402235D01*
X151307809Y-126192191D01*
X151097765Y-126051843D01*
X151052381Y-126042816D01*
X151070625Y-126030625D01*
X151398839Y-125539418D01*
X151514092Y-124960000D01*
X151398839Y-124380582D01*
X151070625Y-123889375D01*
X150751522Y-123676157D01*
X150881358Y-123615183D01*
X151271645Y-123186924D01*
X151441476Y-122776890D01*
X151320155Y-122547000D01*
X150127000Y-122547000D01*
X150127000Y-122567000D01*
X149873000Y-122567000D01*
X149873000Y-122547000D01*
X148679845Y-122547000D01*
X148558524Y-122776890D01*
X148728355Y-123186924D01*
X149118642Y-123615183D01*
X149248478Y-123676157D01*
X148929375Y-123889375D01*
X148601161Y-124380582D01*
X148485908Y-124960000D01*
X146685001Y-124960000D01*
X146685001Y-122063110D01*
X148558524Y-122063110D01*
X148679845Y-122293000D01*
X149873000Y-122293000D01*
X149873000Y-121099181D01*
X150127000Y-121099181D01*
X150127000Y-122293000D01*
X151320155Y-122293000D01*
X151441476Y-122063110D01*
X151271645Y-121653076D01*
X150881358Y-121224817D01*
X150356892Y-120978514D01*
X150127000Y-121099181D01*
X149873000Y-121099181D01*
X149643108Y-120978514D01*
X149118642Y-121224817D01*
X148728355Y-121653076D01*
X148558524Y-122063110D01*
X146685001Y-122063110D01*
X146685001Y-114749849D01*
X146699889Y-114675001D01*
X146685001Y-114600153D01*
X146685001Y-114600149D01*
X146640905Y-114378464D01*
X146640905Y-114378463D01*
X146515330Y-114190528D01*
X146472930Y-114127072D01*
X146409474Y-114084672D01*
X144010000Y-111685199D01*
X144010000Y-110453711D01*
X144127431Y-110336280D01*
X144285000Y-109955874D01*
X144285000Y-109544126D01*
X144127431Y-109163720D01*
X143836280Y-108872569D01*
X143455874Y-108715000D01*
X143289802Y-108715000D01*
X138760000Y-104185199D01*
X138760000Y-102953711D01*
X138877431Y-102836280D01*
X139035000Y-102455874D01*
X139035000Y-102044126D01*
X138877431Y-101663720D01*
X138586280Y-101372569D01*
X138205874Y-101215000D01*
X137794126Y-101215000D01*
X137413720Y-101372569D01*
X137122569Y-101663720D01*
X136965000Y-102044126D01*
X136965000Y-102455874D01*
X137122569Y-102836280D01*
X137240001Y-102953712D01*
X137240000Y-104425153D01*
X137225112Y-104500000D01*
X137240000Y-104574847D01*
X137240000Y-104574851D01*
X137284096Y-104796536D01*
X137452071Y-105047929D01*
X137515530Y-105090331D01*
X142215000Y-109789802D01*
X142215000Y-109955874D01*
X142372569Y-110336280D01*
X142490001Y-110453712D01*
X142490000Y-111925153D01*
X142475112Y-112000000D01*
X142490000Y-112074847D01*
X142490000Y-112074851D01*
X142534096Y-112296536D01*
X142702071Y-112547929D01*
X142765530Y-112590331D01*
X145165002Y-114989804D01*
X145165002Y-121005804D01*
X145106892Y-120978514D01*
X144877000Y-121099181D01*
X144877000Y-122293000D01*
X144897000Y-122293000D01*
X144897000Y-122547000D01*
X144877000Y-122547000D01*
X144877000Y-122567000D01*
X144623000Y-122567000D01*
X144623000Y-122547000D01*
X144603000Y-122547000D01*
X144603000Y-122293000D01*
X144623000Y-122293000D01*
X144623000Y-121099181D01*
X144393108Y-120978514D01*
X143868642Y-121224817D01*
X143481353Y-121649786D01*
X143280625Y-121349375D01*
X142789418Y-121021161D01*
X142356256Y-120935000D01*
X142063744Y-120935000D01*
X141630582Y-121021161D01*
X141139375Y-121349375D01*
X140811161Y-121840582D01*
X140695908Y-122420000D01*
X140811161Y-122999418D01*
X141139375Y-123490625D01*
X141437761Y-123690000D01*
X141139375Y-123889375D01*
X140811161Y-124380582D01*
X140695908Y-124960000D01*
X140778457Y-125375001D01*
X139939847Y-125375001D01*
X139864999Y-125360113D01*
X139790151Y-125375001D01*
X139790147Y-125375001D01*
X139568462Y-125419097D01*
X139317070Y-125587072D01*
X139274670Y-125650528D01*
X133950896Y-130974303D01*
X133950893Y-130974305D01*
X133710198Y-131215000D01*
X133544126Y-131215000D01*
X133163720Y-131372569D01*
X132872569Y-131663720D01*
X132715000Y-132044126D01*
X132352739Y-132044126D01*
X132352739Y-122222062D01*
X134409798Y-120165004D01*
X134565680Y-120541337D01*
X134774343Y-120750000D01*
X134565680Y-120958663D01*
X134353000Y-121472119D01*
X134353000Y-122027881D01*
X134565680Y-122541337D01*
X134958663Y-122934320D01*
X135472119Y-123147000D01*
X136027881Y-123147000D01*
X136541337Y-122934320D01*
X136934320Y-122541337D01*
X137147000Y-122027881D01*
X137147000Y-121472119D01*
X136934320Y-120958663D01*
X136725657Y-120750000D01*
X136934320Y-120541337D01*
X137147000Y-120027881D01*
X137147000Y-119472119D01*
X136934320Y-118958663D01*
X136725657Y-118750000D01*
X136934320Y-118541337D01*
X137147000Y-118027881D01*
X137147000Y-117472119D01*
X136934320Y-116958663D01*
X136725657Y-116750000D01*
X136934320Y-116541337D01*
X137147000Y-116027881D01*
X137147000Y-115472119D01*
X136934320Y-114958663D01*
X136725657Y-114750000D01*
X136934320Y-114541337D01*
X137147000Y-114027881D01*
X137147000Y-113472119D01*
X136934320Y-112958663D01*
X136725657Y-112750000D01*
X136934320Y-112541337D01*
X137147000Y-112027881D01*
X137147000Y-111472119D01*
X136934320Y-110958663D01*
X136725657Y-110750000D01*
X136934320Y-110541337D01*
X137147000Y-110027881D01*
X137147000Y-109472119D01*
X136934320Y-108958663D01*
X136725657Y-108750000D01*
X136934320Y-108541337D01*
X137147000Y-108027881D01*
X137147000Y-107472119D01*
X136934320Y-106958663D01*
X136725657Y-106750000D01*
X136934320Y-106541337D01*
X137147000Y-106027881D01*
X137147000Y-105472119D01*
X136934320Y-104958663D01*
X136725657Y-104750000D01*
X136934320Y-104541337D01*
X137147000Y-104027881D01*
X137147000Y-103472119D01*
X136934320Y-102958663D01*
X136541337Y-102565680D01*
X136027881Y-102353000D01*
X135472119Y-102353000D01*
X134958663Y-102565680D01*
X134565680Y-102958663D01*
X134353000Y-103472119D01*
X134353000Y-104027881D01*
X134565680Y-104541337D01*
X134774343Y-104750000D01*
X134565680Y-104958663D01*
X134353000Y-105472119D01*
X134353000Y-106027881D01*
X134565680Y-106541337D01*
X134774343Y-106750000D01*
X134565680Y-106958663D01*
X134353000Y-107472119D01*
X134353000Y-108027881D01*
X134565680Y-108541337D01*
X134774343Y-108750000D01*
X134565680Y-108958663D01*
X134353000Y-109472119D01*
X134353000Y-110027881D01*
X134565680Y-110541337D01*
X134774343Y-110750000D01*
X134565680Y-110958663D01*
X134353000Y-111472119D01*
X134353000Y-112027881D01*
X134565680Y-112541337D01*
X134774343Y-112750000D01*
X134565680Y-112958663D01*
X134353000Y-113472119D01*
X134353000Y-114027881D01*
X134565680Y-114541337D01*
X134774343Y-114750000D01*
X134565680Y-114958663D01*
X134353000Y-115472119D01*
X134353000Y-116027881D01*
X134565680Y-116541337D01*
X134774343Y-116750000D01*
X134565680Y-116958663D01*
X134353000Y-117472119D01*
X134353000Y-118027881D01*
X134365980Y-118059218D01*
X131108269Y-121316930D01*
X131044810Y-121359332D01*
X130876835Y-121610725D01*
X130832739Y-121832410D01*
X130832739Y-121832414D01*
X130817851Y-121907261D01*
X130832739Y-121982108D01*
X130832740Y-133987349D01*
X130715308Y-134104781D01*
X130557739Y-134485187D01*
X130557739Y-134889999D01*
X118464801Y-134889999D01*
X118260000Y-134685198D01*
X118260000Y-108659027D01*
X118336280Y-108627431D01*
X118627431Y-108336280D01*
X118785000Y-107955874D01*
X118785000Y-107544126D01*
X118627431Y-107163720D01*
X118336280Y-106872569D01*
X117955874Y-106715000D01*
X117544126Y-106715000D01*
X117163720Y-106872569D01*
X116872569Y-107163720D01*
X116715000Y-107544126D01*
X116715000Y-107702110D01*
X116547929Y-107452071D01*
X116484473Y-107409671D01*
X115134020Y-106059219D01*
X115147000Y-106027881D01*
X115147000Y-105472119D01*
X114934320Y-104958663D01*
X114725657Y-104750000D01*
X114934320Y-104541337D01*
X115147000Y-104027881D01*
X115147000Y-103472119D01*
X114934320Y-102958663D01*
X114541337Y-102565680D01*
X114027881Y-102353000D01*
X113472119Y-102353000D01*
X112958663Y-102565680D01*
X112565680Y-102958663D01*
X112353000Y-103472119D01*
X109210000Y-103472119D01*
X109210000Y-98055431D01*
X109265000Y-98055431D01*
X109265000Y-98944569D01*
X109605259Y-99766026D01*
X110233974Y-100394741D01*
X111055431Y-100735000D01*
X111944569Y-100735000D01*
X112766026Y-100394741D01*
X113394741Y-99766026D01*
X113735000Y-98944569D01*
X113735000Y-98055431D01*
X147265000Y-98055431D01*
X147265000Y-98944569D01*
X147605259Y-99766026D01*
X148233974Y-100394741D01*
X149055431Y-100735000D01*
X149944569Y-100735000D01*
X150766026Y-100394741D01*
X151394741Y-99766026D01*
X151735000Y-98944569D01*
X151735000Y-98055431D01*
X151394741Y-97233974D01*
X150766026Y-96605259D01*
X149944569Y-96265000D01*
X149055431Y-96265000D01*
X148233974Y-96605259D01*
X147605259Y-97233974D01*
X147265000Y-98055431D01*
X113735000Y-98055431D01*
X113394741Y-97233974D01*
X112766026Y-96605259D01*
X111944569Y-96265000D01*
X111055431Y-96265000D01*
X110233974Y-96605259D01*
X109605259Y-97233974D01*
X109265000Y-98055431D01*
X109210000Y-98055431D01*
X109210000Y-96210000D01*
X151790001Y-96210000D01*
X151790000Y-136512842D01*
G04 #@! TD*
M02*
