M48
INCH,TZ
T1C0.0157
T2C0.0295
T3C0.0300
T4C0.0394
%
G90
G05
T1
X44488Y-53248
X45965Y-43602
X46358Y-42421
X49705Y-54232
X50886Y-57185
X50984Y-54626
X51280Y-55118
X51575Y-55512
X51808Y-53028
X52362Y-53150
X52559Y-60630
X52657Y-52067
X53543Y-56890
X53740Y-53937
X54331Y-40256
X54724Y-54429
X55025Y-40546
X55906Y-46654
X56398Y-43209
X57579Y-44094
X57776Y-52461
T2
X59252Y-53921
X59252Y-54421
X59252Y-54921
X46850Y-58465
X47638Y-58465
T3
X44783Y-40846
X44783Y-41634
X44783Y-42421
X44783Y-43209
X44783Y-43996
X44783Y-44783
X44783Y-45571
X44783Y-46358
X44783Y-47146
X44783Y-47933
X53445Y-40846
X53445Y-41634
X53445Y-42421
X53445Y-43209
X53445Y-43996
X53445Y-44783
X53445Y-45571
X53445Y-46358
X53445Y-47146
X53445Y-47933
T4
X55988Y-48197
X55988Y-49197
X55988Y-50197
X56988Y-48197
X56988Y-49197
X56988Y-50197
X59055Y-48197
X59055Y-49197
X59055Y-50197
X53594Y-60335
X54594Y-60335
X55594Y-60335
X56594Y-60335
X43799Y-56496
X43799Y-57496
T0
M30
