G04 #@! TF.GenerationSoftware,KiCad,Pcbnew,5.0.2-bee76a0~70~ubuntu18.10.1*
G04 #@! TF.CreationDate,2019-06-30T16:33:55+01:00*
G04 #@! TF.ProjectId,xbee-sensor,78626565-2d73-4656-9e73-6f722e6b6963,rev?*
G04 #@! TF.SameCoordinates,Original*
G04 #@! TF.FileFunction,Soldermask,Bot*
G04 #@! TF.FilePolarity,Negative*
%FSLAX46Y46*%
G04 Gerber Fmt 4.6, Leading zero omitted, Abs format (unit mm)*
G04 Created by KiCad (PCBNEW 5.0.2-bee76a0~70~ubuntu18.10.1) date Sun 30 Jun 2019 16:33:55 BST*
%MOMM*%
%LPD*%
G01*
G04 APERTURE LIST*
%ADD10C,0.100000*%
G04 APERTURE END LIST*
D10*
G36*
X151706627Y-112242299D02*
X151758004Y-112257884D01*
X151866855Y-112290903D01*
X151920712Y-112319691D01*
X152014517Y-112369830D01*
X152143948Y-112476052D01*
X152250170Y-112605483D01*
X152286336Y-112673145D01*
X152329097Y-112753145D01*
X152329097Y-112753146D01*
X152377701Y-112913373D01*
X152394113Y-113080000D01*
X152377701Y-113246627D01*
X152377700Y-113246629D01*
X152329097Y-113406855D01*
X152300309Y-113460712D01*
X152250170Y-113554517D01*
X152143948Y-113683948D01*
X152014517Y-113790170D01*
X151925594Y-113837700D01*
X151866855Y-113869097D01*
X151797088Y-113890260D01*
X151706627Y-113917701D01*
X151581757Y-113930000D01*
X151498243Y-113930000D01*
X151373373Y-113917701D01*
X151282912Y-113890260D01*
X151213145Y-113869097D01*
X151154406Y-113837700D01*
X151065483Y-113790170D01*
X150936052Y-113683948D01*
X150829830Y-113554517D01*
X150779691Y-113460712D01*
X150750903Y-113406855D01*
X150702300Y-113246629D01*
X150702299Y-113246627D01*
X150685887Y-113080000D01*
X150702299Y-112913373D01*
X150750903Y-112753146D01*
X150750903Y-112753145D01*
X150793664Y-112673145D01*
X150829830Y-112605483D01*
X150936052Y-112476052D01*
X151065483Y-112369830D01*
X151159288Y-112319691D01*
X151213145Y-112290903D01*
X151321996Y-112257884D01*
X151373373Y-112242299D01*
X151498243Y-112230000D01*
X151581757Y-112230000D01*
X151706627Y-112242299D01*
X151706627Y-112242299D01*
G37*
G36*
X149166627Y-112242299D02*
X149218004Y-112257884D01*
X149326855Y-112290903D01*
X149380712Y-112319691D01*
X149474517Y-112369830D01*
X149603948Y-112476052D01*
X149710170Y-112605483D01*
X149746336Y-112673145D01*
X149789097Y-112753145D01*
X149789097Y-112753146D01*
X149837701Y-112913373D01*
X149854113Y-113080000D01*
X149837701Y-113246627D01*
X149837700Y-113246629D01*
X149789097Y-113406855D01*
X149760309Y-113460712D01*
X149710170Y-113554517D01*
X149603948Y-113683948D01*
X149474517Y-113790170D01*
X149385594Y-113837700D01*
X149326855Y-113869097D01*
X149257088Y-113890260D01*
X149166627Y-113917701D01*
X149041757Y-113930000D01*
X148958243Y-113930000D01*
X148833373Y-113917701D01*
X148742912Y-113890260D01*
X148673145Y-113869097D01*
X148614406Y-113837700D01*
X148525483Y-113790170D01*
X148396052Y-113683948D01*
X148289830Y-113554517D01*
X148239691Y-113460712D01*
X148210903Y-113406855D01*
X148162300Y-113246629D01*
X148162299Y-113246627D01*
X148145887Y-113080000D01*
X148162299Y-112913373D01*
X148210903Y-112753146D01*
X148210903Y-112753145D01*
X148253664Y-112673145D01*
X148289830Y-112605483D01*
X148396052Y-112476052D01*
X148525483Y-112369830D01*
X148619288Y-112319691D01*
X148673145Y-112290903D01*
X148781996Y-112257884D01*
X148833373Y-112242299D01*
X148958243Y-112230000D01*
X149041757Y-112230000D01*
X149166627Y-112242299D01*
X149166627Y-112242299D01*
G37*
G36*
X132850000Y-113850000D02*
X131150000Y-113850000D01*
X131150000Y-112150000D01*
X132850000Y-112150000D01*
X132850000Y-113850000D01*
X132850000Y-113850000D01*
G37*
G36*
X134706627Y-112162299D02*
X134797088Y-112189740D01*
X134866855Y-112210903D01*
X134920712Y-112239691D01*
X135014517Y-112289830D01*
X135143948Y-112396052D01*
X135250170Y-112525483D01*
X135300309Y-112619288D01*
X135329097Y-112673145D01*
X135329097Y-112673146D01*
X135377701Y-112833373D01*
X135394113Y-113000000D01*
X135377701Y-113166627D01*
X135377700Y-113166629D01*
X135329097Y-113326855D01*
X135300309Y-113380712D01*
X135250170Y-113474517D01*
X135143948Y-113603948D01*
X135014517Y-113710170D01*
X134920712Y-113760309D01*
X134866855Y-113789097D01*
X134797088Y-113810260D01*
X134706627Y-113837701D01*
X134581757Y-113850000D01*
X134498243Y-113850000D01*
X134373373Y-113837701D01*
X134282912Y-113810260D01*
X134213145Y-113789097D01*
X134159288Y-113760309D01*
X134065483Y-113710170D01*
X133936052Y-113603948D01*
X133829830Y-113474517D01*
X133779691Y-113380712D01*
X133750903Y-113326855D01*
X133702300Y-113166629D01*
X133702299Y-113166627D01*
X133685887Y-113000000D01*
X133702299Y-112833373D01*
X133750903Y-112673146D01*
X133750903Y-112673145D01*
X133779691Y-112619288D01*
X133829830Y-112525483D01*
X133936052Y-112396052D01*
X134065483Y-112289830D01*
X134159288Y-112239691D01*
X134213145Y-112210903D01*
X134282912Y-112189740D01*
X134373373Y-112162299D01*
X134498243Y-112150000D01*
X134581757Y-112150000D01*
X134706627Y-112162299D01*
X134706627Y-112162299D01*
G37*
G36*
X158966703Y-109961487D02*
X158966705Y-109961488D01*
X158966706Y-109961488D01*
X159257884Y-110082098D01*
X159519939Y-110257197D01*
X159742803Y-110480061D01*
X159894189Y-110706627D01*
X159917902Y-110742116D01*
X160038513Y-111033297D01*
X160097351Y-111329097D01*
X160100000Y-111342416D01*
X160100000Y-111657584D01*
X160038512Y-111966706D01*
X159917902Y-112257884D01*
X159742803Y-112519939D01*
X159519939Y-112742803D01*
X159257884Y-112917902D01*
X158966706Y-113038512D01*
X158966705Y-113038512D01*
X158966703Y-113038513D01*
X158657586Y-113100000D01*
X158342414Y-113100000D01*
X158033297Y-113038513D01*
X158033295Y-113038512D01*
X158033294Y-113038512D01*
X157742116Y-112917902D01*
X157480061Y-112742803D01*
X157257197Y-112519939D01*
X157082098Y-112257884D01*
X156961488Y-111966706D01*
X156900000Y-111657584D01*
X156900000Y-111342416D01*
X156902649Y-111329097D01*
X156961487Y-111033297D01*
X157082098Y-110742116D01*
X157105811Y-110706627D01*
X157257197Y-110480061D01*
X157480061Y-110257197D01*
X157742116Y-110082098D01*
X158033294Y-109961488D01*
X158033295Y-109961488D01*
X158033297Y-109961487D01*
X158342414Y-109900000D01*
X158657586Y-109900000D01*
X158966703Y-109961487D01*
X158966703Y-109961487D01*
G37*
G36*
X125966703Y-109961487D02*
X125966705Y-109961488D01*
X125966706Y-109961488D01*
X126257884Y-110082098D01*
X126519939Y-110257197D01*
X126742803Y-110480061D01*
X126894189Y-110706627D01*
X126917902Y-110742116D01*
X127038513Y-111033297D01*
X127097351Y-111329097D01*
X127100000Y-111342416D01*
X127100000Y-111657584D01*
X127038512Y-111966706D01*
X126917902Y-112257884D01*
X126742803Y-112519939D01*
X126519939Y-112742803D01*
X126257884Y-112917902D01*
X125966706Y-113038512D01*
X125966705Y-113038512D01*
X125966703Y-113038513D01*
X125657586Y-113100000D01*
X125342414Y-113100000D01*
X125033297Y-113038513D01*
X125033295Y-113038512D01*
X125033294Y-113038512D01*
X124742116Y-112917902D01*
X124480061Y-112742803D01*
X124257197Y-112519939D01*
X124082098Y-112257884D01*
X123961488Y-111966706D01*
X123900000Y-111657584D01*
X123900000Y-111342416D01*
X123902649Y-111329097D01*
X123961487Y-111033297D01*
X124082098Y-110742116D01*
X124105811Y-110706627D01*
X124257197Y-110480061D01*
X124480061Y-110257197D01*
X124742116Y-110082098D01*
X125033294Y-109961488D01*
X125033295Y-109961488D01*
X125033297Y-109961487D01*
X125342414Y-109900000D01*
X125657586Y-109900000D01*
X125966703Y-109961487D01*
X125966703Y-109961487D01*
G37*
G36*
X149166627Y-109702299D02*
X149257088Y-109729740D01*
X149326855Y-109750903D01*
X149380712Y-109779691D01*
X149474517Y-109829830D01*
X149603948Y-109936052D01*
X149710170Y-110065483D01*
X149760309Y-110159288D01*
X149789097Y-110213145D01*
X149789097Y-110213146D01*
X149837701Y-110373373D01*
X149854113Y-110540000D01*
X149837701Y-110706627D01*
X149810260Y-110797088D01*
X149789097Y-110866855D01*
X149760309Y-110920712D01*
X149710170Y-111014517D01*
X149603948Y-111143948D01*
X149474517Y-111250170D01*
X149380712Y-111300309D01*
X149326855Y-111329097D01*
X149282947Y-111342416D01*
X149166627Y-111377701D01*
X149041757Y-111390000D01*
X148958243Y-111390000D01*
X148833373Y-111377701D01*
X148717053Y-111342416D01*
X148673145Y-111329097D01*
X148619288Y-111300309D01*
X148525483Y-111250170D01*
X148396052Y-111143948D01*
X148289830Y-111014517D01*
X148239691Y-110920712D01*
X148210903Y-110866855D01*
X148189740Y-110797088D01*
X148162299Y-110706627D01*
X148145887Y-110540000D01*
X148162299Y-110373373D01*
X148210903Y-110213146D01*
X148210903Y-110213145D01*
X148239691Y-110159288D01*
X148289830Y-110065483D01*
X148396052Y-109936052D01*
X148525483Y-109829830D01*
X148619288Y-109779691D01*
X148673145Y-109750903D01*
X148742912Y-109729740D01*
X148833373Y-109702299D01*
X148958243Y-109690000D01*
X149041757Y-109690000D01*
X149166627Y-109702299D01*
X149166627Y-109702299D01*
G37*
G36*
X151706627Y-109702299D02*
X151797088Y-109729740D01*
X151866855Y-109750903D01*
X151920712Y-109779691D01*
X152014517Y-109829830D01*
X152143948Y-109936052D01*
X152250170Y-110065483D01*
X152300309Y-110159288D01*
X152329097Y-110213145D01*
X152329097Y-110213146D01*
X152377701Y-110373373D01*
X152394113Y-110540000D01*
X152377701Y-110706627D01*
X152350260Y-110797088D01*
X152329097Y-110866855D01*
X152300309Y-110920712D01*
X152250170Y-111014517D01*
X152143948Y-111143948D01*
X152014517Y-111250170D01*
X151920712Y-111300309D01*
X151866855Y-111329097D01*
X151822947Y-111342416D01*
X151706627Y-111377701D01*
X151581757Y-111390000D01*
X151498243Y-111390000D01*
X151373373Y-111377701D01*
X151257053Y-111342416D01*
X151213145Y-111329097D01*
X151159288Y-111300309D01*
X151065483Y-111250170D01*
X150936052Y-111143948D01*
X150829830Y-111014517D01*
X150779691Y-110920712D01*
X150750903Y-110866855D01*
X150729740Y-110797088D01*
X150702299Y-110706627D01*
X150685887Y-110540000D01*
X150702299Y-110373373D01*
X150750903Y-110213146D01*
X150750903Y-110213145D01*
X150779691Y-110159288D01*
X150829830Y-110065483D01*
X150936052Y-109936052D01*
X151065483Y-109829830D01*
X151159288Y-109779691D01*
X151213145Y-109750903D01*
X151282912Y-109729740D01*
X151373373Y-109702299D01*
X151498243Y-109690000D01*
X151581757Y-109690000D01*
X151706627Y-109702299D01*
X151706627Y-109702299D01*
G37*
G36*
X143117617Y-107133680D02*
X143230721Y-107167990D01*
X143286435Y-107197770D01*
X143334954Y-107223704D01*
X143426317Y-107298683D01*
X143501296Y-107390045D01*
X143501297Y-107390047D01*
X143557010Y-107494278D01*
X143591320Y-107607383D01*
X143600000Y-107695517D01*
X143600000Y-108304483D01*
X143591320Y-108392617D01*
X143557010Y-108505722D01*
X143527230Y-108561436D01*
X143501296Y-108609955D01*
X143426317Y-108701317D01*
X143334955Y-108776296D01*
X143310158Y-108789550D01*
X143230722Y-108832010D01*
X143117617Y-108866320D01*
X143000001Y-108877904D01*
X142882383Y-108866320D01*
X142769279Y-108832010D01*
X142689843Y-108789550D01*
X142665046Y-108776296D01*
X142597267Y-108720671D01*
X142573686Y-108701319D01*
X142554891Y-108678417D01*
X142511053Y-108625001D01*
X142498703Y-108609953D01*
X142442990Y-108505722D01*
X142408680Y-108392617D01*
X142400000Y-108304483D01*
X142400000Y-107695518D01*
X142408680Y-107607384D01*
X142442990Y-107494279D01*
X142495494Y-107396052D01*
X142498704Y-107390046D01*
X142573683Y-107298683D01*
X142665045Y-107223704D01*
X142688994Y-107210903D01*
X142769278Y-107167990D01*
X142882383Y-107133680D01*
X142999999Y-107122096D01*
X143117617Y-107133680D01*
X143117617Y-107133680D01*
G37*
G36*
X141445633Y-107129158D02*
X141481496Y-107140037D01*
X141514550Y-107157705D01*
X141543520Y-107181480D01*
X141567295Y-107210450D01*
X141584963Y-107243504D01*
X141595842Y-107279367D01*
X141600000Y-107321583D01*
X141600000Y-108678417D01*
X141595842Y-108720633D01*
X141584963Y-108756496D01*
X141567295Y-108789550D01*
X141543520Y-108818520D01*
X141514550Y-108842295D01*
X141481496Y-108859963D01*
X141445633Y-108870842D01*
X141403417Y-108875000D01*
X140596583Y-108875000D01*
X140554367Y-108870842D01*
X140518504Y-108859963D01*
X140485450Y-108842295D01*
X140456480Y-108818520D01*
X140432705Y-108789550D01*
X140415037Y-108756496D01*
X140404158Y-108720633D01*
X140400000Y-108678417D01*
X140400000Y-107321583D01*
X140404158Y-107279367D01*
X140415037Y-107243504D01*
X140432705Y-107210450D01*
X140456480Y-107181480D01*
X140485450Y-107157705D01*
X140518504Y-107140037D01*
X140554367Y-107129158D01*
X140596583Y-107125000D01*
X141403417Y-107125000D01*
X141445633Y-107129158D01*
X141445633Y-107129158D01*
G37*
G36*
X149850000Y-108850000D02*
X148150000Y-108850000D01*
X148150000Y-107150000D01*
X149850000Y-107150000D01*
X149850000Y-108850000D01*
X149850000Y-108850000D01*
G37*
G36*
X151706627Y-107162299D02*
X151797088Y-107189740D01*
X151866855Y-107210903D01*
X151914008Y-107236107D01*
X152014517Y-107289830D01*
X152143948Y-107396052D01*
X152250170Y-107525483D01*
X152293946Y-107607383D01*
X152329097Y-107673145D01*
X152335886Y-107695526D01*
X152377701Y-107833373D01*
X152394113Y-108000000D01*
X152377701Y-108166627D01*
X152377700Y-108166629D01*
X152329097Y-108326855D01*
X152300309Y-108380712D01*
X152250170Y-108474517D01*
X152143948Y-108603948D01*
X152014517Y-108710170D01*
X151920712Y-108760309D01*
X151866855Y-108789097D01*
X151797088Y-108810260D01*
X151706627Y-108837701D01*
X151581757Y-108850000D01*
X151498243Y-108850000D01*
X151373373Y-108837701D01*
X151282912Y-108810260D01*
X151213145Y-108789097D01*
X151159288Y-108760309D01*
X151065483Y-108710170D01*
X150936052Y-108603948D01*
X150829830Y-108474517D01*
X150779691Y-108380712D01*
X150750903Y-108326855D01*
X150702300Y-108166629D01*
X150702299Y-108166627D01*
X150685887Y-108000000D01*
X150702299Y-107833373D01*
X150744114Y-107695526D01*
X150750903Y-107673145D01*
X150786054Y-107607383D01*
X150829830Y-107525483D01*
X150936052Y-107396052D01*
X151065483Y-107289830D01*
X151165992Y-107236107D01*
X151213145Y-107210903D01*
X151282912Y-107189740D01*
X151373373Y-107162299D01*
X151498243Y-107150000D01*
X151581757Y-107150000D01*
X151706627Y-107162299D01*
X151706627Y-107162299D01*
G37*
G36*
X160166627Y-104782299D02*
X160257088Y-104809740D01*
X160326855Y-104830903D01*
X160380712Y-104859691D01*
X160474517Y-104909830D01*
X160603948Y-105016052D01*
X160710170Y-105145483D01*
X160760309Y-105239288D01*
X160789097Y-105293145D01*
X160789097Y-105293146D01*
X160837701Y-105453373D01*
X160854113Y-105620000D01*
X160837701Y-105786627D01*
X160837700Y-105786629D01*
X160789097Y-105946855D01*
X160760309Y-106000712D01*
X160710170Y-106094517D01*
X160603948Y-106223948D01*
X160474517Y-106330170D01*
X160380712Y-106380309D01*
X160326855Y-106409097D01*
X160257088Y-106430260D01*
X160166627Y-106457701D01*
X160041757Y-106470000D01*
X159958243Y-106470000D01*
X159833373Y-106457701D01*
X159742912Y-106430260D01*
X159673145Y-106409097D01*
X159619288Y-106380309D01*
X159525483Y-106330170D01*
X159396052Y-106223948D01*
X159289830Y-106094517D01*
X159239691Y-106000712D01*
X159210903Y-105946855D01*
X159162300Y-105786629D01*
X159162299Y-105786627D01*
X159145887Y-105620000D01*
X159162299Y-105453373D01*
X159210903Y-105293146D01*
X159210903Y-105293145D01*
X159239691Y-105239288D01*
X159289830Y-105145483D01*
X159396052Y-105016052D01*
X159525483Y-104909830D01*
X159619288Y-104859691D01*
X159673145Y-104830903D01*
X159742912Y-104809740D01*
X159833373Y-104782299D01*
X159958243Y-104770000D01*
X160041757Y-104770000D01*
X160166627Y-104782299D01*
X160166627Y-104782299D01*
G37*
G36*
X160166627Y-102242299D02*
X160257088Y-102269740D01*
X160326855Y-102290903D01*
X160380712Y-102319691D01*
X160474517Y-102369830D01*
X160603948Y-102476052D01*
X160710170Y-102605483D01*
X160760309Y-102699288D01*
X160789097Y-102753145D01*
X160789097Y-102753146D01*
X160837701Y-102913373D01*
X160854113Y-103080000D01*
X160837701Y-103246627D01*
X160837700Y-103246629D01*
X160789097Y-103406855D01*
X160760309Y-103460712D01*
X160710170Y-103554517D01*
X160603948Y-103683948D01*
X160474517Y-103790170D01*
X160380712Y-103840309D01*
X160326855Y-103869097D01*
X160257088Y-103890260D01*
X160166627Y-103917701D01*
X160041757Y-103930000D01*
X159958243Y-103930000D01*
X159833373Y-103917701D01*
X159742912Y-103890260D01*
X159673145Y-103869097D01*
X159619288Y-103840309D01*
X159525483Y-103790170D01*
X159396052Y-103683948D01*
X159289830Y-103554517D01*
X159239691Y-103460712D01*
X159210903Y-103406855D01*
X159162300Y-103246629D01*
X159162299Y-103246627D01*
X159145887Y-103080000D01*
X159162299Y-102913373D01*
X159210903Y-102753146D01*
X159210903Y-102753145D01*
X159239691Y-102699288D01*
X159289830Y-102605483D01*
X159396052Y-102476052D01*
X159525483Y-102369830D01*
X159619288Y-102319691D01*
X159673145Y-102290903D01*
X159742912Y-102269740D01*
X159833373Y-102242299D01*
X159958243Y-102230000D01*
X160041757Y-102230000D01*
X160166627Y-102242299D01*
X160166627Y-102242299D01*
G37*
G36*
X160166627Y-99702299D02*
X160257088Y-99729740D01*
X160326855Y-99750903D01*
X160380712Y-99779691D01*
X160474517Y-99829830D01*
X160603948Y-99936052D01*
X160710170Y-100065483D01*
X160760309Y-100159288D01*
X160789097Y-100213145D01*
X160789097Y-100213146D01*
X160837701Y-100373373D01*
X160854113Y-100540000D01*
X160837701Y-100706627D01*
X160837700Y-100706629D01*
X160789097Y-100866855D01*
X160760309Y-100920712D01*
X160710170Y-101014517D01*
X160603948Y-101143948D01*
X160474517Y-101250170D01*
X160380712Y-101300309D01*
X160326855Y-101329097D01*
X160257088Y-101350260D01*
X160166627Y-101377701D01*
X160041757Y-101390000D01*
X159958243Y-101390000D01*
X159833373Y-101377701D01*
X159742912Y-101350260D01*
X159673145Y-101329097D01*
X159619288Y-101300309D01*
X159525483Y-101250170D01*
X159396052Y-101143948D01*
X159289830Y-101014517D01*
X159239691Y-100920712D01*
X159210903Y-100866855D01*
X159162300Y-100706629D01*
X159162299Y-100706627D01*
X159145887Y-100540000D01*
X159162299Y-100373373D01*
X159210903Y-100213146D01*
X159210903Y-100213145D01*
X159239691Y-100159288D01*
X159289830Y-100065483D01*
X159396052Y-99936052D01*
X159525483Y-99829830D01*
X159619288Y-99779691D01*
X159673145Y-99750903D01*
X159742912Y-99729740D01*
X159833373Y-99702299D01*
X159958243Y-99690000D01*
X160041757Y-99690000D01*
X160166627Y-99702299D01*
X160166627Y-99702299D01*
G37*
G36*
X160850000Y-98850000D02*
X159150000Y-98850000D01*
X159150000Y-97150000D01*
X160850000Y-97150000D01*
X160850000Y-98850000D01*
X160850000Y-98850000D01*
G37*
G36*
X153222267Y-94267283D02*
X153222269Y-94267284D01*
X153222270Y-94267284D01*
X153360942Y-94324724D01*
X153485747Y-94408116D01*
X153591884Y-94514253D01*
X153675276Y-94639058D01*
X153732717Y-94777733D01*
X153762000Y-94924950D01*
X153762000Y-95075050D01*
X153732717Y-95222267D01*
X153675276Y-95360942D01*
X153591884Y-95485747D01*
X153485747Y-95591884D01*
X153360942Y-95675276D01*
X153222270Y-95732716D01*
X153222269Y-95732716D01*
X153222267Y-95732717D01*
X153075050Y-95762000D01*
X152924950Y-95762000D01*
X152777733Y-95732717D01*
X152777731Y-95732716D01*
X152777730Y-95732716D01*
X152639058Y-95675276D01*
X152514253Y-95591884D01*
X152408116Y-95485747D01*
X152324724Y-95360942D01*
X152267283Y-95222267D01*
X152238000Y-95075050D01*
X152238000Y-94924950D01*
X152267283Y-94777733D01*
X152324724Y-94639058D01*
X152408116Y-94514253D01*
X152514253Y-94408116D01*
X152639058Y-94324724D01*
X152777730Y-94267284D01*
X152777731Y-94267284D01*
X152777733Y-94267283D01*
X152924950Y-94238000D01*
X153075050Y-94238000D01*
X153222267Y-94267283D01*
X153222267Y-94267283D01*
G37*
G36*
X131222267Y-94267283D02*
X131222269Y-94267284D01*
X131222270Y-94267284D01*
X131360942Y-94324724D01*
X131485747Y-94408116D01*
X131591884Y-94514253D01*
X131675276Y-94639058D01*
X131732717Y-94777733D01*
X131762000Y-94924950D01*
X131762000Y-95075050D01*
X131732717Y-95222267D01*
X131675276Y-95360942D01*
X131591884Y-95485747D01*
X131485747Y-95591884D01*
X131360942Y-95675276D01*
X131222270Y-95732716D01*
X131222269Y-95732716D01*
X131222267Y-95732717D01*
X131075050Y-95762000D01*
X130924950Y-95762000D01*
X130777733Y-95732717D01*
X130777731Y-95732716D01*
X130777730Y-95732716D01*
X130639058Y-95675276D01*
X130514253Y-95591884D01*
X130408116Y-95485747D01*
X130324724Y-95360942D01*
X130267283Y-95222267D01*
X130238000Y-95075050D01*
X130238000Y-94924950D01*
X130267283Y-94777733D01*
X130324724Y-94639058D01*
X130408116Y-94514253D01*
X130514253Y-94408116D01*
X130639058Y-94324724D01*
X130777730Y-94267284D01*
X130777731Y-94267284D01*
X130777733Y-94267283D01*
X130924950Y-94238000D01*
X131075050Y-94238000D01*
X131222267Y-94267283D01*
X131222267Y-94267283D01*
G37*
G36*
X160166627Y-93242299D02*
X160257088Y-93269740D01*
X160326855Y-93290903D01*
X160380712Y-93319691D01*
X160474517Y-93369830D01*
X160603948Y-93476052D01*
X160710170Y-93605483D01*
X160747475Y-93675276D01*
X160789097Y-93753145D01*
X160789097Y-93753146D01*
X160837701Y-93913373D01*
X160854113Y-94080000D01*
X160837701Y-94246627D01*
X160837700Y-94246629D01*
X160789097Y-94406855D01*
X160760309Y-94460712D01*
X160710170Y-94554517D01*
X160603948Y-94683948D01*
X160474517Y-94790170D01*
X160380712Y-94840309D01*
X160326855Y-94869097D01*
X160257088Y-94890260D01*
X160166627Y-94917701D01*
X160041757Y-94930000D01*
X159958243Y-94930000D01*
X159833373Y-94917701D01*
X159742912Y-94890260D01*
X159673145Y-94869097D01*
X159619288Y-94840309D01*
X159525483Y-94790170D01*
X159396052Y-94683948D01*
X159289830Y-94554517D01*
X159239691Y-94460712D01*
X159210903Y-94406855D01*
X159162300Y-94246629D01*
X159162299Y-94246627D01*
X159145887Y-94080000D01*
X159162299Y-93913373D01*
X159210903Y-93753146D01*
X159210903Y-93753145D01*
X159252525Y-93675276D01*
X159289830Y-93605483D01*
X159396052Y-93476052D01*
X159525483Y-93369830D01*
X159619288Y-93319691D01*
X159673145Y-93290903D01*
X159742912Y-93269740D01*
X159833373Y-93242299D01*
X159958243Y-93230000D01*
X160041757Y-93230000D01*
X160166627Y-93242299D01*
X160166627Y-93242299D01*
G37*
G36*
X131222267Y-92267283D02*
X131222269Y-92267284D01*
X131222270Y-92267284D01*
X131360942Y-92324724D01*
X131485747Y-92408116D01*
X131591884Y-92514253D01*
X131591885Y-92514255D01*
X131675276Y-92639058D01*
X131732716Y-92777730D01*
X131762000Y-92924951D01*
X131762000Y-93075049D01*
X131732716Y-93222270D01*
X131724419Y-93242300D01*
X131675276Y-93360942D01*
X131591884Y-93485747D01*
X131485747Y-93591884D01*
X131360942Y-93675276D01*
X131222270Y-93732716D01*
X131222269Y-93732716D01*
X131222267Y-93732717D01*
X131075050Y-93762000D01*
X130924950Y-93762000D01*
X130777733Y-93732717D01*
X130777731Y-93732716D01*
X130777730Y-93732716D01*
X130639058Y-93675276D01*
X130514253Y-93591884D01*
X130408116Y-93485747D01*
X130324724Y-93360942D01*
X130275581Y-93242300D01*
X130267284Y-93222270D01*
X130238000Y-93075049D01*
X130238000Y-92924951D01*
X130267284Y-92777730D01*
X130324724Y-92639058D01*
X130408115Y-92514255D01*
X130408116Y-92514253D01*
X130514253Y-92408116D01*
X130639058Y-92324724D01*
X130777730Y-92267284D01*
X130777731Y-92267284D01*
X130777733Y-92267283D01*
X130924950Y-92238000D01*
X131075050Y-92238000D01*
X131222267Y-92267283D01*
X131222267Y-92267283D01*
G37*
G36*
X153222267Y-92267283D02*
X153222269Y-92267284D01*
X153222270Y-92267284D01*
X153360942Y-92324724D01*
X153485747Y-92408116D01*
X153591884Y-92514253D01*
X153591885Y-92514255D01*
X153675276Y-92639058D01*
X153732716Y-92777730D01*
X153762000Y-92924951D01*
X153762000Y-93075049D01*
X153732716Y-93222270D01*
X153724419Y-93242300D01*
X153675276Y-93360942D01*
X153591884Y-93485747D01*
X153485747Y-93591884D01*
X153360942Y-93675276D01*
X153222270Y-93732716D01*
X153222269Y-93732716D01*
X153222267Y-93732717D01*
X153075050Y-93762000D01*
X152924950Y-93762000D01*
X152777733Y-93732717D01*
X152777731Y-93732716D01*
X152777730Y-93732716D01*
X152639058Y-93675276D01*
X152514253Y-93591884D01*
X152408116Y-93485747D01*
X152324724Y-93360942D01*
X152275581Y-93242300D01*
X152267284Y-93222270D01*
X152238000Y-93075049D01*
X152238000Y-92924951D01*
X152267284Y-92777730D01*
X152324724Y-92639058D01*
X152408115Y-92514255D01*
X152408116Y-92514253D01*
X152514253Y-92408116D01*
X152639058Y-92324724D01*
X152777730Y-92267284D01*
X152777731Y-92267284D01*
X152777733Y-92267283D01*
X152924950Y-92238000D01*
X153075050Y-92238000D01*
X153222267Y-92267283D01*
X153222267Y-92267283D01*
G37*
G36*
X160166627Y-90702299D02*
X160257088Y-90729740D01*
X160326855Y-90750903D01*
X160377044Y-90777730D01*
X160474517Y-90829830D01*
X160603948Y-90936052D01*
X160710170Y-91065483D01*
X160760309Y-91159288D01*
X160789097Y-91213145D01*
X160789097Y-91213146D01*
X160837701Y-91373373D01*
X160854113Y-91540000D01*
X160837701Y-91706627D01*
X160820904Y-91762000D01*
X160789097Y-91866855D01*
X160760309Y-91920712D01*
X160710170Y-92014517D01*
X160603948Y-92143948D01*
X160474517Y-92250170D01*
X160380712Y-92300309D01*
X160326855Y-92329097D01*
X160257088Y-92350260D01*
X160166627Y-92377701D01*
X160041757Y-92390000D01*
X159958243Y-92390000D01*
X159833373Y-92377701D01*
X159742912Y-92350260D01*
X159673145Y-92329097D01*
X159619288Y-92300309D01*
X159525483Y-92250170D01*
X159396052Y-92143948D01*
X159289830Y-92014517D01*
X159239691Y-91920712D01*
X159210903Y-91866855D01*
X159179096Y-91762000D01*
X159162299Y-91706627D01*
X159145887Y-91540000D01*
X159162299Y-91373373D01*
X159210903Y-91213146D01*
X159210903Y-91213145D01*
X159239691Y-91159288D01*
X159289830Y-91065483D01*
X159396052Y-90936052D01*
X159525483Y-90829830D01*
X159622956Y-90777730D01*
X159673145Y-90750903D01*
X159742912Y-90729740D01*
X159833373Y-90702299D01*
X159958243Y-90690000D01*
X160041757Y-90690000D01*
X160166627Y-90702299D01*
X160166627Y-90702299D01*
G37*
G36*
X153222267Y-90267283D02*
X153222269Y-90267284D01*
X153222270Y-90267284D01*
X153360942Y-90324724D01*
X153485747Y-90408116D01*
X153591884Y-90514253D01*
X153675276Y-90639058D01*
X153732717Y-90777733D01*
X153762000Y-90924950D01*
X153762000Y-91075050D01*
X153732717Y-91222267D01*
X153675276Y-91360942D01*
X153591884Y-91485747D01*
X153485747Y-91591884D01*
X153360942Y-91675276D01*
X153222270Y-91732716D01*
X153222269Y-91732716D01*
X153222267Y-91732717D01*
X153075050Y-91762000D01*
X152924950Y-91762000D01*
X152777733Y-91732717D01*
X152777731Y-91732716D01*
X152777730Y-91732716D01*
X152639058Y-91675276D01*
X152514253Y-91591884D01*
X152408116Y-91485747D01*
X152324724Y-91360942D01*
X152267283Y-91222267D01*
X152238000Y-91075050D01*
X152238000Y-90924950D01*
X152267283Y-90777733D01*
X152324724Y-90639058D01*
X152408116Y-90514253D01*
X152514253Y-90408116D01*
X152639058Y-90324724D01*
X152777730Y-90267284D01*
X152777731Y-90267284D01*
X152777733Y-90267283D01*
X152924950Y-90238000D01*
X153075050Y-90238000D01*
X153222267Y-90267283D01*
X153222267Y-90267283D01*
G37*
G36*
X131222267Y-90267283D02*
X131222269Y-90267284D01*
X131222270Y-90267284D01*
X131360942Y-90324724D01*
X131485747Y-90408116D01*
X131591884Y-90514253D01*
X131675276Y-90639058D01*
X131732717Y-90777733D01*
X131762000Y-90924950D01*
X131762000Y-91075050D01*
X131732717Y-91222267D01*
X131675276Y-91360942D01*
X131591884Y-91485747D01*
X131485747Y-91591884D01*
X131360942Y-91675276D01*
X131222270Y-91732716D01*
X131222269Y-91732716D01*
X131222267Y-91732717D01*
X131075050Y-91762000D01*
X130924950Y-91762000D01*
X130777733Y-91732717D01*
X130777731Y-91732716D01*
X130777730Y-91732716D01*
X130639058Y-91675276D01*
X130514253Y-91591884D01*
X130408116Y-91485747D01*
X130324724Y-91360942D01*
X130267283Y-91222267D01*
X130238000Y-91075050D01*
X130238000Y-90924950D01*
X130267283Y-90777733D01*
X130324724Y-90639058D01*
X130408116Y-90514253D01*
X130514253Y-90408116D01*
X130639058Y-90324724D01*
X130777730Y-90267284D01*
X130777731Y-90267284D01*
X130777733Y-90267283D01*
X130924950Y-90238000D01*
X131075050Y-90238000D01*
X131222267Y-90267283D01*
X131222267Y-90267283D01*
G37*
G36*
X125350000Y-91350000D02*
X123650000Y-91350000D01*
X123650000Y-89650000D01*
X125350000Y-89650000D01*
X125350000Y-91350000D01*
X125350000Y-91350000D01*
G37*
G36*
X127206627Y-89662299D02*
X127297088Y-89689740D01*
X127366855Y-89710903D01*
X127420712Y-89739691D01*
X127514517Y-89789830D01*
X127643948Y-89896052D01*
X127750170Y-90025483D01*
X127800309Y-90119288D01*
X127829097Y-90173145D01*
X127829097Y-90173146D01*
X127877701Y-90333373D01*
X127894113Y-90500000D01*
X127877701Y-90666627D01*
X127877700Y-90666629D01*
X127829097Y-90826855D01*
X127800309Y-90880712D01*
X127750170Y-90974517D01*
X127643948Y-91103948D01*
X127514517Y-91210170D01*
X127420712Y-91260309D01*
X127366855Y-91289097D01*
X127297088Y-91310260D01*
X127206627Y-91337701D01*
X127081757Y-91350000D01*
X126998243Y-91350000D01*
X126873373Y-91337701D01*
X126782912Y-91310260D01*
X126713145Y-91289097D01*
X126659288Y-91260309D01*
X126565483Y-91210170D01*
X126436052Y-91103948D01*
X126329830Y-90974517D01*
X126279691Y-90880712D01*
X126250903Y-90826855D01*
X126202300Y-90666629D01*
X126202299Y-90666627D01*
X126185887Y-90500000D01*
X126202299Y-90333373D01*
X126250903Y-90173146D01*
X126250903Y-90173145D01*
X126279691Y-90119288D01*
X126329830Y-90025483D01*
X126436052Y-89896052D01*
X126565483Y-89789830D01*
X126659288Y-89739691D01*
X126713145Y-89710903D01*
X126782912Y-89689740D01*
X126873373Y-89662299D01*
X126998243Y-89650000D01*
X127081757Y-89650000D01*
X127206627Y-89662299D01*
X127206627Y-89662299D01*
G37*
G36*
X160850000Y-89850000D02*
X159150000Y-89850000D01*
X159150000Y-88150000D01*
X160850000Y-88150000D01*
X160850000Y-89850000D01*
X160850000Y-89850000D01*
G37*
G36*
X131222267Y-88267283D02*
X131222269Y-88267284D01*
X131222270Y-88267284D01*
X131360942Y-88324724D01*
X131485747Y-88408116D01*
X131591884Y-88514253D01*
X131675276Y-88639058D01*
X131732717Y-88777733D01*
X131762000Y-88924950D01*
X131762000Y-89075050D01*
X131732717Y-89222267D01*
X131675276Y-89360942D01*
X131591884Y-89485747D01*
X131485747Y-89591884D01*
X131398770Y-89650000D01*
X131360942Y-89675276D01*
X131222270Y-89732716D01*
X131222269Y-89732716D01*
X131222267Y-89732717D01*
X131075050Y-89762000D01*
X130924950Y-89762000D01*
X130777733Y-89732717D01*
X130777731Y-89732716D01*
X130777730Y-89732716D01*
X130639058Y-89675276D01*
X130601230Y-89650000D01*
X130514253Y-89591884D01*
X130408116Y-89485747D01*
X130324724Y-89360942D01*
X130267283Y-89222267D01*
X130238000Y-89075050D01*
X130238000Y-88924950D01*
X130267283Y-88777733D01*
X130324724Y-88639058D01*
X130408116Y-88514253D01*
X130514253Y-88408116D01*
X130639058Y-88324724D01*
X130777730Y-88267284D01*
X130777731Y-88267284D01*
X130777733Y-88267283D01*
X130924950Y-88238000D01*
X131075050Y-88238000D01*
X131222267Y-88267283D01*
X131222267Y-88267283D01*
G37*
G36*
X153222267Y-88267283D02*
X153222269Y-88267284D01*
X153222270Y-88267284D01*
X153360942Y-88324724D01*
X153485747Y-88408116D01*
X153591884Y-88514253D01*
X153675276Y-88639058D01*
X153732717Y-88777733D01*
X153762000Y-88924950D01*
X153762000Y-89075050D01*
X153732717Y-89222267D01*
X153675276Y-89360942D01*
X153591884Y-89485747D01*
X153485747Y-89591884D01*
X153398770Y-89650000D01*
X153360942Y-89675276D01*
X153222270Y-89732716D01*
X153222269Y-89732716D01*
X153222267Y-89732717D01*
X153075050Y-89762000D01*
X152924950Y-89762000D01*
X152777733Y-89732717D01*
X152777731Y-89732716D01*
X152777730Y-89732716D01*
X152639058Y-89675276D01*
X152601230Y-89650000D01*
X152514253Y-89591884D01*
X152408116Y-89485747D01*
X152324724Y-89360942D01*
X152267283Y-89222267D01*
X152238000Y-89075050D01*
X152238000Y-88924950D01*
X152267283Y-88777733D01*
X152324724Y-88639058D01*
X152408116Y-88514253D01*
X152514253Y-88408116D01*
X152639058Y-88324724D01*
X152777730Y-88267284D01*
X152777731Y-88267284D01*
X152777733Y-88267283D01*
X152924950Y-88238000D01*
X153075050Y-88238000D01*
X153222267Y-88267283D01*
X153222267Y-88267283D01*
G37*
G36*
X131222267Y-86267283D02*
X131222269Y-86267284D01*
X131222270Y-86267284D01*
X131360942Y-86324724D01*
X131485747Y-86408116D01*
X131591884Y-86514253D01*
X131675276Y-86639058D01*
X131732717Y-86777733D01*
X131762000Y-86924950D01*
X131762000Y-87075050D01*
X131732717Y-87222267D01*
X131675276Y-87360942D01*
X131591884Y-87485747D01*
X131485747Y-87591884D01*
X131360942Y-87675276D01*
X131222270Y-87732716D01*
X131222269Y-87732716D01*
X131222267Y-87732717D01*
X131075050Y-87762000D01*
X130924950Y-87762000D01*
X130777733Y-87732717D01*
X130777731Y-87732716D01*
X130777730Y-87732716D01*
X130639058Y-87675276D01*
X130514253Y-87591884D01*
X130408116Y-87485747D01*
X130324724Y-87360942D01*
X130267283Y-87222267D01*
X130238000Y-87075050D01*
X130238000Y-86924950D01*
X130267283Y-86777733D01*
X130324724Y-86639058D01*
X130408116Y-86514253D01*
X130514253Y-86408116D01*
X130639058Y-86324724D01*
X130777730Y-86267284D01*
X130777731Y-86267284D01*
X130777733Y-86267283D01*
X130924950Y-86238000D01*
X131075050Y-86238000D01*
X131222267Y-86267283D01*
X131222267Y-86267283D01*
G37*
G36*
X153222267Y-86267283D02*
X153222269Y-86267284D01*
X153222270Y-86267284D01*
X153360942Y-86324724D01*
X153485747Y-86408116D01*
X153591884Y-86514253D01*
X153675276Y-86639058D01*
X153732717Y-86777733D01*
X153762000Y-86924950D01*
X153762000Y-87075050D01*
X153732717Y-87222267D01*
X153675276Y-87360942D01*
X153591884Y-87485747D01*
X153485747Y-87591884D01*
X153360942Y-87675276D01*
X153222270Y-87732716D01*
X153222269Y-87732716D01*
X153222267Y-87732717D01*
X153075050Y-87762000D01*
X152924950Y-87762000D01*
X152777733Y-87732717D01*
X152777731Y-87732716D01*
X152777730Y-87732716D01*
X152639058Y-87675276D01*
X152514253Y-87591884D01*
X152408116Y-87485747D01*
X152324724Y-87360942D01*
X152267283Y-87222267D01*
X152238000Y-87075050D01*
X152238000Y-86924950D01*
X152267283Y-86777733D01*
X152324724Y-86639058D01*
X152408116Y-86514253D01*
X152514253Y-86408116D01*
X152639058Y-86324724D01*
X152777730Y-86267284D01*
X152777731Y-86267284D01*
X152777733Y-86267283D01*
X152924950Y-86238000D01*
X153075050Y-86238000D01*
X153222267Y-86267283D01*
X153222267Y-86267283D01*
G37*
G36*
X160355856Y-83197813D02*
X160406753Y-83213253D01*
X160457649Y-83228692D01*
X160457651Y-83228693D01*
X160551459Y-83278834D01*
X160633685Y-83346315D01*
X160701166Y-83428541D01*
X160751307Y-83522349D01*
X160782187Y-83624144D01*
X160792613Y-83730000D01*
X160782187Y-83835856D01*
X160751307Y-83937651D01*
X160701166Y-84031459D01*
X160633685Y-84113685D01*
X160551459Y-84181166D01*
X160457651Y-84231307D01*
X160457649Y-84231308D01*
X160435588Y-84238000D01*
X160355856Y-84262187D01*
X160322398Y-84265482D01*
X160303171Y-84269306D01*
X160285060Y-84276808D01*
X160268761Y-84287699D01*
X160254899Y-84301561D01*
X160244008Y-84317860D01*
X160236506Y-84335972D01*
X160232682Y-84355198D01*
X160232682Y-84374802D01*
X160236506Y-84394029D01*
X160244008Y-84412140D01*
X160254899Y-84428439D01*
X160268761Y-84442301D01*
X160285060Y-84453192D01*
X160303172Y-84460694D01*
X160322398Y-84464518D01*
X160355856Y-84467813D01*
X160406754Y-84483253D01*
X160457649Y-84498692D01*
X160457651Y-84498693D01*
X160551459Y-84548834D01*
X160633685Y-84616315D01*
X160701166Y-84698541D01*
X160751307Y-84792349D01*
X160782187Y-84894144D01*
X160792613Y-85000000D01*
X160782187Y-85105856D01*
X160751307Y-85207651D01*
X160701166Y-85301459D01*
X160633685Y-85383685D01*
X160551459Y-85451166D01*
X160457651Y-85501307D01*
X160457649Y-85501308D01*
X160355858Y-85532186D01*
X160348869Y-85534306D01*
X160330758Y-85541808D01*
X160314459Y-85552699D01*
X160300597Y-85566561D01*
X160289706Y-85582860D01*
X160282204Y-85600972D01*
X160278380Y-85620198D01*
X160278380Y-85639802D01*
X160282204Y-85659029D01*
X160289706Y-85677140D01*
X160300597Y-85693439D01*
X160314459Y-85707301D01*
X160330758Y-85718192D01*
X160348870Y-85725694D01*
X160377898Y-85730000D01*
X160790000Y-85730000D01*
X160790000Y-86810000D01*
X159210000Y-86810000D01*
X159210000Y-85730000D01*
X159622102Y-85730000D01*
X159641611Y-85728079D01*
X159660370Y-85722388D01*
X159677659Y-85713147D01*
X159692813Y-85700711D01*
X159705249Y-85685557D01*
X159714490Y-85668268D01*
X159720181Y-85649509D01*
X159722102Y-85630000D01*
X159720181Y-85610491D01*
X159714490Y-85591732D01*
X159705249Y-85574443D01*
X159692813Y-85559289D01*
X159677659Y-85546853D01*
X159651131Y-85534306D01*
X159644142Y-85532186D01*
X159542351Y-85501308D01*
X159542349Y-85501307D01*
X159448541Y-85451166D01*
X159366315Y-85383685D01*
X159298834Y-85301459D01*
X159248693Y-85207651D01*
X159217813Y-85105856D01*
X159207387Y-85000000D01*
X159217813Y-84894144D01*
X159248693Y-84792349D01*
X159298834Y-84698541D01*
X159366315Y-84616315D01*
X159448541Y-84548834D01*
X159542349Y-84498693D01*
X159542351Y-84498692D01*
X159593246Y-84483253D01*
X159644144Y-84467813D01*
X159677602Y-84464518D01*
X159696829Y-84460694D01*
X159714940Y-84453192D01*
X159731239Y-84442301D01*
X159745101Y-84428439D01*
X159755992Y-84412140D01*
X159763494Y-84394028D01*
X159767318Y-84374802D01*
X159767318Y-84355198D01*
X159763494Y-84335971D01*
X159755992Y-84317860D01*
X159745101Y-84301561D01*
X159731239Y-84287699D01*
X159714940Y-84276808D01*
X159696828Y-84269306D01*
X159677602Y-84265482D01*
X159644144Y-84262187D01*
X159564412Y-84238000D01*
X159542351Y-84231308D01*
X159542349Y-84231307D01*
X159448541Y-84181166D01*
X159366315Y-84113685D01*
X159298834Y-84031459D01*
X159248693Y-83937651D01*
X159217813Y-83835856D01*
X159207387Y-83730000D01*
X159217813Y-83624144D01*
X159248693Y-83522349D01*
X159298834Y-83428541D01*
X159366315Y-83346315D01*
X159448541Y-83278834D01*
X159542349Y-83228693D01*
X159542351Y-83228692D01*
X159593247Y-83213253D01*
X159644144Y-83197813D01*
X159723474Y-83190000D01*
X160276526Y-83190000D01*
X160355856Y-83197813D01*
X160355856Y-83197813D01*
G37*
G36*
X131222267Y-84267283D02*
X131222269Y-84267284D01*
X131222270Y-84267284D01*
X131271556Y-84287699D01*
X131360942Y-84324724D01*
X131485747Y-84408116D01*
X131591884Y-84514253D01*
X131675276Y-84639058D01*
X131732717Y-84777733D01*
X131762000Y-84924950D01*
X131762000Y-85075050D01*
X131732717Y-85222267D01*
X131675276Y-85360942D01*
X131591884Y-85485747D01*
X131485747Y-85591884D01*
X131399505Y-85649509D01*
X131360942Y-85675276D01*
X131222270Y-85732716D01*
X131222269Y-85732716D01*
X131222267Y-85732717D01*
X131075050Y-85762000D01*
X130924950Y-85762000D01*
X130777733Y-85732717D01*
X130777731Y-85732716D01*
X130777730Y-85732716D01*
X130639058Y-85675276D01*
X130600495Y-85649509D01*
X130514253Y-85591884D01*
X130408116Y-85485747D01*
X130324724Y-85360942D01*
X130267283Y-85222267D01*
X130238000Y-85075050D01*
X130238000Y-84924950D01*
X130267283Y-84777733D01*
X130324724Y-84639058D01*
X130408116Y-84514253D01*
X130514253Y-84408116D01*
X130639058Y-84324724D01*
X130728444Y-84287699D01*
X130777730Y-84267284D01*
X130777731Y-84267284D01*
X130777733Y-84267283D01*
X130924950Y-84238000D01*
X131075050Y-84238000D01*
X131222267Y-84267283D01*
X131222267Y-84267283D01*
G37*
G36*
X153222267Y-84267283D02*
X153222269Y-84267284D01*
X153222270Y-84267284D01*
X153271556Y-84287699D01*
X153360942Y-84324724D01*
X153485747Y-84408116D01*
X153591884Y-84514253D01*
X153675276Y-84639058D01*
X153732717Y-84777733D01*
X153762000Y-84924950D01*
X153762000Y-85075050D01*
X153732717Y-85222267D01*
X153675276Y-85360942D01*
X153591884Y-85485747D01*
X153485747Y-85591884D01*
X153399505Y-85649509D01*
X153360942Y-85675276D01*
X153222270Y-85732716D01*
X153222269Y-85732716D01*
X153222267Y-85732717D01*
X153075050Y-85762000D01*
X152924950Y-85762000D01*
X152777733Y-85732717D01*
X152777731Y-85732716D01*
X152777730Y-85732716D01*
X152639058Y-85675276D01*
X152600495Y-85649509D01*
X152514253Y-85591884D01*
X152408116Y-85485747D01*
X152324724Y-85360942D01*
X152267283Y-85222267D01*
X152238000Y-85075050D01*
X152238000Y-84924950D01*
X152267283Y-84777733D01*
X152324724Y-84639058D01*
X152408116Y-84514253D01*
X152514253Y-84408116D01*
X152639058Y-84324724D01*
X152728444Y-84287699D01*
X152777730Y-84267284D01*
X152777731Y-84267284D01*
X152777733Y-84267283D01*
X152924950Y-84238000D01*
X153075050Y-84238000D01*
X153222267Y-84267283D01*
X153222267Y-84267283D01*
G37*
G36*
X153222267Y-82267283D02*
X153222269Y-82267284D01*
X153222270Y-82267284D01*
X153360942Y-82324724D01*
X153485747Y-82408116D01*
X153591884Y-82514253D01*
X153675276Y-82639058D01*
X153732717Y-82777733D01*
X153762000Y-82924950D01*
X153762000Y-83075050D01*
X153732717Y-83222267D01*
X153675276Y-83360942D01*
X153591884Y-83485747D01*
X153485747Y-83591884D01*
X153437469Y-83624142D01*
X153360942Y-83675276D01*
X153222270Y-83732716D01*
X153222269Y-83732716D01*
X153222267Y-83732717D01*
X153075050Y-83762000D01*
X152924950Y-83762000D01*
X152777733Y-83732717D01*
X152777731Y-83732716D01*
X152777730Y-83732716D01*
X152639058Y-83675276D01*
X152562531Y-83624142D01*
X152514253Y-83591884D01*
X152408116Y-83485747D01*
X152324724Y-83360942D01*
X152267283Y-83222267D01*
X152238000Y-83075050D01*
X152238000Y-82924950D01*
X152267283Y-82777733D01*
X152324724Y-82639058D01*
X152408116Y-82514253D01*
X152514253Y-82408116D01*
X152639058Y-82324724D01*
X152777730Y-82267284D01*
X152777731Y-82267284D01*
X152777733Y-82267283D01*
X152924950Y-82238000D01*
X153075050Y-82238000D01*
X153222267Y-82267283D01*
X153222267Y-82267283D01*
G37*
G36*
X131222267Y-82267283D02*
X131222269Y-82267284D01*
X131222270Y-82267284D01*
X131360942Y-82324724D01*
X131485747Y-82408116D01*
X131591884Y-82514253D01*
X131675276Y-82639058D01*
X131732717Y-82777733D01*
X131762000Y-82924950D01*
X131762000Y-83075050D01*
X131732717Y-83222267D01*
X131675276Y-83360942D01*
X131591884Y-83485747D01*
X131485747Y-83591884D01*
X131437469Y-83624142D01*
X131360942Y-83675276D01*
X131222270Y-83732716D01*
X131222269Y-83732716D01*
X131222267Y-83732717D01*
X131075050Y-83762000D01*
X130924950Y-83762000D01*
X130777733Y-83732717D01*
X130777731Y-83732716D01*
X130777730Y-83732716D01*
X130639058Y-83675276D01*
X130562531Y-83624142D01*
X130514253Y-83591884D01*
X130408116Y-83485747D01*
X130324724Y-83360942D01*
X130267283Y-83222267D01*
X130238000Y-83075050D01*
X130238000Y-82924950D01*
X130267283Y-82777733D01*
X130324724Y-82639058D01*
X130408116Y-82514253D01*
X130514253Y-82408116D01*
X130639058Y-82324724D01*
X130777730Y-82267284D01*
X130777731Y-82267284D01*
X130777733Y-82267283D01*
X130924950Y-82238000D01*
X131075050Y-82238000D01*
X131222267Y-82267283D01*
X131222267Y-82267283D01*
G37*
G36*
X153222267Y-80267283D02*
X153222269Y-80267284D01*
X153222270Y-80267284D01*
X153360942Y-80324724D01*
X153485747Y-80408116D01*
X153591884Y-80514253D01*
X153675276Y-80639058D01*
X153732717Y-80777733D01*
X153762000Y-80924950D01*
X153762000Y-81075050D01*
X153732717Y-81222267D01*
X153675276Y-81360942D01*
X153591884Y-81485747D01*
X153485747Y-81591884D01*
X153360942Y-81675276D01*
X153222270Y-81732716D01*
X153222269Y-81732716D01*
X153222267Y-81732717D01*
X153075050Y-81762000D01*
X152924950Y-81762000D01*
X152777733Y-81732717D01*
X152777731Y-81732716D01*
X152777730Y-81732716D01*
X152639058Y-81675276D01*
X152514253Y-81591884D01*
X152408116Y-81485747D01*
X152324724Y-81360942D01*
X152267283Y-81222267D01*
X152238000Y-81075050D01*
X152238000Y-80924950D01*
X152267283Y-80777733D01*
X152324724Y-80639058D01*
X152408116Y-80514253D01*
X152514253Y-80408116D01*
X152639058Y-80324724D01*
X152777730Y-80267284D01*
X152777731Y-80267284D01*
X152777733Y-80267283D01*
X152924950Y-80238000D01*
X153075050Y-80238000D01*
X153222267Y-80267283D01*
X153222267Y-80267283D01*
G37*
G36*
X131222267Y-80267283D02*
X131222269Y-80267284D01*
X131222270Y-80267284D01*
X131360942Y-80324724D01*
X131485747Y-80408116D01*
X131591884Y-80514253D01*
X131675276Y-80639058D01*
X131732717Y-80777733D01*
X131762000Y-80924950D01*
X131762000Y-81075050D01*
X131732717Y-81222267D01*
X131675276Y-81360942D01*
X131591884Y-81485747D01*
X131485747Y-81591884D01*
X131360942Y-81675276D01*
X131222270Y-81732716D01*
X131222269Y-81732716D01*
X131222267Y-81732717D01*
X131075050Y-81762000D01*
X130924950Y-81762000D01*
X130777733Y-81732717D01*
X130777731Y-81732716D01*
X130777730Y-81732716D01*
X130639058Y-81675276D01*
X130514253Y-81591884D01*
X130408116Y-81485747D01*
X130324724Y-81360942D01*
X130267283Y-81222267D01*
X130238000Y-81075050D01*
X130238000Y-80924950D01*
X130267283Y-80777733D01*
X130324724Y-80639058D01*
X130408116Y-80514253D01*
X130514253Y-80408116D01*
X130639058Y-80324724D01*
X130777730Y-80267284D01*
X130777731Y-80267284D01*
X130777733Y-80267283D01*
X130924950Y-80238000D01*
X131075050Y-80238000D01*
X131222267Y-80267283D01*
X131222267Y-80267283D01*
G37*
G36*
X158966703Y-76961487D02*
X158966705Y-76961488D01*
X158966706Y-76961488D01*
X159257884Y-77082098D01*
X159519939Y-77257197D01*
X159742803Y-77480061D01*
X159817521Y-77591885D01*
X159917902Y-77742116D01*
X160038513Y-78033297D01*
X160096481Y-78324724D01*
X160100000Y-78342416D01*
X160100000Y-78657584D01*
X160038512Y-78966706D01*
X159917902Y-79257884D01*
X159742803Y-79519939D01*
X159519939Y-79742803D01*
X159257884Y-79917902D01*
X158966706Y-80038512D01*
X158966705Y-80038512D01*
X158966703Y-80038513D01*
X158657586Y-80100000D01*
X158342414Y-80100000D01*
X158033297Y-80038513D01*
X158033295Y-80038512D01*
X158033294Y-80038512D01*
X157742116Y-79917902D01*
X157480061Y-79742803D01*
X157257197Y-79519939D01*
X157082098Y-79257884D01*
X156961488Y-78966706D01*
X156900000Y-78657584D01*
X156900000Y-78342416D01*
X156903519Y-78324724D01*
X156961487Y-78033297D01*
X157082098Y-77742116D01*
X157182479Y-77591885D01*
X157257197Y-77480061D01*
X157480061Y-77257197D01*
X157742116Y-77082098D01*
X158033294Y-76961488D01*
X158033295Y-76961488D01*
X158033297Y-76961487D01*
X158342414Y-76900000D01*
X158657586Y-76900000D01*
X158966703Y-76961487D01*
X158966703Y-76961487D01*
G37*
G36*
X125966703Y-76961487D02*
X125966705Y-76961488D01*
X125966706Y-76961488D01*
X126257884Y-77082098D01*
X126519939Y-77257197D01*
X126742803Y-77480061D01*
X126817521Y-77591885D01*
X126917902Y-77742116D01*
X127038513Y-78033297D01*
X127096481Y-78324724D01*
X127100000Y-78342416D01*
X127100000Y-78657584D01*
X127038512Y-78966706D01*
X126917902Y-79257884D01*
X126742803Y-79519939D01*
X126519939Y-79742803D01*
X126257884Y-79917902D01*
X125966706Y-80038512D01*
X125966705Y-80038512D01*
X125966703Y-80038513D01*
X125657586Y-80100000D01*
X125342414Y-80100000D01*
X125033297Y-80038513D01*
X125033295Y-80038512D01*
X125033294Y-80038512D01*
X124742116Y-79917902D01*
X124480061Y-79742803D01*
X124257197Y-79519939D01*
X124082098Y-79257884D01*
X123961488Y-78966706D01*
X123900000Y-78657584D01*
X123900000Y-78342416D01*
X123903519Y-78324724D01*
X123961487Y-78033297D01*
X124082098Y-77742116D01*
X124182479Y-77591885D01*
X124257197Y-77480061D01*
X124480061Y-77257197D01*
X124742116Y-77082098D01*
X125033294Y-76961488D01*
X125033295Y-76961488D01*
X125033297Y-76961487D01*
X125342414Y-76900000D01*
X125657586Y-76900000D01*
X125966703Y-76961487D01*
X125966703Y-76961487D01*
G37*
G36*
X131222267Y-78267283D02*
X131222269Y-78267284D01*
X131222270Y-78267284D01*
X131360942Y-78324724D01*
X131485747Y-78408116D01*
X131591884Y-78514253D01*
X131675276Y-78639058D01*
X131732717Y-78777733D01*
X131762000Y-78924950D01*
X131762000Y-79075050D01*
X131732717Y-79222267D01*
X131675276Y-79360942D01*
X131591884Y-79485747D01*
X131485747Y-79591884D01*
X131360942Y-79675276D01*
X131222270Y-79732716D01*
X131222269Y-79732716D01*
X131222267Y-79732717D01*
X131075050Y-79762000D01*
X130924950Y-79762000D01*
X130777733Y-79732717D01*
X130777731Y-79732716D01*
X130777730Y-79732716D01*
X130639058Y-79675276D01*
X130514253Y-79591884D01*
X130408116Y-79485747D01*
X130324724Y-79360942D01*
X130267283Y-79222267D01*
X130238000Y-79075050D01*
X130238000Y-78924950D01*
X130267283Y-78777733D01*
X130324724Y-78639058D01*
X130408116Y-78514253D01*
X130514253Y-78408116D01*
X130639058Y-78324724D01*
X130777730Y-78267284D01*
X130777731Y-78267284D01*
X130777733Y-78267283D01*
X130924950Y-78238000D01*
X131075050Y-78238000D01*
X131222267Y-78267283D01*
X131222267Y-78267283D01*
G37*
G36*
X153222267Y-78267283D02*
X153222269Y-78267284D01*
X153222270Y-78267284D01*
X153360942Y-78324724D01*
X153485747Y-78408116D01*
X153591884Y-78514253D01*
X153675276Y-78639058D01*
X153732717Y-78777733D01*
X153762000Y-78924950D01*
X153762000Y-79075050D01*
X153732717Y-79222267D01*
X153675276Y-79360942D01*
X153591884Y-79485747D01*
X153485747Y-79591884D01*
X153360942Y-79675276D01*
X153222270Y-79732716D01*
X153222269Y-79732716D01*
X153222267Y-79732717D01*
X153075050Y-79762000D01*
X152924950Y-79762000D01*
X152777733Y-79732717D01*
X152777731Y-79732716D01*
X152777730Y-79732716D01*
X152639058Y-79675276D01*
X152514253Y-79591884D01*
X152408116Y-79485747D01*
X152324724Y-79360942D01*
X152267283Y-79222267D01*
X152238000Y-79075050D01*
X152238000Y-78924950D01*
X152267283Y-78777733D01*
X152324724Y-78639058D01*
X152408116Y-78514253D01*
X152514253Y-78408116D01*
X152639058Y-78324724D01*
X152777730Y-78267284D01*
X152777731Y-78267284D01*
X152777733Y-78267283D01*
X152924950Y-78238000D01*
X153075050Y-78238000D01*
X153222267Y-78267283D01*
X153222267Y-78267283D01*
G37*
G36*
X131222267Y-76267283D02*
X131222269Y-76267284D01*
X131222270Y-76267284D01*
X131360942Y-76324724D01*
X131485747Y-76408116D01*
X131591884Y-76514253D01*
X131675276Y-76639058D01*
X131732717Y-76777733D01*
X131762000Y-76924950D01*
X131762000Y-77075050D01*
X131732717Y-77222267D01*
X131675276Y-77360942D01*
X131591884Y-77485747D01*
X131485747Y-77591884D01*
X131360942Y-77675276D01*
X131222270Y-77732716D01*
X131222269Y-77732716D01*
X131222267Y-77732717D01*
X131075050Y-77762000D01*
X130924950Y-77762000D01*
X130777733Y-77732717D01*
X130777731Y-77732716D01*
X130777730Y-77732716D01*
X130639058Y-77675276D01*
X130514253Y-77591884D01*
X130408116Y-77485747D01*
X130324724Y-77360942D01*
X130267283Y-77222267D01*
X130238000Y-77075050D01*
X130238000Y-76924950D01*
X130267283Y-76777733D01*
X130324724Y-76639058D01*
X130408116Y-76514253D01*
X130514253Y-76408116D01*
X130639058Y-76324724D01*
X130777730Y-76267284D01*
X130777731Y-76267284D01*
X130777733Y-76267283D01*
X130924950Y-76238000D01*
X131075050Y-76238000D01*
X131222267Y-76267283D01*
X131222267Y-76267283D01*
G37*
G36*
X153222267Y-76267283D02*
X153222269Y-76267284D01*
X153222270Y-76267284D01*
X153360942Y-76324724D01*
X153485747Y-76408116D01*
X153591884Y-76514253D01*
X153675276Y-76639058D01*
X153732717Y-76777733D01*
X153762000Y-76924950D01*
X153762000Y-77075050D01*
X153732717Y-77222267D01*
X153675276Y-77360942D01*
X153591884Y-77485747D01*
X153485747Y-77591884D01*
X153360942Y-77675276D01*
X153222270Y-77732716D01*
X153222269Y-77732716D01*
X153222267Y-77732717D01*
X153075050Y-77762000D01*
X152924950Y-77762000D01*
X152777733Y-77732717D01*
X152777731Y-77732716D01*
X152777730Y-77732716D01*
X152639058Y-77675276D01*
X152514253Y-77591884D01*
X152408116Y-77485747D01*
X152324724Y-77360942D01*
X152267283Y-77222267D01*
X152238000Y-77075050D01*
X152238000Y-76924950D01*
X152267283Y-76777733D01*
X152324724Y-76639058D01*
X152408116Y-76514253D01*
X152514253Y-76408116D01*
X152639058Y-76324724D01*
X152777730Y-76267284D01*
X152777731Y-76267284D01*
X152777733Y-76267283D01*
X152924950Y-76238000D01*
X153075050Y-76238000D01*
X153222267Y-76267283D01*
X153222267Y-76267283D01*
G37*
M02*
