G04 #@! TF.GenerationSoftware,KiCad,Pcbnew,5.0.2-bee76a0~70~ubuntu18.10.1*
G04 #@! TF.CreationDate,2019-06-30T16:33:55+01:00*
G04 #@! TF.ProjectId,xbee-sensor,78626565-2d73-4656-9e73-6f722e6b6963,rev?*
G04 #@! TF.SameCoordinates,Original*
G04 #@! TF.FileFunction,Soldermask,Top*
G04 #@! TF.FilePolarity,Negative*
%FSLAX46Y46*%
G04 Gerber Fmt 4.6, Leading zero omitted, Abs format (unit mm)*
G04 Created by KiCad (PCBNEW 5.0.2-bee76a0~70~ubuntu18.10.1) date Sun 30 Jun 2019 16:33:55 BST*
%MOMM*%
%LPD*%
G01*
G04 APERTURE LIST*
%ADD10C,0.100000*%
G04 APERTURE END LIST*
D10*
G36*
X151706627Y-112242299D02*
X151758004Y-112257884D01*
X151866855Y-112290903D01*
X151920712Y-112319691D01*
X152014517Y-112369830D01*
X152143948Y-112476052D01*
X152250170Y-112605483D01*
X152286336Y-112673145D01*
X152329097Y-112753145D01*
X152329097Y-112753146D01*
X152377701Y-112913373D01*
X152394113Y-113080000D01*
X152377701Y-113246627D01*
X152377700Y-113246629D01*
X152329097Y-113406855D01*
X152300309Y-113460712D01*
X152250170Y-113554517D01*
X152143948Y-113683948D01*
X152014517Y-113790170D01*
X151925594Y-113837700D01*
X151866855Y-113869097D01*
X151797088Y-113890260D01*
X151706627Y-113917701D01*
X151581757Y-113930000D01*
X151498243Y-113930000D01*
X151373373Y-113917701D01*
X151282912Y-113890260D01*
X151213145Y-113869097D01*
X151154406Y-113837700D01*
X151065483Y-113790170D01*
X150936052Y-113683948D01*
X150829830Y-113554517D01*
X150779691Y-113460712D01*
X150750903Y-113406855D01*
X150702300Y-113246629D01*
X150702299Y-113246627D01*
X150685887Y-113080000D01*
X150702299Y-112913373D01*
X150750903Y-112753146D01*
X150750903Y-112753145D01*
X150793664Y-112673145D01*
X150829830Y-112605483D01*
X150936052Y-112476052D01*
X151065483Y-112369830D01*
X151159288Y-112319691D01*
X151213145Y-112290903D01*
X151321996Y-112257884D01*
X151373373Y-112242299D01*
X151498243Y-112230000D01*
X151581757Y-112230000D01*
X151706627Y-112242299D01*
X151706627Y-112242299D01*
G37*
G36*
X149166627Y-112242299D02*
X149218004Y-112257884D01*
X149326855Y-112290903D01*
X149380712Y-112319691D01*
X149474517Y-112369830D01*
X149603948Y-112476052D01*
X149710170Y-112605483D01*
X149746336Y-112673145D01*
X149789097Y-112753145D01*
X149789097Y-112753146D01*
X149837701Y-112913373D01*
X149854113Y-113080000D01*
X149837701Y-113246627D01*
X149837700Y-113246629D01*
X149789097Y-113406855D01*
X149760309Y-113460712D01*
X149710170Y-113554517D01*
X149603948Y-113683948D01*
X149474517Y-113790170D01*
X149385594Y-113837700D01*
X149326855Y-113869097D01*
X149257088Y-113890260D01*
X149166627Y-113917701D01*
X149041757Y-113930000D01*
X148958243Y-113930000D01*
X148833373Y-113917701D01*
X148742912Y-113890260D01*
X148673145Y-113869097D01*
X148614406Y-113837700D01*
X148525483Y-113790170D01*
X148396052Y-113683948D01*
X148289830Y-113554517D01*
X148239691Y-113460712D01*
X148210903Y-113406855D01*
X148162300Y-113246629D01*
X148162299Y-113246627D01*
X148145887Y-113080000D01*
X148162299Y-112913373D01*
X148210903Y-112753146D01*
X148210903Y-112753145D01*
X148253664Y-112673145D01*
X148289830Y-112605483D01*
X148396052Y-112476052D01*
X148525483Y-112369830D01*
X148619288Y-112319691D01*
X148673145Y-112290903D01*
X148781996Y-112257884D01*
X148833373Y-112242299D01*
X148958243Y-112230000D01*
X149041757Y-112230000D01*
X149166627Y-112242299D01*
X149166627Y-112242299D01*
G37*
G36*
X132850000Y-113850000D02*
X131150000Y-113850000D01*
X131150000Y-112150000D01*
X132850000Y-112150000D01*
X132850000Y-113850000D01*
X132850000Y-113850000D01*
G37*
G36*
X134706627Y-112162299D02*
X134797088Y-112189740D01*
X134866855Y-112210903D01*
X134920712Y-112239691D01*
X135014517Y-112289830D01*
X135143948Y-112396052D01*
X135250170Y-112525483D01*
X135300309Y-112619288D01*
X135329097Y-112673145D01*
X135329097Y-112673146D01*
X135377701Y-112833373D01*
X135394113Y-113000000D01*
X135377701Y-113166627D01*
X135377700Y-113166629D01*
X135329097Y-113326855D01*
X135300309Y-113380712D01*
X135250170Y-113474517D01*
X135143948Y-113603948D01*
X135014517Y-113710170D01*
X134920712Y-113760309D01*
X134866855Y-113789097D01*
X134797088Y-113810260D01*
X134706627Y-113837701D01*
X134581757Y-113850000D01*
X134498243Y-113850000D01*
X134373373Y-113837701D01*
X134282912Y-113810260D01*
X134213145Y-113789097D01*
X134159288Y-113760309D01*
X134065483Y-113710170D01*
X133936052Y-113603948D01*
X133829830Y-113474517D01*
X133779691Y-113380712D01*
X133750903Y-113326855D01*
X133702300Y-113166629D01*
X133702299Y-113166627D01*
X133685887Y-113000000D01*
X133702299Y-112833373D01*
X133750903Y-112673146D01*
X133750903Y-112673145D01*
X133779691Y-112619288D01*
X133829830Y-112525483D01*
X133936052Y-112396052D01*
X134065483Y-112289830D01*
X134159288Y-112239691D01*
X134213145Y-112210903D01*
X134282912Y-112189740D01*
X134373373Y-112162299D01*
X134498243Y-112150000D01*
X134581757Y-112150000D01*
X134706627Y-112162299D01*
X134706627Y-112162299D01*
G37*
G36*
X158966703Y-109961487D02*
X158966705Y-109961488D01*
X158966706Y-109961488D01*
X159257884Y-110082098D01*
X159519939Y-110257197D01*
X159742803Y-110480061D01*
X159894189Y-110706627D01*
X159917902Y-110742116D01*
X160038513Y-111033297D01*
X160097351Y-111329097D01*
X160100000Y-111342416D01*
X160100000Y-111657584D01*
X160038512Y-111966706D01*
X159917902Y-112257884D01*
X159742803Y-112519939D01*
X159519939Y-112742803D01*
X159257884Y-112917902D01*
X158966706Y-113038512D01*
X158966705Y-113038512D01*
X158966703Y-113038513D01*
X158657586Y-113100000D01*
X158342414Y-113100000D01*
X158033297Y-113038513D01*
X158033295Y-113038512D01*
X158033294Y-113038512D01*
X157742116Y-112917902D01*
X157480061Y-112742803D01*
X157257197Y-112519939D01*
X157082098Y-112257884D01*
X156961488Y-111966706D01*
X156900000Y-111657584D01*
X156900000Y-111342416D01*
X156902649Y-111329097D01*
X156961487Y-111033297D01*
X157082098Y-110742116D01*
X157105811Y-110706627D01*
X157257197Y-110480061D01*
X157480061Y-110257197D01*
X157742116Y-110082098D01*
X158033294Y-109961488D01*
X158033295Y-109961488D01*
X158033297Y-109961487D01*
X158342414Y-109900000D01*
X158657586Y-109900000D01*
X158966703Y-109961487D01*
X158966703Y-109961487D01*
G37*
G36*
X125966703Y-109961487D02*
X125966705Y-109961488D01*
X125966706Y-109961488D01*
X126257884Y-110082098D01*
X126519939Y-110257197D01*
X126742803Y-110480061D01*
X126894189Y-110706627D01*
X126917902Y-110742116D01*
X127038513Y-111033297D01*
X127097351Y-111329097D01*
X127100000Y-111342416D01*
X127100000Y-111657584D01*
X127038512Y-111966706D01*
X126917902Y-112257884D01*
X126742803Y-112519939D01*
X126519939Y-112742803D01*
X126257884Y-112917902D01*
X125966706Y-113038512D01*
X125966705Y-113038512D01*
X125966703Y-113038513D01*
X125657586Y-113100000D01*
X125342414Y-113100000D01*
X125033297Y-113038513D01*
X125033295Y-113038512D01*
X125033294Y-113038512D01*
X124742116Y-112917902D01*
X124480061Y-112742803D01*
X124257197Y-112519939D01*
X124082098Y-112257884D01*
X123961488Y-111966706D01*
X123900000Y-111657584D01*
X123900000Y-111342416D01*
X123902649Y-111329097D01*
X123961487Y-111033297D01*
X124082098Y-110742116D01*
X124105811Y-110706627D01*
X124257197Y-110480061D01*
X124480061Y-110257197D01*
X124742116Y-110082098D01*
X125033294Y-109961488D01*
X125033295Y-109961488D01*
X125033297Y-109961487D01*
X125342414Y-109900000D01*
X125657586Y-109900000D01*
X125966703Y-109961487D01*
X125966703Y-109961487D01*
G37*
G36*
X151706627Y-109702299D02*
X151797088Y-109729740D01*
X151866855Y-109750903D01*
X151920712Y-109779691D01*
X152014517Y-109829830D01*
X152143948Y-109936052D01*
X152250170Y-110065483D01*
X152295203Y-110149735D01*
X152329097Y-110213145D01*
X152342460Y-110257197D01*
X152377701Y-110373373D01*
X152394113Y-110540000D01*
X152377701Y-110706627D01*
X152350260Y-110797088D01*
X152329097Y-110866855D01*
X152300309Y-110920712D01*
X152250170Y-111014517D01*
X152143948Y-111143948D01*
X152014517Y-111250170D01*
X151920712Y-111300309D01*
X151866855Y-111329097D01*
X151822947Y-111342416D01*
X151706627Y-111377701D01*
X151581757Y-111390000D01*
X151498243Y-111390000D01*
X151373373Y-111377701D01*
X151257053Y-111342416D01*
X151213145Y-111329097D01*
X151159288Y-111300309D01*
X151065483Y-111250170D01*
X150936052Y-111143948D01*
X150829830Y-111014517D01*
X150779691Y-110920712D01*
X150750903Y-110866855D01*
X150729740Y-110797088D01*
X150702299Y-110706627D01*
X150685887Y-110540000D01*
X150702299Y-110373373D01*
X150737540Y-110257197D01*
X150750903Y-110213145D01*
X150784797Y-110149735D01*
X150829830Y-110065483D01*
X150936052Y-109936052D01*
X151065483Y-109829830D01*
X151159288Y-109779691D01*
X151213145Y-109750903D01*
X151282912Y-109729740D01*
X151373373Y-109702299D01*
X151498243Y-109690000D01*
X151581757Y-109690000D01*
X151706627Y-109702299D01*
X151706627Y-109702299D01*
G37*
G36*
X149166627Y-109702299D02*
X149257088Y-109729740D01*
X149326855Y-109750903D01*
X149380712Y-109779691D01*
X149474517Y-109829830D01*
X149603948Y-109936052D01*
X149710170Y-110065483D01*
X149755203Y-110149735D01*
X149789097Y-110213145D01*
X149802460Y-110257197D01*
X149837701Y-110373373D01*
X149854113Y-110540000D01*
X149837701Y-110706627D01*
X149810260Y-110797088D01*
X149789097Y-110866855D01*
X149760309Y-110920712D01*
X149710170Y-111014517D01*
X149603948Y-111143948D01*
X149474517Y-111250170D01*
X149380712Y-111300309D01*
X149326855Y-111329097D01*
X149282947Y-111342416D01*
X149166627Y-111377701D01*
X149041757Y-111390000D01*
X148958243Y-111390000D01*
X148833373Y-111377701D01*
X148717053Y-111342416D01*
X148673145Y-111329097D01*
X148619288Y-111300309D01*
X148525483Y-111250170D01*
X148396052Y-111143948D01*
X148289830Y-111014517D01*
X148239691Y-110920712D01*
X148210903Y-110866855D01*
X148189740Y-110797088D01*
X148162299Y-110706627D01*
X148145887Y-110540000D01*
X148162299Y-110373373D01*
X148197540Y-110257197D01*
X148210903Y-110213145D01*
X148244797Y-110149735D01*
X148289830Y-110065483D01*
X148396052Y-109936052D01*
X148525483Y-109829830D01*
X148619288Y-109779691D01*
X148673145Y-109750903D01*
X148742912Y-109729740D01*
X148833373Y-109702299D01*
X148958243Y-109690000D01*
X149041757Y-109690000D01*
X149166627Y-109702299D01*
X149166627Y-109702299D01*
G37*
G36*
X137543956Y-109454198D02*
X137580210Y-109465195D01*
X137613621Y-109483054D01*
X137642910Y-109507090D01*
X137666946Y-109536379D01*
X137684805Y-109569790D01*
X137695802Y-109606044D01*
X137700000Y-109648667D01*
X137700000Y-110226333D01*
X137695802Y-110268956D01*
X137684805Y-110305210D01*
X137666946Y-110338621D01*
X137642910Y-110367910D01*
X137613621Y-110391946D01*
X137580210Y-110409805D01*
X137543956Y-110420802D01*
X137501333Y-110425000D01*
X136498667Y-110425000D01*
X136456044Y-110420802D01*
X136419790Y-110409805D01*
X136386379Y-110391946D01*
X136357090Y-110367910D01*
X136333054Y-110338621D01*
X136315195Y-110305210D01*
X136304198Y-110268956D01*
X136300000Y-110226333D01*
X136300000Y-109648667D01*
X136304198Y-109606044D01*
X136315195Y-109569790D01*
X136333054Y-109536379D01*
X136357090Y-109507090D01*
X136386379Y-109483054D01*
X136419790Y-109465195D01*
X136456044Y-109454198D01*
X136498667Y-109450000D01*
X137501333Y-109450000D01*
X137543956Y-109454198D01*
X137543956Y-109454198D01*
G37*
G36*
X133430000Y-110275000D02*
X132370000Y-110275000D01*
X132370000Y-109625000D01*
X133430000Y-109625000D01*
X133430000Y-110275000D01*
X133430000Y-110275000D01*
G37*
G36*
X135630000Y-110275000D02*
X134570000Y-110275000D01*
X134570000Y-109625000D01*
X135630000Y-109625000D01*
X135630000Y-110275000D01*
X135630000Y-110275000D01*
G37*
G36*
X131339076Y-109353717D02*
X131370641Y-109363291D01*
X131399735Y-109378843D01*
X131425232Y-109399768D01*
X131446157Y-109425265D01*
X131461709Y-109454359D01*
X131471283Y-109485924D01*
X131475000Y-109523658D01*
X131475000Y-110051342D01*
X131471283Y-110089076D01*
X131461709Y-110120641D01*
X131446157Y-110149735D01*
X131425232Y-110175232D01*
X131399735Y-110196157D01*
X131370641Y-110211709D01*
X131339076Y-110221283D01*
X131301342Y-110225000D01*
X130698658Y-110225000D01*
X130660924Y-110221283D01*
X130629359Y-110211709D01*
X130600265Y-110196157D01*
X130574768Y-110175232D01*
X130553843Y-110149735D01*
X130538291Y-110120641D01*
X130528717Y-110089076D01*
X130525000Y-110051342D01*
X130525000Y-109523658D01*
X130528717Y-109485924D01*
X130538291Y-109454359D01*
X130553843Y-109425265D01*
X130574768Y-109399768D01*
X130600265Y-109378843D01*
X130629359Y-109363291D01*
X130660924Y-109353717D01*
X130698658Y-109350000D01*
X131301342Y-109350000D01*
X131339076Y-109353717D01*
X131339076Y-109353717D01*
G37*
G36*
X135630000Y-109325000D02*
X134570000Y-109325000D01*
X134570000Y-108675000D01*
X135630000Y-108675000D01*
X135630000Y-109325000D01*
X135630000Y-109325000D01*
G37*
G36*
X143117617Y-107133680D02*
X143230721Y-107167990D01*
X143286435Y-107197770D01*
X143334954Y-107223704D01*
X143426317Y-107298683D01*
X143501296Y-107390045D01*
X143501297Y-107390047D01*
X143557010Y-107494278D01*
X143591320Y-107607383D01*
X143600000Y-107695517D01*
X143600000Y-108304483D01*
X143591320Y-108392617D01*
X143557010Y-108505722D01*
X143531856Y-108552781D01*
X143501296Y-108609955D01*
X143426317Y-108701317D01*
X143334955Y-108776296D01*
X143310158Y-108789550D01*
X143230722Y-108832010D01*
X143117617Y-108866320D01*
X143000001Y-108877904D01*
X142882383Y-108866320D01*
X142769279Y-108832010D01*
X142689843Y-108789550D01*
X142665046Y-108776296D01*
X142597267Y-108720671D01*
X142573686Y-108701319D01*
X142554891Y-108678417D01*
X142501314Y-108613134D01*
X142498703Y-108609953D01*
X142442990Y-108505722D01*
X142408680Y-108392617D01*
X142400000Y-108304483D01*
X142400000Y-107695518D01*
X142408680Y-107607384D01*
X142442990Y-107494279D01*
X142495494Y-107396052D01*
X142498704Y-107390046D01*
X142573683Y-107298683D01*
X142665045Y-107223704D01*
X142688994Y-107210903D01*
X142769278Y-107167990D01*
X142882383Y-107133680D01*
X142999999Y-107122096D01*
X143117617Y-107133680D01*
X143117617Y-107133680D01*
G37*
G36*
X141445633Y-107129158D02*
X141481496Y-107140037D01*
X141514550Y-107157705D01*
X141543520Y-107181480D01*
X141567295Y-107210450D01*
X141584963Y-107243504D01*
X141595842Y-107279367D01*
X141600000Y-107321583D01*
X141600000Y-108678417D01*
X141595842Y-108720633D01*
X141584963Y-108756496D01*
X141567295Y-108789550D01*
X141543520Y-108818520D01*
X141514550Y-108842295D01*
X141481496Y-108859963D01*
X141445633Y-108870842D01*
X141403417Y-108875000D01*
X140596583Y-108875000D01*
X140554367Y-108870842D01*
X140518504Y-108859963D01*
X140485450Y-108842295D01*
X140456480Y-108818520D01*
X140432705Y-108789550D01*
X140415037Y-108756496D01*
X140404158Y-108720633D01*
X140400000Y-108678417D01*
X140400000Y-107321583D01*
X140404158Y-107279367D01*
X140415037Y-107243504D01*
X140432705Y-107210450D01*
X140456480Y-107181480D01*
X140485450Y-107157705D01*
X140518504Y-107140037D01*
X140554367Y-107129158D01*
X140596583Y-107125000D01*
X141403417Y-107125000D01*
X141445633Y-107129158D01*
X141445633Y-107129158D01*
G37*
G36*
X149850000Y-108850000D02*
X148150000Y-108850000D01*
X148150000Y-107150000D01*
X149850000Y-107150000D01*
X149850000Y-108850000D01*
X149850000Y-108850000D01*
G37*
G36*
X151706627Y-107162299D02*
X151797088Y-107189740D01*
X151866855Y-107210903D01*
X151914008Y-107236107D01*
X152014517Y-107289830D01*
X152143948Y-107396052D01*
X152250170Y-107525483D01*
X152293946Y-107607383D01*
X152329097Y-107673145D01*
X152335886Y-107695526D01*
X152377701Y-107833373D01*
X152394113Y-108000000D01*
X152377701Y-108166627D01*
X152377700Y-108166629D01*
X152329097Y-108326855D01*
X152316013Y-108351333D01*
X152250170Y-108474517D01*
X152143948Y-108603948D01*
X152014517Y-108710170D01*
X151920712Y-108760309D01*
X151866855Y-108789097D01*
X151797088Y-108810260D01*
X151706627Y-108837701D01*
X151581757Y-108850000D01*
X151498243Y-108850000D01*
X151373373Y-108837701D01*
X151282912Y-108810260D01*
X151213145Y-108789097D01*
X151159288Y-108760309D01*
X151065483Y-108710170D01*
X150936052Y-108603948D01*
X150829830Y-108474517D01*
X150763987Y-108351333D01*
X150750903Y-108326855D01*
X150702300Y-108166629D01*
X150702299Y-108166627D01*
X150685887Y-108000000D01*
X150702299Y-107833373D01*
X150744114Y-107695526D01*
X150750903Y-107673145D01*
X150786054Y-107607383D01*
X150829830Y-107525483D01*
X150936052Y-107396052D01*
X151065483Y-107289830D01*
X151165992Y-107236107D01*
X151213145Y-107210903D01*
X151282912Y-107189740D01*
X151373373Y-107162299D01*
X151498243Y-107150000D01*
X151581757Y-107150000D01*
X151706627Y-107162299D01*
X151706627Y-107162299D01*
G37*
G36*
X131339076Y-107778717D02*
X131370641Y-107788291D01*
X131399735Y-107803843D01*
X131425232Y-107824768D01*
X131446157Y-107850265D01*
X131461709Y-107879359D01*
X131471283Y-107910924D01*
X131475000Y-107948658D01*
X131475000Y-108476342D01*
X131471283Y-108514076D01*
X131461709Y-108545641D01*
X131446157Y-108574735D01*
X131425232Y-108600232D01*
X131399735Y-108621157D01*
X131370641Y-108636709D01*
X131339076Y-108646283D01*
X131301342Y-108650000D01*
X130698658Y-108650000D01*
X130660924Y-108646283D01*
X130629359Y-108636709D01*
X130600265Y-108621157D01*
X130574768Y-108600232D01*
X130553843Y-108574735D01*
X130538291Y-108545641D01*
X130528717Y-108514076D01*
X130525000Y-108476342D01*
X130525000Y-107948658D01*
X130528717Y-107910924D01*
X130538291Y-107879359D01*
X130553843Y-107850265D01*
X130574768Y-107824768D01*
X130600265Y-107803843D01*
X130629359Y-107788291D01*
X130660924Y-107778717D01*
X130698658Y-107775000D01*
X131301342Y-107775000D01*
X131339076Y-107778717D01*
X131339076Y-107778717D01*
G37*
G36*
X137543956Y-107579198D02*
X137580210Y-107590195D01*
X137613621Y-107608054D01*
X137642910Y-107632090D01*
X137666946Y-107661379D01*
X137684805Y-107694790D01*
X137695802Y-107731044D01*
X137700000Y-107773667D01*
X137700000Y-108351333D01*
X137695802Y-108393956D01*
X137684805Y-108430210D01*
X137666946Y-108463621D01*
X137642910Y-108492910D01*
X137613621Y-108516946D01*
X137580210Y-108534805D01*
X137543956Y-108545802D01*
X137501333Y-108550000D01*
X136498667Y-108550000D01*
X136456044Y-108545802D01*
X136419790Y-108534805D01*
X136386379Y-108516946D01*
X136357090Y-108492910D01*
X136333054Y-108463621D01*
X136315195Y-108430210D01*
X136304198Y-108393956D01*
X136300000Y-108351333D01*
X136300000Y-107773667D01*
X136304198Y-107731044D01*
X136315195Y-107694790D01*
X136333054Y-107661379D01*
X136357090Y-107632090D01*
X136386379Y-107608054D01*
X136419790Y-107590195D01*
X136456044Y-107579198D01*
X136498667Y-107575000D01*
X137501333Y-107575000D01*
X137543956Y-107579198D01*
X137543956Y-107579198D01*
G37*
G36*
X135630000Y-108375000D02*
X134570000Y-108375000D01*
X134570000Y-107725000D01*
X135630000Y-107725000D01*
X135630000Y-108375000D01*
X135630000Y-108375000D01*
G37*
G36*
X133430000Y-108375000D02*
X132370000Y-108375000D01*
X132370000Y-107725000D01*
X133430000Y-107725000D01*
X133430000Y-108375000D01*
X133430000Y-108375000D01*
G37*
G36*
X131393956Y-105304198D02*
X131430210Y-105315195D01*
X131463621Y-105333054D01*
X131492910Y-105357090D01*
X131516946Y-105386379D01*
X131534805Y-105419790D01*
X131545802Y-105456044D01*
X131550000Y-105498667D01*
X131550000Y-106501333D01*
X131545802Y-106543956D01*
X131534805Y-106580210D01*
X131516946Y-106613621D01*
X131492910Y-106642910D01*
X131463621Y-106666946D01*
X131430210Y-106684805D01*
X131393956Y-106695802D01*
X131351333Y-106700000D01*
X130773667Y-106700000D01*
X130731044Y-106695802D01*
X130694790Y-106684805D01*
X130661379Y-106666946D01*
X130632090Y-106642910D01*
X130608054Y-106613621D01*
X130590195Y-106580210D01*
X130579198Y-106543956D01*
X130575000Y-106501333D01*
X130575000Y-105498667D01*
X130579198Y-105456044D01*
X130590195Y-105419790D01*
X130608054Y-105386379D01*
X130632090Y-105357090D01*
X130661379Y-105333054D01*
X130694790Y-105315195D01*
X130731044Y-105304198D01*
X130773667Y-105300000D01*
X131351333Y-105300000D01*
X131393956Y-105304198D01*
X131393956Y-105304198D01*
G37*
G36*
X133268956Y-105304198D02*
X133305210Y-105315195D01*
X133338621Y-105333054D01*
X133367910Y-105357090D01*
X133391946Y-105386379D01*
X133409805Y-105419790D01*
X133420802Y-105456044D01*
X133425000Y-105498667D01*
X133425000Y-106501333D01*
X133420802Y-106543956D01*
X133409805Y-106580210D01*
X133391946Y-106613621D01*
X133367910Y-106642910D01*
X133338621Y-106666946D01*
X133305210Y-106684805D01*
X133268956Y-106695802D01*
X133226333Y-106700000D01*
X132648667Y-106700000D01*
X132606044Y-106695802D01*
X132569790Y-106684805D01*
X132536379Y-106666946D01*
X132507090Y-106642910D01*
X132483054Y-106613621D01*
X132465195Y-106580210D01*
X132454198Y-106543956D01*
X132450000Y-106501333D01*
X132450000Y-105498667D01*
X132454198Y-105456044D01*
X132465195Y-105419790D01*
X132483054Y-105386379D01*
X132507090Y-105357090D01*
X132536379Y-105333054D01*
X132569790Y-105315195D01*
X132606044Y-105304198D01*
X132648667Y-105300000D01*
X133226333Y-105300000D01*
X133268956Y-105304198D01*
X133268956Y-105304198D01*
G37*
G36*
X137089076Y-105528717D02*
X137120641Y-105538291D01*
X137149735Y-105553843D01*
X137175232Y-105574768D01*
X137196157Y-105600265D01*
X137211709Y-105629359D01*
X137221283Y-105660924D01*
X137225000Y-105698658D01*
X137225000Y-106301342D01*
X137221283Y-106339076D01*
X137211709Y-106370641D01*
X137196157Y-106399735D01*
X137175232Y-106425232D01*
X137149735Y-106446157D01*
X137120641Y-106461709D01*
X137089076Y-106471283D01*
X137051342Y-106475000D01*
X136523658Y-106475000D01*
X136485924Y-106471283D01*
X136454359Y-106461709D01*
X136425265Y-106446157D01*
X136399768Y-106425232D01*
X136378843Y-106399735D01*
X136363291Y-106370641D01*
X136353717Y-106339076D01*
X136350000Y-106301342D01*
X136350000Y-105698658D01*
X136353717Y-105660924D01*
X136363291Y-105629359D01*
X136378843Y-105600265D01*
X136399768Y-105574768D01*
X136425265Y-105553843D01*
X136454359Y-105538291D01*
X136485924Y-105528717D01*
X136523658Y-105525000D01*
X137051342Y-105525000D01*
X137089076Y-105528717D01*
X137089076Y-105528717D01*
G37*
G36*
X135514076Y-105528717D02*
X135545641Y-105538291D01*
X135574735Y-105553843D01*
X135600232Y-105574768D01*
X135621157Y-105600265D01*
X135636709Y-105629359D01*
X135646283Y-105660924D01*
X135650000Y-105698658D01*
X135650000Y-106301342D01*
X135646283Y-106339076D01*
X135636709Y-106370641D01*
X135621157Y-106399735D01*
X135600232Y-106425232D01*
X135574735Y-106446157D01*
X135545641Y-106461709D01*
X135514076Y-106471283D01*
X135476342Y-106475000D01*
X134948658Y-106475000D01*
X134910924Y-106471283D01*
X134879359Y-106461709D01*
X134850265Y-106446157D01*
X134824768Y-106425232D01*
X134803843Y-106399735D01*
X134788291Y-106370641D01*
X134778717Y-106339076D01*
X134775000Y-106301342D01*
X134775000Y-105698658D01*
X134778717Y-105660924D01*
X134788291Y-105629359D01*
X134803843Y-105600265D01*
X134824768Y-105574768D01*
X134850265Y-105553843D01*
X134879359Y-105538291D01*
X134910924Y-105528717D01*
X134948658Y-105525000D01*
X135476342Y-105525000D01*
X135514076Y-105528717D01*
X135514076Y-105528717D01*
G37*
G36*
X160166627Y-104782299D02*
X160257088Y-104809740D01*
X160326855Y-104830903D01*
X160380712Y-104859691D01*
X160474517Y-104909830D01*
X160603948Y-105016052D01*
X160710170Y-105145483D01*
X160760309Y-105239288D01*
X160789097Y-105293145D01*
X160801203Y-105333054D01*
X160837701Y-105453373D01*
X160854113Y-105620000D01*
X160837701Y-105786627D01*
X160837700Y-105786629D01*
X160789097Y-105946855D01*
X160760309Y-106000712D01*
X160710170Y-106094517D01*
X160603948Y-106223948D01*
X160474517Y-106330170D01*
X160385442Y-106377781D01*
X160326855Y-106409097D01*
X160273664Y-106425232D01*
X160166627Y-106457701D01*
X160041757Y-106470000D01*
X159958243Y-106470000D01*
X159833373Y-106457701D01*
X159726336Y-106425232D01*
X159673145Y-106409097D01*
X159614558Y-106377781D01*
X159525483Y-106330170D01*
X159396052Y-106223948D01*
X159289830Y-106094517D01*
X159239691Y-106000712D01*
X159210903Y-105946855D01*
X159162300Y-105786629D01*
X159162299Y-105786627D01*
X159145887Y-105620000D01*
X159162299Y-105453373D01*
X159198797Y-105333054D01*
X159210903Y-105293145D01*
X159239691Y-105239288D01*
X159289830Y-105145483D01*
X159396052Y-105016052D01*
X159525483Y-104909830D01*
X159619288Y-104859691D01*
X159673145Y-104830903D01*
X159742912Y-104809740D01*
X159833373Y-104782299D01*
X159958243Y-104770000D01*
X160041757Y-104770000D01*
X160166627Y-104782299D01*
X160166627Y-104782299D01*
G37*
G36*
X139850000Y-105050000D02*
X137850000Y-105050000D01*
X137850000Y-103550000D01*
X139850000Y-103550000D01*
X139850000Y-105050000D01*
X139850000Y-105050000D01*
G37*
G36*
X160166627Y-102242299D02*
X160254504Y-102268956D01*
X160326855Y-102290903D01*
X160353621Y-102305210D01*
X160474517Y-102369830D01*
X160603948Y-102476052D01*
X160710170Y-102605483D01*
X160760309Y-102699288D01*
X160789097Y-102753145D01*
X160789097Y-102753146D01*
X160837701Y-102913373D01*
X160854113Y-103080000D01*
X160837701Y-103246627D01*
X160837700Y-103246629D01*
X160789097Y-103406855D01*
X160760309Y-103460712D01*
X160710170Y-103554517D01*
X160603948Y-103683948D01*
X160474517Y-103790170D01*
X160380712Y-103840309D01*
X160326855Y-103869097D01*
X160257088Y-103890260D01*
X160166627Y-103917701D01*
X160041757Y-103930000D01*
X159958243Y-103930000D01*
X159833373Y-103917701D01*
X159742912Y-103890260D01*
X159673145Y-103869097D01*
X159619288Y-103840309D01*
X159525483Y-103790170D01*
X159396052Y-103683948D01*
X159289830Y-103554517D01*
X159239691Y-103460712D01*
X159210903Y-103406855D01*
X159162300Y-103246629D01*
X159162299Y-103246627D01*
X159145887Y-103080000D01*
X159162299Y-102913373D01*
X159210903Y-102753146D01*
X159210903Y-102753145D01*
X159239691Y-102699288D01*
X159289830Y-102605483D01*
X159396052Y-102476052D01*
X159525483Y-102369830D01*
X159646379Y-102305210D01*
X159673145Y-102290903D01*
X159745496Y-102268956D01*
X159833373Y-102242299D01*
X159958243Y-102230000D01*
X160041757Y-102230000D01*
X160166627Y-102242299D01*
X160166627Y-102242299D01*
G37*
G36*
X146150000Y-103900000D02*
X144150000Y-103900000D01*
X144150000Y-100100000D01*
X146150000Y-100100000D01*
X146150000Y-103900000D01*
X146150000Y-103900000D01*
G37*
G36*
X130339076Y-102353717D02*
X130370641Y-102363291D01*
X130399735Y-102378843D01*
X130425232Y-102399768D01*
X130446157Y-102425265D01*
X130461709Y-102454359D01*
X130471283Y-102485924D01*
X130475000Y-102523658D01*
X130475000Y-103051342D01*
X130471283Y-103089076D01*
X130461709Y-103120641D01*
X130446157Y-103149735D01*
X130425232Y-103175232D01*
X130399735Y-103196157D01*
X130370641Y-103211709D01*
X130339076Y-103221283D01*
X130301342Y-103225000D01*
X129698658Y-103225000D01*
X129660924Y-103221283D01*
X129629359Y-103211709D01*
X129600265Y-103196157D01*
X129574768Y-103175232D01*
X129553843Y-103149735D01*
X129538291Y-103120641D01*
X129528717Y-103089076D01*
X129525000Y-103051342D01*
X129525000Y-102523658D01*
X129528717Y-102485924D01*
X129538291Y-102454359D01*
X129553843Y-102425265D01*
X129574768Y-102399768D01*
X129600265Y-102378843D01*
X129629359Y-102363291D01*
X129660924Y-102353717D01*
X129698658Y-102350000D01*
X130301342Y-102350000D01*
X130339076Y-102353717D01*
X130339076Y-102353717D01*
G37*
G36*
X128339076Y-102353717D02*
X128370641Y-102363291D01*
X128399735Y-102378843D01*
X128425232Y-102399768D01*
X128446157Y-102425265D01*
X128461709Y-102454359D01*
X128471283Y-102485924D01*
X128475000Y-102523658D01*
X128475000Y-103051342D01*
X128471283Y-103089076D01*
X128461709Y-103120641D01*
X128446157Y-103149735D01*
X128425232Y-103175232D01*
X128399735Y-103196157D01*
X128370641Y-103211709D01*
X128339076Y-103221283D01*
X128301342Y-103225000D01*
X127698658Y-103225000D01*
X127660924Y-103221283D01*
X127629359Y-103211709D01*
X127600265Y-103196157D01*
X127574768Y-103175232D01*
X127553843Y-103149735D01*
X127538291Y-103120641D01*
X127528717Y-103089076D01*
X127525000Y-103051342D01*
X127525000Y-102523658D01*
X127528717Y-102485924D01*
X127538291Y-102454359D01*
X127553843Y-102425265D01*
X127574768Y-102399768D01*
X127600265Y-102378843D01*
X127629359Y-102363291D01*
X127660924Y-102353717D01*
X127698658Y-102350000D01*
X128301342Y-102350000D01*
X128339076Y-102353717D01*
X128339076Y-102353717D01*
G37*
G36*
X126339076Y-102353717D02*
X126370641Y-102363291D01*
X126399735Y-102378843D01*
X126425232Y-102399768D01*
X126446157Y-102425265D01*
X126461709Y-102454359D01*
X126471283Y-102485924D01*
X126475000Y-102523658D01*
X126475000Y-103051342D01*
X126471283Y-103089076D01*
X126461709Y-103120641D01*
X126446157Y-103149735D01*
X126425232Y-103175232D01*
X126399735Y-103196157D01*
X126370641Y-103211709D01*
X126339076Y-103221283D01*
X126301342Y-103225000D01*
X125698658Y-103225000D01*
X125660924Y-103221283D01*
X125629359Y-103211709D01*
X125600265Y-103196157D01*
X125574768Y-103175232D01*
X125553843Y-103149735D01*
X125538291Y-103120641D01*
X125528717Y-103089076D01*
X125525000Y-103051342D01*
X125525000Y-102523658D01*
X125528717Y-102485924D01*
X125538291Y-102454359D01*
X125553843Y-102425265D01*
X125574768Y-102399768D01*
X125600265Y-102378843D01*
X125629359Y-102363291D01*
X125660924Y-102353717D01*
X125698658Y-102350000D01*
X126301342Y-102350000D01*
X126339076Y-102353717D01*
X126339076Y-102353717D01*
G37*
G36*
X124339076Y-102353717D02*
X124370641Y-102363291D01*
X124399735Y-102378843D01*
X124425232Y-102399768D01*
X124446157Y-102425265D01*
X124461709Y-102454359D01*
X124471283Y-102485924D01*
X124475000Y-102523658D01*
X124475000Y-103051342D01*
X124471283Y-103089076D01*
X124461709Y-103120641D01*
X124446157Y-103149735D01*
X124425232Y-103175232D01*
X124399735Y-103196157D01*
X124370641Y-103211709D01*
X124339076Y-103221283D01*
X124301342Y-103225000D01*
X123698658Y-103225000D01*
X123660924Y-103221283D01*
X123629359Y-103211709D01*
X123600265Y-103196157D01*
X123574768Y-103175232D01*
X123553843Y-103149735D01*
X123538291Y-103120641D01*
X123528717Y-103089076D01*
X123525000Y-103051342D01*
X123525000Y-102523658D01*
X123528717Y-102485924D01*
X123538291Y-102454359D01*
X123553843Y-102425265D01*
X123574768Y-102399768D01*
X123600265Y-102378843D01*
X123629359Y-102363291D01*
X123660924Y-102353717D01*
X123698658Y-102350000D01*
X124301342Y-102350000D01*
X124339076Y-102353717D01*
X124339076Y-102353717D01*
G37*
G36*
X139850000Y-102750000D02*
X137850000Y-102750000D01*
X137850000Y-101250000D01*
X139850000Y-101250000D01*
X139850000Y-102750000D01*
X139850000Y-102750000D01*
G37*
G36*
X136543956Y-101454198D02*
X136580210Y-101465195D01*
X136613621Y-101483054D01*
X136642910Y-101507090D01*
X136666946Y-101536379D01*
X136684805Y-101569790D01*
X136695802Y-101606044D01*
X136700000Y-101648667D01*
X136700000Y-102226333D01*
X136695802Y-102268956D01*
X136684805Y-102305210D01*
X136666946Y-102338621D01*
X136642910Y-102367910D01*
X136613621Y-102391946D01*
X136580210Y-102409805D01*
X136543956Y-102420802D01*
X136501333Y-102425000D01*
X135498667Y-102425000D01*
X135456044Y-102420802D01*
X135419790Y-102409805D01*
X135386379Y-102391946D01*
X135357090Y-102367910D01*
X135333054Y-102338621D01*
X135315195Y-102305210D01*
X135304198Y-102268956D01*
X135300000Y-102226333D01*
X135300000Y-101648667D01*
X135304198Y-101606044D01*
X135315195Y-101569790D01*
X135333054Y-101536379D01*
X135357090Y-101507090D01*
X135386379Y-101483054D01*
X135419790Y-101465195D01*
X135456044Y-101454198D01*
X135498667Y-101450000D01*
X136501333Y-101450000D01*
X136543956Y-101454198D01*
X136543956Y-101454198D01*
G37*
G36*
X124339076Y-100778717D02*
X124370641Y-100788291D01*
X124399735Y-100803843D01*
X124425232Y-100824768D01*
X124446157Y-100850265D01*
X124461709Y-100879359D01*
X124471283Y-100910924D01*
X124475000Y-100948658D01*
X124475000Y-101476342D01*
X124471283Y-101514076D01*
X124461709Y-101545641D01*
X124446157Y-101574735D01*
X124425232Y-101600232D01*
X124399735Y-101621157D01*
X124370641Y-101636709D01*
X124339076Y-101646283D01*
X124301342Y-101650000D01*
X123698658Y-101650000D01*
X123660924Y-101646283D01*
X123629359Y-101636709D01*
X123600265Y-101621157D01*
X123574768Y-101600232D01*
X123553843Y-101574735D01*
X123538291Y-101545641D01*
X123528717Y-101514076D01*
X123525000Y-101476342D01*
X123525000Y-100948658D01*
X123528717Y-100910924D01*
X123538291Y-100879359D01*
X123553843Y-100850265D01*
X123574768Y-100824768D01*
X123600265Y-100803843D01*
X123629359Y-100788291D01*
X123660924Y-100778717D01*
X123698658Y-100775000D01*
X124301342Y-100775000D01*
X124339076Y-100778717D01*
X124339076Y-100778717D01*
G37*
G36*
X126339076Y-100778717D02*
X126370641Y-100788291D01*
X126399735Y-100803843D01*
X126425232Y-100824768D01*
X126446157Y-100850265D01*
X126461709Y-100879359D01*
X126471283Y-100910924D01*
X126475000Y-100948658D01*
X126475000Y-101476342D01*
X126471283Y-101514076D01*
X126461709Y-101545641D01*
X126446157Y-101574735D01*
X126425232Y-101600232D01*
X126399735Y-101621157D01*
X126370641Y-101636709D01*
X126339076Y-101646283D01*
X126301342Y-101650000D01*
X125698658Y-101650000D01*
X125660924Y-101646283D01*
X125629359Y-101636709D01*
X125600265Y-101621157D01*
X125574768Y-101600232D01*
X125553843Y-101574735D01*
X125538291Y-101545641D01*
X125528717Y-101514076D01*
X125525000Y-101476342D01*
X125525000Y-100948658D01*
X125528717Y-100910924D01*
X125538291Y-100879359D01*
X125553843Y-100850265D01*
X125574768Y-100824768D01*
X125600265Y-100803843D01*
X125629359Y-100788291D01*
X125660924Y-100778717D01*
X125698658Y-100775000D01*
X126301342Y-100775000D01*
X126339076Y-100778717D01*
X126339076Y-100778717D01*
G37*
G36*
X128339076Y-100778717D02*
X128370641Y-100788291D01*
X128399735Y-100803843D01*
X128425232Y-100824768D01*
X128446157Y-100850265D01*
X128461709Y-100879359D01*
X128471283Y-100910924D01*
X128475000Y-100948658D01*
X128475000Y-101476342D01*
X128471283Y-101514076D01*
X128461709Y-101545641D01*
X128446157Y-101574735D01*
X128425232Y-101600232D01*
X128399735Y-101621157D01*
X128370641Y-101636709D01*
X128339076Y-101646283D01*
X128301342Y-101650000D01*
X127698658Y-101650000D01*
X127660924Y-101646283D01*
X127629359Y-101636709D01*
X127600265Y-101621157D01*
X127574768Y-101600232D01*
X127553843Y-101574735D01*
X127538291Y-101545641D01*
X127528717Y-101514076D01*
X127525000Y-101476342D01*
X127525000Y-100948658D01*
X127528717Y-100910924D01*
X127538291Y-100879359D01*
X127553843Y-100850265D01*
X127574768Y-100824768D01*
X127600265Y-100803843D01*
X127629359Y-100788291D01*
X127660924Y-100778717D01*
X127698658Y-100775000D01*
X128301342Y-100775000D01*
X128339076Y-100778717D01*
X128339076Y-100778717D01*
G37*
G36*
X130339076Y-100778717D02*
X130370641Y-100788291D01*
X130399735Y-100803843D01*
X130425232Y-100824768D01*
X130446157Y-100850265D01*
X130461709Y-100879359D01*
X130471283Y-100910924D01*
X130475000Y-100948658D01*
X130475000Y-101476342D01*
X130471283Y-101514076D01*
X130461709Y-101545641D01*
X130446157Y-101574735D01*
X130425232Y-101600232D01*
X130399735Y-101621157D01*
X130370641Y-101636709D01*
X130339076Y-101646283D01*
X130301342Y-101650000D01*
X129698658Y-101650000D01*
X129660924Y-101646283D01*
X129629359Y-101636709D01*
X129600265Y-101621157D01*
X129574768Y-101600232D01*
X129553843Y-101574735D01*
X129538291Y-101545641D01*
X129528717Y-101514076D01*
X129525000Y-101476342D01*
X129525000Y-100948658D01*
X129528717Y-100910924D01*
X129538291Y-100879359D01*
X129553843Y-100850265D01*
X129574768Y-100824768D01*
X129600265Y-100803843D01*
X129629359Y-100788291D01*
X129660924Y-100778717D01*
X129698658Y-100775000D01*
X130301342Y-100775000D01*
X130339076Y-100778717D01*
X130339076Y-100778717D01*
G37*
G36*
X160166627Y-99702299D02*
X160243015Y-99725471D01*
X160326855Y-99750903D01*
X160364822Y-99771197D01*
X160474517Y-99829830D01*
X160603948Y-99936052D01*
X160710170Y-100065483D01*
X160760309Y-100159288D01*
X160789097Y-100213145D01*
X160789097Y-100213146D01*
X160837701Y-100373373D01*
X160854113Y-100540000D01*
X160837701Y-100706627D01*
X160837700Y-100706629D01*
X160789097Y-100866855D01*
X160782413Y-100879359D01*
X160710170Y-101014517D01*
X160603948Y-101143948D01*
X160474517Y-101250170D01*
X160380712Y-101300309D01*
X160326855Y-101329097D01*
X160257088Y-101350260D01*
X160166627Y-101377701D01*
X160041757Y-101390000D01*
X159958243Y-101390000D01*
X159833373Y-101377701D01*
X159742912Y-101350260D01*
X159673145Y-101329097D01*
X159619288Y-101300309D01*
X159525483Y-101250170D01*
X159396052Y-101143948D01*
X159289830Y-101014517D01*
X159217587Y-100879359D01*
X159210903Y-100866855D01*
X159162300Y-100706629D01*
X159162299Y-100706627D01*
X159145887Y-100540000D01*
X159162299Y-100373373D01*
X159210903Y-100213146D01*
X159210903Y-100213145D01*
X159239691Y-100159288D01*
X159289830Y-100065483D01*
X159396052Y-99936052D01*
X159525483Y-99829830D01*
X159635178Y-99771197D01*
X159673145Y-99750903D01*
X159756985Y-99725471D01*
X159833373Y-99702299D01*
X159958243Y-99690000D01*
X160041757Y-99690000D01*
X160166627Y-99702299D01*
X160166627Y-99702299D01*
G37*
G36*
X136543956Y-99579198D02*
X136580210Y-99590195D01*
X136613621Y-99608054D01*
X136642910Y-99632090D01*
X136666946Y-99661379D01*
X136684805Y-99694790D01*
X136695802Y-99731044D01*
X136700000Y-99773667D01*
X136700000Y-100351333D01*
X136695802Y-100393956D01*
X136684805Y-100430210D01*
X136666946Y-100463621D01*
X136642910Y-100492910D01*
X136613621Y-100516946D01*
X136580210Y-100534805D01*
X136543956Y-100545802D01*
X136501333Y-100550000D01*
X135498667Y-100550000D01*
X135456044Y-100545802D01*
X135419790Y-100534805D01*
X135386379Y-100516946D01*
X135357090Y-100492910D01*
X135333054Y-100463621D01*
X135315195Y-100430210D01*
X135304198Y-100393956D01*
X135300000Y-100351333D01*
X135300000Y-99773667D01*
X135304198Y-99731044D01*
X135315195Y-99694790D01*
X135333054Y-99661379D01*
X135357090Y-99632090D01*
X135386379Y-99608054D01*
X135419790Y-99590195D01*
X135456044Y-99579198D01*
X135498667Y-99575000D01*
X136501333Y-99575000D01*
X136543956Y-99579198D01*
X136543956Y-99579198D01*
G37*
G36*
X139850000Y-100450000D02*
X137850000Y-100450000D01*
X137850000Y-98950000D01*
X139850000Y-98950000D01*
X139850000Y-100450000D01*
X139850000Y-100450000D01*
G37*
G36*
X132450000Y-100350000D02*
X131550000Y-100350000D01*
X131550000Y-99550000D01*
X132450000Y-99550000D01*
X132450000Y-100350000D01*
X132450000Y-100350000D01*
G37*
G36*
X130339076Y-98853717D02*
X130370641Y-98863291D01*
X130399735Y-98878843D01*
X130425232Y-98899768D01*
X130446157Y-98925265D01*
X130461709Y-98954359D01*
X130471283Y-98985924D01*
X130475000Y-99023658D01*
X130475000Y-99551342D01*
X130471283Y-99589076D01*
X130461709Y-99620641D01*
X130446157Y-99649735D01*
X130425232Y-99675232D01*
X130399735Y-99696157D01*
X130370641Y-99711709D01*
X130339076Y-99721283D01*
X130301342Y-99725000D01*
X129698658Y-99725000D01*
X129660924Y-99721283D01*
X129629359Y-99711709D01*
X129600265Y-99696157D01*
X129574768Y-99675232D01*
X129553843Y-99649735D01*
X129538291Y-99620641D01*
X129528717Y-99589076D01*
X129525000Y-99551342D01*
X129525000Y-99023658D01*
X129528717Y-98985924D01*
X129538291Y-98954359D01*
X129553843Y-98925265D01*
X129574768Y-98899768D01*
X129600265Y-98878843D01*
X129629359Y-98863291D01*
X129660924Y-98853717D01*
X129698658Y-98850000D01*
X130301342Y-98850000D01*
X130339076Y-98853717D01*
X130339076Y-98853717D01*
G37*
G36*
X128339076Y-98853717D02*
X128370641Y-98863291D01*
X128399735Y-98878843D01*
X128425232Y-98899768D01*
X128446157Y-98925265D01*
X128461709Y-98954359D01*
X128471283Y-98985924D01*
X128475000Y-99023658D01*
X128475000Y-99551342D01*
X128471283Y-99589076D01*
X128461709Y-99620641D01*
X128446157Y-99649735D01*
X128425232Y-99675232D01*
X128399735Y-99696157D01*
X128370641Y-99711709D01*
X128339076Y-99721283D01*
X128301342Y-99725000D01*
X127698658Y-99725000D01*
X127660924Y-99721283D01*
X127629359Y-99711709D01*
X127600265Y-99696157D01*
X127574768Y-99675232D01*
X127553843Y-99649735D01*
X127538291Y-99620641D01*
X127528717Y-99589076D01*
X127525000Y-99551342D01*
X127525000Y-99023658D01*
X127528717Y-98985924D01*
X127538291Y-98954359D01*
X127553843Y-98925265D01*
X127574768Y-98899768D01*
X127600265Y-98878843D01*
X127629359Y-98863291D01*
X127660924Y-98853717D01*
X127698658Y-98850000D01*
X128301342Y-98850000D01*
X128339076Y-98853717D01*
X128339076Y-98853717D01*
G37*
G36*
X126339076Y-98853717D02*
X126370641Y-98863291D01*
X126399735Y-98878843D01*
X126425232Y-98899768D01*
X126446157Y-98925265D01*
X126461709Y-98954359D01*
X126471283Y-98985924D01*
X126475000Y-99023658D01*
X126475000Y-99551342D01*
X126471283Y-99589076D01*
X126461709Y-99620641D01*
X126446157Y-99649735D01*
X126425232Y-99675232D01*
X126399735Y-99696157D01*
X126370641Y-99711709D01*
X126339076Y-99721283D01*
X126301342Y-99725000D01*
X125698658Y-99725000D01*
X125660924Y-99721283D01*
X125629359Y-99711709D01*
X125600265Y-99696157D01*
X125574768Y-99675232D01*
X125553843Y-99649735D01*
X125538291Y-99620641D01*
X125528717Y-99589076D01*
X125525000Y-99551342D01*
X125525000Y-99023658D01*
X125528717Y-98985924D01*
X125538291Y-98954359D01*
X125553843Y-98925265D01*
X125574768Y-98899768D01*
X125600265Y-98878843D01*
X125629359Y-98863291D01*
X125660924Y-98853717D01*
X125698658Y-98850000D01*
X126301342Y-98850000D01*
X126339076Y-98853717D01*
X126339076Y-98853717D01*
G37*
G36*
X124339076Y-98818541D02*
X124370641Y-98828115D01*
X124399735Y-98843667D01*
X124425232Y-98864592D01*
X124446157Y-98890089D01*
X124461709Y-98919183D01*
X124471283Y-98950748D01*
X124475000Y-98988482D01*
X124475000Y-99516166D01*
X124471283Y-99553900D01*
X124461709Y-99585465D01*
X124446157Y-99614559D01*
X124425232Y-99640056D01*
X124399735Y-99660981D01*
X124370641Y-99676533D01*
X124339076Y-99686107D01*
X124301342Y-99689824D01*
X123698658Y-99689824D01*
X123660924Y-99686107D01*
X123629359Y-99676533D01*
X123600265Y-99660981D01*
X123574768Y-99640056D01*
X123553843Y-99614559D01*
X123538291Y-99585465D01*
X123528717Y-99553900D01*
X123525000Y-99516166D01*
X123525000Y-98988482D01*
X123528717Y-98950748D01*
X123538291Y-98919183D01*
X123553843Y-98890089D01*
X123574768Y-98864592D01*
X123600265Y-98843667D01*
X123629359Y-98828115D01*
X123660924Y-98818541D01*
X123698658Y-98814824D01*
X124301342Y-98814824D01*
X124339076Y-98818541D01*
X124339076Y-98818541D01*
G37*
G36*
X134450000Y-99400000D02*
X133550000Y-99400000D01*
X133550000Y-98600000D01*
X134450000Y-98600000D01*
X134450000Y-99400000D01*
X134450000Y-99400000D01*
G37*
G36*
X160850000Y-98850000D02*
X159150000Y-98850000D01*
X159150000Y-97150000D01*
X160850000Y-97150000D01*
X160850000Y-98850000D01*
X160850000Y-98850000D01*
G37*
G36*
X132450000Y-98450000D02*
X131550000Y-98450000D01*
X131550000Y-97650000D01*
X132450000Y-97650000D01*
X132450000Y-98450000D01*
X132450000Y-98450000D01*
G37*
G36*
X130339076Y-97278717D02*
X130370641Y-97288291D01*
X130399735Y-97303843D01*
X130425232Y-97324768D01*
X130446157Y-97350265D01*
X130461709Y-97379359D01*
X130471283Y-97410924D01*
X130475000Y-97448658D01*
X130475000Y-97976342D01*
X130471283Y-98014076D01*
X130461709Y-98045641D01*
X130446157Y-98074735D01*
X130425232Y-98100232D01*
X130399735Y-98121157D01*
X130370641Y-98136709D01*
X130339076Y-98146283D01*
X130301342Y-98150000D01*
X129698658Y-98150000D01*
X129660924Y-98146283D01*
X129629359Y-98136709D01*
X129600265Y-98121157D01*
X129574768Y-98100232D01*
X129553843Y-98074735D01*
X129538291Y-98045641D01*
X129528717Y-98014076D01*
X129525000Y-97976342D01*
X129525000Y-97448658D01*
X129528717Y-97410924D01*
X129538291Y-97379359D01*
X129553843Y-97350265D01*
X129574768Y-97324768D01*
X129600265Y-97303843D01*
X129629359Y-97288291D01*
X129660924Y-97278717D01*
X129698658Y-97275000D01*
X130301342Y-97275000D01*
X130339076Y-97278717D01*
X130339076Y-97278717D01*
G37*
G36*
X128339076Y-97278717D02*
X128370641Y-97288291D01*
X128399735Y-97303843D01*
X128425232Y-97324768D01*
X128446157Y-97350265D01*
X128461709Y-97379359D01*
X128471283Y-97410924D01*
X128475000Y-97448658D01*
X128475000Y-97976342D01*
X128471283Y-98014076D01*
X128461709Y-98045641D01*
X128446157Y-98074735D01*
X128425232Y-98100232D01*
X128399735Y-98121157D01*
X128370641Y-98136709D01*
X128339076Y-98146283D01*
X128301342Y-98150000D01*
X127698658Y-98150000D01*
X127660924Y-98146283D01*
X127629359Y-98136709D01*
X127600265Y-98121157D01*
X127574768Y-98100232D01*
X127553843Y-98074735D01*
X127538291Y-98045641D01*
X127528717Y-98014076D01*
X127525000Y-97976342D01*
X127525000Y-97448658D01*
X127528717Y-97410924D01*
X127538291Y-97379359D01*
X127553843Y-97350265D01*
X127574768Y-97324768D01*
X127600265Y-97303843D01*
X127629359Y-97288291D01*
X127660924Y-97278717D01*
X127698658Y-97275000D01*
X128301342Y-97275000D01*
X128339076Y-97278717D01*
X128339076Y-97278717D01*
G37*
G36*
X126339076Y-97278717D02*
X126370641Y-97288291D01*
X126399735Y-97303843D01*
X126425232Y-97324768D01*
X126446157Y-97350265D01*
X126461709Y-97379359D01*
X126471283Y-97410924D01*
X126475000Y-97448658D01*
X126475000Y-97976342D01*
X126471283Y-98014076D01*
X126461709Y-98045641D01*
X126446157Y-98074735D01*
X126425232Y-98100232D01*
X126399735Y-98121157D01*
X126370641Y-98136709D01*
X126339076Y-98146283D01*
X126301342Y-98150000D01*
X125698658Y-98150000D01*
X125660924Y-98146283D01*
X125629359Y-98136709D01*
X125600265Y-98121157D01*
X125574768Y-98100232D01*
X125553843Y-98074735D01*
X125538291Y-98045641D01*
X125528717Y-98014076D01*
X125525000Y-97976342D01*
X125525000Y-97448658D01*
X125528717Y-97410924D01*
X125538291Y-97379359D01*
X125553843Y-97350265D01*
X125574768Y-97324768D01*
X125600265Y-97303843D01*
X125629359Y-97288291D01*
X125660924Y-97278717D01*
X125698658Y-97275000D01*
X126301342Y-97275000D01*
X126339076Y-97278717D01*
X126339076Y-97278717D01*
G37*
G36*
X124339076Y-97243541D02*
X124370641Y-97253115D01*
X124399735Y-97268667D01*
X124425232Y-97289592D01*
X124446157Y-97315089D01*
X124461709Y-97344183D01*
X124471283Y-97375748D01*
X124475000Y-97413482D01*
X124475000Y-97941166D01*
X124471283Y-97978900D01*
X124461709Y-98010465D01*
X124446157Y-98039559D01*
X124425232Y-98065056D01*
X124399735Y-98085981D01*
X124370641Y-98101533D01*
X124339076Y-98111107D01*
X124301342Y-98114824D01*
X123698658Y-98114824D01*
X123660924Y-98111107D01*
X123629359Y-98101533D01*
X123600265Y-98085981D01*
X123574768Y-98065056D01*
X123553843Y-98039559D01*
X123538291Y-98010465D01*
X123528717Y-97978900D01*
X123525000Y-97941166D01*
X123525000Y-97413482D01*
X123528717Y-97375748D01*
X123538291Y-97344183D01*
X123553843Y-97315089D01*
X123574768Y-97289592D01*
X123600265Y-97268667D01*
X123629359Y-97253115D01*
X123660924Y-97243541D01*
X123698658Y-97239824D01*
X124301342Y-97239824D01*
X124339076Y-97243541D01*
X124339076Y-97243541D01*
G37*
G36*
X156014076Y-96528717D02*
X156045641Y-96538291D01*
X156074735Y-96553843D01*
X156100232Y-96574768D01*
X156121157Y-96600265D01*
X156136709Y-96629359D01*
X156146283Y-96660924D01*
X156150000Y-96698658D01*
X156150000Y-97301342D01*
X156146283Y-97339076D01*
X156136709Y-97370641D01*
X156121157Y-97399735D01*
X156100232Y-97425232D01*
X156074735Y-97446157D01*
X156045641Y-97461709D01*
X156014076Y-97471283D01*
X155976342Y-97475000D01*
X155448658Y-97475000D01*
X155410924Y-97471283D01*
X155379359Y-97461709D01*
X155350265Y-97446157D01*
X155324768Y-97425232D01*
X155303843Y-97399735D01*
X155288291Y-97370641D01*
X155278717Y-97339076D01*
X155275000Y-97301342D01*
X155275000Y-96698658D01*
X155278717Y-96660924D01*
X155288291Y-96629359D01*
X155303843Y-96600265D01*
X155324768Y-96574768D01*
X155350265Y-96553843D01*
X155379359Y-96538291D01*
X155410924Y-96528717D01*
X155448658Y-96525000D01*
X155976342Y-96525000D01*
X156014076Y-96528717D01*
X156014076Y-96528717D01*
G37*
G36*
X157589076Y-96528717D02*
X157620641Y-96538291D01*
X157649735Y-96553843D01*
X157675232Y-96574768D01*
X157696157Y-96600265D01*
X157711709Y-96629359D01*
X157721283Y-96660924D01*
X157725000Y-96698658D01*
X157725000Y-97301342D01*
X157721283Y-97339076D01*
X157711709Y-97370641D01*
X157696157Y-97399735D01*
X157675232Y-97425232D01*
X157649735Y-97446157D01*
X157620641Y-97461709D01*
X157589076Y-97471283D01*
X157551342Y-97475000D01*
X157023658Y-97475000D01*
X156985924Y-97471283D01*
X156954359Y-97461709D01*
X156925265Y-97446157D01*
X156899768Y-97425232D01*
X156878843Y-97399735D01*
X156863291Y-97370641D01*
X156853717Y-97339076D01*
X156850000Y-97301342D01*
X156850000Y-96698658D01*
X156853717Y-96660924D01*
X156863291Y-96629359D01*
X156878843Y-96600265D01*
X156899768Y-96574768D01*
X156925265Y-96553843D01*
X156954359Y-96538291D01*
X156985924Y-96528717D01*
X157023658Y-96525000D01*
X157551342Y-96525000D01*
X157589076Y-96528717D01*
X157589076Y-96528717D01*
G37*
G36*
X146014076Y-95528717D02*
X146045641Y-95538291D01*
X146074735Y-95553843D01*
X146100232Y-95574768D01*
X146121157Y-95600265D01*
X146136709Y-95629359D01*
X146146283Y-95660924D01*
X146150000Y-95698658D01*
X146150000Y-96301342D01*
X146146283Y-96339076D01*
X146136709Y-96370641D01*
X146121157Y-96399735D01*
X146100232Y-96425232D01*
X146074735Y-96446157D01*
X146045641Y-96461709D01*
X146014076Y-96471283D01*
X145976342Y-96475000D01*
X145448658Y-96475000D01*
X145410924Y-96471283D01*
X145379359Y-96461709D01*
X145350265Y-96446157D01*
X145324768Y-96425232D01*
X145303843Y-96399735D01*
X145288291Y-96370641D01*
X145278717Y-96339076D01*
X145275000Y-96301342D01*
X145275000Y-95698658D01*
X145278717Y-95660924D01*
X145288291Y-95629359D01*
X145303843Y-95600265D01*
X145324768Y-95574768D01*
X145350265Y-95553843D01*
X145379359Y-95538291D01*
X145410924Y-95528717D01*
X145448658Y-95525000D01*
X145976342Y-95525000D01*
X146014076Y-95528717D01*
X146014076Y-95528717D01*
G37*
G36*
X147589076Y-95528717D02*
X147620641Y-95538291D01*
X147649735Y-95553843D01*
X147675232Y-95574768D01*
X147696157Y-95600265D01*
X147711709Y-95629359D01*
X147721283Y-95660924D01*
X147725000Y-95698658D01*
X147725000Y-96301342D01*
X147721283Y-96339076D01*
X147711709Y-96370641D01*
X147696157Y-96399735D01*
X147675232Y-96425232D01*
X147649735Y-96446157D01*
X147620641Y-96461709D01*
X147589076Y-96471283D01*
X147551342Y-96475000D01*
X147023658Y-96475000D01*
X146985924Y-96471283D01*
X146954359Y-96461709D01*
X146925265Y-96446157D01*
X146899768Y-96425232D01*
X146878843Y-96399735D01*
X146863291Y-96370641D01*
X146853717Y-96339076D01*
X146850000Y-96301342D01*
X146850000Y-95698658D01*
X146853717Y-95660924D01*
X146863291Y-95629359D01*
X146878843Y-95600265D01*
X146899768Y-95574768D01*
X146925265Y-95553843D01*
X146954359Y-95538291D01*
X146985924Y-95528717D01*
X147023658Y-95525000D01*
X147551342Y-95525000D01*
X147589076Y-95528717D01*
X147589076Y-95528717D01*
G37*
G36*
X126339076Y-95353717D02*
X126370641Y-95363291D01*
X126399735Y-95378843D01*
X126425232Y-95399768D01*
X126446157Y-95425265D01*
X126461709Y-95454359D01*
X126471283Y-95485924D01*
X126475000Y-95523658D01*
X126475000Y-96051342D01*
X126471283Y-96089076D01*
X126461709Y-96120641D01*
X126446157Y-96149735D01*
X126425232Y-96175232D01*
X126399735Y-96196157D01*
X126370641Y-96211709D01*
X126339076Y-96221283D01*
X126301342Y-96225000D01*
X125698658Y-96225000D01*
X125660924Y-96221283D01*
X125629359Y-96211709D01*
X125600265Y-96196157D01*
X125574768Y-96175232D01*
X125553843Y-96149735D01*
X125538291Y-96120641D01*
X125528717Y-96089076D01*
X125525000Y-96051342D01*
X125525000Y-95523658D01*
X125528717Y-95485924D01*
X125538291Y-95454359D01*
X125553843Y-95425265D01*
X125574768Y-95399768D01*
X125600265Y-95378843D01*
X125629359Y-95363291D01*
X125660924Y-95353717D01*
X125698658Y-95350000D01*
X126301342Y-95350000D01*
X126339076Y-95353717D01*
X126339076Y-95353717D01*
G37*
G36*
X124339076Y-95353717D02*
X124370641Y-95363291D01*
X124399735Y-95378843D01*
X124425232Y-95399768D01*
X124446157Y-95425265D01*
X124461709Y-95454359D01*
X124471283Y-95485924D01*
X124475000Y-95523658D01*
X124475000Y-96051342D01*
X124471283Y-96089076D01*
X124461709Y-96120641D01*
X124446157Y-96149735D01*
X124425232Y-96175232D01*
X124399735Y-96196157D01*
X124370641Y-96211709D01*
X124339076Y-96221283D01*
X124301342Y-96225000D01*
X123698658Y-96225000D01*
X123660924Y-96221283D01*
X123629359Y-96211709D01*
X123600265Y-96196157D01*
X123574768Y-96175232D01*
X123553843Y-96149735D01*
X123538291Y-96120641D01*
X123528717Y-96089076D01*
X123525000Y-96051342D01*
X123525000Y-95523658D01*
X123528717Y-95485924D01*
X123538291Y-95454359D01*
X123553843Y-95425265D01*
X123574768Y-95399768D01*
X123600265Y-95378843D01*
X123629359Y-95363291D01*
X123660924Y-95353717D01*
X123698658Y-95350000D01*
X124301342Y-95350000D01*
X124339076Y-95353717D01*
X124339076Y-95353717D01*
G37*
G36*
X153222267Y-94267283D02*
X153222269Y-94267284D01*
X153222270Y-94267284D01*
X153360942Y-94324724D01*
X153485747Y-94408116D01*
X153591884Y-94514253D01*
X153675276Y-94639058D01*
X153732717Y-94777733D01*
X153762000Y-94924950D01*
X153762000Y-95075050D01*
X153732717Y-95222267D01*
X153675276Y-95360942D01*
X153591884Y-95485747D01*
X153485747Y-95591884D01*
X153383747Y-95660038D01*
X153360942Y-95675276D01*
X153222270Y-95732716D01*
X153222269Y-95732716D01*
X153222267Y-95732717D01*
X153075050Y-95762000D01*
X152924950Y-95762000D01*
X152777733Y-95732717D01*
X152777731Y-95732716D01*
X152777730Y-95732716D01*
X152639058Y-95675276D01*
X152616253Y-95660038D01*
X152514253Y-95591884D01*
X152408116Y-95485747D01*
X152324724Y-95360942D01*
X152267283Y-95222267D01*
X152238000Y-95075050D01*
X152238000Y-94924950D01*
X152267283Y-94777733D01*
X152324724Y-94639058D01*
X152408116Y-94514253D01*
X152514253Y-94408116D01*
X152639058Y-94324724D01*
X152777730Y-94267284D01*
X152777731Y-94267284D01*
X152777733Y-94267283D01*
X152924950Y-94238000D01*
X153075050Y-94238000D01*
X153222267Y-94267283D01*
X153222267Y-94267283D01*
G37*
G36*
X131222267Y-94267283D02*
X131222269Y-94267284D01*
X131222270Y-94267284D01*
X131360942Y-94324724D01*
X131485747Y-94408116D01*
X131591884Y-94514253D01*
X131675276Y-94639058D01*
X131732717Y-94777733D01*
X131762000Y-94924950D01*
X131762000Y-95075050D01*
X131732717Y-95222267D01*
X131675276Y-95360942D01*
X131591884Y-95485747D01*
X131485747Y-95591884D01*
X131383747Y-95660038D01*
X131360942Y-95675276D01*
X131222270Y-95732716D01*
X131222269Y-95732716D01*
X131222267Y-95732717D01*
X131075050Y-95762000D01*
X130924950Y-95762000D01*
X130777733Y-95732717D01*
X130777731Y-95732716D01*
X130777730Y-95732716D01*
X130639058Y-95675276D01*
X130616253Y-95660038D01*
X130514253Y-95591884D01*
X130408116Y-95485747D01*
X130324724Y-95360942D01*
X130267283Y-95222267D01*
X130238000Y-95075050D01*
X130238000Y-94924950D01*
X130267283Y-94777733D01*
X130324724Y-94639058D01*
X130408116Y-94514253D01*
X130514253Y-94408116D01*
X130639058Y-94324724D01*
X130777730Y-94267284D01*
X130777731Y-94267284D01*
X130777733Y-94267283D01*
X130924950Y-94238000D01*
X131075050Y-94238000D01*
X131222267Y-94267283D01*
X131222267Y-94267283D01*
G37*
G36*
X157589076Y-94528717D02*
X157620641Y-94538291D01*
X157649735Y-94553843D01*
X157675232Y-94574768D01*
X157696157Y-94600265D01*
X157711709Y-94629359D01*
X157721283Y-94660924D01*
X157725000Y-94698658D01*
X157725000Y-95301342D01*
X157721283Y-95339076D01*
X157711709Y-95370641D01*
X157696157Y-95399735D01*
X157675232Y-95425232D01*
X157649735Y-95446157D01*
X157620641Y-95461709D01*
X157589076Y-95471283D01*
X157551342Y-95475000D01*
X157023658Y-95475000D01*
X156985924Y-95471283D01*
X156954359Y-95461709D01*
X156925265Y-95446157D01*
X156899768Y-95425232D01*
X156878843Y-95399735D01*
X156863291Y-95370641D01*
X156853717Y-95339076D01*
X156850000Y-95301342D01*
X156850000Y-94698658D01*
X156853717Y-94660924D01*
X156863291Y-94629359D01*
X156878843Y-94600265D01*
X156899768Y-94574768D01*
X156925265Y-94553843D01*
X156954359Y-94538291D01*
X156985924Y-94528717D01*
X157023658Y-94525000D01*
X157551342Y-94525000D01*
X157589076Y-94528717D01*
X157589076Y-94528717D01*
G37*
G36*
X156014076Y-94528717D02*
X156045641Y-94538291D01*
X156074735Y-94553843D01*
X156100232Y-94574768D01*
X156121157Y-94600265D01*
X156136709Y-94629359D01*
X156146283Y-94660924D01*
X156150000Y-94698658D01*
X156150000Y-95301342D01*
X156146283Y-95339076D01*
X156136709Y-95370641D01*
X156121157Y-95399735D01*
X156100232Y-95425232D01*
X156074735Y-95446157D01*
X156045641Y-95461709D01*
X156014076Y-95471283D01*
X155976342Y-95475000D01*
X155448658Y-95475000D01*
X155410924Y-95471283D01*
X155379359Y-95461709D01*
X155350265Y-95446157D01*
X155324768Y-95425232D01*
X155303843Y-95399735D01*
X155288291Y-95370641D01*
X155278717Y-95339076D01*
X155275000Y-95301342D01*
X155275000Y-94698658D01*
X155278717Y-94660924D01*
X155288291Y-94629359D01*
X155303843Y-94600265D01*
X155324768Y-94574768D01*
X155350265Y-94553843D01*
X155379359Y-94538291D01*
X155410924Y-94528717D01*
X155448658Y-94525000D01*
X155976342Y-94525000D01*
X156014076Y-94528717D01*
X156014076Y-94528717D01*
G37*
G36*
X160166627Y-93242299D02*
X160257088Y-93269740D01*
X160326855Y-93290903D01*
X160378586Y-93318554D01*
X160474517Y-93369830D01*
X160603948Y-93476052D01*
X160710170Y-93605483D01*
X160747475Y-93675276D01*
X160789097Y-93753145D01*
X160796854Y-93778717D01*
X160837701Y-93913373D01*
X160854113Y-94080000D01*
X160837701Y-94246627D01*
X160837700Y-94246629D01*
X160789097Y-94406855D01*
X160760309Y-94460712D01*
X160710170Y-94554517D01*
X160603948Y-94683948D01*
X160474517Y-94790170D01*
X160380712Y-94840309D01*
X160326855Y-94869097D01*
X160257088Y-94890260D01*
X160166627Y-94917701D01*
X160041757Y-94930000D01*
X159958243Y-94930000D01*
X159833373Y-94917701D01*
X159742912Y-94890260D01*
X159673145Y-94869097D01*
X159619288Y-94840309D01*
X159525483Y-94790170D01*
X159396052Y-94683948D01*
X159289830Y-94554517D01*
X159239691Y-94460712D01*
X159210903Y-94406855D01*
X159162300Y-94246629D01*
X159162299Y-94246627D01*
X159145887Y-94080000D01*
X159162299Y-93913373D01*
X159203146Y-93778717D01*
X159210903Y-93753145D01*
X159252525Y-93675276D01*
X159289830Y-93605483D01*
X159396052Y-93476052D01*
X159525483Y-93369830D01*
X159621414Y-93318554D01*
X159673145Y-93290903D01*
X159742912Y-93269740D01*
X159833373Y-93242299D01*
X159958243Y-93230000D01*
X160041757Y-93230000D01*
X160166627Y-93242299D01*
X160166627Y-93242299D01*
G37*
G36*
X147768956Y-93304198D02*
X147805210Y-93315195D01*
X147838621Y-93333054D01*
X147867910Y-93357090D01*
X147891946Y-93386379D01*
X147909805Y-93419790D01*
X147920802Y-93456044D01*
X147925000Y-93498667D01*
X147925000Y-94501333D01*
X147920802Y-94543956D01*
X147909805Y-94580210D01*
X147891946Y-94613621D01*
X147867910Y-94642910D01*
X147838621Y-94666946D01*
X147805210Y-94684805D01*
X147768956Y-94695802D01*
X147726333Y-94700000D01*
X147148667Y-94700000D01*
X147106044Y-94695802D01*
X147069790Y-94684805D01*
X147036379Y-94666946D01*
X147007090Y-94642910D01*
X146983054Y-94613621D01*
X146965195Y-94580210D01*
X146954198Y-94543956D01*
X146950000Y-94501333D01*
X146950000Y-93498667D01*
X146954198Y-93456044D01*
X146965195Y-93419790D01*
X146983054Y-93386379D01*
X147007090Y-93357090D01*
X147036379Y-93333054D01*
X147069790Y-93315195D01*
X147106044Y-93304198D01*
X147148667Y-93300000D01*
X147726333Y-93300000D01*
X147768956Y-93304198D01*
X147768956Y-93304198D01*
G37*
G36*
X145893956Y-93304198D02*
X145930210Y-93315195D01*
X145963621Y-93333054D01*
X145992910Y-93357090D01*
X146016946Y-93386379D01*
X146034805Y-93419790D01*
X146045802Y-93456044D01*
X146050000Y-93498667D01*
X146050000Y-94501333D01*
X146045802Y-94543956D01*
X146034805Y-94580210D01*
X146016946Y-94613621D01*
X145992910Y-94642910D01*
X145963621Y-94666946D01*
X145930210Y-94684805D01*
X145893956Y-94695802D01*
X145851333Y-94700000D01*
X145273667Y-94700000D01*
X145231044Y-94695802D01*
X145194790Y-94684805D01*
X145161379Y-94666946D01*
X145132090Y-94642910D01*
X145108054Y-94613621D01*
X145090195Y-94580210D01*
X145079198Y-94543956D01*
X145075000Y-94501333D01*
X145075000Y-93498667D01*
X145079198Y-93456044D01*
X145090195Y-93419790D01*
X145108054Y-93386379D01*
X145132090Y-93357090D01*
X145161379Y-93333054D01*
X145194790Y-93315195D01*
X145231044Y-93304198D01*
X145273667Y-93300000D01*
X145851333Y-93300000D01*
X145893956Y-93304198D01*
X145893956Y-93304198D01*
G37*
G36*
X124339076Y-93778717D02*
X124370641Y-93788291D01*
X124399735Y-93803843D01*
X124425232Y-93824768D01*
X124446157Y-93850265D01*
X124461709Y-93879359D01*
X124471283Y-93910924D01*
X124475000Y-93948658D01*
X124475000Y-94476342D01*
X124471283Y-94514076D01*
X124461709Y-94545641D01*
X124446157Y-94574735D01*
X124425232Y-94600232D01*
X124399735Y-94621157D01*
X124370641Y-94636709D01*
X124339076Y-94646283D01*
X124301342Y-94650000D01*
X123698658Y-94650000D01*
X123660924Y-94646283D01*
X123629359Y-94636709D01*
X123600265Y-94621157D01*
X123574768Y-94600232D01*
X123553843Y-94574735D01*
X123538291Y-94545641D01*
X123528717Y-94514076D01*
X123525000Y-94476342D01*
X123525000Y-93948658D01*
X123528717Y-93910924D01*
X123538291Y-93879359D01*
X123553843Y-93850265D01*
X123574768Y-93824768D01*
X123600265Y-93803843D01*
X123629359Y-93788291D01*
X123660924Y-93778717D01*
X123698658Y-93775000D01*
X124301342Y-93775000D01*
X124339076Y-93778717D01*
X124339076Y-93778717D01*
G37*
G36*
X126339076Y-93778717D02*
X126370641Y-93788291D01*
X126399735Y-93803843D01*
X126425232Y-93824768D01*
X126446157Y-93850265D01*
X126461709Y-93879359D01*
X126471283Y-93910924D01*
X126475000Y-93948658D01*
X126475000Y-94476342D01*
X126471283Y-94514076D01*
X126461709Y-94545641D01*
X126446157Y-94574735D01*
X126425232Y-94600232D01*
X126399735Y-94621157D01*
X126370641Y-94636709D01*
X126339076Y-94646283D01*
X126301342Y-94650000D01*
X125698658Y-94650000D01*
X125660924Y-94646283D01*
X125629359Y-94636709D01*
X125600265Y-94621157D01*
X125574768Y-94600232D01*
X125553843Y-94574735D01*
X125538291Y-94545641D01*
X125528717Y-94514076D01*
X125525000Y-94476342D01*
X125525000Y-93948658D01*
X125528717Y-93910924D01*
X125538291Y-93879359D01*
X125553843Y-93850265D01*
X125574768Y-93824768D01*
X125600265Y-93803843D01*
X125629359Y-93788291D01*
X125660924Y-93778717D01*
X125698658Y-93775000D01*
X126301342Y-93775000D01*
X126339076Y-93778717D01*
X126339076Y-93778717D01*
G37*
G36*
X153222267Y-92267283D02*
X153222269Y-92267284D01*
X153222270Y-92267284D01*
X153360942Y-92324724D01*
X153485747Y-92408116D01*
X153591884Y-92514253D01*
X153668795Y-92629359D01*
X153675276Y-92639058D01*
X153732716Y-92777730D01*
X153762000Y-92924951D01*
X153762000Y-93075049D01*
X153732716Y-93222270D01*
X153724419Y-93242300D01*
X153675276Y-93360942D01*
X153591884Y-93485747D01*
X153485747Y-93591884D01*
X153360942Y-93675276D01*
X153222270Y-93732716D01*
X153222269Y-93732716D01*
X153222267Y-93732717D01*
X153075050Y-93762000D01*
X152924950Y-93762000D01*
X152777733Y-93732717D01*
X152777731Y-93732716D01*
X152777730Y-93732716D01*
X152639058Y-93675276D01*
X152514253Y-93591884D01*
X152408116Y-93485747D01*
X152324724Y-93360942D01*
X152275581Y-93242300D01*
X152267284Y-93222270D01*
X152238000Y-93075049D01*
X152238000Y-92924951D01*
X152267284Y-92777730D01*
X152324724Y-92639058D01*
X152331205Y-92629359D01*
X152408116Y-92514253D01*
X152514253Y-92408116D01*
X152639058Y-92324724D01*
X152777730Y-92267284D01*
X152777731Y-92267284D01*
X152777733Y-92267283D01*
X152924950Y-92238000D01*
X153075050Y-92238000D01*
X153222267Y-92267283D01*
X153222267Y-92267283D01*
G37*
G36*
X131222267Y-92267283D02*
X131222269Y-92267284D01*
X131222270Y-92267284D01*
X131360942Y-92324724D01*
X131485747Y-92408116D01*
X131591884Y-92514253D01*
X131668795Y-92629359D01*
X131675276Y-92639058D01*
X131732716Y-92777730D01*
X131762000Y-92924951D01*
X131762000Y-93075049D01*
X131732716Y-93222270D01*
X131724419Y-93242300D01*
X131675276Y-93360942D01*
X131591884Y-93485747D01*
X131485747Y-93591884D01*
X131360942Y-93675276D01*
X131222270Y-93732716D01*
X131222269Y-93732716D01*
X131222267Y-93732717D01*
X131075050Y-93762000D01*
X130924950Y-93762000D01*
X130777733Y-93732717D01*
X130777731Y-93732716D01*
X130777730Y-93732716D01*
X130639058Y-93675276D01*
X130514253Y-93591884D01*
X130408116Y-93485747D01*
X130324724Y-93360942D01*
X130275581Y-93242300D01*
X130267284Y-93222270D01*
X130238000Y-93075049D01*
X130238000Y-92924951D01*
X130267284Y-92777730D01*
X130324724Y-92639058D01*
X130331205Y-92629359D01*
X130408116Y-92514253D01*
X130514253Y-92408116D01*
X130639058Y-92324724D01*
X130777730Y-92267284D01*
X130777731Y-92267284D01*
X130777733Y-92267283D01*
X130924950Y-92238000D01*
X131075050Y-92238000D01*
X131222267Y-92267283D01*
X131222267Y-92267283D01*
G37*
G36*
X157589076Y-92528717D02*
X157620641Y-92538291D01*
X157649735Y-92553843D01*
X157675232Y-92574768D01*
X157696157Y-92600265D01*
X157711709Y-92629359D01*
X157721283Y-92660924D01*
X157725000Y-92698658D01*
X157725000Y-93301338D01*
X157721283Y-93339076D01*
X157711709Y-93370641D01*
X157696157Y-93399735D01*
X157675232Y-93425232D01*
X157649735Y-93446157D01*
X157620641Y-93461709D01*
X157589076Y-93471283D01*
X157551342Y-93475000D01*
X157023658Y-93475000D01*
X156985924Y-93471283D01*
X156954359Y-93461709D01*
X156925265Y-93446157D01*
X156899768Y-93425232D01*
X156878843Y-93399735D01*
X156863291Y-93370641D01*
X156853717Y-93339076D01*
X156850000Y-93301338D01*
X156850000Y-92698658D01*
X156853717Y-92660924D01*
X156863291Y-92629359D01*
X156878843Y-92600265D01*
X156899768Y-92574768D01*
X156925265Y-92553843D01*
X156954359Y-92538291D01*
X156985924Y-92528717D01*
X157023658Y-92525000D01*
X157551342Y-92525000D01*
X157589076Y-92528717D01*
X157589076Y-92528717D01*
G37*
G36*
X156014076Y-92528717D02*
X156045641Y-92538291D01*
X156074735Y-92553843D01*
X156100232Y-92574768D01*
X156121157Y-92600265D01*
X156136709Y-92629359D01*
X156146283Y-92660924D01*
X156150000Y-92698658D01*
X156150000Y-93301338D01*
X156146283Y-93339076D01*
X156136709Y-93370641D01*
X156121157Y-93399735D01*
X156100232Y-93425232D01*
X156074735Y-93446157D01*
X156045641Y-93461709D01*
X156014076Y-93471283D01*
X155976342Y-93475000D01*
X155448658Y-93475000D01*
X155410924Y-93471283D01*
X155379359Y-93461709D01*
X155350265Y-93446157D01*
X155324768Y-93425232D01*
X155303843Y-93399735D01*
X155288291Y-93370641D01*
X155278717Y-93339076D01*
X155275000Y-93301338D01*
X155275000Y-92698658D01*
X155278717Y-92660924D01*
X155288291Y-92629359D01*
X155303843Y-92600265D01*
X155324768Y-92574768D01*
X155350265Y-92553843D01*
X155379359Y-92538291D01*
X155410924Y-92528717D01*
X155448658Y-92525000D01*
X155976342Y-92525000D01*
X156014076Y-92528717D01*
X156014076Y-92528717D01*
G37*
G36*
X160166627Y-90702299D02*
X160257088Y-90729740D01*
X160326855Y-90750903D01*
X160377044Y-90777730D01*
X160474517Y-90829830D01*
X160603948Y-90936052D01*
X160710170Y-91065483D01*
X160760309Y-91159288D01*
X160789097Y-91213145D01*
X160789097Y-91213146D01*
X160837701Y-91373373D01*
X160854113Y-91540000D01*
X160837701Y-91706627D01*
X160820904Y-91762000D01*
X160789097Y-91866855D01*
X160760309Y-91920712D01*
X160710170Y-92014517D01*
X160603948Y-92143948D01*
X160474517Y-92250170D01*
X160380712Y-92300309D01*
X160326855Y-92329097D01*
X160257088Y-92350260D01*
X160166627Y-92377701D01*
X160041757Y-92390000D01*
X159958243Y-92390000D01*
X159833373Y-92377701D01*
X159742912Y-92350260D01*
X159673145Y-92329097D01*
X159619288Y-92300309D01*
X159525483Y-92250170D01*
X159396052Y-92143948D01*
X159289830Y-92014517D01*
X159239691Y-91920712D01*
X159210903Y-91866855D01*
X159179096Y-91762000D01*
X159162299Y-91706627D01*
X159145887Y-91540000D01*
X159162299Y-91373373D01*
X159210903Y-91213146D01*
X159210903Y-91213145D01*
X159239691Y-91159288D01*
X159289830Y-91065483D01*
X159396052Y-90936052D01*
X159525483Y-90829830D01*
X159622956Y-90777730D01*
X159673145Y-90750903D01*
X159742912Y-90729740D01*
X159833373Y-90702299D01*
X159958243Y-90690000D01*
X160041757Y-90690000D01*
X160166627Y-90702299D01*
X160166627Y-90702299D01*
G37*
G36*
X145090000Y-91840000D02*
X144510000Y-91840000D01*
X144510000Y-90660000D01*
X145090000Y-90660000D01*
X145090000Y-91840000D01*
X145090000Y-91840000D01*
G37*
G36*
X144290000Y-91840000D02*
X143710000Y-91840000D01*
X143710000Y-90660000D01*
X144290000Y-90660000D01*
X144290000Y-91840000D01*
X144290000Y-91840000D01*
G37*
G36*
X139490000Y-91840000D02*
X138910000Y-91840000D01*
X138910000Y-90660000D01*
X139490000Y-90660000D01*
X139490000Y-91840000D01*
X139490000Y-91840000D01*
G37*
G36*
X140290000Y-91840000D02*
X139710000Y-91840000D01*
X139710000Y-90660000D01*
X140290000Y-90660000D01*
X140290000Y-91840000D01*
X140290000Y-91840000D01*
G37*
G36*
X141890000Y-91840000D02*
X141310000Y-91840000D01*
X141310000Y-90660000D01*
X141890000Y-90660000D01*
X141890000Y-91840000D01*
X141890000Y-91840000D01*
G37*
G36*
X141090000Y-91840000D02*
X140510000Y-91840000D01*
X140510000Y-90660000D01*
X141090000Y-90660000D01*
X141090000Y-91840000D01*
X141090000Y-91840000D01*
G37*
G36*
X143490000Y-91840000D02*
X142910000Y-91840000D01*
X142910000Y-90660000D01*
X143490000Y-90660000D01*
X143490000Y-91840000D01*
X143490000Y-91840000D01*
G37*
G36*
X142690000Y-91840000D02*
X142110000Y-91840000D01*
X142110000Y-90660000D01*
X142690000Y-90660000D01*
X142690000Y-91840000D01*
X142690000Y-91840000D01*
G37*
G36*
X131222267Y-90267283D02*
X131222269Y-90267284D01*
X131222270Y-90267284D01*
X131360942Y-90324724D01*
X131485747Y-90408116D01*
X131591884Y-90514253D01*
X131675276Y-90639058D01*
X131732717Y-90777733D01*
X131762000Y-90924950D01*
X131762000Y-91075050D01*
X131732717Y-91222267D01*
X131675276Y-91360942D01*
X131591884Y-91485747D01*
X131485747Y-91591884D01*
X131360942Y-91675276D01*
X131222270Y-91732716D01*
X131222269Y-91732716D01*
X131222267Y-91732717D01*
X131075050Y-91762000D01*
X130924950Y-91762000D01*
X130777733Y-91732717D01*
X130777731Y-91732716D01*
X130777730Y-91732716D01*
X130639058Y-91675276D01*
X130514253Y-91591884D01*
X130408116Y-91485747D01*
X130324724Y-91360942D01*
X130267283Y-91222267D01*
X130238000Y-91075050D01*
X130238000Y-90924950D01*
X130267283Y-90777733D01*
X130324724Y-90639058D01*
X130408116Y-90514253D01*
X130514253Y-90408116D01*
X130639058Y-90324724D01*
X130777730Y-90267284D01*
X130777731Y-90267284D01*
X130777733Y-90267283D01*
X130924950Y-90238000D01*
X131075050Y-90238000D01*
X131222267Y-90267283D01*
X131222267Y-90267283D01*
G37*
G36*
X153222267Y-90267283D02*
X153222269Y-90267284D01*
X153222270Y-90267284D01*
X153360942Y-90324724D01*
X153485747Y-90408116D01*
X153591884Y-90514253D01*
X153675276Y-90639058D01*
X153732717Y-90777733D01*
X153762000Y-90924950D01*
X153762000Y-91075050D01*
X153732717Y-91222267D01*
X153675276Y-91360942D01*
X153591884Y-91485747D01*
X153485747Y-91591884D01*
X153360942Y-91675276D01*
X153222270Y-91732716D01*
X153222269Y-91732716D01*
X153222267Y-91732717D01*
X153075050Y-91762000D01*
X152924950Y-91762000D01*
X152777733Y-91732717D01*
X152777731Y-91732716D01*
X152777730Y-91732716D01*
X152639058Y-91675276D01*
X152514253Y-91591884D01*
X152408116Y-91485747D01*
X152324724Y-91360942D01*
X152267283Y-91222267D01*
X152238000Y-91075050D01*
X152238000Y-90924950D01*
X152267283Y-90777733D01*
X152324724Y-90639058D01*
X152408116Y-90514253D01*
X152514253Y-90408116D01*
X152639058Y-90324724D01*
X152777730Y-90267284D01*
X152777731Y-90267284D01*
X152777733Y-90267283D01*
X152924950Y-90238000D01*
X153075050Y-90238000D01*
X153222267Y-90267283D01*
X153222267Y-90267283D01*
G37*
G36*
X156014076Y-90528717D02*
X156045641Y-90538291D01*
X156074735Y-90553843D01*
X156100232Y-90574768D01*
X156121157Y-90600265D01*
X156136709Y-90629359D01*
X156146283Y-90660924D01*
X156150000Y-90698658D01*
X156150000Y-91301342D01*
X156146283Y-91339076D01*
X156136709Y-91370641D01*
X156121157Y-91399735D01*
X156100232Y-91425232D01*
X156074735Y-91446157D01*
X156045641Y-91461709D01*
X156014076Y-91471283D01*
X155976342Y-91475000D01*
X155448658Y-91475000D01*
X155410924Y-91471283D01*
X155379359Y-91461709D01*
X155350265Y-91446157D01*
X155324768Y-91425232D01*
X155303843Y-91399735D01*
X155288291Y-91370641D01*
X155278717Y-91339076D01*
X155275000Y-91301342D01*
X155275000Y-90698658D01*
X155278717Y-90660924D01*
X155288291Y-90629359D01*
X155303843Y-90600265D01*
X155324768Y-90574768D01*
X155350265Y-90553843D01*
X155379359Y-90538291D01*
X155410924Y-90528717D01*
X155448658Y-90525000D01*
X155976342Y-90525000D01*
X156014076Y-90528717D01*
X156014076Y-90528717D01*
G37*
G36*
X157589076Y-90528717D02*
X157620641Y-90538291D01*
X157649735Y-90553843D01*
X157675232Y-90574768D01*
X157696157Y-90600265D01*
X157711709Y-90629359D01*
X157721283Y-90660924D01*
X157725000Y-90698658D01*
X157725000Y-91301342D01*
X157721283Y-91339076D01*
X157711709Y-91370641D01*
X157696157Y-91399735D01*
X157675232Y-91425232D01*
X157649735Y-91446157D01*
X157620641Y-91461709D01*
X157589076Y-91471283D01*
X157551342Y-91475000D01*
X157023658Y-91475000D01*
X156985924Y-91471283D01*
X156954359Y-91461709D01*
X156925265Y-91446157D01*
X156899768Y-91425232D01*
X156878843Y-91399735D01*
X156863291Y-91370641D01*
X156853717Y-91339076D01*
X156850000Y-91301342D01*
X156850000Y-90698658D01*
X156853717Y-90660924D01*
X156863291Y-90629359D01*
X156878843Y-90600265D01*
X156899768Y-90574768D01*
X156925265Y-90553843D01*
X156954359Y-90538291D01*
X156985924Y-90528717D01*
X157023658Y-90525000D01*
X157551342Y-90525000D01*
X157589076Y-90528717D01*
X157589076Y-90528717D01*
G37*
G36*
X127206627Y-89662299D02*
X127297088Y-89689740D01*
X127366855Y-89710903D01*
X127420712Y-89739691D01*
X127514517Y-89789830D01*
X127643948Y-89896052D01*
X127750170Y-90025483D01*
X127784655Y-90090000D01*
X127829097Y-90173145D01*
X127829097Y-90173146D01*
X127877701Y-90333373D01*
X127894113Y-90500000D01*
X127877701Y-90666627D01*
X127866880Y-90702299D01*
X127829097Y-90826855D01*
X127800309Y-90880712D01*
X127750170Y-90974517D01*
X127643948Y-91103948D01*
X127514517Y-91210170D01*
X127428307Y-91256250D01*
X127366855Y-91289097D01*
X127297088Y-91310260D01*
X127206627Y-91337701D01*
X127081757Y-91350000D01*
X126998243Y-91350000D01*
X126873373Y-91337701D01*
X126782912Y-91310260D01*
X126713145Y-91289097D01*
X126651693Y-91256250D01*
X126565483Y-91210170D01*
X126436052Y-91103948D01*
X126329830Y-90974517D01*
X126279691Y-90880712D01*
X126250903Y-90826855D01*
X126213120Y-90702299D01*
X126202299Y-90666627D01*
X126185887Y-90500000D01*
X126202299Y-90333373D01*
X126250903Y-90173146D01*
X126250903Y-90173145D01*
X126295345Y-90090000D01*
X126329830Y-90025483D01*
X126436052Y-89896052D01*
X126565483Y-89789830D01*
X126659288Y-89739691D01*
X126713145Y-89710903D01*
X126782912Y-89689740D01*
X126873373Y-89662299D01*
X126998243Y-89650000D01*
X127081757Y-89650000D01*
X127206627Y-89662299D01*
X127206627Y-89662299D01*
G37*
G36*
X125350000Y-91350000D02*
X123650000Y-91350000D01*
X123650000Y-89650000D01*
X125350000Y-89650000D01*
X125350000Y-91350000D01*
X125350000Y-91350000D01*
G37*
G36*
X138340000Y-90090000D02*
X137160000Y-90090000D01*
X137160000Y-89510000D01*
X138340000Y-89510000D01*
X138340000Y-90090000D01*
X138340000Y-90090000D01*
G37*
G36*
X146840000Y-90090000D02*
X145660000Y-90090000D01*
X145660000Y-89510000D01*
X146840000Y-89510000D01*
X146840000Y-90090000D01*
X146840000Y-90090000D01*
G37*
G36*
X160850000Y-89850000D02*
X159150000Y-89850000D01*
X159150000Y-88150000D01*
X160850000Y-88150000D01*
X160850000Y-89850000D01*
X160850000Y-89850000D01*
G37*
G36*
X131222267Y-88267283D02*
X131222269Y-88267284D01*
X131222270Y-88267284D01*
X131360942Y-88324724D01*
X131485747Y-88408116D01*
X131591884Y-88514253D01*
X131675276Y-88639058D01*
X131732717Y-88777733D01*
X131762000Y-88924950D01*
X131762000Y-89075050D01*
X131732717Y-89222267D01*
X131675276Y-89360942D01*
X131591884Y-89485747D01*
X131485747Y-89591884D01*
X131398770Y-89650000D01*
X131360942Y-89675276D01*
X131222270Y-89732716D01*
X131222269Y-89732716D01*
X131222267Y-89732717D01*
X131075050Y-89762000D01*
X130924950Y-89762000D01*
X130777733Y-89732717D01*
X130777731Y-89732716D01*
X130777730Y-89732716D01*
X130639058Y-89675276D01*
X130601230Y-89650000D01*
X130514253Y-89591884D01*
X130408116Y-89485747D01*
X130324724Y-89360942D01*
X130267283Y-89222267D01*
X130238000Y-89075050D01*
X130238000Y-88924950D01*
X130267283Y-88777733D01*
X130324724Y-88639058D01*
X130408116Y-88514253D01*
X130514253Y-88408116D01*
X130639058Y-88324724D01*
X130777730Y-88267284D01*
X130777731Y-88267284D01*
X130777733Y-88267283D01*
X130924950Y-88238000D01*
X131075050Y-88238000D01*
X131222267Y-88267283D01*
X131222267Y-88267283D01*
G37*
G36*
X153222267Y-88267283D02*
X153222269Y-88267284D01*
X153222270Y-88267284D01*
X153360942Y-88324724D01*
X153485747Y-88408116D01*
X153591884Y-88514253D01*
X153675276Y-88639058D01*
X153732717Y-88777733D01*
X153762000Y-88924950D01*
X153762000Y-89075050D01*
X153732717Y-89222267D01*
X153675276Y-89360942D01*
X153591884Y-89485747D01*
X153485747Y-89591884D01*
X153398770Y-89650000D01*
X153360942Y-89675276D01*
X153222270Y-89732716D01*
X153222269Y-89732716D01*
X153222267Y-89732717D01*
X153075050Y-89762000D01*
X152924950Y-89762000D01*
X152777733Y-89732717D01*
X152777731Y-89732716D01*
X152777730Y-89732716D01*
X152639058Y-89675276D01*
X152601230Y-89650000D01*
X152514253Y-89591884D01*
X152408116Y-89485747D01*
X152324724Y-89360942D01*
X152267283Y-89222267D01*
X152238000Y-89075050D01*
X152238000Y-88924950D01*
X152267283Y-88777733D01*
X152324724Y-88639058D01*
X152408116Y-88514253D01*
X152514253Y-88408116D01*
X152639058Y-88324724D01*
X152777730Y-88267284D01*
X152777731Y-88267284D01*
X152777733Y-88267283D01*
X152924950Y-88238000D01*
X153075050Y-88238000D01*
X153222267Y-88267283D01*
X153222267Y-88267283D01*
G37*
G36*
X133514076Y-88528717D02*
X133545641Y-88538291D01*
X133574735Y-88553843D01*
X133600232Y-88574768D01*
X133621157Y-88600265D01*
X133636709Y-88629359D01*
X133646283Y-88660924D01*
X133650000Y-88698658D01*
X133650000Y-89301342D01*
X133646283Y-89339076D01*
X133636709Y-89370641D01*
X133621157Y-89399735D01*
X133600232Y-89425232D01*
X133574735Y-89446157D01*
X133545641Y-89461709D01*
X133514076Y-89471283D01*
X133476342Y-89475000D01*
X132948658Y-89475000D01*
X132910924Y-89471283D01*
X132879359Y-89461709D01*
X132850265Y-89446157D01*
X132824768Y-89425232D01*
X132803843Y-89399735D01*
X132788291Y-89370641D01*
X132778717Y-89339076D01*
X132775000Y-89301342D01*
X132775000Y-88698658D01*
X132778717Y-88660924D01*
X132788291Y-88629359D01*
X132803843Y-88600265D01*
X132824768Y-88574768D01*
X132850265Y-88553843D01*
X132879359Y-88538291D01*
X132910924Y-88528717D01*
X132948658Y-88525000D01*
X133476342Y-88525000D01*
X133514076Y-88528717D01*
X133514076Y-88528717D01*
G37*
G36*
X135089076Y-88528717D02*
X135120641Y-88538291D01*
X135149735Y-88553843D01*
X135175232Y-88574768D01*
X135196157Y-88600265D01*
X135211709Y-88629359D01*
X135221283Y-88660924D01*
X135225000Y-88698658D01*
X135225000Y-89301342D01*
X135221283Y-89339076D01*
X135211709Y-89370641D01*
X135196157Y-89399735D01*
X135175232Y-89425232D01*
X135149735Y-89446157D01*
X135120641Y-89461709D01*
X135089076Y-89471283D01*
X135051342Y-89475000D01*
X134523658Y-89475000D01*
X134485924Y-89471283D01*
X134454359Y-89461709D01*
X134425265Y-89446157D01*
X134399768Y-89425232D01*
X134378843Y-89399735D01*
X134363291Y-89370641D01*
X134353717Y-89339076D01*
X134350000Y-89301342D01*
X134350000Y-88698658D01*
X134353717Y-88660924D01*
X134363291Y-88629359D01*
X134378843Y-88600265D01*
X134399768Y-88574768D01*
X134425265Y-88553843D01*
X134454359Y-88538291D01*
X134485924Y-88528717D01*
X134523658Y-88525000D01*
X135051342Y-88525000D01*
X135089076Y-88528717D01*
X135089076Y-88528717D01*
G37*
G36*
X156450000Y-89350000D02*
X155550000Y-89350000D01*
X155550000Y-88550000D01*
X156450000Y-88550000D01*
X156450000Y-89350000D01*
X156450000Y-89350000D01*
G37*
G36*
X146840000Y-89290000D02*
X145660000Y-89290000D01*
X145660000Y-88710000D01*
X146840000Y-88710000D01*
X146840000Y-89290000D01*
X146840000Y-89290000D01*
G37*
G36*
X138340000Y-89290000D02*
X137160000Y-89290000D01*
X137160000Y-88710000D01*
X138340000Y-88710000D01*
X138340000Y-89290000D01*
X138340000Y-89290000D01*
G37*
G36*
X146840000Y-88490000D02*
X145660000Y-88490000D01*
X145660000Y-87910000D01*
X146840000Y-87910000D01*
X146840000Y-88490000D01*
X146840000Y-88490000D01*
G37*
G36*
X138340000Y-88490000D02*
X137160000Y-88490000D01*
X137160000Y-87910000D01*
X138340000Y-87910000D01*
X138340000Y-88490000D01*
X138340000Y-88490000D01*
G37*
G36*
X158450000Y-88400000D02*
X157550000Y-88400000D01*
X157550000Y-87600000D01*
X158450000Y-87600000D01*
X158450000Y-88400000D01*
X158450000Y-88400000D01*
G37*
G36*
X135089076Y-87028717D02*
X135120641Y-87038291D01*
X135149735Y-87053843D01*
X135175232Y-87074768D01*
X135196157Y-87100265D01*
X135211709Y-87129359D01*
X135221283Y-87160924D01*
X135225000Y-87198658D01*
X135225000Y-87801342D01*
X135221283Y-87839076D01*
X135211709Y-87870641D01*
X135196157Y-87899735D01*
X135175232Y-87925232D01*
X135149735Y-87946157D01*
X135120641Y-87961709D01*
X135089076Y-87971283D01*
X135051342Y-87975000D01*
X134523658Y-87975000D01*
X134485924Y-87971283D01*
X134454359Y-87961709D01*
X134425265Y-87946157D01*
X134399768Y-87925232D01*
X134378843Y-87899735D01*
X134363291Y-87870641D01*
X134353717Y-87839076D01*
X134350000Y-87801342D01*
X134350000Y-87198658D01*
X134353717Y-87160924D01*
X134363291Y-87129359D01*
X134378843Y-87100265D01*
X134399768Y-87074768D01*
X134425265Y-87053843D01*
X134454359Y-87038291D01*
X134485924Y-87028717D01*
X134523658Y-87025000D01*
X135051342Y-87025000D01*
X135089076Y-87028717D01*
X135089076Y-87028717D01*
G37*
G36*
X133514076Y-87028717D02*
X133545641Y-87038291D01*
X133574735Y-87053843D01*
X133600232Y-87074768D01*
X133621157Y-87100265D01*
X133636709Y-87129359D01*
X133646283Y-87160924D01*
X133650000Y-87198658D01*
X133650000Y-87801342D01*
X133646283Y-87839076D01*
X133636709Y-87870641D01*
X133621157Y-87899735D01*
X133600232Y-87925232D01*
X133574735Y-87946157D01*
X133545641Y-87961709D01*
X133514076Y-87971283D01*
X133476342Y-87975000D01*
X132948658Y-87975000D01*
X132910924Y-87971283D01*
X132879359Y-87961709D01*
X132850265Y-87946157D01*
X132824768Y-87925232D01*
X132803843Y-87899735D01*
X132788291Y-87870641D01*
X132778717Y-87839076D01*
X132775000Y-87801342D01*
X132775000Y-87198658D01*
X132778717Y-87160924D01*
X132788291Y-87129359D01*
X132803843Y-87100265D01*
X132824768Y-87074768D01*
X132850265Y-87053843D01*
X132879359Y-87038291D01*
X132910924Y-87028717D01*
X132948658Y-87025000D01*
X133476342Y-87025000D01*
X133514076Y-87028717D01*
X133514076Y-87028717D01*
G37*
G36*
X153222267Y-86267283D02*
X153222269Y-86267284D01*
X153222270Y-86267284D01*
X153325395Y-86310000D01*
X153360942Y-86324724D01*
X153485747Y-86408116D01*
X153591884Y-86514253D01*
X153591885Y-86514255D01*
X153675276Y-86639058D01*
X153709134Y-86720797D01*
X153732717Y-86777733D01*
X153762000Y-86924950D01*
X153762000Y-87075050D01*
X153736933Y-87201074D01*
X153732716Y-87222270D01*
X153675276Y-87360942D01*
X153591884Y-87485747D01*
X153485747Y-87591884D01*
X153360942Y-87675276D01*
X153222270Y-87732716D01*
X153222269Y-87732716D01*
X153222267Y-87732717D01*
X153075050Y-87762000D01*
X152924950Y-87762000D01*
X152777733Y-87732717D01*
X152777731Y-87732716D01*
X152777730Y-87732716D01*
X152639058Y-87675276D01*
X152514253Y-87591884D01*
X152408116Y-87485747D01*
X152324724Y-87360942D01*
X152267284Y-87222270D01*
X152263068Y-87201074D01*
X152238000Y-87075050D01*
X152238000Y-86924950D01*
X152267283Y-86777733D01*
X152290867Y-86720797D01*
X152324724Y-86639058D01*
X152408115Y-86514255D01*
X152408116Y-86514253D01*
X152514253Y-86408116D01*
X152639058Y-86324724D01*
X152674605Y-86310000D01*
X152777730Y-86267284D01*
X152777731Y-86267284D01*
X152777733Y-86267283D01*
X152924950Y-86238000D01*
X153075050Y-86238000D01*
X153222267Y-86267283D01*
X153222267Y-86267283D01*
G37*
G36*
X131222267Y-86267283D02*
X131222269Y-86267284D01*
X131222270Y-86267284D01*
X131325395Y-86310000D01*
X131360942Y-86324724D01*
X131485747Y-86408116D01*
X131591884Y-86514253D01*
X131591885Y-86514255D01*
X131675276Y-86639058D01*
X131709134Y-86720797D01*
X131732717Y-86777733D01*
X131762000Y-86924950D01*
X131762000Y-87075050D01*
X131736933Y-87201074D01*
X131732716Y-87222270D01*
X131675276Y-87360942D01*
X131591884Y-87485747D01*
X131485747Y-87591884D01*
X131360942Y-87675276D01*
X131222270Y-87732716D01*
X131222269Y-87732716D01*
X131222267Y-87732717D01*
X131075050Y-87762000D01*
X130924950Y-87762000D01*
X130777733Y-87732717D01*
X130777731Y-87732716D01*
X130777730Y-87732716D01*
X130639058Y-87675276D01*
X130514253Y-87591884D01*
X130408116Y-87485747D01*
X130324724Y-87360942D01*
X130267284Y-87222270D01*
X130263068Y-87201074D01*
X130238000Y-87075050D01*
X130238000Y-86924950D01*
X130267283Y-86777733D01*
X130290867Y-86720797D01*
X130324724Y-86639058D01*
X130408115Y-86514255D01*
X130408116Y-86514253D01*
X130514253Y-86408116D01*
X130639058Y-86324724D01*
X130674605Y-86310000D01*
X130777730Y-86267284D01*
X130777731Y-86267284D01*
X130777733Y-86267283D01*
X130924950Y-86238000D01*
X131075050Y-86238000D01*
X131222267Y-86267283D01*
X131222267Y-86267283D01*
G37*
G36*
X146840000Y-87690000D02*
X145660000Y-87690000D01*
X145660000Y-87110000D01*
X146840000Y-87110000D01*
X146840000Y-87690000D01*
X146840000Y-87690000D01*
G37*
G36*
X138340000Y-87690000D02*
X137160000Y-87690000D01*
X137160000Y-87110000D01*
X138340000Y-87110000D01*
X138340000Y-87690000D01*
X138340000Y-87690000D01*
G37*
G36*
X156450000Y-87450000D02*
X155550000Y-87450000D01*
X155550000Y-86650000D01*
X156450000Y-86650000D01*
X156450000Y-87450000D01*
X156450000Y-87450000D01*
G37*
G36*
X146840000Y-86890000D02*
X145660000Y-86890000D01*
X145660000Y-86310000D01*
X146840000Y-86310000D01*
X146840000Y-86890000D01*
X146840000Y-86890000D01*
G37*
G36*
X138340000Y-86890000D02*
X137160000Y-86890000D01*
X137160000Y-86310000D01*
X138340000Y-86310000D01*
X138340000Y-86890000D01*
X138340000Y-86890000D01*
G37*
G36*
X160355856Y-83197813D02*
X160406753Y-83213253D01*
X160457649Y-83228692D01*
X160457651Y-83228693D01*
X160551459Y-83278834D01*
X160633685Y-83346315D01*
X160701166Y-83428541D01*
X160751307Y-83522349D01*
X160782187Y-83624144D01*
X160792613Y-83730000D01*
X160782187Y-83835856D01*
X160751307Y-83937651D01*
X160701166Y-84031459D01*
X160633685Y-84113685D01*
X160551459Y-84181166D01*
X160478805Y-84220000D01*
X160457649Y-84231308D01*
X160435588Y-84238000D01*
X160355856Y-84262187D01*
X160322398Y-84265482D01*
X160303171Y-84269306D01*
X160285060Y-84276808D01*
X160268761Y-84287699D01*
X160254899Y-84301561D01*
X160244008Y-84317860D01*
X160236506Y-84335972D01*
X160232682Y-84355198D01*
X160232682Y-84374802D01*
X160236506Y-84394029D01*
X160244008Y-84412140D01*
X160254899Y-84428439D01*
X160268761Y-84442301D01*
X160285060Y-84453192D01*
X160303172Y-84460694D01*
X160322398Y-84464518D01*
X160355856Y-84467813D01*
X160406754Y-84483253D01*
X160457649Y-84498692D01*
X160457651Y-84498693D01*
X160551459Y-84548834D01*
X160633685Y-84616315D01*
X160701166Y-84698541D01*
X160745295Y-84781101D01*
X160751308Y-84792351D01*
X160754275Y-84802132D01*
X160782187Y-84894144D01*
X160792613Y-85000000D01*
X160782187Y-85105856D01*
X160770071Y-85145797D01*
X160753256Y-85201228D01*
X160751307Y-85207651D01*
X160701166Y-85301459D01*
X160633685Y-85383685D01*
X160551459Y-85451166D01*
X160457651Y-85501307D01*
X160457649Y-85501308D01*
X160355858Y-85532186D01*
X160348869Y-85534306D01*
X160330758Y-85541808D01*
X160314459Y-85552699D01*
X160300597Y-85566561D01*
X160289706Y-85582860D01*
X160282204Y-85600972D01*
X160278380Y-85620198D01*
X160278380Y-85639802D01*
X160282204Y-85659029D01*
X160289706Y-85677140D01*
X160300597Y-85693439D01*
X160314459Y-85707301D01*
X160330758Y-85718192D01*
X160348870Y-85725694D01*
X160377898Y-85730000D01*
X160790000Y-85730000D01*
X160790000Y-86810000D01*
X159210000Y-86810000D01*
X159210000Y-85730000D01*
X159622102Y-85730000D01*
X159641611Y-85728079D01*
X159660370Y-85722388D01*
X159677659Y-85713147D01*
X159692813Y-85700711D01*
X159705249Y-85685557D01*
X159714490Y-85668268D01*
X159720181Y-85649509D01*
X159722102Y-85630000D01*
X159720181Y-85610491D01*
X159714490Y-85591732D01*
X159705249Y-85574443D01*
X159692813Y-85559289D01*
X159677659Y-85546853D01*
X159651131Y-85534306D01*
X159644142Y-85532186D01*
X159542351Y-85501308D01*
X159542349Y-85501307D01*
X159448541Y-85451166D01*
X159366315Y-85383685D01*
X159298834Y-85301459D01*
X159248693Y-85207651D01*
X159246745Y-85201228D01*
X159229929Y-85145797D01*
X159217813Y-85105856D01*
X159207387Y-85000000D01*
X159217813Y-84894144D01*
X159245725Y-84802132D01*
X159248692Y-84792351D01*
X159254705Y-84781101D01*
X159298834Y-84698541D01*
X159366315Y-84616315D01*
X159448541Y-84548834D01*
X159542349Y-84498693D01*
X159542351Y-84498692D01*
X159593246Y-84483253D01*
X159644144Y-84467813D01*
X159677602Y-84464518D01*
X159696829Y-84460694D01*
X159714940Y-84453192D01*
X159731239Y-84442301D01*
X159745101Y-84428439D01*
X159755992Y-84412140D01*
X159763494Y-84394028D01*
X159767318Y-84374802D01*
X159767318Y-84355198D01*
X159763494Y-84335971D01*
X159755992Y-84317860D01*
X159745101Y-84301561D01*
X159731239Y-84287699D01*
X159714940Y-84276808D01*
X159696828Y-84269306D01*
X159677602Y-84265482D01*
X159644144Y-84262187D01*
X159564412Y-84238000D01*
X159542351Y-84231308D01*
X159521195Y-84220000D01*
X159448541Y-84181166D01*
X159366315Y-84113685D01*
X159298834Y-84031459D01*
X159248693Y-83937651D01*
X159217813Y-83835856D01*
X159207387Y-83730000D01*
X159217813Y-83624144D01*
X159248693Y-83522349D01*
X159298834Y-83428541D01*
X159366315Y-83346315D01*
X159448541Y-83278834D01*
X159542349Y-83228693D01*
X159542351Y-83228692D01*
X159593247Y-83213253D01*
X159644144Y-83197813D01*
X159723474Y-83190000D01*
X160276526Y-83190000D01*
X160355856Y-83197813D01*
X160355856Y-83197813D01*
G37*
G36*
X126339076Y-85853717D02*
X126370641Y-85863291D01*
X126399735Y-85878843D01*
X126425232Y-85899768D01*
X126446157Y-85925265D01*
X126461709Y-85954359D01*
X126471283Y-85985924D01*
X126475000Y-86023658D01*
X126475000Y-86551342D01*
X126471283Y-86589076D01*
X126461709Y-86620641D01*
X126446157Y-86649735D01*
X126425232Y-86675232D01*
X126399735Y-86696157D01*
X126370641Y-86711709D01*
X126339076Y-86721283D01*
X126301342Y-86725000D01*
X125698658Y-86725000D01*
X125660924Y-86721283D01*
X125629359Y-86711709D01*
X125600265Y-86696157D01*
X125574768Y-86675232D01*
X125553843Y-86649735D01*
X125538291Y-86620641D01*
X125528717Y-86589076D01*
X125525000Y-86551342D01*
X125525000Y-86023658D01*
X125528717Y-85985924D01*
X125538291Y-85954359D01*
X125553843Y-85925265D01*
X125574768Y-85899768D01*
X125600265Y-85878843D01*
X125629359Y-85863291D01*
X125660924Y-85853717D01*
X125698658Y-85850000D01*
X126301342Y-85850000D01*
X126339076Y-85853717D01*
X126339076Y-85853717D01*
G37*
G36*
X124339076Y-85853717D02*
X124370641Y-85863291D01*
X124399735Y-85878843D01*
X124425232Y-85899768D01*
X124446157Y-85925265D01*
X124461709Y-85954359D01*
X124471283Y-85985924D01*
X124475000Y-86023658D01*
X124475000Y-86551342D01*
X124471283Y-86589076D01*
X124461709Y-86620641D01*
X124446157Y-86649735D01*
X124425232Y-86675232D01*
X124399735Y-86696157D01*
X124370641Y-86711709D01*
X124339076Y-86721283D01*
X124301342Y-86725000D01*
X123698658Y-86725000D01*
X123660924Y-86721283D01*
X123629359Y-86711709D01*
X123600265Y-86696157D01*
X123574768Y-86675232D01*
X123553843Y-86649735D01*
X123538291Y-86620641D01*
X123528717Y-86589076D01*
X123525000Y-86551342D01*
X123525000Y-86023658D01*
X123528717Y-85985924D01*
X123538291Y-85954359D01*
X123553843Y-85925265D01*
X123574768Y-85899768D01*
X123600265Y-85878843D01*
X123629359Y-85863291D01*
X123660924Y-85853717D01*
X123698658Y-85850000D01*
X124301342Y-85850000D01*
X124339076Y-85853717D01*
X124339076Y-85853717D01*
G37*
G36*
X146840000Y-86090000D02*
X145660000Y-86090000D01*
X145660000Y-85510000D01*
X146840000Y-85510000D01*
X146840000Y-86090000D01*
X146840000Y-86090000D01*
G37*
G36*
X138340000Y-86090000D02*
X137160000Y-86090000D01*
X137160000Y-85510000D01*
X138340000Y-85510000D01*
X138340000Y-86090000D01*
X138340000Y-86090000D01*
G37*
G36*
X133741425Y-85192347D02*
X133759625Y-85197868D01*
X133776401Y-85206835D01*
X133791101Y-85218899D01*
X133803165Y-85233599D01*
X133812132Y-85250375D01*
X133817653Y-85268575D01*
X133820000Y-85292408D01*
X133820000Y-85677592D01*
X133817653Y-85701425D01*
X133812132Y-85719625D01*
X133803165Y-85736401D01*
X133791101Y-85751101D01*
X133776401Y-85763165D01*
X133759625Y-85772132D01*
X133741425Y-85777653D01*
X133717592Y-85780000D01*
X133282408Y-85780000D01*
X133258575Y-85777653D01*
X133240375Y-85772132D01*
X133223599Y-85763165D01*
X133208899Y-85751101D01*
X133196835Y-85736401D01*
X133187868Y-85719625D01*
X133182347Y-85701425D01*
X133180000Y-85677592D01*
X133180000Y-85292408D01*
X133182347Y-85268575D01*
X133187868Y-85250375D01*
X133196835Y-85233599D01*
X133208899Y-85218899D01*
X133223599Y-85206835D01*
X133240375Y-85197868D01*
X133258575Y-85192347D01*
X133282408Y-85190000D01*
X133717592Y-85190000D01*
X133741425Y-85192347D01*
X133741425Y-85192347D01*
G37*
G36*
X131222267Y-84267283D02*
X131222269Y-84267284D01*
X131222270Y-84267284D01*
X131253874Y-84280375D01*
X131360942Y-84324724D01*
X131485747Y-84408116D01*
X131591884Y-84514253D01*
X131675276Y-84639058D01*
X131732717Y-84777733D01*
X131762000Y-84924950D01*
X131762000Y-85075050D01*
X131732717Y-85222267D01*
X131675276Y-85360942D01*
X131591884Y-85485747D01*
X131485747Y-85591884D01*
X131399505Y-85649509D01*
X131360942Y-85675276D01*
X131222270Y-85732716D01*
X131222269Y-85732716D01*
X131222267Y-85732717D01*
X131075050Y-85762000D01*
X130924950Y-85762000D01*
X130777733Y-85732717D01*
X130777731Y-85732716D01*
X130777730Y-85732716D01*
X130639058Y-85675276D01*
X130600495Y-85649509D01*
X130514253Y-85591884D01*
X130408116Y-85485747D01*
X130324724Y-85360942D01*
X130267283Y-85222267D01*
X130238000Y-85075050D01*
X130238000Y-84924950D01*
X130267283Y-84777733D01*
X130324724Y-84639058D01*
X130408116Y-84514253D01*
X130514253Y-84408116D01*
X130639058Y-84324724D01*
X130746126Y-84280375D01*
X130777730Y-84267284D01*
X130777731Y-84267284D01*
X130777733Y-84267283D01*
X130924950Y-84238000D01*
X131075050Y-84238000D01*
X131222267Y-84267283D01*
X131222267Y-84267283D01*
G37*
G36*
X153222267Y-84267283D02*
X153222269Y-84267284D01*
X153222270Y-84267284D01*
X153253874Y-84280375D01*
X153360942Y-84324724D01*
X153485747Y-84408116D01*
X153591884Y-84514253D01*
X153675276Y-84639058D01*
X153732717Y-84777733D01*
X153762000Y-84924950D01*
X153762000Y-85075050D01*
X153732717Y-85222267D01*
X153675276Y-85360942D01*
X153591884Y-85485747D01*
X153485747Y-85591884D01*
X153399505Y-85649509D01*
X153360942Y-85675276D01*
X153222270Y-85732716D01*
X153222269Y-85732716D01*
X153222267Y-85732717D01*
X153075050Y-85762000D01*
X152924950Y-85762000D01*
X152777733Y-85732717D01*
X152777731Y-85732716D01*
X152777730Y-85732716D01*
X152639058Y-85675276D01*
X152600495Y-85649509D01*
X152514253Y-85591884D01*
X152408116Y-85485747D01*
X152324724Y-85360942D01*
X152267283Y-85222267D01*
X152238000Y-85075050D01*
X152238000Y-84924950D01*
X152267283Y-84777733D01*
X152324724Y-84639058D01*
X152408116Y-84514253D01*
X152514253Y-84408116D01*
X152639058Y-84324724D01*
X152746126Y-84280375D01*
X152777730Y-84267284D01*
X152777731Y-84267284D01*
X152777733Y-84267283D01*
X152924950Y-84238000D01*
X153075050Y-84238000D01*
X153222267Y-84267283D01*
X153222267Y-84267283D01*
G37*
G36*
X136400000Y-85750000D02*
X134600000Y-85750000D01*
X134600000Y-84750000D01*
X136400000Y-84750000D01*
X136400000Y-85750000D01*
X136400000Y-85750000D01*
G37*
G36*
X158339076Y-84853717D02*
X158370641Y-84863291D01*
X158399735Y-84878843D01*
X158425232Y-84899768D01*
X158446157Y-84925265D01*
X158461709Y-84954359D01*
X158471283Y-84985924D01*
X158475000Y-85023658D01*
X158475000Y-85551342D01*
X158471283Y-85589076D01*
X158461709Y-85620641D01*
X158446157Y-85649735D01*
X158425232Y-85675232D01*
X158399735Y-85696157D01*
X158370641Y-85711709D01*
X158339076Y-85721283D01*
X158301342Y-85725000D01*
X157698658Y-85725000D01*
X157660924Y-85721283D01*
X157629359Y-85711709D01*
X157600265Y-85696157D01*
X157574768Y-85675232D01*
X157553843Y-85649735D01*
X157538291Y-85620641D01*
X157528717Y-85589076D01*
X157525000Y-85551342D01*
X157525000Y-85023658D01*
X157528717Y-84985924D01*
X157538291Y-84954359D01*
X157553843Y-84925265D01*
X157574768Y-84899768D01*
X157600265Y-84878843D01*
X157629359Y-84863291D01*
X157660924Y-84853717D01*
X157698658Y-84850000D01*
X158301342Y-84850000D01*
X158339076Y-84853717D01*
X158339076Y-84853717D01*
G37*
G36*
X156339076Y-84853717D02*
X156370641Y-84863291D01*
X156399735Y-84878843D01*
X156425232Y-84899768D01*
X156446157Y-84925265D01*
X156461709Y-84954359D01*
X156471283Y-84985924D01*
X156475000Y-85023658D01*
X156475000Y-85551342D01*
X156471283Y-85589076D01*
X156461709Y-85620641D01*
X156446157Y-85649735D01*
X156425232Y-85675232D01*
X156399735Y-85696157D01*
X156370641Y-85711709D01*
X156339076Y-85721283D01*
X156301342Y-85725000D01*
X155698658Y-85725000D01*
X155660924Y-85721283D01*
X155629359Y-85711709D01*
X155600265Y-85696157D01*
X155574768Y-85675232D01*
X155553843Y-85649735D01*
X155538291Y-85620641D01*
X155528717Y-85589076D01*
X155525000Y-85551342D01*
X155525000Y-85023658D01*
X155528717Y-84985924D01*
X155538291Y-84954359D01*
X155553843Y-84925265D01*
X155574768Y-84899768D01*
X155600265Y-84878843D01*
X155629359Y-84863291D01*
X155660924Y-84853717D01*
X155698658Y-84850000D01*
X156301342Y-84850000D01*
X156339076Y-84853717D01*
X156339076Y-84853717D01*
G37*
G36*
X146840000Y-85290000D02*
X145660000Y-85290000D01*
X145660000Y-84710000D01*
X146840000Y-84710000D01*
X146840000Y-85290000D01*
X146840000Y-85290000D01*
G37*
G36*
X138340000Y-85290000D02*
X137160000Y-85290000D01*
X137160000Y-84710000D01*
X138340000Y-84710000D01*
X138340000Y-85290000D01*
X138340000Y-85290000D01*
G37*
G36*
X126339076Y-84278717D02*
X126370641Y-84288291D01*
X126399735Y-84303843D01*
X126425232Y-84324768D01*
X126446157Y-84350265D01*
X126461709Y-84379359D01*
X126471283Y-84410924D01*
X126475000Y-84448658D01*
X126475000Y-84976342D01*
X126471283Y-85014076D01*
X126461709Y-85045641D01*
X126446157Y-85074735D01*
X126425232Y-85100232D01*
X126399735Y-85121157D01*
X126370641Y-85136709D01*
X126339076Y-85146283D01*
X126301342Y-85150000D01*
X125698658Y-85150000D01*
X125660924Y-85146283D01*
X125629359Y-85136709D01*
X125600265Y-85121157D01*
X125574768Y-85100232D01*
X125553843Y-85074735D01*
X125538291Y-85045641D01*
X125528717Y-85014076D01*
X125525000Y-84976342D01*
X125525000Y-84448658D01*
X125528717Y-84410924D01*
X125538291Y-84379359D01*
X125553843Y-84350265D01*
X125574768Y-84324768D01*
X125600265Y-84303843D01*
X125629359Y-84288291D01*
X125660924Y-84278717D01*
X125698658Y-84275000D01*
X126301342Y-84275000D01*
X126339076Y-84278717D01*
X126339076Y-84278717D01*
G37*
G36*
X124339076Y-84278717D02*
X124370641Y-84288291D01*
X124399735Y-84303843D01*
X124425232Y-84324768D01*
X124446157Y-84350265D01*
X124461709Y-84379359D01*
X124471283Y-84410924D01*
X124475000Y-84448658D01*
X124475000Y-84976342D01*
X124471283Y-85014076D01*
X124461709Y-85045641D01*
X124446157Y-85074735D01*
X124425232Y-85100232D01*
X124399735Y-85121157D01*
X124370641Y-85136709D01*
X124339076Y-85146283D01*
X124301342Y-85150000D01*
X123698658Y-85150000D01*
X123660924Y-85146283D01*
X123629359Y-85136709D01*
X123600265Y-85121157D01*
X123574768Y-85100232D01*
X123553843Y-85074735D01*
X123538291Y-85045641D01*
X123528717Y-85014076D01*
X123525000Y-84976342D01*
X123525000Y-84448658D01*
X123528717Y-84410924D01*
X123538291Y-84379359D01*
X123553843Y-84350265D01*
X123574768Y-84324768D01*
X123600265Y-84303843D01*
X123629359Y-84288291D01*
X123660924Y-84278717D01*
X123698658Y-84275000D01*
X124301342Y-84275000D01*
X124339076Y-84278717D01*
X124339076Y-84278717D01*
G37*
G36*
X133741425Y-84222347D02*
X133759625Y-84227868D01*
X133776401Y-84236835D01*
X133791101Y-84248899D01*
X133803165Y-84263599D01*
X133812132Y-84280375D01*
X133817653Y-84298575D01*
X133820000Y-84322408D01*
X133820000Y-84707592D01*
X133817653Y-84731425D01*
X133812132Y-84749625D01*
X133803165Y-84766401D01*
X133791101Y-84781101D01*
X133776401Y-84793165D01*
X133759625Y-84802132D01*
X133741425Y-84807653D01*
X133717592Y-84810000D01*
X133282408Y-84810000D01*
X133258575Y-84807653D01*
X133240375Y-84802132D01*
X133223599Y-84793165D01*
X133208899Y-84781101D01*
X133196835Y-84766401D01*
X133187868Y-84749625D01*
X133182347Y-84731425D01*
X133180000Y-84707592D01*
X133180000Y-84322408D01*
X133182347Y-84298575D01*
X133187868Y-84280375D01*
X133196835Y-84263599D01*
X133208899Y-84248899D01*
X133223599Y-84236835D01*
X133240375Y-84227868D01*
X133258575Y-84222347D01*
X133282408Y-84220000D01*
X133717592Y-84220000D01*
X133741425Y-84222347D01*
X133741425Y-84222347D01*
G37*
G36*
X146840000Y-84490000D02*
X145660000Y-84490000D01*
X145660000Y-83910000D01*
X146840000Y-83910000D01*
X146840000Y-84490000D01*
X146840000Y-84490000D01*
G37*
G36*
X138340000Y-84490000D02*
X137160000Y-84490000D01*
X137160000Y-83910000D01*
X138340000Y-83910000D01*
X138340000Y-84490000D01*
X138340000Y-84490000D01*
G37*
G36*
X156339076Y-83278717D02*
X156370641Y-83288291D01*
X156399735Y-83303843D01*
X156425232Y-83324768D01*
X156446157Y-83350265D01*
X156461709Y-83379359D01*
X156471283Y-83410924D01*
X156475000Y-83448658D01*
X156475000Y-83976342D01*
X156471283Y-84014076D01*
X156461709Y-84045641D01*
X156446157Y-84074735D01*
X156425232Y-84100232D01*
X156399735Y-84121157D01*
X156370641Y-84136709D01*
X156339076Y-84146283D01*
X156301342Y-84150000D01*
X155698658Y-84150000D01*
X155660924Y-84146283D01*
X155629359Y-84136709D01*
X155600265Y-84121157D01*
X155574768Y-84100232D01*
X155553843Y-84074735D01*
X155538291Y-84045641D01*
X155528717Y-84014076D01*
X155525000Y-83976342D01*
X155525000Y-83448658D01*
X155528717Y-83410924D01*
X155538291Y-83379359D01*
X155553843Y-83350265D01*
X155574768Y-83324768D01*
X155600265Y-83303843D01*
X155629359Y-83288291D01*
X155660924Y-83278717D01*
X155698658Y-83275000D01*
X156301342Y-83275000D01*
X156339076Y-83278717D01*
X156339076Y-83278717D01*
G37*
G36*
X158339076Y-83278717D02*
X158370641Y-83288291D01*
X158399735Y-83303843D01*
X158425232Y-83324768D01*
X158446157Y-83350265D01*
X158461709Y-83379359D01*
X158471283Y-83410924D01*
X158475000Y-83448658D01*
X158475000Y-83976342D01*
X158471283Y-84014076D01*
X158461709Y-84045641D01*
X158446157Y-84074735D01*
X158425232Y-84100232D01*
X158399735Y-84121157D01*
X158370641Y-84136709D01*
X158339076Y-84146283D01*
X158301342Y-84150000D01*
X157698658Y-84150000D01*
X157660924Y-84146283D01*
X157629359Y-84136709D01*
X157600265Y-84121157D01*
X157574768Y-84100232D01*
X157553843Y-84074735D01*
X157538291Y-84045641D01*
X157528717Y-84014076D01*
X157525000Y-83976342D01*
X157525000Y-83448658D01*
X157528717Y-83410924D01*
X157538291Y-83379359D01*
X157553843Y-83350265D01*
X157574768Y-83324768D01*
X157600265Y-83303843D01*
X157629359Y-83288291D01*
X157660924Y-83278717D01*
X157698658Y-83275000D01*
X158301342Y-83275000D01*
X158339076Y-83278717D01*
X158339076Y-83278717D01*
G37*
G36*
X133741425Y-83192347D02*
X133759625Y-83197868D01*
X133776401Y-83206835D01*
X133791101Y-83218899D01*
X133803165Y-83233599D01*
X133812132Y-83250375D01*
X133817653Y-83268575D01*
X133820000Y-83292408D01*
X133820000Y-83677592D01*
X133817653Y-83701425D01*
X133812132Y-83719625D01*
X133803165Y-83736401D01*
X133791101Y-83751101D01*
X133776401Y-83763165D01*
X133759625Y-83772132D01*
X133741425Y-83777653D01*
X133717592Y-83780000D01*
X133282408Y-83780000D01*
X133258575Y-83777653D01*
X133240375Y-83772132D01*
X133223599Y-83763165D01*
X133208899Y-83751101D01*
X133196835Y-83736401D01*
X133187868Y-83719625D01*
X133182347Y-83701425D01*
X133180000Y-83677592D01*
X133180000Y-83292408D01*
X133182347Y-83268575D01*
X133187868Y-83250375D01*
X133196835Y-83233599D01*
X133208899Y-83218899D01*
X133223599Y-83206835D01*
X133240375Y-83197868D01*
X133258575Y-83192347D01*
X133282408Y-83190000D01*
X133717592Y-83190000D01*
X133741425Y-83192347D01*
X133741425Y-83192347D01*
G37*
G36*
X153222267Y-82267283D02*
X153222269Y-82267284D01*
X153222270Y-82267284D01*
X153253874Y-82280375D01*
X153360942Y-82324724D01*
X153485747Y-82408116D01*
X153591884Y-82514253D01*
X153675276Y-82639058D01*
X153732717Y-82777733D01*
X153762000Y-82924950D01*
X153762000Y-83075050D01*
X153734191Y-83214858D01*
X153732716Y-83222270D01*
X153708367Y-83281054D01*
X153675276Y-83360942D01*
X153591884Y-83485747D01*
X153485747Y-83591884D01*
X153437469Y-83624142D01*
X153360942Y-83675276D01*
X153222270Y-83732716D01*
X153222269Y-83732716D01*
X153222267Y-83732717D01*
X153075050Y-83762000D01*
X152924950Y-83762000D01*
X152777733Y-83732717D01*
X152777731Y-83732716D01*
X152777730Y-83732716D01*
X152639058Y-83675276D01*
X152562531Y-83624142D01*
X152514253Y-83591884D01*
X152408116Y-83485747D01*
X152324724Y-83360942D01*
X152291633Y-83281054D01*
X152267284Y-83222270D01*
X152265810Y-83214858D01*
X152238000Y-83075050D01*
X152238000Y-82924950D01*
X152267283Y-82777733D01*
X152324724Y-82639058D01*
X152408116Y-82514253D01*
X152514253Y-82408116D01*
X152639058Y-82324724D01*
X152746126Y-82280375D01*
X152777730Y-82267284D01*
X152777731Y-82267284D01*
X152777733Y-82267283D01*
X152924950Y-82238000D01*
X153075050Y-82238000D01*
X153222267Y-82267283D01*
X153222267Y-82267283D01*
G37*
G36*
X131222267Y-82267283D02*
X131222269Y-82267284D01*
X131222270Y-82267284D01*
X131253874Y-82280375D01*
X131360942Y-82324724D01*
X131485747Y-82408116D01*
X131591884Y-82514253D01*
X131675276Y-82639058D01*
X131732717Y-82777733D01*
X131762000Y-82924950D01*
X131762000Y-83075050D01*
X131734191Y-83214858D01*
X131732716Y-83222270D01*
X131708367Y-83281054D01*
X131675276Y-83360942D01*
X131591884Y-83485747D01*
X131485747Y-83591884D01*
X131437469Y-83624142D01*
X131360942Y-83675276D01*
X131222270Y-83732716D01*
X131222269Y-83732716D01*
X131222267Y-83732717D01*
X131075050Y-83762000D01*
X130924950Y-83762000D01*
X130777733Y-83732717D01*
X130777731Y-83732716D01*
X130777730Y-83732716D01*
X130639058Y-83675276D01*
X130562531Y-83624142D01*
X130514253Y-83591884D01*
X130408116Y-83485747D01*
X130324724Y-83360942D01*
X130291633Y-83281054D01*
X130267284Y-83222270D01*
X130265810Y-83214858D01*
X130238000Y-83075050D01*
X130238000Y-82924950D01*
X130267283Y-82777733D01*
X130324724Y-82639058D01*
X130408116Y-82514253D01*
X130514253Y-82408116D01*
X130639058Y-82324724D01*
X130746126Y-82280375D01*
X130777730Y-82267284D01*
X130777731Y-82267284D01*
X130777733Y-82267283D01*
X130924950Y-82238000D01*
X131075050Y-82238000D01*
X131222267Y-82267283D01*
X131222267Y-82267283D01*
G37*
G36*
X145090000Y-83340000D02*
X144510000Y-83340000D01*
X144510000Y-82160000D01*
X145090000Y-82160000D01*
X145090000Y-83340000D01*
X145090000Y-83340000D01*
G37*
G36*
X142690000Y-83340000D02*
X142110000Y-83340000D01*
X142110000Y-82160000D01*
X142690000Y-82160000D01*
X142690000Y-83340000D01*
X142690000Y-83340000D01*
G37*
G36*
X141890000Y-83340000D02*
X141310000Y-83340000D01*
X141310000Y-82160000D01*
X141890000Y-82160000D01*
X141890000Y-83340000D01*
X141890000Y-83340000D01*
G37*
G36*
X141090000Y-83340000D02*
X140510000Y-83340000D01*
X140510000Y-82160000D01*
X141090000Y-82160000D01*
X141090000Y-83340000D01*
X141090000Y-83340000D01*
G37*
G36*
X140290000Y-83340000D02*
X139710000Y-83340000D01*
X139710000Y-82160000D01*
X140290000Y-82160000D01*
X140290000Y-83340000D01*
X140290000Y-83340000D01*
G37*
G36*
X139490000Y-83340000D02*
X138910000Y-83340000D01*
X138910000Y-82160000D01*
X139490000Y-82160000D01*
X139490000Y-83340000D01*
X139490000Y-83340000D01*
G37*
G36*
X143490000Y-83340000D02*
X142910000Y-83340000D01*
X142910000Y-82160000D01*
X143490000Y-82160000D01*
X143490000Y-83340000D01*
X143490000Y-83340000D01*
G37*
G36*
X144290000Y-83340000D02*
X143710000Y-83340000D01*
X143710000Y-82160000D01*
X144290000Y-82160000D01*
X144290000Y-83340000D01*
X144290000Y-83340000D01*
G37*
G36*
X136400000Y-83250000D02*
X134600000Y-83250000D01*
X134600000Y-82250000D01*
X136400000Y-82250000D01*
X136400000Y-83250000D01*
X136400000Y-83250000D01*
G37*
G36*
X133741425Y-82222347D02*
X133759625Y-82227868D01*
X133776401Y-82236835D01*
X133791101Y-82248899D01*
X133803165Y-82263599D01*
X133812132Y-82280375D01*
X133817653Y-82298575D01*
X133820000Y-82322408D01*
X133820000Y-82707592D01*
X133817653Y-82731425D01*
X133812132Y-82749625D01*
X133803165Y-82766401D01*
X133791101Y-82781101D01*
X133776401Y-82793165D01*
X133759625Y-82802132D01*
X133741425Y-82807653D01*
X133717592Y-82810000D01*
X133282408Y-82810000D01*
X133258575Y-82807653D01*
X133240375Y-82802132D01*
X133223599Y-82793165D01*
X133208899Y-82781101D01*
X133196835Y-82766401D01*
X133187868Y-82749625D01*
X133182347Y-82731425D01*
X133180000Y-82707592D01*
X133180000Y-82322408D01*
X133182347Y-82298575D01*
X133187868Y-82280375D01*
X133196835Y-82263599D01*
X133208899Y-82248899D01*
X133223599Y-82236835D01*
X133240375Y-82227868D01*
X133258575Y-82222347D01*
X133282408Y-82220000D01*
X133717592Y-82220000D01*
X133741425Y-82222347D01*
X133741425Y-82222347D01*
G37*
G36*
X131222267Y-80267283D02*
X131222269Y-80267284D01*
X131222270Y-80267284D01*
X131360942Y-80324724D01*
X131485747Y-80408116D01*
X131591884Y-80514253D01*
X131668293Y-80628607D01*
X131675276Y-80639058D01*
X131723819Y-80756250D01*
X131732717Y-80777733D01*
X131762000Y-80924950D01*
X131762000Y-81075050D01*
X131732717Y-81222267D01*
X131675276Y-81360942D01*
X131591884Y-81485747D01*
X131485747Y-81591884D01*
X131360942Y-81675276D01*
X131222270Y-81732716D01*
X131222269Y-81732716D01*
X131222267Y-81732717D01*
X131075050Y-81762000D01*
X130924950Y-81762000D01*
X130777733Y-81732717D01*
X130777731Y-81732716D01*
X130777730Y-81732716D01*
X130639058Y-81675276D01*
X130514253Y-81591884D01*
X130408116Y-81485747D01*
X130324724Y-81360942D01*
X130267283Y-81222267D01*
X130238000Y-81075050D01*
X130238000Y-80924950D01*
X130267283Y-80777733D01*
X130276182Y-80756250D01*
X130324724Y-80639058D01*
X130331707Y-80628607D01*
X130408116Y-80514253D01*
X130514253Y-80408116D01*
X130639058Y-80324724D01*
X130777730Y-80267284D01*
X130777731Y-80267284D01*
X130777733Y-80267283D01*
X130924950Y-80238000D01*
X131075050Y-80238000D01*
X131222267Y-80267283D01*
X131222267Y-80267283D01*
G37*
G36*
X153222267Y-80267283D02*
X153222269Y-80267284D01*
X153222270Y-80267284D01*
X153360942Y-80324724D01*
X153485747Y-80408116D01*
X153591884Y-80514253D01*
X153668293Y-80628607D01*
X153675276Y-80639058D01*
X153723819Y-80756250D01*
X153732717Y-80777733D01*
X153762000Y-80924950D01*
X153762000Y-81075050D01*
X153732717Y-81222267D01*
X153675276Y-81360942D01*
X153591884Y-81485747D01*
X153485747Y-81591884D01*
X153360942Y-81675276D01*
X153222270Y-81732716D01*
X153222269Y-81732716D01*
X153222267Y-81732717D01*
X153075050Y-81762000D01*
X152924950Y-81762000D01*
X152777733Y-81732717D01*
X152777731Y-81732716D01*
X152777730Y-81732716D01*
X152639058Y-81675276D01*
X152514253Y-81591884D01*
X152408116Y-81485747D01*
X152324724Y-81360942D01*
X152267283Y-81222267D01*
X152238000Y-81075050D01*
X152238000Y-80924950D01*
X152267283Y-80777733D01*
X152276182Y-80756250D01*
X152324724Y-80639058D01*
X152331707Y-80628607D01*
X152408116Y-80514253D01*
X152514253Y-80408116D01*
X152639058Y-80324724D01*
X152777730Y-80267284D01*
X152777731Y-80267284D01*
X152777733Y-80267283D01*
X152924950Y-80238000D01*
X153075050Y-80238000D01*
X153222267Y-80267283D01*
X153222267Y-80267283D01*
G37*
G36*
X139014076Y-80028717D02*
X139045641Y-80038291D01*
X139074735Y-80053843D01*
X139100232Y-80074768D01*
X139121157Y-80100265D01*
X139136709Y-80129359D01*
X139146283Y-80160924D01*
X139150000Y-80198658D01*
X139150000Y-80801342D01*
X139146283Y-80839076D01*
X139136709Y-80870641D01*
X139121157Y-80899735D01*
X139100232Y-80925232D01*
X139074735Y-80946157D01*
X139045641Y-80961709D01*
X139014076Y-80971283D01*
X138976342Y-80975000D01*
X138448658Y-80975000D01*
X138410924Y-80971283D01*
X138379359Y-80961709D01*
X138350265Y-80946157D01*
X138324768Y-80925232D01*
X138303843Y-80899735D01*
X138288291Y-80870641D01*
X138278717Y-80839076D01*
X138275000Y-80801342D01*
X138275000Y-80198658D01*
X138278717Y-80160924D01*
X138288291Y-80129359D01*
X138303843Y-80100265D01*
X138324768Y-80074768D01*
X138350265Y-80053843D01*
X138379359Y-80038291D01*
X138410924Y-80028717D01*
X138448658Y-80025000D01*
X138976342Y-80025000D01*
X139014076Y-80028717D01*
X139014076Y-80028717D01*
G37*
G36*
X140589076Y-80028717D02*
X140620641Y-80038291D01*
X140649735Y-80053843D01*
X140675232Y-80074768D01*
X140696157Y-80100265D01*
X140711709Y-80129359D01*
X140721283Y-80160924D01*
X140725000Y-80198658D01*
X140725000Y-80801342D01*
X140721283Y-80839076D01*
X140711709Y-80870641D01*
X140696157Y-80899735D01*
X140675232Y-80925232D01*
X140649735Y-80946157D01*
X140620641Y-80961709D01*
X140589076Y-80971283D01*
X140551342Y-80975000D01*
X140023658Y-80975000D01*
X139985924Y-80971283D01*
X139954359Y-80961709D01*
X139925265Y-80946157D01*
X139899768Y-80925232D01*
X139878843Y-80899735D01*
X139863291Y-80870641D01*
X139853717Y-80839076D01*
X139850000Y-80801342D01*
X139850000Y-80198658D01*
X139853717Y-80160924D01*
X139863291Y-80129359D01*
X139878843Y-80100265D01*
X139899768Y-80074768D01*
X139925265Y-80053843D01*
X139954359Y-80038291D01*
X139985924Y-80028717D01*
X140023658Y-80025000D01*
X140551342Y-80025000D01*
X140589076Y-80028717D01*
X140589076Y-80028717D01*
G37*
G36*
X134393956Y-79304198D02*
X134430210Y-79315195D01*
X134463621Y-79333054D01*
X134492910Y-79357090D01*
X134516946Y-79386379D01*
X134534805Y-79419790D01*
X134545802Y-79456044D01*
X134550000Y-79498667D01*
X134550000Y-80501333D01*
X134545802Y-80543956D01*
X134534805Y-80580210D01*
X134516946Y-80613621D01*
X134492910Y-80642910D01*
X134463621Y-80666946D01*
X134430210Y-80684805D01*
X134393956Y-80695802D01*
X134351333Y-80700000D01*
X133773667Y-80700000D01*
X133731044Y-80695802D01*
X133694790Y-80684805D01*
X133661379Y-80666946D01*
X133632090Y-80642910D01*
X133608054Y-80613621D01*
X133590195Y-80580210D01*
X133579198Y-80543956D01*
X133575000Y-80501333D01*
X133575000Y-79498667D01*
X133579198Y-79456044D01*
X133590195Y-79419790D01*
X133608054Y-79386379D01*
X133632090Y-79357090D01*
X133661379Y-79333054D01*
X133694790Y-79315195D01*
X133731044Y-79304198D01*
X133773667Y-79300000D01*
X134351333Y-79300000D01*
X134393956Y-79304198D01*
X134393956Y-79304198D01*
G37*
G36*
X136268956Y-79304198D02*
X136305210Y-79315195D01*
X136338621Y-79333054D01*
X136367910Y-79357090D01*
X136391946Y-79386379D01*
X136409805Y-79419790D01*
X136420802Y-79456044D01*
X136425000Y-79498667D01*
X136425000Y-80501333D01*
X136420802Y-80543956D01*
X136409805Y-80580210D01*
X136391946Y-80613621D01*
X136367910Y-80642910D01*
X136338621Y-80666946D01*
X136305210Y-80684805D01*
X136268956Y-80695802D01*
X136226333Y-80700000D01*
X135648667Y-80700000D01*
X135606044Y-80695802D01*
X135569790Y-80684805D01*
X135536379Y-80666946D01*
X135507090Y-80642910D01*
X135483054Y-80613621D01*
X135465195Y-80580210D01*
X135454198Y-80543956D01*
X135450000Y-80501333D01*
X135450000Y-79498667D01*
X135454198Y-79456044D01*
X135465195Y-79419790D01*
X135483054Y-79386379D01*
X135507090Y-79357090D01*
X135536379Y-79333054D01*
X135569790Y-79315195D01*
X135606044Y-79304198D01*
X135648667Y-79300000D01*
X136226333Y-79300000D01*
X136268956Y-79304198D01*
X136268956Y-79304198D01*
G37*
G36*
X158966703Y-76961487D02*
X158966705Y-76961488D01*
X158966706Y-76961488D01*
X159257884Y-77082098D01*
X159519939Y-77257197D01*
X159742803Y-77480061D01*
X159917902Y-77742116D01*
X160037747Y-78031446D01*
X160038513Y-78033297D01*
X160100000Y-78342414D01*
X160100000Y-78657586D01*
X160040904Y-78954684D01*
X160038512Y-78966706D01*
X159917902Y-79257884D01*
X159742803Y-79519939D01*
X159519939Y-79742803D01*
X159257884Y-79917902D01*
X158966706Y-80038512D01*
X158966705Y-80038512D01*
X158966703Y-80038513D01*
X158657586Y-80100000D01*
X158342414Y-80100000D01*
X158033297Y-80038513D01*
X158033295Y-80038512D01*
X158033294Y-80038512D01*
X157742116Y-79917902D01*
X157480061Y-79742803D01*
X157257197Y-79519939D01*
X157082098Y-79257884D01*
X156961488Y-78966706D01*
X156959097Y-78954684D01*
X156900000Y-78657586D01*
X156900000Y-78342414D01*
X156961487Y-78033297D01*
X156962254Y-78031446D01*
X157082098Y-77742116D01*
X157257197Y-77480061D01*
X157480061Y-77257197D01*
X157742116Y-77082098D01*
X158033294Y-76961488D01*
X158033295Y-76961488D01*
X158033297Y-76961487D01*
X158342414Y-76900000D01*
X158657586Y-76900000D01*
X158966703Y-76961487D01*
X158966703Y-76961487D01*
G37*
G36*
X125966703Y-76961487D02*
X125966705Y-76961488D01*
X125966706Y-76961488D01*
X126257884Y-77082098D01*
X126519939Y-77257197D01*
X126742803Y-77480061D01*
X126917902Y-77742116D01*
X127037747Y-78031446D01*
X127038513Y-78033297D01*
X127100000Y-78342414D01*
X127100000Y-78657586D01*
X127040904Y-78954684D01*
X127038512Y-78966706D01*
X126917902Y-79257884D01*
X126742803Y-79519939D01*
X126519939Y-79742803D01*
X126257884Y-79917902D01*
X125966706Y-80038512D01*
X125966705Y-80038512D01*
X125966703Y-80038513D01*
X125657586Y-80100000D01*
X125342414Y-80100000D01*
X125033297Y-80038513D01*
X125033295Y-80038512D01*
X125033294Y-80038512D01*
X124742116Y-79917902D01*
X124480061Y-79742803D01*
X124257197Y-79519939D01*
X124082098Y-79257884D01*
X123961488Y-78966706D01*
X123959097Y-78954684D01*
X123900000Y-78657586D01*
X123900000Y-78342414D01*
X123961487Y-78033297D01*
X123962254Y-78031446D01*
X124082098Y-77742116D01*
X124257197Y-77480061D01*
X124480061Y-77257197D01*
X124742116Y-77082098D01*
X125033294Y-76961488D01*
X125033295Y-76961488D01*
X125033297Y-76961487D01*
X125342414Y-76900000D01*
X125657586Y-76900000D01*
X125966703Y-76961487D01*
X125966703Y-76961487D01*
G37*
G36*
X150043956Y-78954198D02*
X150080210Y-78965195D01*
X150113621Y-78983054D01*
X150142910Y-79007090D01*
X150166946Y-79036379D01*
X150184805Y-79069790D01*
X150195802Y-79106044D01*
X150200000Y-79148667D01*
X150200000Y-79726333D01*
X150195802Y-79768956D01*
X150184805Y-79805210D01*
X150166946Y-79838621D01*
X150142910Y-79867910D01*
X150113621Y-79891946D01*
X150080210Y-79909805D01*
X150043956Y-79920802D01*
X150001333Y-79925000D01*
X148998667Y-79925000D01*
X148956044Y-79920802D01*
X148919790Y-79909805D01*
X148886379Y-79891946D01*
X148857090Y-79867910D01*
X148833054Y-79838621D01*
X148815195Y-79805210D01*
X148804198Y-79768956D01*
X148800000Y-79726333D01*
X148800000Y-79148667D01*
X148804198Y-79106044D01*
X148815195Y-79069790D01*
X148833054Y-79036379D01*
X148857090Y-79007090D01*
X148886379Y-78983054D01*
X148919790Y-78965195D01*
X148956044Y-78954198D01*
X148998667Y-78950000D01*
X150001333Y-78950000D01*
X150043956Y-78954198D01*
X150043956Y-78954198D01*
G37*
G36*
X146450000Y-79850000D02*
X145550000Y-79850000D01*
X145550000Y-79050000D01*
X146450000Y-79050000D01*
X146450000Y-79850000D01*
X146450000Y-79850000D01*
G37*
G36*
X131222267Y-78267283D02*
X131222269Y-78267284D01*
X131222270Y-78267284D01*
X131298660Y-78298926D01*
X131360942Y-78324724D01*
X131485747Y-78408116D01*
X131591884Y-78514253D01*
X131675276Y-78639058D01*
X131732717Y-78777733D01*
X131762000Y-78924950D01*
X131762000Y-79075050D01*
X131732717Y-79222267D01*
X131675276Y-79360942D01*
X131591884Y-79485747D01*
X131485747Y-79591884D01*
X131360942Y-79675276D01*
X131222270Y-79732716D01*
X131222269Y-79732716D01*
X131222267Y-79732717D01*
X131075050Y-79762000D01*
X130924950Y-79762000D01*
X130777733Y-79732717D01*
X130777731Y-79732716D01*
X130777730Y-79732716D01*
X130639058Y-79675276D01*
X130514253Y-79591884D01*
X130408116Y-79485747D01*
X130324724Y-79360942D01*
X130267283Y-79222267D01*
X130238000Y-79075050D01*
X130238000Y-78924950D01*
X130267283Y-78777733D01*
X130324724Y-78639058D01*
X130408116Y-78514253D01*
X130514253Y-78408116D01*
X130639058Y-78324724D01*
X130701340Y-78298926D01*
X130777730Y-78267284D01*
X130777731Y-78267284D01*
X130777733Y-78267283D01*
X130924950Y-78238000D01*
X131075050Y-78238000D01*
X131222267Y-78267283D01*
X131222267Y-78267283D01*
G37*
G36*
X153222267Y-78267283D02*
X153222269Y-78267284D01*
X153222270Y-78267284D01*
X153298660Y-78298926D01*
X153360942Y-78324724D01*
X153485747Y-78408116D01*
X153591884Y-78514253D01*
X153675276Y-78639058D01*
X153732717Y-78777733D01*
X153762000Y-78924950D01*
X153762000Y-79075050D01*
X153732717Y-79222267D01*
X153675276Y-79360942D01*
X153591884Y-79485747D01*
X153485747Y-79591884D01*
X153360942Y-79675276D01*
X153222270Y-79732716D01*
X153222269Y-79732716D01*
X153222267Y-79732717D01*
X153075050Y-79762000D01*
X152924950Y-79762000D01*
X152777733Y-79732717D01*
X152777731Y-79732716D01*
X152777730Y-79732716D01*
X152639058Y-79675276D01*
X152514253Y-79591884D01*
X152408116Y-79485747D01*
X152324724Y-79360942D01*
X152267283Y-79222267D01*
X152238000Y-79075050D01*
X152238000Y-78924950D01*
X152267283Y-78777733D01*
X152324724Y-78639058D01*
X152408116Y-78514253D01*
X152514253Y-78408116D01*
X152639058Y-78324724D01*
X152701340Y-78298926D01*
X152777730Y-78267284D01*
X152777731Y-78267284D01*
X152777733Y-78267283D01*
X152924950Y-78238000D01*
X153075050Y-78238000D01*
X153222267Y-78267283D01*
X153222267Y-78267283D01*
G37*
G36*
X144450000Y-78900000D02*
X143550000Y-78900000D01*
X143550000Y-78100000D01*
X144450000Y-78100000D01*
X144450000Y-78900000D01*
X144450000Y-78900000D01*
G37*
G36*
X134514076Y-77528717D02*
X134545641Y-77538291D01*
X134574735Y-77553843D01*
X134600232Y-77574768D01*
X134621157Y-77600265D01*
X134636709Y-77629359D01*
X134646283Y-77660924D01*
X134650000Y-77698658D01*
X134650000Y-78301342D01*
X134646283Y-78339076D01*
X134636709Y-78370641D01*
X134621157Y-78399735D01*
X134600232Y-78425232D01*
X134574735Y-78446157D01*
X134545641Y-78461709D01*
X134514076Y-78471283D01*
X134476342Y-78475000D01*
X133948658Y-78475000D01*
X133910924Y-78471283D01*
X133879359Y-78461709D01*
X133850265Y-78446157D01*
X133824768Y-78425232D01*
X133803843Y-78399735D01*
X133788291Y-78370641D01*
X133778717Y-78339076D01*
X133775000Y-78301342D01*
X133775000Y-77698658D01*
X133778717Y-77660924D01*
X133788291Y-77629359D01*
X133803843Y-77600265D01*
X133824768Y-77574768D01*
X133850265Y-77553843D01*
X133879359Y-77538291D01*
X133910924Y-77528717D01*
X133948658Y-77525000D01*
X134476342Y-77525000D01*
X134514076Y-77528717D01*
X134514076Y-77528717D01*
G37*
G36*
X136089076Y-77528717D02*
X136120641Y-77538291D01*
X136149735Y-77553843D01*
X136175232Y-77574768D01*
X136196157Y-77600265D01*
X136211709Y-77629359D01*
X136221283Y-77660924D01*
X136225000Y-77698658D01*
X136225000Y-78301342D01*
X136221283Y-78339076D01*
X136211709Y-78370641D01*
X136196157Y-78399735D01*
X136175232Y-78425232D01*
X136149735Y-78446157D01*
X136120641Y-78461709D01*
X136089076Y-78471283D01*
X136051342Y-78475000D01*
X135523658Y-78475000D01*
X135485924Y-78471283D01*
X135454359Y-78461709D01*
X135425265Y-78446157D01*
X135399768Y-78425232D01*
X135378843Y-78399735D01*
X135363291Y-78370641D01*
X135353717Y-78339076D01*
X135350000Y-78301342D01*
X135350000Y-77698658D01*
X135353717Y-77660924D01*
X135363291Y-77629359D01*
X135378843Y-77600265D01*
X135399768Y-77574768D01*
X135425265Y-77553843D01*
X135454359Y-77538291D01*
X135485924Y-77528717D01*
X135523658Y-77525000D01*
X136051342Y-77525000D01*
X136089076Y-77528717D01*
X136089076Y-77528717D01*
G37*
G36*
X150043956Y-77079198D02*
X150080210Y-77090195D01*
X150113621Y-77108054D01*
X150142910Y-77132090D01*
X150166946Y-77161379D01*
X150184805Y-77194790D01*
X150195802Y-77231044D01*
X150200000Y-77273667D01*
X150200000Y-77851333D01*
X150195802Y-77893956D01*
X150184805Y-77930210D01*
X150166946Y-77963621D01*
X150142910Y-77992910D01*
X150113621Y-78016946D01*
X150080210Y-78034805D01*
X150043956Y-78045802D01*
X150001333Y-78050000D01*
X148998667Y-78050000D01*
X148956044Y-78045802D01*
X148919790Y-78034805D01*
X148886379Y-78016946D01*
X148857090Y-77992910D01*
X148833054Y-77963621D01*
X148815195Y-77930210D01*
X148804198Y-77893956D01*
X148800000Y-77851333D01*
X148800000Y-77273667D01*
X148804198Y-77231044D01*
X148815195Y-77194790D01*
X148833054Y-77161379D01*
X148857090Y-77132090D01*
X148886379Y-77108054D01*
X148919790Y-77090195D01*
X148956044Y-77079198D01*
X148998667Y-77075000D01*
X150001333Y-77075000D01*
X150043956Y-77079198D01*
X150043956Y-77079198D01*
G37*
G36*
X146450000Y-77950000D02*
X145550000Y-77950000D01*
X145550000Y-77150000D01*
X146450000Y-77150000D01*
X146450000Y-77950000D01*
X146450000Y-77950000D01*
G37*
G36*
X131222267Y-76267283D02*
X131222269Y-76267284D01*
X131222270Y-76267284D01*
X131360942Y-76324724D01*
X131485747Y-76408116D01*
X131591884Y-76514253D01*
X131675276Y-76639058D01*
X131732717Y-76777733D01*
X131762000Y-76924950D01*
X131762000Y-77075050D01*
X131747092Y-77150000D01*
X131732716Y-77222270D01*
X131675276Y-77360942D01*
X131591884Y-77485747D01*
X131485747Y-77591884D01*
X131383747Y-77660038D01*
X131360942Y-77675276D01*
X131222270Y-77732716D01*
X131222269Y-77732716D01*
X131222267Y-77732717D01*
X131075050Y-77762000D01*
X130924950Y-77762000D01*
X130777733Y-77732717D01*
X130777731Y-77732716D01*
X130777730Y-77732716D01*
X130639058Y-77675276D01*
X130616253Y-77660038D01*
X130514253Y-77591884D01*
X130408116Y-77485747D01*
X130324724Y-77360942D01*
X130267284Y-77222270D01*
X130252909Y-77150000D01*
X130238000Y-77075050D01*
X130238000Y-76924950D01*
X130267283Y-76777733D01*
X130324724Y-76639058D01*
X130408116Y-76514253D01*
X130514253Y-76408116D01*
X130639058Y-76324724D01*
X130777730Y-76267284D01*
X130777731Y-76267284D01*
X130777733Y-76267283D01*
X130924950Y-76238000D01*
X131075050Y-76238000D01*
X131222267Y-76267283D01*
X131222267Y-76267283D01*
G37*
G36*
X153222267Y-76267283D02*
X153222269Y-76267284D01*
X153222270Y-76267284D01*
X153360942Y-76324724D01*
X153485747Y-76408116D01*
X153591884Y-76514253D01*
X153675276Y-76639058D01*
X153732717Y-76777733D01*
X153762000Y-76924950D01*
X153762000Y-77075050D01*
X153747092Y-77150000D01*
X153732716Y-77222270D01*
X153675276Y-77360942D01*
X153591884Y-77485747D01*
X153485747Y-77591884D01*
X153383747Y-77660038D01*
X153360942Y-77675276D01*
X153222270Y-77732716D01*
X153222269Y-77732716D01*
X153222267Y-77732717D01*
X153075050Y-77762000D01*
X152924950Y-77762000D01*
X152777733Y-77732717D01*
X152777731Y-77732716D01*
X152777730Y-77732716D01*
X152639058Y-77675276D01*
X152616253Y-77660038D01*
X152514253Y-77591884D01*
X152408116Y-77485747D01*
X152324724Y-77360942D01*
X152267284Y-77222270D01*
X152252909Y-77150000D01*
X152238000Y-77075050D01*
X152238000Y-76924950D01*
X152267283Y-76777733D01*
X152324724Y-76639058D01*
X152408116Y-76514253D01*
X152514253Y-76408116D01*
X152639058Y-76324724D01*
X152777730Y-76267284D01*
X152777731Y-76267284D01*
X152777733Y-76267283D01*
X152924950Y-76238000D01*
X153075050Y-76238000D01*
X153222267Y-76267283D01*
X153222267Y-76267283D01*
G37*
M02*
