G04 #@! TF.GenerationSoftware,KiCad,Pcbnew,5.0.2-bee76a0~70~ubuntu18.10.1*
G04 #@! TF.CreationDate,2019-06-30T16:33:55+01:00*
G04 #@! TF.ProjectId,xbee-sensor,78626565-2d73-4656-9e73-6f722e6b6963,rev?*
G04 #@! TF.SameCoordinates,Original*
G04 #@! TF.FileFunction,Legend,Top*
G04 #@! TF.FilePolarity,Positive*
%FSLAX46Y46*%
G04 Gerber Fmt 4.6, Leading zero omitted, Abs format (unit mm)*
G04 Created by KiCad (PCBNEW 5.0.2-bee76a0~70~ubuntu18.10.1) date Sun 30 Jun 2019 16:33:55 BST*
%MOMM*%
%LPD*%
G01*
G04 APERTURE LIST*
%ADD10C,0.200000*%
%ADD11C,0.300000*%
%ADD12C,0.120000*%
%ADD13C,0.150000*%
%ADD14C,0.100000*%
G04 APERTURE END LIST*
D10*
X129119047Y-113571428D02*
X129880952Y-113571428D01*
X129500000Y-113952380D02*
X129500000Y-113190476D01*
X148666666Y-105380952D02*
X148666666Y-105761904D01*
X148714285Y-105809523D02*
X148904761Y-105952380D01*
X148714285Y-105333333D02*
X148904761Y-105190476D01*
X148714285Y-105285714D02*
X148714285Y-105857142D01*
X148761904Y-105857142D02*
X148761904Y-105285714D01*
X148809523Y-105238095D02*
X148809523Y-105904761D01*
X148857142Y-105904761D02*
X148857142Y-105238095D01*
X148904761Y-105190476D02*
X148904761Y-105952380D01*
X148952380Y-105952380D02*
X148952380Y-105190476D01*
X149000000Y-105190476D02*
X149000000Y-105952380D01*
X149047619Y-105952380D02*
X149047619Y-105190476D01*
X149095238Y-105952380D02*
X149285714Y-105809523D01*
X149095238Y-105190476D02*
X149095238Y-105952380D01*
X149095238Y-105190476D02*
X149285714Y-105333333D01*
X149142857Y-105904761D02*
X149142857Y-105238095D01*
X149190476Y-105238095D02*
X149190476Y-105904761D01*
X149238095Y-105857142D02*
X149238095Y-105285714D01*
X149285714Y-105285714D02*
X149285714Y-105857142D01*
X149333333Y-105761904D02*
X149333333Y-105380952D01*
X148904761Y-105190476D02*
X149095238Y-105190476D01*
X149285714Y-105285714D01*
X149380952Y-105476190D01*
X149380952Y-105666666D01*
X149285714Y-105857142D01*
X149095238Y-105952380D01*
X148904761Y-105952380D01*
X148714285Y-105857142D01*
X148619047Y-105666666D01*
X148619047Y-105476190D01*
X148714285Y-105285714D01*
X148904761Y-105190476D01*
D11*
X154892857Y-90571428D02*
X154964285Y-90571428D01*
X154750000Y-90500000D02*
X154964285Y-90500000D01*
X154607142Y-90428571D02*
X154964285Y-90428571D01*
X154464285Y-90357142D02*
X154964285Y-90357142D01*
X154392857Y-90285714D02*
X154964285Y-90285714D01*
X154250000Y-90214285D02*
X154964285Y-90214285D01*
X154107142Y-90142857D02*
X154964285Y-90142857D01*
X153964285Y-90071428D02*
X154964285Y-90071428D01*
X153821428Y-90000000D02*
X154964285Y-90000000D01*
X153964285Y-89928571D02*
X154964285Y-89928571D01*
X154107142Y-89857142D02*
X154964285Y-89857142D01*
X154250000Y-89785714D02*
X154964285Y-89785714D01*
X154392857Y-89714285D02*
X154964285Y-89714285D01*
X154464285Y-89642857D02*
X154964285Y-89642857D01*
X154607142Y-89571428D02*
X154964285Y-89571428D01*
X154750000Y-89500000D02*
X154964285Y-89500000D01*
X154964285Y-89428571D02*
X153892857Y-90000000D01*
X154964285Y-90571428D01*
X154892857Y-89428571D02*
X154964285Y-89428571D01*
X153821428Y-90000000D02*
X154964285Y-89357142D01*
X154964285Y-90642857D01*
X153821428Y-90000000D01*
D10*
X155738095Y-98952380D02*
X155738095Y-97952380D01*
X156119047Y-97952380D01*
X156214285Y-98000000D01*
X156261904Y-98047619D01*
X156309523Y-98142857D01*
X156309523Y-98285714D01*
X156261904Y-98380952D01*
X156214285Y-98428571D01*
X156119047Y-98476190D01*
X155738095Y-98476190D01*
X155714285Y-82452380D02*
X155714285Y-81452380D01*
X155714285Y-81928571D02*
X156285714Y-81928571D01*
X156285714Y-82452380D02*
X156285714Y-81452380D01*
D11*
X158571428Y-81607142D02*
X158571428Y-81535714D01*
X158500000Y-81750000D02*
X158500000Y-81535714D01*
X158428571Y-81892857D02*
X158428571Y-81535714D01*
X158357142Y-82035714D02*
X158357142Y-81535714D01*
X158285714Y-82107142D02*
X158285714Y-81535714D01*
X158214285Y-82250000D02*
X158214285Y-81535714D01*
X158142857Y-82392857D02*
X158142857Y-81535714D01*
X158071428Y-82535714D02*
X158071428Y-81535714D01*
X158000000Y-82678571D02*
X158000000Y-81535714D01*
X157928571Y-82535714D02*
X157928571Y-81535714D01*
X157857142Y-82392857D02*
X157857142Y-81535714D01*
X157785714Y-82250000D02*
X157785714Y-81535714D01*
X157714285Y-82107142D02*
X157714285Y-81535714D01*
X157642857Y-82035714D02*
X157642857Y-81535714D01*
X157571428Y-81892857D02*
X157571428Y-81535714D01*
X157500000Y-81750000D02*
X157500000Y-81535714D01*
X157428571Y-81535714D02*
X158000000Y-82607142D01*
X158571428Y-81535714D01*
X157428571Y-81607142D02*
X157428571Y-81535714D01*
X158000000Y-82678571D02*
X157357142Y-81535714D01*
X158642857Y-81535714D01*
X158000000Y-82678571D01*
X154392857Y-97571428D02*
X154464285Y-97571428D01*
X154250000Y-97500000D02*
X154464285Y-97500000D01*
X154107142Y-97428571D02*
X154464285Y-97428571D01*
X153964285Y-97357142D02*
X154464285Y-97357142D01*
X153892857Y-97285714D02*
X154464285Y-97285714D01*
X153750000Y-97214285D02*
X154464285Y-97214285D01*
X153607142Y-97142857D02*
X154464285Y-97142857D01*
X153464285Y-97071428D02*
X154464285Y-97071428D01*
X153321428Y-97000000D02*
X154464285Y-97000000D01*
X153464285Y-96928571D02*
X154464285Y-96928571D01*
X153607142Y-96857142D02*
X154464285Y-96857142D01*
X153750000Y-96785714D02*
X154464285Y-96785714D01*
X153892857Y-96714285D02*
X154464285Y-96714285D01*
X153964285Y-96642857D02*
X154464285Y-96642857D01*
X154107142Y-96571428D02*
X154464285Y-96571428D01*
X154250000Y-96500000D02*
X154464285Y-96500000D01*
X154464285Y-96428571D02*
X153392857Y-97000000D01*
X154464285Y-97571428D01*
X154392857Y-96428571D02*
X154464285Y-96428571D01*
X153321428Y-97000000D02*
X154464285Y-96357142D01*
X154464285Y-97642857D01*
X153321428Y-97000000D01*
X126571428Y-87607142D02*
X126571428Y-87535714D01*
X126500000Y-87750000D02*
X126500000Y-87535714D01*
X126428571Y-87892857D02*
X126428571Y-87535714D01*
X126357142Y-88035714D02*
X126357142Y-87535714D01*
X126285714Y-88107142D02*
X126285714Y-87535714D01*
X126214285Y-88250000D02*
X126214285Y-87535714D01*
X126142857Y-88392857D02*
X126142857Y-87535714D01*
X126071428Y-88535714D02*
X126071428Y-87535714D01*
X126000000Y-88678571D02*
X126000000Y-87535714D01*
X125928571Y-88535714D02*
X125928571Y-87535714D01*
X125857142Y-88392857D02*
X125857142Y-87535714D01*
X125785714Y-88250000D02*
X125785714Y-87535714D01*
X125714285Y-88107142D02*
X125714285Y-87535714D01*
X125642857Y-88035714D02*
X125642857Y-87535714D01*
X125571428Y-87892857D02*
X125571428Y-87535714D01*
X125500000Y-87750000D02*
X125500000Y-87535714D01*
X125428571Y-87535714D02*
X126000000Y-88607142D01*
X126571428Y-87535714D01*
X125428571Y-87607142D02*
X125428571Y-87535714D01*
X126000000Y-88678571D02*
X125357142Y-87535714D01*
X126642857Y-87535714D01*
X126000000Y-88678571D01*
D10*
X124452380Y-104619047D02*
X124452380Y-105190476D01*
X124452380Y-104904761D02*
X123452380Y-104904761D01*
X123595238Y-105000000D01*
X123690476Y-105095238D01*
X123738095Y-105190476D01*
X124452380Y-104190476D02*
X123452380Y-104190476D01*
X124071428Y-104095238D02*
X124452380Y-103809523D01*
X123785714Y-103809523D02*
X124166666Y-104190476D01*
X129452380Y-106571428D02*
X129452380Y-107142857D01*
X129452380Y-106857142D02*
X128452380Y-106857142D01*
X128595238Y-106952380D01*
X128690476Y-107047619D01*
X128738095Y-107142857D01*
X128452380Y-105952380D02*
X128452380Y-105857142D01*
X128500000Y-105761904D01*
X128547619Y-105714285D01*
X128642857Y-105666666D01*
X128833333Y-105619047D01*
X129071428Y-105619047D01*
X129261904Y-105666666D01*
X129357142Y-105714285D01*
X129404761Y-105761904D01*
X129452380Y-105857142D01*
X129452380Y-105952380D01*
X129404761Y-106047619D01*
X129357142Y-106095238D01*
X129261904Y-106142857D01*
X129071428Y-106190476D01*
X128833333Y-106190476D01*
X128642857Y-106142857D01*
X128547619Y-106095238D01*
X128500000Y-106047619D01*
X128452380Y-105952380D01*
X128452380Y-105000000D02*
X128452380Y-104904761D01*
X128500000Y-104809523D01*
X128547619Y-104761904D01*
X128642857Y-104714285D01*
X128833333Y-104666666D01*
X129071428Y-104666666D01*
X129261904Y-104714285D01*
X129357142Y-104761904D01*
X129404761Y-104809523D01*
X129452380Y-104904761D01*
X129452380Y-105000000D01*
X129404761Y-105095238D01*
X129357142Y-105142857D01*
X129261904Y-105190476D01*
X129071428Y-105238095D01*
X128833333Y-105238095D01*
X128642857Y-105190476D01*
X128547619Y-105142857D01*
X128500000Y-105095238D01*
X128452380Y-105000000D01*
X129452380Y-104238095D02*
X128452380Y-104238095D01*
X129071428Y-104142857D02*
X129452380Y-103857142D01*
X128785714Y-103857142D02*
X129166666Y-104238095D01*
D11*
X125428571Y-104892857D02*
X125428571Y-104964285D01*
X125500000Y-104750000D02*
X125500000Y-104964285D01*
X125571428Y-104607142D02*
X125571428Y-104964285D01*
X125642857Y-104464285D02*
X125642857Y-104964285D01*
X125714285Y-104392857D02*
X125714285Y-104964285D01*
X125785714Y-104250000D02*
X125785714Y-104964285D01*
X125857142Y-104107142D02*
X125857142Y-104964285D01*
X125928571Y-103964285D02*
X125928571Y-104964285D01*
X126000000Y-103821428D02*
X126000000Y-104964285D01*
X126071428Y-103964285D02*
X126071428Y-104964285D01*
X126142857Y-104107142D02*
X126142857Y-104964285D01*
X126214285Y-104250000D02*
X126214285Y-104964285D01*
X126285714Y-104392857D02*
X126285714Y-104964285D01*
X126357142Y-104464285D02*
X126357142Y-104964285D01*
X126428571Y-104607142D02*
X126428571Y-104964285D01*
X126500000Y-104750000D02*
X126500000Y-104964285D01*
X126571428Y-104964285D02*
X126000000Y-103892857D01*
X125428571Y-104964285D01*
X126571428Y-104892857D02*
X126571428Y-104964285D01*
X126000000Y-103821428D02*
X126642857Y-104964285D01*
X125357142Y-104964285D01*
X126000000Y-103821428D01*
D10*
X122571428Y-101928571D02*
X122714285Y-101976190D01*
X122761904Y-102023809D01*
X122809523Y-102119047D01*
X122809523Y-102261904D01*
X122761904Y-102357142D01*
X122714285Y-102404761D01*
X122619047Y-102452380D01*
X122238095Y-102452380D01*
X122238095Y-101452380D01*
X122571428Y-101452380D01*
X122666666Y-101500000D01*
X122714285Y-101547619D01*
X122761904Y-101642857D01*
X122761904Y-101738095D01*
X122714285Y-101833333D01*
X122666666Y-101880952D01*
X122571428Y-101928571D01*
X122238095Y-101928571D01*
X122214285Y-98904761D02*
X122357142Y-98952380D01*
X122595238Y-98952380D01*
X122690476Y-98904761D01*
X122738095Y-98857142D01*
X122785714Y-98761904D01*
X122785714Y-98666666D01*
X122738095Y-98571428D01*
X122690476Y-98523809D01*
X122595238Y-98476190D01*
X122404761Y-98428571D01*
X122309523Y-98380952D01*
X122261904Y-98333333D01*
X122214285Y-98238095D01*
X122214285Y-98142857D01*
X122261904Y-98047619D01*
X122309523Y-98000000D01*
X122404761Y-97952380D01*
X122642857Y-97952380D01*
X122785714Y-98000000D01*
X122166666Y-94452380D02*
X122785714Y-94452380D01*
X122452380Y-94833333D01*
X122595238Y-94833333D01*
X122690476Y-94880952D01*
X122738095Y-94928571D01*
X122785714Y-95023809D01*
X122785714Y-95261904D01*
X122738095Y-95357142D01*
X122690476Y-95404761D01*
X122595238Y-95452380D01*
X122309523Y-95452380D01*
X122214285Y-95404761D01*
X122166666Y-95357142D01*
D12*
G04 #@! TO.C,C1*
X132258578Y-106710000D02*
X131741422Y-106710000D01*
X132258578Y-105290000D02*
X131741422Y-105290000D01*
G04 #@! TO.C,C2*
X137710000Y-108741422D02*
X137710000Y-109258578D01*
X136290000Y-108741422D02*
X136290000Y-109258578D01*
G04 #@! TO.C,C3*
X136162779Y-105490000D02*
X135837221Y-105490000D01*
X136162779Y-106510000D02*
X135837221Y-106510000D01*
G04 #@! TO.C,C4*
X136710000Y-101258578D02*
X136710000Y-100741422D01*
X135290000Y-101258578D02*
X135290000Y-100741422D01*
G04 #@! TO.C,C5*
X146758578Y-94710000D02*
X146241422Y-94710000D01*
X146758578Y-93290000D02*
X146241422Y-93290000D01*
G04 #@! TO.C,C6*
X134741422Y-80710000D02*
X135258578Y-80710000D01*
X134741422Y-79290000D02*
X135258578Y-79290000D01*
G04 #@! TO.C,C7*
X134837221Y-77490000D02*
X135162779Y-77490000D01*
X134837221Y-78510000D02*
X135162779Y-78510000D01*
G04 #@! TO.C,C8*
X146662779Y-96510000D02*
X146337221Y-96510000D01*
X146662779Y-95490000D02*
X146337221Y-95490000D01*
G04 #@! TO.C,C9*
X133837221Y-88010000D02*
X134162779Y-88010000D01*
X133837221Y-86990000D02*
X134162779Y-86990000D01*
G04 #@! TO.C,D1*
X157300000Y-90265000D02*
X155015000Y-90265000D01*
X155015000Y-90265000D02*
X155015000Y-91735000D01*
X155015000Y-91735000D02*
X157300000Y-91735000D01*
G04 #@! TO.C,D2*
X125265000Y-84700000D02*
X125265000Y-86985000D01*
X125265000Y-86985000D02*
X126735000Y-86985000D01*
X126735000Y-86985000D02*
X126735000Y-84700000D01*
G04 #@! TO.C,D3*
X158735000Y-85985000D02*
X158735000Y-83700000D01*
X157265000Y-85985000D02*
X158735000Y-85985000D01*
X157265000Y-83700000D02*
X157265000Y-85985000D01*
G04 #@! TO.C,D4*
X157300000Y-96265000D02*
X155015000Y-96265000D01*
X155015000Y-96265000D02*
X155015000Y-97735000D01*
X155015000Y-97735000D02*
X157300000Y-97735000D01*
G04 #@! TO.C,D5*
X125265000Y-97015000D02*
X125265000Y-99300000D01*
X126735000Y-97015000D02*
X125265000Y-97015000D01*
X126735000Y-99300000D02*
X126735000Y-97015000D01*
G04 #@! TO.C,D6*
X126735000Y-102800000D02*
X126735000Y-100515000D01*
X126735000Y-100515000D02*
X125265000Y-100515000D01*
X125265000Y-100515000D02*
X125265000Y-102800000D01*
G04 #@! TO.C,D7*
X125265000Y-93515000D02*
X125265000Y-95800000D01*
X126735000Y-93515000D02*
X125265000Y-93515000D01*
X126735000Y-95800000D02*
X126735000Y-93515000D01*
G04 #@! TO.C,J1*
X135870000Y-114330000D02*
X135870000Y-111670000D01*
X133270000Y-114330000D02*
X135870000Y-114330000D01*
X133270000Y-111670000D02*
X135870000Y-111670000D01*
X133270000Y-114330000D02*
X133270000Y-111670000D01*
X132000000Y-114330000D02*
X130670000Y-114330000D01*
X130670000Y-114330000D02*
X130670000Y-113000000D01*
G04 #@! TO.C,J2*
X147670000Y-114410000D02*
X152870000Y-114410000D01*
X147670000Y-109270000D02*
X147670000Y-114410000D01*
X152870000Y-106670000D02*
X152870000Y-114410000D01*
X147670000Y-109270000D02*
X150270000Y-109270000D01*
X150270000Y-109270000D02*
X150270000Y-106670000D01*
X150270000Y-106670000D02*
X152870000Y-106670000D01*
X147670000Y-108000000D02*
X147670000Y-106670000D01*
X147670000Y-106670000D02*
X149000000Y-106670000D01*
G04 #@! TO.C,J3*
X158670000Y-106950000D02*
X161330000Y-106950000D01*
X158670000Y-99270000D02*
X158670000Y-106950000D01*
X161330000Y-99270000D02*
X161330000Y-106950000D01*
X158670000Y-99270000D02*
X161330000Y-99270000D01*
X158670000Y-98000000D02*
X158670000Y-96670000D01*
X158670000Y-96670000D02*
X160000000Y-96670000D01*
G04 #@! TO.C,J4*
X140140000Y-108140000D02*
X139860000Y-108140000D01*
X139860000Y-108140000D02*
X139860000Y-106540000D01*
X139860000Y-106540000D02*
X138940000Y-106540000D01*
X138940000Y-106540000D02*
X138940000Y-114360000D01*
X138940000Y-114360000D02*
X145060000Y-114360000D01*
X145060000Y-114360000D02*
X145060000Y-106540000D01*
X145060000Y-106540000D02*
X144140000Y-106540000D01*
X144140000Y-106540000D02*
X144140000Y-108140000D01*
X144140000Y-108140000D02*
X143860000Y-108140000D01*
X141500000Y-114360000D02*
X141500000Y-110000000D01*
X141500000Y-110000000D02*
X142500000Y-110000000D01*
X142500000Y-110000000D02*
X142500000Y-114360000D01*
X138940000Y-108140000D02*
X139860000Y-108140000D01*
X145060000Y-108140000D02*
X144140000Y-108140000D01*
X139700000Y-110500000D02*
X139700000Y-112100000D01*
X139700000Y-112100000D02*
X140700000Y-112100000D01*
X140700000Y-112100000D02*
X140700000Y-110500000D01*
X140700000Y-110500000D02*
X139700000Y-110500000D01*
X144300000Y-110500000D02*
X144300000Y-112100000D01*
X144300000Y-112100000D02*
X143300000Y-112100000D01*
X143300000Y-112100000D02*
X143300000Y-110500000D01*
X143300000Y-110500000D02*
X144300000Y-110500000D01*
X140700000Y-112100000D02*
X140700000Y-114360000D01*
X140200000Y-112100000D02*
X140200000Y-114360000D01*
X140140000Y-108140000D02*
X140140000Y-106925000D01*
G04 #@! TO.C,J5*
X158670000Y-95410000D02*
X161330000Y-95410000D01*
X158670000Y-90270000D02*
X158670000Y-95410000D01*
X161330000Y-90270000D02*
X161330000Y-95410000D01*
X158670000Y-90270000D02*
X161330000Y-90270000D01*
X158670000Y-89000000D02*
X158670000Y-87670000D01*
X158670000Y-87670000D02*
X160000000Y-87670000D01*
G04 #@! TO.C,Q1*
X144240000Y-76920000D02*
X145700000Y-76920000D01*
X144240000Y-80080000D02*
X146400000Y-80080000D01*
X144240000Y-80080000D02*
X144240000Y-79150000D01*
X144240000Y-76920000D02*
X144240000Y-77850000D01*
G04 #@! TO.C,Q2*
X157760000Y-89580000D02*
X157760000Y-88650000D01*
X157760000Y-86420000D02*
X157760000Y-87350000D01*
X157760000Y-86420000D02*
X155600000Y-86420000D01*
X157760000Y-89580000D02*
X156300000Y-89580000D01*
G04 #@! TO.C,Q3*
X133760000Y-100580000D02*
X133760000Y-99650000D01*
X133760000Y-97420000D02*
X133760000Y-98350000D01*
X133760000Y-97420000D02*
X131600000Y-97420000D01*
X133760000Y-100580000D02*
X132300000Y-100580000D01*
G04 #@! TO.C,R1*
X128510000Y-98662779D02*
X128510000Y-98337221D01*
X127490000Y-98662779D02*
X127490000Y-98337221D01*
G04 #@! TO.C,R2*
X130510000Y-98337221D02*
X130510000Y-98662779D01*
X129490000Y-98337221D02*
X129490000Y-98662779D01*
G04 #@! TO.C,R3*
X131510000Y-109162779D02*
X131510000Y-108837221D01*
X130490000Y-109162779D02*
X130490000Y-108837221D01*
G04 #@! TO.C,R4*
X127490000Y-102162779D02*
X127490000Y-101837221D01*
X128510000Y-102162779D02*
X128510000Y-101837221D01*
G04 #@! TO.C,R5*
X129490000Y-101837221D02*
X129490000Y-102162779D01*
X130510000Y-101837221D02*
X130510000Y-102162779D01*
G04 #@! TO.C,R6*
X133837221Y-88490000D02*
X134162779Y-88490000D01*
X133837221Y-89510000D02*
X134162779Y-89510000D01*
G04 #@! TO.C,R7*
X139662779Y-79990000D02*
X139337221Y-79990000D01*
X139662779Y-81010000D02*
X139337221Y-81010000D01*
G04 #@! TO.C,R8*
X156337221Y-92490000D02*
X156662779Y-92490000D01*
X156337221Y-93510000D02*
X156662779Y-93510000D01*
G04 #@! TO.C,R9*
X124510000Y-85662779D02*
X124510000Y-85337221D01*
X123490000Y-85662779D02*
X123490000Y-85337221D01*
G04 #@! TO.C,R10*
X155490000Y-84662779D02*
X155490000Y-84337221D01*
X156510000Y-84662779D02*
X156510000Y-84337221D01*
G04 #@! TO.C,R11*
X156337221Y-95510000D02*
X156662779Y-95510000D01*
X156337221Y-94490000D02*
X156662779Y-94490000D01*
G04 #@! TO.C,R12*
X124510000Y-98302045D02*
X124510000Y-98627603D01*
X123490000Y-98302045D02*
X123490000Y-98627603D01*
G04 #@! TO.C,R13*
X124510000Y-101837221D02*
X124510000Y-102162779D01*
X123490000Y-101837221D02*
X123490000Y-102162779D01*
G04 #@! TO.C,R14*
X123490000Y-94837221D02*
X123490000Y-95162779D01*
X124510000Y-94837221D02*
X124510000Y-95162779D01*
G04 #@! TO.C,U1*
X143910000Y-105410000D02*
X143910000Y-104150000D01*
X143910000Y-98590000D02*
X143910000Y-99850000D01*
X140150000Y-105410000D02*
X143910000Y-105410000D01*
X137900000Y-98590000D02*
X143910000Y-98590000D01*
G04 #@! TO.C,U2*
X134900000Y-107390000D02*
X133100000Y-107390000D01*
X133100000Y-110610000D02*
X135550000Y-110610000D01*
D13*
G04 #@! TO.C,U3*
X129500000Y-97000000D02*
X129500000Y-75500000D01*
X129500000Y-75500000D02*
X137500000Y-69000000D01*
X137500000Y-69000000D02*
X146500000Y-69000000D01*
X146500000Y-69000000D02*
X154500000Y-75500000D01*
X154500000Y-75500000D02*
X154500000Y-97000000D01*
X154500000Y-97000000D02*
X129500000Y-97000000D01*
G04 #@! TO.C,U4*
X138375000Y-83375000D02*
X138375000Y-83600000D01*
X145625000Y-83375000D02*
X145625000Y-83675000D01*
X145625000Y-90625000D02*
X145625000Y-90325000D01*
X138375000Y-90625000D02*
X138375000Y-90325000D01*
X138375000Y-83375000D02*
X138675000Y-83375000D01*
X138375000Y-90625000D02*
X138675000Y-90625000D01*
X145625000Y-90625000D02*
X145325000Y-90625000D01*
X145625000Y-83375000D02*
X145325000Y-83375000D01*
X138375000Y-83600000D02*
X137150000Y-83600000D01*
D12*
G04 #@! TO.C,U5*
X159150000Y-84260000D02*
X159150000Y-84470000D01*
X160910000Y-84260000D02*
X160910000Y-84470000D01*
X159150000Y-82835000D02*
X160000000Y-82835000D01*
X160000000Y-87165000D02*
X159150000Y-87165000D01*
X159150000Y-82835000D02*
X159150000Y-83200000D01*
G04 #@! TO.C,Y1*
X134625000Y-83325000D02*
X134625000Y-84675000D01*
X136375000Y-83325000D02*
X136375000Y-84675000D01*
G04 #@! TO.C,C12*
X148790000Y-78758578D02*
X148790000Y-78241422D01*
X150210000Y-78758578D02*
X150210000Y-78241422D01*
G04 #@! TO.C,JP1*
X128370000Y-91830000D02*
X128370000Y-89170000D01*
X125770000Y-91830000D02*
X128370000Y-91830000D01*
X125770000Y-89170000D02*
X128370000Y-89170000D01*
X125770000Y-91830000D02*
X125770000Y-89170000D01*
X124500000Y-91830000D02*
X123170000Y-91830000D01*
X123170000Y-91830000D02*
X123170000Y-90500000D01*
G04 #@! TO.C,C1*
D13*
X131833333Y-104857142D02*
X131785714Y-104904761D01*
X131642857Y-104952380D01*
X131547619Y-104952380D01*
X131404761Y-104904761D01*
X131309523Y-104809523D01*
X131261904Y-104714285D01*
X131214285Y-104523809D01*
X131214285Y-104380952D01*
X131261904Y-104190476D01*
X131309523Y-104095238D01*
X131404761Y-104000000D01*
X131547619Y-103952380D01*
X131642857Y-103952380D01*
X131785714Y-104000000D01*
X131833333Y-104047619D01*
X132785714Y-104952380D02*
X132214285Y-104952380D01*
X132500000Y-104952380D02*
X132500000Y-103952380D01*
X132404761Y-104095238D01*
X132309523Y-104190476D01*
X132214285Y-104238095D01*
G04 #@! TO.C,C2*
X137333333Y-111857142D02*
X137285714Y-111904761D01*
X137142857Y-111952380D01*
X137047619Y-111952380D01*
X136904761Y-111904761D01*
X136809523Y-111809523D01*
X136761904Y-111714285D01*
X136714285Y-111523809D01*
X136714285Y-111380952D01*
X136761904Y-111190476D01*
X136809523Y-111095238D01*
X136904761Y-111000000D01*
X137047619Y-110952380D01*
X137142857Y-110952380D01*
X137285714Y-111000000D01*
X137333333Y-111047619D01*
X137714285Y-111047619D02*
X137761904Y-111000000D01*
X137857142Y-110952380D01*
X138095238Y-110952380D01*
X138190476Y-111000000D01*
X138238095Y-111047619D01*
X138285714Y-111142857D01*
X138285714Y-111238095D01*
X138238095Y-111380952D01*
X137666666Y-111952380D01*
X138285714Y-111952380D01*
G04 #@! TO.C,C3*
X135833333Y-104857142D02*
X135785714Y-104904761D01*
X135642857Y-104952380D01*
X135547619Y-104952380D01*
X135404761Y-104904761D01*
X135309523Y-104809523D01*
X135261904Y-104714285D01*
X135214285Y-104523809D01*
X135214285Y-104380952D01*
X135261904Y-104190476D01*
X135309523Y-104095238D01*
X135404761Y-104000000D01*
X135547619Y-103952380D01*
X135642857Y-103952380D01*
X135785714Y-104000000D01*
X135833333Y-104047619D01*
X136166666Y-103952380D02*
X136785714Y-103952380D01*
X136452380Y-104333333D01*
X136595238Y-104333333D01*
X136690476Y-104380952D01*
X136738095Y-104428571D01*
X136785714Y-104523809D01*
X136785714Y-104761904D01*
X136738095Y-104857142D01*
X136690476Y-104904761D01*
X136595238Y-104952380D01*
X136309523Y-104952380D01*
X136214285Y-104904761D01*
X136166666Y-104857142D01*
G04 #@! TO.C,C4*
X136357142Y-98166666D02*
X136404761Y-98214285D01*
X136452380Y-98357142D01*
X136452380Y-98452380D01*
X136404761Y-98595238D01*
X136309523Y-98690476D01*
X136214285Y-98738095D01*
X136023809Y-98785714D01*
X135880952Y-98785714D01*
X135690476Y-98738095D01*
X135595238Y-98690476D01*
X135500000Y-98595238D01*
X135452380Y-98452380D01*
X135452380Y-98357142D01*
X135500000Y-98214285D01*
X135547619Y-98166666D01*
X135785714Y-97309523D02*
X136452380Y-97309523D01*
X135404761Y-97547619D02*
X136119047Y-97785714D01*
X136119047Y-97166666D01*
G04 #@! TO.C,C5*
X143833333Y-94357142D02*
X143785714Y-94404761D01*
X143642857Y-94452380D01*
X143547619Y-94452380D01*
X143404761Y-94404761D01*
X143309523Y-94309523D01*
X143261904Y-94214285D01*
X143214285Y-94023809D01*
X143214285Y-93880952D01*
X143261904Y-93690476D01*
X143309523Y-93595238D01*
X143404761Y-93500000D01*
X143547619Y-93452380D01*
X143642857Y-93452380D01*
X143785714Y-93500000D01*
X143833333Y-93547619D01*
X144738095Y-93452380D02*
X144261904Y-93452380D01*
X144214285Y-93928571D01*
X144261904Y-93880952D01*
X144357142Y-93833333D01*
X144595238Y-93833333D01*
X144690476Y-93880952D01*
X144738095Y-93928571D01*
X144785714Y-94023809D01*
X144785714Y-94261904D01*
X144738095Y-94357142D01*
X144690476Y-94404761D01*
X144595238Y-94452380D01*
X144357142Y-94452380D01*
X144261904Y-94404761D01*
X144214285Y-94357142D01*
G04 #@! TO.C,C6*
X137333333Y-79357142D02*
X137285714Y-79404761D01*
X137142857Y-79452380D01*
X137047619Y-79452380D01*
X136904761Y-79404761D01*
X136809523Y-79309523D01*
X136761904Y-79214285D01*
X136714285Y-79023809D01*
X136714285Y-78880952D01*
X136761904Y-78690476D01*
X136809523Y-78595238D01*
X136904761Y-78500000D01*
X137047619Y-78452380D01*
X137142857Y-78452380D01*
X137285714Y-78500000D01*
X137333333Y-78547619D01*
X138190476Y-78452380D02*
X138000000Y-78452380D01*
X137904761Y-78500000D01*
X137857142Y-78547619D01*
X137761904Y-78690476D01*
X137714285Y-78880952D01*
X137714285Y-79261904D01*
X137761904Y-79357142D01*
X137809523Y-79404761D01*
X137904761Y-79452380D01*
X138095238Y-79452380D01*
X138190476Y-79404761D01*
X138238095Y-79357142D01*
X138285714Y-79261904D01*
X138285714Y-79023809D01*
X138238095Y-78928571D01*
X138190476Y-78880952D01*
X138095238Y-78833333D01*
X137904761Y-78833333D01*
X137809523Y-78880952D01*
X137761904Y-78928571D01*
X137714285Y-79023809D01*
G04 #@! TO.C,C7*
X137333333Y-77857142D02*
X137285714Y-77904761D01*
X137142857Y-77952380D01*
X137047619Y-77952380D01*
X136904761Y-77904761D01*
X136809523Y-77809523D01*
X136761904Y-77714285D01*
X136714285Y-77523809D01*
X136714285Y-77380952D01*
X136761904Y-77190476D01*
X136809523Y-77095238D01*
X136904761Y-77000000D01*
X137047619Y-76952380D01*
X137142857Y-76952380D01*
X137285714Y-77000000D01*
X137333333Y-77047619D01*
X137666666Y-76952380D02*
X138333333Y-76952380D01*
X137904761Y-77952380D01*
G04 #@! TO.C,C8*
X143833333Y-96357142D02*
X143785714Y-96404761D01*
X143642857Y-96452380D01*
X143547619Y-96452380D01*
X143404761Y-96404761D01*
X143309523Y-96309523D01*
X143261904Y-96214285D01*
X143214285Y-96023809D01*
X143214285Y-95880952D01*
X143261904Y-95690476D01*
X143309523Y-95595238D01*
X143404761Y-95500000D01*
X143547619Y-95452380D01*
X143642857Y-95452380D01*
X143785714Y-95500000D01*
X143833333Y-95547619D01*
X144404761Y-95880952D02*
X144309523Y-95833333D01*
X144261904Y-95785714D01*
X144214285Y-95690476D01*
X144214285Y-95642857D01*
X144261904Y-95547619D01*
X144309523Y-95500000D01*
X144404761Y-95452380D01*
X144595238Y-95452380D01*
X144690476Y-95500000D01*
X144738095Y-95547619D01*
X144785714Y-95642857D01*
X144785714Y-95690476D01*
X144738095Y-95785714D01*
X144690476Y-95833333D01*
X144595238Y-95880952D01*
X144404761Y-95880952D01*
X144309523Y-95928571D01*
X144261904Y-95976190D01*
X144214285Y-96071428D01*
X144214285Y-96261904D01*
X144261904Y-96357142D01*
X144309523Y-96404761D01*
X144404761Y-96452380D01*
X144595238Y-96452380D01*
X144690476Y-96404761D01*
X144738095Y-96357142D01*
X144785714Y-96261904D01*
X144785714Y-96071428D01*
X144738095Y-95976190D01*
X144690476Y-95928571D01*
X144595238Y-95880952D01*
G04 #@! TO.C,C9*
X136357142Y-87666666D02*
X136404761Y-87714285D01*
X136452380Y-87857142D01*
X136452380Y-87952380D01*
X136404761Y-88095238D01*
X136309523Y-88190476D01*
X136214285Y-88238095D01*
X136023809Y-88285714D01*
X135880952Y-88285714D01*
X135690476Y-88238095D01*
X135595238Y-88190476D01*
X135500000Y-88095238D01*
X135452380Y-87952380D01*
X135452380Y-87857142D01*
X135500000Y-87714285D01*
X135547619Y-87666666D01*
X136452380Y-87190476D02*
X136452380Y-87000000D01*
X136404761Y-86904761D01*
X136357142Y-86857142D01*
X136214285Y-86761904D01*
X136023809Y-86714285D01*
X135642857Y-86714285D01*
X135547619Y-86761904D01*
X135500000Y-86809523D01*
X135452380Y-86904761D01*
X135452380Y-87095238D01*
X135500000Y-87190476D01*
X135547619Y-87238095D01*
X135642857Y-87285714D01*
X135880952Y-87285714D01*
X135976190Y-87238095D01*
X136023809Y-87190476D01*
X136071428Y-87095238D01*
X136071428Y-86904761D01*
X136023809Y-86809523D01*
X135976190Y-86761904D01*
X135880952Y-86714285D01*
G04 #@! TO.C,C10*
X132857142Y-81857142D02*
X132809523Y-81904761D01*
X132666666Y-81952380D01*
X132571428Y-81952380D01*
X132428571Y-81904761D01*
X132333333Y-81809523D01*
X132285714Y-81714285D01*
X132238095Y-81523809D01*
X132238095Y-81380952D01*
X132285714Y-81190476D01*
X132333333Y-81095238D01*
X132428571Y-81000000D01*
X132571428Y-80952380D01*
X132666666Y-80952380D01*
X132809523Y-81000000D01*
X132857142Y-81047619D01*
X133809523Y-81952380D02*
X133238095Y-81952380D01*
X133523809Y-81952380D02*
X133523809Y-80952380D01*
X133428571Y-81095238D01*
X133333333Y-81190476D01*
X133238095Y-81238095D01*
X134428571Y-80952380D02*
X134523809Y-80952380D01*
X134619047Y-81000000D01*
X134666666Y-81047619D01*
X134714285Y-81142857D01*
X134761904Y-81333333D01*
X134761904Y-81571428D01*
X134714285Y-81761904D01*
X134666666Y-81857142D01*
X134619047Y-81904761D01*
X134523809Y-81952380D01*
X134428571Y-81952380D01*
X134333333Y-81904761D01*
X134285714Y-81857142D01*
X134238095Y-81761904D01*
X134190476Y-81571428D01*
X134190476Y-81333333D01*
X134238095Y-81142857D01*
X134285714Y-81047619D01*
X134333333Y-81000000D01*
X134428571Y-80952380D01*
G04 #@! TO.C,C11*
X132857142Y-86857142D02*
X132809523Y-86904761D01*
X132666666Y-86952380D01*
X132571428Y-86952380D01*
X132428571Y-86904761D01*
X132333333Y-86809523D01*
X132285714Y-86714285D01*
X132238095Y-86523809D01*
X132238095Y-86380952D01*
X132285714Y-86190476D01*
X132333333Y-86095238D01*
X132428571Y-86000000D01*
X132571428Y-85952380D01*
X132666666Y-85952380D01*
X132809523Y-86000000D01*
X132857142Y-86047619D01*
X133809523Y-86952380D02*
X133238095Y-86952380D01*
X133523809Y-86952380D02*
X133523809Y-85952380D01*
X133428571Y-86095238D01*
X133333333Y-86190476D01*
X133238095Y-86238095D01*
X134761904Y-86952380D02*
X134190476Y-86952380D01*
X134476190Y-86952380D02*
X134476190Y-85952380D01*
X134380952Y-86095238D01*
X134285714Y-86190476D01*
X134190476Y-86238095D01*
G04 #@! TO.C,D2*
X126452380Y-83738095D02*
X125452380Y-83738095D01*
X125452380Y-83500000D01*
X125500000Y-83357142D01*
X125595238Y-83261904D01*
X125690476Y-83214285D01*
X125880952Y-83166666D01*
X126023809Y-83166666D01*
X126214285Y-83214285D01*
X126309523Y-83261904D01*
X126404761Y-83357142D01*
X126452380Y-83500000D01*
X126452380Y-83738095D01*
X125547619Y-82785714D02*
X125500000Y-82738095D01*
X125452380Y-82642857D01*
X125452380Y-82404761D01*
X125500000Y-82309523D01*
X125547619Y-82261904D01*
X125642857Y-82214285D01*
X125738095Y-82214285D01*
X125880952Y-82261904D01*
X126452380Y-82833333D01*
X126452380Y-82214285D01*
G04 #@! TO.C,J1*
X129166666Y-110952380D02*
X129166666Y-111666666D01*
X129119047Y-111809523D01*
X129023809Y-111904761D01*
X128880952Y-111952380D01*
X128785714Y-111952380D01*
X130166666Y-111952380D02*
X129595238Y-111952380D01*
X129880952Y-111952380D02*
X129880952Y-110952380D01*
X129785714Y-111095238D01*
X129690476Y-111190476D01*
X129595238Y-111238095D01*
G04 #@! TO.C,J2*
X146166666Y-112952380D02*
X146166666Y-113666666D01*
X146119047Y-113809523D01*
X146023809Y-113904761D01*
X145880952Y-113952380D01*
X145785714Y-113952380D01*
X146595238Y-113047619D02*
X146642857Y-113000000D01*
X146738095Y-112952380D01*
X146976190Y-112952380D01*
X147071428Y-113000000D01*
X147119047Y-113047619D01*
X147166666Y-113142857D01*
X147166666Y-113238095D01*
X147119047Y-113380952D01*
X146547619Y-113952380D01*
X147166666Y-113952380D01*
G04 #@! TO.C,J3*
X160666666Y-107452380D02*
X160666666Y-108166666D01*
X160619047Y-108309523D01*
X160523809Y-108404761D01*
X160380952Y-108452380D01*
X160285714Y-108452380D01*
X161047619Y-107452380D02*
X161666666Y-107452380D01*
X161333333Y-107833333D01*
X161476190Y-107833333D01*
X161571428Y-107880952D01*
X161619047Y-107928571D01*
X161666666Y-108023809D01*
X161666666Y-108261904D01*
X161619047Y-108357142D01*
X161571428Y-108404761D01*
X161476190Y-108452380D01*
X161190476Y-108452380D01*
X161095238Y-108404761D01*
X161047619Y-108357142D01*
G04 #@! TO.C,J4*
X137166666Y-112952380D02*
X137166666Y-113666666D01*
X137119047Y-113809523D01*
X137023809Y-113904761D01*
X136880952Y-113952380D01*
X136785714Y-113952380D01*
X138071428Y-113285714D02*
X138071428Y-113952380D01*
X137833333Y-112904761D02*
X137595238Y-113619047D01*
X138214285Y-113619047D01*
G04 #@! TO.C,Q1*
X144904761Y-81547619D02*
X144809523Y-81500000D01*
X144714285Y-81404761D01*
X144571428Y-81261904D01*
X144476190Y-81214285D01*
X144380952Y-81214285D01*
X144428571Y-81452380D02*
X144333333Y-81404761D01*
X144238095Y-81309523D01*
X144190476Y-81119047D01*
X144190476Y-80785714D01*
X144238095Y-80595238D01*
X144333333Y-80500000D01*
X144428571Y-80452380D01*
X144619047Y-80452380D01*
X144714285Y-80500000D01*
X144809523Y-80595238D01*
X144857142Y-80785714D01*
X144857142Y-81119047D01*
X144809523Y-81309523D01*
X144714285Y-81404761D01*
X144619047Y-81452380D01*
X144428571Y-81452380D01*
X145809523Y-81452380D02*
X145238095Y-81452380D01*
X145523809Y-81452380D02*
X145523809Y-80452380D01*
X145428571Y-80595238D01*
X145333333Y-80690476D01*
X145238095Y-80738095D01*
G04 #@! TO.C,Q2*
X155047619Y-88095238D02*
X155000000Y-88190476D01*
X154904761Y-88285714D01*
X154761904Y-88428571D01*
X154714285Y-88523809D01*
X154714285Y-88619047D01*
X154952380Y-88571428D02*
X154904761Y-88666666D01*
X154809523Y-88761904D01*
X154619047Y-88809523D01*
X154285714Y-88809523D01*
X154095238Y-88761904D01*
X154000000Y-88666666D01*
X153952380Y-88571428D01*
X153952380Y-88380952D01*
X154000000Y-88285714D01*
X154095238Y-88190476D01*
X154285714Y-88142857D01*
X154619047Y-88142857D01*
X154809523Y-88190476D01*
X154904761Y-88285714D01*
X154952380Y-88380952D01*
X154952380Y-88571428D01*
X154047619Y-87761904D02*
X154000000Y-87714285D01*
X153952380Y-87619047D01*
X153952380Y-87380952D01*
X154000000Y-87285714D01*
X154047619Y-87238095D01*
X154142857Y-87190476D01*
X154238095Y-87190476D01*
X154380952Y-87238095D01*
X154952380Y-87809523D01*
X154952380Y-87190476D01*
G04 #@! TO.C,Q3*
X132904761Y-102047619D02*
X132809523Y-102000000D01*
X132714285Y-101904761D01*
X132571428Y-101761904D01*
X132476190Y-101714285D01*
X132380952Y-101714285D01*
X132428571Y-101952380D02*
X132333333Y-101904761D01*
X132238095Y-101809523D01*
X132190476Y-101619047D01*
X132190476Y-101285714D01*
X132238095Y-101095238D01*
X132333333Y-101000000D01*
X132428571Y-100952380D01*
X132619047Y-100952380D01*
X132714285Y-101000000D01*
X132809523Y-101095238D01*
X132857142Y-101285714D01*
X132857142Y-101619047D01*
X132809523Y-101809523D01*
X132714285Y-101904761D01*
X132619047Y-101952380D01*
X132428571Y-101952380D01*
X133190476Y-100952380D02*
X133809523Y-100952380D01*
X133476190Y-101333333D01*
X133619047Y-101333333D01*
X133714285Y-101380952D01*
X133761904Y-101428571D01*
X133809523Y-101523809D01*
X133809523Y-101761904D01*
X133761904Y-101857142D01*
X133714285Y-101904761D01*
X133619047Y-101952380D01*
X133333333Y-101952380D01*
X133238095Y-101904761D01*
X133190476Y-101857142D01*
G04 #@! TO.C,R3*
X130022380Y-109166666D02*
X129546190Y-109500000D01*
X130022380Y-109738095D02*
X129022380Y-109738095D01*
X129022380Y-109357142D01*
X129070000Y-109261904D01*
X129117619Y-109214285D01*
X129212857Y-109166666D01*
X129355714Y-109166666D01*
X129450952Y-109214285D01*
X129498571Y-109261904D01*
X129546190Y-109357142D01*
X129546190Y-109738095D01*
X129022380Y-108833333D02*
X129022380Y-108214285D01*
X129403333Y-108547619D01*
X129403333Y-108404761D01*
X129450952Y-108309523D01*
X129498571Y-108261904D01*
X129593809Y-108214285D01*
X129831904Y-108214285D01*
X129927142Y-108261904D01*
X129974761Y-108309523D01*
X130022380Y-108404761D01*
X130022380Y-108690476D01*
X129974761Y-108785714D01*
X129927142Y-108833333D01*
G04 #@! TO.C,R6*
X133333333Y-90952380D02*
X133000000Y-90476190D01*
X132761904Y-90952380D02*
X132761904Y-89952380D01*
X133142857Y-89952380D01*
X133238095Y-90000000D01*
X133285714Y-90047619D01*
X133333333Y-90142857D01*
X133333333Y-90285714D01*
X133285714Y-90380952D01*
X133238095Y-90428571D01*
X133142857Y-90476190D01*
X132761904Y-90476190D01*
X134190476Y-89952380D02*
X134000000Y-89952380D01*
X133904761Y-90000000D01*
X133857142Y-90047619D01*
X133761904Y-90190476D01*
X133714285Y-90380952D01*
X133714285Y-90761904D01*
X133761904Y-90857142D01*
X133809523Y-90904761D01*
X133904761Y-90952380D01*
X134095238Y-90952380D01*
X134190476Y-90904761D01*
X134238095Y-90857142D01*
X134285714Y-90761904D01*
X134285714Y-90523809D01*
X134238095Y-90428571D01*
X134190476Y-90380952D01*
X134095238Y-90333333D01*
X133904761Y-90333333D01*
X133809523Y-90380952D01*
X133761904Y-90428571D01*
X133714285Y-90523809D01*
G04 #@! TO.C,R7*
X139833333Y-79452380D02*
X139500000Y-78976190D01*
X139261904Y-79452380D02*
X139261904Y-78452380D01*
X139642857Y-78452380D01*
X139738095Y-78500000D01*
X139785714Y-78547619D01*
X139833333Y-78642857D01*
X139833333Y-78785714D01*
X139785714Y-78880952D01*
X139738095Y-78928571D01*
X139642857Y-78976190D01*
X139261904Y-78976190D01*
X140166666Y-78452380D02*
X140833333Y-78452380D01*
X140404761Y-79452380D01*
G04 #@! TO.C,R9*
X124452380Y-83166666D02*
X123976190Y-83500000D01*
X124452380Y-83738095D02*
X123452380Y-83738095D01*
X123452380Y-83357142D01*
X123500000Y-83261904D01*
X123547619Y-83214285D01*
X123642857Y-83166666D01*
X123785714Y-83166666D01*
X123880952Y-83214285D01*
X123928571Y-83261904D01*
X123976190Y-83357142D01*
X123976190Y-83738095D01*
X124452380Y-82690476D02*
X124452380Y-82500000D01*
X124404761Y-82404761D01*
X124357142Y-82357142D01*
X124214285Y-82261904D01*
X124023809Y-82214285D01*
X123642857Y-82214285D01*
X123547619Y-82261904D01*
X123500000Y-82309523D01*
X123452380Y-82404761D01*
X123452380Y-82595238D01*
X123500000Y-82690476D01*
X123547619Y-82738095D01*
X123642857Y-82785714D01*
X123880952Y-82785714D01*
X123976190Y-82738095D01*
X124023809Y-82690476D01*
X124071428Y-82595238D01*
X124071428Y-82404761D01*
X124023809Y-82309523D01*
X123976190Y-82261904D01*
X123880952Y-82214285D01*
G04 #@! TO.C,U1*
X141452380Y-102761904D02*
X142261904Y-102761904D01*
X142357142Y-102714285D01*
X142404761Y-102666666D01*
X142452380Y-102571428D01*
X142452380Y-102380952D01*
X142404761Y-102285714D01*
X142357142Y-102238095D01*
X142261904Y-102190476D01*
X141452380Y-102190476D01*
X142452380Y-101190476D02*
X142452380Y-101761904D01*
X142452380Y-101476190D02*
X141452380Y-101476190D01*
X141595238Y-101571428D01*
X141690476Y-101666666D01*
X141738095Y-101761904D01*
G04 #@! TO.C,U2*
D14*
X133589285Y-109571428D02*
X134196428Y-109571428D01*
X134267857Y-109535714D01*
X134303571Y-109500000D01*
X134339285Y-109428571D01*
X134339285Y-109285714D01*
X134303571Y-109214285D01*
X134267857Y-109178571D01*
X134196428Y-109142857D01*
X133589285Y-109142857D01*
X133660714Y-108821428D02*
X133625000Y-108785714D01*
X133589285Y-108714285D01*
X133589285Y-108535714D01*
X133625000Y-108464285D01*
X133660714Y-108428571D01*
X133732142Y-108392857D01*
X133803571Y-108392857D01*
X133910714Y-108428571D01*
X134339285Y-108857142D01*
X134339285Y-108392857D01*
G04 #@! TO.C,U3*
D13*
X141238095Y-73452380D02*
X141238095Y-74261904D01*
X141285714Y-74357142D01*
X141333333Y-74404761D01*
X141428571Y-74452380D01*
X141619047Y-74452380D01*
X141714285Y-74404761D01*
X141761904Y-74357142D01*
X141809523Y-74261904D01*
X141809523Y-73452380D01*
X142190476Y-73452380D02*
X142809523Y-73452380D01*
X142476190Y-73833333D01*
X142619047Y-73833333D01*
X142714285Y-73880952D01*
X142761904Y-73928571D01*
X142809523Y-74023809D01*
X142809523Y-74261904D01*
X142761904Y-74357142D01*
X142714285Y-74404761D01*
X142619047Y-74452380D01*
X142333333Y-74452380D01*
X142238095Y-74404761D01*
X142190476Y-74357142D01*
G04 #@! TO.C,U4*
X139238095Y-86452380D02*
X139238095Y-87261904D01*
X139285714Y-87357142D01*
X139333333Y-87404761D01*
X139428571Y-87452380D01*
X139619047Y-87452380D01*
X139714285Y-87404761D01*
X139761904Y-87357142D01*
X139809523Y-87261904D01*
X139809523Y-86452380D01*
X140714285Y-86785714D02*
X140714285Y-87452380D01*
X140476190Y-86404761D02*
X140238095Y-87119047D01*
X140857142Y-87119047D01*
G04 #@! TO.C,U5*
X159952380Y-82261904D02*
X160761904Y-82261904D01*
X160857142Y-82214285D01*
X160904761Y-82166666D01*
X160952380Y-82071428D01*
X160952380Y-81880952D01*
X160904761Y-81785714D01*
X160857142Y-81738095D01*
X160761904Y-81690476D01*
X159952380Y-81690476D01*
X159952380Y-80738095D02*
X159952380Y-81214285D01*
X160428571Y-81261904D01*
X160380952Y-81214285D01*
X160333333Y-81119047D01*
X160333333Y-80880952D01*
X160380952Y-80785714D01*
X160428571Y-80738095D01*
X160523809Y-80690476D01*
X160761904Y-80690476D01*
X160857142Y-80738095D01*
X160904761Y-80785714D01*
X160952380Y-80880952D01*
X160952380Y-81119047D01*
X160904761Y-81214285D01*
X160857142Y-81261904D01*
G04 #@! TO.C,Y1*
X135023809Y-83976190D02*
X135023809Y-84452380D01*
X134690476Y-83452380D02*
X135023809Y-83976190D01*
X135357142Y-83452380D01*
X136214285Y-84452380D02*
X135642857Y-84452380D01*
X135928571Y-84452380D02*
X135928571Y-83452380D01*
X135833333Y-83595238D01*
X135738095Y-83690476D01*
X135642857Y-83738095D01*
G04 #@! TO.C,C12*
X151857142Y-79142857D02*
X151904761Y-79190476D01*
X151952380Y-79333333D01*
X151952380Y-79428571D01*
X151904761Y-79571428D01*
X151809523Y-79666666D01*
X151714285Y-79714285D01*
X151523809Y-79761904D01*
X151380952Y-79761904D01*
X151190476Y-79714285D01*
X151095238Y-79666666D01*
X151000000Y-79571428D01*
X150952380Y-79428571D01*
X150952380Y-79333333D01*
X151000000Y-79190476D01*
X151047619Y-79142857D01*
X151952380Y-78190476D02*
X151952380Y-78761904D01*
X151952380Y-78476190D02*
X150952380Y-78476190D01*
X151095238Y-78571428D01*
X151190476Y-78666666D01*
X151238095Y-78761904D01*
X151047619Y-77809523D02*
X151000000Y-77761904D01*
X150952380Y-77666666D01*
X150952380Y-77428571D01*
X151000000Y-77333333D01*
X151047619Y-77285714D01*
X151142857Y-77238095D01*
X151238095Y-77238095D01*
X151380952Y-77285714D01*
X151952380Y-77857142D01*
X151952380Y-77238095D01*
G04 #@! TO.C,JP1*
X127166666Y-87452380D02*
X127166666Y-88166666D01*
X127119047Y-88309523D01*
X127023809Y-88404761D01*
X126880952Y-88452380D01*
X126785714Y-88452380D01*
X127642857Y-88452380D02*
X127642857Y-87452380D01*
X128023809Y-87452380D01*
X128119047Y-87500000D01*
X128166666Y-87547619D01*
X128214285Y-87642857D01*
X128214285Y-87785714D01*
X128166666Y-87880952D01*
X128119047Y-87928571D01*
X128023809Y-87976190D01*
X127642857Y-87976190D01*
X129166666Y-88452380D02*
X128595238Y-88452380D01*
X128880952Y-88452380D02*
X128880952Y-87452380D01*
X128785714Y-87595238D01*
X128690476Y-87690476D01*
X128595238Y-87738095D01*
G04 #@! TD*
M02*
