G04 #@! TF.GenerationSoftware,KiCad,Pcbnew,(5.0.1-3-g963ef8bb5)*
G04 #@! TF.CreationDate,2018-11-27T14:45:56+00:00*
G04 #@! TF.ProjectId,xbee-sensor,786265652D73656E736F722E6B696361,rev?*
G04 #@! TF.SameCoordinates,Original*
G04 #@! TF.FileFunction,Copper,L1,Top,Signal*
G04 #@! TF.FilePolarity,Positive*
%FSLAX46Y46*%
G04 Gerber Fmt 4.6, Leading zero omitted, Abs format (unit mm)*
G04 Created by KiCad (PCBNEW (5.0.1-3-g963ef8bb5)) date Tuesday, 27 November 2018 at 14:45:56*
%MOMM*%
%LPD*%
G01*
G04 APERTURE LIST*
G04 #@! TA.AperFunction,Conductor*
%ADD10C,0.100000*%
G04 #@! TD*
G04 #@! TA.AperFunction,SMDPad,CuDef*
%ADD11C,0.975000*%
G04 #@! TD*
G04 #@! TA.AperFunction,SMDPad,CuDef*
%ADD12C,0.875000*%
G04 #@! TD*
G04 #@! TA.AperFunction,ComponentPad*
%ADD13R,1.700000X1.700000*%
G04 #@! TD*
G04 #@! TA.AperFunction,ComponentPad*
%ADD14O,1.700000X1.700000*%
G04 #@! TD*
G04 #@! TA.AperFunction,ComponentPad*
%ADD15C,1.200000*%
G04 #@! TD*
G04 #@! TA.AperFunction,ComponentPad*
%ADD16O,1.200000X1.750000*%
G04 #@! TD*
G04 #@! TA.AperFunction,SMDPad,CuDef*
%ADD17R,0.900000X0.800000*%
G04 #@! TD*
G04 #@! TA.AperFunction,SMDPad,CuDef*
%ADD18R,2.750000X1.000000*%
G04 #@! TD*
G04 #@! TA.AperFunction,SMDPad,CuDef*
%ADD19R,3.800000X2.000000*%
G04 #@! TD*
G04 #@! TA.AperFunction,SMDPad,CuDef*
%ADD20R,1.500000X2.000000*%
G04 #@! TD*
G04 #@! TA.AperFunction,SMDPad,CuDef*
%ADD21R,1.060000X0.650000*%
G04 #@! TD*
G04 #@! TA.AperFunction,ComponentPad*
%ADD22C,1.524000*%
G04 #@! TD*
G04 #@! TA.AperFunction,SMDPad,CuDef*
%ADD23R,1.200000X0.600000*%
G04 #@! TD*
G04 #@! TA.AperFunction,SMDPad,CuDef*
%ADD24R,0.600000X1.200000*%
G04 #@! TD*
G04 #@! TA.AperFunction,SMDPad,CuDef*
%ADD25R,1.800000X1.000000*%
G04 #@! TD*
G04 #@! TA.AperFunction,ComponentPad*
%ADD26O,1.500000X1.050000*%
G04 #@! TD*
G04 #@! TA.AperFunction,ComponentPad*
%ADD27R,1.500000X1.050000*%
G04 #@! TD*
G04 #@! TA.AperFunction,SMDPad,CuDef*
%ADD28C,0.590000*%
G04 #@! TD*
G04 #@! TA.AperFunction,ViaPad*
%ADD29C,0.800000*%
G04 #@! TD*
G04 #@! TA.AperFunction,Conductor*
%ADD30C,0.250000*%
G04 #@! TD*
G04 #@! TA.AperFunction,Conductor*
%ADD31C,0.254000*%
G04 #@! TD*
G04 APERTURE END LIST*
D10*
G04 #@! TO.N,SOLAR*
G04 #@! TO.C,C1*
G36*
X117392642Y-138051174D02*
X117416303Y-138054684D01*
X117439507Y-138060496D01*
X117462029Y-138068554D01*
X117483653Y-138078782D01*
X117504170Y-138091079D01*
X117523383Y-138105329D01*
X117541107Y-138121393D01*
X117557171Y-138139117D01*
X117571421Y-138158330D01*
X117583718Y-138178847D01*
X117593946Y-138200471D01*
X117602004Y-138222993D01*
X117607816Y-138246197D01*
X117611326Y-138269858D01*
X117612500Y-138293750D01*
X117612500Y-139206250D01*
X117611326Y-139230142D01*
X117607816Y-139253803D01*
X117602004Y-139277007D01*
X117593946Y-139299529D01*
X117583718Y-139321153D01*
X117571421Y-139341670D01*
X117557171Y-139360883D01*
X117541107Y-139378607D01*
X117523383Y-139394671D01*
X117504170Y-139408921D01*
X117483653Y-139421218D01*
X117462029Y-139431446D01*
X117439507Y-139439504D01*
X117416303Y-139445316D01*
X117392642Y-139448826D01*
X117368750Y-139450000D01*
X116881250Y-139450000D01*
X116857358Y-139448826D01*
X116833697Y-139445316D01*
X116810493Y-139439504D01*
X116787971Y-139431446D01*
X116766347Y-139421218D01*
X116745830Y-139408921D01*
X116726617Y-139394671D01*
X116708893Y-139378607D01*
X116692829Y-139360883D01*
X116678579Y-139341670D01*
X116666282Y-139321153D01*
X116656054Y-139299529D01*
X116647996Y-139277007D01*
X116642184Y-139253803D01*
X116638674Y-139230142D01*
X116637500Y-139206250D01*
X116637500Y-138293750D01*
X116638674Y-138269858D01*
X116642184Y-138246197D01*
X116647996Y-138222993D01*
X116656054Y-138200471D01*
X116666282Y-138178847D01*
X116678579Y-138158330D01*
X116692829Y-138139117D01*
X116708893Y-138121393D01*
X116726617Y-138105329D01*
X116745830Y-138091079D01*
X116766347Y-138078782D01*
X116787971Y-138068554D01*
X116810493Y-138060496D01*
X116833697Y-138054684D01*
X116857358Y-138051174D01*
X116881250Y-138050000D01*
X117368750Y-138050000D01*
X117392642Y-138051174D01*
X117392642Y-138051174D01*
G37*
D11*
G04 #@! TD*
G04 #@! TO.P,C1,1*
G04 #@! TO.N,SOLAR*
X117125000Y-138750000D03*
D10*
G04 #@! TO.N,GND*
G04 #@! TO.C,C1*
G36*
X119267642Y-138051174D02*
X119291303Y-138054684D01*
X119314507Y-138060496D01*
X119337029Y-138068554D01*
X119358653Y-138078782D01*
X119379170Y-138091079D01*
X119398383Y-138105329D01*
X119416107Y-138121393D01*
X119432171Y-138139117D01*
X119446421Y-138158330D01*
X119458718Y-138178847D01*
X119468946Y-138200471D01*
X119477004Y-138222993D01*
X119482816Y-138246197D01*
X119486326Y-138269858D01*
X119487500Y-138293750D01*
X119487500Y-139206250D01*
X119486326Y-139230142D01*
X119482816Y-139253803D01*
X119477004Y-139277007D01*
X119468946Y-139299529D01*
X119458718Y-139321153D01*
X119446421Y-139341670D01*
X119432171Y-139360883D01*
X119416107Y-139378607D01*
X119398383Y-139394671D01*
X119379170Y-139408921D01*
X119358653Y-139421218D01*
X119337029Y-139431446D01*
X119314507Y-139439504D01*
X119291303Y-139445316D01*
X119267642Y-139448826D01*
X119243750Y-139450000D01*
X118756250Y-139450000D01*
X118732358Y-139448826D01*
X118708697Y-139445316D01*
X118685493Y-139439504D01*
X118662971Y-139431446D01*
X118641347Y-139421218D01*
X118620830Y-139408921D01*
X118601617Y-139394671D01*
X118583893Y-139378607D01*
X118567829Y-139360883D01*
X118553579Y-139341670D01*
X118541282Y-139321153D01*
X118531054Y-139299529D01*
X118522996Y-139277007D01*
X118517184Y-139253803D01*
X118513674Y-139230142D01*
X118512500Y-139206250D01*
X118512500Y-138293750D01*
X118513674Y-138269858D01*
X118517184Y-138246197D01*
X118522996Y-138222993D01*
X118531054Y-138200471D01*
X118541282Y-138178847D01*
X118553579Y-138158330D01*
X118567829Y-138139117D01*
X118583893Y-138121393D01*
X118601617Y-138105329D01*
X118620830Y-138091079D01*
X118641347Y-138078782D01*
X118662971Y-138068554D01*
X118685493Y-138060496D01*
X118708697Y-138054684D01*
X118732358Y-138051174D01*
X118756250Y-138050000D01*
X119243750Y-138050000D01*
X119267642Y-138051174D01*
X119267642Y-138051174D01*
G37*
D11*
G04 #@! TD*
G04 #@! TO.P,C1,2*
G04 #@! TO.N,GND*
X119000000Y-138750000D03*
D10*
G04 #@! TO.N,GND*
G04 #@! TO.C,C2*
G36*
X121980142Y-136763674D02*
X122003803Y-136767184D01*
X122027007Y-136772996D01*
X122049529Y-136781054D01*
X122071153Y-136791282D01*
X122091670Y-136803579D01*
X122110883Y-136817829D01*
X122128607Y-136833893D01*
X122144671Y-136851617D01*
X122158921Y-136870830D01*
X122171218Y-136891347D01*
X122181446Y-136912971D01*
X122189504Y-136935493D01*
X122195316Y-136958697D01*
X122198826Y-136982358D01*
X122200000Y-137006250D01*
X122200000Y-137493750D01*
X122198826Y-137517642D01*
X122195316Y-137541303D01*
X122189504Y-137564507D01*
X122181446Y-137587029D01*
X122171218Y-137608653D01*
X122158921Y-137629170D01*
X122144671Y-137648383D01*
X122128607Y-137666107D01*
X122110883Y-137682171D01*
X122091670Y-137696421D01*
X122071153Y-137708718D01*
X122049529Y-137718946D01*
X122027007Y-137727004D01*
X122003803Y-137732816D01*
X121980142Y-137736326D01*
X121956250Y-137737500D01*
X121043750Y-137737500D01*
X121019858Y-137736326D01*
X120996197Y-137732816D01*
X120972993Y-137727004D01*
X120950471Y-137718946D01*
X120928847Y-137708718D01*
X120908330Y-137696421D01*
X120889117Y-137682171D01*
X120871393Y-137666107D01*
X120855329Y-137648383D01*
X120841079Y-137629170D01*
X120828782Y-137608653D01*
X120818554Y-137587029D01*
X120810496Y-137564507D01*
X120804684Y-137541303D01*
X120801174Y-137517642D01*
X120800000Y-137493750D01*
X120800000Y-137006250D01*
X120801174Y-136982358D01*
X120804684Y-136958697D01*
X120810496Y-136935493D01*
X120818554Y-136912971D01*
X120828782Y-136891347D01*
X120841079Y-136870830D01*
X120855329Y-136851617D01*
X120871393Y-136833893D01*
X120889117Y-136817829D01*
X120908330Y-136803579D01*
X120928847Y-136791282D01*
X120950471Y-136781054D01*
X120972993Y-136772996D01*
X120996197Y-136767184D01*
X121019858Y-136763674D01*
X121043750Y-136762500D01*
X121956250Y-136762500D01*
X121980142Y-136763674D01*
X121980142Y-136763674D01*
G37*
D11*
G04 #@! TD*
G04 #@! TO.P,C2,2*
G04 #@! TO.N,GND*
X121500000Y-137250000D03*
D10*
G04 #@! TO.N,BATTERY*
G04 #@! TO.C,C2*
G36*
X121980142Y-138638674D02*
X122003803Y-138642184D01*
X122027007Y-138647996D01*
X122049529Y-138656054D01*
X122071153Y-138666282D01*
X122091670Y-138678579D01*
X122110883Y-138692829D01*
X122128607Y-138708893D01*
X122144671Y-138726617D01*
X122158921Y-138745830D01*
X122171218Y-138766347D01*
X122181446Y-138787971D01*
X122189504Y-138810493D01*
X122195316Y-138833697D01*
X122198826Y-138857358D01*
X122200000Y-138881250D01*
X122200000Y-139368750D01*
X122198826Y-139392642D01*
X122195316Y-139416303D01*
X122189504Y-139439507D01*
X122181446Y-139462029D01*
X122171218Y-139483653D01*
X122158921Y-139504170D01*
X122144671Y-139523383D01*
X122128607Y-139541107D01*
X122110883Y-139557171D01*
X122091670Y-139571421D01*
X122071153Y-139583718D01*
X122049529Y-139593946D01*
X122027007Y-139602004D01*
X122003803Y-139607816D01*
X121980142Y-139611326D01*
X121956250Y-139612500D01*
X121043750Y-139612500D01*
X121019858Y-139611326D01*
X120996197Y-139607816D01*
X120972993Y-139602004D01*
X120950471Y-139593946D01*
X120928847Y-139583718D01*
X120908330Y-139571421D01*
X120889117Y-139557171D01*
X120871393Y-139541107D01*
X120855329Y-139523383D01*
X120841079Y-139504170D01*
X120828782Y-139483653D01*
X120818554Y-139462029D01*
X120810496Y-139439507D01*
X120804684Y-139416303D01*
X120801174Y-139392642D01*
X120800000Y-139368750D01*
X120800000Y-138881250D01*
X120801174Y-138857358D01*
X120804684Y-138833697D01*
X120810496Y-138810493D01*
X120818554Y-138787971D01*
X120828782Y-138766347D01*
X120841079Y-138745830D01*
X120855329Y-138726617D01*
X120871393Y-138708893D01*
X120889117Y-138692829D01*
X120908330Y-138678579D01*
X120928847Y-138666282D01*
X120950471Y-138656054D01*
X120972993Y-138647996D01*
X120996197Y-138642184D01*
X121019858Y-138638674D01*
X121043750Y-138637500D01*
X121956250Y-138637500D01*
X121980142Y-138638674D01*
X121980142Y-138638674D01*
G37*
D11*
G04 #@! TD*
G04 #@! TO.P,C2,1*
G04 #@! TO.N,BATTERY*
X121500000Y-139125000D03*
D10*
G04 #@! TO.N,BATTERY*
G04 #@! TO.C,C3*
G36*
X128240191Y-143526053D02*
X128261426Y-143529203D01*
X128282250Y-143534419D01*
X128302462Y-143541651D01*
X128321868Y-143550830D01*
X128340281Y-143561866D01*
X128357524Y-143574654D01*
X128373430Y-143589070D01*
X128387846Y-143604976D01*
X128400634Y-143622219D01*
X128411670Y-143640632D01*
X128420849Y-143660038D01*
X128428081Y-143680250D01*
X128433297Y-143701074D01*
X128436447Y-143722309D01*
X128437500Y-143743750D01*
X128437500Y-144256250D01*
X128436447Y-144277691D01*
X128433297Y-144298926D01*
X128428081Y-144319750D01*
X128420849Y-144339962D01*
X128411670Y-144359368D01*
X128400634Y-144377781D01*
X128387846Y-144395024D01*
X128373430Y-144410930D01*
X128357524Y-144425346D01*
X128340281Y-144438134D01*
X128321868Y-144449170D01*
X128302462Y-144458349D01*
X128282250Y-144465581D01*
X128261426Y-144470797D01*
X128240191Y-144473947D01*
X128218750Y-144475000D01*
X127781250Y-144475000D01*
X127759809Y-144473947D01*
X127738574Y-144470797D01*
X127717750Y-144465581D01*
X127697538Y-144458349D01*
X127678132Y-144449170D01*
X127659719Y-144438134D01*
X127642476Y-144425346D01*
X127626570Y-144410930D01*
X127612154Y-144395024D01*
X127599366Y-144377781D01*
X127588330Y-144359368D01*
X127579151Y-144339962D01*
X127571919Y-144319750D01*
X127566703Y-144298926D01*
X127563553Y-144277691D01*
X127562500Y-144256250D01*
X127562500Y-143743750D01*
X127563553Y-143722309D01*
X127566703Y-143701074D01*
X127571919Y-143680250D01*
X127579151Y-143660038D01*
X127588330Y-143640632D01*
X127599366Y-143622219D01*
X127612154Y-143604976D01*
X127626570Y-143589070D01*
X127642476Y-143574654D01*
X127659719Y-143561866D01*
X127678132Y-143550830D01*
X127697538Y-143541651D01*
X127717750Y-143534419D01*
X127738574Y-143529203D01*
X127759809Y-143526053D01*
X127781250Y-143525000D01*
X128218750Y-143525000D01*
X128240191Y-143526053D01*
X128240191Y-143526053D01*
G37*
D12*
G04 #@! TD*
G04 #@! TO.P,C3,1*
G04 #@! TO.N,BATTERY*
X128000000Y-144000000D03*
D10*
G04 #@! TO.N,GND*
G04 #@! TO.C,C3*
G36*
X126665191Y-143526053D02*
X126686426Y-143529203D01*
X126707250Y-143534419D01*
X126727462Y-143541651D01*
X126746868Y-143550830D01*
X126765281Y-143561866D01*
X126782524Y-143574654D01*
X126798430Y-143589070D01*
X126812846Y-143604976D01*
X126825634Y-143622219D01*
X126836670Y-143640632D01*
X126845849Y-143660038D01*
X126853081Y-143680250D01*
X126858297Y-143701074D01*
X126861447Y-143722309D01*
X126862500Y-143743750D01*
X126862500Y-144256250D01*
X126861447Y-144277691D01*
X126858297Y-144298926D01*
X126853081Y-144319750D01*
X126845849Y-144339962D01*
X126836670Y-144359368D01*
X126825634Y-144377781D01*
X126812846Y-144395024D01*
X126798430Y-144410930D01*
X126782524Y-144425346D01*
X126765281Y-144438134D01*
X126746868Y-144449170D01*
X126727462Y-144458349D01*
X126707250Y-144465581D01*
X126686426Y-144470797D01*
X126665191Y-144473947D01*
X126643750Y-144475000D01*
X126206250Y-144475000D01*
X126184809Y-144473947D01*
X126163574Y-144470797D01*
X126142750Y-144465581D01*
X126122538Y-144458349D01*
X126103132Y-144449170D01*
X126084719Y-144438134D01*
X126067476Y-144425346D01*
X126051570Y-144410930D01*
X126037154Y-144395024D01*
X126024366Y-144377781D01*
X126013330Y-144359368D01*
X126004151Y-144339962D01*
X125996919Y-144319750D01*
X125991703Y-144298926D01*
X125988553Y-144277691D01*
X125987500Y-144256250D01*
X125987500Y-143743750D01*
X125988553Y-143722309D01*
X125991703Y-143701074D01*
X125996919Y-143680250D01*
X126004151Y-143660038D01*
X126013330Y-143640632D01*
X126024366Y-143622219D01*
X126037154Y-143604976D01*
X126051570Y-143589070D01*
X126067476Y-143574654D01*
X126084719Y-143561866D01*
X126103132Y-143550830D01*
X126122538Y-143541651D01*
X126142750Y-143534419D01*
X126163574Y-143529203D01*
X126184809Y-143526053D01*
X126206250Y-143525000D01*
X126643750Y-143525000D01*
X126665191Y-143526053D01*
X126665191Y-143526053D01*
G37*
D12*
G04 #@! TD*
G04 #@! TO.P,C3,2*
G04 #@! TO.N,GND*
X126425000Y-144000000D03*
D10*
G04 #@! TO.N,+3V3*
G04 #@! TO.C,C4*
G36*
X130330142Y-143051174D02*
X130353803Y-143054684D01*
X130377007Y-143060496D01*
X130399529Y-143068554D01*
X130421153Y-143078782D01*
X130441670Y-143091079D01*
X130460883Y-143105329D01*
X130478607Y-143121393D01*
X130494671Y-143139117D01*
X130508921Y-143158330D01*
X130521218Y-143178847D01*
X130531446Y-143200471D01*
X130539504Y-143222993D01*
X130545316Y-143246197D01*
X130548826Y-143269858D01*
X130550000Y-143293750D01*
X130550000Y-144206250D01*
X130548826Y-144230142D01*
X130545316Y-144253803D01*
X130539504Y-144277007D01*
X130531446Y-144299529D01*
X130521218Y-144321153D01*
X130508921Y-144341670D01*
X130494671Y-144360883D01*
X130478607Y-144378607D01*
X130460883Y-144394671D01*
X130441670Y-144408921D01*
X130421153Y-144421218D01*
X130399529Y-144431446D01*
X130377007Y-144439504D01*
X130353803Y-144445316D01*
X130330142Y-144448826D01*
X130306250Y-144450000D01*
X129818750Y-144450000D01*
X129794858Y-144448826D01*
X129771197Y-144445316D01*
X129747993Y-144439504D01*
X129725471Y-144431446D01*
X129703847Y-144421218D01*
X129683330Y-144408921D01*
X129664117Y-144394671D01*
X129646393Y-144378607D01*
X129630329Y-144360883D01*
X129616079Y-144341670D01*
X129603782Y-144321153D01*
X129593554Y-144299529D01*
X129585496Y-144277007D01*
X129579684Y-144253803D01*
X129576174Y-144230142D01*
X129575000Y-144206250D01*
X129575000Y-143293750D01*
X129576174Y-143269858D01*
X129579684Y-143246197D01*
X129585496Y-143222993D01*
X129593554Y-143200471D01*
X129603782Y-143178847D01*
X129616079Y-143158330D01*
X129630329Y-143139117D01*
X129646393Y-143121393D01*
X129664117Y-143105329D01*
X129683330Y-143091079D01*
X129703847Y-143078782D01*
X129725471Y-143068554D01*
X129747993Y-143060496D01*
X129771197Y-143054684D01*
X129794858Y-143051174D01*
X129818750Y-143050000D01*
X130306250Y-143050000D01*
X130330142Y-143051174D01*
X130330142Y-143051174D01*
G37*
D11*
G04 #@! TD*
G04 #@! TO.P,C4,1*
G04 #@! TO.N,+3V3*
X130062500Y-143750000D03*
D10*
G04 #@! TO.N,GND*
G04 #@! TO.C,C4*
G36*
X132205142Y-143051174D02*
X132228803Y-143054684D01*
X132252007Y-143060496D01*
X132274529Y-143068554D01*
X132296153Y-143078782D01*
X132316670Y-143091079D01*
X132335883Y-143105329D01*
X132353607Y-143121393D01*
X132369671Y-143139117D01*
X132383921Y-143158330D01*
X132396218Y-143178847D01*
X132406446Y-143200471D01*
X132414504Y-143222993D01*
X132420316Y-143246197D01*
X132423826Y-143269858D01*
X132425000Y-143293750D01*
X132425000Y-144206250D01*
X132423826Y-144230142D01*
X132420316Y-144253803D01*
X132414504Y-144277007D01*
X132406446Y-144299529D01*
X132396218Y-144321153D01*
X132383921Y-144341670D01*
X132369671Y-144360883D01*
X132353607Y-144378607D01*
X132335883Y-144394671D01*
X132316670Y-144408921D01*
X132296153Y-144421218D01*
X132274529Y-144431446D01*
X132252007Y-144439504D01*
X132228803Y-144445316D01*
X132205142Y-144448826D01*
X132181250Y-144450000D01*
X131693750Y-144450000D01*
X131669858Y-144448826D01*
X131646197Y-144445316D01*
X131622993Y-144439504D01*
X131600471Y-144431446D01*
X131578847Y-144421218D01*
X131558330Y-144408921D01*
X131539117Y-144394671D01*
X131521393Y-144378607D01*
X131505329Y-144360883D01*
X131491079Y-144341670D01*
X131478782Y-144321153D01*
X131468554Y-144299529D01*
X131460496Y-144277007D01*
X131454684Y-144253803D01*
X131451174Y-144230142D01*
X131450000Y-144206250D01*
X131450000Y-143293750D01*
X131451174Y-143269858D01*
X131454684Y-143246197D01*
X131460496Y-143222993D01*
X131468554Y-143200471D01*
X131478782Y-143178847D01*
X131491079Y-143158330D01*
X131505329Y-143139117D01*
X131521393Y-143121393D01*
X131539117Y-143105329D01*
X131558330Y-143091079D01*
X131578847Y-143078782D01*
X131600471Y-143068554D01*
X131622993Y-143060496D01*
X131646197Y-143054684D01*
X131669858Y-143051174D01*
X131693750Y-143050000D01*
X132181250Y-143050000D01*
X132205142Y-143051174D01*
X132205142Y-143051174D01*
G37*
D11*
G04 #@! TD*
G04 #@! TO.P,C4,2*
G04 #@! TO.N,GND*
X131937500Y-143750000D03*
D10*
G04 #@! TO.N,GND*
G04 #@! TO.C,C5*
G36*
X126230142Y-124763674D02*
X126253803Y-124767184D01*
X126277007Y-124772996D01*
X126299529Y-124781054D01*
X126321153Y-124791282D01*
X126341670Y-124803579D01*
X126360883Y-124817829D01*
X126378607Y-124833893D01*
X126394671Y-124851617D01*
X126408921Y-124870830D01*
X126421218Y-124891347D01*
X126431446Y-124912971D01*
X126439504Y-124935493D01*
X126445316Y-124958697D01*
X126448826Y-124982358D01*
X126450000Y-125006250D01*
X126450000Y-125493750D01*
X126448826Y-125517642D01*
X126445316Y-125541303D01*
X126439504Y-125564507D01*
X126431446Y-125587029D01*
X126421218Y-125608653D01*
X126408921Y-125629170D01*
X126394671Y-125648383D01*
X126378607Y-125666107D01*
X126360883Y-125682171D01*
X126341670Y-125696421D01*
X126321153Y-125708718D01*
X126299529Y-125718946D01*
X126277007Y-125727004D01*
X126253803Y-125732816D01*
X126230142Y-125736326D01*
X126206250Y-125737500D01*
X125293750Y-125737500D01*
X125269858Y-125736326D01*
X125246197Y-125732816D01*
X125222993Y-125727004D01*
X125200471Y-125718946D01*
X125178847Y-125708718D01*
X125158330Y-125696421D01*
X125139117Y-125682171D01*
X125121393Y-125666107D01*
X125105329Y-125648383D01*
X125091079Y-125629170D01*
X125078782Y-125608653D01*
X125068554Y-125587029D01*
X125060496Y-125564507D01*
X125054684Y-125541303D01*
X125051174Y-125517642D01*
X125050000Y-125493750D01*
X125050000Y-125006250D01*
X125051174Y-124982358D01*
X125054684Y-124958697D01*
X125060496Y-124935493D01*
X125068554Y-124912971D01*
X125078782Y-124891347D01*
X125091079Y-124870830D01*
X125105329Y-124851617D01*
X125121393Y-124833893D01*
X125139117Y-124817829D01*
X125158330Y-124803579D01*
X125178847Y-124791282D01*
X125200471Y-124781054D01*
X125222993Y-124772996D01*
X125246197Y-124767184D01*
X125269858Y-124763674D01*
X125293750Y-124762500D01*
X126206250Y-124762500D01*
X126230142Y-124763674D01*
X126230142Y-124763674D01*
G37*
D11*
G04 #@! TD*
G04 #@! TO.P,C5,2*
G04 #@! TO.N,GND*
X125750000Y-125250000D03*
D10*
G04 #@! TO.N,+3V3*
G04 #@! TO.C,C5*
G36*
X126230142Y-126638674D02*
X126253803Y-126642184D01*
X126277007Y-126647996D01*
X126299529Y-126656054D01*
X126321153Y-126666282D01*
X126341670Y-126678579D01*
X126360883Y-126692829D01*
X126378607Y-126708893D01*
X126394671Y-126726617D01*
X126408921Y-126745830D01*
X126421218Y-126766347D01*
X126431446Y-126787971D01*
X126439504Y-126810493D01*
X126445316Y-126833697D01*
X126448826Y-126857358D01*
X126450000Y-126881250D01*
X126450000Y-127368750D01*
X126448826Y-127392642D01*
X126445316Y-127416303D01*
X126439504Y-127439507D01*
X126431446Y-127462029D01*
X126421218Y-127483653D01*
X126408921Y-127504170D01*
X126394671Y-127523383D01*
X126378607Y-127541107D01*
X126360883Y-127557171D01*
X126341670Y-127571421D01*
X126321153Y-127583718D01*
X126299529Y-127593946D01*
X126277007Y-127602004D01*
X126253803Y-127607816D01*
X126230142Y-127611326D01*
X126206250Y-127612500D01*
X125293750Y-127612500D01*
X125269858Y-127611326D01*
X125246197Y-127607816D01*
X125222993Y-127602004D01*
X125200471Y-127593946D01*
X125178847Y-127583718D01*
X125158330Y-127571421D01*
X125139117Y-127557171D01*
X125121393Y-127541107D01*
X125105329Y-127523383D01*
X125091079Y-127504170D01*
X125078782Y-127483653D01*
X125068554Y-127462029D01*
X125060496Y-127439507D01*
X125054684Y-127416303D01*
X125051174Y-127392642D01*
X125050000Y-127368750D01*
X125050000Y-126881250D01*
X125051174Y-126857358D01*
X125054684Y-126833697D01*
X125060496Y-126810493D01*
X125068554Y-126787971D01*
X125078782Y-126766347D01*
X125091079Y-126745830D01*
X125105329Y-126726617D01*
X125121393Y-126708893D01*
X125139117Y-126692829D01*
X125158330Y-126678579D01*
X125178847Y-126666282D01*
X125200471Y-126656054D01*
X125222993Y-126647996D01*
X125246197Y-126642184D01*
X125269858Y-126638674D01*
X125293750Y-126637500D01*
X126206250Y-126637500D01*
X126230142Y-126638674D01*
X126230142Y-126638674D01*
G37*
D11*
G04 #@! TD*
G04 #@! TO.P,C5,1*
G04 #@! TO.N,+3V3*
X125750000Y-127125000D03*
D10*
G04 #@! TO.N,GND*
G04 #@! TO.C,C7*
G36*
X123027691Y-125063553D02*
X123048926Y-125066703D01*
X123069750Y-125071919D01*
X123089962Y-125079151D01*
X123109368Y-125088330D01*
X123127781Y-125099366D01*
X123145024Y-125112154D01*
X123160930Y-125126570D01*
X123175346Y-125142476D01*
X123188134Y-125159719D01*
X123199170Y-125178132D01*
X123208349Y-125197538D01*
X123215581Y-125217750D01*
X123220797Y-125238574D01*
X123223947Y-125259809D01*
X123225000Y-125281250D01*
X123225000Y-125718750D01*
X123223947Y-125740191D01*
X123220797Y-125761426D01*
X123215581Y-125782250D01*
X123208349Y-125802462D01*
X123199170Y-125821868D01*
X123188134Y-125840281D01*
X123175346Y-125857524D01*
X123160930Y-125873430D01*
X123145024Y-125887846D01*
X123127781Y-125900634D01*
X123109368Y-125911670D01*
X123089962Y-125920849D01*
X123069750Y-125928081D01*
X123048926Y-125933297D01*
X123027691Y-125936447D01*
X123006250Y-125937500D01*
X122493750Y-125937500D01*
X122472309Y-125936447D01*
X122451074Y-125933297D01*
X122430250Y-125928081D01*
X122410038Y-125920849D01*
X122390632Y-125911670D01*
X122372219Y-125900634D01*
X122354976Y-125887846D01*
X122339070Y-125873430D01*
X122324654Y-125857524D01*
X122311866Y-125840281D01*
X122300830Y-125821868D01*
X122291651Y-125802462D01*
X122284419Y-125782250D01*
X122279203Y-125761426D01*
X122276053Y-125740191D01*
X122275000Y-125718750D01*
X122275000Y-125281250D01*
X122276053Y-125259809D01*
X122279203Y-125238574D01*
X122284419Y-125217750D01*
X122291651Y-125197538D01*
X122300830Y-125178132D01*
X122311866Y-125159719D01*
X122324654Y-125142476D01*
X122339070Y-125126570D01*
X122354976Y-125112154D01*
X122372219Y-125099366D01*
X122390632Y-125088330D01*
X122410038Y-125079151D01*
X122430250Y-125071919D01*
X122451074Y-125066703D01*
X122472309Y-125063553D01*
X122493750Y-125062500D01*
X123006250Y-125062500D01*
X123027691Y-125063553D01*
X123027691Y-125063553D01*
G37*
D12*
G04 #@! TD*
G04 #@! TO.P,C7,2*
G04 #@! TO.N,GND*
X122750000Y-125500000D03*
D10*
G04 #@! TO.N,+3V3*
G04 #@! TO.C,C7*
G36*
X123027691Y-126638553D02*
X123048926Y-126641703D01*
X123069750Y-126646919D01*
X123089962Y-126654151D01*
X123109368Y-126663330D01*
X123127781Y-126674366D01*
X123145024Y-126687154D01*
X123160930Y-126701570D01*
X123175346Y-126717476D01*
X123188134Y-126734719D01*
X123199170Y-126753132D01*
X123208349Y-126772538D01*
X123215581Y-126792750D01*
X123220797Y-126813574D01*
X123223947Y-126834809D01*
X123225000Y-126856250D01*
X123225000Y-127293750D01*
X123223947Y-127315191D01*
X123220797Y-127336426D01*
X123215581Y-127357250D01*
X123208349Y-127377462D01*
X123199170Y-127396868D01*
X123188134Y-127415281D01*
X123175346Y-127432524D01*
X123160930Y-127448430D01*
X123145024Y-127462846D01*
X123127781Y-127475634D01*
X123109368Y-127486670D01*
X123089962Y-127495849D01*
X123069750Y-127503081D01*
X123048926Y-127508297D01*
X123027691Y-127511447D01*
X123006250Y-127512500D01*
X122493750Y-127512500D01*
X122472309Y-127511447D01*
X122451074Y-127508297D01*
X122430250Y-127503081D01*
X122410038Y-127495849D01*
X122390632Y-127486670D01*
X122372219Y-127475634D01*
X122354976Y-127462846D01*
X122339070Y-127448430D01*
X122324654Y-127432524D01*
X122311866Y-127415281D01*
X122300830Y-127396868D01*
X122291651Y-127377462D01*
X122284419Y-127357250D01*
X122279203Y-127336426D01*
X122276053Y-127315191D01*
X122275000Y-127293750D01*
X122275000Y-126856250D01*
X122276053Y-126834809D01*
X122279203Y-126813574D01*
X122284419Y-126792750D01*
X122291651Y-126772538D01*
X122300830Y-126753132D01*
X122311866Y-126734719D01*
X122324654Y-126717476D01*
X122339070Y-126701570D01*
X122354976Y-126687154D01*
X122372219Y-126674366D01*
X122390632Y-126663330D01*
X122410038Y-126654151D01*
X122430250Y-126646919D01*
X122451074Y-126641703D01*
X122472309Y-126638553D01*
X122493750Y-126637500D01*
X123006250Y-126637500D01*
X123027691Y-126638553D01*
X123027691Y-126638553D01*
G37*
D12*
G04 #@! TD*
G04 #@! TO.P,C7,1*
G04 #@! TO.N,+3V3*
X122750000Y-127075000D03*
D13*
G04 #@! TO.P,J1,1*
G04 #@! TO.N,SOLAR*
X111250000Y-143500000D03*
D14*
G04 #@! TO.P,J1,2*
G04 #@! TO.N,GND*
X111250000Y-146040000D03*
G04 #@! TD*
D13*
G04 #@! TO.P,J2,1*
G04 #@! TO.N,+3V3*
X143750000Y-153250000D03*
D14*
G04 #@! TO.P,J2,2*
G04 #@! TO.N,I2C_SDA*
X141210000Y-153250000D03*
G04 #@! TO.P,J2,3*
G04 #@! TO.N,I2C_SCL*
X138670000Y-153250000D03*
G04 #@! TO.P,J2,4*
G04 #@! TO.N,GND*
X136130000Y-153250000D03*
G04 #@! TD*
D10*
G04 #@! TO.N,BATTERY*
G04 #@! TO.C,J3*
G36*
X119374505Y-147626204D02*
X119398773Y-147629804D01*
X119422572Y-147635765D01*
X119445671Y-147644030D01*
X119467850Y-147654520D01*
X119488893Y-147667132D01*
X119508599Y-147681747D01*
X119526777Y-147698223D01*
X119543253Y-147716401D01*
X119557868Y-147736107D01*
X119570480Y-147757150D01*
X119580970Y-147779329D01*
X119589235Y-147802428D01*
X119595196Y-147826227D01*
X119598796Y-147850495D01*
X119600000Y-147874999D01*
X119600000Y-149125001D01*
X119598796Y-149149505D01*
X119595196Y-149173773D01*
X119589235Y-149197572D01*
X119580970Y-149220671D01*
X119570480Y-149242850D01*
X119557868Y-149263893D01*
X119543253Y-149283599D01*
X119526777Y-149301777D01*
X119508599Y-149318253D01*
X119488893Y-149332868D01*
X119467850Y-149345480D01*
X119445671Y-149355970D01*
X119422572Y-149364235D01*
X119398773Y-149370196D01*
X119374505Y-149373796D01*
X119350001Y-149375000D01*
X118649999Y-149375000D01*
X118625495Y-149373796D01*
X118601227Y-149370196D01*
X118577428Y-149364235D01*
X118554329Y-149355970D01*
X118532150Y-149345480D01*
X118511107Y-149332868D01*
X118491401Y-149318253D01*
X118473223Y-149301777D01*
X118456747Y-149283599D01*
X118442132Y-149263893D01*
X118429520Y-149242850D01*
X118419030Y-149220671D01*
X118410765Y-149197572D01*
X118404804Y-149173773D01*
X118401204Y-149149505D01*
X118400000Y-149125001D01*
X118400000Y-147874999D01*
X118401204Y-147850495D01*
X118404804Y-147826227D01*
X118410765Y-147802428D01*
X118419030Y-147779329D01*
X118429520Y-147757150D01*
X118442132Y-147736107D01*
X118456747Y-147716401D01*
X118473223Y-147698223D01*
X118491401Y-147681747D01*
X118511107Y-147667132D01*
X118532150Y-147654520D01*
X118554329Y-147644030D01*
X118577428Y-147635765D01*
X118601227Y-147629804D01*
X118625495Y-147626204D01*
X118649999Y-147625000D01*
X119350001Y-147625000D01*
X119374505Y-147626204D01*
X119374505Y-147626204D01*
G37*
D15*
G04 #@! TD*
G04 #@! TO.P,J3,1*
G04 #@! TO.N,BATTERY*
X119000000Y-148500000D03*
D16*
G04 #@! TO.P,J3,2*
G04 #@! TO.N,GND*
X121000000Y-148500000D03*
G04 #@! TD*
D13*
G04 #@! TO.P,J4,1*
G04 #@! TO.N,Net-(J4-Pad1)*
X150000000Y-127500000D03*
D14*
G04 #@! TO.P,J4,2*
G04 #@! TO.N,PIR*
X150000000Y-124960000D03*
G04 #@! TO.P,J4,3*
G04 #@! TO.N,GND*
X150000000Y-122420000D03*
G04 #@! TD*
D13*
G04 #@! TO.P,J5,1*
G04 #@! TO.N,+3V3*
X144750000Y-127500000D03*
D14*
G04 #@! TO.P,J5,2*
G04 #@! TO.N,SWDIO*
X142210000Y-127500000D03*
G04 #@! TO.P,J5,3*
G04 #@! TO.N,NRST*
X144750000Y-124960000D03*
G04 #@! TO.P,J5,4*
G04 #@! TO.N,SWCLK*
X142210000Y-124960000D03*
G04 #@! TO.P,J5,5*
G04 #@! TO.N,GND*
X144750000Y-122420000D03*
G04 #@! TO.P,J5,6*
G04 #@! TO.N,Net-(J5-Pad6)*
X142210000Y-122420000D03*
G04 #@! TD*
D17*
G04 #@! TO.P,Q1,1*
G04 #@! TO.N,EN_XBEE*
X119750000Y-105450000D03*
G04 #@! TO.P,Q1,2*
G04 #@! TO.N,+3V3*
X119750000Y-103550000D03*
G04 #@! TO.P,Q1,3*
G04 #@! TO.N,Net-(Q1-Pad3)*
X117750000Y-104500000D03*
G04 #@! TD*
G04 #@! TO.P,Q2,3*
G04 #@! TO.N,Net-(J4-Pad1)*
X151000000Y-132500000D03*
G04 #@! TO.P,Q2,2*
G04 #@! TO.N,+3V3*
X149000000Y-133450000D03*
G04 #@! TO.P,Q2,1*
G04 #@! TO.N,EN_PIR*
X149000000Y-131550000D03*
G04 #@! TD*
D10*
G04 #@! TO.N,SOLAR_SENSE*
G04 #@! TO.C,R1*
G36*
X112277691Y-139026053D02*
X112298926Y-139029203D01*
X112319750Y-139034419D01*
X112339962Y-139041651D01*
X112359368Y-139050830D01*
X112377781Y-139061866D01*
X112395024Y-139074654D01*
X112410930Y-139089070D01*
X112425346Y-139104976D01*
X112438134Y-139122219D01*
X112449170Y-139140632D01*
X112458349Y-139160038D01*
X112465581Y-139180250D01*
X112470797Y-139201074D01*
X112473947Y-139222309D01*
X112475000Y-139243750D01*
X112475000Y-139756250D01*
X112473947Y-139777691D01*
X112470797Y-139798926D01*
X112465581Y-139819750D01*
X112458349Y-139839962D01*
X112449170Y-139859368D01*
X112438134Y-139877781D01*
X112425346Y-139895024D01*
X112410930Y-139910930D01*
X112395024Y-139925346D01*
X112377781Y-139938134D01*
X112359368Y-139949170D01*
X112339962Y-139958349D01*
X112319750Y-139965581D01*
X112298926Y-139970797D01*
X112277691Y-139973947D01*
X112256250Y-139975000D01*
X111818750Y-139975000D01*
X111797309Y-139973947D01*
X111776074Y-139970797D01*
X111755250Y-139965581D01*
X111735038Y-139958349D01*
X111715632Y-139949170D01*
X111697219Y-139938134D01*
X111679976Y-139925346D01*
X111664070Y-139910930D01*
X111649654Y-139895024D01*
X111636866Y-139877781D01*
X111625830Y-139859368D01*
X111616651Y-139839962D01*
X111609419Y-139819750D01*
X111604203Y-139798926D01*
X111601053Y-139777691D01*
X111600000Y-139756250D01*
X111600000Y-139243750D01*
X111601053Y-139222309D01*
X111604203Y-139201074D01*
X111609419Y-139180250D01*
X111616651Y-139160038D01*
X111625830Y-139140632D01*
X111636866Y-139122219D01*
X111649654Y-139104976D01*
X111664070Y-139089070D01*
X111679976Y-139074654D01*
X111697219Y-139061866D01*
X111715632Y-139050830D01*
X111735038Y-139041651D01*
X111755250Y-139034419D01*
X111776074Y-139029203D01*
X111797309Y-139026053D01*
X111818750Y-139025000D01*
X112256250Y-139025000D01*
X112277691Y-139026053D01*
X112277691Y-139026053D01*
G37*
D12*
G04 #@! TD*
G04 #@! TO.P,R1,2*
G04 #@! TO.N,SOLAR_SENSE*
X112037500Y-139500000D03*
D10*
G04 #@! TO.N,SOLAR*
G04 #@! TO.C,R1*
G36*
X110702691Y-139026053D02*
X110723926Y-139029203D01*
X110744750Y-139034419D01*
X110764962Y-139041651D01*
X110784368Y-139050830D01*
X110802781Y-139061866D01*
X110820024Y-139074654D01*
X110835930Y-139089070D01*
X110850346Y-139104976D01*
X110863134Y-139122219D01*
X110874170Y-139140632D01*
X110883349Y-139160038D01*
X110890581Y-139180250D01*
X110895797Y-139201074D01*
X110898947Y-139222309D01*
X110900000Y-139243750D01*
X110900000Y-139756250D01*
X110898947Y-139777691D01*
X110895797Y-139798926D01*
X110890581Y-139819750D01*
X110883349Y-139839962D01*
X110874170Y-139859368D01*
X110863134Y-139877781D01*
X110850346Y-139895024D01*
X110835930Y-139910930D01*
X110820024Y-139925346D01*
X110802781Y-139938134D01*
X110784368Y-139949170D01*
X110764962Y-139958349D01*
X110744750Y-139965581D01*
X110723926Y-139970797D01*
X110702691Y-139973947D01*
X110681250Y-139975000D01*
X110243750Y-139975000D01*
X110222309Y-139973947D01*
X110201074Y-139970797D01*
X110180250Y-139965581D01*
X110160038Y-139958349D01*
X110140632Y-139949170D01*
X110122219Y-139938134D01*
X110104976Y-139925346D01*
X110089070Y-139910930D01*
X110074654Y-139895024D01*
X110061866Y-139877781D01*
X110050830Y-139859368D01*
X110041651Y-139839962D01*
X110034419Y-139819750D01*
X110029203Y-139798926D01*
X110026053Y-139777691D01*
X110025000Y-139756250D01*
X110025000Y-139243750D01*
X110026053Y-139222309D01*
X110029203Y-139201074D01*
X110034419Y-139180250D01*
X110041651Y-139160038D01*
X110050830Y-139140632D01*
X110061866Y-139122219D01*
X110074654Y-139104976D01*
X110089070Y-139089070D01*
X110104976Y-139074654D01*
X110122219Y-139061866D01*
X110140632Y-139050830D01*
X110160038Y-139041651D01*
X110180250Y-139034419D01*
X110201074Y-139029203D01*
X110222309Y-139026053D01*
X110243750Y-139025000D01*
X110681250Y-139025000D01*
X110702691Y-139026053D01*
X110702691Y-139026053D01*
G37*
D12*
G04 #@! TD*
G04 #@! TO.P,R1,1*
G04 #@! TO.N,SOLAR*
X110462500Y-139500000D03*
D10*
G04 #@! TO.N,SOLAR_SENSE*
G04 #@! TO.C,R2*
G36*
X110665191Y-136276053D02*
X110686426Y-136279203D01*
X110707250Y-136284419D01*
X110727462Y-136291651D01*
X110746868Y-136300830D01*
X110765281Y-136311866D01*
X110782524Y-136324654D01*
X110798430Y-136339070D01*
X110812846Y-136354976D01*
X110825634Y-136372219D01*
X110836670Y-136390632D01*
X110845849Y-136410038D01*
X110853081Y-136430250D01*
X110858297Y-136451074D01*
X110861447Y-136472309D01*
X110862500Y-136493750D01*
X110862500Y-137006250D01*
X110861447Y-137027691D01*
X110858297Y-137048926D01*
X110853081Y-137069750D01*
X110845849Y-137089962D01*
X110836670Y-137109368D01*
X110825634Y-137127781D01*
X110812846Y-137145024D01*
X110798430Y-137160930D01*
X110782524Y-137175346D01*
X110765281Y-137188134D01*
X110746868Y-137199170D01*
X110727462Y-137208349D01*
X110707250Y-137215581D01*
X110686426Y-137220797D01*
X110665191Y-137223947D01*
X110643750Y-137225000D01*
X110206250Y-137225000D01*
X110184809Y-137223947D01*
X110163574Y-137220797D01*
X110142750Y-137215581D01*
X110122538Y-137208349D01*
X110103132Y-137199170D01*
X110084719Y-137188134D01*
X110067476Y-137175346D01*
X110051570Y-137160930D01*
X110037154Y-137145024D01*
X110024366Y-137127781D01*
X110013330Y-137109368D01*
X110004151Y-137089962D01*
X109996919Y-137069750D01*
X109991703Y-137048926D01*
X109988553Y-137027691D01*
X109987500Y-137006250D01*
X109987500Y-136493750D01*
X109988553Y-136472309D01*
X109991703Y-136451074D01*
X109996919Y-136430250D01*
X110004151Y-136410038D01*
X110013330Y-136390632D01*
X110024366Y-136372219D01*
X110037154Y-136354976D01*
X110051570Y-136339070D01*
X110067476Y-136324654D01*
X110084719Y-136311866D01*
X110103132Y-136300830D01*
X110122538Y-136291651D01*
X110142750Y-136284419D01*
X110163574Y-136279203D01*
X110184809Y-136276053D01*
X110206250Y-136275000D01*
X110643750Y-136275000D01*
X110665191Y-136276053D01*
X110665191Y-136276053D01*
G37*
D12*
G04 #@! TD*
G04 #@! TO.P,R2,1*
G04 #@! TO.N,SOLAR_SENSE*
X110425000Y-136750000D03*
D10*
G04 #@! TO.N,GND*
G04 #@! TO.C,R2*
G36*
X112240191Y-136276053D02*
X112261426Y-136279203D01*
X112282250Y-136284419D01*
X112302462Y-136291651D01*
X112321868Y-136300830D01*
X112340281Y-136311866D01*
X112357524Y-136324654D01*
X112373430Y-136339070D01*
X112387846Y-136354976D01*
X112400634Y-136372219D01*
X112411670Y-136390632D01*
X112420849Y-136410038D01*
X112428081Y-136430250D01*
X112433297Y-136451074D01*
X112436447Y-136472309D01*
X112437500Y-136493750D01*
X112437500Y-137006250D01*
X112436447Y-137027691D01*
X112433297Y-137048926D01*
X112428081Y-137069750D01*
X112420849Y-137089962D01*
X112411670Y-137109368D01*
X112400634Y-137127781D01*
X112387846Y-137145024D01*
X112373430Y-137160930D01*
X112357524Y-137175346D01*
X112340281Y-137188134D01*
X112321868Y-137199170D01*
X112302462Y-137208349D01*
X112282250Y-137215581D01*
X112261426Y-137220797D01*
X112240191Y-137223947D01*
X112218750Y-137225000D01*
X111781250Y-137225000D01*
X111759809Y-137223947D01*
X111738574Y-137220797D01*
X111717750Y-137215581D01*
X111697538Y-137208349D01*
X111678132Y-137199170D01*
X111659719Y-137188134D01*
X111642476Y-137175346D01*
X111626570Y-137160930D01*
X111612154Y-137145024D01*
X111599366Y-137127781D01*
X111588330Y-137109368D01*
X111579151Y-137089962D01*
X111571919Y-137069750D01*
X111566703Y-137048926D01*
X111563553Y-137027691D01*
X111562500Y-137006250D01*
X111562500Y-136493750D01*
X111563553Y-136472309D01*
X111566703Y-136451074D01*
X111571919Y-136430250D01*
X111579151Y-136410038D01*
X111588330Y-136390632D01*
X111599366Y-136372219D01*
X111612154Y-136354976D01*
X111626570Y-136339070D01*
X111642476Y-136324654D01*
X111659719Y-136311866D01*
X111678132Y-136300830D01*
X111697538Y-136291651D01*
X111717750Y-136284419D01*
X111738574Y-136279203D01*
X111759809Y-136276053D01*
X111781250Y-136275000D01*
X112218750Y-136275000D01*
X112240191Y-136276053D01*
X112240191Y-136276053D01*
G37*
D12*
G04 #@! TD*
G04 #@! TO.P,R2,2*
G04 #@! TO.N,GND*
X112000000Y-136750000D03*
D10*
G04 #@! TO.N,GND*
G04 #@! TO.C,R3*
G36*
X115527691Y-145563553D02*
X115548926Y-145566703D01*
X115569750Y-145571919D01*
X115589962Y-145579151D01*
X115609368Y-145588330D01*
X115627781Y-145599366D01*
X115645024Y-145612154D01*
X115660930Y-145626570D01*
X115675346Y-145642476D01*
X115688134Y-145659719D01*
X115699170Y-145678132D01*
X115708349Y-145697538D01*
X115715581Y-145717750D01*
X115720797Y-145738574D01*
X115723947Y-145759809D01*
X115725000Y-145781250D01*
X115725000Y-146218750D01*
X115723947Y-146240191D01*
X115720797Y-146261426D01*
X115715581Y-146282250D01*
X115708349Y-146302462D01*
X115699170Y-146321868D01*
X115688134Y-146340281D01*
X115675346Y-146357524D01*
X115660930Y-146373430D01*
X115645024Y-146387846D01*
X115627781Y-146400634D01*
X115609368Y-146411670D01*
X115589962Y-146420849D01*
X115569750Y-146428081D01*
X115548926Y-146433297D01*
X115527691Y-146436447D01*
X115506250Y-146437500D01*
X114993750Y-146437500D01*
X114972309Y-146436447D01*
X114951074Y-146433297D01*
X114930250Y-146428081D01*
X114910038Y-146420849D01*
X114890632Y-146411670D01*
X114872219Y-146400634D01*
X114854976Y-146387846D01*
X114839070Y-146373430D01*
X114824654Y-146357524D01*
X114811866Y-146340281D01*
X114800830Y-146321868D01*
X114791651Y-146302462D01*
X114784419Y-146282250D01*
X114779203Y-146261426D01*
X114776053Y-146240191D01*
X114775000Y-146218750D01*
X114775000Y-145781250D01*
X114776053Y-145759809D01*
X114779203Y-145738574D01*
X114784419Y-145717750D01*
X114791651Y-145697538D01*
X114800830Y-145678132D01*
X114811866Y-145659719D01*
X114824654Y-145642476D01*
X114839070Y-145626570D01*
X114854976Y-145612154D01*
X114872219Y-145599366D01*
X114890632Y-145588330D01*
X114910038Y-145579151D01*
X114930250Y-145571919D01*
X114951074Y-145566703D01*
X114972309Y-145563553D01*
X114993750Y-145562500D01*
X115506250Y-145562500D01*
X115527691Y-145563553D01*
X115527691Y-145563553D01*
G37*
D12*
G04 #@! TD*
G04 #@! TO.P,R3,2*
G04 #@! TO.N,GND*
X115250000Y-146000000D03*
D10*
G04 #@! TO.N,Net-(R3-Pad1)*
G04 #@! TO.C,R3*
G36*
X115527691Y-143988553D02*
X115548926Y-143991703D01*
X115569750Y-143996919D01*
X115589962Y-144004151D01*
X115609368Y-144013330D01*
X115627781Y-144024366D01*
X115645024Y-144037154D01*
X115660930Y-144051570D01*
X115675346Y-144067476D01*
X115688134Y-144084719D01*
X115699170Y-144103132D01*
X115708349Y-144122538D01*
X115715581Y-144142750D01*
X115720797Y-144163574D01*
X115723947Y-144184809D01*
X115725000Y-144206250D01*
X115725000Y-144643750D01*
X115723947Y-144665191D01*
X115720797Y-144686426D01*
X115715581Y-144707250D01*
X115708349Y-144727462D01*
X115699170Y-144746868D01*
X115688134Y-144765281D01*
X115675346Y-144782524D01*
X115660930Y-144798430D01*
X115645024Y-144812846D01*
X115627781Y-144825634D01*
X115609368Y-144836670D01*
X115589962Y-144845849D01*
X115569750Y-144853081D01*
X115548926Y-144858297D01*
X115527691Y-144861447D01*
X115506250Y-144862500D01*
X114993750Y-144862500D01*
X114972309Y-144861447D01*
X114951074Y-144858297D01*
X114930250Y-144853081D01*
X114910038Y-144845849D01*
X114890632Y-144836670D01*
X114872219Y-144825634D01*
X114854976Y-144812846D01*
X114839070Y-144798430D01*
X114824654Y-144782524D01*
X114811866Y-144765281D01*
X114800830Y-144746868D01*
X114791651Y-144727462D01*
X114784419Y-144707250D01*
X114779203Y-144686426D01*
X114776053Y-144665191D01*
X114775000Y-144643750D01*
X114775000Y-144206250D01*
X114776053Y-144184809D01*
X114779203Y-144163574D01*
X114784419Y-144142750D01*
X114791651Y-144122538D01*
X114800830Y-144103132D01*
X114811866Y-144084719D01*
X114824654Y-144067476D01*
X114839070Y-144051570D01*
X114854976Y-144037154D01*
X114872219Y-144024366D01*
X114890632Y-144013330D01*
X114910038Y-144004151D01*
X114930250Y-143996919D01*
X114951074Y-143991703D01*
X114972309Y-143988553D01*
X114993750Y-143987500D01*
X115506250Y-143987500D01*
X115527691Y-143988553D01*
X115527691Y-143988553D01*
G37*
D12*
G04 #@! TD*
G04 #@! TO.P,R3,1*
G04 #@! TO.N,Net-(R3-Pad1)*
X115250000Y-144425000D03*
D10*
G04 #@! TO.N,BATTERY*
G04 #@! TO.C,R4*
G36*
X121490191Y-141526053D02*
X121511426Y-141529203D01*
X121532250Y-141534419D01*
X121552462Y-141541651D01*
X121571868Y-141550830D01*
X121590281Y-141561866D01*
X121607524Y-141574654D01*
X121623430Y-141589070D01*
X121637846Y-141604976D01*
X121650634Y-141622219D01*
X121661670Y-141640632D01*
X121670849Y-141660038D01*
X121678081Y-141680250D01*
X121683297Y-141701074D01*
X121686447Y-141722309D01*
X121687500Y-141743750D01*
X121687500Y-142256250D01*
X121686447Y-142277691D01*
X121683297Y-142298926D01*
X121678081Y-142319750D01*
X121670849Y-142339962D01*
X121661670Y-142359368D01*
X121650634Y-142377781D01*
X121637846Y-142395024D01*
X121623430Y-142410930D01*
X121607524Y-142425346D01*
X121590281Y-142438134D01*
X121571868Y-142449170D01*
X121552462Y-142458349D01*
X121532250Y-142465581D01*
X121511426Y-142470797D01*
X121490191Y-142473947D01*
X121468750Y-142475000D01*
X121031250Y-142475000D01*
X121009809Y-142473947D01*
X120988574Y-142470797D01*
X120967750Y-142465581D01*
X120947538Y-142458349D01*
X120928132Y-142449170D01*
X120909719Y-142438134D01*
X120892476Y-142425346D01*
X120876570Y-142410930D01*
X120862154Y-142395024D01*
X120849366Y-142377781D01*
X120838330Y-142359368D01*
X120829151Y-142339962D01*
X120821919Y-142319750D01*
X120816703Y-142298926D01*
X120813553Y-142277691D01*
X120812500Y-142256250D01*
X120812500Y-141743750D01*
X120813553Y-141722309D01*
X120816703Y-141701074D01*
X120821919Y-141680250D01*
X120829151Y-141660038D01*
X120838330Y-141640632D01*
X120849366Y-141622219D01*
X120862154Y-141604976D01*
X120876570Y-141589070D01*
X120892476Y-141574654D01*
X120909719Y-141561866D01*
X120928132Y-141550830D01*
X120947538Y-141541651D01*
X120967750Y-141534419D01*
X120988574Y-141529203D01*
X121009809Y-141526053D01*
X121031250Y-141525000D01*
X121468750Y-141525000D01*
X121490191Y-141526053D01*
X121490191Y-141526053D01*
G37*
D12*
G04 #@! TD*
G04 #@! TO.P,R4,1*
G04 #@! TO.N,BATTERY*
X121250000Y-142000000D03*
D10*
G04 #@! TO.N,BATTERY_SENSE*
G04 #@! TO.C,R4*
G36*
X123065191Y-141526053D02*
X123086426Y-141529203D01*
X123107250Y-141534419D01*
X123127462Y-141541651D01*
X123146868Y-141550830D01*
X123165281Y-141561866D01*
X123182524Y-141574654D01*
X123198430Y-141589070D01*
X123212846Y-141604976D01*
X123225634Y-141622219D01*
X123236670Y-141640632D01*
X123245849Y-141660038D01*
X123253081Y-141680250D01*
X123258297Y-141701074D01*
X123261447Y-141722309D01*
X123262500Y-141743750D01*
X123262500Y-142256250D01*
X123261447Y-142277691D01*
X123258297Y-142298926D01*
X123253081Y-142319750D01*
X123245849Y-142339962D01*
X123236670Y-142359368D01*
X123225634Y-142377781D01*
X123212846Y-142395024D01*
X123198430Y-142410930D01*
X123182524Y-142425346D01*
X123165281Y-142438134D01*
X123146868Y-142449170D01*
X123127462Y-142458349D01*
X123107250Y-142465581D01*
X123086426Y-142470797D01*
X123065191Y-142473947D01*
X123043750Y-142475000D01*
X122606250Y-142475000D01*
X122584809Y-142473947D01*
X122563574Y-142470797D01*
X122542750Y-142465581D01*
X122522538Y-142458349D01*
X122503132Y-142449170D01*
X122484719Y-142438134D01*
X122467476Y-142425346D01*
X122451570Y-142410930D01*
X122437154Y-142395024D01*
X122424366Y-142377781D01*
X122413330Y-142359368D01*
X122404151Y-142339962D01*
X122396919Y-142319750D01*
X122391703Y-142298926D01*
X122388553Y-142277691D01*
X122387500Y-142256250D01*
X122387500Y-141743750D01*
X122388553Y-141722309D01*
X122391703Y-141701074D01*
X122396919Y-141680250D01*
X122404151Y-141660038D01*
X122413330Y-141640632D01*
X122424366Y-141622219D01*
X122437154Y-141604976D01*
X122451570Y-141589070D01*
X122467476Y-141574654D01*
X122484719Y-141561866D01*
X122503132Y-141550830D01*
X122522538Y-141541651D01*
X122542750Y-141534419D01*
X122563574Y-141529203D01*
X122584809Y-141526053D01*
X122606250Y-141525000D01*
X123043750Y-141525000D01*
X123065191Y-141526053D01*
X123065191Y-141526053D01*
G37*
D12*
G04 #@! TD*
G04 #@! TO.P,R4,2*
G04 #@! TO.N,BATTERY_SENSE*
X122825000Y-142000000D03*
D10*
G04 #@! TO.N,BATTERY_SENSE*
G04 #@! TO.C,R5*
G36*
X123065191Y-143526053D02*
X123086426Y-143529203D01*
X123107250Y-143534419D01*
X123127462Y-143541651D01*
X123146868Y-143550830D01*
X123165281Y-143561866D01*
X123182524Y-143574654D01*
X123198430Y-143589070D01*
X123212846Y-143604976D01*
X123225634Y-143622219D01*
X123236670Y-143640632D01*
X123245849Y-143660038D01*
X123253081Y-143680250D01*
X123258297Y-143701074D01*
X123261447Y-143722309D01*
X123262500Y-143743750D01*
X123262500Y-144256250D01*
X123261447Y-144277691D01*
X123258297Y-144298926D01*
X123253081Y-144319750D01*
X123245849Y-144339962D01*
X123236670Y-144359368D01*
X123225634Y-144377781D01*
X123212846Y-144395024D01*
X123198430Y-144410930D01*
X123182524Y-144425346D01*
X123165281Y-144438134D01*
X123146868Y-144449170D01*
X123127462Y-144458349D01*
X123107250Y-144465581D01*
X123086426Y-144470797D01*
X123065191Y-144473947D01*
X123043750Y-144475000D01*
X122606250Y-144475000D01*
X122584809Y-144473947D01*
X122563574Y-144470797D01*
X122542750Y-144465581D01*
X122522538Y-144458349D01*
X122503132Y-144449170D01*
X122484719Y-144438134D01*
X122467476Y-144425346D01*
X122451570Y-144410930D01*
X122437154Y-144395024D01*
X122424366Y-144377781D01*
X122413330Y-144359368D01*
X122404151Y-144339962D01*
X122396919Y-144319750D01*
X122391703Y-144298926D01*
X122388553Y-144277691D01*
X122387500Y-144256250D01*
X122387500Y-143743750D01*
X122388553Y-143722309D01*
X122391703Y-143701074D01*
X122396919Y-143680250D01*
X122404151Y-143660038D01*
X122413330Y-143640632D01*
X122424366Y-143622219D01*
X122437154Y-143604976D01*
X122451570Y-143589070D01*
X122467476Y-143574654D01*
X122484719Y-143561866D01*
X122503132Y-143550830D01*
X122522538Y-143541651D01*
X122542750Y-143534419D01*
X122563574Y-143529203D01*
X122584809Y-143526053D01*
X122606250Y-143525000D01*
X123043750Y-143525000D01*
X123065191Y-143526053D01*
X123065191Y-143526053D01*
G37*
D12*
G04 #@! TD*
G04 #@! TO.P,R5,1*
G04 #@! TO.N,BATTERY_SENSE*
X122825000Y-144000000D03*
D10*
G04 #@! TO.N,GND*
G04 #@! TO.C,R5*
G36*
X121490191Y-143526053D02*
X121511426Y-143529203D01*
X121532250Y-143534419D01*
X121552462Y-143541651D01*
X121571868Y-143550830D01*
X121590281Y-143561866D01*
X121607524Y-143574654D01*
X121623430Y-143589070D01*
X121637846Y-143604976D01*
X121650634Y-143622219D01*
X121661670Y-143640632D01*
X121670849Y-143660038D01*
X121678081Y-143680250D01*
X121683297Y-143701074D01*
X121686447Y-143722309D01*
X121687500Y-143743750D01*
X121687500Y-144256250D01*
X121686447Y-144277691D01*
X121683297Y-144298926D01*
X121678081Y-144319750D01*
X121670849Y-144339962D01*
X121661670Y-144359368D01*
X121650634Y-144377781D01*
X121637846Y-144395024D01*
X121623430Y-144410930D01*
X121607524Y-144425346D01*
X121590281Y-144438134D01*
X121571868Y-144449170D01*
X121552462Y-144458349D01*
X121532250Y-144465581D01*
X121511426Y-144470797D01*
X121490191Y-144473947D01*
X121468750Y-144475000D01*
X121031250Y-144475000D01*
X121009809Y-144473947D01*
X120988574Y-144470797D01*
X120967750Y-144465581D01*
X120947538Y-144458349D01*
X120928132Y-144449170D01*
X120909719Y-144438134D01*
X120892476Y-144425346D01*
X120876570Y-144410930D01*
X120862154Y-144395024D01*
X120849366Y-144377781D01*
X120838330Y-144359368D01*
X120829151Y-144339962D01*
X120821919Y-144319750D01*
X120816703Y-144298926D01*
X120813553Y-144277691D01*
X120812500Y-144256250D01*
X120812500Y-143743750D01*
X120813553Y-143722309D01*
X120816703Y-143701074D01*
X120821919Y-143680250D01*
X120829151Y-143660038D01*
X120838330Y-143640632D01*
X120849366Y-143622219D01*
X120862154Y-143604976D01*
X120876570Y-143589070D01*
X120892476Y-143574654D01*
X120909719Y-143561866D01*
X120928132Y-143550830D01*
X120947538Y-143541651D01*
X120967750Y-143534419D01*
X120988574Y-143529203D01*
X121009809Y-143526053D01*
X121031250Y-143525000D01*
X121468750Y-143525000D01*
X121490191Y-143526053D01*
X121490191Y-143526053D01*
G37*
D12*
G04 #@! TD*
G04 #@! TO.P,R5,2*
G04 #@! TO.N,GND*
X121250000Y-144000000D03*
D10*
G04 #@! TO.N,+3V3*
G04 #@! TO.C,R6*
G36*
X139777691Y-108488553D02*
X139798926Y-108491703D01*
X139819750Y-108496919D01*
X139839962Y-108504151D01*
X139859368Y-108513330D01*
X139877781Y-108524366D01*
X139895024Y-108537154D01*
X139910930Y-108551570D01*
X139925346Y-108567476D01*
X139938134Y-108584719D01*
X139949170Y-108603132D01*
X139958349Y-108622538D01*
X139965581Y-108642750D01*
X139970797Y-108663574D01*
X139973947Y-108684809D01*
X139975000Y-108706250D01*
X139975000Y-109143750D01*
X139973947Y-109165191D01*
X139970797Y-109186426D01*
X139965581Y-109207250D01*
X139958349Y-109227462D01*
X139949170Y-109246868D01*
X139938134Y-109265281D01*
X139925346Y-109282524D01*
X139910930Y-109298430D01*
X139895024Y-109312846D01*
X139877781Y-109325634D01*
X139859368Y-109336670D01*
X139839962Y-109345849D01*
X139819750Y-109353081D01*
X139798926Y-109358297D01*
X139777691Y-109361447D01*
X139756250Y-109362500D01*
X139243750Y-109362500D01*
X139222309Y-109361447D01*
X139201074Y-109358297D01*
X139180250Y-109353081D01*
X139160038Y-109345849D01*
X139140632Y-109336670D01*
X139122219Y-109325634D01*
X139104976Y-109312846D01*
X139089070Y-109298430D01*
X139074654Y-109282524D01*
X139061866Y-109265281D01*
X139050830Y-109246868D01*
X139041651Y-109227462D01*
X139034419Y-109207250D01*
X139029203Y-109186426D01*
X139026053Y-109165191D01*
X139025000Y-109143750D01*
X139025000Y-108706250D01*
X139026053Y-108684809D01*
X139029203Y-108663574D01*
X139034419Y-108642750D01*
X139041651Y-108622538D01*
X139050830Y-108603132D01*
X139061866Y-108584719D01*
X139074654Y-108567476D01*
X139089070Y-108551570D01*
X139104976Y-108537154D01*
X139122219Y-108524366D01*
X139140632Y-108513330D01*
X139160038Y-108504151D01*
X139180250Y-108496919D01*
X139201074Y-108491703D01*
X139222309Y-108488553D01*
X139243750Y-108487500D01*
X139756250Y-108487500D01*
X139777691Y-108488553D01*
X139777691Y-108488553D01*
G37*
D12*
G04 #@! TD*
G04 #@! TO.P,R6,1*
G04 #@! TO.N,+3V3*
X139500000Y-108925000D03*
D10*
G04 #@! TO.N,NRST*
G04 #@! TO.C,R6*
G36*
X139777691Y-110063553D02*
X139798926Y-110066703D01*
X139819750Y-110071919D01*
X139839962Y-110079151D01*
X139859368Y-110088330D01*
X139877781Y-110099366D01*
X139895024Y-110112154D01*
X139910930Y-110126570D01*
X139925346Y-110142476D01*
X139938134Y-110159719D01*
X139949170Y-110178132D01*
X139958349Y-110197538D01*
X139965581Y-110217750D01*
X139970797Y-110238574D01*
X139973947Y-110259809D01*
X139975000Y-110281250D01*
X139975000Y-110718750D01*
X139973947Y-110740191D01*
X139970797Y-110761426D01*
X139965581Y-110782250D01*
X139958349Y-110802462D01*
X139949170Y-110821868D01*
X139938134Y-110840281D01*
X139925346Y-110857524D01*
X139910930Y-110873430D01*
X139895024Y-110887846D01*
X139877781Y-110900634D01*
X139859368Y-110911670D01*
X139839962Y-110920849D01*
X139819750Y-110928081D01*
X139798926Y-110933297D01*
X139777691Y-110936447D01*
X139756250Y-110937500D01*
X139243750Y-110937500D01*
X139222309Y-110936447D01*
X139201074Y-110933297D01*
X139180250Y-110928081D01*
X139160038Y-110920849D01*
X139140632Y-110911670D01*
X139122219Y-110900634D01*
X139104976Y-110887846D01*
X139089070Y-110873430D01*
X139074654Y-110857524D01*
X139061866Y-110840281D01*
X139050830Y-110821868D01*
X139041651Y-110802462D01*
X139034419Y-110782250D01*
X139029203Y-110761426D01*
X139026053Y-110740191D01*
X139025000Y-110718750D01*
X139025000Y-110281250D01*
X139026053Y-110259809D01*
X139029203Y-110238574D01*
X139034419Y-110217750D01*
X139041651Y-110197538D01*
X139050830Y-110178132D01*
X139061866Y-110159719D01*
X139074654Y-110142476D01*
X139089070Y-110126570D01*
X139104976Y-110112154D01*
X139122219Y-110099366D01*
X139140632Y-110088330D01*
X139160038Y-110079151D01*
X139180250Y-110071919D01*
X139201074Y-110066703D01*
X139222309Y-110063553D01*
X139243750Y-110062500D01*
X139756250Y-110062500D01*
X139777691Y-110063553D01*
X139777691Y-110063553D01*
G37*
D12*
G04 #@! TD*
G04 #@! TO.P,R6,2*
G04 #@! TO.N,NRST*
X139500000Y-110500000D03*
D10*
G04 #@! TO.N,GND*
G04 #@! TO.C,R7*
G36*
X139777691Y-104313553D02*
X139798926Y-104316703D01*
X139819750Y-104321919D01*
X139839962Y-104329151D01*
X139859368Y-104338330D01*
X139877781Y-104349366D01*
X139895024Y-104362154D01*
X139910930Y-104376570D01*
X139925346Y-104392476D01*
X139938134Y-104409719D01*
X139949170Y-104428132D01*
X139958349Y-104447538D01*
X139965581Y-104467750D01*
X139970797Y-104488574D01*
X139973947Y-104509809D01*
X139975000Y-104531250D01*
X139975000Y-104968750D01*
X139973947Y-104990191D01*
X139970797Y-105011426D01*
X139965581Y-105032250D01*
X139958349Y-105052462D01*
X139949170Y-105071868D01*
X139938134Y-105090281D01*
X139925346Y-105107524D01*
X139910930Y-105123430D01*
X139895024Y-105137846D01*
X139877781Y-105150634D01*
X139859368Y-105161670D01*
X139839962Y-105170849D01*
X139819750Y-105178081D01*
X139798926Y-105183297D01*
X139777691Y-105186447D01*
X139756250Y-105187500D01*
X139243750Y-105187500D01*
X139222309Y-105186447D01*
X139201074Y-105183297D01*
X139180250Y-105178081D01*
X139160038Y-105170849D01*
X139140632Y-105161670D01*
X139122219Y-105150634D01*
X139104976Y-105137846D01*
X139089070Y-105123430D01*
X139074654Y-105107524D01*
X139061866Y-105090281D01*
X139050830Y-105071868D01*
X139041651Y-105052462D01*
X139034419Y-105032250D01*
X139029203Y-105011426D01*
X139026053Y-104990191D01*
X139025000Y-104968750D01*
X139025000Y-104531250D01*
X139026053Y-104509809D01*
X139029203Y-104488574D01*
X139034419Y-104467750D01*
X139041651Y-104447538D01*
X139050830Y-104428132D01*
X139061866Y-104409719D01*
X139074654Y-104392476D01*
X139089070Y-104376570D01*
X139104976Y-104362154D01*
X139122219Y-104349366D01*
X139140632Y-104338330D01*
X139160038Y-104329151D01*
X139180250Y-104321919D01*
X139201074Y-104316703D01*
X139222309Y-104313553D01*
X139243750Y-104312500D01*
X139756250Y-104312500D01*
X139777691Y-104313553D01*
X139777691Y-104313553D01*
G37*
D12*
G04 #@! TD*
G04 #@! TO.P,R7,2*
G04 #@! TO.N,GND*
X139500000Y-104750000D03*
D10*
G04 #@! TO.N,BOOT0*
G04 #@! TO.C,R7*
G36*
X139777691Y-105888553D02*
X139798926Y-105891703D01*
X139819750Y-105896919D01*
X139839962Y-105904151D01*
X139859368Y-105913330D01*
X139877781Y-105924366D01*
X139895024Y-105937154D01*
X139910930Y-105951570D01*
X139925346Y-105967476D01*
X139938134Y-105984719D01*
X139949170Y-106003132D01*
X139958349Y-106022538D01*
X139965581Y-106042750D01*
X139970797Y-106063574D01*
X139973947Y-106084809D01*
X139975000Y-106106250D01*
X139975000Y-106543750D01*
X139973947Y-106565191D01*
X139970797Y-106586426D01*
X139965581Y-106607250D01*
X139958349Y-106627462D01*
X139949170Y-106646868D01*
X139938134Y-106665281D01*
X139925346Y-106682524D01*
X139910930Y-106698430D01*
X139895024Y-106712846D01*
X139877781Y-106725634D01*
X139859368Y-106736670D01*
X139839962Y-106745849D01*
X139819750Y-106753081D01*
X139798926Y-106758297D01*
X139777691Y-106761447D01*
X139756250Y-106762500D01*
X139243750Y-106762500D01*
X139222309Y-106761447D01*
X139201074Y-106758297D01*
X139180250Y-106753081D01*
X139160038Y-106745849D01*
X139140632Y-106736670D01*
X139122219Y-106725634D01*
X139104976Y-106712846D01*
X139089070Y-106698430D01*
X139074654Y-106682524D01*
X139061866Y-106665281D01*
X139050830Y-106646868D01*
X139041651Y-106627462D01*
X139034419Y-106607250D01*
X139029203Y-106586426D01*
X139026053Y-106565191D01*
X139025000Y-106543750D01*
X139025000Y-106106250D01*
X139026053Y-106084809D01*
X139029203Y-106063574D01*
X139034419Y-106042750D01*
X139041651Y-106022538D01*
X139050830Y-106003132D01*
X139061866Y-105984719D01*
X139074654Y-105967476D01*
X139089070Y-105951570D01*
X139104976Y-105937154D01*
X139122219Y-105924366D01*
X139140632Y-105913330D01*
X139160038Y-105904151D01*
X139180250Y-105896919D01*
X139201074Y-105891703D01*
X139222309Y-105888553D01*
X139243750Y-105887500D01*
X139756250Y-105887500D01*
X139777691Y-105888553D01*
X139777691Y-105888553D01*
G37*
D12*
G04 #@! TD*
G04 #@! TO.P,R7,1*
G04 #@! TO.N,BOOT0*
X139500000Y-106325000D03*
D18*
G04 #@! TO.P,SW1,1*
G04 #@! TO.N,GND*
X149130000Y-112000000D03*
X143370000Y-112000000D03*
G04 #@! TO.P,SW1,2*
G04 #@! TO.N,NRST*
X143370000Y-116000000D03*
X149130000Y-116000000D03*
G04 #@! TD*
G04 #@! TO.P,SW2,2*
G04 #@! TO.N,+3V3*
X149130000Y-107750000D03*
X143370000Y-107750000D03*
G04 #@! TO.P,SW2,1*
G04 #@! TO.N,BOOT0*
X143370000Y-103750000D03*
X149130000Y-103750000D03*
G04 #@! TD*
D19*
G04 #@! TO.P,U1,2*
G04 #@! TO.N,+3V3*
X129250000Y-153650000D03*
D20*
X129250000Y-147350000D03*
G04 #@! TO.P,U1,3*
G04 #@! TO.N,BATTERY*
X126950000Y-147350000D03*
G04 #@! TO.P,U1,1*
G04 #@! TO.N,GND*
X131550000Y-147350000D03*
G04 #@! TD*
D21*
G04 #@! TO.P,U2,1*
G04 #@! TO.N,Net-(U2-Pad1)*
X119350000Y-143950000D03*
G04 #@! TO.P,U2,2*
G04 #@! TO.N,GND*
X119350000Y-143000000D03*
G04 #@! TO.P,U2,3*
G04 #@! TO.N,BATTERY*
X119350000Y-142050000D03*
G04 #@! TO.P,U2,4*
G04 #@! TO.N,SOLAR*
X117150000Y-142050000D03*
G04 #@! TO.P,U2,5*
G04 #@! TO.N,Net-(R3-Pad1)*
X117150000Y-143950000D03*
G04 #@! TD*
D22*
G04 #@! TO.P,U3,1*
G04 #@! TO.N,Net-(Q1-Pad3)*
X113750000Y-103750000D03*
G04 #@! TO.P,U3,2*
G04 #@! TO.N,XB_RX*
X113750000Y-105750000D03*
G04 #@! TO.P,U3,3*
G04 #@! TO.N,XB_TX*
X113750000Y-107750000D03*
G04 #@! TO.P,U3,4*
G04 #@! TO.N,Net-(U3-Pad4)*
X113750000Y-109750000D03*
G04 #@! TO.P,U3,5*
G04 #@! TO.N,XB_RESET*
X113750000Y-111750000D03*
G04 #@! TO.P,U3,6*
G04 #@! TO.N,Net-(U3-Pad6)*
X113750000Y-113750000D03*
G04 #@! TO.P,U3,7*
G04 #@! TO.N,Net-(U3-Pad7)*
X113750000Y-115750000D03*
G04 #@! TO.P,U3,8*
G04 #@! TO.N,Net-(U3-Pad8)*
X113750000Y-117750000D03*
G04 #@! TO.P,U3,9*
G04 #@! TO.N,XB_SLEEP_REQ*
X113750000Y-119750000D03*
G04 #@! TO.P,U3,10*
G04 #@! TO.N,GND*
X113750000Y-121750000D03*
G04 #@! TO.P,U3,11*
G04 #@! TO.N,Net-(U3-Pad11)*
X135750000Y-121750000D03*
G04 #@! TO.P,U3,12*
G04 #@! TO.N,Net-(U3-Pad12)*
X135750000Y-119750000D03*
G04 #@! TO.P,U3,13*
G04 #@! TO.N,XB_ON*
X135750000Y-117750000D03*
G04 #@! TO.P,U3,14*
G04 #@! TO.N,Net-(U3-Pad14)*
X135750000Y-115750000D03*
G04 #@! TO.P,U3,15*
G04 #@! TO.N,Net-(U3-Pad15)*
X135750000Y-113750000D03*
G04 #@! TO.P,U3,16*
G04 #@! TO.N,Net-(U3-Pad16)*
X135750000Y-111750000D03*
G04 #@! TO.P,U3,17*
G04 #@! TO.N,Net-(U3-Pad17)*
X135750000Y-109750000D03*
G04 #@! TO.P,U3,18*
G04 #@! TO.N,Net-(U3-Pad18)*
X135750000Y-107750000D03*
G04 #@! TO.P,U3,19*
G04 #@! TO.N,Net-(U3-Pad19)*
X135750000Y-105750000D03*
G04 #@! TO.P,U3,20*
G04 #@! TO.N,Net-(U3-Pad20)*
X135750000Y-103750000D03*
G04 #@! TD*
D23*
G04 #@! TO.P,U4,1*
G04 #@! TO.N,+3V3*
X128000000Y-129950000D03*
G04 #@! TO.P,U4,2*
G04 #@! TO.N,Net-(C10-Pad2)*
X128000000Y-130750000D03*
G04 #@! TO.P,U4,3*
G04 #@! TO.N,Net-(C11-Pad1)*
X128000000Y-131550000D03*
G04 #@! TO.P,U4,4*
G04 #@! TO.N,NRST*
X128000000Y-132350000D03*
G04 #@! TO.P,U4,5*
G04 #@! TO.N,+3V3*
X128000000Y-133150000D03*
G04 #@! TO.P,U4,6*
G04 #@! TO.N,SOLAR_SENSE*
X128000000Y-133950000D03*
G04 #@! TO.P,U4,7*
G04 #@! TO.N,BATTERY_SENSE*
X128000000Y-134750000D03*
G04 #@! TO.P,U4,8*
G04 #@! TO.N,XB_TX*
X128000000Y-135550000D03*
D24*
G04 #@! TO.P,U4,9*
G04 #@! TO.N,XB_RX*
X129450000Y-137000000D03*
G04 #@! TO.P,U4,10*
G04 #@! TO.N,XB_RESET*
X130250000Y-137000000D03*
G04 #@! TO.P,U4,11*
G04 #@! TO.N,XB_SLEEP_REQ*
X131050000Y-137000000D03*
G04 #@! TO.P,U4,12*
G04 #@! TO.N,XB_ON*
X131850000Y-137000000D03*
G04 #@! TO.P,U4,13*
G04 #@! TO.N,EN_XBEE*
X132650000Y-137000000D03*
G04 #@! TO.P,U4,14*
G04 #@! TO.N,Net-(U4-Pad14)*
X133450000Y-137000000D03*
G04 #@! TO.P,U4,15*
G04 #@! TO.N,Net-(U4-Pad15)*
X134250000Y-137000000D03*
G04 #@! TO.P,U4,16*
G04 #@! TO.N,GND*
X135050000Y-137000000D03*
D23*
G04 #@! TO.P,U4,17*
G04 #@! TO.N,+3V3*
X136500000Y-135550000D03*
G04 #@! TO.P,U4,18*
G04 #@! TO.N,HALL*
X136500000Y-134750000D03*
G04 #@! TO.P,U4,19*
G04 #@! TO.N,I2C_SCL*
X136500000Y-133950000D03*
G04 #@! TO.P,U4,20*
G04 #@! TO.N,I2C_SDA*
X136500000Y-133150000D03*
G04 #@! TO.P,U4,21*
G04 #@! TO.N,EN_PIR*
X136500000Y-132350000D03*
G04 #@! TO.P,U4,22*
G04 #@! TO.N,PIR*
X136500000Y-131550000D03*
G04 #@! TO.P,U4,23*
G04 #@! TO.N,SWDIO*
X136500000Y-130750000D03*
G04 #@! TO.P,U4,24*
G04 #@! TO.N,SWCLK*
X136500000Y-129950000D03*
D24*
G04 #@! TO.P,U4,25*
G04 #@! TO.N,Net-(U4-Pad25)*
X135050000Y-128500000D03*
G04 #@! TO.P,U4,26*
G04 #@! TO.N,Net-(U4-Pad26)*
X134250000Y-128500000D03*
G04 #@! TO.P,U4,27*
G04 #@! TO.N,Net-(U4-Pad27)*
X133450000Y-128500000D03*
G04 #@! TO.P,U4,28*
G04 #@! TO.N,Net-(U4-Pad28)*
X132650000Y-128500000D03*
G04 #@! TO.P,U4,29*
G04 #@! TO.N,Net-(U4-Pad29)*
X131850000Y-128500000D03*
G04 #@! TO.P,U4,30*
G04 #@! TO.N,Net-(U4-Pad30)*
X131050000Y-128500000D03*
G04 #@! TO.P,U4,31*
G04 #@! TO.N,BOOT0*
X130250000Y-128500000D03*
G04 #@! TO.P,U4,32*
G04 #@! TO.N,GND*
X129450000Y-128500000D03*
G04 #@! TD*
D25*
G04 #@! TO.P,Y1,1*
G04 #@! TO.N,Net-(C11-Pad1)*
X125250000Y-132250000D03*
G04 #@! TO.P,Y1,2*
G04 #@! TO.N,Net-(C10-Pad2)*
X125250000Y-129750000D03*
G04 #@! TD*
D26*
G04 #@! TO.P,U5,2*
G04 #@! TO.N,HALL*
X150500000Y-138230000D03*
G04 #@! TO.P,U5,3*
G04 #@! TO.N,GND*
X150500000Y-136960000D03*
D27*
G04 #@! TO.P,U5,1*
G04 #@! TO.N,+3V3*
X150500000Y-139500000D03*
G04 #@! TD*
D10*
G04 #@! TO.N,GND*
G04 #@! TO.C,C10*
G36*
X121941958Y-129430710D02*
X121956276Y-129432834D01*
X121970317Y-129436351D01*
X121983946Y-129441228D01*
X121997031Y-129447417D01*
X122009447Y-129454858D01*
X122021073Y-129463481D01*
X122031798Y-129473202D01*
X122041519Y-129483927D01*
X122050142Y-129495553D01*
X122057583Y-129507969D01*
X122063772Y-129521054D01*
X122068649Y-129534683D01*
X122072166Y-129548724D01*
X122074290Y-129563042D01*
X122075000Y-129577500D01*
X122075000Y-129922500D01*
X122074290Y-129936958D01*
X122072166Y-129951276D01*
X122068649Y-129965317D01*
X122063772Y-129978946D01*
X122057583Y-129992031D01*
X122050142Y-130004447D01*
X122041519Y-130016073D01*
X122031798Y-130026798D01*
X122021073Y-130036519D01*
X122009447Y-130045142D01*
X121997031Y-130052583D01*
X121983946Y-130058772D01*
X121970317Y-130063649D01*
X121956276Y-130067166D01*
X121941958Y-130069290D01*
X121927500Y-130070000D01*
X121632500Y-130070000D01*
X121618042Y-130069290D01*
X121603724Y-130067166D01*
X121589683Y-130063649D01*
X121576054Y-130058772D01*
X121562969Y-130052583D01*
X121550553Y-130045142D01*
X121538927Y-130036519D01*
X121528202Y-130026798D01*
X121518481Y-130016073D01*
X121509858Y-130004447D01*
X121502417Y-129992031D01*
X121496228Y-129978946D01*
X121491351Y-129965317D01*
X121487834Y-129951276D01*
X121485710Y-129936958D01*
X121485000Y-129922500D01*
X121485000Y-129577500D01*
X121485710Y-129563042D01*
X121487834Y-129548724D01*
X121491351Y-129534683D01*
X121496228Y-129521054D01*
X121502417Y-129507969D01*
X121509858Y-129495553D01*
X121518481Y-129483927D01*
X121528202Y-129473202D01*
X121538927Y-129463481D01*
X121550553Y-129454858D01*
X121562969Y-129447417D01*
X121576054Y-129441228D01*
X121589683Y-129436351D01*
X121603724Y-129432834D01*
X121618042Y-129430710D01*
X121632500Y-129430000D01*
X121927500Y-129430000D01*
X121941958Y-129430710D01*
X121941958Y-129430710D01*
G37*
D28*
G04 #@! TD*
G04 #@! TO.P,C10,1*
G04 #@! TO.N,GND*
X121780000Y-129750000D03*
D10*
G04 #@! TO.N,Net-(C10-Pad2)*
G04 #@! TO.C,C10*
G36*
X122911958Y-129430710D02*
X122926276Y-129432834D01*
X122940317Y-129436351D01*
X122953946Y-129441228D01*
X122967031Y-129447417D01*
X122979447Y-129454858D01*
X122991073Y-129463481D01*
X123001798Y-129473202D01*
X123011519Y-129483927D01*
X123020142Y-129495553D01*
X123027583Y-129507969D01*
X123033772Y-129521054D01*
X123038649Y-129534683D01*
X123042166Y-129548724D01*
X123044290Y-129563042D01*
X123045000Y-129577500D01*
X123045000Y-129922500D01*
X123044290Y-129936958D01*
X123042166Y-129951276D01*
X123038649Y-129965317D01*
X123033772Y-129978946D01*
X123027583Y-129992031D01*
X123020142Y-130004447D01*
X123011519Y-130016073D01*
X123001798Y-130026798D01*
X122991073Y-130036519D01*
X122979447Y-130045142D01*
X122967031Y-130052583D01*
X122953946Y-130058772D01*
X122940317Y-130063649D01*
X122926276Y-130067166D01*
X122911958Y-130069290D01*
X122897500Y-130070000D01*
X122602500Y-130070000D01*
X122588042Y-130069290D01*
X122573724Y-130067166D01*
X122559683Y-130063649D01*
X122546054Y-130058772D01*
X122532969Y-130052583D01*
X122520553Y-130045142D01*
X122508927Y-130036519D01*
X122498202Y-130026798D01*
X122488481Y-130016073D01*
X122479858Y-130004447D01*
X122472417Y-129992031D01*
X122466228Y-129978946D01*
X122461351Y-129965317D01*
X122457834Y-129951276D01*
X122455710Y-129936958D01*
X122455000Y-129922500D01*
X122455000Y-129577500D01*
X122455710Y-129563042D01*
X122457834Y-129548724D01*
X122461351Y-129534683D01*
X122466228Y-129521054D01*
X122472417Y-129507969D01*
X122479858Y-129495553D01*
X122488481Y-129483927D01*
X122498202Y-129473202D01*
X122508927Y-129463481D01*
X122520553Y-129454858D01*
X122532969Y-129447417D01*
X122546054Y-129441228D01*
X122559683Y-129436351D01*
X122573724Y-129432834D01*
X122588042Y-129430710D01*
X122602500Y-129430000D01*
X122897500Y-129430000D01*
X122911958Y-129430710D01*
X122911958Y-129430710D01*
G37*
D28*
G04 #@! TD*
G04 #@! TO.P,C10,2*
G04 #@! TO.N,Net-(C10-Pad2)*
X122750000Y-129750000D03*
D10*
G04 #@! TO.N,GND*
G04 #@! TO.C,C11*
G36*
X121941958Y-131930710D02*
X121956276Y-131932834D01*
X121970317Y-131936351D01*
X121983946Y-131941228D01*
X121997031Y-131947417D01*
X122009447Y-131954858D01*
X122021073Y-131963481D01*
X122031798Y-131973202D01*
X122041519Y-131983927D01*
X122050142Y-131995553D01*
X122057583Y-132007969D01*
X122063772Y-132021054D01*
X122068649Y-132034683D01*
X122072166Y-132048724D01*
X122074290Y-132063042D01*
X122075000Y-132077500D01*
X122075000Y-132422500D01*
X122074290Y-132436958D01*
X122072166Y-132451276D01*
X122068649Y-132465317D01*
X122063772Y-132478946D01*
X122057583Y-132492031D01*
X122050142Y-132504447D01*
X122041519Y-132516073D01*
X122031798Y-132526798D01*
X122021073Y-132536519D01*
X122009447Y-132545142D01*
X121997031Y-132552583D01*
X121983946Y-132558772D01*
X121970317Y-132563649D01*
X121956276Y-132567166D01*
X121941958Y-132569290D01*
X121927500Y-132570000D01*
X121632500Y-132570000D01*
X121618042Y-132569290D01*
X121603724Y-132567166D01*
X121589683Y-132563649D01*
X121576054Y-132558772D01*
X121562969Y-132552583D01*
X121550553Y-132545142D01*
X121538927Y-132536519D01*
X121528202Y-132526798D01*
X121518481Y-132516073D01*
X121509858Y-132504447D01*
X121502417Y-132492031D01*
X121496228Y-132478946D01*
X121491351Y-132465317D01*
X121487834Y-132451276D01*
X121485710Y-132436958D01*
X121485000Y-132422500D01*
X121485000Y-132077500D01*
X121485710Y-132063042D01*
X121487834Y-132048724D01*
X121491351Y-132034683D01*
X121496228Y-132021054D01*
X121502417Y-132007969D01*
X121509858Y-131995553D01*
X121518481Y-131983927D01*
X121528202Y-131973202D01*
X121538927Y-131963481D01*
X121550553Y-131954858D01*
X121562969Y-131947417D01*
X121576054Y-131941228D01*
X121589683Y-131936351D01*
X121603724Y-131932834D01*
X121618042Y-131930710D01*
X121632500Y-131930000D01*
X121927500Y-131930000D01*
X121941958Y-131930710D01*
X121941958Y-131930710D01*
G37*
D28*
G04 #@! TD*
G04 #@! TO.P,C11,2*
G04 #@! TO.N,GND*
X121780000Y-132250000D03*
D10*
G04 #@! TO.N,Net-(C11-Pad1)*
G04 #@! TO.C,C11*
G36*
X122911958Y-131930710D02*
X122926276Y-131932834D01*
X122940317Y-131936351D01*
X122953946Y-131941228D01*
X122967031Y-131947417D01*
X122979447Y-131954858D01*
X122991073Y-131963481D01*
X123001798Y-131973202D01*
X123011519Y-131983927D01*
X123020142Y-131995553D01*
X123027583Y-132007969D01*
X123033772Y-132021054D01*
X123038649Y-132034683D01*
X123042166Y-132048724D01*
X123044290Y-132063042D01*
X123045000Y-132077500D01*
X123045000Y-132422500D01*
X123044290Y-132436958D01*
X123042166Y-132451276D01*
X123038649Y-132465317D01*
X123033772Y-132478946D01*
X123027583Y-132492031D01*
X123020142Y-132504447D01*
X123011519Y-132516073D01*
X123001798Y-132526798D01*
X122991073Y-132536519D01*
X122979447Y-132545142D01*
X122967031Y-132552583D01*
X122953946Y-132558772D01*
X122940317Y-132563649D01*
X122926276Y-132567166D01*
X122911958Y-132569290D01*
X122897500Y-132570000D01*
X122602500Y-132570000D01*
X122588042Y-132569290D01*
X122573724Y-132567166D01*
X122559683Y-132563649D01*
X122546054Y-132558772D01*
X122532969Y-132552583D01*
X122520553Y-132545142D01*
X122508927Y-132536519D01*
X122498202Y-132526798D01*
X122488481Y-132516073D01*
X122479858Y-132504447D01*
X122472417Y-132492031D01*
X122466228Y-132478946D01*
X122461351Y-132465317D01*
X122457834Y-132451276D01*
X122455710Y-132436958D01*
X122455000Y-132422500D01*
X122455000Y-132077500D01*
X122455710Y-132063042D01*
X122457834Y-132048724D01*
X122461351Y-132034683D01*
X122466228Y-132021054D01*
X122472417Y-132007969D01*
X122479858Y-131995553D01*
X122488481Y-131983927D01*
X122498202Y-131973202D01*
X122508927Y-131963481D01*
X122520553Y-131954858D01*
X122532969Y-131947417D01*
X122546054Y-131941228D01*
X122559683Y-131936351D01*
X122573724Y-131932834D01*
X122588042Y-131930710D01*
X122602500Y-131930000D01*
X122897500Y-131930000D01*
X122911958Y-131930710D01*
X122911958Y-131930710D01*
G37*
D28*
G04 #@! TD*
G04 #@! TO.P,C11,1*
G04 #@! TO.N,Net-(C11-Pad1)*
X122750000Y-132250000D03*
D10*
G04 #@! TO.N,+3V3*
G04 #@! TO.C,C6*
G36*
X137392642Y-139301174D02*
X137416303Y-139304684D01*
X137439507Y-139310496D01*
X137462029Y-139318554D01*
X137483653Y-139328782D01*
X137504170Y-139341079D01*
X137523383Y-139355329D01*
X137541107Y-139371393D01*
X137557171Y-139389117D01*
X137571421Y-139408330D01*
X137583718Y-139428847D01*
X137593946Y-139450471D01*
X137602004Y-139472993D01*
X137607816Y-139496197D01*
X137611326Y-139519858D01*
X137612500Y-139543750D01*
X137612500Y-140456250D01*
X137611326Y-140480142D01*
X137607816Y-140503803D01*
X137602004Y-140527007D01*
X137593946Y-140549529D01*
X137583718Y-140571153D01*
X137571421Y-140591670D01*
X137557171Y-140610883D01*
X137541107Y-140628607D01*
X137523383Y-140644671D01*
X137504170Y-140658921D01*
X137483653Y-140671218D01*
X137462029Y-140681446D01*
X137439507Y-140689504D01*
X137416303Y-140695316D01*
X137392642Y-140698826D01*
X137368750Y-140700000D01*
X136881250Y-140700000D01*
X136857358Y-140698826D01*
X136833697Y-140695316D01*
X136810493Y-140689504D01*
X136787971Y-140681446D01*
X136766347Y-140671218D01*
X136745830Y-140658921D01*
X136726617Y-140644671D01*
X136708893Y-140628607D01*
X136692829Y-140610883D01*
X136678579Y-140591670D01*
X136666282Y-140571153D01*
X136656054Y-140549529D01*
X136647996Y-140527007D01*
X136642184Y-140503803D01*
X136638674Y-140480142D01*
X136637500Y-140456250D01*
X136637500Y-139543750D01*
X136638674Y-139519858D01*
X136642184Y-139496197D01*
X136647996Y-139472993D01*
X136656054Y-139450471D01*
X136666282Y-139428847D01*
X136678579Y-139408330D01*
X136692829Y-139389117D01*
X136708893Y-139371393D01*
X136726617Y-139355329D01*
X136745830Y-139341079D01*
X136766347Y-139328782D01*
X136787971Y-139318554D01*
X136810493Y-139310496D01*
X136833697Y-139304684D01*
X136857358Y-139301174D01*
X136881250Y-139300000D01*
X137368750Y-139300000D01*
X137392642Y-139301174D01*
X137392642Y-139301174D01*
G37*
D11*
G04 #@! TD*
G04 #@! TO.P,C6,1*
G04 #@! TO.N,+3V3*
X137125000Y-140000000D03*
D10*
G04 #@! TO.N,GND*
G04 #@! TO.C,C6*
G36*
X135517642Y-139301174D02*
X135541303Y-139304684D01*
X135564507Y-139310496D01*
X135587029Y-139318554D01*
X135608653Y-139328782D01*
X135629170Y-139341079D01*
X135648383Y-139355329D01*
X135666107Y-139371393D01*
X135682171Y-139389117D01*
X135696421Y-139408330D01*
X135708718Y-139428847D01*
X135718946Y-139450471D01*
X135727004Y-139472993D01*
X135732816Y-139496197D01*
X135736326Y-139519858D01*
X135737500Y-139543750D01*
X135737500Y-140456250D01*
X135736326Y-140480142D01*
X135732816Y-140503803D01*
X135727004Y-140527007D01*
X135718946Y-140549529D01*
X135708718Y-140571153D01*
X135696421Y-140591670D01*
X135682171Y-140610883D01*
X135666107Y-140628607D01*
X135648383Y-140644671D01*
X135629170Y-140658921D01*
X135608653Y-140671218D01*
X135587029Y-140681446D01*
X135564507Y-140689504D01*
X135541303Y-140695316D01*
X135517642Y-140698826D01*
X135493750Y-140700000D01*
X135006250Y-140700000D01*
X134982358Y-140698826D01*
X134958697Y-140695316D01*
X134935493Y-140689504D01*
X134912971Y-140681446D01*
X134891347Y-140671218D01*
X134870830Y-140658921D01*
X134851617Y-140644671D01*
X134833893Y-140628607D01*
X134817829Y-140610883D01*
X134803579Y-140591670D01*
X134791282Y-140571153D01*
X134781054Y-140549529D01*
X134772996Y-140527007D01*
X134767184Y-140503803D01*
X134763674Y-140480142D01*
X134762500Y-140456250D01*
X134762500Y-139543750D01*
X134763674Y-139519858D01*
X134767184Y-139496197D01*
X134772996Y-139472993D01*
X134781054Y-139450471D01*
X134791282Y-139428847D01*
X134803579Y-139408330D01*
X134817829Y-139389117D01*
X134833893Y-139371393D01*
X134851617Y-139355329D01*
X134870830Y-139341079D01*
X134891347Y-139328782D01*
X134912971Y-139318554D01*
X134935493Y-139310496D01*
X134958697Y-139304684D01*
X134982358Y-139301174D01*
X135006250Y-139300000D01*
X135493750Y-139300000D01*
X135517642Y-139301174D01*
X135517642Y-139301174D01*
G37*
D11*
G04 #@! TD*
G04 #@! TO.P,C6,2*
G04 #@! TO.N,GND*
X135250000Y-140000000D03*
D10*
G04 #@! TO.N,GND*
G04 #@! TO.C,C8*
G36*
X135665191Y-142526053D02*
X135686426Y-142529203D01*
X135707250Y-142534419D01*
X135727462Y-142541651D01*
X135746868Y-142550830D01*
X135765281Y-142561866D01*
X135782524Y-142574654D01*
X135798430Y-142589070D01*
X135812846Y-142604976D01*
X135825634Y-142622219D01*
X135836670Y-142640632D01*
X135845849Y-142660038D01*
X135853081Y-142680250D01*
X135858297Y-142701074D01*
X135861447Y-142722309D01*
X135862500Y-142743750D01*
X135862500Y-143256250D01*
X135861447Y-143277691D01*
X135858297Y-143298926D01*
X135853081Y-143319750D01*
X135845849Y-143339962D01*
X135836670Y-143359368D01*
X135825634Y-143377781D01*
X135812846Y-143395024D01*
X135798430Y-143410930D01*
X135782524Y-143425346D01*
X135765281Y-143438134D01*
X135746868Y-143449170D01*
X135727462Y-143458349D01*
X135707250Y-143465581D01*
X135686426Y-143470797D01*
X135665191Y-143473947D01*
X135643750Y-143475000D01*
X135206250Y-143475000D01*
X135184809Y-143473947D01*
X135163574Y-143470797D01*
X135142750Y-143465581D01*
X135122538Y-143458349D01*
X135103132Y-143449170D01*
X135084719Y-143438134D01*
X135067476Y-143425346D01*
X135051570Y-143410930D01*
X135037154Y-143395024D01*
X135024366Y-143377781D01*
X135013330Y-143359368D01*
X135004151Y-143339962D01*
X134996919Y-143319750D01*
X134991703Y-143298926D01*
X134988553Y-143277691D01*
X134987500Y-143256250D01*
X134987500Y-142743750D01*
X134988553Y-142722309D01*
X134991703Y-142701074D01*
X134996919Y-142680250D01*
X135004151Y-142660038D01*
X135013330Y-142640632D01*
X135024366Y-142622219D01*
X135037154Y-142604976D01*
X135051570Y-142589070D01*
X135067476Y-142574654D01*
X135084719Y-142561866D01*
X135103132Y-142550830D01*
X135122538Y-142541651D01*
X135142750Y-142534419D01*
X135163574Y-142529203D01*
X135184809Y-142526053D01*
X135206250Y-142525000D01*
X135643750Y-142525000D01*
X135665191Y-142526053D01*
X135665191Y-142526053D01*
G37*
D12*
G04 #@! TD*
G04 #@! TO.P,C8,2*
G04 #@! TO.N,GND*
X135425000Y-143000000D03*
D10*
G04 #@! TO.N,+3V3*
G04 #@! TO.C,C8*
G36*
X137240191Y-142526053D02*
X137261426Y-142529203D01*
X137282250Y-142534419D01*
X137302462Y-142541651D01*
X137321868Y-142550830D01*
X137340281Y-142561866D01*
X137357524Y-142574654D01*
X137373430Y-142589070D01*
X137387846Y-142604976D01*
X137400634Y-142622219D01*
X137411670Y-142640632D01*
X137420849Y-142660038D01*
X137428081Y-142680250D01*
X137433297Y-142701074D01*
X137436447Y-142722309D01*
X137437500Y-142743750D01*
X137437500Y-143256250D01*
X137436447Y-143277691D01*
X137433297Y-143298926D01*
X137428081Y-143319750D01*
X137420849Y-143339962D01*
X137411670Y-143359368D01*
X137400634Y-143377781D01*
X137387846Y-143395024D01*
X137373430Y-143410930D01*
X137357524Y-143425346D01*
X137340281Y-143438134D01*
X137321868Y-143449170D01*
X137302462Y-143458349D01*
X137282250Y-143465581D01*
X137261426Y-143470797D01*
X137240191Y-143473947D01*
X137218750Y-143475000D01*
X136781250Y-143475000D01*
X136759809Y-143473947D01*
X136738574Y-143470797D01*
X136717750Y-143465581D01*
X136697538Y-143458349D01*
X136678132Y-143449170D01*
X136659719Y-143438134D01*
X136642476Y-143425346D01*
X136626570Y-143410930D01*
X136612154Y-143395024D01*
X136599366Y-143377781D01*
X136588330Y-143359368D01*
X136579151Y-143339962D01*
X136571919Y-143319750D01*
X136566703Y-143298926D01*
X136563553Y-143277691D01*
X136562500Y-143256250D01*
X136562500Y-142743750D01*
X136563553Y-142722309D01*
X136566703Y-142701074D01*
X136571919Y-142680250D01*
X136579151Y-142660038D01*
X136588330Y-142640632D01*
X136599366Y-142622219D01*
X136612154Y-142604976D01*
X136626570Y-142589070D01*
X136642476Y-142574654D01*
X136659719Y-142561866D01*
X136678132Y-142550830D01*
X136697538Y-142541651D01*
X136717750Y-142534419D01*
X136738574Y-142529203D01*
X136759809Y-142526053D01*
X136781250Y-142525000D01*
X137218750Y-142525000D01*
X137240191Y-142526053D01*
X137240191Y-142526053D01*
G37*
D12*
G04 #@! TD*
G04 #@! TO.P,C8,1*
G04 #@! TO.N,+3V3*
X137000000Y-143000000D03*
D10*
G04 #@! TO.N,GND*
G04 #@! TO.C,C9*
G36*
X139777691Y-112738553D02*
X139798926Y-112741703D01*
X139819750Y-112746919D01*
X139839962Y-112754151D01*
X139859368Y-112763330D01*
X139877781Y-112774366D01*
X139895024Y-112787154D01*
X139910930Y-112801570D01*
X139925346Y-112817476D01*
X139938134Y-112834719D01*
X139949170Y-112853132D01*
X139958349Y-112872538D01*
X139965581Y-112892750D01*
X139970797Y-112913574D01*
X139973947Y-112934809D01*
X139975000Y-112956250D01*
X139975000Y-113393750D01*
X139973947Y-113415191D01*
X139970797Y-113436426D01*
X139965581Y-113457250D01*
X139958349Y-113477462D01*
X139949170Y-113496868D01*
X139938134Y-113515281D01*
X139925346Y-113532524D01*
X139910930Y-113548430D01*
X139895024Y-113562846D01*
X139877781Y-113575634D01*
X139859368Y-113586670D01*
X139839962Y-113595849D01*
X139819750Y-113603081D01*
X139798926Y-113608297D01*
X139777691Y-113611447D01*
X139756250Y-113612500D01*
X139243750Y-113612500D01*
X139222309Y-113611447D01*
X139201074Y-113608297D01*
X139180250Y-113603081D01*
X139160038Y-113595849D01*
X139140632Y-113586670D01*
X139122219Y-113575634D01*
X139104976Y-113562846D01*
X139089070Y-113548430D01*
X139074654Y-113532524D01*
X139061866Y-113515281D01*
X139050830Y-113496868D01*
X139041651Y-113477462D01*
X139034419Y-113457250D01*
X139029203Y-113436426D01*
X139026053Y-113415191D01*
X139025000Y-113393750D01*
X139025000Y-112956250D01*
X139026053Y-112934809D01*
X139029203Y-112913574D01*
X139034419Y-112892750D01*
X139041651Y-112872538D01*
X139050830Y-112853132D01*
X139061866Y-112834719D01*
X139074654Y-112817476D01*
X139089070Y-112801570D01*
X139104976Y-112787154D01*
X139122219Y-112774366D01*
X139140632Y-112763330D01*
X139160038Y-112754151D01*
X139180250Y-112746919D01*
X139201074Y-112741703D01*
X139222309Y-112738553D01*
X139243750Y-112737500D01*
X139756250Y-112737500D01*
X139777691Y-112738553D01*
X139777691Y-112738553D01*
G37*
D12*
G04 #@! TD*
G04 #@! TO.P,C9,1*
G04 #@! TO.N,GND*
X139500000Y-113175000D03*
D10*
G04 #@! TO.N,NRST*
G04 #@! TO.C,C9*
G36*
X139777691Y-114313553D02*
X139798926Y-114316703D01*
X139819750Y-114321919D01*
X139839962Y-114329151D01*
X139859368Y-114338330D01*
X139877781Y-114349366D01*
X139895024Y-114362154D01*
X139910930Y-114376570D01*
X139925346Y-114392476D01*
X139938134Y-114409719D01*
X139949170Y-114428132D01*
X139958349Y-114447538D01*
X139965581Y-114467750D01*
X139970797Y-114488574D01*
X139973947Y-114509809D01*
X139975000Y-114531250D01*
X139975000Y-114968750D01*
X139973947Y-114990191D01*
X139970797Y-115011426D01*
X139965581Y-115032250D01*
X139958349Y-115052462D01*
X139949170Y-115071868D01*
X139938134Y-115090281D01*
X139925346Y-115107524D01*
X139910930Y-115123430D01*
X139895024Y-115137846D01*
X139877781Y-115150634D01*
X139859368Y-115161670D01*
X139839962Y-115170849D01*
X139819750Y-115178081D01*
X139798926Y-115183297D01*
X139777691Y-115186447D01*
X139756250Y-115187500D01*
X139243750Y-115187500D01*
X139222309Y-115186447D01*
X139201074Y-115183297D01*
X139180250Y-115178081D01*
X139160038Y-115170849D01*
X139140632Y-115161670D01*
X139122219Y-115150634D01*
X139104976Y-115137846D01*
X139089070Y-115123430D01*
X139074654Y-115107524D01*
X139061866Y-115090281D01*
X139050830Y-115071868D01*
X139041651Y-115052462D01*
X139034419Y-115032250D01*
X139029203Y-115011426D01*
X139026053Y-114990191D01*
X139025000Y-114968750D01*
X139025000Y-114531250D01*
X139026053Y-114509809D01*
X139029203Y-114488574D01*
X139034419Y-114467750D01*
X139041651Y-114447538D01*
X139050830Y-114428132D01*
X139061866Y-114409719D01*
X139074654Y-114392476D01*
X139089070Y-114376570D01*
X139104976Y-114362154D01*
X139122219Y-114349366D01*
X139140632Y-114338330D01*
X139160038Y-114329151D01*
X139180250Y-114321919D01*
X139201074Y-114316703D01*
X139222309Y-114313553D01*
X139243750Y-114312500D01*
X139756250Y-114312500D01*
X139777691Y-114313553D01*
X139777691Y-114313553D01*
G37*
D12*
G04 #@! TD*
G04 #@! TO.P,C9,2*
G04 #@! TO.N,NRST*
X139500000Y-114750000D03*
D29*
G04 #@! TO.N,GND*
X113000000Y-135250000D03*
X146250000Y-112000000D03*
X139762660Y-102987340D03*
X136500000Y-137000000D03*
X142000000Y-118500000D03*
G04 #@! TO.N,+3V3*
X133500000Y-154000000D03*
X129250000Y-145250000D03*
X136000000Y-144500000D03*
X146750000Y-133250000D03*
X143250000Y-109750000D03*
X138000000Y-102250000D03*
G04 #@! TO.N,NRST*
X133750000Y-132250000D03*
G04 #@! TO.N,EN_XBEE*
X117750000Y-107750000D03*
X133000000Y-135000014D03*
G04 #@! TO.N,XB_RX*
X129500000Y-138750000D03*
G04 #@! TO.N,XB_TX*
X126250000Y-137750000D03*
X116750000Y-110750000D03*
G04 #@! TO.N,XB_RESET*
X130250000Y-140000000D03*
G04 #@! TO.N,XB_SLEEP_REQ*
X131000000Y-141000000D03*
G04 #@! TO.N,XB_ON*
X131592739Y-134691061D03*
G04 #@! TO.N,HALL*
X139000000Y-138250000D03*
G04 #@! TD*
D30*
G04 #@! TO.N,SOLAR*
X117150000Y-142625000D02*
X117150000Y-142050000D01*
X116275000Y-143500000D02*
X117150000Y-142625000D01*
X111250000Y-143500000D02*
X116275000Y-143500000D01*
X117150000Y-138775000D02*
X117125000Y-138750000D01*
X117150000Y-142050000D02*
X117150000Y-138775000D01*
X111250000Y-140287500D02*
X110462500Y-139500000D01*
X111250000Y-143500000D02*
X111250000Y-140287500D01*
G04 #@! TO.N,GND*
X115210000Y-146040000D02*
X115250000Y-146000000D01*
X111250000Y-146040000D02*
X115210000Y-146040000D01*
X117001614Y-145538388D02*
X118250000Y-144290002D01*
X115711612Y-145538388D02*
X117001614Y-145538388D01*
X115250000Y-146000000D02*
X115711612Y-145538388D01*
X118250000Y-143320000D02*
X118570000Y-143000000D01*
X118250000Y-144290002D02*
X118250000Y-143320000D01*
X120250000Y-143000000D02*
X121250000Y-144000000D01*
X119350000Y-143000000D02*
X120250000Y-143000000D01*
X121250000Y-148250000D02*
X121000000Y-148500000D01*
X121250000Y-144000000D02*
X121250000Y-148250000D01*
X117000000Y-136750000D02*
X119000000Y-138750000D01*
X112000000Y-136750000D02*
X117000000Y-136750000D01*
X120500000Y-137250000D02*
X121500000Y-137250000D01*
X119000000Y-138750000D02*
X120500000Y-137250000D01*
X118443763Y-139306237D02*
X119000000Y-138750000D01*
X118443763Y-142873763D02*
X118443763Y-139306237D01*
X118570000Y-143000000D02*
X118443763Y-142873763D01*
X119350000Y-143000000D02*
X118570000Y-143000000D01*
X131550000Y-144137500D02*
X131937500Y-143750000D01*
X131550000Y-147350000D02*
X131550000Y-144137500D01*
X136130000Y-150930000D02*
X136130000Y-153250000D01*
X132550000Y-147350000D02*
X136130000Y-150930000D01*
X131550000Y-147350000D02*
X132550000Y-147350000D01*
X112000000Y-136250000D02*
X113000000Y-135250000D01*
X112000000Y-136750000D02*
X112000000Y-136250000D01*
X130912490Y-142724990D02*
X131937500Y-143750000D01*
X127700010Y-142724990D02*
X130912490Y-142724990D01*
X126425000Y-144000000D02*
X127700010Y-142724990D01*
X134675000Y-143750000D02*
X135425000Y-143000000D01*
X131937500Y-143750000D02*
X134675000Y-143750000D01*
X135425000Y-140175000D02*
X135250000Y-140000000D01*
X135425000Y-143000000D02*
X135425000Y-140175000D01*
X135250000Y-137200000D02*
X135050000Y-137000000D01*
X135250000Y-140000000D02*
X135250000Y-137200000D01*
X144750000Y-122420000D02*
X150000000Y-122420000D01*
X123000000Y-125250000D02*
X122750000Y-125500000D01*
X129000000Y-128500000D02*
X129450000Y-128500000D01*
X125750000Y-125250000D02*
X129000000Y-128500000D01*
X125750000Y-125250000D02*
X123000000Y-125250000D01*
X121780000Y-125895000D02*
X121780000Y-129750000D01*
X122175000Y-125500000D02*
X121780000Y-125895000D01*
X122750000Y-125500000D02*
X122175000Y-125500000D01*
X121780000Y-129750000D02*
X121780000Y-132250000D01*
X119000000Y-121750000D02*
X113750000Y-121750000D01*
X122750000Y-125500000D02*
X119000000Y-121750000D01*
X140675000Y-112000000D02*
X143370000Y-112000000D01*
X139500000Y-113175000D02*
X140675000Y-112000000D01*
X150849999Y-112094999D02*
X150849999Y-121570001D01*
X150755000Y-112000000D02*
X150849999Y-112094999D01*
X150849999Y-121570001D02*
X150000000Y-122420000D01*
X149130000Y-112000000D02*
X150755000Y-112000000D01*
X151775001Y-124195001D02*
X150849999Y-123269999D01*
X151775001Y-134909999D02*
X151775001Y-124195001D01*
X150849999Y-123269999D02*
X150000000Y-122420000D01*
X150500000Y-136185000D02*
X151775001Y-134909999D01*
X150500000Y-136960000D02*
X150500000Y-136185000D01*
X143370000Y-112000000D02*
X146250000Y-112000000D01*
X146250000Y-112000000D02*
X149130000Y-112000000D01*
X139500000Y-104750000D02*
X139500000Y-103250000D01*
X139500000Y-103250000D02*
X139762660Y-102987340D01*
X136500000Y-137000000D02*
X135050000Y-137000000D01*
X142000000Y-118500000D02*
X141750000Y-118750000D01*
G04 #@! TO.N,BATTERY*
X119350000Y-141275000D02*
X121500000Y-139125000D01*
X119350000Y-142050000D02*
X119350000Y-141275000D01*
X121200000Y-142050000D02*
X121250000Y-142000000D01*
X119350000Y-142050000D02*
X121200000Y-142050000D01*
X120200010Y-149700010D02*
X119000000Y-148500000D01*
X121383151Y-149700010D02*
X120200010Y-149700010D01*
X122012510Y-149070651D02*
X121383151Y-149700010D01*
X121250000Y-142000000D02*
X122012510Y-142762510D01*
X124300000Y-149000000D02*
X122012510Y-149000000D01*
X125950000Y-147350000D02*
X124300000Y-149000000D01*
X126950000Y-147350000D02*
X125950000Y-147350000D01*
X122012510Y-149000000D02*
X122012510Y-149070651D01*
X122012510Y-142762510D02*
X122012510Y-149000000D01*
X128000000Y-144000000D02*
X128000000Y-144750000D01*
X126950000Y-145800000D02*
X126950000Y-147350000D01*
X128000000Y-144750000D02*
X126950000Y-145800000D01*
G04 #@! TO.N,+3V3*
X129250000Y-153650000D02*
X129250000Y-147350000D01*
X129250000Y-144562500D02*
X130062500Y-143750000D01*
X133150000Y-153650000D02*
X133500000Y-154000000D01*
X129250000Y-153650000D02*
X133150000Y-153650000D01*
X137000000Y-140125000D02*
X137125000Y-140000000D01*
X137000000Y-143000000D02*
X137000000Y-140125000D01*
X129250000Y-147350000D02*
X129250000Y-145250000D01*
X129250000Y-145250000D02*
X129250000Y-144562500D01*
X136000000Y-144000000D02*
X137000000Y-143000000D01*
X136000000Y-144500000D02*
X136000000Y-144000000D01*
X128000000Y-129375000D02*
X125750000Y-127125000D01*
X128000000Y-129950000D02*
X128000000Y-129375000D01*
X122800000Y-127125000D02*
X122750000Y-127075000D01*
X125750000Y-127125000D02*
X122800000Y-127125000D01*
X140675000Y-107750000D02*
X143370000Y-107750000D01*
X139500000Y-108925000D02*
X140675000Y-107750000D01*
X143370000Y-107750000D02*
X149130000Y-107750000D01*
X148800000Y-133250000D02*
X149000000Y-133450000D01*
X146750000Y-133250000D02*
X148800000Y-133250000D01*
X150275000Y-139500000D02*
X150500000Y-139500000D01*
X149000000Y-138225000D02*
X150275000Y-139500000D01*
X149000000Y-133450000D02*
X149000000Y-138225000D01*
X143250000Y-107870000D02*
X143370000Y-107750000D01*
X143250000Y-109750000D02*
X143250000Y-107870000D01*
X119750000Y-102900000D02*
X119750000Y-103550000D01*
X120400000Y-102250000D02*
X119750000Y-102900000D01*
X138000000Y-102250000D02*
X120400000Y-102250000D01*
X137681237Y-139443763D02*
X137681237Y-136431237D01*
X137681237Y-136431237D02*
X136800000Y-135550000D01*
X137125000Y-140000000D02*
X137681237Y-139443763D01*
X136800000Y-135550000D02*
X136500000Y-135550000D01*
X133250000Y-133150000D02*
X134760369Y-134660369D01*
X128000000Y-133150000D02*
X133250000Y-133150000D01*
X134760369Y-134660369D02*
X135650000Y-135550000D01*
X135650000Y-135550000D02*
X136500000Y-135550000D01*
X134760369Y-132187367D02*
X134760369Y-134660369D01*
X128000000Y-129950000D02*
X132523002Y-129950000D01*
X132523002Y-129950000D02*
X134760369Y-132187367D01*
G04 #@! TO.N,NRST*
X143370000Y-115250000D02*
X143370000Y-116000000D01*
X142870000Y-114750000D02*
X143370000Y-115250000D01*
X139500000Y-114750000D02*
X142870000Y-114750000D01*
X143370000Y-116000000D02*
X149130000Y-116000000D01*
X138699990Y-113949990D02*
X139500000Y-114750000D01*
X138699990Y-111300010D02*
X138699990Y-113949990D01*
X139500000Y-110500000D02*
X138699990Y-111300010D01*
X143370000Y-116750000D02*
X143370000Y-116000000D01*
X143385001Y-116765001D02*
X143370000Y-116750000D01*
X143385001Y-123595001D02*
X143385001Y-116765001D01*
X144750000Y-124960000D02*
X143385001Y-123595001D01*
X133650000Y-132350000D02*
X133250000Y-132350000D01*
X133250000Y-132350000D02*
X133475319Y-132350000D01*
X133750000Y-132250000D02*
X133650000Y-132350000D01*
X128000000Y-132350000D02*
X133250000Y-132350000D01*
G04 #@! TO.N,I2C_SDA*
X141210000Y-153250000D02*
X141210000Y-134960000D01*
X139400000Y-133150000D02*
X136500000Y-133150000D01*
X141210000Y-134960000D02*
X139400000Y-133150000D01*
G04 #@! TO.N,I2C_SCL*
X138670000Y-152047919D02*
X140250000Y-150467919D01*
X138670000Y-153250000D02*
X138670000Y-152047919D01*
X140250000Y-150467919D02*
X140250000Y-135000000D01*
X139200000Y-133950000D02*
X136500000Y-133950000D01*
X140250000Y-135000000D02*
X139200000Y-133950000D01*
G04 #@! TO.N,Net-(J4-Pad1)*
X150950000Y-132500000D02*
X151000000Y-132500000D01*
X150000000Y-131550000D02*
X150950000Y-132500000D01*
X150000000Y-127500000D02*
X150000000Y-131550000D01*
G04 #@! TO.N,PIR*
X137350000Y-131550000D02*
X137400000Y-131500000D01*
X136500000Y-131550000D02*
X137350000Y-131550000D01*
X137400000Y-131500000D02*
X146500000Y-131500000D01*
X146500000Y-131500000D02*
X147750000Y-130250000D01*
X147750000Y-127210000D02*
X150000000Y-124960000D01*
X147750000Y-130250000D02*
X147750000Y-127210000D01*
G04 #@! TO.N,SWDIO*
X138960000Y-130750000D02*
X142210000Y-127500000D01*
X136500000Y-130750000D02*
X138960000Y-130750000D01*
G04 #@! TO.N,SWCLK*
X141360001Y-125809999D02*
X142210000Y-124960000D01*
X137220000Y-129950000D02*
X141360001Y-125809999D01*
X136500000Y-129950000D02*
X137220000Y-129950000D01*
G04 #@! TO.N,EN_XBEE*
X117750000Y-107400000D02*
X117750000Y-107750000D01*
X119700000Y-105450000D02*
X117750000Y-107400000D01*
X119750000Y-105450000D02*
X119700000Y-105450000D01*
X132650000Y-135350014D02*
X133000000Y-135000014D01*
X132650000Y-137000000D02*
X132650000Y-135350014D01*
G04 #@! TO.N,Net-(Q1-Pad3)*
X117750000Y-103850000D02*
X117750000Y-104500000D01*
X117650000Y-103750000D02*
X117750000Y-103850000D01*
X113750000Y-103750000D02*
X117650000Y-103750000D01*
G04 #@! TO.N,EN_PIR*
X149000000Y-132200000D02*
X149000000Y-131550000D01*
X148850000Y-132350000D02*
X149000000Y-132200000D01*
X136500000Y-132350000D02*
X148850000Y-132350000D01*
G04 #@! TO.N,SOLAR_SENSE*
X112037500Y-138362500D02*
X110425000Y-136750000D01*
X112037500Y-139500000D02*
X112037500Y-138362500D01*
X113225000Y-133950000D02*
X128000000Y-133950000D01*
X110425000Y-136750000D02*
X113225000Y-133950000D01*
G04 #@! TO.N,Net-(R3-Pad1)*
X116675000Y-144425000D02*
X117150000Y-143950000D01*
X115250000Y-144425000D02*
X116675000Y-144425000D01*
G04 #@! TO.N,BATTERY_SENSE*
X127150000Y-134750000D02*
X128000000Y-134750000D01*
X122825000Y-139075000D02*
X127150000Y-134750000D01*
X122825000Y-142000000D02*
X122825000Y-139075000D01*
X122825000Y-142000000D02*
X122825000Y-144000000D01*
G04 #@! TO.N,BOOT0*
X144245000Y-103750000D02*
X149130000Y-103750000D01*
X143370000Y-103750000D02*
X144245000Y-103750000D01*
X143370000Y-104500000D02*
X143370000Y-103750000D01*
X141545000Y-106325000D02*
X143370000Y-104500000D01*
X139500000Y-106325000D02*
X141545000Y-106325000D01*
X130250000Y-127650000D02*
X131400000Y-126500000D01*
X130250000Y-128500000D02*
X130250000Y-127650000D01*
X131400000Y-126500000D02*
X135500000Y-126500000D01*
X135500000Y-126500000D02*
X138000000Y-124000000D01*
X138000000Y-107825000D02*
X139500000Y-106325000D01*
X138000000Y-124000000D02*
X138000000Y-107825000D01*
G04 #@! TO.N,XB_RX*
X129450000Y-138700000D02*
X129500000Y-138750000D01*
X129450000Y-137000000D02*
X129450000Y-138700000D01*
G04 #@! TO.N,XB_TX*
X126350000Y-137750000D02*
X126250000Y-137750000D01*
X128000000Y-136100000D02*
X126350000Y-137750000D01*
X128000000Y-135550000D02*
X128000000Y-136100000D01*
X116750000Y-110750000D02*
X113750000Y-107750000D01*
G04 #@! TO.N,XB_RESET*
X130250000Y-137000000D02*
X130250000Y-140000000D01*
G04 #@! TO.N,XB_SLEEP_REQ*
X131050000Y-140950000D02*
X131000000Y-141000000D01*
X131050000Y-137000000D02*
X131050000Y-140950000D01*
G04 #@! TO.N,XB_ON*
X131850000Y-137000000D02*
X131850000Y-134948322D01*
X131850000Y-134948322D02*
X131592739Y-134691061D01*
G04 #@! TO.N,HALL*
X139000000Y-138250000D02*
X139000000Y-135500000D01*
X138250000Y-134750000D02*
X136500000Y-134750000D01*
X139000000Y-135500000D02*
X138250000Y-134750000D01*
G04 #@! TO.N,Net-(C10-Pad2)*
X122750000Y-129750000D02*
X125250000Y-129750000D01*
X127400000Y-130750000D02*
X128000000Y-130750000D01*
X126400000Y-129750000D02*
X127400000Y-130750000D01*
X125250000Y-129750000D02*
X126400000Y-129750000D01*
G04 #@! TO.N,Net-(C11-Pad1)*
X122750000Y-132250000D02*
X125250000Y-132250000D01*
X127100000Y-131550000D02*
X128000000Y-131550000D01*
X126400000Y-132250000D02*
X127100000Y-131550000D01*
X125250000Y-132250000D02*
X126400000Y-132250000D01*
G04 #@! TD*
D31*
G04 #@! TO.N,GND*
G36*
X145715000Y-133455874D02*
X145872569Y-133836280D01*
X146163720Y-134127431D01*
X146544126Y-134285000D01*
X146955874Y-134285000D01*
X147336280Y-134127431D01*
X147453711Y-134010000D01*
X147934386Y-134010000D01*
X147951843Y-134097765D01*
X148092191Y-134307809D01*
X148240000Y-134406573D01*
X148240001Y-138150148D01*
X148225112Y-138225000D01*
X148284097Y-138521537D01*
X148351893Y-138623000D01*
X148452072Y-138772929D01*
X148515528Y-138815329D01*
X149102560Y-139402362D01*
X149102560Y-140025000D01*
X149151843Y-140272765D01*
X149292191Y-140482809D01*
X149502235Y-140623157D01*
X149750000Y-140672440D01*
X151250000Y-140672440D01*
X151497765Y-140623157D01*
X151707809Y-140482809D01*
X151790000Y-140359802D01*
X151790000Y-154790000D01*
X134173711Y-154790000D01*
X134377431Y-154586280D01*
X134535000Y-154205874D01*
X134535000Y-153794126D01*
X134457446Y-153606892D01*
X134688514Y-153606892D01*
X134934817Y-154131358D01*
X135363076Y-154521645D01*
X135773110Y-154691476D01*
X136003000Y-154570155D01*
X136003000Y-153377000D01*
X134809181Y-153377000D01*
X134688514Y-153606892D01*
X134457446Y-153606892D01*
X134377431Y-153413720D01*
X134086280Y-153122569D01*
X133705874Y-152965000D01*
X133492788Y-152965000D01*
X133446537Y-152934096D01*
X133240477Y-152893108D01*
X134688514Y-152893108D01*
X134809181Y-153123000D01*
X136003000Y-153123000D01*
X136003000Y-151929845D01*
X135773110Y-151808524D01*
X135363076Y-151978355D01*
X134934817Y-152368642D01*
X134688514Y-152893108D01*
X133240477Y-152893108D01*
X133224852Y-152890000D01*
X133224847Y-152890000D01*
X133150000Y-152875112D01*
X133075153Y-152890000D01*
X131797440Y-152890000D01*
X131797440Y-152650000D01*
X131748157Y-152402235D01*
X131607809Y-152192191D01*
X131397765Y-152051843D01*
X131150000Y-152002560D01*
X130010000Y-152002560D01*
X130010000Y-148995451D01*
X130247765Y-148948157D01*
X130399047Y-148847073D01*
X130440301Y-148888327D01*
X130673690Y-148985000D01*
X131264250Y-148985000D01*
X131423000Y-148826250D01*
X131423000Y-147477000D01*
X131677000Y-147477000D01*
X131677000Y-148826250D01*
X131835750Y-148985000D01*
X132426310Y-148985000D01*
X132659699Y-148888327D01*
X132838327Y-148709698D01*
X132935000Y-148476309D01*
X132935000Y-147635750D01*
X132776250Y-147477000D01*
X131677000Y-147477000D01*
X131423000Y-147477000D01*
X131403000Y-147477000D01*
X131403000Y-147223000D01*
X131423000Y-147223000D01*
X131423000Y-145873750D01*
X131677000Y-145873750D01*
X131677000Y-147223000D01*
X132776250Y-147223000D01*
X132935000Y-147064250D01*
X132935000Y-146223691D01*
X132838327Y-145990302D01*
X132659699Y-145811673D01*
X132426310Y-145715000D01*
X131835750Y-145715000D01*
X131677000Y-145873750D01*
X131423000Y-145873750D01*
X131264250Y-145715000D01*
X130673690Y-145715000D01*
X130440301Y-145811673D01*
X130399047Y-145852927D01*
X130247765Y-145751843D01*
X130168903Y-145736157D01*
X130285000Y-145455874D01*
X130285000Y-145097440D01*
X130306250Y-145097440D01*
X130647294Y-145029602D01*
X130936416Y-144836416D01*
X130937207Y-144835233D01*
X131090302Y-144988327D01*
X131323691Y-145085000D01*
X131651750Y-145085000D01*
X131810500Y-144926250D01*
X131810500Y-143877000D01*
X132064500Y-143877000D01*
X132064500Y-144926250D01*
X132223250Y-145085000D01*
X132551309Y-145085000D01*
X132784698Y-144988327D01*
X132963327Y-144809699D01*
X133060000Y-144576310D01*
X133060000Y-144035750D01*
X132901250Y-143877000D01*
X132064500Y-143877000D01*
X131810500Y-143877000D01*
X131790500Y-143877000D01*
X131790500Y-143623000D01*
X131810500Y-143623000D01*
X131810500Y-142573750D01*
X132064500Y-142573750D01*
X132064500Y-143623000D01*
X132901250Y-143623000D01*
X133060000Y-143464250D01*
X133060000Y-142923690D01*
X132963327Y-142690301D01*
X132784698Y-142511673D01*
X132551309Y-142415000D01*
X132223250Y-142415000D01*
X132064500Y-142573750D01*
X131810500Y-142573750D01*
X131651750Y-142415000D01*
X131323691Y-142415000D01*
X131090302Y-142511673D01*
X130937207Y-142664767D01*
X130936416Y-142663584D01*
X130647294Y-142470398D01*
X130306250Y-142402560D01*
X129818750Y-142402560D01*
X129477706Y-142470398D01*
X129188584Y-142663584D01*
X128995398Y-142952706D01*
X128930370Y-143279622D01*
X128831239Y-143131261D01*
X128550227Y-142943495D01*
X128218750Y-142877560D01*
X127781250Y-142877560D01*
X127449773Y-142943495D01*
X127287469Y-143051943D01*
X127222198Y-142986673D01*
X126988809Y-142890000D01*
X126710750Y-142890000D01*
X126552000Y-143048750D01*
X126552000Y-143873000D01*
X126572000Y-143873000D01*
X126572000Y-144127000D01*
X126552000Y-144127000D01*
X126552000Y-144951250D01*
X126637974Y-145037224D01*
X126465530Y-145209669D01*
X126402071Y-145252071D01*
X126234096Y-145503464D01*
X126194266Y-145703700D01*
X125952235Y-145751843D01*
X125742191Y-145892191D01*
X125601843Y-146102235D01*
X125552560Y-146350000D01*
X125552560Y-146701517D01*
X125465526Y-146759671D01*
X125465524Y-146759673D01*
X125402071Y-146802071D01*
X125359673Y-146865524D01*
X123985199Y-148240000D01*
X122772510Y-148240000D01*
X122772510Y-145122440D01*
X123043750Y-145122440D01*
X123375227Y-145056505D01*
X123656239Y-144868739D01*
X123844005Y-144587727D01*
X123904072Y-144285750D01*
X125352500Y-144285750D01*
X125352500Y-144601310D01*
X125449173Y-144834699D01*
X125627802Y-145013327D01*
X125861191Y-145110000D01*
X126139250Y-145110000D01*
X126298000Y-144951250D01*
X126298000Y-144127000D01*
X125511250Y-144127000D01*
X125352500Y-144285750D01*
X123904072Y-144285750D01*
X123909940Y-144256250D01*
X123909940Y-143743750D01*
X123844005Y-143412273D01*
X123834930Y-143398690D01*
X125352500Y-143398690D01*
X125352500Y-143714250D01*
X125511250Y-143873000D01*
X126298000Y-143873000D01*
X126298000Y-143048750D01*
X126139250Y-142890000D01*
X125861191Y-142890000D01*
X125627802Y-142986673D01*
X125449173Y-143165301D01*
X125352500Y-143398690D01*
X123834930Y-143398690D01*
X123656239Y-143131261D01*
X123585000Y-143083661D01*
X123585000Y-142916339D01*
X123656239Y-142868739D01*
X123844005Y-142587727D01*
X123881606Y-142398690D01*
X134352500Y-142398690D01*
X134352500Y-142714250D01*
X134511250Y-142873000D01*
X135298000Y-142873000D01*
X135298000Y-142048750D01*
X135139250Y-141890000D01*
X134861191Y-141890000D01*
X134627802Y-141986673D01*
X134449173Y-142165301D01*
X134352500Y-142398690D01*
X123881606Y-142398690D01*
X123909940Y-142256250D01*
X123909940Y-141743750D01*
X123844005Y-141412273D01*
X123656239Y-141131261D01*
X123585000Y-141083661D01*
X123585000Y-139389801D01*
X125215000Y-137759801D01*
X125215000Y-137955874D01*
X125372569Y-138336280D01*
X125663720Y-138627431D01*
X126044126Y-138785000D01*
X126455874Y-138785000D01*
X126836280Y-138627431D01*
X127127431Y-138336280D01*
X127285000Y-137955874D01*
X127285000Y-137889802D01*
X128484476Y-136690327D01*
X128502560Y-136678244D01*
X128502560Y-137600000D01*
X128551843Y-137847765D01*
X128690001Y-138054531D01*
X128690001Y-138096288D01*
X128622569Y-138163720D01*
X128465000Y-138544126D01*
X128465000Y-138955874D01*
X128622569Y-139336280D01*
X128913720Y-139627431D01*
X129229814Y-139758361D01*
X129215000Y-139794126D01*
X129215000Y-140205874D01*
X129372569Y-140586280D01*
X129663720Y-140877431D01*
X129965000Y-141002225D01*
X129965000Y-141205874D01*
X130122569Y-141586280D01*
X130413720Y-141877431D01*
X130794126Y-142035000D01*
X131205874Y-142035000D01*
X131586280Y-141877431D01*
X131877431Y-141586280D01*
X132035000Y-141205874D01*
X132035000Y-140794126D01*
X131877431Y-140413720D01*
X131810000Y-140346289D01*
X131810000Y-140285750D01*
X134127500Y-140285750D01*
X134127500Y-140826310D01*
X134224173Y-141059699D01*
X134402802Y-141238327D01*
X134636191Y-141335000D01*
X134964250Y-141335000D01*
X135123000Y-141176250D01*
X135123000Y-140127000D01*
X134286250Y-140127000D01*
X134127500Y-140285750D01*
X131810000Y-140285750D01*
X131810000Y-139173690D01*
X134127500Y-139173690D01*
X134127500Y-139714250D01*
X134286250Y-139873000D01*
X135123000Y-139873000D01*
X135123000Y-138823750D01*
X134964250Y-138665000D01*
X134636191Y-138665000D01*
X134402802Y-138761673D01*
X134224173Y-138940301D01*
X134127500Y-139173690D01*
X131810000Y-139173690D01*
X131810000Y-138247440D01*
X132150000Y-138247440D01*
X132250000Y-138227549D01*
X132350000Y-138247440D01*
X132950000Y-138247440D01*
X133050000Y-138227549D01*
X133150000Y-138247440D01*
X133750000Y-138247440D01*
X133850000Y-138227549D01*
X133950000Y-138247440D01*
X134550000Y-138247440D01*
X134620073Y-138233502D01*
X134623690Y-138235000D01*
X134764250Y-138235000D01*
X134807795Y-138191455D01*
X135007809Y-138057809D01*
X135148157Y-137847765D01*
X135177000Y-137702760D01*
X135177000Y-138076250D01*
X135335750Y-138235000D01*
X135476310Y-138235000D01*
X135709699Y-138138327D01*
X135888327Y-137959698D01*
X135985000Y-137726309D01*
X135985000Y-137285750D01*
X135826250Y-137127000D01*
X135197440Y-137127000D01*
X135197440Y-136873000D01*
X135826250Y-136873000D01*
X135985000Y-136714250D01*
X135985000Y-136497440D01*
X136672638Y-136497440D01*
X136921238Y-136746040D01*
X136921237Y-138652560D01*
X136881250Y-138652560D01*
X136540206Y-138720398D01*
X136251084Y-138913584D01*
X136250293Y-138914767D01*
X136097198Y-138761673D01*
X135863809Y-138665000D01*
X135535750Y-138665000D01*
X135377000Y-138823750D01*
X135377000Y-139873000D01*
X135397000Y-139873000D01*
X135397000Y-140127000D01*
X135377000Y-140127000D01*
X135377000Y-141176250D01*
X135535750Y-141335000D01*
X135863809Y-141335000D01*
X136097198Y-141238327D01*
X136240001Y-141095525D01*
X136240000Y-142004475D01*
X136222198Y-141986673D01*
X135988809Y-141890000D01*
X135710750Y-141890000D01*
X135552000Y-142048750D01*
X135552000Y-142873000D01*
X135572000Y-142873000D01*
X135572000Y-143127000D01*
X135552000Y-143127000D01*
X135552000Y-143147000D01*
X135298000Y-143147000D01*
X135298000Y-143127000D01*
X134511250Y-143127000D01*
X134352500Y-143285750D01*
X134352500Y-143601310D01*
X134449173Y-143834699D01*
X134627802Y-144013327D01*
X134861191Y-144110000D01*
X135041267Y-144110000D01*
X134965000Y-144294126D01*
X134965000Y-144705874D01*
X135122569Y-145086280D01*
X135413720Y-145377431D01*
X135794126Y-145535000D01*
X136205874Y-145535000D01*
X136586280Y-145377431D01*
X136877431Y-145086280D01*
X137035000Y-144705874D01*
X137035000Y-144294126D01*
X136963885Y-144122440D01*
X137218750Y-144122440D01*
X137550227Y-144056505D01*
X137831239Y-143868739D01*
X138019005Y-143587727D01*
X138084940Y-143256250D01*
X138084940Y-142743750D01*
X138019005Y-142412273D01*
X137831239Y-142131261D01*
X137760000Y-142083661D01*
X137760000Y-141246055D01*
X137998916Y-141086416D01*
X138192102Y-140797294D01*
X138259940Y-140456250D01*
X138259940Y-139945636D01*
X138397141Y-139740300D01*
X138441237Y-139518615D01*
X138441237Y-139518610D01*
X138456125Y-139443763D01*
X138441237Y-139368916D01*
X138441237Y-139138829D01*
X138794126Y-139285000D01*
X139205874Y-139285000D01*
X139490001Y-139167311D01*
X139490000Y-150153116D01*
X138185528Y-151457590D01*
X138122072Y-151499990D01*
X138079672Y-151563446D01*
X138079671Y-151563447D01*
X137954097Y-151751382D01*
X137910287Y-151971630D01*
X137599375Y-152179375D01*
X137386157Y-152498478D01*
X137325183Y-152368642D01*
X136896924Y-151978355D01*
X136486890Y-151808524D01*
X136257000Y-151929845D01*
X136257000Y-153123000D01*
X136277000Y-153123000D01*
X136277000Y-153377000D01*
X136257000Y-153377000D01*
X136257000Y-154570155D01*
X136486890Y-154691476D01*
X136896924Y-154521645D01*
X137325183Y-154131358D01*
X137386157Y-154001522D01*
X137599375Y-154320625D01*
X138090582Y-154648839D01*
X138523744Y-154735000D01*
X138816256Y-154735000D01*
X139249418Y-154648839D01*
X139740625Y-154320625D01*
X139940000Y-154022239D01*
X140139375Y-154320625D01*
X140630582Y-154648839D01*
X141063744Y-154735000D01*
X141356256Y-154735000D01*
X141789418Y-154648839D01*
X142280625Y-154320625D01*
X142292816Y-154302381D01*
X142301843Y-154347765D01*
X142442191Y-154557809D01*
X142652235Y-154698157D01*
X142900000Y-154747440D01*
X144600000Y-154747440D01*
X144847765Y-154698157D01*
X145057809Y-154557809D01*
X145198157Y-154347765D01*
X145247440Y-154100000D01*
X145247440Y-152400000D01*
X145198157Y-152152235D01*
X145133475Y-152055431D01*
X147265000Y-152055431D01*
X147265000Y-152944569D01*
X147605259Y-153766026D01*
X148233974Y-154394741D01*
X149055431Y-154735000D01*
X149944569Y-154735000D01*
X150766026Y-154394741D01*
X151394741Y-153766026D01*
X151735000Y-152944569D01*
X151735000Y-152055431D01*
X151394741Y-151233974D01*
X150766026Y-150605259D01*
X149944569Y-150265000D01*
X149055431Y-150265000D01*
X148233974Y-150605259D01*
X147605259Y-151233974D01*
X147265000Y-152055431D01*
X145133475Y-152055431D01*
X145057809Y-151942191D01*
X144847765Y-151801843D01*
X144600000Y-151752560D01*
X142900000Y-151752560D01*
X142652235Y-151801843D01*
X142442191Y-151942191D01*
X142301843Y-152152235D01*
X142292816Y-152197619D01*
X142280625Y-152179375D01*
X141970000Y-151971822D01*
X141970000Y-135034848D01*
X141984888Y-134960000D01*
X141970000Y-134885152D01*
X141970000Y-134885148D01*
X141925904Y-134663463D01*
X141757929Y-134412071D01*
X141694473Y-134369671D01*
X140434801Y-133110000D01*
X145715000Y-133110000D01*
X145715000Y-133455874D01*
X145715000Y-133455874D01*
G37*
X145715000Y-133455874D02*
X145872569Y-133836280D01*
X146163720Y-134127431D01*
X146544126Y-134285000D01*
X146955874Y-134285000D01*
X147336280Y-134127431D01*
X147453711Y-134010000D01*
X147934386Y-134010000D01*
X147951843Y-134097765D01*
X148092191Y-134307809D01*
X148240000Y-134406573D01*
X148240001Y-138150148D01*
X148225112Y-138225000D01*
X148284097Y-138521537D01*
X148351893Y-138623000D01*
X148452072Y-138772929D01*
X148515528Y-138815329D01*
X149102560Y-139402362D01*
X149102560Y-140025000D01*
X149151843Y-140272765D01*
X149292191Y-140482809D01*
X149502235Y-140623157D01*
X149750000Y-140672440D01*
X151250000Y-140672440D01*
X151497765Y-140623157D01*
X151707809Y-140482809D01*
X151790000Y-140359802D01*
X151790000Y-154790000D01*
X134173711Y-154790000D01*
X134377431Y-154586280D01*
X134535000Y-154205874D01*
X134535000Y-153794126D01*
X134457446Y-153606892D01*
X134688514Y-153606892D01*
X134934817Y-154131358D01*
X135363076Y-154521645D01*
X135773110Y-154691476D01*
X136003000Y-154570155D01*
X136003000Y-153377000D01*
X134809181Y-153377000D01*
X134688514Y-153606892D01*
X134457446Y-153606892D01*
X134377431Y-153413720D01*
X134086280Y-153122569D01*
X133705874Y-152965000D01*
X133492788Y-152965000D01*
X133446537Y-152934096D01*
X133240477Y-152893108D01*
X134688514Y-152893108D01*
X134809181Y-153123000D01*
X136003000Y-153123000D01*
X136003000Y-151929845D01*
X135773110Y-151808524D01*
X135363076Y-151978355D01*
X134934817Y-152368642D01*
X134688514Y-152893108D01*
X133240477Y-152893108D01*
X133224852Y-152890000D01*
X133224847Y-152890000D01*
X133150000Y-152875112D01*
X133075153Y-152890000D01*
X131797440Y-152890000D01*
X131797440Y-152650000D01*
X131748157Y-152402235D01*
X131607809Y-152192191D01*
X131397765Y-152051843D01*
X131150000Y-152002560D01*
X130010000Y-152002560D01*
X130010000Y-148995451D01*
X130247765Y-148948157D01*
X130399047Y-148847073D01*
X130440301Y-148888327D01*
X130673690Y-148985000D01*
X131264250Y-148985000D01*
X131423000Y-148826250D01*
X131423000Y-147477000D01*
X131677000Y-147477000D01*
X131677000Y-148826250D01*
X131835750Y-148985000D01*
X132426310Y-148985000D01*
X132659699Y-148888327D01*
X132838327Y-148709698D01*
X132935000Y-148476309D01*
X132935000Y-147635750D01*
X132776250Y-147477000D01*
X131677000Y-147477000D01*
X131423000Y-147477000D01*
X131403000Y-147477000D01*
X131403000Y-147223000D01*
X131423000Y-147223000D01*
X131423000Y-145873750D01*
X131677000Y-145873750D01*
X131677000Y-147223000D01*
X132776250Y-147223000D01*
X132935000Y-147064250D01*
X132935000Y-146223691D01*
X132838327Y-145990302D01*
X132659699Y-145811673D01*
X132426310Y-145715000D01*
X131835750Y-145715000D01*
X131677000Y-145873750D01*
X131423000Y-145873750D01*
X131264250Y-145715000D01*
X130673690Y-145715000D01*
X130440301Y-145811673D01*
X130399047Y-145852927D01*
X130247765Y-145751843D01*
X130168903Y-145736157D01*
X130285000Y-145455874D01*
X130285000Y-145097440D01*
X130306250Y-145097440D01*
X130647294Y-145029602D01*
X130936416Y-144836416D01*
X130937207Y-144835233D01*
X131090302Y-144988327D01*
X131323691Y-145085000D01*
X131651750Y-145085000D01*
X131810500Y-144926250D01*
X131810500Y-143877000D01*
X132064500Y-143877000D01*
X132064500Y-144926250D01*
X132223250Y-145085000D01*
X132551309Y-145085000D01*
X132784698Y-144988327D01*
X132963327Y-144809699D01*
X133060000Y-144576310D01*
X133060000Y-144035750D01*
X132901250Y-143877000D01*
X132064500Y-143877000D01*
X131810500Y-143877000D01*
X131790500Y-143877000D01*
X131790500Y-143623000D01*
X131810500Y-143623000D01*
X131810500Y-142573750D01*
X132064500Y-142573750D01*
X132064500Y-143623000D01*
X132901250Y-143623000D01*
X133060000Y-143464250D01*
X133060000Y-142923690D01*
X132963327Y-142690301D01*
X132784698Y-142511673D01*
X132551309Y-142415000D01*
X132223250Y-142415000D01*
X132064500Y-142573750D01*
X131810500Y-142573750D01*
X131651750Y-142415000D01*
X131323691Y-142415000D01*
X131090302Y-142511673D01*
X130937207Y-142664767D01*
X130936416Y-142663584D01*
X130647294Y-142470398D01*
X130306250Y-142402560D01*
X129818750Y-142402560D01*
X129477706Y-142470398D01*
X129188584Y-142663584D01*
X128995398Y-142952706D01*
X128930370Y-143279622D01*
X128831239Y-143131261D01*
X128550227Y-142943495D01*
X128218750Y-142877560D01*
X127781250Y-142877560D01*
X127449773Y-142943495D01*
X127287469Y-143051943D01*
X127222198Y-142986673D01*
X126988809Y-142890000D01*
X126710750Y-142890000D01*
X126552000Y-143048750D01*
X126552000Y-143873000D01*
X126572000Y-143873000D01*
X126572000Y-144127000D01*
X126552000Y-144127000D01*
X126552000Y-144951250D01*
X126637974Y-145037224D01*
X126465530Y-145209669D01*
X126402071Y-145252071D01*
X126234096Y-145503464D01*
X126194266Y-145703700D01*
X125952235Y-145751843D01*
X125742191Y-145892191D01*
X125601843Y-146102235D01*
X125552560Y-146350000D01*
X125552560Y-146701517D01*
X125465526Y-146759671D01*
X125465524Y-146759673D01*
X125402071Y-146802071D01*
X125359673Y-146865524D01*
X123985199Y-148240000D01*
X122772510Y-148240000D01*
X122772510Y-145122440D01*
X123043750Y-145122440D01*
X123375227Y-145056505D01*
X123656239Y-144868739D01*
X123844005Y-144587727D01*
X123904072Y-144285750D01*
X125352500Y-144285750D01*
X125352500Y-144601310D01*
X125449173Y-144834699D01*
X125627802Y-145013327D01*
X125861191Y-145110000D01*
X126139250Y-145110000D01*
X126298000Y-144951250D01*
X126298000Y-144127000D01*
X125511250Y-144127000D01*
X125352500Y-144285750D01*
X123904072Y-144285750D01*
X123909940Y-144256250D01*
X123909940Y-143743750D01*
X123844005Y-143412273D01*
X123834930Y-143398690D01*
X125352500Y-143398690D01*
X125352500Y-143714250D01*
X125511250Y-143873000D01*
X126298000Y-143873000D01*
X126298000Y-143048750D01*
X126139250Y-142890000D01*
X125861191Y-142890000D01*
X125627802Y-142986673D01*
X125449173Y-143165301D01*
X125352500Y-143398690D01*
X123834930Y-143398690D01*
X123656239Y-143131261D01*
X123585000Y-143083661D01*
X123585000Y-142916339D01*
X123656239Y-142868739D01*
X123844005Y-142587727D01*
X123881606Y-142398690D01*
X134352500Y-142398690D01*
X134352500Y-142714250D01*
X134511250Y-142873000D01*
X135298000Y-142873000D01*
X135298000Y-142048750D01*
X135139250Y-141890000D01*
X134861191Y-141890000D01*
X134627802Y-141986673D01*
X134449173Y-142165301D01*
X134352500Y-142398690D01*
X123881606Y-142398690D01*
X123909940Y-142256250D01*
X123909940Y-141743750D01*
X123844005Y-141412273D01*
X123656239Y-141131261D01*
X123585000Y-141083661D01*
X123585000Y-139389801D01*
X125215000Y-137759801D01*
X125215000Y-137955874D01*
X125372569Y-138336280D01*
X125663720Y-138627431D01*
X126044126Y-138785000D01*
X126455874Y-138785000D01*
X126836280Y-138627431D01*
X127127431Y-138336280D01*
X127285000Y-137955874D01*
X127285000Y-137889802D01*
X128484476Y-136690327D01*
X128502560Y-136678244D01*
X128502560Y-137600000D01*
X128551843Y-137847765D01*
X128690001Y-138054531D01*
X128690001Y-138096288D01*
X128622569Y-138163720D01*
X128465000Y-138544126D01*
X128465000Y-138955874D01*
X128622569Y-139336280D01*
X128913720Y-139627431D01*
X129229814Y-139758361D01*
X129215000Y-139794126D01*
X129215000Y-140205874D01*
X129372569Y-140586280D01*
X129663720Y-140877431D01*
X129965000Y-141002225D01*
X129965000Y-141205874D01*
X130122569Y-141586280D01*
X130413720Y-141877431D01*
X130794126Y-142035000D01*
X131205874Y-142035000D01*
X131586280Y-141877431D01*
X131877431Y-141586280D01*
X132035000Y-141205874D01*
X132035000Y-140794126D01*
X131877431Y-140413720D01*
X131810000Y-140346289D01*
X131810000Y-140285750D01*
X134127500Y-140285750D01*
X134127500Y-140826310D01*
X134224173Y-141059699D01*
X134402802Y-141238327D01*
X134636191Y-141335000D01*
X134964250Y-141335000D01*
X135123000Y-141176250D01*
X135123000Y-140127000D01*
X134286250Y-140127000D01*
X134127500Y-140285750D01*
X131810000Y-140285750D01*
X131810000Y-139173690D01*
X134127500Y-139173690D01*
X134127500Y-139714250D01*
X134286250Y-139873000D01*
X135123000Y-139873000D01*
X135123000Y-138823750D01*
X134964250Y-138665000D01*
X134636191Y-138665000D01*
X134402802Y-138761673D01*
X134224173Y-138940301D01*
X134127500Y-139173690D01*
X131810000Y-139173690D01*
X131810000Y-138247440D01*
X132150000Y-138247440D01*
X132250000Y-138227549D01*
X132350000Y-138247440D01*
X132950000Y-138247440D01*
X133050000Y-138227549D01*
X133150000Y-138247440D01*
X133750000Y-138247440D01*
X133850000Y-138227549D01*
X133950000Y-138247440D01*
X134550000Y-138247440D01*
X134620073Y-138233502D01*
X134623690Y-138235000D01*
X134764250Y-138235000D01*
X134807795Y-138191455D01*
X135007809Y-138057809D01*
X135148157Y-137847765D01*
X135177000Y-137702760D01*
X135177000Y-138076250D01*
X135335750Y-138235000D01*
X135476310Y-138235000D01*
X135709699Y-138138327D01*
X135888327Y-137959698D01*
X135985000Y-137726309D01*
X135985000Y-137285750D01*
X135826250Y-137127000D01*
X135197440Y-137127000D01*
X135197440Y-136873000D01*
X135826250Y-136873000D01*
X135985000Y-136714250D01*
X135985000Y-136497440D01*
X136672638Y-136497440D01*
X136921238Y-136746040D01*
X136921237Y-138652560D01*
X136881250Y-138652560D01*
X136540206Y-138720398D01*
X136251084Y-138913584D01*
X136250293Y-138914767D01*
X136097198Y-138761673D01*
X135863809Y-138665000D01*
X135535750Y-138665000D01*
X135377000Y-138823750D01*
X135377000Y-139873000D01*
X135397000Y-139873000D01*
X135397000Y-140127000D01*
X135377000Y-140127000D01*
X135377000Y-141176250D01*
X135535750Y-141335000D01*
X135863809Y-141335000D01*
X136097198Y-141238327D01*
X136240001Y-141095525D01*
X136240000Y-142004475D01*
X136222198Y-141986673D01*
X135988809Y-141890000D01*
X135710750Y-141890000D01*
X135552000Y-142048750D01*
X135552000Y-142873000D01*
X135572000Y-142873000D01*
X135572000Y-143127000D01*
X135552000Y-143127000D01*
X135552000Y-143147000D01*
X135298000Y-143147000D01*
X135298000Y-143127000D01*
X134511250Y-143127000D01*
X134352500Y-143285750D01*
X134352500Y-143601310D01*
X134449173Y-143834699D01*
X134627802Y-144013327D01*
X134861191Y-144110000D01*
X135041267Y-144110000D01*
X134965000Y-144294126D01*
X134965000Y-144705874D01*
X135122569Y-145086280D01*
X135413720Y-145377431D01*
X135794126Y-145535000D01*
X136205874Y-145535000D01*
X136586280Y-145377431D01*
X136877431Y-145086280D01*
X137035000Y-144705874D01*
X137035000Y-144294126D01*
X136963885Y-144122440D01*
X137218750Y-144122440D01*
X137550227Y-144056505D01*
X137831239Y-143868739D01*
X138019005Y-143587727D01*
X138084940Y-143256250D01*
X138084940Y-142743750D01*
X138019005Y-142412273D01*
X137831239Y-142131261D01*
X137760000Y-142083661D01*
X137760000Y-141246055D01*
X137998916Y-141086416D01*
X138192102Y-140797294D01*
X138259940Y-140456250D01*
X138259940Y-139945636D01*
X138397141Y-139740300D01*
X138441237Y-139518615D01*
X138441237Y-139518610D01*
X138456125Y-139443763D01*
X138441237Y-139368916D01*
X138441237Y-139138829D01*
X138794126Y-139285000D01*
X139205874Y-139285000D01*
X139490001Y-139167311D01*
X139490000Y-150153116D01*
X138185528Y-151457590D01*
X138122072Y-151499990D01*
X138079672Y-151563446D01*
X138079671Y-151563447D01*
X137954097Y-151751382D01*
X137910287Y-151971630D01*
X137599375Y-152179375D01*
X137386157Y-152498478D01*
X137325183Y-152368642D01*
X136896924Y-151978355D01*
X136486890Y-151808524D01*
X136257000Y-151929845D01*
X136257000Y-153123000D01*
X136277000Y-153123000D01*
X136277000Y-153377000D01*
X136257000Y-153377000D01*
X136257000Y-154570155D01*
X136486890Y-154691476D01*
X136896924Y-154521645D01*
X137325183Y-154131358D01*
X137386157Y-154001522D01*
X137599375Y-154320625D01*
X138090582Y-154648839D01*
X138523744Y-154735000D01*
X138816256Y-154735000D01*
X139249418Y-154648839D01*
X139740625Y-154320625D01*
X139940000Y-154022239D01*
X140139375Y-154320625D01*
X140630582Y-154648839D01*
X141063744Y-154735000D01*
X141356256Y-154735000D01*
X141789418Y-154648839D01*
X142280625Y-154320625D01*
X142292816Y-154302381D01*
X142301843Y-154347765D01*
X142442191Y-154557809D01*
X142652235Y-154698157D01*
X142900000Y-154747440D01*
X144600000Y-154747440D01*
X144847765Y-154698157D01*
X145057809Y-154557809D01*
X145198157Y-154347765D01*
X145247440Y-154100000D01*
X145247440Y-152400000D01*
X145198157Y-152152235D01*
X145133475Y-152055431D01*
X147265000Y-152055431D01*
X147265000Y-152944569D01*
X147605259Y-153766026D01*
X148233974Y-154394741D01*
X149055431Y-154735000D01*
X149944569Y-154735000D01*
X150766026Y-154394741D01*
X151394741Y-153766026D01*
X151735000Y-152944569D01*
X151735000Y-152055431D01*
X151394741Y-151233974D01*
X150766026Y-150605259D01*
X149944569Y-150265000D01*
X149055431Y-150265000D01*
X148233974Y-150605259D01*
X147605259Y-151233974D01*
X147265000Y-152055431D01*
X145133475Y-152055431D01*
X145057809Y-151942191D01*
X144847765Y-151801843D01*
X144600000Y-151752560D01*
X142900000Y-151752560D01*
X142652235Y-151801843D01*
X142442191Y-151942191D01*
X142301843Y-152152235D01*
X142292816Y-152197619D01*
X142280625Y-152179375D01*
X141970000Y-151971822D01*
X141970000Y-135034848D01*
X141984888Y-134960000D01*
X141970000Y-134885152D01*
X141970000Y-134885148D01*
X141925904Y-134663463D01*
X141757929Y-134412071D01*
X141694473Y-134369671D01*
X140434801Y-133110000D01*
X145715000Y-133110000D01*
X145715000Y-133455874D01*
G36*
X151790000Y-131563473D02*
X151697765Y-131501843D01*
X151450000Y-131452560D01*
X150977361Y-131452560D01*
X150760000Y-131235199D01*
X150760000Y-128997440D01*
X150850000Y-128997440D01*
X151097765Y-128948157D01*
X151307809Y-128807809D01*
X151448157Y-128597765D01*
X151497440Y-128350000D01*
X151497440Y-126650000D01*
X151448157Y-126402235D01*
X151307809Y-126192191D01*
X151097765Y-126051843D01*
X151052381Y-126042816D01*
X151070625Y-126030625D01*
X151398839Y-125539418D01*
X151514092Y-124960000D01*
X151398839Y-124380582D01*
X151070625Y-123889375D01*
X150751522Y-123676157D01*
X150881358Y-123615183D01*
X151271645Y-123186924D01*
X151441476Y-122776890D01*
X151320155Y-122547000D01*
X150127000Y-122547000D01*
X150127000Y-122567000D01*
X149873000Y-122567000D01*
X149873000Y-122547000D01*
X148679845Y-122547000D01*
X148558524Y-122776890D01*
X148728355Y-123186924D01*
X149118642Y-123615183D01*
X149248478Y-123676157D01*
X148929375Y-123889375D01*
X148601161Y-124380582D01*
X148485908Y-124960000D01*
X148558791Y-125326408D01*
X147265528Y-126619671D01*
X147202072Y-126662071D01*
X147159672Y-126725527D01*
X147159671Y-126725528D01*
X147034097Y-126913463D01*
X146975112Y-127210000D01*
X146990001Y-127284852D01*
X146990000Y-129935198D01*
X146185199Y-130740000D01*
X140044801Y-130740000D01*
X141843592Y-128941209D01*
X142063744Y-128985000D01*
X142356256Y-128985000D01*
X142789418Y-128898839D01*
X143280625Y-128570625D01*
X143292816Y-128552381D01*
X143301843Y-128597765D01*
X143442191Y-128807809D01*
X143652235Y-128948157D01*
X143900000Y-128997440D01*
X145600000Y-128997440D01*
X145847765Y-128948157D01*
X146057809Y-128807809D01*
X146198157Y-128597765D01*
X146247440Y-128350000D01*
X146247440Y-126650000D01*
X146198157Y-126402235D01*
X146057809Y-126192191D01*
X145847765Y-126051843D01*
X145802381Y-126042816D01*
X145820625Y-126030625D01*
X146148839Y-125539418D01*
X146264092Y-124960000D01*
X146148839Y-124380582D01*
X145820625Y-123889375D01*
X145501522Y-123676157D01*
X145631358Y-123615183D01*
X146021645Y-123186924D01*
X146191476Y-122776890D01*
X146070155Y-122547000D01*
X144877000Y-122547000D01*
X144877000Y-122567000D01*
X144623000Y-122567000D01*
X144623000Y-122547000D01*
X144603000Y-122547000D01*
X144603000Y-122293000D01*
X144623000Y-122293000D01*
X144623000Y-121099181D01*
X144877000Y-121099181D01*
X144877000Y-122293000D01*
X146070155Y-122293000D01*
X146191476Y-122063110D01*
X148558524Y-122063110D01*
X148679845Y-122293000D01*
X149873000Y-122293000D01*
X149873000Y-121099181D01*
X150127000Y-121099181D01*
X150127000Y-122293000D01*
X151320155Y-122293000D01*
X151441476Y-122063110D01*
X151271645Y-121653076D01*
X150881358Y-121224817D01*
X150356892Y-120978514D01*
X150127000Y-121099181D01*
X149873000Y-121099181D01*
X149643108Y-120978514D01*
X149118642Y-121224817D01*
X148728355Y-121653076D01*
X148558524Y-122063110D01*
X146191476Y-122063110D01*
X146021645Y-121653076D01*
X145631358Y-121224817D01*
X145106892Y-120978514D01*
X144877000Y-121099181D01*
X144623000Y-121099181D01*
X144393108Y-120978514D01*
X144145001Y-121095032D01*
X144145001Y-117147440D01*
X144745000Y-117147440D01*
X144992765Y-117098157D01*
X145202809Y-116957809D01*
X145334982Y-116760000D01*
X147165018Y-116760000D01*
X147297191Y-116957809D01*
X147507235Y-117098157D01*
X147755000Y-117147440D01*
X150505000Y-117147440D01*
X150752765Y-117098157D01*
X150962809Y-116957809D01*
X151103157Y-116747765D01*
X151152440Y-116500000D01*
X151152440Y-115500000D01*
X151103157Y-115252235D01*
X150962809Y-115042191D01*
X150752765Y-114901843D01*
X150505000Y-114852560D01*
X147755000Y-114852560D01*
X147507235Y-114901843D01*
X147297191Y-115042191D01*
X147165018Y-115240000D01*
X145334982Y-115240000D01*
X145202809Y-115042191D01*
X144992765Y-114901843D01*
X144745000Y-114852560D01*
X144018483Y-114852560D01*
X143960329Y-114765527D01*
X143917929Y-114702071D01*
X143854473Y-114659671D01*
X143460331Y-114265529D01*
X143417929Y-114202071D01*
X143166537Y-114034096D01*
X142944852Y-113990000D01*
X142944847Y-113990000D01*
X142870000Y-113975112D01*
X142795153Y-113990000D01*
X140495525Y-113990000D01*
X140513327Y-113972198D01*
X140610000Y-113738809D01*
X140610000Y-113460750D01*
X140451250Y-113302000D01*
X139627000Y-113302000D01*
X139627000Y-113322000D01*
X139459990Y-113322000D01*
X139459990Y-112261250D01*
X139627000Y-112261250D01*
X139627000Y-113048000D01*
X140451250Y-113048000D01*
X140610000Y-112889250D01*
X140610000Y-112611191D01*
X140513327Y-112377802D01*
X140421276Y-112285750D01*
X141360000Y-112285750D01*
X141360000Y-112626310D01*
X141456673Y-112859699D01*
X141635302Y-113038327D01*
X141868691Y-113135000D01*
X143084250Y-113135000D01*
X143243000Y-112976250D01*
X143243000Y-112127000D01*
X143497000Y-112127000D01*
X143497000Y-112976250D01*
X143655750Y-113135000D01*
X144871309Y-113135000D01*
X145104698Y-113038327D01*
X145283327Y-112859699D01*
X145380000Y-112626310D01*
X145380000Y-112285750D01*
X147120000Y-112285750D01*
X147120000Y-112626310D01*
X147216673Y-112859699D01*
X147395302Y-113038327D01*
X147628691Y-113135000D01*
X148844250Y-113135000D01*
X149003000Y-112976250D01*
X149003000Y-112127000D01*
X149257000Y-112127000D01*
X149257000Y-112976250D01*
X149415750Y-113135000D01*
X150631309Y-113135000D01*
X150864698Y-113038327D01*
X151043327Y-112859699D01*
X151140000Y-112626310D01*
X151140000Y-112285750D01*
X150981250Y-112127000D01*
X149257000Y-112127000D01*
X149003000Y-112127000D01*
X147278750Y-112127000D01*
X147120000Y-112285750D01*
X145380000Y-112285750D01*
X145221250Y-112127000D01*
X143497000Y-112127000D01*
X143243000Y-112127000D01*
X141518750Y-112127000D01*
X141360000Y-112285750D01*
X140421276Y-112285750D01*
X140334699Y-112199173D01*
X140101310Y-112102500D01*
X139785750Y-112102500D01*
X139627000Y-112261250D01*
X139459990Y-112261250D01*
X139459990Y-111614811D01*
X139489861Y-111584940D01*
X139756250Y-111584940D01*
X140087727Y-111519005D01*
X140305206Y-111373690D01*
X141360000Y-111373690D01*
X141360000Y-111714250D01*
X141518750Y-111873000D01*
X143243000Y-111873000D01*
X143243000Y-111023750D01*
X143497000Y-111023750D01*
X143497000Y-111873000D01*
X145221250Y-111873000D01*
X145380000Y-111714250D01*
X145380000Y-111373690D01*
X147120000Y-111373690D01*
X147120000Y-111714250D01*
X147278750Y-111873000D01*
X149003000Y-111873000D01*
X149003000Y-111023750D01*
X149257000Y-111023750D01*
X149257000Y-111873000D01*
X150981250Y-111873000D01*
X151140000Y-111714250D01*
X151140000Y-111373690D01*
X151043327Y-111140301D01*
X150864698Y-110961673D01*
X150631309Y-110865000D01*
X149415750Y-110865000D01*
X149257000Y-111023750D01*
X149003000Y-111023750D01*
X148844250Y-110865000D01*
X147628691Y-110865000D01*
X147395302Y-110961673D01*
X147216673Y-111140301D01*
X147120000Y-111373690D01*
X145380000Y-111373690D01*
X145283327Y-111140301D01*
X145104698Y-110961673D01*
X144871309Y-110865000D01*
X143655750Y-110865000D01*
X143497000Y-111023750D01*
X143243000Y-111023750D01*
X143084250Y-110865000D01*
X141868691Y-110865000D01*
X141635302Y-110961673D01*
X141456673Y-111140301D01*
X141360000Y-111373690D01*
X140305206Y-111373690D01*
X140368739Y-111331239D01*
X140556505Y-111050227D01*
X140622440Y-110718750D01*
X140622440Y-110281250D01*
X140556505Y-109949773D01*
X140397964Y-109712500D01*
X140556505Y-109475227D01*
X140622440Y-109143750D01*
X140622440Y-108877361D01*
X140989802Y-108510000D01*
X141405018Y-108510000D01*
X141537191Y-108707809D01*
X141747235Y-108848157D01*
X141995000Y-108897440D01*
X142490000Y-108897440D01*
X142490000Y-109046289D01*
X142372569Y-109163720D01*
X142215000Y-109544126D01*
X142215000Y-109955874D01*
X142372569Y-110336280D01*
X142663720Y-110627431D01*
X143044126Y-110785000D01*
X143455874Y-110785000D01*
X143836280Y-110627431D01*
X144127431Y-110336280D01*
X144285000Y-109955874D01*
X144285000Y-109544126D01*
X144127431Y-109163720D01*
X144010000Y-109046289D01*
X144010000Y-108897440D01*
X144745000Y-108897440D01*
X144992765Y-108848157D01*
X145202809Y-108707809D01*
X145334982Y-108510000D01*
X147165018Y-108510000D01*
X147297191Y-108707809D01*
X147507235Y-108848157D01*
X147755000Y-108897440D01*
X150505000Y-108897440D01*
X150752765Y-108848157D01*
X150962809Y-108707809D01*
X151103157Y-108497765D01*
X151152440Y-108250000D01*
X151152440Y-107250000D01*
X151103157Y-107002235D01*
X150962809Y-106792191D01*
X150752765Y-106651843D01*
X150505000Y-106602560D01*
X147755000Y-106602560D01*
X147507235Y-106651843D01*
X147297191Y-106792191D01*
X147165018Y-106990000D01*
X145334982Y-106990000D01*
X145202809Y-106792191D01*
X144992765Y-106651843D01*
X144745000Y-106602560D01*
X142342241Y-106602560D01*
X143854473Y-105090329D01*
X143917929Y-105047929D01*
X144015388Y-104902072D01*
X144018483Y-104897440D01*
X144745000Y-104897440D01*
X144992765Y-104848157D01*
X145202809Y-104707809D01*
X145334982Y-104510000D01*
X147165018Y-104510000D01*
X147297191Y-104707809D01*
X147507235Y-104848157D01*
X147755000Y-104897440D01*
X150505000Y-104897440D01*
X150752765Y-104848157D01*
X150962809Y-104707809D01*
X151103157Y-104497765D01*
X151152440Y-104250000D01*
X151152440Y-103250000D01*
X151103157Y-103002235D01*
X150962809Y-102792191D01*
X150752765Y-102651843D01*
X150505000Y-102602560D01*
X147755000Y-102602560D01*
X147507235Y-102651843D01*
X147297191Y-102792191D01*
X147165018Y-102990000D01*
X145334982Y-102990000D01*
X145202809Y-102792191D01*
X144992765Y-102651843D01*
X144745000Y-102602560D01*
X141995000Y-102602560D01*
X141747235Y-102651843D01*
X141537191Y-102792191D01*
X141396843Y-103002235D01*
X141347560Y-103250000D01*
X141347560Y-104250000D01*
X141396843Y-104497765D01*
X141537191Y-104707809D01*
X141747235Y-104848157D01*
X141913892Y-104881307D01*
X141230199Y-105565000D01*
X140495525Y-105565000D01*
X140513327Y-105547198D01*
X140610000Y-105313809D01*
X140610000Y-105035750D01*
X140451250Y-104877000D01*
X139627000Y-104877000D01*
X139627000Y-104897000D01*
X139373000Y-104897000D01*
X139373000Y-104877000D01*
X138548750Y-104877000D01*
X138390000Y-105035750D01*
X138390000Y-105313809D01*
X138486673Y-105547198D01*
X138551943Y-105612469D01*
X138443495Y-105774773D01*
X138377560Y-106106250D01*
X138377560Y-106372638D01*
X137515528Y-107234671D01*
X137452072Y-107277071D01*
X137409672Y-107340527D01*
X137409671Y-107340528D01*
X137284097Y-107528463D01*
X137225112Y-107825000D01*
X137240001Y-107899852D01*
X137240000Y-123685198D01*
X135185199Y-125740000D01*
X131474848Y-125740000D01*
X131400000Y-125725112D01*
X131325152Y-125740000D01*
X131325148Y-125740000D01*
X131103463Y-125784096D01*
X130852071Y-125952071D01*
X130809671Y-126015527D01*
X129765528Y-127059671D01*
X129702072Y-127102071D01*
X129534097Y-127353463D01*
X129520166Y-127423499D01*
X129492191Y-127442191D01*
X129351843Y-127652235D01*
X129323000Y-127797240D01*
X129323000Y-127423750D01*
X129164250Y-127265000D01*
X129023690Y-127265000D01*
X128790301Y-127361673D01*
X128611673Y-127540302D01*
X128515000Y-127773691D01*
X128515000Y-128214250D01*
X128673750Y-128373000D01*
X129302560Y-128373000D01*
X129302560Y-128627000D01*
X128673750Y-128627000D01*
X128515000Y-128785750D01*
X128515000Y-128805069D01*
X128484473Y-128784671D01*
X127092647Y-127392846D01*
X127097440Y-127368750D01*
X127097440Y-126881250D01*
X127029602Y-126540206D01*
X126836416Y-126251084D01*
X126835233Y-126250293D01*
X126988327Y-126097198D01*
X127085000Y-125863809D01*
X127085000Y-125535750D01*
X126926250Y-125377000D01*
X125877000Y-125377000D01*
X125877000Y-125397000D01*
X125623000Y-125397000D01*
X125623000Y-125377000D01*
X124573750Y-125377000D01*
X124415000Y-125535750D01*
X124415000Y-125863809D01*
X124511673Y-126097198D01*
X124664767Y-126250293D01*
X124663584Y-126251084D01*
X124587467Y-126365000D01*
X123699748Y-126365000D01*
X123698057Y-126362469D01*
X123763327Y-126297198D01*
X123860000Y-126063809D01*
X123860000Y-125785750D01*
X123701250Y-125627000D01*
X122877000Y-125627000D01*
X122877000Y-125647000D01*
X122623000Y-125647000D01*
X122623000Y-125627000D01*
X121798750Y-125627000D01*
X121640000Y-125785750D01*
X121640000Y-126063809D01*
X121736673Y-126297198D01*
X121801943Y-126362469D01*
X121693495Y-126524773D01*
X121627560Y-126856250D01*
X121627560Y-127293750D01*
X121693495Y-127625227D01*
X121881261Y-127906239D01*
X122162273Y-128094005D01*
X122493750Y-128159940D01*
X123006250Y-128159940D01*
X123337727Y-128094005D01*
X123618739Y-127906239D01*
X123632930Y-127885000D01*
X124587467Y-127885000D01*
X124663584Y-127998916D01*
X124952706Y-128192102D01*
X125293750Y-128259940D01*
X125810139Y-128259940D01*
X126153444Y-128603245D01*
X126150000Y-128602560D01*
X124350000Y-128602560D01*
X124102235Y-128651843D01*
X123892191Y-128792191D01*
X123760018Y-128990000D01*
X123421604Y-128990000D01*
X123201710Y-128843071D01*
X122897500Y-128782560D01*
X122602500Y-128782560D01*
X122311175Y-128840508D01*
X122201309Y-128795000D01*
X122065750Y-128795000D01*
X121907000Y-128953750D01*
X121907000Y-129215029D01*
X121868071Y-129273290D01*
X121807560Y-129577500D01*
X121807560Y-129922500D01*
X121868071Y-130226710D01*
X121907000Y-130284971D01*
X121907000Y-130546250D01*
X122065750Y-130705000D01*
X122201309Y-130705000D01*
X122311175Y-130659492D01*
X122602500Y-130717440D01*
X122897500Y-130717440D01*
X123201710Y-130656929D01*
X123421604Y-130510000D01*
X123760018Y-130510000D01*
X123892191Y-130707809D01*
X124102235Y-130848157D01*
X124350000Y-130897440D01*
X126150000Y-130897440D01*
X126397765Y-130848157D01*
X126413105Y-130837907D01*
X126567176Y-130991978D01*
X126552071Y-131002071D01*
X126509672Y-131065525D01*
X126413105Y-131162093D01*
X126397765Y-131151843D01*
X126150000Y-131102560D01*
X124350000Y-131102560D01*
X124102235Y-131151843D01*
X123892191Y-131292191D01*
X123760018Y-131490000D01*
X123421604Y-131490000D01*
X123201710Y-131343071D01*
X122897500Y-131282560D01*
X122602500Y-131282560D01*
X122311175Y-131340508D01*
X122201309Y-131295000D01*
X122065750Y-131295000D01*
X121907000Y-131453750D01*
X121907000Y-131715029D01*
X121868071Y-131773290D01*
X121807560Y-132077500D01*
X121807560Y-132397000D01*
X121653000Y-132397000D01*
X121653000Y-132377000D01*
X121008750Y-132377000D01*
X120850000Y-132535750D01*
X120850000Y-132696310D01*
X120946673Y-132929699D01*
X121125302Y-133108327D01*
X121322478Y-133190000D01*
X113299847Y-133190000D01*
X113225000Y-133175112D01*
X113150153Y-133190000D01*
X113150148Y-133190000D01*
X112928463Y-133234096D01*
X112677071Y-133402071D01*
X112634671Y-133465527D01*
X110472639Y-135627560D01*
X110206250Y-135627560D01*
X109874773Y-135693495D01*
X109593761Y-135881261D01*
X109405995Y-136162273D01*
X109340060Y-136493750D01*
X109340060Y-137006250D01*
X109405995Y-137337727D01*
X109593761Y-137618739D01*
X109874773Y-137806505D01*
X110206250Y-137872440D01*
X110472638Y-137872440D01*
X111106047Y-138505849D01*
X111012727Y-138443495D01*
X110681250Y-138377560D01*
X110243750Y-138377560D01*
X109912273Y-138443495D01*
X109631261Y-138631261D01*
X109443495Y-138912273D01*
X109377560Y-139243750D01*
X109377560Y-139756250D01*
X109443495Y-140087727D01*
X109631261Y-140368739D01*
X109912273Y-140556505D01*
X110243750Y-140622440D01*
X110490001Y-140622440D01*
X110490000Y-142002560D01*
X110400000Y-142002560D01*
X110152235Y-142051843D01*
X109942191Y-142192191D01*
X109801843Y-142402235D01*
X109752560Y-142650000D01*
X109752560Y-144350000D01*
X109801843Y-144597765D01*
X109942191Y-144807809D01*
X110152235Y-144948157D01*
X110255708Y-144968739D01*
X109978355Y-145273076D01*
X109808524Y-145683110D01*
X109929845Y-145913000D01*
X111123000Y-145913000D01*
X111123000Y-145893000D01*
X111377000Y-145893000D01*
X111377000Y-145913000D01*
X112570155Y-145913000D01*
X112691476Y-145683110D01*
X112521645Y-145273076D01*
X112244292Y-144968739D01*
X112347765Y-144948157D01*
X112557809Y-144807809D01*
X112698157Y-144597765D01*
X112747440Y-144350000D01*
X112747440Y-144260000D01*
X114127560Y-144260000D01*
X114127560Y-144643750D01*
X114193495Y-144975227D01*
X114301943Y-145137531D01*
X114236673Y-145202802D01*
X114140000Y-145436191D01*
X114140000Y-145714250D01*
X114298750Y-145873000D01*
X115123000Y-145873000D01*
X115123000Y-145853000D01*
X115377000Y-145853000D01*
X115377000Y-145873000D01*
X116201250Y-145873000D01*
X116360000Y-145714250D01*
X116360000Y-145436191D01*
X116263327Y-145202802D01*
X116245525Y-145185000D01*
X116600153Y-145185000D01*
X116675000Y-145199888D01*
X116749847Y-145185000D01*
X116749852Y-145185000D01*
X116971537Y-145140904D01*
X117222929Y-144972929D01*
X117256665Y-144922440D01*
X117680000Y-144922440D01*
X117927765Y-144873157D01*
X118137809Y-144732809D01*
X118250000Y-144564905D01*
X118362191Y-144732809D01*
X118572235Y-144873157D01*
X118820000Y-144922440D01*
X119880000Y-144922440D01*
X120127765Y-144873157D01*
X120254912Y-144788199D01*
X120274173Y-144834699D01*
X120452802Y-145013327D01*
X120686191Y-145110000D01*
X120964250Y-145110000D01*
X121123000Y-144951250D01*
X121123000Y-144127000D01*
X121103000Y-144127000D01*
X121103000Y-143873000D01*
X121123000Y-143873000D01*
X121123000Y-143853000D01*
X121252510Y-143853000D01*
X121252511Y-147074137D01*
X121127000Y-147156269D01*
X121127000Y-148373000D01*
X121147000Y-148373000D01*
X121147000Y-148627000D01*
X121127000Y-148627000D01*
X121127000Y-148647000D01*
X120873000Y-148647000D01*
X120873000Y-148627000D01*
X120853000Y-148627000D01*
X120853000Y-148373000D01*
X120873000Y-148373000D01*
X120873000Y-147156269D01*
X120682391Y-147031538D01*
X120644719Y-147035408D01*
X120216526Y-147261920D01*
X120096127Y-147407347D01*
X119984586Y-147240414D01*
X119693436Y-147045873D01*
X119350001Y-146977560D01*
X118649999Y-146977560D01*
X118306564Y-147045873D01*
X118015414Y-147240414D01*
X117820873Y-147531564D01*
X117752560Y-147874999D01*
X117752560Y-149125001D01*
X117820873Y-149468436D01*
X118015414Y-149759586D01*
X118306564Y-149954127D01*
X118649999Y-150022440D01*
X119350001Y-150022440D01*
X119431439Y-150006241D01*
X119609683Y-150184486D01*
X119652081Y-150247939D01*
X119715534Y-150290337D01*
X119715536Y-150290339D01*
X119840912Y-150374112D01*
X119903473Y-150415914D01*
X120125158Y-150460010D01*
X120125162Y-150460010D01*
X120200009Y-150474898D01*
X120274856Y-150460010D01*
X121308304Y-150460010D01*
X121383151Y-150474898D01*
X121457998Y-150460010D01*
X121458003Y-150460010D01*
X121679688Y-150415914D01*
X121931080Y-150247939D01*
X121973482Y-150184480D01*
X122397963Y-149760000D01*
X124225153Y-149760000D01*
X124300000Y-149774888D01*
X124374847Y-149760000D01*
X124374852Y-149760000D01*
X124596537Y-149715904D01*
X124847929Y-149547929D01*
X124890331Y-149484470D01*
X125672016Y-148702786D01*
X125742191Y-148807809D01*
X125952235Y-148948157D01*
X126200000Y-148997440D01*
X127700000Y-148997440D01*
X127947765Y-148948157D01*
X128100000Y-148846436D01*
X128252235Y-148948157D01*
X128490001Y-148995451D01*
X128490000Y-152002560D01*
X127350000Y-152002560D01*
X127102235Y-152051843D01*
X126892191Y-152192191D01*
X126751843Y-152402235D01*
X126702560Y-152650000D01*
X126702560Y-154650000D01*
X126730407Y-154790000D01*
X109210000Y-154790000D01*
X109210000Y-152055431D01*
X109265000Y-152055431D01*
X109265000Y-152944569D01*
X109605259Y-153766026D01*
X110233974Y-154394741D01*
X111055431Y-154735000D01*
X111944569Y-154735000D01*
X112766026Y-154394741D01*
X113394741Y-153766026D01*
X113735000Y-152944569D01*
X113735000Y-152055431D01*
X113394741Y-151233974D01*
X112766026Y-150605259D01*
X111944569Y-150265000D01*
X111055431Y-150265000D01*
X110233974Y-150605259D01*
X109605259Y-151233974D01*
X109265000Y-152055431D01*
X109210000Y-152055431D01*
X109210000Y-146396890D01*
X109808524Y-146396890D01*
X109978355Y-146806924D01*
X110368642Y-147235183D01*
X110893108Y-147481486D01*
X111123000Y-147360819D01*
X111123000Y-146167000D01*
X111377000Y-146167000D01*
X111377000Y-147360819D01*
X111606892Y-147481486D01*
X112131358Y-147235183D01*
X112521645Y-146806924D01*
X112691476Y-146396890D01*
X112632824Y-146285750D01*
X114140000Y-146285750D01*
X114140000Y-146563809D01*
X114236673Y-146797198D01*
X114415301Y-146975827D01*
X114648690Y-147072500D01*
X114964250Y-147072500D01*
X115123000Y-146913750D01*
X115123000Y-146127000D01*
X115377000Y-146127000D01*
X115377000Y-146913750D01*
X115535750Y-147072500D01*
X115851310Y-147072500D01*
X116084699Y-146975827D01*
X116263327Y-146797198D01*
X116360000Y-146563809D01*
X116360000Y-146285750D01*
X116201250Y-146127000D01*
X115377000Y-146127000D01*
X115123000Y-146127000D01*
X114298750Y-146127000D01*
X114140000Y-146285750D01*
X112632824Y-146285750D01*
X112570155Y-146167000D01*
X111377000Y-146167000D01*
X111123000Y-146167000D01*
X109929845Y-146167000D01*
X109808524Y-146396890D01*
X109210000Y-146396890D01*
X109210000Y-131803690D01*
X120850000Y-131803690D01*
X120850000Y-131964250D01*
X121008750Y-132123000D01*
X121653000Y-132123000D01*
X121653000Y-131453750D01*
X121494250Y-131295000D01*
X121358691Y-131295000D01*
X121125302Y-131391673D01*
X120946673Y-131570301D01*
X120850000Y-131803690D01*
X109210000Y-131803690D01*
X109210000Y-130035750D01*
X120850000Y-130035750D01*
X120850000Y-130196310D01*
X120946673Y-130429699D01*
X121125302Y-130608327D01*
X121358691Y-130705000D01*
X121494250Y-130705000D01*
X121653000Y-130546250D01*
X121653000Y-129877000D01*
X121008750Y-129877000D01*
X120850000Y-130035750D01*
X109210000Y-130035750D01*
X109210000Y-129303690D01*
X120850000Y-129303690D01*
X120850000Y-129464250D01*
X121008750Y-129623000D01*
X121653000Y-129623000D01*
X121653000Y-128953750D01*
X121494250Y-128795000D01*
X121358691Y-128795000D01*
X121125302Y-128891673D01*
X120946673Y-129070301D01*
X120850000Y-129303690D01*
X109210000Y-129303690D01*
X109210000Y-124936191D01*
X121640000Y-124936191D01*
X121640000Y-125214250D01*
X121798750Y-125373000D01*
X122623000Y-125373000D01*
X122623000Y-124586250D01*
X122877000Y-124586250D01*
X122877000Y-125373000D01*
X123701250Y-125373000D01*
X123860000Y-125214250D01*
X123860000Y-124936191D01*
X123763327Y-124702802D01*
X123696717Y-124636191D01*
X124415000Y-124636191D01*
X124415000Y-124964250D01*
X124573750Y-125123000D01*
X125623000Y-125123000D01*
X125623000Y-124286250D01*
X125877000Y-124286250D01*
X125877000Y-125123000D01*
X126926250Y-125123000D01*
X127085000Y-124964250D01*
X127085000Y-124636191D01*
X126988327Y-124402802D01*
X126809699Y-124224173D01*
X126576310Y-124127500D01*
X126035750Y-124127500D01*
X125877000Y-124286250D01*
X125623000Y-124286250D01*
X125464250Y-124127500D01*
X124923690Y-124127500D01*
X124690301Y-124224173D01*
X124511673Y-124402802D01*
X124415000Y-124636191D01*
X123696717Y-124636191D01*
X123584699Y-124524173D01*
X123351310Y-124427500D01*
X123035750Y-124427500D01*
X122877000Y-124586250D01*
X122623000Y-124586250D01*
X122464250Y-124427500D01*
X122148690Y-124427500D01*
X121915301Y-124524173D01*
X121736673Y-124702802D01*
X121640000Y-124936191D01*
X109210000Y-124936191D01*
X109210000Y-122730213D01*
X112949392Y-122730213D01*
X113018857Y-122972397D01*
X113542302Y-123159144D01*
X114097368Y-123131362D01*
X114481143Y-122972397D01*
X114550608Y-122730213D01*
X113750000Y-121929605D01*
X112949392Y-122730213D01*
X109210000Y-122730213D01*
X109210000Y-121542302D01*
X112340856Y-121542302D01*
X112368638Y-122097368D01*
X112527603Y-122481143D01*
X112769787Y-122550608D01*
X113570395Y-121750000D01*
X113929605Y-121750000D01*
X114730213Y-122550608D01*
X114972397Y-122481143D01*
X115159144Y-121957698D01*
X115131362Y-121402632D01*
X114972397Y-121018857D01*
X114730213Y-120949392D01*
X113929605Y-121750000D01*
X113570395Y-121750000D01*
X112769787Y-120949392D01*
X112527603Y-121018857D01*
X112340856Y-121542302D01*
X109210000Y-121542302D01*
X109210000Y-103472119D01*
X112353000Y-103472119D01*
X112353000Y-104027881D01*
X112565680Y-104541337D01*
X112774343Y-104750000D01*
X112565680Y-104958663D01*
X112353000Y-105472119D01*
X112353000Y-106027881D01*
X112565680Y-106541337D01*
X112774343Y-106750000D01*
X112565680Y-106958663D01*
X112353000Y-107472119D01*
X112353000Y-108027881D01*
X112565680Y-108541337D01*
X112774343Y-108750000D01*
X112565680Y-108958663D01*
X112353000Y-109472119D01*
X112353000Y-110027881D01*
X112565680Y-110541337D01*
X112774343Y-110750000D01*
X112565680Y-110958663D01*
X112353000Y-111472119D01*
X112353000Y-112027881D01*
X112565680Y-112541337D01*
X112774343Y-112750000D01*
X112565680Y-112958663D01*
X112353000Y-113472119D01*
X112353000Y-114027881D01*
X112565680Y-114541337D01*
X112774343Y-114750000D01*
X112565680Y-114958663D01*
X112353000Y-115472119D01*
X112353000Y-116027881D01*
X112565680Y-116541337D01*
X112774343Y-116750000D01*
X112565680Y-116958663D01*
X112353000Y-117472119D01*
X112353000Y-118027881D01*
X112565680Y-118541337D01*
X112774343Y-118750000D01*
X112565680Y-118958663D01*
X112353000Y-119472119D01*
X112353000Y-120027881D01*
X112565680Y-120541337D01*
X112958663Y-120934320D01*
X113223711Y-121044106D01*
X113750000Y-121570395D01*
X114276289Y-121044106D01*
X114541337Y-120934320D01*
X114934320Y-120541337D01*
X115147000Y-120027881D01*
X115147000Y-119472119D01*
X114934320Y-118958663D01*
X114725657Y-118750000D01*
X114934320Y-118541337D01*
X115147000Y-118027881D01*
X115147000Y-117472119D01*
X114934320Y-116958663D01*
X114725657Y-116750000D01*
X114934320Y-116541337D01*
X115147000Y-116027881D01*
X115147000Y-115472119D01*
X114934320Y-114958663D01*
X114725657Y-114750000D01*
X114934320Y-114541337D01*
X115147000Y-114027881D01*
X115147000Y-113472119D01*
X114934320Y-112958663D01*
X114725657Y-112750000D01*
X114934320Y-112541337D01*
X115147000Y-112027881D01*
X115147000Y-111472119D01*
X114934320Y-110958663D01*
X114725657Y-110750000D01*
X114934320Y-110541337D01*
X115090202Y-110165004D01*
X115715000Y-110789802D01*
X115715000Y-110955874D01*
X115872569Y-111336280D01*
X116163720Y-111627431D01*
X116544126Y-111785000D01*
X116955874Y-111785000D01*
X117336280Y-111627431D01*
X117627431Y-111336280D01*
X117785000Y-110955874D01*
X117785000Y-110544126D01*
X117627431Y-110163720D01*
X117336280Y-109872569D01*
X116955874Y-109715000D01*
X116789802Y-109715000D01*
X115134020Y-108059218D01*
X115147000Y-108027881D01*
X115147000Y-107472119D01*
X114934320Y-106958663D01*
X114725657Y-106750000D01*
X114934320Y-106541337D01*
X115147000Y-106027881D01*
X115147000Y-105472119D01*
X114934320Y-104958663D01*
X114725657Y-104750000D01*
X114934320Y-104541337D01*
X114947300Y-104510000D01*
X116652560Y-104510000D01*
X116652560Y-104900000D01*
X116701843Y-105147765D01*
X116842191Y-105357809D01*
X117052235Y-105498157D01*
X117300000Y-105547440D01*
X118200000Y-105547440D01*
X118447765Y-105498157D01*
X118652560Y-105361316D01*
X118652560Y-105422638D01*
X117265530Y-106809669D01*
X117202071Y-106852071D01*
X117197810Y-106858449D01*
X117163720Y-106872569D01*
X116872569Y-107163720D01*
X116715000Y-107544126D01*
X116715000Y-107955874D01*
X116872569Y-108336280D01*
X117163720Y-108627431D01*
X117544126Y-108785000D01*
X117955874Y-108785000D01*
X118336280Y-108627431D01*
X118627431Y-108336280D01*
X118785000Y-107955874D01*
X118785000Y-107544126D01*
X118754444Y-107470357D01*
X119727362Y-106497440D01*
X120200000Y-106497440D01*
X120447765Y-106448157D01*
X120657809Y-106307809D01*
X120798157Y-106097765D01*
X120847440Y-105850000D01*
X120847440Y-105050000D01*
X120798157Y-104802235D01*
X120657809Y-104592191D01*
X120519836Y-104500000D01*
X120657809Y-104407809D01*
X120798157Y-104197765D01*
X120847440Y-103950000D01*
X120847440Y-103150000D01*
X120819593Y-103010000D01*
X134544416Y-103010000D01*
X134353000Y-103472119D01*
X134353000Y-104027881D01*
X134565680Y-104541337D01*
X134774343Y-104750000D01*
X134565680Y-104958663D01*
X134353000Y-105472119D01*
X134353000Y-106027881D01*
X134565680Y-106541337D01*
X134774343Y-106750000D01*
X134565680Y-106958663D01*
X134353000Y-107472119D01*
X134353000Y-108027881D01*
X134565680Y-108541337D01*
X134774343Y-108750000D01*
X134565680Y-108958663D01*
X134353000Y-109472119D01*
X134353000Y-110027881D01*
X134565680Y-110541337D01*
X134774343Y-110750000D01*
X134565680Y-110958663D01*
X134353000Y-111472119D01*
X134353000Y-112027881D01*
X134565680Y-112541337D01*
X134774343Y-112750000D01*
X134565680Y-112958663D01*
X134353000Y-113472119D01*
X134353000Y-114027881D01*
X134565680Y-114541337D01*
X134774343Y-114750000D01*
X134565680Y-114958663D01*
X134353000Y-115472119D01*
X134353000Y-116027881D01*
X134565680Y-116541337D01*
X134774343Y-116750000D01*
X134565680Y-116958663D01*
X134353000Y-117472119D01*
X134353000Y-118027881D01*
X134565680Y-118541337D01*
X134774343Y-118750000D01*
X134565680Y-118958663D01*
X134353000Y-119472119D01*
X134353000Y-120027881D01*
X134565680Y-120541337D01*
X134774343Y-120750000D01*
X134565680Y-120958663D01*
X134353000Y-121472119D01*
X134353000Y-122027881D01*
X134565680Y-122541337D01*
X134958663Y-122934320D01*
X135472119Y-123147000D01*
X136027881Y-123147000D01*
X136541337Y-122934320D01*
X136934320Y-122541337D01*
X137147000Y-122027881D01*
X137147000Y-121472119D01*
X136934320Y-120958663D01*
X136725657Y-120750000D01*
X136934320Y-120541337D01*
X137147000Y-120027881D01*
X137147000Y-119472119D01*
X136934320Y-118958663D01*
X136725657Y-118750000D01*
X136934320Y-118541337D01*
X137147000Y-118027881D01*
X137147000Y-117472119D01*
X136934320Y-116958663D01*
X136725657Y-116750000D01*
X136934320Y-116541337D01*
X137147000Y-116027881D01*
X137147000Y-115472119D01*
X136934320Y-114958663D01*
X136725657Y-114750000D01*
X136934320Y-114541337D01*
X137147000Y-114027881D01*
X137147000Y-113472119D01*
X136934320Y-112958663D01*
X136725657Y-112750000D01*
X136934320Y-112541337D01*
X137147000Y-112027881D01*
X137147000Y-111472119D01*
X136934320Y-110958663D01*
X136725657Y-110750000D01*
X136934320Y-110541337D01*
X137147000Y-110027881D01*
X137147000Y-109472119D01*
X136934320Y-108958663D01*
X136725657Y-108750000D01*
X136934320Y-108541337D01*
X137147000Y-108027881D01*
X137147000Y-107472119D01*
X136934320Y-106958663D01*
X136725657Y-106750000D01*
X136934320Y-106541337D01*
X137147000Y-106027881D01*
X137147000Y-105472119D01*
X136934320Y-104958663D01*
X136725657Y-104750000D01*
X136934320Y-104541337D01*
X137081425Y-104186191D01*
X138390000Y-104186191D01*
X138390000Y-104464250D01*
X138548750Y-104623000D01*
X139373000Y-104623000D01*
X139373000Y-103836250D01*
X139627000Y-103836250D01*
X139627000Y-104623000D01*
X140451250Y-104623000D01*
X140610000Y-104464250D01*
X140610000Y-104186191D01*
X140513327Y-103952802D01*
X140334699Y-103774173D01*
X140101310Y-103677500D01*
X139785750Y-103677500D01*
X139627000Y-103836250D01*
X139373000Y-103836250D01*
X139214250Y-103677500D01*
X138898690Y-103677500D01*
X138665301Y-103774173D01*
X138486673Y-103952802D01*
X138390000Y-104186191D01*
X137081425Y-104186191D01*
X137147000Y-104027881D01*
X137147000Y-103472119D01*
X136955584Y-103010000D01*
X137296289Y-103010000D01*
X137413720Y-103127431D01*
X137794126Y-103285000D01*
X138205874Y-103285000D01*
X138586280Y-103127431D01*
X138877431Y-102836280D01*
X139035000Y-102455874D01*
X139035000Y-102044126D01*
X138877431Y-101663720D01*
X138586280Y-101372569D01*
X138205874Y-101215000D01*
X137794126Y-101215000D01*
X137413720Y-101372569D01*
X137296289Y-101490000D01*
X120474848Y-101490000D01*
X120400000Y-101475112D01*
X120325152Y-101490000D01*
X120325148Y-101490000D01*
X120151605Y-101524520D01*
X120103462Y-101534096D01*
X119916418Y-101659076D01*
X119852071Y-101702071D01*
X119809671Y-101765527D01*
X119265530Y-102309669D01*
X119202071Y-102352071D01*
X119071095Y-102548092D01*
X119052235Y-102551843D01*
X118842191Y-102692191D01*
X118701843Y-102902235D01*
X118652560Y-103150000D01*
X118652560Y-103638684D01*
X118447765Y-103501843D01*
X118428906Y-103498092D01*
X118297929Y-103302071D01*
X118237984Y-103262017D01*
X118197929Y-103202071D01*
X117946537Y-103034096D01*
X117724852Y-102990000D01*
X117724847Y-102990000D01*
X117650000Y-102975112D01*
X117575153Y-102990000D01*
X114947300Y-102990000D01*
X114934320Y-102958663D01*
X114541337Y-102565680D01*
X114027881Y-102353000D01*
X113472119Y-102353000D01*
X112958663Y-102565680D01*
X112565680Y-102958663D01*
X112353000Y-103472119D01*
X109210000Y-103472119D01*
X109210000Y-98055431D01*
X109265000Y-98055431D01*
X109265000Y-98944569D01*
X109605259Y-99766026D01*
X110233974Y-100394741D01*
X111055431Y-100735000D01*
X111944569Y-100735000D01*
X112766026Y-100394741D01*
X113394741Y-99766026D01*
X113735000Y-98944569D01*
X113735000Y-98055431D01*
X147265000Y-98055431D01*
X147265000Y-98944569D01*
X147605259Y-99766026D01*
X148233974Y-100394741D01*
X149055431Y-100735000D01*
X149944569Y-100735000D01*
X150766026Y-100394741D01*
X151394741Y-99766026D01*
X151735000Y-98944569D01*
X151735000Y-98055431D01*
X151394741Y-97233974D01*
X150766026Y-96605259D01*
X149944569Y-96265000D01*
X149055431Y-96265000D01*
X148233974Y-96605259D01*
X147605259Y-97233974D01*
X147265000Y-98055431D01*
X113735000Y-98055431D01*
X113394741Y-97233974D01*
X112766026Y-96605259D01*
X111944569Y-96265000D01*
X111055431Y-96265000D01*
X110233974Y-96605259D01*
X109605259Y-97233974D01*
X109265000Y-98055431D01*
X109210000Y-98055431D01*
X109210000Y-96210000D01*
X151790001Y-96210000D01*
X151790000Y-131563473D01*
X151790000Y-131563473D01*
G37*
X151790000Y-131563473D02*
X151697765Y-131501843D01*
X151450000Y-131452560D01*
X150977361Y-131452560D01*
X150760000Y-131235199D01*
X150760000Y-128997440D01*
X150850000Y-128997440D01*
X151097765Y-128948157D01*
X151307809Y-128807809D01*
X151448157Y-128597765D01*
X151497440Y-128350000D01*
X151497440Y-126650000D01*
X151448157Y-126402235D01*
X151307809Y-126192191D01*
X151097765Y-126051843D01*
X151052381Y-126042816D01*
X151070625Y-126030625D01*
X151398839Y-125539418D01*
X151514092Y-124960000D01*
X151398839Y-124380582D01*
X151070625Y-123889375D01*
X150751522Y-123676157D01*
X150881358Y-123615183D01*
X151271645Y-123186924D01*
X151441476Y-122776890D01*
X151320155Y-122547000D01*
X150127000Y-122547000D01*
X150127000Y-122567000D01*
X149873000Y-122567000D01*
X149873000Y-122547000D01*
X148679845Y-122547000D01*
X148558524Y-122776890D01*
X148728355Y-123186924D01*
X149118642Y-123615183D01*
X149248478Y-123676157D01*
X148929375Y-123889375D01*
X148601161Y-124380582D01*
X148485908Y-124960000D01*
X148558791Y-125326408D01*
X147265528Y-126619671D01*
X147202072Y-126662071D01*
X147159672Y-126725527D01*
X147159671Y-126725528D01*
X147034097Y-126913463D01*
X146975112Y-127210000D01*
X146990001Y-127284852D01*
X146990000Y-129935198D01*
X146185199Y-130740000D01*
X140044801Y-130740000D01*
X141843592Y-128941209D01*
X142063744Y-128985000D01*
X142356256Y-128985000D01*
X142789418Y-128898839D01*
X143280625Y-128570625D01*
X143292816Y-128552381D01*
X143301843Y-128597765D01*
X143442191Y-128807809D01*
X143652235Y-128948157D01*
X143900000Y-128997440D01*
X145600000Y-128997440D01*
X145847765Y-128948157D01*
X146057809Y-128807809D01*
X146198157Y-128597765D01*
X146247440Y-128350000D01*
X146247440Y-126650000D01*
X146198157Y-126402235D01*
X146057809Y-126192191D01*
X145847765Y-126051843D01*
X145802381Y-126042816D01*
X145820625Y-126030625D01*
X146148839Y-125539418D01*
X146264092Y-124960000D01*
X146148839Y-124380582D01*
X145820625Y-123889375D01*
X145501522Y-123676157D01*
X145631358Y-123615183D01*
X146021645Y-123186924D01*
X146191476Y-122776890D01*
X146070155Y-122547000D01*
X144877000Y-122547000D01*
X144877000Y-122567000D01*
X144623000Y-122567000D01*
X144623000Y-122547000D01*
X144603000Y-122547000D01*
X144603000Y-122293000D01*
X144623000Y-122293000D01*
X144623000Y-121099181D01*
X144877000Y-121099181D01*
X144877000Y-122293000D01*
X146070155Y-122293000D01*
X146191476Y-122063110D01*
X148558524Y-122063110D01*
X148679845Y-122293000D01*
X149873000Y-122293000D01*
X149873000Y-121099181D01*
X150127000Y-121099181D01*
X150127000Y-122293000D01*
X151320155Y-122293000D01*
X151441476Y-122063110D01*
X151271645Y-121653076D01*
X150881358Y-121224817D01*
X150356892Y-120978514D01*
X150127000Y-121099181D01*
X149873000Y-121099181D01*
X149643108Y-120978514D01*
X149118642Y-121224817D01*
X148728355Y-121653076D01*
X148558524Y-122063110D01*
X146191476Y-122063110D01*
X146021645Y-121653076D01*
X145631358Y-121224817D01*
X145106892Y-120978514D01*
X144877000Y-121099181D01*
X144623000Y-121099181D01*
X144393108Y-120978514D01*
X144145001Y-121095032D01*
X144145001Y-117147440D01*
X144745000Y-117147440D01*
X144992765Y-117098157D01*
X145202809Y-116957809D01*
X145334982Y-116760000D01*
X147165018Y-116760000D01*
X147297191Y-116957809D01*
X147507235Y-117098157D01*
X147755000Y-117147440D01*
X150505000Y-117147440D01*
X150752765Y-117098157D01*
X150962809Y-116957809D01*
X151103157Y-116747765D01*
X151152440Y-116500000D01*
X151152440Y-115500000D01*
X151103157Y-115252235D01*
X150962809Y-115042191D01*
X150752765Y-114901843D01*
X150505000Y-114852560D01*
X147755000Y-114852560D01*
X147507235Y-114901843D01*
X147297191Y-115042191D01*
X147165018Y-115240000D01*
X145334982Y-115240000D01*
X145202809Y-115042191D01*
X144992765Y-114901843D01*
X144745000Y-114852560D01*
X144018483Y-114852560D01*
X143960329Y-114765527D01*
X143917929Y-114702071D01*
X143854473Y-114659671D01*
X143460331Y-114265529D01*
X143417929Y-114202071D01*
X143166537Y-114034096D01*
X142944852Y-113990000D01*
X142944847Y-113990000D01*
X142870000Y-113975112D01*
X142795153Y-113990000D01*
X140495525Y-113990000D01*
X140513327Y-113972198D01*
X140610000Y-113738809D01*
X140610000Y-113460750D01*
X140451250Y-113302000D01*
X139627000Y-113302000D01*
X139627000Y-113322000D01*
X139459990Y-113322000D01*
X139459990Y-112261250D01*
X139627000Y-112261250D01*
X139627000Y-113048000D01*
X140451250Y-113048000D01*
X140610000Y-112889250D01*
X140610000Y-112611191D01*
X140513327Y-112377802D01*
X140421276Y-112285750D01*
X141360000Y-112285750D01*
X141360000Y-112626310D01*
X141456673Y-112859699D01*
X141635302Y-113038327D01*
X141868691Y-113135000D01*
X143084250Y-113135000D01*
X143243000Y-112976250D01*
X143243000Y-112127000D01*
X143497000Y-112127000D01*
X143497000Y-112976250D01*
X143655750Y-113135000D01*
X144871309Y-113135000D01*
X145104698Y-113038327D01*
X145283327Y-112859699D01*
X145380000Y-112626310D01*
X145380000Y-112285750D01*
X147120000Y-112285750D01*
X147120000Y-112626310D01*
X147216673Y-112859699D01*
X147395302Y-113038327D01*
X147628691Y-113135000D01*
X148844250Y-113135000D01*
X149003000Y-112976250D01*
X149003000Y-112127000D01*
X149257000Y-112127000D01*
X149257000Y-112976250D01*
X149415750Y-113135000D01*
X150631309Y-113135000D01*
X150864698Y-113038327D01*
X151043327Y-112859699D01*
X151140000Y-112626310D01*
X151140000Y-112285750D01*
X150981250Y-112127000D01*
X149257000Y-112127000D01*
X149003000Y-112127000D01*
X147278750Y-112127000D01*
X147120000Y-112285750D01*
X145380000Y-112285750D01*
X145221250Y-112127000D01*
X143497000Y-112127000D01*
X143243000Y-112127000D01*
X141518750Y-112127000D01*
X141360000Y-112285750D01*
X140421276Y-112285750D01*
X140334699Y-112199173D01*
X140101310Y-112102500D01*
X139785750Y-112102500D01*
X139627000Y-112261250D01*
X139459990Y-112261250D01*
X139459990Y-111614811D01*
X139489861Y-111584940D01*
X139756250Y-111584940D01*
X140087727Y-111519005D01*
X140305206Y-111373690D01*
X141360000Y-111373690D01*
X141360000Y-111714250D01*
X141518750Y-111873000D01*
X143243000Y-111873000D01*
X143243000Y-111023750D01*
X143497000Y-111023750D01*
X143497000Y-111873000D01*
X145221250Y-111873000D01*
X145380000Y-111714250D01*
X145380000Y-111373690D01*
X147120000Y-111373690D01*
X147120000Y-111714250D01*
X147278750Y-111873000D01*
X149003000Y-111873000D01*
X149003000Y-111023750D01*
X149257000Y-111023750D01*
X149257000Y-111873000D01*
X150981250Y-111873000D01*
X151140000Y-111714250D01*
X151140000Y-111373690D01*
X151043327Y-111140301D01*
X150864698Y-110961673D01*
X150631309Y-110865000D01*
X149415750Y-110865000D01*
X149257000Y-111023750D01*
X149003000Y-111023750D01*
X148844250Y-110865000D01*
X147628691Y-110865000D01*
X147395302Y-110961673D01*
X147216673Y-111140301D01*
X147120000Y-111373690D01*
X145380000Y-111373690D01*
X145283327Y-111140301D01*
X145104698Y-110961673D01*
X144871309Y-110865000D01*
X143655750Y-110865000D01*
X143497000Y-111023750D01*
X143243000Y-111023750D01*
X143084250Y-110865000D01*
X141868691Y-110865000D01*
X141635302Y-110961673D01*
X141456673Y-111140301D01*
X141360000Y-111373690D01*
X140305206Y-111373690D01*
X140368739Y-111331239D01*
X140556505Y-111050227D01*
X140622440Y-110718750D01*
X140622440Y-110281250D01*
X140556505Y-109949773D01*
X140397964Y-109712500D01*
X140556505Y-109475227D01*
X140622440Y-109143750D01*
X140622440Y-108877361D01*
X140989802Y-108510000D01*
X141405018Y-108510000D01*
X141537191Y-108707809D01*
X141747235Y-108848157D01*
X141995000Y-108897440D01*
X142490000Y-108897440D01*
X142490000Y-109046289D01*
X142372569Y-109163720D01*
X142215000Y-109544126D01*
X142215000Y-109955874D01*
X142372569Y-110336280D01*
X142663720Y-110627431D01*
X143044126Y-110785000D01*
X143455874Y-110785000D01*
X143836280Y-110627431D01*
X144127431Y-110336280D01*
X144285000Y-109955874D01*
X144285000Y-109544126D01*
X144127431Y-109163720D01*
X144010000Y-109046289D01*
X144010000Y-108897440D01*
X144745000Y-108897440D01*
X144992765Y-108848157D01*
X145202809Y-108707809D01*
X145334982Y-108510000D01*
X147165018Y-108510000D01*
X147297191Y-108707809D01*
X147507235Y-108848157D01*
X147755000Y-108897440D01*
X150505000Y-108897440D01*
X150752765Y-108848157D01*
X150962809Y-108707809D01*
X151103157Y-108497765D01*
X151152440Y-108250000D01*
X151152440Y-107250000D01*
X151103157Y-107002235D01*
X150962809Y-106792191D01*
X150752765Y-106651843D01*
X150505000Y-106602560D01*
X147755000Y-106602560D01*
X147507235Y-106651843D01*
X147297191Y-106792191D01*
X147165018Y-106990000D01*
X145334982Y-106990000D01*
X145202809Y-106792191D01*
X144992765Y-106651843D01*
X144745000Y-106602560D01*
X142342241Y-106602560D01*
X143854473Y-105090329D01*
X143917929Y-105047929D01*
X144015388Y-104902072D01*
X144018483Y-104897440D01*
X144745000Y-104897440D01*
X144992765Y-104848157D01*
X145202809Y-104707809D01*
X145334982Y-104510000D01*
X147165018Y-104510000D01*
X147297191Y-104707809D01*
X147507235Y-104848157D01*
X147755000Y-104897440D01*
X150505000Y-104897440D01*
X150752765Y-104848157D01*
X150962809Y-104707809D01*
X151103157Y-104497765D01*
X151152440Y-104250000D01*
X151152440Y-103250000D01*
X151103157Y-103002235D01*
X150962809Y-102792191D01*
X150752765Y-102651843D01*
X150505000Y-102602560D01*
X147755000Y-102602560D01*
X147507235Y-102651843D01*
X147297191Y-102792191D01*
X147165018Y-102990000D01*
X145334982Y-102990000D01*
X145202809Y-102792191D01*
X144992765Y-102651843D01*
X144745000Y-102602560D01*
X141995000Y-102602560D01*
X141747235Y-102651843D01*
X141537191Y-102792191D01*
X141396843Y-103002235D01*
X141347560Y-103250000D01*
X141347560Y-104250000D01*
X141396843Y-104497765D01*
X141537191Y-104707809D01*
X141747235Y-104848157D01*
X141913892Y-104881307D01*
X141230199Y-105565000D01*
X140495525Y-105565000D01*
X140513327Y-105547198D01*
X140610000Y-105313809D01*
X140610000Y-105035750D01*
X140451250Y-104877000D01*
X139627000Y-104877000D01*
X139627000Y-104897000D01*
X139373000Y-104897000D01*
X139373000Y-104877000D01*
X138548750Y-104877000D01*
X138390000Y-105035750D01*
X138390000Y-105313809D01*
X138486673Y-105547198D01*
X138551943Y-105612469D01*
X138443495Y-105774773D01*
X138377560Y-106106250D01*
X138377560Y-106372638D01*
X137515528Y-107234671D01*
X137452072Y-107277071D01*
X137409672Y-107340527D01*
X137409671Y-107340528D01*
X137284097Y-107528463D01*
X137225112Y-107825000D01*
X137240001Y-107899852D01*
X137240000Y-123685198D01*
X135185199Y-125740000D01*
X131474848Y-125740000D01*
X131400000Y-125725112D01*
X131325152Y-125740000D01*
X131325148Y-125740000D01*
X131103463Y-125784096D01*
X130852071Y-125952071D01*
X130809671Y-126015527D01*
X129765528Y-127059671D01*
X129702072Y-127102071D01*
X129534097Y-127353463D01*
X129520166Y-127423499D01*
X129492191Y-127442191D01*
X129351843Y-127652235D01*
X129323000Y-127797240D01*
X129323000Y-127423750D01*
X129164250Y-127265000D01*
X129023690Y-127265000D01*
X128790301Y-127361673D01*
X128611673Y-127540302D01*
X128515000Y-127773691D01*
X128515000Y-128214250D01*
X128673750Y-128373000D01*
X129302560Y-128373000D01*
X129302560Y-128627000D01*
X128673750Y-128627000D01*
X128515000Y-128785750D01*
X128515000Y-128805069D01*
X128484473Y-128784671D01*
X127092647Y-127392846D01*
X127097440Y-127368750D01*
X127097440Y-126881250D01*
X127029602Y-126540206D01*
X126836416Y-126251084D01*
X126835233Y-126250293D01*
X126988327Y-126097198D01*
X127085000Y-125863809D01*
X127085000Y-125535750D01*
X126926250Y-125377000D01*
X125877000Y-125377000D01*
X125877000Y-125397000D01*
X125623000Y-125397000D01*
X125623000Y-125377000D01*
X124573750Y-125377000D01*
X124415000Y-125535750D01*
X124415000Y-125863809D01*
X124511673Y-126097198D01*
X124664767Y-126250293D01*
X124663584Y-126251084D01*
X124587467Y-126365000D01*
X123699748Y-126365000D01*
X123698057Y-126362469D01*
X123763327Y-126297198D01*
X123860000Y-126063809D01*
X123860000Y-125785750D01*
X123701250Y-125627000D01*
X122877000Y-125627000D01*
X122877000Y-125647000D01*
X122623000Y-125647000D01*
X122623000Y-125627000D01*
X121798750Y-125627000D01*
X121640000Y-125785750D01*
X121640000Y-126063809D01*
X121736673Y-126297198D01*
X121801943Y-126362469D01*
X121693495Y-126524773D01*
X121627560Y-126856250D01*
X121627560Y-127293750D01*
X121693495Y-127625227D01*
X121881261Y-127906239D01*
X122162273Y-128094005D01*
X122493750Y-128159940D01*
X123006250Y-128159940D01*
X123337727Y-128094005D01*
X123618739Y-127906239D01*
X123632930Y-127885000D01*
X124587467Y-127885000D01*
X124663584Y-127998916D01*
X124952706Y-128192102D01*
X125293750Y-128259940D01*
X125810139Y-128259940D01*
X126153444Y-128603245D01*
X126150000Y-128602560D01*
X124350000Y-128602560D01*
X124102235Y-128651843D01*
X123892191Y-128792191D01*
X123760018Y-128990000D01*
X123421604Y-128990000D01*
X123201710Y-128843071D01*
X122897500Y-128782560D01*
X122602500Y-128782560D01*
X122311175Y-128840508D01*
X122201309Y-128795000D01*
X122065750Y-128795000D01*
X121907000Y-128953750D01*
X121907000Y-129215029D01*
X121868071Y-129273290D01*
X121807560Y-129577500D01*
X121807560Y-129922500D01*
X121868071Y-130226710D01*
X121907000Y-130284971D01*
X121907000Y-130546250D01*
X122065750Y-130705000D01*
X122201309Y-130705000D01*
X122311175Y-130659492D01*
X122602500Y-130717440D01*
X122897500Y-130717440D01*
X123201710Y-130656929D01*
X123421604Y-130510000D01*
X123760018Y-130510000D01*
X123892191Y-130707809D01*
X124102235Y-130848157D01*
X124350000Y-130897440D01*
X126150000Y-130897440D01*
X126397765Y-130848157D01*
X126413105Y-130837907D01*
X126567176Y-130991978D01*
X126552071Y-131002071D01*
X126509672Y-131065525D01*
X126413105Y-131162093D01*
X126397765Y-131151843D01*
X126150000Y-131102560D01*
X124350000Y-131102560D01*
X124102235Y-131151843D01*
X123892191Y-131292191D01*
X123760018Y-131490000D01*
X123421604Y-131490000D01*
X123201710Y-131343071D01*
X122897500Y-131282560D01*
X122602500Y-131282560D01*
X122311175Y-131340508D01*
X122201309Y-131295000D01*
X122065750Y-131295000D01*
X121907000Y-131453750D01*
X121907000Y-131715029D01*
X121868071Y-131773290D01*
X121807560Y-132077500D01*
X121807560Y-132397000D01*
X121653000Y-132397000D01*
X121653000Y-132377000D01*
X121008750Y-132377000D01*
X120850000Y-132535750D01*
X120850000Y-132696310D01*
X120946673Y-132929699D01*
X121125302Y-133108327D01*
X121322478Y-133190000D01*
X113299847Y-133190000D01*
X113225000Y-133175112D01*
X113150153Y-133190000D01*
X113150148Y-133190000D01*
X112928463Y-133234096D01*
X112677071Y-133402071D01*
X112634671Y-133465527D01*
X110472639Y-135627560D01*
X110206250Y-135627560D01*
X109874773Y-135693495D01*
X109593761Y-135881261D01*
X109405995Y-136162273D01*
X109340060Y-136493750D01*
X109340060Y-137006250D01*
X109405995Y-137337727D01*
X109593761Y-137618739D01*
X109874773Y-137806505D01*
X110206250Y-137872440D01*
X110472638Y-137872440D01*
X111106047Y-138505849D01*
X111012727Y-138443495D01*
X110681250Y-138377560D01*
X110243750Y-138377560D01*
X109912273Y-138443495D01*
X109631261Y-138631261D01*
X109443495Y-138912273D01*
X109377560Y-139243750D01*
X109377560Y-139756250D01*
X109443495Y-140087727D01*
X109631261Y-140368739D01*
X109912273Y-140556505D01*
X110243750Y-140622440D01*
X110490001Y-140622440D01*
X110490000Y-142002560D01*
X110400000Y-142002560D01*
X110152235Y-142051843D01*
X109942191Y-142192191D01*
X109801843Y-142402235D01*
X109752560Y-142650000D01*
X109752560Y-144350000D01*
X109801843Y-144597765D01*
X109942191Y-144807809D01*
X110152235Y-144948157D01*
X110255708Y-144968739D01*
X109978355Y-145273076D01*
X109808524Y-145683110D01*
X109929845Y-145913000D01*
X111123000Y-145913000D01*
X111123000Y-145893000D01*
X111377000Y-145893000D01*
X111377000Y-145913000D01*
X112570155Y-145913000D01*
X112691476Y-145683110D01*
X112521645Y-145273076D01*
X112244292Y-144968739D01*
X112347765Y-144948157D01*
X112557809Y-144807809D01*
X112698157Y-144597765D01*
X112747440Y-144350000D01*
X112747440Y-144260000D01*
X114127560Y-144260000D01*
X114127560Y-144643750D01*
X114193495Y-144975227D01*
X114301943Y-145137531D01*
X114236673Y-145202802D01*
X114140000Y-145436191D01*
X114140000Y-145714250D01*
X114298750Y-145873000D01*
X115123000Y-145873000D01*
X115123000Y-145853000D01*
X115377000Y-145853000D01*
X115377000Y-145873000D01*
X116201250Y-145873000D01*
X116360000Y-145714250D01*
X116360000Y-145436191D01*
X116263327Y-145202802D01*
X116245525Y-145185000D01*
X116600153Y-145185000D01*
X116675000Y-145199888D01*
X116749847Y-145185000D01*
X116749852Y-145185000D01*
X116971537Y-145140904D01*
X117222929Y-144972929D01*
X117256665Y-144922440D01*
X117680000Y-144922440D01*
X117927765Y-144873157D01*
X118137809Y-144732809D01*
X118250000Y-144564905D01*
X118362191Y-144732809D01*
X118572235Y-144873157D01*
X118820000Y-144922440D01*
X119880000Y-144922440D01*
X120127765Y-144873157D01*
X120254912Y-144788199D01*
X120274173Y-144834699D01*
X120452802Y-145013327D01*
X120686191Y-145110000D01*
X120964250Y-145110000D01*
X121123000Y-144951250D01*
X121123000Y-144127000D01*
X121103000Y-144127000D01*
X121103000Y-143873000D01*
X121123000Y-143873000D01*
X121123000Y-143853000D01*
X121252510Y-143853000D01*
X121252511Y-147074137D01*
X121127000Y-147156269D01*
X121127000Y-148373000D01*
X121147000Y-148373000D01*
X121147000Y-148627000D01*
X121127000Y-148627000D01*
X121127000Y-148647000D01*
X120873000Y-148647000D01*
X120873000Y-148627000D01*
X120853000Y-148627000D01*
X120853000Y-148373000D01*
X120873000Y-148373000D01*
X120873000Y-147156269D01*
X120682391Y-147031538D01*
X120644719Y-147035408D01*
X120216526Y-147261920D01*
X120096127Y-147407347D01*
X119984586Y-147240414D01*
X119693436Y-147045873D01*
X119350001Y-146977560D01*
X118649999Y-146977560D01*
X118306564Y-147045873D01*
X118015414Y-147240414D01*
X117820873Y-147531564D01*
X117752560Y-147874999D01*
X117752560Y-149125001D01*
X117820873Y-149468436D01*
X118015414Y-149759586D01*
X118306564Y-149954127D01*
X118649999Y-150022440D01*
X119350001Y-150022440D01*
X119431439Y-150006241D01*
X119609683Y-150184486D01*
X119652081Y-150247939D01*
X119715534Y-150290337D01*
X119715536Y-150290339D01*
X119840912Y-150374112D01*
X119903473Y-150415914D01*
X120125158Y-150460010D01*
X120125162Y-150460010D01*
X120200009Y-150474898D01*
X120274856Y-150460010D01*
X121308304Y-150460010D01*
X121383151Y-150474898D01*
X121457998Y-150460010D01*
X121458003Y-150460010D01*
X121679688Y-150415914D01*
X121931080Y-150247939D01*
X121973482Y-150184480D01*
X122397963Y-149760000D01*
X124225153Y-149760000D01*
X124300000Y-149774888D01*
X124374847Y-149760000D01*
X124374852Y-149760000D01*
X124596537Y-149715904D01*
X124847929Y-149547929D01*
X124890331Y-149484470D01*
X125672016Y-148702786D01*
X125742191Y-148807809D01*
X125952235Y-148948157D01*
X126200000Y-148997440D01*
X127700000Y-148997440D01*
X127947765Y-148948157D01*
X128100000Y-148846436D01*
X128252235Y-148948157D01*
X128490001Y-148995451D01*
X128490000Y-152002560D01*
X127350000Y-152002560D01*
X127102235Y-152051843D01*
X126892191Y-152192191D01*
X126751843Y-152402235D01*
X126702560Y-152650000D01*
X126702560Y-154650000D01*
X126730407Y-154790000D01*
X109210000Y-154790000D01*
X109210000Y-152055431D01*
X109265000Y-152055431D01*
X109265000Y-152944569D01*
X109605259Y-153766026D01*
X110233974Y-154394741D01*
X111055431Y-154735000D01*
X111944569Y-154735000D01*
X112766026Y-154394741D01*
X113394741Y-153766026D01*
X113735000Y-152944569D01*
X113735000Y-152055431D01*
X113394741Y-151233974D01*
X112766026Y-150605259D01*
X111944569Y-150265000D01*
X111055431Y-150265000D01*
X110233974Y-150605259D01*
X109605259Y-151233974D01*
X109265000Y-152055431D01*
X109210000Y-152055431D01*
X109210000Y-146396890D01*
X109808524Y-146396890D01*
X109978355Y-146806924D01*
X110368642Y-147235183D01*
X110893108Y-147481486D01*
X111123000Y-147360819D01*
X111123000Y-146167000D01*
X111377000Y-146167000D01*
X111377000Y-147360819D01*
X111606892Y-147481486D01*
X112131358Y-147235183D01*
X112521645Y-146806924D01*
X112691476Y-146396890D01*
X112632824Y-146285750D01*
X114140000Y-146285750D01*
X114140000Y-146563809D01*
X114236673Y-146797198D01*
X114415301Y-146975827D01*
X114648690Y-147072500D01*
X114964250Y-147072500D01*
X115123000Y-146913750D01*
X115123000Y-146127000D01*
X115377000Y-146127000D01*
X115377000Y-146913750D01*
X115535750Y-147072500D01*
X115851310Y-147072500D01*
X116084699Y-146975827D01*
X116263327Y-146797198D01*
X116360000Y-146563809D01*
X116360000Y-146285750D01*
X116201250Y-146127000D01*
X115377000Y-146127000D01*
X115123000Y-146127000D01*
X114298750Y-146127000D01*
X114140000Y-146285750D01*
X112632824Y-146285750D01*
X112570155Y-146167000D01*
X111377000Y-146167000D01*
X111123000Y-146167000D01*
X109929845Y-146167000D01*
X109808524Y-146396890D01*
X109210000Y-146396890D01*
X109210000Y-131803690D01*
X120850000Y-131803690D01*
X120850000Y-131964250D01*
X121008750Y-132123000D01*
X121653000Y-132123000D01*
X121653000Y-131453750D01*
X121494250Y-131295000D01*
X121358691Y-131295000D01*
X121125302Y-131391673D01*
X120946673Y-131570301D01*
X120850000Y-131803690D01*
X109210000Y-131803690D01*
X109210000Y-130035750D01*
X120850000Y-130035750D01*
X120850000Y-130196310D01*
X120946673Y-130429699D01*
X121125302Y-130608327D01*
X121358691Y-130705000D01*
X121494250Y-130705000D01*
X121653000Y-130546250D01*
X121653000Y-129877000D01*
X121008750Y-129877000D01*
X120850000Y-130035750D01*
X109210000Y-130035750D01*
X109210000Y-129303690D01*
X120850000Y-129303690D01*
X120850000Y-129464250D01*
X121008750Y-129623000D01*
X121653000Y-129623000D01*
X121653000Y-128953750D01*
X121494250Y-128795000D01*
X121358691Y-128795000D01*
X121125302Y-128891673D01*
X120946673Y-129070301D01*
X120850000Y-129303690D01*
X109210000Y-129303690D01*
X109210000Y-124936191D01*
X121640000Y-124936191D01*
X121640000Y-125214250D01*
X121798750Y-125373000D01*
X122623000Y-125373000D01*
X122623000Y-124586250D01*
X122877000Y-124586250D01*
X122877000Y-125373000D01*
X123701250Y-125373000D01*
X123860000Y-125214250D01*
X123860000Y-124936191D01*
X123763327Y-124702802D01*
X123696717Y-124636191D01*
X124415000Y-124636191D01*
X124415000Y-124964250D01*
X124573750Y-125123000D01*
X125623000Y-125123000D01*
X125623000Y-124286250D01*
X125877000Y-124286250D01*
X125877000Y-125123000D01*
X126926250Y-125123000D01*
X127085000Y-124964250D01*
X127085000Y-124636191D01*
X126988327Y-124402802D01*
X126809699Y-124224173D01*
X126576310Y-124127500D01*
X126035750Y-124127500D01*
X125877000Y-124286250D01*
X125623000Y-124286250D01*
X125464250Y-124127500D01*
X124923690Y-124127500D01*
X124690301Y-124224173D01*
X124511673Y-124402802D01*
X124415000Y-124636191D01*
X123696717Y-124636191D01*
X123584699Y-124524173D01*
X123351310Y-124427500D01*
X123035750Y-124427500D01*
X122877000Y-124586250D01*
X122623000Y-124586250D01*
X122464250Y-124427500D01*
X122148690Y-124427500D01*
X121915301Y-124524173D01*
X121736673Y-124702802D01*
X121640000Y-124936191D01*
X109210000Y-124936191D01*
X109210000Y-122730213D01*
X112949392Y-122730213D01*
X113018857Y-122972397D01*
X113542302Y-123159144D01*
X114097368Y-123131362D01*
X114481143Y-122972397D01*
X114550608Y-122730213D01*
X113750000Y-121929605D01*
X112949392Y-122730213D01*
X109210000Y-122730213D01*
X109210000Y-121542302D01*
X112340856Y-121542302D01*
X112368638Y-122097368D01*
X112527603Y-122481143D01*
X112769787Y-122550608D01*
X113570395Y-121750000D01*
X113929605Y-121750000D01*
X114730213Y-122550608D01*
X114972397Y-122481143D01*
X115159144Y-121957698D01*
X115131362Y-121402632D01*
X114972397Y-121018857D01*
X114730213Y-120949392D01*
X113929605Y-121750000D01*
X113570395Y-121750000D01*
X112769787Y-120949392D01*
X112527603Y-121018857D01*
X112340856Y-121542302D01*
X109210000Y-121542302D01*
X109210000Y-103472119D01*
X112353000Y-103472119D01*
X112353000Y-104027881D01*
X112565680Y-104541337D01*
X112774343Y-104750000D01*
X112565680Y-104958663D01*
X112353000Y-105472119D01*
X112353000Y-106027881D01*
X112565680Y-106541337D01*
X112774343Y-106750000D01*
X112565680Y-106958663D01*
X112353000Y-107472119D01*
X112353000Y-108027881D01*
X112565680Y-108541337D01*
X112774343Y-108750000D01*
X112565680Y-108958663D01*
X112353000Y-109472119D01*
X112353000Y-110027881D01*
X112565680Y-110541337D01*
X112774343Y-110750000D01*
X112565680Y-110958663D01*
X112353000Y-111472119D01*
X112353000Y-112027881D01*
X112565680Y-112541337D01*
X112774343Y-112750000D01*
X112565680Y-112958663D01*
X112353000Y-113472119D01*
X112353000Y-114027881D01*
X112565680Y-114541337D01*
X112774343Y-114750000D01*
X112565680Y-114958663D01*
X112353000Y-115472119D01*
X112353000Y-116027881D01*
X112565680Y-116541337D01*
X112774343Y-116750000D01*
X112565680Y-116958663D01*
X112353000Y-117472119D01*
X112353000Y-118027881D01*
X112565680Y-118541337D01*
X112774343Y-118750000D01*
X112565680Y-118958663D01*
X112353000Y-119472119D01*
X112353000Y-120027881D01*
X112565680Y-120541337D01*
X112958663Y-120934320D01*
X113223711Y-121044106D01*
X113750000Y-121570395D01*
X114276289Y-121044106D01*
X114541337Y-120934320D01*
X114934320Y-120541337D01*
X115147000Y-120027881D01*
X115147000Y-119472119D01*
X114934320Y-118958663D01*
X114725657Y-118750000D01*
X114934320Y-118541337D01*
X115147000Y-118027881D01*
X115147000Y-117472119D01*
X114934320Y-116958663D01*
X114725657Y-116750000D01*
X114934320Y-116541337D01*
X115147000Y-116027881D01*
X115147000Y-115472119D01*
X114934320Y-114958663D01*
X114725657Y-114750000D01*
X114934320Y-114541337D01*
X115147000Y-114027881D01*
X115147000Y-113472119D01*
X114934320Y-112958663D01*
X114725657Y-112750000D01*
X114934320Y-112541337D01*
X115147000Y-112027881D01*
X115147000Y-111472119D01*
X114934320Y-110958663D01*
X114725657Y-110750000D01*
X114934320Y-110541337D01*
X115090202Y-110165004D01*
X115715000Y-110789802D01*
X115715000Y-110955874D01*
X115872569Y-111336280D01*
X116163720Y-111627431D01*
X116544126Y-111785000D01*
X116955874Y-111785000D01*
X117336280Y-111627431D01*
X117627431Y-111336280D01*
X117785000Y-110955874D01*
X117785000Y-110544126D01*
X117627431Y-110163720D01*
X117336280Y-109872569D01*
X116955874Y-109715000D01*
X116789802Y-109715000D01*
X115134020Y-108059218D01*
X115147000Y-108027881D01*
X115147000Y-107472119D01*
X114934320Y-106958663D01*
X114725657Y-106750000D01*
X114934320Y-106541337D01*
X115147000Y-106027881D01*
X115147000Y-105472119D01*
X114934320Y-104958663D01*
X114725657Y-104750000D01*
X114934320Y-104541337D01*
X114947300Y-104510000D01*
X116652560Y-104510000D01*
X116652560Y-104900000D01*
X116701843Y-105147765D01*
X116842191Y-105357809D01*
X117052235Y-105498157D01*
X117300000Y-105547440D01*
X118200000Y-105547440D01*
X118447765Y-105498157D01*
X118652560Y-105361316D01*
X118652560Y-105422638D01*
X117265530Y-106809669D01*
X117202071Y-106852071D01*
X117197810Y-106858449D01*
X117163720Y-106872569D01*
X116872569Y-107163720D01*
X116715000Y-107544126D01*
X116715000Y-107955874D01*
X116872569Y-108336280D01*
X117163720Y-108627431D01*
X117544126Y-108785000D01*
X117955874Y-108785000D01*
X118336280Y-108627431D01*
X118627431Y-108336280D01*
X118785000Y-107955874D01*
X118785000Y-107544126D01*
X118754444Y-107470357D01*
X119727362Y-106497440D01*
X120200000Y-106497440D01*
X120447765Y-106448157D01*
X120657809Y-106307809D01*
X120798157Y-106097765D01*
X120847440Y-105850000D01*
X120847440Y-105050000D01*
X120798157Y-104802235D01*
X120657809Y-104592191D01*
X120519836Y-104500000D01*
X120657809Y-104407809D01*
X120798157Y-104197765D01*
X120847440Y-103950000D01*
X120847440Y-103150000D01*
X120819593Y-103010000D01*
X134544416Y-103010000D01*
X134353000Y-103472119D01*
X134353000Y-104027881D01*
X134565680Y-104541337D01*
X134774343Y-104750000D01*
X134565680Y-104958663D01*
X134353000Y-105472119D01*
X134353000Y-106027881D01*
X134565680Y-106541337D01*
X134774343Y-106750000D01*
X134565680Y-106958663D01*
X134353000Y-107472119D01*
X134353000Y-108027881D01*
X134565680Y-108541337D01*
X134774343Y-108750000D01*
X134565680Y-108958663D01*
X134353000Y-109472119D01*
X134353000Y-110027881D01*
X134565680Y-110541337D01*
X134774343Y-110750000D01*
X134565680Y-110958663D01*
X134353000Y-111472119D01*
X134353000Y-112027881D01*
X134565680Y-112541337D01*
X134774343Y-112750000D01*
X134565680Y-112958663D01*
X134353000Y-113472119D01*
X134353000Y-114027881D01*
X134565680Y-114541337D01*
X134774343Y-114750000D01*
X134565680Y-114958663D01*
X134353000Y-115472119D01*
X134353000Y-116027881D01*
X134565680Y-116541337D01*
X134774343Y-116750000D01*
X134565680Y-116958663D01*
X134353000Y-117472119D01*
X134353000Y-118027881D01*
X134565680Y-118541337D01*
X134774343Y-118750000D01*
X134565680Y-118958663D01*
X134353000Y-119472119D01*
X134353000Y-120027881D01*
X134565680Y-120541337D01*
X134774343Y-120750000D01*
X134565680Y-120958663D01*
X134353000Y-121472119D01*
X134353000Y-122027881D01*
X134565680Y-122541337D01*
X134958663Y-122934320D01*
X135472119Y-123147000D01*
X136027881Y-123147000D01*
X136541337Y-122934320D01*
X136934320Y-122541337D01*
X137147000Y-122027881D01*
X137147000Y-121472119D01*
X136934320Y-120958663D01*
X136725657Y-120750000D01*
X136934320Y-120541337D01*
X137147000Y-120027881D01*
X137147000Y-119472119D01*
X136934320Y-118958663D01*
X136725657Y-118750000D01*
X136934320Y-118541337D01*
X137147000Y-118027881D01*
X137147000Y-117472119D01*
X136934320Y-116958663D01*
X136725657Y-116750000D01*
X136934320Y-116541337D01*
X137147000Y-116027881D01*
X137147000Y-115472119D01*
X136934320Y-114958663D01*
X136725657Y-114750000D01*
X136934320Y-114541337D01*
X137147000Y-114027881D01*
X137147000Y-113472119D01*
X136934320Y-112958663D01*
X136725657Y-112750000D01*
X136934320Y-112541337D01*
X137147000Y-112027881D01*
X137147000Y-111472119D01*
X136934320Y-110958663D01*
X136725657Y-110750000D01*
X136934320Y-110541337D01*
X137147000Y-110027881D01*
X137147000Y-109472119D01*
X136934320Y-108958663D01*
X136725657Y-108750000D01*
X136934320Y-108541337D01*
X137147000Y-108027881D01*
X137147000Y-107472119D01*
X136934320Y-106958663D01*
X136725657Y-106750000D01*
X136934320Y-106541337D01*
X137147000Y-106027881D01*
X137147000Y-105472119D01*
X136934320Y-104958663D01*
X136725657Y-104750000D01*
X136934320Y-104541337D01*
X137081425Y-104186191D01*
X138390000Y-104186191D01*
X138390000Y-104464250D01*
X138548750Y-104623000D01*
X139373000Y-104623000D01*
X139373000Y-103836250D01*
X139627000Y-103836250D01*
X139627000Y-104623000D01*
X140451250Y-104623000D01*
X140610000Y-104464250D01*
X140610000Y-104186191D01*
X140513327Y-103952802D01*
X140334699Y-103774173D01*
X140101310Y-103677500D01*
X139785750Y-103677500D01*
X139627000Y-103836250D01*
X139373000Y-103836250D01*
X139214250Y-103677500D01*
X138898690Y-103677500D01*
X138665301Y-103774173D01*
X138486673Y-103952802D01*
X138390000Y-104186191D01*
X137081425Y-104186191D01*
X137147000Y-104027881D01*
X137147000Y-103472119D01*
X136955584Y-103010000D01*
X137296289Y-103010000D01*
X137413720Y-103127431D01*
X137794126Y-103285000D01*
X138205874Y-103285000D01*
X138586280Y-103127431D01*
X138877431Y-102836280D01*
X139035000Y-102455874D01*
X139035000Y-102044126D01*
X138877431Y-101663720D01*
X138586280Y-101372569D01*
X138205874Y-101215000D01*
X137794126Y-101215000D01*
X137413720Y-101372569D01*
X137296289Y-101490000D01*
X120474848Y-101490000D01*
X120400000Y-101475112D01*
X120325152Y-101490000D01*
X120325148Y-101490000D01*
X120151605Y-101524520D01*
X120103462Y-101534096D01*
X119916418Y-101659076D01*
X119852071Y-101702071D01*
X119809671Y-101765527D01*
X119265530Y-102309669D01*
X119202071Y-102352071D01*
X119071095Y-102548092D01*
X119052235Y-102551843D01*
X118842191Y-102692191D01*
X118701843Y-102902235D01*
X118652560Y-103150000D01*
X118652560Y-103638684D01*
X118447765Y-103501843D01*
X118428906Y-103498092D01*
X118297929Y-103302071D01*
X118237984Y-103262017D01*
X118197929Y-103202071D01*
X117946537Y-103034096D01*
X117724852Y-102990000D01*
X117724847Y-102990000D01*
X117650000Y-102975112D01*
X117575153Y-102990000D01*
X114947300Y-102990000D01*
X114934320Y-102958663D01*
X114541337Y-102565680D01*
X114027881Y-102353000D01*
X113472119Y-102353000D01*
X112958663Y-102565680D01*
X112565680Y-102958663D01*
X112353000Y-103472119D01*
X109210000Y-103472119D01*
X109210000Y-98055431D01*
X109265000Y-98055431D01*
X109265000Y-98944569D01*
X109605259Y-99766026D01*
X110233974Y-100394741D01*
X111055431Y-100735000D01*
X111944569Y-100735000D01*
X112766026Y-100394741D01*
X113394741Y-99766026D01*
X113735000Y-98944569D01*
X113735000Y-98055431D01*
X147265000Y-98055431D01*
X147265000Y-98944569D01*
X147605259Y-99766026D01*
X148233974Y-100394741D01*
X149055431Y-100735000D01*
X149944569Y-100735000D01*
X150766026Y-100394741D01*
X151394741Y-99766026D01*
X151735000Y-98944569D01*
X151735000Y-98055431D01*
X151394741Y-97233974D01*
X150766026Y-96605259D01*
X149944569Y-96265000D01*
X149055431Y-96265000D01*
X148233974Y-96605259D01*
X147605259Y-97233974D01*
X147265000Y-98055431D01*
X113735000Y-98055431D01*
X113394741Y-97233974D01*
X112766026Y-96605259D01*
X111944569Y-96265000D01*
X111055431Y-96265000D01*
X110233974Y-96605259D01*
X109605259Y-97233974D01*
X109265000Y-98055431D01*
X109210000Y-98055431D01*
X109210000Y-96210000D01*
X151790001Y-96210000D01*
X151790000Y-131563473D01*
G36*
X118343750Y-142873000D02*
X118422341Y-142873000D01*
X118572235Y-142973157D01*
X118707185Y-143000000D01*
X118572235Y-143026843D01*
X118422341Y-143127000D01*
X118343750Y-143127000D01*
X118204199Y-143266551D01*
X118137809Y-143167191D01*
X117927765Y-143026843D01*
X117811053Y-143003628D01*
X117816644Y-142995260D01*
X117927765Y-142973157D01*
X118137809Y-142832809D01*
X118204199Y-142733449D01*
X118343750Y-142873000D01*
X118343750Y-142873000D01*
G37*
X118343750Y-142873000D02*
X118422341Y-142873000D01*
X118572235Y-142973157D01*
X118707185Y-143000000D01*
X118572235Y-143026843D01*
X118422341Y-143127000D01*
X118343750Y-143127000D01*
X118204199Y-143266551D01*
X118137809Y-143167191D01*
X117927765Y-143026843D01*
X117811053Y-143003628D01*
X117816644Y-142995260D01*
X117927765Y-142973157D01*
X118137809Y-142832809D01*
X118204199Y-142733449D01*
X118343750Y-142873000D01*
G36*
X120418761Y-142868739D02*
X120425135Y-142872998D01*
X120356252Y-142872998D01*
X120395429Y-142833821D01*
X120418761Y-142868739D01*
X120418761Y-142868739D01*
G37*
X120418761Y-142868739D02*
X120425135Y-142872998D01*
X120356252Y-142872998D01*
X120395429Y-142833821D01*
X120418761Y-142868739D01*
G36*
X122745629Y-138079570D02*
X122835000Y-137863809D01*
X122835000Y-137535750D01*
X122676250Y-137377000D01*
X121627000Y-137377000D01*
X121627000Y-137397000D01*
X121373000Y-137397000D01*
X121373000Y-137377000D01*
X120323750Y-137377000D01*
X120165000Y-137535750D01*
X120165000Y-137863809D01*
X120261673Y-138097198D01*
X120414767Y-138250293D01*
X120413584Y-138251084D01*
X120220398Y-138540206D01*
X120152560Y-138881250D01*
X120152560Y-139368750D01*
X120157353Y-139392845D01*
X120122500Y-139427698D01*
X120122500Y-139035750D01*
X119963750Y-138877000D01*
X119127000Y-138877000D01*
X119127000Y-139926250D01*
X119285750Y-140085000D01*
X119465199Y-140085000D01*
X118865528Y-140684671D01*
X118802072Y-140727071D01*
X118759672Y-140790527D01*
X118759671Y-140790528D01*
X118686599Y-140899888D01*
X118634097Y-140978463D01*
X118605914Y-141120144D01*
X118572235Y-141126843D01*
X118362191Y-141267191D01*
X118250000Y-141435095D01*
X118137809Y-141267191D01*
X117927765Y-141126843D01*
X117910000Y-141123309D01*
X117910000Y-139895828D01*
X117998916Y-139836416D01*
X117999707Y-139835233D01*
X118152802Y-139988327D01*
X118386191Y-140085000D01*
X118714250Y-140085000D01*
X118873000Y-139926250D01*
X118873000Y-138877000D01*
X118853000Y-138877000D01*
X118853000Y-138623000D01*
X118873000Y-138623000D01*
X118873000Y-137573750D01*
X119127000Y-137573750D01*
X119127000Y-138623000D01*
X119963750Y-138623000D01*
X120122500Y-138464250D01*
X120122500Y-137923690D01*
X120025827Y-137690301D01*
X119847198Y-137511673D01*
X119613809Y-137415000D01*
X119285750Y-137415000D01*
X119127000Y-137573750D01*
X118873000Y-137573750D01*
X118714250Y-137415000D01*
X118386191Y-137415000D01*
X118152802Y-137511673D01*
X117999707Y-137664767D01*
X117998916Y-137663584D01*
X117709794Y-137470398D01*
X117368750Y-137402560D01*
X116881250Y-137402560D01*
X116540206Y-137470398D01*
X116251084Y-137663584D01*
X116057898Y-137952706D01*
X115990060Y-138293750D01*
X115990060Y-139206250D01*
X116057898Y-139547294D01*
X116251084Y-139836416D01*
X116390001Y-139929238D01*
X116390000Y-141123309D01*
X116372235Y-141126843D01*
X116162191Y-141267191D01*
X116021843Y-141477235D01*
X115972560Y-141725000D01*
X115972560Y-142375000D01*
X116021843Y-142622765D01*
X116044110Y-142656089D01*
X115960199Y-142740000D01*
X112747440Y-142740000D01*
X112747440Y-142650000D01*
X112698157Y-142402235D01*
X112557809Y-142192191D01*
X112347765Y-142051843D01*
X112100000Y-142002560D01*
X112010000Y-142002560D01*
X112010000Y-140622440D01*
X112256250Y-140622440D01*
X112587727Y-140556505D01*
X112868739Y-140368739D01*
X113056505Y-140087727D01*
X113122440Y-139756250D01*
X113122440Y-139243750D01*
X113056505Y-138912273D01*
X112868739Y-138631261D01*
X112797500Y-138583661D01*
X112797500Y-138437346D01*
X112812388Y-138362499D01*
X112797500Y-138287652D01*
X112797500Y-138287648D01*
X112753404Y-138065963D01*
X112677728Y-137952706D01*
X112627829Y-137878026D01*
X112627827Y-137878024D01*
X112604517Y-137843138D01*
X112797198Y-137763327D01*
X112975827Y-137584699D01*
X113072500Y-137351310D01*
X113072500Y-137035750D01*
X112913750Y-136877000D01*
X112127000Y-136877000D01*
X112127000Y-136897000D01*
X111873000Y-136897000D01*
X111873000Y-136877000D01*
X111853000Y-136877000D01*
X111853000Y-136636191D01*
X120165000Y-136636191D01*
X120165000Y-136964250D01*
X120323750Y-137123000D01*
X121373000Y-137123000D01*
X121373000Y-136286250D01*
X121627000Y-136286250D01*
X121627000Y-137123000D01*
X122676250Y-137123000D01*
X122835000Y-136964250D01*
X122835000Y-136636191D01*
X122738327Y-136402802D01*
X122559699Y-136224173D01*
X122326310Y-136127500D01*
X121785750Y-136127500D01*
X121627000Y-136286250D01*
X121373000Y-136286250D01*
X121214250Y-136127500D01*
X120673690Y-136127500D01*
X120440301Y-136224173D01*
X120261673Y-136402802D01*
X120165000Y-136636191D01*
X111853000Y-136636191D01*
X111853000Y-136623000D01*
X111873000Y-136623000D01*
X111873000Y-136603000D01*
X112127000Y-136603000D01*
X112127000Y-136623000D01*
X112913750Y-136623000D01*
X113072500Y-136464250D01*
X113072500Y-136148690D01*
X112975827Y-135915301D01*
X112797198Y-135736673D01*
X112596331Y-135653471D01*
X113539802Y-134710000D01*
X126115198Y-134710000D01*
X122745629Y-138079570D01*
X122745629Y-138079570D01*
G37*
X122745629Y-138079570D02*
X122835000Y-137863809D01*
X122835000Y-137535750D01*
X122676250Y-137377000D01*
X121627000Y-137377000D01*
X121627000Y-137397000D01*
X121373000Y-137397000D01*
X121373000Y-137377000D01*
X120323750Y-137377000D01*
X120165000Y-137535750D01*
X120165000Y-137863809D01*
X120261673Y-138097198D01*
X120414767Y-138250293D01*
X120413584Y-138251084D01*
X120220398Y-138540206D01*
X120152560Y-138881250D01*
X120152560Y-139368750D01*
X120157353Y-139392845D01*
X120122500Y-139427698D01*
X120122500Y-139035750D01*
X119963750Y-138877000D01*
X119127000Y-138877000D01*
X119127000Y-139926250D01*
X119285750Y-140085000D01*
X119465199Y-140085000D01*
X118865528Y-140684671D01*
X118802072Y-140727071D01*
X118759672Y-140790527D01*
X118759671Y-140790528D01*
X118686599Y-140899888D01*
X118634097Y-140978463D01*
X118605914Y-141120144D01*
X118572235Y-141126843D01*
X118362191Y-141267191D01*
X118250000Y-141435095D01*
X118137809Y-141267191D01*
X117927765Y-141126843D01*
X117910000Y-141123309D01*
X117910000Y-139895828D01*
X117998916Y-139836416D01*
X117999707Y-139835233D01*
X118152802Y-139988327D01*
X118386191Y-140085000D01*
X118714250Y-140085000D01*
X118873000Y-139926250D01*
X118873000Y-138877000D01*
X118853000Y-138877000D01*
X118853000Y-138623000D01*
X118873000Y-138623000D01*
X118873000Y-137573750D01*
X119127000Y-137573750D01*
X119127000Y-138623000D01*
X119963750Y-138623000D01*
X120122500Y-138464250D01*
X120122500Y-137923690D01*
X120025827Y-137690301D01*
X119847198Y-137511673D01*
X119613809Y-137415000D01*
X119285750Y-137415000D01*
X119127000Y-137573750D01*
X118873000Y-137573750D01*
X118714250Y-137415000D01*
X118386191Y-137415000D01*
X118152802Y-137511673D01*
X117999707Y-137664767D01*
X117998916Y-137663584D01*
X117709794Y-137470398D01*
X117368750Y-137402560D01*
X116881250Y-137402560D01*
X116540206Y-137470398D01*
X116251084Y-137663584D01*
X116057898Y-137952706D01*
X115990060Y-138293750D01*
X115990060Y-139206250D01*
X116057898Y-139547294D01*
X116251084Y-139836416D01*
X116390001Y-139929238D01*
X116390000Y-141123309D01*
X116372235Y-141126843D01*
X116162191Y-141267191D01*
X116021843Y-141477235D01*
X115972560Y-141725000D01*
X115972560Y-142375000D01*
X116021843Y-142622765D01*
X116044110Y-142656089D01*
X115960199Y-142740000D01*
X112747440Y-142740000D01*
X112747440Y-142650000D01*
X112698157Y-142402235D01*
X112557809Y-142192191D01*
X112347765Y-142051843D01*
X112100000Y-142002560D01*
X112010000Y-142002560D01*
X112010000Y-140622440D01*
X112256250Y-140622440D01*
X112587727Y-140556505D01*
X112868739Y-140368739D01*
X113056505Y-140087727D01*
X113122440Y-139756250D01*
X113122440Y-139243750D01*
X113056505Y-138912273D01*
X112868739Y-138631261D01*
X112797500Y-138583661D01*
X112797500Y-138437346D01*
X112812388Y-138362499D01*
X112797500Y-138287652D01*
X112797500Y-138287648D01*
X112753404Y-138065963D01*
X112677728Y-137952706D01*
X112627829Y-137878026D01*
X112627827Y-137878024D01*
X112604517Y-137843138D01*
X112797198Y-137763327D01*
X112975827Y-137584699D01*
X113072500Y-137351310D01*
X113072500Y-137035750D01*
X112913750Y-136877000D01*
X112127000Y-136877000D01*
X112127000Y-136897000D01*
X111873000Y-136897000D01*
X111873000Y-136877000D01*
X111853000Y-136877000D01*
X111853000Y-136636191D01*
X120165000Y-136636191D01*
X120165000Y-136964250D01*
X120323750Y-137123000D01*
X121373000Y-137123000D01*
X121373000Y-136286250D01*
X121627000Y-136286250D01*
X121627000Y-137123000D01*
X122676250Y-137123000D01*
X122835000Y-136964250D01*
X122835000Y-136636191D01*
X122738327Y-136402802D01*
X122559699Y-136224173D01*
X122326310Y-136127500D01*
X121785750Y-136127500D01*
X121627000Y-136286250D01*
X121373000Y-136286250D01*
X121214250Y-136127500D01*
X120673690Y-136127500D01*
X120440301Y-136224173D01*
X120261673Y-136402802D01*
X120165000Y-136636191D01*
X111853000Y-136636191D01*
X111853000Y-136623000D01*
X111873000Y-136623000D01*
X111873000Y-136603000D01*
X112127000Y-136603000D01*
X112127000Y-136623000D01*
X112913750Y-136623000D01*
X113072500Y-136464250D01*
X113072500Y-136148690D01*
X112975827Y-135915301D01*
X112797198Y-135736673D01*
X112596331Y-135653471D01*
X113539802Y-134710000D01*
X126115198Y-134710000D01*
X122745629Y-138079570D01*
G36*
X150302235Y-133498157D02*
X150550000Y-133547440D01*
X151450000Y-133547440D01*
X151697765Y-133498157D01*
X151790000Y-133436527D01*
X151790000Y-136512842D01*
X151610179Y-136195745D01*
X151250331Y-135915177D01*
X150810506Y-135793674D01*
X150627000Y-135953407D01*
X150627000Y-136833000D01*
X150647000Y-136833000D01*
X150647000Y-137070000D01*
X150353000Y-137070000D01*
X150353000Y-136833000D01*
X150373000Y-136833000D01*
X150373000Y-135953407D01*
X150189494Y-135793674D01*
X149760000Y-135912323D01*
X149760000Y-134406573D01*
X149907809Y-134307809D01*
X150048157Y-134097765D01*
X150097440Y-133850000D01*
X150097440Y-133361316D01*
X150302235Y-133498157D01*
X150302235Y-133498157D01*
G37*
X150302235Y-133498157D02*
X150550000Y-133547440D01*
X151450000Y-133547440D01*
X151697765Y-133498157D01*
X151790000Y-133436527D01*
X151790000Y-136512842D01*
X151610179Y-136195745D01*
X151250331Y-135915177D01*
X150810506Y-135793674D01*
X150627000Y-135953407D01*
X150627000Y-136833000D01*
X150647000Y-136833000D01*
X150647000Y-137070000D01*
X150353000Y-137070000D01*
X150353000Y-136833000D01*
X150373000Y-136833000D01*
X150373000Y-135953407D01*
X150189494Y-135793674D01*
X149760000Y-135912323D01*
X149760000Y-134406573D01*
X149907809Y-134307809D01*
X150048157Y-134097765D01*
X150097440Y-133850000D01*
X150097440Y-133361316D01*
X150302235Y-133498157D01*
G36*
X141347560Y-116500000D02*
X141396843Y-116747765D01*
X141537191Y-116957809D01*
X141747235Y-117098157D01*
X141995000Y-117147440D01*
X142625002Y-117147440D01*
X142625001Y-120988457D01*
X142356256Y-120935000D01*
X142063744Y-120935000D01*
X141630582Y-121021161D01*
X141139375Y-121349375D01*
X140811161Y-121840582D01*
X140695908Y-122420000D01*
X140811161Y-122999418D01*
X141139375Y-123490625D01*
X141437761Y-123690000D01*
X141139375Y-123889375D01*
X140811161Y-124380582D01*
X140695908Y-124960000D01*
X140768791Y-125326407D01*
X137092639Y-129002560D01*
X135997440Y-129002560D01*
X135997440Y-127900000D01*
X135948157Y-127652235D01*
X135807809Y-127442191D01*
X135597765Y-127301843D01*
X135387404Y-127260000D01*
X135425153Y-127260000D01*
X135500000Y-127274888D01*
X135574847Y-127260000D01*
X135574852Y-127260000D01*
X135796537Y-127215904D01*
X136047929Y-127047929D01*
X136090331Y-126984470D01*
X138484473Y-124590329D01*
X138547929Y-124547929D01*
X138715904Y-124296537D01*
X138760000Y-124074852D01*
X138760000Y-124074847D01*
X138774888Y-124000000D01*
X138760000Y-123925153D01*
X138760000Y-115667260D01*
X138912273Y-115769005D01*
X139243750Y-115834940D01*
X139756250Y-115834940D01*
X140087727Y-115769005D01*
X140368739Y-115581239D01*
X140416339Y-115510000D01*
X141347560Y-115510000D01*
X141347560Y-116500000D01*
X141347560Y-116500000D01*
G37*
X141347560Y-116500000D02*
X141396843Y-116747765D01*
X141537191Y-116957809D01*
X141747235Y-117098157D01*
X141995000Y-117147440D01*
X142625002Y-117147440D01*
X142625001Y-120988457D01*
X142356256Y-120935000D01*
X142063744Y-120935000D01*
X141630582Y-121021161D01*
X141139375Y-121349375D01*
X140811161Y-121840582D01*
X140695908Y-122420000D01*
X140811161Y-122999418D01*
X141139375Y-123490625D01*
X141437761Y-123690000D01*
X141139375Y-123889375D01*
X140811161Y-124380582D01*
X140695908Y-124960000D01*
X140768791Y-125326407D01*
X137092639Y-129002560D01*
X135997440Y-129002560D01*
X135997440Y-127900000D01*
X135948157Y-127652235D01*
X135807809Y-127442191D01*
X135597765Y-127301843D01*
X135387404Y-127260000D01*
X135425153Y-127260000D01*
X135500000Y-127274888D01*
X135574847Y-127260000D01*
X135574852Y-127260000D01*
X135796537Y-127215904D01*
X136047929Y-127047929D01*
X136090331Y-126984470D01*
X138484473Y-124590329D01*
X138547929Y-124547929D01*
X138715904Y-124296537D01*
X138760000Y-124074852D01*
X138760000Y-124074847D01*
X138774888Y-124000000D01*
X138760000Y-123925153D01*
X138760000Y-115667260D01*
X138912273Y-115769005D01*
X139243750Y-115834940D01*
X139756250Y-115834940D01*
X140087727Y-115769005D01*
X140368739Y-115581239D01*
X140416339Y-115510000D01*
X141347560Y-115510000D01*
X141347560Y-116500000D01*
G04 #@! TD*
M02*
